<?xml version="1.0" encoding="UTF-8" standalone="no"?>
<!DOCTYPE svg PUBLIC "-//W3C//DTD SVG 1.1//EN" "http://www.w3.org/Graphics/SVG/1.1/DTD/svg11.dtd">
<svg width="100%" height="100%" viewBox="0 0 925 691" version="1.1" xmlns="http://www.w3.org/2000/svg" xmlns:xlink="http://www.w3.org/1999/xlink" xml:space="preserve" xmlns:serif="http://www.serif.com/" style="fill-rule:evenodd;clip-rule:evenodd;stroke-linejoin:round;stroke-miterlimit:2;">
    <g transform="matrix(1,0,0,1,-2657.5,-614.562)">
        <g transform="matrix(1,0,0,1,2160,0)">
            <g transform="matrix(1,0,0,1,807.195,900.079)">
                <path d="M0,96.058C-2.027,181.615 4.921,184.297 -32.196,223.16C-47.8,235.758 -61.4,240.758 -79.7,240.658C-193.394,237.02 -183.279,23.497 0.4,29.358L0,96.058ZM274.3,-246.842C487.685,-212.48 433.152,95.498 231.3,89.358L231.3,-249.942C243.769,-249.59 263.385,-248.705 274.3,-246.842M54.3,-279.642L54.3,-259.642C60.916,-260.326 68.666,-256.776 74.7,-251.042C99.963,-227.51 91.949,-179.963 93.3,-137.542C68.43,-161.943 38.287,-179.103 1.7,-187.142C-89.162,-204.156 -272.656,-188.067 -273.902,-73.646C-275.235,-18.691 -223.656,16.993 -171.999,5.856C-121.62,-2.819 -92.938,-44.478 -92.4,-97.542C-100.832,-94.254 -119.945,-94.821 -126.739,-98.309C-136.682,-104.657 -138.291,-111.39 -138.96,-125.752C-136.917,-176.964 -44.657,-167.277 -23.001,-133.641C4.594,-101.41 -0.459,-51.199 0.5,0.358C-419.847,-7.794 -361.293,351.793 -128.8,312.963C-77.361,302.971 -32,271.911 -0.1,232.558C0.873,284.296 38.329,317.931 93.6,317.658C94.344,349.666 80.202,385.152 54.3,385.658L54.3,405.358L270.3,405.358L270.3,385.658C253.167,384.237 240.445,370.075 234.1,347.058C231.9,338.858 231.9,338.558 231.6,229.258L231.2,119.558C241.516,119.487 285.786,119.543 285.786,119.543C285.786,119.543 302.7,150.958 337.2,221.358C368.435,294.907 429.434,372.656 378.3,385.658L378.3,405.358L615.3,405.358L615.3,385.858C587.488,380.986 565.978,359.334 545.3,321.058C536.5,304.058 429.3,84.658 429.4,83.758C429.4,83.258 436.1,79.658 444.1,75.658C573.245,18.259 612.194,-149.869 488.496,-235.343C389.086,-309.3 54.3,-279.642 54.3,-279.642Z" style="fill:rgb(35,50,221);fill-rule:nonzero;"/>
            </g>
        </g>
    </g>
</svg>
