<?xml version="1.0" encoding="UTF-8"?>
<svg id="Capa_2" data-name="Capa 2" xmlns="http://www.w3.org/2000/svg" viewBox="0 0 225.65 232.18">
  <defs>
    <style>
      .cls-1 {
        fill: #fff;
      }

      .cls-2 {
        fill: #7ca0fc;
      }

      .cls-3 {
        fill: #ff6371;
      }

      .cls-4 {
        fill: #ffcf4b;
      }

      .cls-5 {
        fill: #080717;
      }
    </style>
  </defs>
  <g id="Layer_2" data-name="Layer 2">
    <g>
      <g>
        <path d="M184.65,2c4.95,0,8.97,4.02,8.97,8.97v210.24c0,4.95-4.02,8.97-8.97,8.97H10.97c-4.95,0-8.97-4.02-8.97-8.97V10.97C2,6.02,6.02,2,10.97,2h173.68M184.65,0H10.97C4.92,0,0,4.92,0,10.97v210.24c0,6.05,4.92,10.97,10.97,10.97h173.68c6.05,0,10.97-4.92,10.97-10.97V10.97c0-6.05-4.92-10.97-10.97-10.97h0Z"/>
        <rect class="cls-2" x="2" y="38.08" width="191.62" height="122.19"/>
        <path class="cls-2" d="M30.38,20.13c0,5.71-4.63,10.35-10.35,10.35s-10.35-4.63-10.35-10.35,4.63-10.35,10.35-10.35,10.35,4.63,10.35,10.35Z"/>
        <polygon class="cls-1" points="20.03 13.19 22.29 17.75 27.33 18.49 23.68 22.04 24.54 27.06 20.03 24.69 15.52 27.06 16.38 22.04 12.73 18.49 17.78 17.75 20.03 13.19"/>
        <path d="M16.79,185.36c-.24,0-.47-.08-.66-.25l-.28-.24c-.9-.92-2.55-2.67-4.14-4.59-.1-.11-.22-.25-.37-.42-.99-1.09-2.84-3.11-2.63-5.41.11-1.24.78-2.33,1.99-3.27,2.46-1.89,4.78-.28,6.07.94,1.29-1.21,3.61-2.83,6.07-.94h0c1.21.93,1.88,2.03,1.99,3.27.2,2.31-1.64,4.33-2.64,5.42-.15.16-.28.3-.37.42-1.71,2.06-3.73,4.18-4.31,4.78-.2.2-.46.31-.72.31ZM13.07,172.32c-.41,0-.79.15-1.16.44-.76.58-1.16,1.19-1.22,1.86-.13,1.43,1.33,3.03,2.12,3.89.18.19.33.36.44.49,1.29,1.56,2.63,3.01,3.52,3.94.88-.93,2.28-2.45,3.51-3.94.11-.13.26-.3.44-.49.78-.86,2.25-2.46,2.12-3.89-.06-.66-.46-1.27-1.22-1.86h0c-1.14-.88-2.34-.45-4.12,1.46-.19.2-.45.32-.73.32h0c-.28,0-.54-.11-.73-.32-1.2-1.28-2.14-1.9-2.96-1.9Z"/>
        <path d="M41.29,186.74c-.26,0-.52-.1-.71-.3l-3.33-3.36h-6.29c-1.25,0-2.26-1.06-2.26-2.35v-7.59c0-1.3,1.01-2.35,2.26-2.35h12.2c1.25,0,2.26,1.05,2.26,2.35v7.59c0,1.3-1.02,2.35-2.26,2.35h-.87v2.65c0,.41-.24.77-.62.92-.12.05-.25.08-.38.08ZM30.95,172.79c-.14,0-.26.16-.26.35v7.59c0,.19.12.35.26.35h6.71c.27,0,.52.11.71.3l1.91,1.93v-1.23c0-.55.45-1,1-1h1.87c.14,0,.26-.16.26-.35v-7.59c0-.19-.12-.35-.26-.35h-12.2Z"/>
        <path class="cls-2" d="M63.13,207.18H12.3c-1.44,0-2.62-1.17-2.62-2.62h0c0-1.44,1.17-2.62,2.62-2.62h50.83c1.44,0,2.62,1.17,2.62,2.62h0c0,1.44-1.17,2.62-2.62,2.62Z"/>
        <path class="cls-2" d="M101.07,207.18h-27.88c-1.44,0-2.62-1.17-2.62-2.62h0c0-1.44,1.17-2.62,2.62-2.62h27.88c1.44,0,2.62,1.17,2.62,2.62h0c0,1.44-1.17,2.62-2.62,2.62Z"/>
        <path class="cls-2" d="M119.55,207.18h-8.47c-1.44,0-2.62-1.17-2.62-2.62h0c0-1.44,1.17-2.62,2.62-2.62h8.47c1.44,0,2.62,1.17,2.62,2.62h0c0,1.44-1.17,2.62-2.62,2.62Z"/>
        <path class="cls-2" d="M78.91,22.28h-41.79c-1.19,0-2.15-.96-2.15-2.15h0c0-1.19.96-2.15,2.15-2.15h41.79c1.19,0,2.15.96,2.15,2.15h0c0,1.19-.96,2.15-2.15,2.15Z"/>
        <path class="cls-2" d="M109.95,22.28h-22.76c-1.19,0-2.15-.96-2.15-2.15h0c0-1.19.96-2.15,2.15-2.15h22.76c1.19,0,2.15.96,2.15,2.15h0c0,1.19-.96,2.15-2.15,2.15Z"/>
        <path class="cls-2" d="M33.09,197.3H12.3c-1.44,0-2.62-1.17-2.62-2.62h0c0-1.44,1.17-2.62,2.62-2.62h20.79c1.44,0,2.62,1.17,2.62,2.62h0c0,1.44-1.17,2.62-2.62,2.62Z"/>
        <path d="M55.61,214.72H9.68c-.55,0-1-.45-1-1s.45-1,1-1h45.92c.55,0,1,.45,1,1s-.45,1-1,1Z"/>
        <path d="M38.1,219.23H9.68c-.55,0-1-.45-1-1s.45-1,1-1h28.41c.55,0,1,.45,1,1s-.45,1-1,1Z"/>
        <g>
          <path d="M166.64,20.14c0,1.14-.92,2.06-2.06,2.06s-2.06-.92-2.06-2.06.92-2.06,2.06-2.06,2.06.92,2.06,2.06Z"/>
          <path d="M174.21,20.14c0,1.14-.92,2.06-2.06,2.06s-2.06-.92-2.06-2.06.92-2.06,2.06-2.06,2.06.92,2.06,2.06Z"/>
          <path d="M181.78,20.14c0,1.14-.92,2.06-2.06,2.06s-2.06-.92-2.06-2.06.92-2.06,2.06-2.06,2.06.92,2.06,2.06Z"/>
        </g>
      </g>
      <g>
        <circle class="cls-5" cx="116.89" cy="98.4" r="20.31" transform="translate(-35.9 99.83) rotate(-40.63)"/>
        <circle class="cls-5" cx="67.73" cy="88.01" r="23.49" transform="translate(-41.22 109.55) rotate(-63.6)"/>
        <circle class="cls-5" cx="50.07" cy="117.57" r="23.49" transform="translate(-77.5 110.15) rotate(-63.6)"/>
        <path class="cls-5" d="M47.98,139.19c-3.71,0-7.4-.86-10.82-2.55-5.83-2.9-10.19-7.89-12.27-14.06-2.08-6.17-1.63-12.78,1.27-18.62,2.89-5.83,7.89-10.19,14.06-12.27,6.17-2.08,12.78-1.63,18.62,1.27,5.83,2.9,10.19,7.89,12.27,14.06,2.08,6.17,1.63,12.78-1.27,18.62s-7.89,10.19-14.06,12.27c-2.55.86-5.18,1.29-7.8,1.29ZM47.99,92.2c-2.38,0-4.81.38-7.19,1.18-5.72,1.93-10.35,5.96-13.03,11.37-2.68,5.41-3.1,11.54-1.18,17.26,3.98,11.81,16.82,18.18,28.63,14.21,11.81-3.98,18.18-16.82,14.21-28.63-3.17-9.43-12-15.39-21.44-15.39Z"/>
        <path class="cls-5" d="M59.87,88.42c-5.54,0-10.73-3.5-12.59-9.04h0c-1.13-3.36-.89-6.96.69-10.13,1.58-3.17,4.29-5.55,7.65-6.68,3.36-1.13,6.96-.89,10.13.69,3.17,1.58,5.55,4.29,6.68,7.65,2.33,6.94-1.41,14.48-8.34,16.81-1.4.47-2.82.69-4.22.69ZM48.97,78.81c2.02,6,8.55,9.24,14.55,7.22,6-2.02,9.24-8.55,7.22-14.55-.98-2.91-3.03-5.26-5.78-6.62-2.75-1.36-5.86-1.58-8.77-.6-2.91.98-5.26,3.03-6.62,5.78-1.36,2.75-1.58,5.86-.6,8.77h0Z"/>
        <circle class="cls-5" cx="93.87" cy="61.73" r="31.51" transform="translate(-12.9 96.7) rotate(-51.47)"/>
        <circle class="cls-5" cx="80.88" cy="111.44" r="20.31"/>
        <path class="cls-1" d="M24.69,160.34c.98.19,15.7-65.92,55.93-47.99l7.91-21.06c-1.02.2-2.05.19-3.06-.09-4.71-1.3-7.03-7.7-5.04-14.15,1.83-5.95,6.9-9.82,11.3-8.63,3.18.86,5.27,4.03,5.71,7.97,2.7-11.68,11.48-19.99,21.25-19.3,11.14.79,19.35,13.01,18.33,27.29-1.02,14.28-10.88,25.21-22.02,24.41-1.16-.08-2.29-.3-3.39-.62l-5.12,13.58,5.99,1.9c4.81,1.52,8.6,5.25,10.21,10.03l9.08,26.98"/>
        <path class="cls-5" d="M97.32,74.19c.17.11.34.22.52.32,9.94,5.68,23.91.04,31.19-12.6.08-.14.16-.29.24-.43-3.01-2.8-6.69-4.57-10.75-4.87-9.43-.68-17.94,6.77-21.2,17.58Z"/>
        <path class="cls-5" d="M111.07,108.87c-.12,0-.23-.02-.34-.07-5.85-2.45-10.43-8.06-12.58-15.39-.14-.47.13-.97.6-1.11.48-.14.97.13,1.11.6,2,6.81,6.21,12,11.56,14.24.45.19.67.71.48,1.17-.14.34-.47.55-.82.55Z"/>
        <path class="cls-5" d="M132.78,77.96c-.51.51.2,2.07,1.6,3.5,1.4,1.42,2.95,2.17,3.47,1.66.51-.51-.2-2.07-1.6-3.5-1.4-1.42-2.95-2.17-3.47-1.66Z"/>
        <path class="cls-5" d="M115.18,77.28c-.05.89,1.91,1.74,4.38,1.88,2.47.15,4.52-.46,4.58-1.35s-1.91-1.74-4.38-1.88c-2.47-.15-4.52.46-4.58,1.35Z"/>
        <path class="cls-5" d="M126.38,90.73c-.33,0-.64-.18-.8-.49-.22-.44-.04-.98.4-1.2.65-.33,1.07-.96,1.12-1.68l.39-5.85c.03-.49.47-.87.95-.83.49.03.86.46.83.95l-.39,5.85c-.09,1.34-.89,2.55-2.1,3.16-.13.06-.26.09-.4.09Z"/>
        <path class="cls-5" d="M123.43,94.41c-2.12,0-3.15-1.34-3.42-2.2-.15-.47.11-.97.58-1.12.47-.15.96.11,1.11.57.09.24.63,1.39,2.86.8.47-.12.96.16,1.09.63.13.48-.16.96-.63,1.09-.59.16-1.12.22-1.59.22Z"/>
        <path class="cls-5" d="M92.28,81.2c-.1,0-.21-.02-.31-.06-.46-.17-.69-.69-.52-1.15.74-1.97.79-3.67.13-5.04-.93-1.96-2.96-2.66-2.99-2.67-.47-.16-.72-.66-.56-1.13.16-.47.66-.72,1.13-.56.11.04,2.77.95,4.03,3.6.87,1.83.85,4-.07,6.44-.13.36-.47.58-.83.58Z"/>
        <path class="cls-5" d="M104.71,126.03c-.11,0-.23-.02-.34-.07-.46-.19-.68-.71-.49-1.16l6.9-16.95c.17-.42.63-.65,1.08-.52,1.06.31,2.14.51,3.2.59,10.62.74,20.08-9.82,21.06-23.59.98-13.76-6.87-25.58-17.5-26.34-9.12-.64-17.67,7.17-20.32,18.61-.1.42-.46.72-.92.69-.43-.03-.79-.36-.83-.79-.41-3.72-2.35-6.48-5.05-7.21-3.95-1.06-8.53,2.54-10.22,8.03-1.07,3.48-.85,7.14.6,9.79.92,1.68,2.24,2.8,3.83,3.24.83.23,1.72.25,2.65.07.33-.07.67.06.88.33.21.27.25.62.1.93l-9.31,19.66c-.11.23-.31.4-.55.47-.24.07-.5.04-.72-.09-2.75-1.66-8.22-3.32-15.8-4.83-7.52-1.49-15.08,1.73-19.26,8.2-.27.41-.82.53-1.23.27-.41-.27-.53-.82-.27-1.23,4.58-7.09,12.86-10.62,21.1-8.99,7.19,1.42,12.4,2.96,15.51,4.57l8.23-17.39c-.62,0-1.24-.09-1.83-.26-2.06-.57-3.76-1.99-4.92-4.1-1.67-3.06-1.95-7.23-.74-11.17,1.97-6.39,7.53-10.53,12.38-9.23,2.5.67,4.47,2.63,5.55,5.36,3.62-10.48,12.17-17.37,21.24-16.71,11.61.83,20.21,13.5,19.15,28.24-1.02,14.24-10.66,25.28-21.77,25.28-.4,0-.8-.01-1.2-.04-.93-.07-1.87-.21-2.8-.44l-6.6,16.22c-.14.35-.47.56-.83.56Z"/>
        <path class="cls-4" d="M114.16,124.31c-2.64,8.93-10.14,15.37-18.98,15.37-11.04,0-20-10.05-20-22.44,0-2.29.31-4.5.88-6.59-36.79-11.2-50.44,49.87-51.38,49.69l107.08.33-9.08-26.98c-1.42-4.21-4.53-7.59-8.53-9.38Z"/>
        <path class="cls-5" d="M122.21,87.5c-.06,0-.13,0-.19-.02-.48-.1-.79-.58-.68-1.06.32-1.49-.43-2.92-1.68-3.2-1.25-.27-2.53.72-2.86,2.21-.11.48-.58.79-1.06.68-.48-.1-.79-.58-.68-1.06.53-2.45,2.76-4.05,4.98-3.57,2.21.48,3.58,2.87,3.05,5.32-.09.42-.46.7-.87.7Z"/>
        <path class="cls-5" d="M137.44,89.79c-.07,0-.14,0-.21-.03-.48-.12-.77-.6-.65-1.08.37-1.48-.35-2.94-1.59-3.24-.58-.15-1.2-.02-1.74.36-.58.4-1,1.03-1.18,1.77-.12.48-.6.77-1.08.65-.48-.12-.77-.6-.65-1.08.29-1.16.96-2.15,1.89-2.8.97-.67,2.1-.9,3.19-.63,2.2.54,3.5,2.97,2.9,5.4-.1.41-.46.68-.87.68Z"/>
      </g>
      <g>
        <g>
          <path class="cls-1" d="M92.78,159.82h-7.46l4.81-4.96c1.86-1.91,4.35-3.09,7-3.32h0c2.37-.2,3.58.64,5.3,3.5l8.4,15.11-3.54.65c-2.53.46-5.11-.42-6.82-2.34l-7.69-8.64Z"/>
          <path class="cls-5" d="M105.98,171.82c-2.33,0-4.6-.99-6.18-2.76l-7.43-8.34h-7.06c-.36,0-.68-.21-.82-.54-.14-.33-.07-.71.18-.97l4.81-4.96c2-2.07,4.69-3.34,7.57-3.59,3-.25,4.49,1.18,6.14,3.93l8.41,15.14c.14.25.15.55.03.81-.12.26-.36.44-.65.5l-3.54.65c-.49.09-.98.13-1.47.13ZM87.43,158.93h5.35c.25,0,.5.11.67.3l7.69,8.64c1.49,1.67,3.79,2.46,5.99,2.06l2.32-.43-7.79-14.02c-1.67-2.76-2.62-3.2-4.45-3.05-2.45.21-4.73,1.29-6.44,3.05l-3.34,3.44Z"/>
        </g>
        <g>
          <path class="cls-1" d="M82.97,159.82h-7.46l4.81-4.96c1.86-1.91,4.34-3.09,7-3.32h0c2.37-.2,4.56,1.25,5.3,3.5l6.63,19.23-4.91.25c-2.54.13-4.92-1.25-6.08-3.51l-5.3-11.19Z"/>
          <path class="cls-5" d="M94.02,175.43c-2.75,0-5.29-1.54-6.55-4.01l-5.07-10.71h-6.89c-.36,0-.68-.21-.82-.54-.14-.33-.07-.71.18-.97l4.81-4.96c2.01-2.07,4.69-3.34,7.57-3.59,2.79-.23,5.35,1.45,6.23,4.11l6.63,19.22c.09.26.05.56-.1.79-.16.23-.41.38-.69.39l-4.91.25c-.12,0-.25,0-.38,0ZM77.62,158.93h5.35c.34,0,.66.2.81.51l5.3,11.19c.98,1.93,3.07,3.12,5.23,3l3.73-.19-6.25-18.11c-.62-1.88-2.41-3.08-4.38-2.9-2.44.21-4.73,1.29-6.44,3.05l-3.34,3.44Z"/>
        </g>
        <g>
          <path class="cls-1" d="M73.16,159.82h-7.46l4.81-4.96c1.86-1.91,4.34-3.09,7-3.32h0c2.37-.2,4.56,1.25,5.3,3.5l6,17.59-4.91.25c-2.54.13-4.92-1.25-6.08-3.51l-4.66-9.56Z"/>
          <path class="cls-5" d="M83.57,173.79c-2.75,0-5.29-1.54-6.54-4.01l-4.43-9.07h-6.9c-.36,0-.68-.21-.82-.54-.14-.33-.07-.71.18-.97l4.81-4.96c2.01-2.07,4.69-3.34,7.57-3.59,2.78-.23,5.35,1.45,6.23,4.11l5.99,17.58c.09.26.05.56-.11.79-.16.23-.41.38-.69.39l-4.91.25c-.13,0-.25,0-.38,0ZM67.8,158.93h5.35c.34,0,.65.19.8.5l4.66,9.56c.99,1.94,3.07,3.12,5.23,3.01l3.73-.19-5.62-16.47c-.62-1.88-2.41-3.08-4.38-2.9-2.45.21-4.73,1.29-6.44,3.05l-3.34,3.44Z"/>
        </g>
        <g>
          <path class="cls-1" d="M63.83,159.82h-7.46l4.81-4.96c1.86-1.91,4.35-3.09,7-3.32h0c2.37-.2,4.56,1.25,5.3,3.5l5.03,15.27-4.91.25c-2.54.13-4.92-1.24-6.08-3.51l-3.69-7.23Z"/>
          <path class="cls-5" d="M73.28,171.46c-2.75,0-5.29-1.54-6.55-4.01l-3.44-6.74h-6.91c-.36,0-.68-.21-.82-.54-.14-.33-.07-.71.18-.97l4.81-4.96c2.01-2.07,4.69-3.34,7.57-3.59,2.78-.23,5.35,1.45,6.23,4.11l5.03,15.26c.09.26.05.55-.11.78-.16.23-.41.37-.69.39l-4.91.25c-.12,0-.25,0-.38,0ZM58.48,158.93h5.35c.33,0,.64.19.79.49l3.69,7.23c1,1.95,3.05,3.15,5.24,3.03l3.75-.19-4.66-14.16c-.62-1.87-2.42-3.07-4.38-2.89-2.45.21-4.73,1.29-6.44,3.05l-3.34,3.44Z"/>
        </g>
      </g>
      <path class="cls-3" d="M213.57,132.64h-60.06l-15.3-15.3v15.3h-3.08c-6.67,0-12.08,5.41-12.08,12.08v21.06c0,6.67,5.41,12.08,12.08,12.08h78.43c6.67,0,12.08-5.41,12.08-12.08v-21.06c0-6.67-5.41-12.08-12.08-12.08Z"/>
      <path class="cls-5" d="M170.59,163.64c-.73,0-1.47-.1-2.22-.3-2.31-.62-4.09-2.12-4.52-3.83-.32-1.27.69-2.69,1.6-3.65.72-.77,1.81-1.68,3.21-2.57-3.31-1.83-7.49-3.12-11.18-2.68-4.33.52-6.24,1.61-7.07,2.53,4.05.83,6.24,2.2,6.33,4.04.07,1.57-1.49,2.87-3.72,3.1-2.33.24-4.71-2.02-5.18-4.13-.11-.5-.16-.98-.14-1.44-2.07-.27-4.75-.46-8.2-.49l.02-2c3.38.03,6.29.22,8.71.55.09-.17.19-.33.31-.5,1.34-1.89,4.27-3.12,8.7-3.65,4.41-.53,9.58,1.12,13.46,3.51,3.77-1.89,9.03-3.25,15.13-2.08,3.18.61,5.61,1.71,7.37,2.98.68-.41,1.39-.77,2.13-1.06,5.17-2.03,7.38-.7,7.62-.54l-1.12,1.66.56-.83-.53.85s-1.66-.9-5.8.72c-.43.17-.85.37-1.25.58.98,1.01,1.6,2.05,1.89,2.97.46,1.43.22,2.77-.65,3.68-.67.7-2.31,1.73-5.82.79-1.25-.34-2-1.18-2.07-2.33-.09-1.59,1.26-3.62,3.28-5.27-1.52-.96-3.52-1.77-6-2.25-5.05-.97-9.5-.03-12.85,1.43,1.58,1.23,2.8,2.57,3.44,3.87.81,1.65.65,3.17-.46,4.3-1.29,1.31-3.07,2.01-4.99,2.01ZM170.56,154.47c-1.39.79-2.5,1.63-3.27,2.37-1.33,1.27-1.53,2.05-1.51,2.19.25.98,1.53,1.96,3.1,2.38,2.04.55,4,.11,5.27-1.18.2-.2.72-.74.09-2.02-.58-1.18-1.91-2.51-3.68-3.74ZM193.09,155.52c-1.83,1.4-2.98,3.05-2.93,3.9,0,.13.02.35.59.51,1.8.48,3.25.39,3.85-.24.48-.5.32-1.27.19-1.69-.25-.8-.83-1.66-1.71-2.48ZM149.69,155.03c0,.22.04.45.09.69.27,1.23,1.81,2.7,3.02,2.58,1.27-.13,1.93-.74,1.92-1.01,0-.02-.36-1.35-5.04-2.25Z"/>
    </g>
  </g>
</svg>