<?xml version="1.0" encoding="UTF-8"?>
<svg id="Capa_2" data-name="Capa 2" xmlns="http://www.w3.org/2000/svg" viewBox="0 0 1753.73 1434.58">
  <defs>
    <style>
      .cls-1 {
        fill: #fff;
      }

      .cls-2 {
        fill: #abfb4f;
      }

      .cls-3 {
        fill: blue;
      }

      .cls-4 {
        fill: #010101;
      }

      .cls-5 {
        fill: #01112b;
      }
    </style>
  </defs>
  <g id="Capa_1-2" data-name="Capa 1">
    <g>
      <g>
        <g>
          <path class="cls-4" d="M786.85,590.74c-15.22,104.35,164.71,204.67,194.64,175.36,11.27-11.02,24.88-40.51-34.11-112.74-62.47-76.41-156.85-87.84-160.54-62.62Z"/>
          <path class="cls-4" d="M964.96,774.36c-16.75,0-39.32-8.16-58.75-18.03-65.76-33.44-132.12-99.68-122.44-166.05h0c.88-6.09,5.91-10.72,14.13-13,30.37-8.41,102.09,13.12,151.89,74.1,59.29,72.61,46.68,104.43,33.89,116.95-4.35,4.23-10.9,6.03-18.73,6.03ZM789.93,591.2c-9.87,67.61,65.81,132.45,119.08,159.55,32.98,16.75,61.18,21.99,70.29,13.13,11.27-11.02,21.81-39.8-34.32-108.54-49.83-60.94-120.12-79-145.43-72.03-4.02,1.1-8.95,3.38-9.62,7.89h0Z"/>
        </g>
        <g>
          <path class="cls-3" d="M786.85,590.74l-34.62,237.22c-64.47-107.51-109.83-166.08-199.76-199.46-167.81-62.37-176.22,168.82-74.07,287.53,77.51,90.06,180.6,277.21,315.3,254.34,124.63-21.17,187.79-404.27,187.79-404.27-203.6-49.43-194.64-175.36-194.64-175.36Z"/>
          <path class="cls-3" d="M770.99,1175.43c-98.89,0-179.57-106.96-245.32-194.1-17.58-23.3-34.14-45.29-49.64-63.26-66.91-77.78-88.26-205.45-44.77-267.92,17.66-25.4,53.18-50.28,122.31-24.58,87.07,32.34,132.06,86.19,196.83,193.3l33.38-228.6c.25-1.64,1.77-2.74,3.42-2.62,1.67.15,2.89,1.62,2.77,3.29-.09,1.25-6.12,123.95,192.27,172.11,1.58.39,2.62,1.95,2.35,3.53-2.59,15.74-64.96,385.57-190.35,406.86-7.86,1.34-15.6,1.98-23.24,1.98ZM500.51,621.11c-27.29,0-49.06,10.94-64.14,32.62-42.03,60.36-20.86,184.44,44.4,260.28,15.6,18.12,32.25,40.2,49.89,63.56,69.84,92.56,156.69,207.56,262.53,189.74,115.43-19.61,178.62-363.83,184.74-398.88-146.64-36.46-182.71-113.75-191.48-153.37l-31.15,213.37c-.18,1.31-1.16,2.35-2.47,2.62-1.25.33-2.59-.33-3.29-1.46-66.45-110.8-110.83-165.71-198.18-198.14-18.55-6.92-35.57-10.33-50.86-10.33Z"/>
        </g>
        <g>
          <path class="cls-3" d="M474.1,608.68c-51.16-3.32-117.65,7.37-117.65,178.89,0,160.08-92.34,557.55-17.88,643.59h371.93c.58-67.8-1.74-575.43-33.38-667.87-33.99-99.22-125.54-149.57-203.02-154.62Z"/>
          <path class="cls-4" d="M474.32,605.27c-4.29-.27-8.71-.46-13.18-.46-46.36,0-108,18.95-108,182.77,0,52.32-10.02,131.08-20.65,214.5-22.23,174.54-47.45,372.38,3.6,431.38l.97,1.12h376.77v-3.38c.76-86.55-2.31-577.68-33.56-669.02-34.75-101.36-128.46-151.85-205.94-156.91ZM707.22,1427.76h-367.12c-47.69-58.11-22.93-252.85-1-424.8,10.63-83.63,20.71-162.64,20.71-215.38,0-170.25,64.6-178.62,114.09-175.49,75.28,4.9,166.35,53.94,200.06,152.34,30.61,89.32,33.89,568.3,33.26,663.33Z"/>
        </g>
        <g>
          <path class="cls-3" d="M571.38,666.97s-32.46-52.41-79.49-52.41l5.6,453c14.92-63.93,76.35-180.63,76.35-180.63l-40.45-49.79,37.98-170.16Z"/>
          <path class="cls-4" d="M574.94,666.37l-.76-1.22c-1.34-2.23-33.99-53.97-82.29-53.97v6.83c40.81,0,70.84,42.09,75.93,49.67l-38.01,170.34,40.05,49.34c-8.25,15.9-61.83,120.42-75.56,179.42l6.42,1.58c14.68-62.74,75.44-178.65,76.08-179.81l1.04-2.01-40.81-50.28,37.92-169.88Z"/>
        </g>
        <g>
          <path class="cls-1" d="M448.95,490.18l-150.79-64.87c12.37,93.71-17.11,178.68-17.11,178.68,144.63,95.66,182.73,19.52,182.73,19.52-26.13-50.56-14.83-133.33-14.83-133.33Z"/>
          <path class="cls-5" d="M452.24,490.63l.33-2.62-158.49-68.16.76,5.91c12.13,91.79-16.65,176.21-16.96,177.07l-.88,2.56,2.25,1.43c48.94,32.4,91.18,48.82,125.57,48.82,46.08,0,61.31-29.33,61.91-30.61l.79-1.55-.82-1.58c-25.3-48.98-14.59-130.44-14.46-131.27ZM404.82,648.79c-32.59,0-72.88-15.56-119.81-46.26,4.66-14.68,26.53-89.66,17.17-171.77l143.14,61.55c-1.73,14.59-8.37,84.58,14.62,131.08-3.53,5.54-18.79,25.4-55.12,25.4Z"/>
        </g>
        <g>
          <path class="cls-4" d="M474.1,608.68c-13.37-31.52-13.24-62.47-13.24-62.47,0,0-131.88,14.83-180.85-5.27,0,0-8.32,65.94-19.98,85.89-78.85,135.01-133.55,738.73-143.36,804.33h356.73c-.06-30.43,21.47-328.1,19.43-365.38-7.28-129.77,61.1-268.95-18.73-457.11Z"/>
          <path class="cls-4" d="M464.17,546.22c0-.98-.39-1.89-1.1-2.56-.7-.61-1.67-.91-2.59-.85-.49.06-47.27,5.27-94.78,5.27-39.38,0-67.82-3.47-84.45-10.3-.95-.39-2.01-.3-2.93.25-.88.55-1.46,1.46-1.61,2.49-.09.64-8.4,65.45-19.55,84.54-66.21,113.42-114.7,548.3-135.41,733.98-3.93,35.33-6.76,60.85-8.38,71.6-.12.98.15,1.98.76,2.74.64.76,1.56,1.19,2.53,1.19h356.73c.88,0,1.73-.37,2.37-1,.61-.64.98-1.49.98-2.41-.03-12.09,3.41-67.25,7.37-131.14,5.94-94.38,13.28-211.88,12-234.42-2.31-41.85,3.29-84.79,9.2-130.2,12.21-93.84,26.07-200.19-28.17-328.1-12.92-30.43-12.98-60.79-12.98-61.1ZM498.71,934.5c-5.97,45.77-11.57,88.99-9.23,131.48,1.25,22.14-6.09,139.4-11.97,233.63-3.72,59.27-6.95,111.04-7.37,128.16H120.51c1.68-12.46,4.36-36.28,7.89-67.92,20.65-185.29,69.01-619.11,134.46-731.28,10.3-17.54,17.82-67.88,19.89-82.96,17.76,6.18,45.65,9.29,82.96,9.29,40.27,0,79.98-3.68,91.92-4.9.43,9.32,2.53,34.36,13.4,60.06,53.54,126.15,39.81,231.52,27.68,324.44Z"/>
        </g>
        <g>
          <path class="cls-3" d="M504.47,1103.58c4.26-104.37-156.85-337.42-240.35-489.08,0,0-117.74,16.51-146.19,56.74-136.47,192.97-44.65,691.86-36.64,759.93h425.92s-7.8-203.81-2.74-327.58Z"/>
          <path class="cls-3" d="M507.21,1434.3H81.29c-1.58,0-2.92-1.19-3.11-2.77-.79-6.76-2.41-17.82-4.57-32.41-20.22-137.26-81.8-554.96,41.76-729.69,28.9-40.87,143.44-57.35,148.32-58.02,1.28-.13,2.56.45,3.17,1.58,20.56,37.34,45.62,79.31,72.18,123.75,80.52,134.7,171.8,287.41,168.51,366.96-4.96,122.22,2.71,325.29,2.77,327.34.03.85-.27,1.67-.86,2.28-.61.61-1.4.98-2.25.98ZM84.06,1428.06h419.92c-.97-26.65-7.27-210.63-2.65-324.6h0c3.2-77.72-87.56-229.58-167.63-363.52-26.16-43.74-50.86-85.09-71.27-122.04-15.93,2.47-116.67,19.37-141.95,55.12C-1.67,845.72,59.63,1261.56,79.8,1398.22c1.89,12.85,3.38,22.96,4.26,29.84Z"/>
        </g>
        <g>
          <path class="cls-1" d="M272.85,1376.65c-33.62-10.66-55.12-32.59-55.12-32.59-33.08-27.56-113.91,13.16-105.5,38.86,8.38,25.67,19.4,48.24,19.4,48.24h201.56s-26.77-43.86-60.34-54.52Z"/>
          <path class="cls-4" d="M273.8,1373.39c-32.34-10.26-53.54-31.52-53.97-31.98-7.92-6.61-18.58-9.96-31.68-9.96-27.16,0-62.22,15.99-75.01,34.2-4.48,6.42-5.91,12.76-4.05,18.33,8.34,25.64,19.49,48.49,19.58,48.7.55,1.16,1.7,1.89,2.95,1.89h201.56c1.22,0,2.31-.67,2.92-1.76.58-1.1.55-2.37-.09-3.44-1.13-1.86-27.84-45.11-62.22-55.98ZM133.73,1427.76c-2.81-5.94-11.51-24.98-18.36-45.93-1.13-3.47-.07-7.55,3.16-12.18,10.42-14.83,41.58-31.37,69.62-31.37,11.51,0,20.74,2.83,27.23,8.22.88.92,22.48,22.66,56.46,33.41,25.22,8.01,46.87,36.09,55.03,47.85h-193.15Z"/>
        </g>
        <g>
          <path class="cls-3" d="M216.81,1040.91l19.8-199.85-118.69-169.82C41.33,754.51,3.11,1052.27,3.11,1141.38c0,178.17,78.18,289.79,78.18,289.79,86.5,1.61,187.61-96.97,187.61-96.97l-52.08-293.29Z"/>
          <path class="cls-4" d="M83.39,1434.3c-1.64.03-3.62.09-4.66-1.34-.79-1.13-78.73-114.49-78.73-291.58,0-80.71,36.03-385.75,115.64-472.25,1.16-1.28,3.16-1.37,4.39-.18,1.28,1.16,1.37,3.14.18,4.42C41.76,758.64,6.21,1061.25,6.21,1141.38c0,164.95,68.16,273.64,76.75,286.68h.4c78.81,0,170.7-84.15,182.18-94.96l-51.81-291.64c-.03-.27-.06-.58-.03-.85l19.8-199.85c.15-1.7,1.73-2.77,3.41-2.8,1.71.18,2.95,1.7,2.8,3.41l-19.77,199.43,52.02,292.86c.19,1.04-.15,2.07-.91,2.8-4.11,4.02-101.39,97.85-187.67,97.85Z"/>
          <g>
            <path class="cls-3" d="M197.69,1024.19l-27.08,43.03s31.4-19.09,52.41-16.41c21.02,2.71,8.26-25.34-25.34-26.62Z"/>
            <path class="cls-4" d="M197.81,1020.78l-.24,6.82c18.21.7,28.9,9.47,31.64,15.23.76,1.55.94,2.92.49,3.6-.55.76-2.53,1.46-6.24,1-22.02-2.86-53.24,16.05-54.55,16.84l3.38,5.88c.33-.18,30.58-18.45,50.31-15.96,7.43.94,10.9-1.55,12.52-3.8,1.95-2.83,1.98-6.58.06-10.6-4.14-8.62-17.6-18.24-37.37-19Z"/>
          </g>
        </g>
        <g>
          <path class="cls-1" d="M532.37,254.42c-3.68-41.12-27.9-117.95-144.08-73.49-142.38,54.51-92.8,164.19-92.8,164.19-28.69,11.69-33.07,42.03-18.36,71.69,12.18,24.54,37.67,23.69,37.67,23.69,43.92,109.21,156.12,113.87,185.9,72.79,30.85-42.52,56.87-116.49,54.97-150.39-1.86-33.93-19.82-70.2-23.3-108.48Z"/>
          <path class="cls-4" d="M547.65,308.75c-5.05-17.72-10.29-36.06-11.97-54.63-2.44-27.08-15.62-90.03-85.13-90.03-18.46,0-39.8,4.59-63.47,13.64-49.18,18.85-81.29,46.26-95.39,81.5-15.32,38.22-4.57,73.43-.58,84.09-10.9,5.27-18.67,13.58-22.63,24.27-5.36,14.59-3.35,32.59,5.66,50.74,10.69,21.59,31.03,25,38.37,25.49,29.52,71.27,86.43,96.73,130.17,96.73,26.53,0,49.21-9.41,60.64-25.19,30.06-41.48,57.62-117.07,55.64-152.67-.98-17.51-6-35.21-11.33-53.94ZM498.02,511.25c-10.17,14.11-30.89,22.48-55.31,22.48-42,0-96.82-24.82-124.87-94.53l-1.16-2.1h-2.23c-2.43,0-23.85-.61-34.35-21.84-8.16-16.45-10.05-32.53-5.36-45.25,3.65-9.96,11.05-17.27,21.96-21.69l3.29-1.34-1.49-3.29c-.18-.4-17.54-39.68-.64-81.87,13.37-33.41,44.2-59.54,91.58-77.69,22.9-8.74,43.46-13.18,61.12-13.18,64.05,0,76.23,58.62,78.51,83.78,1.7,19.28,7.04,37.89,12.18,55.94,5.24,18.34,10.14,35.67,11.09,52.45,1.92,34.32-25,107.72-54.33,148.14Z"/>
        </g>
        <path class="cls-4" d="M437.89,301.96c-1.22.27-30.55,6.94-48.36,36.82-.95,1.58-.46,3.72,1.12,4.69.52.33,1.13.49,1.74.49,1.1,0,2.19-.55,2.83-1.62,16.26-27.26,43.79-33.62,44.06-33.71,1.8-.36,2.93-2.19,2.53-4.02-.37-1.86-2.07-2.99-3.93-2.65Z"/>
        <path class="cls-4" d="M484.67,291.06c-1.83.12-3.2,1.77-3.08,3.65.12,1.86,1.68,3.35,3.54,3.17.27,0,27.07-1.8,41.18,10.36.64.55,1.4.79,2.16.79.94,0,1.89-.39,2.56-1.18,1.18-1.46.98-3.6-.43-4.81-16.17-13.95-44.71-12.06-45.93-11.97Z"/>
        <path class="cls-4" d="M427.6,424.94s-3.47,45.13,37.25,44.37c40.71-.7,41.72-50.28,41.72-50.28-39.62,13-78.97,5.91-78.97,5.91Z"/>
        <path class="cls-4" d="M488.88,363.7c-5.82-.21-11.6,4.02-17.11,12.58-1.01,1.58-.61,3.72.94,4.72.55.39,1.22.58,1.86.58,1.06,0,2.13-.55,2.74-1.52,4.02-6.24,8.22-9.69,11.3-9.53,3.62.12,6.12,4.39,6.15,4.45.92,1.62,2.95,2.17,4.54,1.25,1.58-.94,2.16-3.05,1.22-4.66-.15-.31-4.27-7.58-11.63-7.86Z"/>
        <path class="cls-4" d="M313.45,377.31c-10.96-1.04-20.38,10.3-20.74,10.75l5.08,4.42c.06-.09,7.37-8.99,15.05-8.38,3.62.37,6.88,3.08,9.68,8.1l5.79-3.42c-3.96-7.06-8.95-10.93-14.86-11.48Z"/>
        <path class="cls-4" d="M441.09,98.03s-96.51-93.17-224.79,44.59c-108.58,116.61-24.8,267.7,30,297.15,36.12,19.4,68.49.73,68.49.73-27.41-3.9-78.94-55.7-19.31-95.39.85-.58-4.21-44.46-3.35-45.01,1.64-1.1,9.14,41.18,10.75,40.2,53.84-34.66,72.06-32.34,72.06-32.34,6.27-22.57,25.37-52.66,25.37-52.66-1.73,20.68-7.73,43.95-7.73,43.95l29.54-12.82c23.51-45.77,23.24-91.03,23.24-91.03,31.07,34.35,28.08,73.06,28.08,73.06,37.92-30.27,58.93-14.04,58.93-14.04,0,0,32.92,34.18,35.08-15.59,2.31-53.33-26.16-163.61-126.36-140.79Z"/>
        <path class="cls-4" d="M415.2,341.89c-4.05,2.62-5.51,7.73-3.26,11.36,2.25,3.62,7.34,4.45,11.42,1.76,4.05-2.61,5.51-7.73,3.26-11.36-2.25-3.62-7.34-4.41-11.42-1.77Z"/>
        <path class="cls-4" d="M505.08,321.76c-4.05,2.68-5.51,7.73-3.26,11.36,2.25,3.66,7.37,4.45,11.39,1.8,4.08-2.65,5.54-7.73,3.29-11.36-2.23-3.62-7.37-4.41-11.42-1.79Z"/>
        <path class="cls-4" d="M167.96,1.73c-97.15,18.7-135.83,158.61-39.38,162.39,96.45,3.78,57.8-86.8,148.04-42,0,0-11.54-139.09-108.67-120.39Z"/>
        <g>
          <path class="cls-3" d="M748.69,800.86c-13.85,3.29,4.17,109.52,4.17,109.52l19.43-43.31s-9.69-69.5-23.61-66.21Z"/>
          <path class="cls-4" d="M747.93,797.54c-14.74,3.47-5.3,72.54,1.64,113.38l6.58-1.13c-9.13-53.72-12.15-102.11-6.67-105.62,0,0,.46-.13,1.16.36,7.73,5.45,15.35,41.54,18.36,62.98l6.61-.91c-.85-5.97-8.52-58.72-21.23-67.64-2.55-1.86-4.93-1.8-6.46-1.43Z"/>
        </g>
        <g>
          <path class="cls-3" d="M195.41,675.38l155.08,178.23-16.41,48.88s59.15,68.8,104.61,113.26l-182.06-399.18c-68.13,21.2-61.21,58.81-61.21,58.81Z"/>
          <path class="cls-4" d="M454.31,1025.99c-42.18-38.71-106.57-112.87-116.43-124.29l16.39-48.88-155.69-178.89c-.46-5.64-.12-35.67,59.02-54.09l-1.95-6.52c-70.17,21.83-63.8,61.06-63.5,62.71l.15.94,154.41,177.44-16.39,48.85,1.28,1.49c.7.82,72.42,84.27,118.26,126.33,44.44,40.75,40.33,103.85,40.27,104.49l6.64.52c.18-2.71,4.45-67.03-42.46-110.1Z"/>
        </g>
        <path class="cls-4" d="M464.94,1128.74c-9.62,0-17.42,8.01-17.42,17.88s7.8,17.91,17.42,17.91,17.48-8.01,17.48-17.91-7.86-17.88-17.48-17.88Z"/>
        <path class="cls-4" d="M464.94,1301.64c-9.62,0-17.42,8.04-17.42,17.91s7.8,17.9,17.42,17.9,17.48-8.07,17.48-17.9-7.86-17.91-17.48-17.91Z"/>
        <g>
          <path class="cls-2" d="M276.45,155.11c-19.16,58.44-27.26,117.92-27.26,117.92,49.58-178.59,192.21-177.19,192.21-177.19-45.07-59.33-136.87-26.41-164.95,59.27Z"/>
          <path class="cls-4" d="M249.19,276.17c-.21,0-.43-.03-.64-.06-1.58-.33-2.68-1.86-2.43-3.5.06-.58,8.34-60.42,27.38-118.47h0c15.68-47.85,52.75-83.27,94.44-90.3,29.76-4.97,57.59,5.94,75.95,30.12.7.94.82,2.23.31,3.29-.55,1.04-1.62,1.7-2.8,1.7h-.06c-2.65,0-141.07,1.64-189.13,174.94-.4,1.37-1.64,2.29-3.02,2.29ZM382.37,68.85c-4.39,0-8.86.37-13.4,1.13-39.44,6.64-74.59,40.45-89.57,86.1h0c-9.11,27.81-15.72,56.01-20.16,77.82,50.4-122.25,149.84-138.67,175.85-140.86-13.95-15.83-32.19-24.18-52.72-24.18ZM276.45,155.11h.09-.09Z"/>
        </g>
      </g>
      <g>
        <g>
          <path class="cls-1" d="M1000.32,483.97c-6.82-11.39-12.27-12.98-43.43-7.67-21.65,3.68-31.15,21.17-31.15,21.17,0,0,7.43-29.15,22.75-42,23.11-19.43,43.76-46.42,8.8-34.39-34.99,12.06-63.53,45.93-79.46,72.58-15.9,26.62-7.55,119.21-35.12,181.49,0,0,11.36,19.09,26.37,30.45,18,13.56,40.33,17.97,40.33,17.97,10.63-28.33,29.64-55.88,45.32-91.46,6.97-15.9,1.98-19.58,16.47-15.38,10.11,2.89,35.15-2.95,41.48-16.29,5.82-12.21,5.11-28.57,5.11-28.57,0,0,1.62-6.67,1.22-10.23-1.18-10.44,3.11-21.19-6.73-39.59-9.87-18.36-5.15-26.68-11.97-38.07Z"/>
          <path class="cls-4" d="M909.41,726.67c-.21,0-.39,0-.61-.06-.94-.19-23.24-4.69-41.6-18.52-15.32-11.61-26.68-30.55-27.17-31.34-.51-.88-.58-1.95-.18-2.86,15.23-34.42,19.46-79.28,22.84-115.28,2.86-30.31,5.11-54.24,12.45-66.55,8.13-13.58,37.95-59.05,81.13-73.91,8.46-2.92,18.64-5.51,21.96.33,5.84,10.32-22.08,34.6-27.75,39.35-7.49,6.3-13.06,16.9-16.69,25.67,5.36-4.39,12.79-8.62,22.57-10.3,31.8-5.39,38.74-4.02,46.62,9.14,3.44,5.76,4.2,10.81,5.03,16.14.92,5.9,1.92,12.61,7.01,22.05,7.52,14.07,7.21,24.18,6.97,32.31-.09,2.95-.18,5.76.12,8.44.37,3.56-.82,9.2-1.19,10.87.07,2.81.19,17.85-5.45,29.6-7.31,15.44-34.42,21.02-45.13,17.94-4.24-1.22-6.58-1.74-7.43-1.4-.37.33-.98,2.44-1.49,4.14-.76,2.65-1.83,6.3-3.84,10.9-7.37,16.69-15.32,31.4-23.02,45.62-8.56,15.8-16.63,30.76-22.24,45.68-.45,1.22-1.64,2.01-2.92,2.01ZM846.21,674.89c2.86,4.48,12.67,19.07,24.76,28.2,13.71,10.32,30.27,15.23,36.48,16.81,5.7-14.46,13.46-28.78,21.63-43.92,7.64-14.1,15.53-28.69,22.78-45.13,1.86-4.23,2.83-7.52,3.6-10.14,2.65-9.11,5.15-10.3,16.6-7.01,8.8,2.53,32.19-2.83,37.83-14.62,5.39-11.33,4.81-26.96,4.81-27.11-.03-.27,0-.58.06-.85.58-2.38,1.4-6.98,1.16-9.17-.33-3.08-.25-6.09-.15-9.29.24-7.8.52-16.6-6.21-29.17-5.61-10.42-6.7-17.67-7.67-24.06-.79-5.12-1.4-9.17-4.24-13.89-5.48-9.17-8.52-11.57-40.23-6.18-19.8,3.35-28.85,19.43-28.93,19.58-.79,1.4-2.44,1.95-3.9,1.4-1.46-.58-2.25-2.13-1.86-3.65.3-1.22,7.86-30.27,23.75-43.64,19.25-16.17,27.38-29.09,26.35-31.49h0s-2.47-1.7-14.53,2.5c-41.15,14.16-69.96,58.08-77.78,71.21-6.64,11.08-8.93,35.57-11.61,63.93-3.38,35.93-7.58,80.55-22.69,115.7Z"/>
        </g>
        <path class="cls-4" d="M961,528.4c-17.36,2.95-19.74-.39-20.01-1.06-2.16-5.12,13.83-21.59,29.91-33.93l-3.14-4.23c-8.58,6.61-36.3,28.96-31.52,40.23,2.32,5.48,10.48,6.83,25.68,4.24,44.83-7.61,44.8-38.13,44.77-38.43l-5.17.06c.03.27.06,26.25-40.51,33.13Z"/>
        <path class="cls-4" d="M974.37,568.39c-15.93,2.71-26.22,1.12-29.82-4.57-4.81-7.61,2.68-22.23,5.97-27.22l-4.29-3.02c-.58.85-13.68,20.98-6.03,33.07,4.87,7.73,16.66,10.08,35.05,6.95,44.86-7.61,44.8-38.13,44.8-38.44l-5.18.07c.03.27.03,26.28-40.51,33.17Z"/>
        <path class="cls-4" d="M976.23,598.33c-18.06,3.08-22.2-.52-23.14-2.23-2.38-4.29,3.65-13.12,5.97-15.87l-3.96-3.48c-1.12,1.37-11.08,13.62-6.52,21.93,3.35,5.97,12.67,7.59,28.57,4.87,35.54-6.03,44.22-36.36,44.55-37.64l-4.96-1.5c-.33,1.19-8.26,28.42-40.51,33.9Z"/>
      </g>
      <g>
        <g>
          <g>
            <path class="cls-1" d="M939.77,239.01h810.85v992.42c0,3.07-2.49,5.56-5.56,5.56h-799.74c-3.07,0-5.56-2.49-5.56-5.56V239.01h0Z"/>
            <path class="cls-4" d="M1719.44,1240.12h-748.48c-18.91,0-34.3-15.41-34.3-34.32V239.01c0-1.7,1.37-3.1,3.11-3.1h810.85c1.74,0,3.11,1.4,3.11,3.1v966.79c0,18.91-15.38,34.32-34.3,34.32ZM942.88,242.14v963.65c0,15.47,12.61,28.08,28.08,28.08h748.48c15.47,0,28.08-12.61,28.08-28.08V242.14h-804.64Z"/>
          </g>
          <g>
            <path class="cls-4" d="M945.33,114.26h799.74c3.07,0,5.56,2.49,5.56,5.56v119.19h-810.85v-119.19c0-3.07,2.49-5.56,5.56-5.56Z"/>
            <path class="cls-4" d="M1750.63,242.14h-810.85c-1.74,0-3.11-1.4-3.11-3.14v-93.56c0-18.91,15.38-34.3,34.3-34.3h748.48c18.91,0,34.3,15.38,34.3,34.3v93.56c0,1.74-1.37,3.14-3.11,3.14ZM942.88,235.91h804.64v-90.45c0-15.48-12.61-28.05-28.08-28.05h-748.48c-15.47,0-28.08,12.58-28.08,28.05v90.45Z"/>
          </g>
          <path class="cls-1" d="M1017.74,176.63c0,8.62-6.97,15.6-15.59,15.6s-15.6-6.97-15.6-15.6,6.97-15.59,15.6-15.59,15.59,7.01,15.59,15.59Z"/>
          <path class="cls-1" d="M1095.7,176.63c0,8.62-6.97,15.6-15.59,15.6s-15.6-6.97-15.6-15.6,6.98-15.59,15.6-15.59,15.59,7.01,15.59,15.59Z"/>
          <path class="cls-1" d="M1173.68,176.63c0,8.62-6.98,15.6-15.6,15.6s-15.59-6.97-15.59-15.6,6.97-15.59,15.59-15.59,15.6,7.01,15.6,15.59Z"/>
        </g>
        <g>
          <rect class="cls-2" x="1438.76" y="301.38" width="249.49" height="249.49" rx="5.56" ry="5.56"/>
          <path class="cls-4" d="M1657.06,554.01h-187.12c-18.91,0-34.3-15.41-34.3-34.32v-187.12c0-18.91,15.38-34.3,34.3-34.3h187.12c18.91,0,34.3,15.38,34.3,34.3v187.12c0,18.91-15.38,34.32-34.3,34.32ZM1469.95,304.52c-15.47,0-28.08,12.58-28.08,28.05v187.12c0,15.47,12.61,28.08,28.08,28.08h187.12c15.48,0,28.08-12.61,28.08-28.08v-187.12c0-15.47-12.61-28.05-28.08-28.05h-187.12Z"/>
        </g>
        <g>
          <rect class="cls-3" x="1438.76" y="613.25" width="249.49" height="249.49" rx="5.56" ry="5.56"/>
          <path class="cls-4" d="M1657.06,865.88h-187.12c-18.91,0-34.3-15.41-34.3-34.32v-187.12c0-18.91,15.38-34.3,34.3-34.3h187.12c18.91,0,34.3,15.38,34.3,34.3v187.12c0,18.91-15.38,34.32-34.3,34.32ZM1469.95,616.39c-15.47,0-28.08,12.58-28.08,28.05v187.12c0,15.47,12.61,28.08,28.08,28.08h187.12c15.48,0,28.08-12.61,28.08-28.08v-187.12c0-15.47-12.61-28.05-28.08-28.05h-187.12Z"/>
        </g>
        <g>
          <rect class="cls-3" x="1438.76" y="925.12" width="249.49" height="249.49" rx="5.56" ry="5.56"/>
          <path class="cls-4" d="M1657.06,1177.75h-187.12c-18.91,0-34.3-15.41-34.3-34.32v-187.12c0-18.91,15.38-34.3,34.3-34.3h187.12c18.91,0,34.3,15.38,34.3,34.3v187.12c0,18.91-15.38,34.32-34.3,34.32ZM1469.95,928.25c-15.47,0-28.08,12.58-28.08,28.05v187.12c0,15.47,12.61,28.08,28.08,28.08h187.12c15.48,0,28.08-12.61,28.08-28.08v-187.12c0-15.48-12.61-28.05-28.08-28.05h-187.12Z"/>
        </g>
        <g>
          <rect class="cls-4" x="1189.27" y="371.55" width="187.12" height="31.19"/>
          <rect class="cls-4" x="1002.15" y="371.55" width="124.74" height="31.19"/>
          <rect class="cls-4" x="1002.15" y="449.52" width="280.68" height="31.19"/>
        </g>
        <g>
          <rect class="cls-4" x="1158.08" y="683.42" width="218.31" height="31.19"/>
          <rect class="cls-4" x="1002.15" y="683.42" width="93.56" height="31.19"/>
          <rect class="cls-4" x="1002.15" y="761.39" width="218.31" height="31.19"/>
        </g>
      </g>
      <g>
        <path class="cls-1" d="M940.9,427.68c-6.45,1.67.46,32.34-5.54,42.06-6,9.71-28.75,60.85-28.75,60.85l21.65,97.61c55.09-55.03,9.44-97.03,35.21-150.61,12.21-25.4-16.11-51.59-22.57-49.91Z"/>
        <path class="cls-4" d="M940.26,425.12c-5.24,1.37-5.12,9.57-4.87,20.95.15,8.08.33,18.09-2.23,22.23-6.03,9.75-27.99,59.09-28.9,61.18l4.69,2.23c.24-.52,22.75-51.08,28.59-60.55,3.38-5.48,3.2-15.5,2.99-25.18-.09-5.76-.27-14.53.98-15.72,1.64-.21,8.64,3.87,14.92,12.79,4.6,6.55,11.33,19.59,4.69,33.35-10.99,22.93-9.32,43.76-7.7,63.93,2.22,28.11,4.35,54.64-26.98,85.97l3.62,3.81c33.07-33.05,30.76-62.1,28.51-90.18-1.56-19.43-3.17-39.53,7.21-61.12,8.77-18.24-2.04-35.02-7.07-41.39-5.57-7.04-13.52-13.49-18.45-12.31Z"/>
      </g>
    </g>
  </g>
</svg>