<?xml version="1.0" encoding="UTF-8"?>
<svg id="Capa_2" data-name="Capa 2" xmlns="http://www.w3.org/2000/svg" xmlns:xlink="http://www.w3.org/1999/xlink" viewBox="0 0 1929.96 1911.35">
  <defs>
    <style>
      .cls-1 {
        fill: #fff;
      }

      .cls-2 {
        fill: #abfb4f;
      }

      .cls-3 {
        fill: url(#New_Pattern_3);
      }

      .cls-4 {
        fill: blue;
      }

      .cls-5, .cls-6, .cls-7, .cls-8 {
        fill: none;
      }

      .cls-9 {
        fill: url(#New_Pattern_4);
      }

      .cls-6 {
        stroke-width: 4px;
      }

      .cls-6, .cls-7, .cls-8 {
        stroke-linecap: round;
        stroke-linejoin: round;
      }

      .cls-6, .cls-8 {
        stroke: #000;
      }

      .cls-7 {
        stroke: #323433;
        stroke-width: 2.61px;
      }

      .cls-8 {
        stroke-width: 1.5px;
      }

      .cls-10 {
        fill: #d3e5fb;
      }
    </style>
    <pattern id="New_Pattern_3" data-name="New Pattern 3" x="0" y="0" width="40" height="40" patternTransform="translate(6197.3 10982.3) scale(2.23)" patternUnits="userSpaceOnUse" viewBox="0 0 40 40">
      <g>
        <rect class="cls-5" width="40" height="40"/>
        <g>
          <path d="M36.18,30c0,1.06.86,1.91,1.91,1.91v-3.82c-1.06,0-1.91.86-1.91,1.91Z"/>
          <path d="M40,33.82c1.06,0,1.91-.86,1.91-1.91h-3.82c0,1.06.86,1.91,1.91,1.91Z"/>
          <path d="M40,26.18c-1.06,0-1.91.86-1.91,1.91h3.82c0-1.06-.86-1.91-1.91-1.91Z"/>
          <path d="M16.18,40c0,1.06.86,1.91,1.91,1.91v-3.82c-1.06,0-1.91.86-1.91,1.91Z"/>
          <path d="M21.91,38.09v3.82c1.06,0,1.91-.86,1.91-1.91s-.86-1.91-1.91-1.91Z"/>
          <path d="M20,36.18c-1.06,0-1.91.86-1.91,1.91h3.82c0-1.06-.86-1.91-1.91-1.91Z"/>
          <path d="M1.91,28.09v3.82c1.06,0,1.91-.86,1.91-1.91s-.86-1.91-1.91-1.91Z"/>
          <path d="M36.18,10c0,1.06.86,1.91,1.91,1.91v-3.82c-1.06,0-1.91.86-1.91,1.91Z"/>
          <path d="M40,13.82c1.06,0,1.91-.86,1.91-1.91h-3.82c0,1.06.86,1.91,1.91,1.91Z"/>
          <path d="M40,6.18c-1.06,0-1.91.86-1.91,1.91h3.82c0-1.06-.86-1.91-1.91-1.91Z"/>
          <path d="M18.79,16.37c-1,.33-1.54,1.42-1.21,2.42l3.63-1.21c-.33-1-1.42-1.54-2.42-1.21Z"/>
          <path d="M22.42,21.21l-3.63,1.21c.33,1,1.42,1.54,2.42,1.21s1.54-1.42,1.21-2.42Z"/>
          <path d="M16.37,21.21c.33,1,1.42,1.54,2.42,1.21l-1.21-3.63c-1,.33-1.54,1.42-1.21,2.42Z"/>
          <path d="M23.63,18.79c-.33-1-1.42-1.54-2.42-1.21l1.21,3.63c1-.33,1.54-1.42,1.21-2.42Z"/>
          <path d="M1.91,8.09v3.82c1.06,0,1.91-.86,1.91-1.91s-.86-1.91-1.91-1.91Z"/>
          <path d="M20,3.82c1.06,0,1.91-.86,1.91-1.91h-3.82c0,1.06.86,1.91,1.91,1.91Z"/>
        </g>
        <g>
          <path d="M0,33.82c1.06,0,1.91-.86,1.91-1.91H-1.91c0,1.06.86,1.91,1.91,1.91Z"/>
          <path d="M0,26.18c-1.06,0-1.91.86-1.91,1.91H1.91c0-1.06-.86-1.91-1.91-1.91Z"/>
          <path d="M0,13.82c1.06,0,1.91-.86,1.91-1.91H-1.91c0,1.06.86,1.91,1.91,1.91Z"/>
          <path d="M0,6.18c-1.06,0-1.91.86-1.91,1.91H1.91c0-1.06-.86-1.91-1.91-1.91Z"/>
        </g>
        <g>
          <path d="M16.18,0c0,1.06.86,1.91,1.91,1.91V-1.91c-1.06,0-1.91.86-1.91,1.91Z"/>
          <path d="M21.91-1.91V1.91c1.06,0,1.91-.86,1.91-1.91s-.86-1.91-1.91-1.91Z"/>
        </g>
      </g>
    </pattern>
    <pattern id="New_Pattern_4" data-name="New Pattern 4" x="0" y="0" width="70" height="50" patternTransform="translate(6063.78 11004.56) scale(2.23)" patternUnits="userSpaceOnUse" viewBox="0 0 70 50">
      <g>
        <rect class="cls-5" width="70" height="50"/>
        <g>
          <path class="cls-8" d="M8.89,99.96c-.05-7.08.29-14.17.29-21.25,0-4.32-.36-17.47-.29-28.09"/>
          <path class="cls-8" d="M22.94,99.84c.02-1.65.09-3.32.09-5.03,0-2.48-.2-4.98-.2-7.46s.02-3.83.05-7.28c0-1.44-.06-2.9-.06-4.35,0-3.1.31-4.62.31-7.37,0-1.39-.27-4.93-.27-8.33,0-1.07.03-2.14.09-3.21,0-2.06,0-4.29,0-6.7"/>
          <path class="cls-8" d="M36.74,99.84c.02-9.46.33-18.09.33-27.56,0-3.7-.15-7.46-.15-11.2,0-3.35-.09-7.29-.18-10.75"/>
          <path class="cls-8" d="M50.93,99.75c.03-1.23-.07-2.74-.07-3.99,0-1.92-.02-3.85-.02-5.78,0-3.87,0-7.66.02-11.51-.06-.41-.08-.82-.08-1.23,0-.32.18-6.67.18-8.04,0-2.2-.21-3.25-.21-5.64,0-1.3.06-2.65.17-3.87,0-2.88.01-5.88.02-9.05"/>
          <path class="cls-8" d="M64.98,99.71c.02-8.34-.55-15.73-.36-24.06.18-8.13.16-17.71.36-25.19"/>
        </g>
        <g>
          <path class="cls-8" d="M8.89,49.96c-.05-7.08.29-14.17.29-21.25,0-4.32-.36-17.47-.29-28.09"/>
          <path class="cls-8" d="M22.94,49.84c.02-1.65.09-3.32.09-5.03,0-2.48-.2-4.98-.2-7.46s.02-3.83.05-7.28c0-1.44-.06-2.9-.06-4.35,0-3.1.31-4.62.31-7.37,0-1.39-.27-4.93-.27-8.33,0-1.07.03-2.14.09-3.21,0-2.06,0-4.29,0-6.7"/>
          <path class="cls-8" d="M36.74,49.84c.02-9.46.33-18.09.33-27.56,0-3.7-.15-7.46-.15-11.2,0-3.35-.09-7.29-.18-10.75"/>
          <path class="cls-8" d="M50.93,49.75c.03-1.23-.07-2.74-.07-3.99,0-1.92-.02-3.85-.02-5.78,0-3.87,0-7.66.02-11.51-.06-.41-.08-.82-.08-1.23,0-.32.18-6.67.18-8.04,0-2.2-.21-3.25-.21-5.64,0-1.3.06-2.65.17-3.87,0-2.88.01-5.88.02-9.05"/>
          <path class="cls-8" d="M64.98,49.71c.02-8.34-.55-15.73-.36-24.06.18-8.13.16-17.71.36-25.19"/>
        </g>
        <g>
          <path class="cls-8" d="M8.89-.04c-.05-7.08.29-14.17.29-21.25,0-4.32-.36-17.47-.29-28.09"/>
          <path class="cls-8" d="M22.94-.16c.02-1.65.09-3.32.09-5.03,0-2.48-.2-4.98-.2-7.46s.02-3.83.05-7.28c0-1.44-.06-2.9-.06-4.35,0-3.1.31-4.62.31-7.37,0-1.39-.27-4.93-.27-8.33,0-1.07.03-2.14.09-3.21,0-2.06,0-4.29,0-6.7"/>
          <path class="cls-8" d="M36.74-.16c.02-9.46.33-18.09.33-27.56,0-3.7-.15-7.46-.15-11.2,0-3.35-.09-7.29-.18-10.75"/>
          <path class="cls-8" d="M50.93-.25c.03-1.23-.07-2.74-.07-3.99,0-1.92-.02-3.85-.02-5.78,0-3.87,0-7.66.02-11.51-.06-.41-.08-.82-.08-1.23,0-.32.18-6.67.18-8.04,0-2.2-.21-3.25-.21-5.64,0-1.3.06-2.65.17-3.87,0-2.88.01-5.88.02-9.05"/>
          <path class="cls-8" d="M64.98-.29c.02-8.34-.55-15.73-.36-24.06.18-8.13.16-17.71.36-25.19"/>
        </g>
      </g>
    </pattern>
  </defs>
  <g id="Capa_1-2" data-name="Capa 1">
    <g>
      <g>
        <path class="cls-1" d="M1066.97,787.74c49.18,29.33,82.11,83.05,82.11,144.46,0,92.82-75.26,168.05-168.07,168.05-35.09,0-67.67-10.75-94.62-29.17,49.89-48.27,65.33-137.14,59.08-180.22,50.38-23.63,95.44-70.16,121.5-103.12Z"/>
        <path class="cls-1" d="M125.41,555.09l.02-.02c3.49-2.76,7.59-4.92,12.15-6.23,18.47-5.36,37.79,5.54,43.95,23.74,0,0,24.49,73.28,24.88,74.3,8.05,21.33,25.66,37.63,47,45.6l73.77,33.58c7.99,3.63,17.16-2.29,16.96-11.1-.67-28.93-11.06-54.52-21.41-72.99-9.06-16.18-1.18-36.56,16.16-42.77,12.42-4.43,26.28.13,34.38,10.5,19.58,25.1,51.29,74.12,45.08,121.95,0,.04,0,.09-.02.16l-99.07,507.38,94.66-19.34,32.24,247.14-204.41,37.34c-10.33,2.07-20.74,3.07-31.04,3.07-41.08,0-80.93-16-110.8-45.42-37.38-36.81-54.03-89.59-44.55-141.17,37.83-205.66,76.15-374.31,95.55-502.64,2.71-17.98-4.58-35.98-20.36-45.04l-30.82-17.67c-32.24-18.49-56.57-48.07-68.49-83.29l-27.35-80.76c-6.3-18.63,3.69-38.83,22.32-45.15,13.77-4.65,28.39-.42,37.63,9.64,4.16-7.39,10.95-13.33,19.6-16.27,16.2-5.47,33.58,1.36,41.97,15.47Z"/>
        <polygon points="437.26 388.51 333.05 460.83 333.05 316.21 437.26 388.51"/>
        <path class="cls-2" d="M519.75,340.13c5.01,15.22,7.7,31.49,7.7,48.38,0,85.85-69.61,155.44-155.44,155.44s-155.44-69.58-155.44-155.44,69.58-155.44,155.44-155.44c26.86,0,52.12,6.81,74.15,18.8v88.25h73.59ZM333.05,460.83l104.21-72.32-104.21-72.3v144.62Z"/>
        <path class="cls-4" d="M592.52,193.75v146.38h-72.77c-12.39-37.94-39.03-69.47-73.59-88.25v-58.12h146.36Z"/>
        <polygon class="cls-1" points="923.06 270.77 923.06 478.99 697.88 478.99 697.88 193.75 923.06 193.75 923.06 270.77"/>
        <path class="cls-1" d="M1135.42,53.89c17.54,0,31.75,14.22,31.75,31.75s-14.22,31.75-31.75,31.75c-2.2,0-4.36-.22-6.45-.65-9.4-1.93-17.27-8.03-21.63-16.29-2.34-4.43-3.67-9.46-3.67-14.82,0-17.54,14.22-31.75,31.75-31.75Z"/>
        <path class="cls-1" d="M839.99,85.65c0,5.36-1.34,10.39-3.67,14.82-4.36,8.26-12.23,14.36-21.63,16.29-2.09.43-4.25.65-6.45.65-17.54,0-31.75-14.22-31.75-31.75s14.22-31.75,31.75-31.75,31.75,14.22,31.75,31.75Z"/>
        <path class="cls-1" d="M971.84,2c17.54,0,31.75,14.22,31.75,31.75,0,11.77-6.41,22.05-15.93,27.53-4.65,2.69-10.06,4.23-15.82,4.23s-11.17-1.54-15.82-4.23c-9.52-5.47-15.93-15.75-15.93-27.53,0-17.54,14.22-31.75,31.75-31.75Z"/>
        <path class="cls-4" d="M1128.96,116.76l-31.91,154.01h-173.99v-77.02h-92.42l-15.96-76.99c9.39-1.96,17.27-8.03,21.63-16.29h.02l74.57,39.34,45.11-78.51v-.02c4.65,2.69,10.06,4.23,15.82,4.23s11.17-1.54,15.82-4.23v.02l45.08,78.51,74.59-39.34c4.36,8.26,12.24,14.33,21.63,16.29Z"/>
        <path class="cls-4" d="M1460.31,292.84c0,.31.02.6.02.91s-.02.62-.02.91v.78c0,.27-.02.51-.04.78,0,.13,0,.29-.02.45-.02.47-.04.91-.09,1.38h-103.92c-.11-1.42-.18-2.85-.18-4.29,0-28.8,23.34-52.14,52.14-52.14,2.58,0,5.14.2,7.61.56v-120.05l-120.39,69.63v106.3h-44.51v-119.14c0-7.94,4.23-15.29,11.1-19.25l164.92-95.38c6.88-3.98,15.35-3.98,22.25-.02,6.88,3.98,11.13,11.33,11.13,19.29v209.29Z"/>
        <path class="cls-3" d="M1657.66,298.05v149.74l-49.22-8.3-32.42-70.81-36.05,69.05-77.35,8.95,31.67,32.31h-365.32v-180.94h121.95v36.67c-2.27-.29-4.58-.47-6.94-.47-28.8,0-52.14,23.34-52.14,52.14s23.34,52.14,52.14,52.14c24.95,0,46.37-17.39,50.91-40.92.03-.13.06-.25.09-.38.66-3.51,1.13-7.12,1.13-10.84,0-2.87-.24-5.7-.69-8.46v-79.89h60.82c2.18,26.79,24.61,47.84,51.96,47.84s49.76-21.05,51.96-47.82v-.02h197.52Z"/>
        <polygon class="cls-10" points="1685.24 452.44 1627.91 505.16 1639.33 582.2 1571.48 543.97 1501.74 578.64 1517.14 502.29 1462.62 446.68 1539.97 437.73 1576.02 368.68 1608.44 439.49 1685.24 452.44"/>
        <path class="cls-1" d="M1841.01,569.29c8.03-11.04,22.07-16.93,36.27-13.89,19.23,4.12,31.49,23.05,27.37,42.28l-17.87,83.36c-7.79,36.36-28.55,68.54-58.48,90.64l-28.55,21.07c-14.64,10.81-20.72,29.8-15.07,47.09l135.3,413.41c17.36,52.98,6.01,109.88-30.35,152.16-30.46,35.43-73.72,55.03-119.3,55.03-8.81,0-17.69-.73-26.59-2.23l-228.56-34.49,35.47-247.76,92.1,17.18-133.67-408.47c-11.66-46.8,14.2-99.16,30.75-126.31,6.85-11.26,20.09-17.38,32.93-14.4,17.96,4.16,28.11,23.5,20.96,40.61-8.14,19.56-15.53,46.15-12.86,74.97.82,8.77,10.59,13.62,18.14,9.08l69.41-41.84c20.29-10.37,35.78-28.63,41.43-50.71.27-1.05.51-2.11.76-3.2l15.42-73.46c4.03-18.8,21.96-31.84,40.9-28.66,4.7.8,9.01,2.47,12.82,4.81,6.72-14.98,23.19-23.74,39.92-20.16,8.92,1.91,16.36,7.03,21.34,13.89Z"/>
        <path class="cls-1" d="M1478.51,1655.11c52.87,0,95.75,42.86,95.75,95.75s-42.88,95.75-95.75,95.75-95.78-42.88-95.78-95.75h95.78v-95.75Z"/>
        <path class="cls-9" d="M1478.51,1539.6v115.51c-52.89,0-95.78,42.86-95.78,95.75h-46.29v-211.27h142.06Z"/>
        <rect class="cls-4" x="1106.75" y="1539.6" width="229.69" height="211.27"/>
        <path class="cls-2" d="M1550.65,1175.97l-35.47,247.76-178.73-26.97v142.84h-229.69v211.27h229.69v158.48h-390.87c0-165.27-133.98-299.28-299.28-299.28-2.65,0-5.3.04-7.94.09l-4.7-177.44-187.5,34.27-32.24-247.14,213.09-43.55c22.16-4.43,42.79-7.9,61.68-10.66,60.13-8.77,120.05,13.64,161.27,58.28,33.4,36.16,81.2,58.79,134.27,58.79s104.41-24.32,137.92-62.84c53.45-61.44,133.54-93.15,214.09-81.18,61.66,9.17,138.88,23.21,214.41,37.27Z"/>
        <path class="cls-2" d="M818.85,1909.35h-172.55l-4.58-172.48c1.51-.04,3.05-.07,4.58-.07,95.29,0,172.55,77.26,172.55,172.55Z"/>
        <path class="cls-3" d="M638.36,1610.16l3.36,126.71c-93.17,2.43-167.96,78.73-167.96,172.48h-126.73c0-162.62,129.73-294.96,291.33-299.19Z"/>
        <path d="M519.75,340.13h-73.59v-88.25c34.56,18.78,61.2,50.31,73.59,88.25Z"/>
        <path d="M1478.51,1655.11v95.75h-95.78c0-52.89,42.88-95.75,95.78-95.75Z"/>
        <path d="M1460.15,298.05v.02c-2.2,26.77-24.61,47.82-51.96,47.82s-49.78-21.05-51.96-47.84h103.92Z"/>
        <path d="M1295.41,377.94c.45,2.76.69,5.59.69,8.46,0,3.72-.47,7.33-1.13,10.84-.03.13-.06.25-.09.38-4.54,23.53-25.97,40.92-50.91,40.92-28.8,0-52.14-23.34-52.14-52.14s23.34-52.14,52.14-52.14c2.36,0,4.67.18,6.94.47v-36.67h44.51v79.89Z"/>
        <path d="M945.58,1909.35h-126.73c0-95.29-77.26-172.55-172.55-172.55-1.54,0-3.07.02-4.58.07l-3.36-126.71c2.65-.04,5.3-.09,7.94-.09,165.29,0,299.28,134.01,299.28,299.28Z"/>
        <path d="M1088.6,736.83c0,13.2-3.78,25.5-10.35,35.89-1.76,2.49-3.69,5.14-5.81,7.94-.02.04-.04.07-.09.11-1.67,2.25-3.47,4.56-5.39,6.97-26.06,32.96-71.12,79.49-121.5,103.12,6.25,43.08-9.19,131.96-59.08,180.22-12.57-8.55-23.9-18.78-33.69-30.35-23.81,42.37-69.18,70.99-121.23,70.99-76.75,0-138.95-62.2-138.95-138.95s62.2-138.95,138.95-138.95c35.96,0,68.74,13.66,93.39,36.07,22.25-55.7,73.43-96.69,134.96-104.43-4.07-8.7-6.34-18.4-6.34-28.64,0-37.3,30.24-67.56,67.56-67.56s67.56,30.26,67.56,67.56Z"/>
      </g>
      <g>
        <polygon class="cls-6" points="333.05 316.21 437.26 388.51 333.05 460.83 333.05 316.21"/>
        <polygon class="cls-6" points="1657.66 447.79 1685.24 452.44 1627.91 505.16 1639.33 582.2 1571.48 543.97 1501.74 578.64 1517.14 502.29 1462.62 446.68 1539.97 437.73 1576.02 368.68 1608.44 439.49 1657.66 447.79"/>
        <path class="cls-6" d="M1708.94,728.73l19.45-14.35c15.93-11.75,26.99-28.91,31.13-48.27l17.87-83.36c.53-2.51,1.34-4.92,2.36-7.19,6.73-14.97,23.19-23.74,39.92-20.16,8.92,1.91,16.36,7.03,21.34,13.89"/>
        <path class="cls-6" d="M1513.11,797c-1.67-4.05-3-8.17-4.03-12.33-11.59-46.81,14.2-99.16,30.75-126.31,6.85-11.26,20.09-17.38,32.93-14.4,17.96,4.16,28.11,23.5,20.96,40.61-8.14,19.56-15.53,46.15-12.86,74.97.82,8.77,10.59,13.62,18.14,9.08l69.41-41.84c20.29-10.37,35.78-28.63,41.43-50.71.27-1.05.51-2.11.76-3.2l15.42-73.46c4.03-18.8,21.96-31.84,40.9-28.66,4.7.8,9.01,2.47,12.82,4.81"/>
        <path class="cls-6" d="M418.32,731.8l-99.07,507.38s350.55-70.79,369.44-73.55c60.13-8.77,120.05,13.64,161.27,58.28,33.4,36.16,81.2,58.79,134.27,58.79s104.41-24.32,137.92-62.84c53.45-61.44,133.54-93.15,214.09-81.18,61.66,9.17,138.88,23.23,214.41,37.27l92.1,17.18-133.67-408.47"/>
        <path class="cls-6" d="M157.9,706.72l-22.74-13.04c-17.16-9.84-30.13-25.61-36.47-44.35l-27.35-80.76c-1.65-4.85-4.23-9.12-7.5-12.68-9.24-10.06-23.85-14.29-37.63-9.64-18.63,6.32-28.62,26.53-22.32,45.15l27.35,80.76c11.93,35.23,36.25,64.8,68.49,83.29l30.82,17.67c15.78,9.06,23.08,27.06,20.36,45.04-19.4,128.33-57.72,296.99-95.55,502.64-9.48,51.58,7.17,104.37,44.55,141.17,29.86,29.42,69.72,45.42,110.8,45.42,10.3,0,20.72-1,31.04-3.07l391.92-71.61,12.64,476.63h690.15v-512.59l407.29,61.46c8.9,1.49,17.78,2.23,26.59,2.23,45.57,0,88.83-19.6,119.3-55.03,36.36-42.28,47.71-99.18,30.35-152.16l-135.3-413.41c-5.65-17.29.42-36.27,15.07-47.09l28.55-21.07c29.93-22.1,50.69-54.27,58.48-90.64l17.87-83.36c4.12-19.23-8.14-38.16-27.37-42.28-14.2-3.05-28.25,2.84-36.27,13.89-2.83,3.89-4.92,8.43-5.99,13.46l-17.87,83.36c-4.14,19.36-15.22,36.52-31.13,48.27l-21.1,15.58"/>
        <path class="cls-6" d="M213.37,699.09l-20.96-12.04c-17.18-9.84-30.13-25.59-36.49-44.35l-27.33-80.76c-.82-2.45-1.9-4.73-3.18-6.85-8.47-14.06-25.77-20.94-41.97-15.47-8.66,2.94-15.44,8.88-19.6,16.27"/>
        <path class="cls-6" d="M415.76,744.35c1.18-4.16,2.02-8.34,2.56-12.55.02-.07.02-.11.02-.16,6.21-47.82-25.5-96.84-45.08-121.95-8.1-10.37-21.96-14.93-34.38-10.5-17.33,6.21-25.21,26.59-16.16,42.77,10.35,18.47,20.74,44.06,21.41,72.99.2,8.81-8.97,14.73-16.96,11.1l-73.77-33.58c-21.34-7.97-38.95-24.27-47-45.6-.39-1.02-.76-2.05-1.11-3.09l-23.77-71.21c-6.16-18.2-25.48-29.11-43.95-23.74-4.56,1.31-8.66,3.47-12.15,6.23"/>
        <line class="cls-6" x1="413.91" y1="1219.85" x2="446.16" y2="1466.99"/>
        <line class="cls-6" x1="1550.65" y1="1175.97" x2="1515.18" y2="1423.73"/>
        <path class="cls-6" d="M1072.44,780.67c2.14-2.49,4.06-5.15,5.81-7.94,6.52-10.42,10.35-22.7,10.35-35.89,0-37.3-30.24-67.56-67.56-67.56s-67.56,30.26-67.56,67.56c0,10.24,2.27,19.94,6.34,28.64-61.53,7.74-112.71,48.73-134.96,104.43-24.66-22.41-57.43-36.07-93.39-36.07-76.75,0-138.95,62.22-138.95,138.95s62.2,138.95,138.95,138.95c52.05,0,97.42-28.62,121.23-70.99,9.79,11.57,21.13,21.79,33.69,30.35,26.97,18.39,59.53,29.17,94.62,29.17,92.82,0,168.07-75.24,168.07-168.05,0-61.42-32.93-115.14-82.11-144.46"/>
        <path class="cls-6" d="M1078.45,772.46c-.07.09-3.89,5.41-6.01,8.21-.02.04-.04.07-.09.11-1.67,2.25-3.48,4.56-5.39,6.97-26.11,32.91-71.12,79.49-121.5,103.12,6.25,43.08-9.19,131.96-59.08,180.22l-.02.02"/>
        <path class="cls-6" d="M1048.23,864.65c18.87,24.61,33.22,36.21,58.52,57.12l-29.26,29.13"/>
        <polygon class="cls-6" points="1478.51 1655.11 1478.51 1750.87 1106.75 1750.87 1106.75 1539.6 1478.51 1539.6 1478.51 1655.11"/>
        <path class="cls-6" d="M1382.73,1750.87c0,52.87,42.88,95.75,95.78,95.75s95.75-42.88,95.75-95.75-42.88-95.75-95.75-95.75-95.78,42.86-95.78,95.75Z"/>
        <path class="cls-6" d="M818.85,1909.35c0-95.29-77.26-172.55-172.55-172.55-1.54,0-3.07.02-4.58.07-93.17,2.58-167.96,78.73-167.96,172.48h-126.73c0-162.62,129.72-295.72,291.33-299.19,2.65-.06,5.3-.09,7.94-.09,165.29,0,299.28,134.01,299.28,299.28"/>
        <polyline class="cls-6" points="836.34 100.47 910.91 139.81 956.01 61.3"/>
        <polyline class="cls-6" points="987.66 61.3 1032.74 139.81 1107.33 100.47"/>
        <polyline class="cls-6" points="1128.96 116.76 1097.05 270.77 923.06 270.77"/>
        <line class="cls-6" x1="830.64" y1="193.75" x2="814.69" y2="116.76"/>
        <path class="cls-6" d="M836.32,100.47c2.34-4.43,3.67-9.46,3.67-14.82,0-17.54-14.22-31.75-31.75-31.75s-31.75,14.22-31.75,31.75,14.22,31.75,31.75,31.75c2.2,0,4.36-.22,6.45-.65,9.4-1.93,17.27-8.03,21.63-16.29Z"/>
        <path class="cls-6" d="M987.66,61.28c9.52-5.49,15.93-15.75,15.93-27.53,0-17.54-14.22-31.75-31.75-31.75s-31.75,14.22-31.75,31.75c0,11.77,6.42,22.04,15.93,27.53,4.66,2.69,10.06,4.23,15.82,4.23s11.17-1.54,15.82-4.23Z"/>
        <path class="cls-6" d="M1128.96,116.76c2.09.43,4.25.65,6.45.65,17.54,0,31.75-14.22,31.75-31.75s-14.22-31.75-31.75-31.75-31.75,14.22-31.75,31.75c0,5.36,1.33,10.39,3.67,14.82,4.36,8.26,12.23,14.36,21.63,16.29Z"/>
        <polyline class="cls-6" points="1494.29 478.99 1128.96 478.99 1128.96 298.05 1657.66 298.05 1657.66 447.79"/>
        <polygon class="cls-6" points="923.06 270.77 923.06 478.99 697.88 478.99 697.88 193.75 923.06 193.75 923.06 270.77"/>
        <path class="cls-6" d="M446.16,251.88c-22.03-11.99-47.29-18.8-74.15-18.8-85.85,0-155.44,69.61-155.44,155.44s69.58,155.44,155.44,155.44,155.44-69.58,155.44-155.44c0-16.89-2.71-33.15-7.7-48.38-12.43-37.93-39.04-69.46-73.59-88.25Z"/>
        <polygon class="cls-6" points="446.16 251.88 446.16 193.75 592.52 193.75 592.52 340.13 446.16 340.13 446.16 251.88"/>
        <path class="cls-7" d="M1460.15,298.05c.04-.47.07-.91.09-1.38.02-.16.02-.31.02-.45.02-.27.04-.51.04-.78v-.78c0-.29.02-.6.02-.91s-.02-.6-.02-.91V83.56c0-7.97-4.25-15.31-11.13-19.29-6.9-3.96-15.38-3.96-22.25.02l-164.92,95.38c-6.88,3.96-11.1,11.3-11.1,19.25v155.81c-2.27-.29-4.58-.47-6.94-.47-28.8,0-52.14,23.34-52.14,52.14s23.34,52.14,52.14,52.14c24.95,0,46.37-17.39,50.91-40.92.03-.13.06-.25.09-.38.66-3.51,1.13-7.12,1.13-10.84,0-2.87-.24-5.7-.69-8.46v-186.19l120.39-69.63v120.05c-2.47-.36-5.03-.56-7.61-.56-28.8,0-52.14,23.34-52.14,52.14,0,1.45.06,2.87.18,4.29,2.14,26.8,24.61,47.84,51.96,47.84s49.76-21.05,51.96-47.82v-.02Z"/>
        <line class="cls-6" x1="757.94" y1="261.4" x2="863.02" y2="261.4"/>
        <line class="cls-6" x1="757.94" y1="308.53" x2="863.02" y2="308.53"/>
        <line class="cls-6" x1="757.94" y1="355.64" x2="863.02" y2="355.64"/>
        <line class="cls-6" x1="757.94" y1="402.77" x2="863.02" y2="402.77"/>
      </g>
    </g>
  </g>
</svg>