<?xml version="1.0" encoding="UTF-8"?>
<svg id="Capa_2" data-name="Capa 2" xmlns="http://www.w3.org/2000/svg" viewBox="0 0 128.07 171.85">
  <defs>
    <style>
      .cls-1 {
        fill: #abfb4f;
      }

      .cls-2 {
        fill: blue;
      }
    </style>
  </defs>
  <g id="Modo_de_aislamiento" data-name="Modo de aislamiento">
    <g>
      <path class="cls-1" d="M128.07,107.79c0,35.38-28.68,64.05-64.05,64.05S1.08,144.27,0,109.85h64.02V43.74c35.37,0,64.05,28.67,64.05,64.05Z"/>
      <g>
        <polygon class="cls-2" points="4.64 0 0 5.42 0 0 4.64 0"/>
        <polygon class="cls-2" points="17.59 0 0 20.57 0 12.45 10.64 0 17.59 0"/>
        <polygon class="cls-2" points="29.66 0 0 34.69 0 27.61 23.6 0 29.66 0"/>
        <polygon class="cls-2" points="43.32 0 0 50.67 0 41.71 35.68 0 43.32 0"/>
        <polygon class="cls-2" points="56.81 0 0 68.37 0 57.7 49.34 0 56.81 0"/>
        <polygon class="cls-2" points="70.84 0 0 85.24 0 75.5 62.75 0 70.84 0"/>
        <polygon class="cls-2" points="84.6 0 0 101.79 0 92.38 76.79 0 84.6 0"/>
        <polygon class="cls-2" points="97.59 0 13.23 104.41 3.76 104.41 90.56 0 97.59 0"/>
        <polygon class="cls-2" points="104.4 0 104.4 9.09 27.38 104.41 19.11 104.41 103.45 0 104.4 0"/>
        <polygon class="cls-2" points="104.4 16.34 104.4 27.21 42.03 104.41 33.24 104.41 104.4 16.34"/>
        <polygon class="cls-2" points="104.4 34.46 104.4 44.75 56.32 104.41 47.89 104.41 104.4 34.46"/>
        <polygon class="cls-2" points="104.4 52.01 104.4 60.75 69.22 104.41 62.19 104.41 104.4 52.01"/>
        <polygon class="cls-2" points="104.4 68.03 104.4 74.57 80.35 104.41 75.08 104.41 104.4 68.03"/>
        <polygon class="cls-2" points="104.4 81.83 104.4 90.49 93.19 104.41 86.2 104.41 104.4 81.83"/>
        <polygon class="cls-2" points="99.05 104.41 104.4 97.79 104.4 104.41 99.05 104.41"/>
      </g>
    </g>
  </g>
</svg>