<?xml version="1.0" encoding="UTF-8"?>
<svg id="Capa_2" data-name="Capa 2" xmlns="http://www.w3.org/2000/svg" viewBox="0 0 256.68 242.88">
  <defs>
    <style>
      .cls-1 {
        fill: #fff;
      }

      .cls-2 {
        fill: #6cf;
      }

      .cls-3 {
        fill: #080717;
      }
    </style>
  </defs>
  <g id="_Layer_" data-name="&amp;lt;Layer&amp;gt;">
    <g>
      <path class="cls-3" d="M37.76,238.88l8.67-96.97c1.75-15.21,13.57-27.3,28.74-29.39l96.54-13.29c9.41-1.3,18.74,2.86,24.08,10.71l5.64,8.3c2.15,3.16,3.54,6.77,4.08,10.56l12.49,110.08H37.76Z"/>
      <circle class="cls-2" cx="196.8" cy="74.86" r="19.18" transform="translate(-3.8 10.87) rotate(-3.13)"/>
      <g>
        <path class="cls-3" d="M151.98,127.7l-41.62,6.45c-11.15,1.73-21.6-5.91-23.33-17.07h0c-1.73-11.15,5.91-21.6,17.07-23.33l41.62-6.45c11.15-1.73,21.6,5.91,23.33,17.07h0c1.73,11.15-5.91,21.6-17.07,23.33Z"/>
        <rect class="cls-3" x="80.86" y="4.11" width="66.65" height="77.23" rx="33.32" ry="33.32"/>
        <path class="cls-3" d="M132.68,70.08h0c-14.61,0-26.46-11.85-26.46-26.46v-8.4c0-14.61,11.85-26.46,26.46-26.46h0c14.61,0,26.46,11.85,26.46,26.46v8.4c0,14.61-11.85,26.46-26.46,26.46Z"/>
        <g>
          <rect class="cls-1" x="105.56" y="69.29" width="45.18" height="59.75" transform="translate(-13.67 20.79) rotate(-8.81)"/>
          <path class="cls-3" d="M110.4,133.15c-.49,0-.91-.35-.99-.85l-9.15-59.05c-.08-.55.29-1.06.83-1.14l44.65-6.92c.26-.04.53.02.74.18.21.16.36.39.4.65l9.15,59.05c.04.26-.02.53-.18.74-.16.21-.39.36-.65.4l-44.65,6.92c-.05,0-.1.01-.15.01ZM102.39,73.94l8.84,57.07,42.67-6.61-8.84-57.07-42.67,6.61Z"/>
        </g>
        <rect class="cls-3" x="103.27" y="111.07" width="56.49" height="19.69" rx="8.54" ry="8.54" transform="translate(-16.96 21.57) rotate(-8.81)"/>
        <path class="cls-3" d="M126.36,74.77h0c-16.15,0-29.25-13.09-29.25-29.25v-5.98c0-16.15,13.09-29.25,29.25-29.25h0c16.15,0,29.25,13.09,29.25,29.25v5.98c0,16.15-13.09,29.25-29.25,29.25Z"/>
        <path class="cls-3" d="M105.97,50.7c-.12,0-.23-.02-.35-.06-.29-.11-.52-.34-.61-.64-.16-.5.1-1.05.57-1.24,7.44-4.75,10.78-13.93,8.13-22.38l1.9-.63c2.95,9.4-.8,19.59-9.11,24.8-.16.1-.35.15-.53.15Z"/>
        <path class="cls-3" d="M123.28,95.64c-16.84,0-30.54-13.7-30.54-30.54,0-.55.45-1,1-1s1,.45,1,1c0,15.74,12.8,28.54,28.54,28.54,6.55,0,12.95-2.27,18.02-6.4.43-.35,1.06-.28,1.41.14.35.43.28,1.06-.14,1.41-5.42,4.42-12.27,6.85-19.28,6.85Z"/>
        <g>
          <path class="cls-1" d="M161.67,43.66h0c-1.15-3.86-5.21-6.06-9.08-4.92l-4.29,1.28c-5.23-8.31-14.48-13.84-25.02-13.84h0c-15.74,0-28.6,12.31-29.49,27.82l-4.19-.08c-4.03-.07-7.36,3.13-7.43,7.16-.07,4.03,3.13,7.36,7.16,7.43l4.61.09c1.73,14.66,14.2,26.04,29.33,26.04h0c16.32,0,29.54-13.23,29.54-29.54v-9.38c0-.6-.02-1.2-.06-1.79l3.99-1.19c3.86-1.15,6.06-5.21,4.92-9.08Z"/>
          <path class="cls-3" d="M123.28,95.64c-15.18,0-28.01-11.14-30.21-26.06l-3.75-.07c-2.22-.04-4.28-.94-5.82-2.54-1.54-1.6-2.36-3.7-2.32-5.91.08-4.57,3.89-8.21,8.45-8.14l3.24.06c1.39-15.67,14.57-27.8,30.42-27.8,10.31,0,19.77,5.1,25.46,13.67l3.57-1.06c4.39-1.31,9.02,1.2,10.32,5.59h0c.63,2.13.4,4.37-.66,6.32-1.06,1.95-2.81,3.37-4.93,4l-3.24.96c.01.35.02.7.02,1.06v9.38c0,16.84-13.7,30.54-30.54,30.54ZM89.47,54.92c-3.42,0-6.23,2.75-6.3,6.18-.03,1.68.59,3.28,1.76,4.49,1.17,1.21,2.74,1.9,4.42,1.93l4.61.09c.5,0,.92.39.97.88,1.69,14.34,13.87,25.16,28.33,25.16,15.74,0,28.54-12.8,28.54-28.54v-9.38c0-.58-.02-1.16-.06-1.73-.03-.46.27-.89.71-1.02l3.99-1.19c1.61-.48,2.94-1.56,3.74-3.04.8-1.48.98-3.18.5-4.79h0c-.48-1.61-1.56-2.94-3.04-3.74-1.48-.8-3.18-.98-4.79-.5l-4.29,1.28c-.43.13-.89-.05-1.13-.43-5.27-8.38-14.3-13.38-24.17-13.38-15.11,0-27.62,11.81-28.49,26.88-.03.53-.47.94-1,.94h-.02l-4.19-.08s-.08,0-.12,0Z"/>
        </g>
        <path class="cls-3" d="M92.74,64.45c-.5,0-.94-.38-.99-.9-.37-3.49-3.59-4.42-3.62-4.43-.53-.15-.84-.7-.7-1.23.15-.53.71-.84,1.23-.7.19.05,4.57,1.32,5.08,6.14.06.55-.34,1.04-.89,1.1-.04,0-.07,0-.11,0Z"/>
        <path class="cls-3" d="M114.98,47.44c.44,1.13-1.76,3.03-4.9,4.24-3.14,1.21-6.04,1.27-6.48.14-.44-1.13,1.76-3.03,4.9-4.24,3.14-1.21,6.04-1.27,6.48-.13Z"/>
        <path class="cls-3" d="M137.55,45.81c-.08,1.21-2.87,2.01-6.23,1.78s-6.01-1.4-5.93-2.61c.08-1.21,2.87-2.01,6.23-1.78s6.01,1.4,5.93,2.61Z"/>
        <path class="cls-3" d="M106.97,59.34c-.2,0-.39-.06-.57-.18-.45-.31-.57-.94-.25-1.39,2.74-3.97,7.25-2.85,9.25-1.71.48.27.65.88.37,1.36-.27.48-.88.65-1.36.37h0c-.17-.1-4.24-2.33-6.61,1.11-.19.28-.51.43-.82.43Z"/>
        <path class="cls-3" d="M129.89,53.62c.35,1.62,1.47,2.75,2.5,2.52,1.03-.22,1.58-1.72,1.22-3.34-.35-1.62-1.47-2.75-2.5-2.52-1.03.22-1.58,1.72-1.22,3.34Z"/>
        <path class="cls-3" d="M124.02,66.3s-.07,0-.1,0c-1.39-.14-2.67-.88-3.5-2.01-.83-1.13-1.14-2.57-.86-3.94l1.61-7.79c.11-.54.64-.89,1.18-.78.54.11.89.64.78,1.18l-1.61,7.79c-.17.83,0,1.67.51,2.36.5.69,1.25,1.11,2.09,1.2.55.06.95.55.89,1.1-.05.51-.49.9-.99.9Z"/>
        <path class="cls-3" d="M128.87,74.49c-.5,0-.93-.37-.99-.87-.07-.55.32-1.05.86-1.12,1.48-.19,2.52-.77,3.19-1.78,1.63-2.47.5-6.62.49-6.66-.15-.53.16-1.08.69-1.23.53-.15,1.08.16,1.23.69.06.21,1.39,5.06-.75,8.3-1,1.51-2.54,2.4-4.6,2.67-.04,0-.09,0-.13,0Z"/>
        <path class="cls-3" d="M96.24,45.25v.05c13.55-3.54,23.56-15.86,23.56-30.52v-.05c-13.55,3.54-23.56,15.86-23.56,30.52Z"/>
        <path class="cls-3" d="M148.15,37.09l.03.04c-13.44,3.95-28.36-1.46-35.91-14.03l-.03-.04c13.44-3.95,28.36,1.46,35.91,14.03Z"/>
        <path class="cls-3" d="M152.13,49.76c-.48,0-.9-.35-.99-.84-.8-4.79,3.09-7.18,3.25-7.28.47-.29,1.09-.13,1.37.34.28.47.13,1.09-.34,1.37-.13.08-2.88,1.82-2.31,5.24.09.54-.28,1.06-.82,1.15-.06,0-.11.01-.17.01Z"/>
        <path class="cls-3" d="M130.76,11.51c-.08,0-.16,0-.23-.02-1.16-.15-1.27-1.57-1.32-2.1-.3-3.89-4.3-7.62-4.34-7.66-.41-.38-.43-1.01-.06-1.41.37-.41,1.01-.43,1.41-.06.18.16,4.08,3.81,4.86,8.11.66-1.33,1.51-3.46,2.16-5.37.18-.52.74-.8,1.27-.62.52.18.8.75.62,1.27-2.45,7.2-3.68,7.86-4.38,7.86Z"/>
        <path class="cls-1" d="M109.57,115.29c-5.18,0-9.75-3.78-10.57-9.06l-.47-3.02c-.09-.55.29-1.06.83-1.14.55-.08,1.06.29,1.14.83l.47,3.02c.36,2.3,1.58,4.32,3.46,5.69,1.88,1.37,4.17,1.93,6.47,1.58l38.71-6c2.3-.36,4.32-1.58,5.69-3.46,1.37-1.88,1.93-4.17,1.58-6.47l-.43-2.77c-.08-.55.29-1.06.83-1.14.55-.08,1.06.29,1.14.84l.43,2.77c.44,2.82-.25,5.65-1.94,7.96-1.69,2.31-4.17,3.82-7,4.26l-38.71,6c-.55.09-1.1.13-1.65.13Z"/>
      </g>
      <g>
        <path class="cls-1" d="M193.93,238.88l-5.61-121.47-11.08-18.08c-2.47-4.03-.07-9.27,4.59-10.03h0c1.97-.32,3.98.25,5.48,1.57l10.97,9.67c2.45,2.16,5.8,3.01,8.98,2.28h0c3.97-.91,7-4.11,7.71-8.12l2.3-13.04-3.47-13.98c-1.06-4.28,2.06-8.46,6.46-8.65l2.33-.1c.83-.04,1.57.49,1.81,1.28l6.64,21.85-1.89,20.26,25.54,28.71-7.74,23.4,3.43,84.43h-56.45Z"/>
        <path class="cls-3" d="M250.39,239.88h-56.45c-.53,0-.97-.42-1-.95l-5.6-121.21-10.95-17.86c-1.33-2.17-1.5-4.86-.44-7.18,1.06-2.32,3.2-3.95,5.71-4.37,2.28-.37,4.57.29,6.3,1.81l10.97,9.67c2.21,1.94,5.23,2.71,8.1,2.05,3.58-.83,6.31-3.7,6.95-7.32l2.27-12.83-3.42-13.77c-.58-2.33-.09-4.77,1.35-6.69,1.44-1.92,3.64-3.09,6.04-3.19l2.33-.1c1.3-.06,2.44.76,2.81,1.99l6.64,21.85c.04.12.05.25.04.38l-1.85,19.83,25.25,28.39c.24.27.31.64.2.98l-7.68,23.22,3.43,84.25c.01.27-.09.54-.28.73-.19.2-.45.31-.72.31ZM194.89,237.88h54.46l-3.39-83.39c0-.12.01-.24.05-.35l7.55-22.85-25.16-28.28c-.18-.21-.27-.48-.25-.76l1.87-20.07-6.58-21.66c-.11-.35-.45-.6-.81-.57l-2.33.1c-1.8.08-3.45.95-4.52,2.39-1.08,1.44-1.45,3.27-1.01,5.02l3.47,13.98c.03.14.04.28.01.41l-2.3,13.04c-.78,4.41-4.1,7.91-8.47,8.92-3.49.8-7.18-.13-9.87-2.5l-10.97-9.67c-1.28-1.13-2.97-1.61-4.65-1.34-1.89.31-3.42,1.49-4.22,3.22-.79,1.74-.68,3.67.32,5.3l11.08,18.08c.09.14.14.31.15.48l5.57,120.51Z"/>
      </g>
      <g>
        <path class="cls-1" d="M217.42,116.8h0c-2.26-2.59-2-6.52.58-8.78l9.4-8.23c2.59-2.26,6.52-2,8.78.58h0c2.26,2.59,2,6.52-.58,8.78l-9.4,8.23c-2.59,2.26-6.52,2-8.78-.58Z"/>
        <path class="cls-3" d="M222.11,119.93c-.16,0-.33,0-.49-.02-1.92-.13-3.68-1-4.96-2.45h0c-2.62-3-2.32-7.57.68-10.19l9.41-8.23c3-2.62,7.57-2.32,10.19.68,2.62,3,2.32,7.57-.68,10.19l-9.41,8.23c-1.33,1.16-3,1.79-4.74,1.79ZM218.17,116.14c.92,1.05,2.19,1.68,3.58,1.77,1.38.09,2.74-.36,3.79-1.28l9.41-8.23c2.17-1.9,2.39-5.2.49-7.37-1.9-2.17-5.2-2.39-7.37-.49l-9.41,8.23c-2.17,1.9-2.38,5.2-.49,7.37h0Z"/>
      </g>
      <g>
        <path class="cls-1" d="M226.37,124.8h0c-2.26-2.59-2-6.52.58-8.78l9.4-8.23c2.59-2.26,6.52-2,8.78.58h0c2.26,2.59,2,6.52-.58,8.78l-9.4,8.23c-2.59,2.26-6.52,2-8.78-.58Z"/>
        <path class="cls-3" d="M231.06,127.92c-2.01,0-4.01-.83-5.44-2.46-1.27-1.45-1.9-3.31-1.77-5.24.13-1.92,1-3.68,2.45-4.95l9.4-8.23c3-2.62,7.57-2.32,10.19.68,2.62,3,2.32,7.57-.68,10.19l-9.4,8.23c-1.37,1.2-3.06,1.78-4.75,1.78ZM240.45,107.26c-1.22,0-2.45.42-3.44,1.29l-9.4,8.23c-1.05.92-1.68,2.19-1.77,3.58s.36,2.74,1.28,3.79h0c1.89,2.17,5.2,2.39,7.37.49l9.4-8.23c2.17-1.9,2.39-5.2.49-7.37-1.03-1.18-2.48-1.78-3.93-1.78Z"/>
      </g>
      <g>
        <path class="cls-1" d="M247.29,130.6l-3.19,2.79c-2.59,2.26-6.52,2-8.78-.58h0c-2.26-2.59-2-6.52.58-8.78l9.4-8.23c2.59-2.26,6.52-2,8.78.58h0c2.26,2.59,2.08,12.68-.42,17.87l-6.39-3.65Z"/>
        <path class="cls-3" d="M240.01,135.92c-2.01,0-4.01-.83-5.44-2.46-1.27-1.45-1.9-3.31-1.77-5.24.13-1.92,1-3.68,2.45-4.95l9.4-8.23c1.45-1.27,3.31-1.9,5.24-1.77,1.92.13,3.68,1,4.96,2.45,2.76,3.15,2.2,13.82-.27,18.96-.24.5-.83.71-1.33.47-.5-.24-.71-.84-.47-1.33,2.45-5.11,2.43-14.64.56-16.78-.92-1.05-2.19-1.68-3.58-1.77-1.38-.1-2.74.36-3.79,1.28l-9.4,8.23c-1.05.92-1.68,2.19-1.77,3.58s.36,2.74,1.28,3.79c1.9,2.17,5.2,2.39,7.37.49l3.19-2.79c.41-.36,1.05-.32,1.41.09.36.42.32,1.05-.09,1.41l-3.19,2.79c-1.37,1.2-3.06,1.78-4.75,1.78Z"/>
      </g>
      <g>
        <path class="cls-1" d="M204.86,135.3s6.9-12.29,20.49-11.46l-20.49,11.46Z"/>
        <path class="cls-3" d="M204.86,136.3c-.17,0-.33-.04-.49-.13-.48-.27-.65-.88-.38-1.36.29-.52,7.37-12.83,21.42-11.97.55.03.97.51.94,1.06-.03.55-.51.98-1.06.94-12.78-.77-19.49,10.84-19.55,10.96-.18.33-.52.51-.87.51Z"/>
      </g>
      <path class="cls-3" d="M193.83,81.37h0c-.27,0-.52-.11-.71-.29l-4.21-4.21c-.39-.39-.39-1.02,0-1.41.39-.39,1.02-.39,1.41,0l3.5,3.51,11.26-11.26c.39-.39,1.02-.39,1.41,0,.39.39.39,1.02,0,1.41l-11.97,11.97c-.19.19-.44.29-.71.29Z"/>
      <polygon class="cls-3" points="193.93 238.88 250.39 238.88 247.87 177.02 191.08 177.02 193.93 238.88"/>
      <path class="cls-1" d="M121.23,153.64c-.55,0-1-.45-1-1v-28.93c0-.55.45-1,1-1s1,.45,1,1v28.93c0,.55-.45,1-1,1Z"/>
      <path class="cls-1" d="M91.3,239.88c-.55,0-1-.45-1-1v-51.65c0-.55.45-1,1-1s1,.45,1,1v51.65c0,.55-.45,1-1,1Z"/>
      <path class="cls-1" d="M137.19,151.64c-.55,0-1-.45-1-1v-28.93c0-.55.45-1,1-1s1,.45,1,1v28.93c0,.55-.45,1-1,1Z"/>
      <g>
        <g>
          <path class="cls-1" d="M1,241.88v-86.11c0-4.87,3.95-8.82,8.82-8.82h179.49c4.87,0,8.82,3.95,8.82,8.82v86.11H1Z"/>
          <path class="cls-3" d="M198.13,242.88c-.55,0-1-.45-1-1v-86.11c0-4.31-3.51-7.82-7.82-7.82H9.82c-4.31,0-7.82,3.51-7.82,7.82v86.11c0,.55-.45,1-1,1s-1-.45-1-1v-86.11c0-5.41,4.4-9.82,9.82-9.82h179.49c5.41,0,9.82,4.4,9.82,9.82v86.11c0,.55-.45,1-1,1Z"/>
        </g>
        <path class="cls-3" d="M12.27,160.7c-2.31,0-4.19-1.88-4.19-4.19s1.88-4.19,4.19-4.19,4.19,1.88,4.19,4.19-1.88,4.19-4.19,4.19ZM12.27,154.32c-1.21,0-2.19.98-2.19,2.19s.98,2.19,2.19,2.19,2.19-.98,2.19-2.19-.98-2.19-2.19-2.19Z"/>
        <path class="cls-3" d="M23,160.7c-2.31,0-4.19-1.88-4.19-4.19s1.88-4.19,4.19-4.19,4.19,1.88,4.19,4.19-1.88,4.19-4.19,4.19ZM23,154.32c-1.21,0-2.19.98-2.19,2.19s.98,2.19,2.19,2.19,2.19-.98,2.19-2.19-.98-2.19-2.19-2.19Z"/>
        <path class="cls-3" d="M33.72,160.7c-2.31,0-4.19-1.88-4.19-4.19s1.88-4.19,4.19-4.19,4.19,1.88,4.19,4.19-1.88,4.19-4.19,4.19ZM33.72,154.32c-1.21,0-2.19.98-2.19,2.19s.98,2.19,2.19,2.19,2.19-.98,2.19-2.19-.98-2.19-2.19-2.19Z"/>
      </g>
      <g>
        <g>
          <path class="cls-1" d="M97.54,146.73h-9.49l6.12-6.31c2.36-2.44,5.53-3.94,8.91-4.23h0c3.01-.26,4.56.82,6.75,4.46l10.69,19.23-4.51.83c-3.22.59-6.51-.54-8.68-2.98l-9.79-11Z"/>
          <path class="cls-3" d="M114.34,161.86c-2.93,0-5.79-1.25-7.76-3.47l-9.49-10.66h-9.04c-.4,0-.76-.24-.92-.61-.16-.37-.08-.8.2-1.09l6.12-6.31c2.53-2.61,5.92-4.22,9.54-4.53,3.78-.32,5.56,1.41,7.69,4.94l10.7,19.26c.16.28.17.62.03.91s-.41.5-.72.56l-4.51.83c-.61.11-1.23.17-1.85.17ZM90.41,145.73h7.13c.29,0,.56.12.75.33l9.79,11c1.93,2.17,4.9,3.19,7.75,2.66l3.14-.58-10.01-18.01c-2.19-3.63-3.51-4.14-5.79-3.95-3.14.27-6.08,1.66-8.28,3.93l-4.48,4.61Z"/>
        </g>
        <g>
          <path class="cls-1" d="M85.05,146.73h-9.49l6.12-6.31c2.36-2.44,5.53-3.94,8.91-4.23h0c3.01-.26,5.8,1.59,6.75,4.46l8.44,24.47-6.25.32c-3.23.17-6.27-1.58-7.74-4.47l-6.74-14.24Z"/>
          <path class="cls-3" d="M99.12,166.46c-3.44,0-6.63-1.93-8.21-5.02l-6.49-13.7h-8.86c-.4,0-.76-.24-.92-.61-.16-.37-.08-.8.2-1.09l6.12-6.31c2.53-2.61,5.92-4.22,9.54-4.53,3.49-.3,6.69,1.81,7.78,5.14l8.44,24.45c.1.3.06.62-.12.89-.18.26-.46.42-.78.44l-6.25.32c-.16,0-.32.01-.47.01ZM77.93,145.73h7.13c.39,0,.74.22.9.57l6.74,14.24c1.28,2.5,3.95,4.04,6.78,3.9l4.92-.25-8.01-23.21c-.81-2.45-3.16-4.01-5.72-3.79-3.14.27-6.08,1.66-8.28,3.93l-4.47,4.61Z"/>
        </g>
        <g>
          <path class="cls-1" d="M72.57,146.73h-9.49l6.12-6.31c2.36-2.44,5.53-3.94,8.91-4.23h0c3.01-.26,5.8,1.59,6.75,4.46l7.63,22.39-6.25.32c-3.23.17-6.27-1.58-7.74-4.47l-5.93-12.16Z"/>
          <path class="cls-3" d="M85.82,164.37c-3.44,0-6.63-1.93-8.21-5.02l-5.67-11.62h-8.87c-.4,0-.76-.24-.92-.61-.16-.37-.08-.8.2-1.09l6.12-6.31c2.53-2.61,5.92-4.22,9.54-4.53,3.49-.3,6.69,1.81,7.78,5.14l7.63,22.38c.1.3.06.62-.12.88s-.46.42-.78.44l-6.25.32c-.16,0-.32.01-.47.01ZM65.44,145.73h7.13c.38,0,.73.22.9.56l5.93,12.16c1.28,2.51,3.95,4.05,6.79,3.91l4.93-.25-7.2-21.13c-.81-2.45-3.16-4-5.72-3.78-3.14.27-6.08,1.66-8.28,3.93l-4.47,4.61Z"/>
        </g>
        <g>
          <path class="cls-1" d="M60.7,146.73h-9.49l6.12-6.31c2.36-2.44,5.53-3.94,8.91-4.23h0c3.01-.26,5.8,1.59,6.75,4.46l6.4,19.43-6.25.32c-3.23.17-6.27-1.58-7.74-4.47l-4.7-9.2Z"/>
          <path class="cls-3" d="M72.72,161.41c-3.45,0-6.63-1.93-8.21-5.02l-4.42-8.65h-8.88c-.4,0-.76-.24-.92-.61-.16-.37-.08-.8.2-1.09l6.12-6.31c2.53-2.61,5.92-4.22,9.54-4.53,3.49-.3,6.69,1.81,7.78,5.14l6.4,19.43c.1.3.05.62-.12.88-.18.26-.46.42-.77.43l-6.25.32c-.16,0-.32.01-.47.01ZM53.58,145.73h7.13c.38,0,.72.21.89.55l4.7,9.2c1.29,2.53,3.95,4.07,6.8,3.92l4.94-.25-5.99-18.18c-.8-2.44-3.16-3.99-5.71-3.77-3.14.27-6.08,1.66-8.28,3.93l-4.47,4.61Z"/>
        </g>
      </g>
      <path class="cls-3" d="M81.48,210.72c-.17,0-.34-.04-.5-.13l-23.71-13.69c-.31-.18-.5-.51-.5-.87s.19-.69.5-.87l23.71-13.69c.48-.28,1.09-.11,1.37.37.28.48.11,1.09-.37,1.37l-22.21,12.82,22.21,12.82c.48.28.64.89.37,1.37-.19.32-.52.5-.87.5Z"/>
      <path class="cls-3" d="M122.02,210.72c-.35,0-.68-.18-.87-.5-.28-.48-.11-1.09.37-1.37l22.21-12.82-22.21-12.82c-.48-.28-.64-.89-.37-1.37.28-.48.89-.64,1.37-.37l23.71,13.69c.31.18.5.51.5.87s-.19.69-.5.87l-23.71,13.69c-.16.09-.33.13-.5.13Z"/>
      <path class="cls-3" d="M91.19,227.24c-.11,0-.23-.02-.34-.06-.52-.19-.79-.76-.6-1.28l19.29-53.21c.19-.52.76-.79,1.28-.6.52.19.79.76.6,1.28l-19.29,53.21c-.15.41-.53.66-.94.66Z"/>
    </g>
  </g>
</svg>