<?xml version="1.0" encoding="UTF-8"?>
<svg id="Capa_2" data-name="Capa 2" xmlns="http://www.w3.org/2000/svg" viewBox="0 0 1016.17 865">
  <defs>
    <style>
      .cls-1 {
        fill: #fff;
      }

      .cls-2 {
        fill: #abfb4f;
      }

      .cls-3 {
        fill: blue;
      }

      .cls-4 {
        fill: #587be1;
      }

      .cls-5 {
        fill: #040311;
      }

      .cls-6 {
        fill: #010101;
      }

      .cls-7 {
        fill: #fffffd;
      }
    </style>
  </defs>
  <g id="Capa_1-2" data-name="Capa 1">
    <g>
      <g>
        <polygon class="cls-5" points="743 675.94 742.73 663.78 637.71 663.78 637.99 675.94 743 675.94"/>
        <polygon class="cls-5" points="817.45 639.35 817.16 627.19 636.3 627.19 636.58 639.35 817.45 639.35"/>
        <polygon class="cls-5" points="787.09 602.77 786.82 590.61 634.39 590.61 634.67 602.77 787.09 602.77"/>
        <polygon class="cls-5" points="770.67 675.94 770.38 663.78 749.72 663.78 750.01 675.94 770.67 675.94"/>
        <polygon class="cls-4" points="939.8 675.94 939.52 663.78 834.5 663.78 834.78 675.94 939.8 675.94"/>
        <polygon class="cls-5" points="1014.24 639.35 1013.95 627.19 833.08 627.19 833.37 639.35 1014.24 639.35"/>
        <polygon class="cls-5" points="983.89 602.77 983.6 590.61 831.18 590.61 831.47 602.77 983.89 602.77"/>
        <polygon class="cls-4" points="967.46 675.94 967.17 663.78 946.52 663.78 946.81 675.94 967.46 675.94"/>
        <polygon class="cls-5" points="742.04 567.52 741.76 555.36 636.74 555.36 637.03 567.52 742.04 567.52"/>
        <polygon class="cls-5" points="769.69 567.52 769.42 555.36 748.75 555.36 749.04 567.52 769.69 567.52"/>
        <polygon class="cls-5" points="938.84 567.52 938.55 555.36 833.54 555.36 833.81 567.52 938.84 567.52"/>
        <polygon class="cls-5" points="966.49 567.52 966.2 555.36 945.55 555.36 945.84 567.52 966.49 567.52"/>
        <polygon class="cls-5" points="744.95 526.45 744.66 514.29 639.65 514.29 639.93 526.45 744.95 526.45"/>
        <polygon class="cls-5" points="819.38 489.87 819.1 477.71 638.23 477.71 638.52 489.87 819.38 489.87"/>
        <polygon class="cls-4" points="789.04 453.28 788.75 441.12 636.33 441.12 636.61 453.28 789.04 453.28"/>
        <polygon class="cls-5" points="772.6 526.45 772.32 514.29 751.67 514.29 751.95 526.45 772.6 526.45"/>
        <polygon class="cls-5" points="941.74 526.45 941.46 514.29 836.44 514.29 836.73 526.45 941.74 526.45"/>
        <polygon class="cls-5" points="1016.17 489.87 1015.9 477.71 835.03 477.71 835.32 489.87 1016.17 489.87"/>
        <polygon class="cls-5" points="985.83 453.28 985.54 441.12 833.13 441.12 833.4 453.28 985.83 453.28"/>
        <polygon class="cls-5" points="969.39 526.45 969.12 514.29 948.45 514.29 948.74 526.45 969.39 526.45"/>
        <polygon class="cls-5" points="743.98 418.02 743.7 405.87 638.67 405.87 638.96 418.02 743.98 418.02"/>
        <polygon class="cls-5" points="818.41 381.44 818.13 369.28 637.26 369.28 637.55 381.44 818.41 381.44"/>
        <polygon class="cls-5" points="788.06 344.86 787.78 332.7 635.36 332.7 635.65 344.86 788.06 344.86"/>
        <polygon class="cls-5" points="771.64 418.02 771.35 405.87 750.7 405.87 750.99 418.02 771.64 418.02"/>
        <polygon class="cls-2" points="940.77 418.02 940.48 405.87 835.47 405.87 835.76 418.02 940.77 418.02"/>
        <polygon class="cls-5" points="1015.2 381.44 1014.93 369.28 834.05 369.28 834.34 381.44 1015.2 381.44"/>
        <polygon class="cls-1" points="984.86 344.86 984.57 332.7 832.15 332.7 832.44 344.86 984.86 344.86"/>
        <polygon class="cls-5" points="968.42 418.02 968.15 405.87 947.49 405.87 947.77 418.02 968.42 418.02"/>
        <polygon class="cls-5" points="743 309.6 742.73 297.44 637.71 297.44 637.99 309.6 743 309.6"/>
        <polygon class="cls-5" points="817.45 273.01 817.16 260.85 636.3 260.85 636.58 273.01 817.45 273.01"/>
        <polygon class="cls-5" points="787.09 236.43 786.82 224.27 634.39 224.27 634.67 236.43 787.09 236.43"/>
        <polygon class="cls-5" points="770.67 309.6 770.38 297.44 749.72 297.44 750.01 309.6 770.67 309.6"/>
        <polygon class="cls-4" points="939.8 309.6 939.52 297.44 834.5 297.44 834.78 309.6 939.8 309.6"/>
        <polygon class="cls-5" points="1014.24 273.01 1013.95 260.85 833.08 260.85 833.37 273.01 1014.24 273.01"/>
        <polygon class="cls-5" points="983.89 236.43 983.6 224.27 831.18 224.27 831.47 236.43 983.89 236.43"/>
        <polygon class="cls-4" points="967.46 309.6 967.17 297.44 946.52 297.44 946.81 309.6 967.46 309.6"/>
        <polygon class="cls-5" points="742.04 201.17 741.76 189.01 636.74 189.01 637.03 201.17 742.04 201.17"/>
        <polygon class="cls-5" points="769.69 201.17 769.42 189.01 748.75 189.01 749.04 201.17 769.69 201.17"/>
        <polygon class="cls-5" points="938.84 201.17 938.55 189.01 833.54 189.01 833.81 201.17 938.84 201.17"/>
        <polygon class="cls-5" points="966.49 201.17 966.2 189.01 945.55 189.01 945.84 201.17 966.49 201.17"/>
        <polygon class="cls-5" points="819.38 48.75 819.1 36.59 638.23 36.59 638.52 48.75 819.38 48.75"/>
        <polygon class="cls-4" points="789.04 12.17 788.75 0 636.33 0 636.61 12.17 789.04 12.17"/>
        <polygon class="cls-5" points="1016.17 48.75 1015.9 36.59 835.03 36.59 835.32 48.75 1016.17 48.75"/>
        <polygon class="cls-5" points="985.83 12.17 985.54 0 833.13 0 833.4 12.17 985.83 12.17"/>
        <polygon class="cls-5" points="819.38 162.78 819.1 150.62 638.23 150.62 638.52 162.78 819.38 162.78"/>
        <polygon class="cls-4" points="789.04 126.2 788.75 114.04 636.33 114.04 636.61 126.2 789.04 126.2"/>
        <polygon class="cls-5" points="1016.17 162.78 1015.9 150.62 835.03 150.62 835.32 162.78 1016.17 162.78"/>
        <polygon class="cls-5" points="985.83 126.2 985.54 114.04 833.13 114.04 833.4 126.2 985.83 126.2"/>
        <polygon class="cls-5" points="743.98 90.94 743.7 78.78 638.67 78.78 638.96 90.94 743.98 90.94"/>
        <polygon class="cls-5" points="771.64 90.94 771.35 78.78 750.7 78.78 750.99 90.94 771.64 90.94"/>
        <polygon class="cls-2" points="940.77 90.94 940.48 78.78 835.47 78.78 835.76 90.94 940.77 90.94"/>
        <polygon class="cls-5" points="968.42 90.94 968.15 78.78 947.49 78.78 947.77 90.94 968.42 90.94"/>
      </g>
      <g>
        <polygon class="cls-2" points="341.44 194.17 268.47 376.46 4.55 270.4 77.51 88.1 341.44 194.17"/>
        <g>
          <polygon class="cls-7" points="140.6 264.63 228.06 207.11 268.67 376.54 4.52 270.47 116.45 211.66 140.6 264.63"/>
          <path d="M271.38,379.68l-3.42-1.37L0,270.7l117.35-61.66,24.06,52.78,87.87-57.78.62,2.63,41.47,173.01ZM9.03,270.24l256.93,103.17-39.12-163.23-87.05,57.25-24.24-53.16-106.52,55.97Z"/>
        </g>
        <g>
          <path class="cls-7" d="M176.83,163.09c11.25,4.38,16.85,17.05,12.47,28.33-4.38,11.27-17.05,16.87-28.32,12.49-11.28-4.39-16.87-17.06-12.5-28.33,4.38-11.28,17.08-16.87,28.35-12.49Z"/>
          <path d="M168.9,207.31c-2.9,0-5.83-.55-8.61-1.63-12.23-4.75-18.32-18.57-13.58-30.79,2.3-5.93,6.77-10.61,12.59-13.18,5.83-2.56,12.29-2.71,18.2-.4h0c12.23,4.76,18.29,18.57,13.55,30.79-2.3,5.93-6.77,10.6-12.58,13.17-3.07,1.35-6.33,2.04-9.58,2.04ZM168.89,163.49c-2.74,0-5.47.57-8.06,1.71-4.88,2.15-8.64,6.08-10.59,11.06-3.97,10.27,1.16,21.88,11.42,25.88,4.97,1.94,10.42,1.83,15.29-.34,4.88-2.16,8.64-6.09,10.58-11.06,3.99-10.27-1.13-21.88-11.39-25.88h0c-2.36-.91-4.8-1.37-7.25-1.37Z"/>
        </g>
      </g>
      <g>
        <g>
          <path class="cls-6" d="M533.05,29.53c-5.44,0-10.87,1.6-16.15,4.79-2.62-8.72-13.57-31.74-55.27-31.74-10.89,0-23.25,1.57-36.79,4.69-56.99,13.1-70.52,9.32-70.6,9.31-.79-.29-1.7-.1-2.31.46-.64.57-.88,1.41-.64,2.23.27.79,5.32,16.45,22.48,25.06-7.19.99-16.09,3.69-22.72,10.62-6.8,7.13-9.9,17.36-9.13,30.39,1.54,26.86,11.92,40.1,20.29,50.73,5.58,7.08,9.99,12.7,10.16,20.39.11,5.91-3.36,12.25-7.08,19-8.2,14.9-18.42,33.44,10.1,54.37,38.71,28.43,74.42,42.84,106.14,42.84s60.8-16.01,82.32-47.58c33.68-49.41,30.34-122.68,7.63-164.98-10.59-19.73-24.24-30.6-38.43-30.6Z"/>
          <g>
            <path class="cls-1" d="M558.25,148.97c-.55,0-1.06.02-1.52.05l6.96,50.25c5.13-5.34,14.39-18.18,10.53-38.59-1.81-9.68-9.69-11.71-15.97-11.71Z"/>
            <path d="M558.24,146.62c-2.48,0-4.18.33-4.18.33l7.89,57.09s20.15-14.48,14.62-43.82c-2.22-11.82-12.44-13.6-18.33-13.6ZM565.32,193.73l-5.87-42.38c7.12.33,11.3,3.6,12.44,9.76,2.96,15.57-2.04,26.37-6.57,32.63Z"/>
          </g>
          <g>
            <path class="cls-1" d="M558.68,332.26c-10.01-4.69-28.5-7.38-50.72-7.38-33.53,0-67.71,6.11-89.15,15.89-38.08,17.41-31.8,52.22-18.4,107.61,4.2,17.36,13.41,37.43,24.06,60.64,21.03,45.72,47.19,102.64,48.67,170.67,1.81,83.25-1.51,159.65-2.84,183.78h206.07c2.11-40.27,4.14-321.36-67.86-467.65-15.16-30.77-35.62-56.89-49.82-63.56Z"/>
            <path class="cls-6" d="M559.32,330.87c-10.17-4.78-28.89-7.54-51.36-7.54-33.76,0-68.16,6.14-89.77,16.04-39.18,17.91-32.87,53.21-19.3,109.35,4.24,17.5,13.46,37.56,24.2,60.95,20.97,45.6,47.05,102.33,48.51,170.03,2.02,92.34-2.34,174.58-2.84,183.67-.02.41.12.82.44,1.13.27.31.68.49,1.09.49h206.07c.82,0,1.49-.65,1.54-1.47,3.09-59.24.71-328.77-68.03-468.4-15.3-31.06-36.09-57.48-50.55-64.25ZM674.93,861.91h-203.02c.79-14.74,4.68-93.89,2.75-182.27-1.49-68.32-27.71-125.38-48.85-171.4-10.6-23.09-19.76-43.03-23.92-60.22-13.22-54.61-19.42-88.94,17.56-105.85,21.25-9.73,55.18-15.74,88.5-15.74,22.04,0,40.27,2.64,50.07,7.22,13.87,6.52,34.05,32.35,49.09,62.84,67.91,137.92,70.75,403.51,67.82,465.42Z"/>
          </g>
          <g>
            <path class="cls-1" d="M381.96,186.48c.79,20.98,12.66,31.39,18.85,35.43l-4.37-50.61c-4.68.72-14.92,3.63-14.48,15.18Z"/>
            <path d="M379.6,186.56c1.11,29.82,23.97,39.55,23.97,39.55l-4.97-57.42s-19.68.75-19,17.87ZM384.33,186.39c-.3-8,5.6-11.09,9.98-12.26l3.68,42.67c-5.83-5.1-13.05-14.59-13.66-30.41Z"/>
          </g>
          <g>
            <path class="cls-1" d="M530.09,277.73l-80.3,10.12c.21,5.44.21,20.18-3.53,37.41,7.24,2.37,32.68,10.26,51.43,10.26,1.96,0,3.83-.08,5.61-.27,10.87-1.16,20.73-5.74,30.07-14.04-.76-5.81-3.79-30.18-3.29-43.47Z"/>
            <path class="cls-6" d="M531.62,277.8c0-.45-.17-.9-.5-1.19-.32-.31-.79-.43-1.23-.4l-80.28,10.12c-.78.11-1.37.78-1.34,1.57.15,4.21.33,19.29-3.53,37.03-.17.78.27,1.55,1.02,1.79,7.41,2.43,33.06,10.33,51.94,10.33,1.99,0,3.94-.11,5.78-.28,11.22-1.19,21.32-5.89,30.9-14.43.4-.33.58-.83.5-1.35-.64-4.88-3.76-29.91-3.25-43.2ZM531.73,320.58c-8.9,7.74-18.24,12.03-28.58,13.12-17.54,1.7-45.52-6.42-55.12-9.48,3.33-15.89,3.44-29.53,3.35-35.01l77.12-9.73c-.18,12.93,2.28,33.67,3.22,41.1Z"/>
          </g>
          <g>
            <path class="cls-1" d="M562.08,204.03c-1.78-24.5-8.88-70.44-13.56-92.11-6.95-32.03-28.2-38.75-44.83-38.75-7.86,0-13.66,1.58-13.7,1.6l-.62.17-.62-.15c-7.7-1.97-15.39-2.98-22.86-2.98-38.89,0-63.6,26.74-65.37,40.45-2.3,17.24-1.86,68.77,2.56,91.14.94,4.75,1.73,10.09,2.57,15.86,3.47,23.84,7.82,53.49,27.47,71.11,4.76,4.27,11.91,4.55,19.47,4.83,10.66.37,22.72.82,28.5,13.76,33.58-1.85,57.09-11.85,73.99-31.41,12.15-14.08,9.75-41.63,7.85-63.77-.32-3.41-.59-6.67-.82-9.75Z"/>
            <path d="M550.85,111.42c-7.5-34.61-31.47-40.61-47.16-40.61-8.35,0-14.36,1.71-14.36,1.71-8.26-2.11-16.08-3.06-23.45-3.06-39.88,0-65.76,27.34-67.75,42.51-2.36,17.98-1.83,69.47,2.63,91.89,4.79,24.28,5.6,65.71,30.77,88.28,12.94,11.63,39.59-3.07,47.97,19.25,30.52-1.43,57.52-9.32,77.36-32.3,14.74-17.05,9.32-51.55,7.62-75.23-1.72-23.69-8.69-69.62-13.63-92.44ZM553.25,276.03c-16.17,18.73-38.71,28.46-70.72,30.48-6.6-12.81-19.44-13.29-29.88-13.66-7.12-.27-13.85-.52-17.98-4.22-19-17.05-23.27-46.26-26.71-69.71-.8-5.74-1.63-11.16-2.57-15.97-4.4-22.15-4.79-73.28-2.54-90.4,1.69-13.03,25.49-38.39,63.02-38.39,7.27,0,14.75.95,22.26,2.9l1.25.29,1.22-.33c.08-.01,5.58-1.5,13.08-1.5,15.76,0,35.92,6.39,42.51,36.88,4.68,21.65,11.77,67.4,13.55,91.8.21,3.08.49,6.36.79,9.76,1.89,21.7,4.24,48.74-7.28,62.07Z"/>
          </g>
          <path class="cls-6" d="M563.35,192.68c-7.39,4.61-16.52,7.4-27.5,7.4-13.53,0-21.22-5.7-31.65-7.33-13.9-2.14-27.36,1.4-36.39,7.83-11.44,8.15-21.83,16.29-40.21,16.29-10.1,0-18.64-2.4-25.7-6.34,3.95,24.63,6.65,60.99,29.63,81.61,12.94,11.63,39.59-3.07,47.97,19.25,30.52-1.43,57.52-9.32,77.38-32.3,14.72-17.05,9.31-51.55,7.6-75.23-.23-3.06-.62-6.88-1.13-11.18ZM521.51,226.7c-6.93,4.3-14.2,8.05-22.02,10.49-7.7,2.44-16,3.32-24.03,3.13-6.01-.15-10.43-4.74-10.72-10.59-.24-5.63,5.11-10.74,10.72-10.6,1.93.05,3.86.05,5.83-.05.85-.03,1.72-.08,2.58-.18.21-.01.82-.08,1.29-.11.56-.09,1.26-.21,1.51-.24.81-.18,1.61-.33,2.42-.5,1.6-.36,3.16-.77,4.71-1.28,1.54-.48,3.03-1.1,4.5-1.63.24-.11.49-.21.73-.31.73-.34,1.51-.72,2.3-1.1,3.21-1.6,6.3-3.4,9.35-5.31,5.08-3.14,11.59-.88,14.65,3.81,3.21,4.9.9,11.55-3.82,14.48Z"/>
          <path class="cls-6" d="M512.32,209.01c-14.02,16-33.7,16.94-33.91,16.94-1.2.05-2.19,1.07-2.13,2.28.06,1.19,1.06,2.11,2.25,2.11h.06c.88-.04,21.83-1.03,37.11-18.45.8-.91.68-2.33-.23-3.1-.93-.8-2.33-.69-3.15.22Z"/>
          <g>
            <path class="cls-6" d="M459.64,136.46l-51.02,5.93c-2.61.31-4.97,1.71-6.46,3.82-1.51,2.14-2.01,4.81-1.4,7.35l2.95,12.11c2.08,8.53,9.72,14.46,18.55,14.46.76,0,1.52-.03,2.25-.12l28.47-3.31c9.58-1.14,16.82-9.17,16.87-18.74l.05-12.43c0-2.45-.94-4.74-2.69-6.46-1.98-1.98-4.68-2.97-7.56-2.61ZM465.39,157.97c0,7.32-5.58,13.51-12.93,14.37l-28.49,3.31c-7.4.88-14.22-3.91-15.94-11.01l-2.98-12.11c-.33-1.32-.04-2.67.73-3.79.79-1.13,1.98-1.83,3.33-1.98l51.04-5.95c.18-.02.36-.02.56-.02,1.25,0,2.43.49,3.35,1.38.9.9,1.42,2.08,1.42,3.36l-.09,12.43Z"/>
            <path class="cls-6" d="M540.41,127.05l-51.01,5.95c-2.61.29-4.96,1.69-6.48,3.82-1.51,2.14-1.98,4.83-1.4,7.35l2.96,12.08c2.08,8.53,9.7,14.48,18.55,14.48.74,0,1.52-.05,2.25-.14l28.44-3.31c9.61-1.1,16.85-9.16,16.9-18.72l.05-12.45c0-2.43-.94-4.74-2.68-6.45-2.01-2-4.76-2.96-7.59-2.62ZM546.19,148.56c-.02,7.36-5.6,13.53-12.96,14.37l-28.47,3.33c-7.44.87-14.23-3.95-15.94-11.02l-2.96-12.12c-.33-1.31-.09-2.67.71-3.77.77-1.14,1.99-1.82,3.35-1.98l50.99-5.93c.2-.05.38-.05.58-.05,1.26,0,2.43.49,3.36,1.39.9.9,1.37,2.07,1.37,3.35l-.03,12.43Z"/>
            <path class="cls-6" d="M466.03,144.02c-.81.9-.78,2.28.1,3.11.43.4.99.58,1.55.58s1.16-.22,1.58-.67c.27-.27,6.28-6.41,13.14-1.58,1.02.68,2.39.46,3.1-.52.71-1,.47-2.36-.52-3.09-8.09-5.62-15.92-1.03-18.96,2.17Z"/>
          </g>
          <path class="cls-6" d="M526.91,113.13c-22.02-7.28-34.66-2.73-35.18-2.53-1.16.43-1.72,1.69-1.28,2.81.38,1.14,1.67,1.73,2.83,1.29.11-.04,11.83-4.14,32.23,2.6.24.07.47.11.68.11.93,0,1.81-.57,2.1-1.48.41-1.17-.21-2.42-1.39-2.79Z"/>
          <path class="cls-6" d="M452.57,105.73c-.58-.08-13.9-1.65-33.69,10.33-1.03.65-1.38,2-.74,3.03.41.68,1.14,1.03,1.89,1.03.41,0,.8-.08,1.17-.29,18.33-11.12,30.67-9.78,30.8-9.74,1.14.14,2.31-.69,2.46-1.92.17-1.19-.68-2.29-1.89-2.45Z"/>
          <path class="cls-6" d="M438.74,152.67c-2.86,0-5.2,2.3-5.2,5.14s2.34,5.14,5.2,5.14,5.17-2.3,5.17-5.14-2.31-5.14-5.17-5.14Z"/>
          <path class="cls-6" d="M515.53,143.8c-2.86,0-5.17,2.31-5.17,5.14s2.31,5.13,5.17,5.13,5.21-2.29,5.21-5.13-2.34-5.14-5.21-5.14Z"/>
          <path class="cls-3" d="M419.9,333.34s-47.62,11.09-88.71,29.88c-41.09,18.79-71.21,50.65-58.83,101.85,12.67,52.37,62.08,110.09,64.28,211.78,2.21,101.68-3.32,186.61-3.32,186.61h149.36s1.68-150.65-17.96-305.62c-4.38-34.46-44.83-224.51-44.83-224.51Z"/>
          <g>
            <path class="cls-1" d="M748.58,659.57c-.44-.02-.88-.02-1.32-.02-27.51,0-59.02,25.41-65.5,46.2-2.57,8.17,1.95,21.96,11.76,35.96,10.52,14.99,27.72,30.51,42.44,31.34,1.19.08,2.33.11,3.47.11,16.38,0,29.17-6.91,32.06-13.6,1.03-2.4.68-4.41-1.06-6.22-.76-.79-3.5-2.59-12.91-2.59-6.84,0-13.53.98-13.58.98l-.8-4.64c.12-.02,12.46-2.38,35.07-11.32,19.15-7.59,17.17-24.74,16.58-28.24l-46.19-47.96Z"/>
            <path class="cls-6" d="M795.88,706.47l-46.2-47.96c-.59-.62-1.55-.49-2.42-.49-28.14,0-60.35,26-66.98,47.29-2.69,8.6,1.89,22.9,11.98,37.28,10.72,15.31,28.36,31.15,43.6,32,1.23.07,2.4.11,3.56.11,17.69,0,30.45-7.48,33.47-14.52,1.28-2.98.81-5.66-1.39-7.89-1.31-1.4-4.81-3.07-14.01-3.07-5,0-9.84.5-12.33.81l-.29-1.74c3.99-.9,15.5-3.83,33.88-11.1,20.18-7.99,18.13-26.33,17.5-29.92-.04-.31-.18-.59-.39-.81ZM777.63,734.33c-22.58,8.94-34.63,11.22-34.7,11.22-.4.05-.79.28-1.03.62-.26.33-.37.76-.27,1.17l.79,4.65c.15.81.93,1.43,1.75,1.25.7-.09,7.01-.97,13.35-.97,9.54,0,11.59,1.89,11.8,2.14,1.34,1.34,1.55,2.71.76,4.53-2.63,6.08-15.09,12.67-30.64,12.67-1.09,0-2.21-.03-3.38-.1-14.2-.8-30.96-15.98-41.26-30.69-9.56-13.63-13.99-26.89-11.54-34.61,6.33-20.3,37.11-45.12,64.01-45.12h.65l45.43,47.15c.73,4.97,1.26,19.36-15.71,26.08Z"/>
          </g>
          <path class="cls-3" d="M766.09,390.63c-120.77-84.11-212.8-67.11-212.8-67.11l152.6,224.28c14.27,12.79,95.36,50.99,95.36,50.99-27.77,21.4-66.22,62.31-66.22,62.31,41.63,29.7,56.62,89.57,56.62,89.57,0,0,150.33-91.11,150.33-163.92s-115.23-153.86-175.9-196.11Z"/>
          <path class="cls-3" d="M553.29,323.51s76.12,143.02,76.12,336.04c0,103.83,46.95,203.91,46.95,203.91h71.39s-13.31-276.79-34.42-411.55l-160.04-128.4Z"/>
          <path class="cls-6" d="M473.66,184.77c-1.08-1.51-.1-4.62.24-5.38l-4.08-1.72c-.26.59-2.43,5.96.26,9.65,1.38,1.97,3.79,2.97,7.03,2.97.48,0,1-.03,1.51-.08l-.35-4.38c-1.64.14-3.77.08-4.61-1.05Z"/>
          <g>
            <g>
              <g>
                <path class="cls-1" d="M230.97,362.75c-32-12.59-39.97-13.74-38.48-30.19,0,0,6.89,4.43,11.97,1.98,0,0,13.98,16.68,19.94,6.71,5.61-9.33-20.2-29.47-20.2-29.47,0,0-3.98-6.44-5.18-7.67-1.22-1.22-7.39-5.38-15.95-6.93-8.59-1.53-23.56-2.9-23.56-2.9,0,0,10.45-3.1,12.44-7.41,2.05-4.32-3.88-9.95-13.4-8.53-9.47,1.43-15.27-2.6-24.91,4.19-9.63,6.8-16.16,15.1-21.88,19.85-5.74,4.75,2.17,25.58,5.41,56.26,3.21,30.68,29.88,17.29,62.08,43.37,32.21,26.12,33.22,113.42,33.22,113.42,0,0,46.35-1.59,61.67-61.84,0,0-16.99-37.05-24.67-53.05-7.7-16.01,13.58-25.23-18.49-37.8Z"/>
                <path d="M250.95,399.85c-2.51-5.28-1.61-9.76-.74-14.09,1.64-8.22,3.19-15.99-18.63-24.56-3.24-1.26-6.24-2.43-9-3.5-22.94-8.84-28.91-11.14-28.58-22.49,2.51,1.14,6.75,2.28,9.96,1.29,2.37,2.64,9.2,9.57,15.32,9.57,1.9,0,4.59-.69,6.55-3.98,6.04-10.03-16.71-28.55-20.36-31.43-.96-1.51-4.08-6.5-5.26-7.7-1.39-1.41-7.94-5.79-16.87-7.4-4.9-.87-11.77-1.69-16.87-2.24,2.89-1.41,5.89-3.38,6.99-5.76.9-1.89.68-4.08-.53-6-2.04-3.13-6.42-5.09-11.44-5.09-1.02,0-2.07.05-3.16.23-2.62.39-5.6.33-8.35.19-5.16-.24-10.08-.81-17.31,4.29-6.19,4.35-11.01,9.22-15.27,13.54-2.4,2.4-4.65,4.68-6.75,6.39-4.29,3.57-2.6,12.57.17,27.5,1.54,8.3,3.47,18.62,4.67,30.19,1.96,18.78,12.33,22.03,26.7,26.55,10.07,3.17,22.61,7.12,36,17.95,31.25,25.32,32.58,111.28,32.58,112.15l.02,1.69,1.7-.05c.49-.02,47.8-2.33,63.25-63.06l.14-.55-.24-.53c-.17-.37-17.07-37.24-24.68-53.08ZM214.09,513.65c-.33-12.9-3.5-88.38-33.78-112.9-13.87-11.25-26.75-15.29-37.12-18.54-14.11-4.45-22.64-7.12-24.39-23.73-1.22-11.72-3.13-22.12-4.68-30.46-2.3-12.31-4.11-22.03-1.29-24.36,2.19-1.82,4.5-4.15,6.95-6.61,4.17-4.21,8.91-8.97,14.84-13.16,4.74-3.35,8.43-3.79,11.72-3.79,1.16,0,2.31.05,3.48.12,2.95.16,6.19.21,8.99-.24,6.01-.87,10.05,1.44,11.3,3.39.44.67.85,1.73.35,2.83-1.25,2.65-7.68,5.41-11.43,6.53l-8.18,2.45,8.53.78c.14.02,15,1.38,23.39,2.9,8.65,1.54,14.37,5.72,15.07,6.45.73.74,3.33,4.75,4.94,7.36l.39.45c9.54,7.44,23.35,21.44,19.8,27.32-.96,1.62-2.13,2.38-3.7,2.38-4.72,0-11.36-6.71-13.54-9.29l-.82-1-1.19.59c-.79.37-1.7.55-2.72.55-3.7,0-7.56-2.43-7.6-2.46l-2.33-1.48-.23,2.72c-1.46,16.01,5.95,18.9,30.51,28.37,2.75,1.07,5.75,2.23,9.02,3.51,19.22,7.53,18.11,13.12,16.56,20.82-.93,4.64-1.98,9.9,1.02,16.15,7.09,14.78,22.31,47.93,24.41,52.51-13.46,52.01-49.87,58.95-58.28,59.87Z"/>
              </g>
              <path d="M160.52,292.38c-4.69.67-16.17,1.6-16.26,1.62l-.94.07-.45.81c-6.59,11.24-13.38,15.71-13.46,15.74l-1.42.95.84,1.45c4.17,7.22,3.1,12.3,3.1,12.35-.24.94.38,1.91,1.34,2.14.33.07.67.05.96-.04.59-.19,1.05-.65,1.19-1.28.06-.24,1.36-5.72-2.69-13.54,2.4-1.89,7.59-6.57,12.76-15.16,2.86-.24,11.51-.98,15.57-1.59.96-.14,1.67-1.03,1.51-2.01-.14-.98-1.05-1.63-2.04-1.5Z"/>
              <path d="M204.63,310.07c-1.37-.35-13.57-3.36-18.72-2.16-5.84,1.35-13.03,11.59-16.07,17.69-3.85,7.74-6.18,17.88-6.27,18.3-.21.98.39,1.93,1.38,2.14.32.07.64.05.93-.05.59-.17,1.09-.65,1.2-1.29.05-.11,2.31-10.15,5.99-17.5,3.42-6.9,9.81-15,13.67-15.79,3.64-.86,13.51,1.25,17,2.12.96.24,1.96-.34,2.21-1.29.23-.97-.33-1.91-1.32-2.15Z"/>
              <path d="M152.16,293.69c-14.16,13.6-22.28,38.95-22.61,40.03-.3.93.21,1.95,1.19,2.22.37.12.71.11,1.08,0,.58-.17.99-.58,1.17-1.17.09-.24,8.21-25.57,21.67-38.51.71-.69.73-1.83.06-2.53-.71-.71-1.87-.71-2.55-.04Z"/>
              <path d="M163.43,304.84c-10.84,8.12-20.76,29.69-21.17,30.61-.39.88,0,1.95.91,2.34.41.21.88.21,1.29.09.47-.16.88-.5,1.09-.98.09-.23,9.95-21.64,20.06-29.22,8-5.96,28.03.41,35.08,3.38.91.39,1.96-.03,2.34-.93.42-.91,0-1.95-.91-2.34-1.13-.47-27.38-11.47-38.71-2.95Z"/>
            </g>
            <path class="cls-3" d="M285.35,417.12l-115.71,43.32s1.29,202.04,92.66,268.59c57.79,42.12,122-2.21,98.58-134.4-9.29-52.41-75.54-177.51-75.54-177.51Z"/>
          </g>
          <g>
            <path class="cls-1" d="M419.9,333.34s23.42,28.32,61.9,42.68c0-19.2,12.73-36.3,22.25-40.87-25.78-1.32-45.67-10.27-56.48-16.74,0,0-14.45,2.27-27.66,14.93Z"/>
            <path class="cls-6" d="M448.36,317.08c-.3-.17-.68-.26-1.03-.19-.62.09-15.06,2.49-28.5,15.35-.58.56-.62,1.47-.11,2.09.23.29,24.14,28.8,62.55,43.15.18.07.37.08.53.08.32,0,.62-.08.88-.27.41-.27.65-.76.65-1.26,0-18.82,12.64-35.3,21.37-39.49.64-.31.99-1,.84-1.69-.14-.69-.71-1.19-1.43-1.22-26.83-1.38-46.45-10.95-55.75-16.54ZM480.32,373.81c-32.26-12.62-53.65-35.15-58.31-40.35,11.01-10.01,22.67-12.9,25.26-13.43,9.17,5.41,27.36,14.16,51.95,16.33-8.58,6.56-18.11,20.83-18.9,37.46Z"/>
          </g>
          <g>
            <path class="cls-1" d="M532.52,314.33c-2.51,3-18.29,16.19-28.47,20.82,11.41,1.79,31.28,14.59,39.42,33.1,1.57-7.5,13.48-29.72,9.82-44.73-3.09-3.35-12.91-8.93-20.78-9.19Z"/>
            <path class="cls-6" d="M554.42,322.48c-3.47-3.77-13.73-9.43-21.87-9.69-.44.07-.91.19-1.2.55-2.46,2.92-17.92,15.85-27.94,20.42-.62.27-.99.93-.88,1.61.09.67.59,1.2,1.28,1.31,10.6,1.65,30.29,14.08,38.25,32.18.26.57.8.94,1.41.94.03,0,.11-.02.15-.02.65-.07,1.2-.55,1.34-1.21.41-1.89,1.6-5,2.95-8.6,3.85-10.11,9.66-25.38,6.86-36.81-.04-.24-.17-.48-.35-.67ZM545.04,358.87c-.75,1.93-1.39,3.65-1.92,5.17-8.23-15.31-23.74-25.96-34.72-29.41,9.52-5.38,21.48-15.31,24.76-18.72,6.95.5,15.54,5.17,18.74,8.37,2.33,10.48-3.19,24.98-6.86,34.6Z"/>
          </g>
        </g>
        <path class="cls-1" d="M809.28,660.25c.17-.73.21-1.45.11-2.12-.04.71-.07,1.43-.11,2.12Z"/>
        <path d="M809.28,660.25c.17-.73.21-1.45.11-2.12-.04.71-.07,1.43-.11,2.12Z"/>
      </g>
      <path class="cls-6" d="M358.76,702.58l-3.68-.88c31.78-133.53-70.25-282.01-71.28-283.49l3.1-2.17c1.05,1.5,104.06,151.35,71.86,286.55Z"/>
    </g>
  </g>
</svg>