<?xml version="1.0" encoding="UTF-8"?>
<svg id="Capa_2" data-name="Capa 2" xmlns="http://www.w3.org/2000/svg" viewBox="0 0 273.09 227.45">
  <defs>
    <style>
      .cls-1 {
        fill: #fff;
      }

      .cls-2 {
        fill: #6cf;
      }

      .cls-3 {
        fill: #080717;
      }
    </style>
  </defs>
  <g id="_Layer_" data-name="&amp;lt;Layer&amp;gt;">
    <g>
      <g>
        <polygon class="cls-1" points="139.65 68.08 151 42.2 237.02 142.33 191.51 164.07 139.65 68.08"/>
        <path class="cls-3" d="M151.28,44.06l84.14,97.93-43.48,20.76-51.17-94.72,10.51-23.98h0ZM150.72,40.34l-12.18,27.79,52.54,97.25,47.55-22.71-87.91-102.33h0Z"/>
      </g>
      <polygon class="cls-2" points="188.69 84.54 159.23 106.42 191.08 165.38 238.63 142.67 188.69 84.54"/>
      <path class="cls-3" d="M233.17,35.81h0c-22.75-2.25-43,14.37-45.25,37.12l-4.88,49.44c-.73,7.44.56,14.6,3.41,20.96,11.13,8.01,24.77,12.74,39.52,12.74,12.53,0,24.25-3.41,34.32-9.34,2.73-4.85,4.53-10.33,5.12-16.23l4.88-49.44c2.25-22.75-14.37-43.01-37.12-45.25Z"/>
      <g>
        <path class="cls-2" d="M18.27,6.67h50.43c6.4,0,11.6,5.2,11.6,11.6v50.43c0,6.4-5.2,11.6-11.6,11.6H18.27c-6.4,0-11.6-5.2-11.6-11.6V18.27c0-6.4,5.2-11.6,11.6-11.6Z" transform="translate(-11.5 15.95) rotate(-18.4)"/>
        <circle class="cls-1" cx="28.09" cy="34.21" r="10.62" transform="translate(-15.07 44.01) rotate(-63.4)"/>
        <path class="cls-3" d="M16.51,79.03l-3.61-10.86,3.26-6.51c2.41-4.81,8.27-6.76,13.08-4.35h0c4.56,2.28,10.1.44,12.38-4.12l12.8-25.57c3.04-6.07,10.42-8.53,16.49-5.49l5.1,2.56,10.35,31.1c2.02,6.08-1.27,12.64-7.34,14.66l-47.85,15.92c-6.08,2.02-12.64-1.27-14.66-7.34Z"/>
      </g>
      <g>
        <g>
          <path class="cls-1" d="M84.78,22.64h50.43c6.4,0,11.6,5.2,11.6,11.6v50.43c0,6.4-5.2,11.6-11.6,11.6h-50.43c-6.4,0-11.6-5.2-11.6-11.6v-50.43c0-6.4,5.2-11.6,11.6-11.6Z" transform="translate(15.97 -22.97) rotate(12.85)"/>
          <path class="cls-3" d="M128.97,102.23c-.92,0-1.86-.1-2.8-.32h0l-49.16-11.21c-3.28-.75-6.07-2.73-7.86-5.58-1.79-2.85-2.36-6.22-1.62-9.5l11.21-49.16c.75-3.28,2.73-6.07,5.58-7.86,2.85-1.79,6.22-2.36,9.5-1.62l49.16,11.21c3.28.75,6.07,2.73,7.86,5.58,1.79,2.85,2.36,6.22,1.62,9.5l-11.21,49.16c-1.33,5.83-6.53,9.8-12.28,9.8ZM126.61,99.96c2.76.63,5.6.15,7.99-1.36,2.4-1.51,4.06-3.85,4.69-6.61l11.21-49.16c.63-2.76.15-5.6-1.36-7.99-1.51-2.4-3.85-4.06-6.61-4.69l-49.16-11.21c-2.76-.63-5.6-.15-7.99,1.36-2.4,1.51-4.06,3.85-4.69,6.61l-11.21,49.16c-.63,2.76-.15,5.6,1.36,7.99,1.51,2.4,3.85,4.06,6.61,4.69l49.16,11.21Z"/>
        </g>
        <g>
          <path class="cls-1" d="M111.99,45.89c-1.3,5.72-6.99,9.29-12.71,7.99-5.72-1.3-9.29-6.99-7.99-12.71,1.3-5.72,7-9.29,12.71-7.99,5.72,1.3,9.29,7,7.99,12.71Z"/>
          <path class="cls-3" d="M101.64,55.15c-.85,0-1.72-.09-2.58-.29-3.03-.69-5.6-2.52-7.25-5.14-1.65-2.63-2.18-5.74-1.49-8.77.69-3.03,2.52-5.6,5.14-7.25,2.63-1.65,5.74-2.18,8.77-1.49,6.25,1.42,10.17,7.66,8.74,13.91-1.23,5.38-6.03,9.04-11.33,9.04ZM101.62,33.91c-1.79,0-3.55.5-5.1,1.48-2.17,1.37-3.69,3.5-4.26,6-.57,2.5-.13,5.08,1.23,7.26,1.37,2.17,3.5,3.69,6,4.26,2.51.57,5.08.13,7.26-1.23,2.17-1.37,3.69-3.5,4.26-6,.57-2.5.13-5.08-1.23-7.26-1.37-2.17-3.5-3.69-6-4.26-.72-.16-1.44-.24-2.16-.24Z"/>
        </g>
        <g>
          <path class="cls-1" d="M68.5,75.84l2.54-11.16,6.16-3.87c4.56-2.86,10.57-1.49,13.44,3.06h0c2.71,4.31,8.41,5.61,12.72,2.9l24.21-15.22c5.75-3.61,13.33-1.88,16.95,3.86l3.04,4.83-7.29,31.95c-1.42,6.24-7.64,10.15-13.88,8.73l-49.16-11.21c-6.24-1.42-10.15-7.64-8.73-13.88Z"/>
          <path class="cls-3" d="M128.99,102.23c-.94,0-1.89-.11-2.82-.32l-49.16-11.21c-3.28-.75-6.07-2.73-7.86-5.58-1.79-2.85-2.36-6.22-1.62-9.5h0l2.55-11.16c.06-.26.22-.48.44-.62l6.16-3.88c5.02-3.15,11.66-1.64,14.82,3.38,2.41,3.84,7.5,5,11.34,2.59l24.21-15.22c3.01-1.89,6.57-2.49,10.03-1.71,3.46.79,6.41,2.88,8.3,5.89l3.04,4.83c.14.22.19.5.13.75l-7.29,31.95c-.75,3.28-2.73,6.07-5.58,7.86-2.03,1.28-4.34,1.94-6.68,1.94ZM69.47,76.06h0c-.63,2.76-.15,5.6,1.36,7.99,1.51,2.4,3.85,4.06,6.61,4.69l49.16,11.21c2.76.63,5.6.15,7.99-1.36,2.4-1.51,4.06-3.85,4.69-6.61l7.2-31.55-2.82-4.48c-1.61-2.55-4.11-4.33-7.05-5-2.94-.67-5.97-.16-8.52,1.45l-24.21,15.22c-2.31,1.45-5.05,1.92-7.72,1.31-2.66-.61-4.93-2.22-6.38-4.53-2.57-4.08-7.98-5.32-12.06-2.75l-5.81,3.65-2.45,10.76Z"/>
        </g>
      </g>
      <g>
        <g>
          <path class="cls-1" d="M122.89,18.07l2.55,5.13,1.76-5c.68-1.93.64-4.04-.11-5.95h0c-.67-1.7-1.67-2.24-4.22-2.45l-13.25-.61.76,2.66c.54,1.9,2.04,3.37,3.94,3.89l8.57,2.34Z"/>
          <path class="cls-3" d="M125.43,24.2c-.38,0-.73-.21-.9-.56l-2.35-4.72-8.13-2.22c-2.22-.61-4-2.36-4.64-4.58l-.76-2.66c-.09-.31-.02-.64.18-.9.2-.25.51-.39.83-.38l13.25.61c2.62.21,4.19.77,5.1,3.08.84,2.13.88,4.49.12,6.65l-1.76,5c-.13.38-.48.64-.88.67-.02,0-.04,0-.06,0ZM110.96,10.25l.38,1.32c.44,1.55,1.69,2.77,3.24,3.2l8.57,2.33c.28.08.51.26.63.52l1.5,3.01.98-2.77c.6-1.7.57-3.57-.1-5.25-.44-1.11-.89-1.62-3.37-1.82l-11.83-.54Z"/>
        </g>
        <g>
          <path class="cls-1" d="M130.59,22.82l6,3.92-1.27-6.51c-.49-2.52-1.87-4.77-3.89-6.35h0c-1.8-1.41-4.33-1.39-6.11.03l-15.43,11.99,3.82,2.78c1.98,1.44,4.62,1.58,6.74.37l10.14-6.23Z"/>
          <path class="cls-3" d="M117.35,30.87c-1.5,0-2.98-.46-4.23-1.38l-3.82-2.78c-.25-.18-.41-.48-.41-.79,0-.31.14-.61.39-.81l15.43-11.99c2.14-1.71,5.16-1.73,7.34-.03,2.21,1.73,3.72,4.19,4.26,6.95l1.27,6.51c.08.39-.09.8-.42,1.02-.33.22-.77.23-1.1,0l-5.47-3.57-9.6,5.89c-1.13.65-2.38.97-3.62.97ZM111.55,25.88l2.75,2c1.66,1.21,3.88,1.33,5.65.31l10.12-6.21c.33-.2.75-.2,1.07.01l4.02,2.62-.82-4.19c-.44-2.28-1.7-4.32-3.53-5.75-1.44-1.12-3.44-1.11-4.87.03l-14.39,11.19Z"/>
        </g>
        <g>
          <path class="cls-1" d="M138.48,27.98l6,3.92-1.27-6.51c-.49-2.52-1.87-4.77-3.89-6.35h0c-1.8-1.41-4.32-1.39-6.11.03l-14.06,11.01,3.82,2.78c1.98,1.44,4.62,1.58,6.74.37l8.77-5.24Z"/>
          <path class="cls-3" d="M126.63,35.04c-1.5,0-2.98-.46-4.24-1.38l-3.82-2.78c-.25-.18-.41-.48-.41-.79,0-.31.14-.61.38-.8l14.06-11.01c2.15-1.72,5.17-1.73,7.34-.04,2.21,1.73,3.72,4.19,4.26,6.95l1.27,6.51c.08.39-.09.8-.42,1.02-.33.22-.77.23-1.1,0l-5.48-3.57-8.23,4.92c-1.12.64-2.36.96-3.6.96ZM120.82,30.04l2.75,2c1.66,1.21,3.88,1.33,5.65.31l8.75-5.23c.33-.2.74-.19,1.06.02l4.02,2.62-.82-4.19c-.44-2.28-1.7-4.32-3.53-5.75-1.44-1.12-3.44-1.11-4.87.03l-13.03,10.2Z"/>
        </g>
        <g>
          <path class="cls-1" d="M145.99,32.87l6,3.92-1.27-6.51c-.49-2.52-1.87-4.77-3.89-6.35h0c-1.8-1.41-4.33-1.39-6.11.03l-12.06,9.65,3.82,2.78c1.98,1.44,4.62,1.58,6.74.37l6.77-3.88Z"/>
          <path class="cls-3" d="M136.14,38.57c-1.5,0-2.99-.46-4.24-1.38l-3.82-2.78c-.25-.18-.4-.47-.41-.79,0-.31.13-.61.38-.8l12.06-9.65c2.15-1.72,5.17-1.74,7.35-.04,2.21,1.73,3.72,4.19,4.26,6.95l1.27,6.51c.08.39-.09.8-.42,1.02-.33.22-.77.23-1.1,0l-5.49-3.58-6.23,3.58c-1.11.64-2.35.95-3.58.95ZM130.31,33.57l2.76,2.01c1.66,1.21,3.88,1.33,5.65.31l6.77-3.88c.33-.19.73-.18,1.04.03l4.02,2.62-.82-4.19c-.44-2.28-1.7-4.32-3.53-5.75-1.44-1.12-3.44-1.11-4.87.03l-11.04,8.83Z"/>
        </g>
      </g>
      <g>
        <path class="cls-1" d="M98.36,81.45l-9.44,9.9-8.97,6.03c-2.94,1.97-4.92,5.08-5.47,8.58l-.03.18-.54.5c-3.18,2.93-4.65,7.26-3.91,11.52l1.49,8.59-8.33-5.28.25-11.58c-.14-2.29-1.54-4.32-3.63-5.26l-1.74-.78c-1.48-.66-3.17.38-3.23,2.01l-.65,18.05c-.1,2.78,1.26,5.41,3.58,6.93l12.69,8.33c3.38,7.31,9.03,13.33,16.11,17.16l11.89,6.43,36.78,46.16,22.95-29.93-41.74-44.03,3.65-3.79c3.39-3.52,4.71-8.56,3.47-13.3l-4.83-18.46c-.47-1.81-2.47-2.75-4.17-1.97l-1.39.64c-2.97,1.37-4.7,4.52-4.27,7.76l1.17,8.81c.37,2.76-.75,5.5-2.95,7.22l-.03.03-13.63-19.03,8.06-12.5c1.33-2.06,1.71-4.58,1.06-6.94l-.27-.98c-.48-1.75-2.7-2.31-3.95-.99Z"/>
        <path class="cls-3" d="M135.23,209.92c-.3,0-.59-.14-.78-.38l-36.65-46-11.71-6.33c-7.14-3.86-12.96-10.02-16.42-17.36l-12.46-8.18c-2.6-1.71-4.14-4.7-4.03-7.8l.65-18.05c.04-1.1.62-2.1,1.55-2.67.93-.58,2.08-.66,3.08-.21l1.75.78c2.45,1.1,4.06,3.44,4.22,6.12l-.24,11.09,5.94,3.77-1.1-6.37c-.8-4.61.78-9.26,4.22-12.43l.28-.26c.62-3.69,2.76-7,5.87-9.09l8.88-5.97,9.36-9.82h0c.84-.88,2.05-1.23,3.23-.93,1.18.3,2.08,1.18,2.41,2.35l.27.98c.72,2.63.29,5.45-1.19,7.75l-7.69,11.93,12.58,17.56c1.42-1.5,2.1-3.57,1.83-5.62l-1.17-8.81c-.49-3.7,1.45-7.24,4.84-8.8l1.39-.64c1.08-.5,2.32-.49,3.39.02,1.08.51,1.87,1.46,2.17,2.61l4.83,18.46c1.32,5.04-.11,10.49-3.72,14.24l-2.99,3.11,41.08,43.34c.34.36.37.91.07,1.3l-22.95,29.93c-.19.24-.48.39-.78.39h0ZM57.11,104.64c-.23,0-.47.07-.68.2-.37.23-.59.61-.61,1.05l-.65,18.05c-.09,2.41,1.11,4.73,3.13,6.06l12.69,8.33c.16.1.28.25.36.42,3.26,7.07,8.83,13,15.68,16.7l11.89,6.43c.12.06.22.15.31.26l35.98,45.16,21.65-28.24-41.15-43.41c-.37-.39-.37-1,0-1.38l3.65-3.79c3.13-3.25,4.37-7.98,3.22-12.35l-4.83-18.46c-.15-.58-.55-1.05-1.09-1.31-.54-.25-1.16-.26-1.7,0l-1.39.64c-2.59,1.19-4.07,3.89-3.7,6.72l1.17,8.81c.41,3.1-.86,6.21-3.32,8.14-.21.17-.51.25-.78.22-.27-.04-.53-.17-.69-.39l-13.63-19.03c-.24-.33-.25-.78-.03-1.12l8.06-12.5c1.17-1.81,1.51-4.05.94-6.13l-.27-.98c-.13-.47-.49-.82-.97-.94-.47-.12-.96.02-1.3.38l-9.44,9.9c-.05.05-.11.1-.17.14l-8.97,6.03c-2.7,1.81-4.53,4.69-5.04,7.9l-.03.18c-.03.22-.14.43-.31.58l-.54.5c-2.94,2.71-4.29,6.68-3.61,10.61l1.49,8.59c.07.39-.1.78-.43,1-.33.22-.76.22-1.09.01l-8.33-5.28c-.3-.19-.47-.52-.46-.87l.25-11.58c-.11-1.85-1.28-3.54-3.04-4.33l-1.75-.78c-.17-.08-.35-.12-.53-.12ZM88.92,91.35h0,0Z"/>
      </g>
      <path class="cls-3" d="M86.46,119.35c-.41,0-.79-.25-.94-.66l-4.71-13c-.94-2.61-.44-5.55,1.33-7.69l6.02-7.29c.35-.43.98-.49,1.41-.14.43.35.49.98.14,1.41l-6.02,7.29c-1.32,1.6-1.7,3.79-.99,5.74l4.71,13c.19.52-.08,1.09-.6,1.28-.11.04-.23.06-.34.06Z"/>
      <path class="cls-3" d="M79.9,124.02c-.41,0-.79-.25-.94-.66l-5.97-16.38c-.19-.52.08-1.09.6-1.28.52-.19,1.09.08,1.28.6l5.97,16.38c.19.52-.08,1.09-.6,1.28-.11.04-.23.06-.34.06Z"/>
      <path class="cls-3" d="M72.91,130.56c-.37,0-.72-.2-.89-.55l-1.41-2.81c-.25-.49-.05-1.09.44-1.34.49-.25,1.09-.05,1.34.44l1.41,2.81c.25.49.05,1.09-.44,1.34-.14.07-.3.11-.45.11Z"/>
      <path class="cls-1" d="M84.08,170.46l19.56-87.53,7.59-12.71,1.46,14.74-19.56,87.53h0c-3.12,1.46-6.84.63-9.05-2.02h0Z"/>
      <path class="cls-3" d="M84.08,170.46l19.56-87.53,9.05,2.02-19.56,87.53h0c-3.12,1.46-6.84.63-9.05-2.02h0Z"/>
      <path class="cls-3" d="M89.92,174.2c-2.49,0-4.94-1.09-6.61-3.1-.2-.24-.27-.55-.21-.86l19.56-87.53c.02-.1.06-.2.12-.29l7.59-12.71c.22-.37.65-.56,1.08-.46.42.09.73.45.78.88l1.46,14.74c.01.11,0,.21-.02.32l-19.56,87.53c-.07.3-.27.56-.55.69-1.17.55-2.41.81-3.63.81ZM85.17,170.18c1.83,1.9,4.63,2.53,7.1,1.59l19.41-86.87-1.14-11.56-5.95,9.97-19.41,86.87Z"/>
      <g>
        <g>
          <path class="cls-1" d="M193.34,109.57h0c-11.76-8.64-14.28-25.17-5.64-36.93l11.68-15.89c8.64-11.76,25.17-14.28,36.93-5.64h0c11.76,8.64,14.28,25.17,5.64,36.93l-11.68,15.89c-8.64,11.76-25.17,14.28-36.93,5.64Z"/>
          <path class="cls-3" d="M208.95,115.69c-5.64,0-11.32-1.73-16.2-5.31h0c-5.9-4.34-9.76-10.71-10.87-17.95-1.11-7.24.67-14.48,5.01-20.38l11.68-15.89c4.34-5.9,10.71-9.76,17.95-10.87,7.24-1.11,14.48.67,20.38,5.01,12.18,8.95,14.81,26.15,5.86,38.33l-11.68,15.89c-5.37,7.3-13.69,11.17-22.13,11.17ZM220.71,46.97c-1.29,0-2.59.1-3.89.3-6.71,1.03-12.62,4.6-16.64,10.07l-11.68,15.89c-4.02,5.47-5.67,12.18-4.64,18.89,1.03,6.71,4.6,12.62,10.07,16.64h0c11.29,8.3,27.23,5.86,35.53-5.43l11.68-15.89c8.3-11.29,5.86-27.23-5.43-35.53-4.41-3.24-9.63-4.94-15-4.94Z"/>
        </g>
        <path class="cls-3" d="M268.6,98.07l1.68-17.01c2.14-21.66-12.84-41.06-33.92-44.8-3.7,1.73-7.05,4.34-9.72,7.79h0c-8.91,11.55-6.76,28.14,4.79,37.05l15.62,12.04c6.37,4.91,14.26,6.45,21.55,4.93Z"/>
        <path class="cls-1" d="M230.47,105.69l15.69-3.11c5.85-1.16,9.64-6.84,8.48-12.68h0c-1.16-5.85-6.84-9.64-12.68-8.48l-15.69,3.11c-5.84,1.16-9.64,6.84-8.48,12.68h0c1.16,5.85,6.84,9.64,12.68,8.48Z"/>
        <path class="cls-1" d="M212.07,89.26h31.69v48.3c0,5.58-4.53,10.11-10.11,10.11h-12.54c-4.98,0-9.03-4.05-9.03-9.03v-49.39h0Z" transform="translate(35.71 -51.93) rotate(14.09)"/>
        <path class="cls-3" d="M240.87,43.95c-.3,0-.6-.14-.8-.4-.33-.44-.24-1.07.2-1.4,3.91-2.93,2.97-8.64,2.96-8.7-.09-.54.27-1.06.81-1.16.55-.09,1.06.27,1.16.81.05.28,1.17,6.97-3.73,10.65-.18.14-.39.2-.6.2Z"/>
        <path class="cls-3" d="M241.5,44.44c-.06,0-.13,0-.2-.02-.54-.11-.89-.64-.78-1.18,1.2-6,7.72-7.88,8-7.96.53-.15,1.08.16,1.23.7.15.53-.16,1.08-.69,1.23h0c-.06.02-5.61,1.64-6.58,6.42-.1.48-.51.8-.98.8Z"/>
        <path class="cls-3" d="M211.47,115.74c-.49,0-.92-.36-.99-.86-.08-.55.31-1.05.85-1.13,5.66-.79,12.85-6.35,12.92-6.4.44-.34,1.06-.26,1.4.17.34.44.26,1.06-.17,1.4-.31.24-7.68,5.94-13.87,6.81-.05,0-.09,0-.14,0Z"/>
        <path class="cls-3" d="M195.47,77.81c-.4,0-.78-.25-.94-.65-.19-.52.07-1.09.58-1.29.33-.13,8.16-3.16,7.18-9.71-.76-5.06-3.53-7.84-8.23-8.28-.55-.05-.95-.54-.9-1.09.05-.55.53-.96,1.09-.9,3.94.37,8.89,2.4,10.02,9.98.98,6.52-5.1,10.62-8.45,11.87-.12.04-.23.06-.35.06Z"/>
        <path class="cls-3" d="M224.97,80.53c-.07,0-.14,0-.21-.02-.54-.11-.89-.64-.77-1.18.31-1.48.39-2.84.24-4.07-.41-3.3-2.52-5.68-6.27-7.08-2.94-1.1-5.81-1.16-5.84-1.16-.55,0-.99-.46-.98-1.01,0-.55.5-.96,1.01-.99.13,0,12.85.29,14.07,9.99.18,1.44.09,3.03-.26,4.73-.1.47-.51.79-.98.79Z"/>
        <path class="cls-3" d="M203.38,95.39c-3.15,0-5.41-1.34-5.45-1.36-.47-.29-.62-.9-.33-1.38.29-.47.9-.62,1.37-.33.26.15,6.12,3.56,11.78-2.44.38-.4,1.01-.42,1.41-.04.4.38.42,1.01.04,1.41-3.06,3.24-6.24,4.14-8.82,4.14Z"/>
        <path class="cls-3" d="M250.54,90.08c-.34,0-.67-.17-.86-.49-1.76-2.93-7.29-.66-7.35-.64-.51.21-1.1-.03-1.31-.54-.21-.51.03-1.09.53-1.31.29-.12,7.19-2.96,9.84,1.45.28.47.13,1.09-.34,1.37-.16.1-.34.14-.51.14Z"/>
        <path class="cls-3" d="M218.52,76.13c0,1.53-1.24,2.77-2.77,2.77s-2.77-1.24-2.77-2.77,1.24-2.77,2.77-2.77,2.77,1.24,2.77,2.77Z"/>
        <path class="cls-3" d="M198.99,68.99c0,1.53-1.24,2.77-2.77,2.77s-2.77-1.24-2.77-2.77,1.24-2.77,2.77-2.77,2.77,1.24,2.77,2.77Z"/>
      </g>
      <path class="cls-2" d="M187.64,153.05l-20.04,30.82-9.46-7.64-25.11,31.66,7.54,7.44c16.01,15.8,42.09,14.63,56.62-2.55l46.23-54.63h0c-9.78-23.51-41.9-26.45-55.78-5.1Z"/>
      <path class="cls-2" d="M173.12,226.57h99.76l-21.64-71.09c-3.65-12-15.32-19.72-27.8-18.38l-15.74,1.69-34.58,87.79Z"/>
      <path class="cls-3" d="M167.72,227.45c-10.37,0-20.44-4.11-27.85-11.42l-7.54-7.44c-.36-.36-.4-.93-.08-1.33l25.11-31.66c.34-.43.97-.5,1.4-.16.43.34.51.97.16,1.4l-24.55,30.96,6.9,6.81c7.54,7.44,17.53,11.28,28.12,10.8,10.59-.48,20.19-5.19,27.03-13.28l23.14-27.35c.36-.42.99-.47,1.41-.12.42.36.47.99.12,1.41l-23.14,27.35c-7.1,8.4-17.48,13.5-28.47,13.99-.59.03-1.18.04-1.76.04Z"/>
      <path class="cls-3" d="M256.26,86.9c-6.65,14.63-25.27,23.94-35.25,35.25-5.57,6.31-15.96,17.96,16.63,25.27,14.71,3.3,10.64,34.58,21.28,33.25,10.64-1.33,19.29-93.11,10.64-111.07-8.65-17.96-10.5,11.13-13.3,17.29Z"/>
      <path class="cls-2" d="M249.61,103.24c0,3.1-2.51,5.61-5.61,5.61s-5.61-2.51-5.61-5.61,2.51-5.61,5.61-5.61,5.61,2.51,5.61,5.61Z"/>
    </g>
  </g>
</svg>