<?xml version="1.0" encoding="UTF-8"?>
<svg id="Capa_2" data-name="Capa 2" xmlns="http://www.w3.org/2000/svg" viewBox="0 0 1011.48 992.08">
  <defs>
    <style>
      .cls-1 {
        opacity: .6;
      }

      .cls-2 {
        fill: #fdcc45;
      }

      .cls-3 {
        fill: #fff;
      }

      .cls-4 {
        fill: #abfb4f;
      }

      .cls-5 {
        opacity: .4;
      }

      .cls-6 {
        fill: #361e4d;
      }

      .cls-7 {
        fill: #587be1;
      }

      .cls-8 {
        fill: #1a2e35;
      }

      .cls-9 {
        opacity: .8;
      }

      .cls-10 {
        opacity: .2;
      }

      .cls-11 {
        fill: #ff5f68;
      }

      .cls-12 {
        fill: #010101;
      }

      .cls-13 {
        fill: #fffffd;
      }

      .cls-14 {
        fill: #ff77ab;
      }
    </style>
  </defs>
  <g id="Capa_1-2" data-name="Capa 1">
    <g>
      <g>
        <path class="cls-13" d="M250.45,986.74c-25.85-39.02-7.53-331.86-7.34-334.83l36.9-65.2,103.52,29.8-23.54,373.31-109.54-3.08Z"/>
        <path d="M281.08,589.31l100.16,28.83-23.3,369.42-106.24-2.98c-20.26-34.75-11.66-249.05-6.47-331.52l35.85-63.75h0ZM278.95,584.11l-38.04,67.66s-19.14,300.66,8.37,337.13l112.78,3.17,23.79-377.19-106.9-30.77h0Z"/>
      </g>
      <g>
        <g>
          <path class="cls-4" d="M226.55,651.68s123.9-5.01,195.29,67.67l48.42-346.16s-148.55,36.04-243.71,278.49Z"/>
          <path class="cls-4" d="M886.03,674.59c-11.42-120.06-20.62-167.3-55.15-294.83-96.44-55.41-273.76-40.27-360.62-6.58l-119.35,190.94c-31.47,109.76-36.85,333.26-36.85,425.52h581.29s2.42-191.85-9.32-315.05Z"/>
          <g>
            <g>
              <g>
                <polygon class="cls-3" points="570.69 651.93 476.94 767.96 68.65 438.03 162.42 322.01 570.69 651.93"/>
                <path class="cls-6" d="M477.16,770l-1.14-.92L66.62,438.24l95.58-118.28,1.13.92,409.41,330.83-95.58,118.29ZM70.71,437.81l406,328.1,91.93-113.76L162.65,324.06l-91.93,113.76Z"/>
              </g>
              <g>
                <polygon class="cls-11" points="220.17 392.53 149.71 479.7 93.24 434.06 163.7 346.88 220.17 392.53"/>
                <g class="cls-9">
                  <polygon class="cls-11" points="288.61 447.84 218.17 535.02 161.7 489.38 232.14 402.21 288.61 447.84"/>
                </g>
                <g class="cls-1">
                  <rect class="cls-11" x="237.58" y="487.62" width="112.07" height="72.61" transform="translate(-298.43 423.02) rotate(-51.06)"/>
                </g>
                <g class="cls-5">
                  <polygon class="cls-11" points="425.52 558.47 355.08 645.64 298.6 600 369.06 512.83 425.52 558.47"/>
                </g>
                <g class="cls-10">
                  <polygon class="cls-11" points="493.96 613.78 423.52 700.96 367.05 655.32 437.5 568.15 493.96 613.78"/>
                </g>
              </g>
              <g>
                <polygon class="cls-7" points="220.17 392.53 149.71 479.7 93.24 434.06 163.7 346.88 220.17 392.53"/>
                <polygon class="cls-7" points="288.61 447.84 218.17 535.02 161.7 489.38 232.14 402.21 288.61 447.84"/>
                <g class="cls-1">
                  <rect class="cls-7" x="237.58" y="487.62" width="112.07" height="72.61" transform="translate(-298.43 423.02) rotate(-51.06)"/>
                </g>
                <g class="cls-5">
                  <polygon class="cls-7" points="425.52 558.47 355.08 645.64 298.6 600 369.06 512.83 425.52 558.47"/>
                </g>
                <g class="cls-10">
                  <polygon class="cls-7" points="493.96 613.78 423.52 700.96 367.05 655.32 437.5 568.15 493.96 613.78"/>
                </g>
              </g>
              <path class="cls-8" d="M502.08,680.2c4.06,3.28,4.69,9.25,1.41,13.32-3.28,4.07-9.25,4.7-13.31,1.41-4.07-3.28-4.71-9.24-1.43-13.32,3.28-4.07,9.25-4.7,13.33-1.41Z"/>
            </g>
            <g>
              <g>
                <polygon class="cls-3" points="551.33 698.27 412.51 752.88 220.34 264.4 359.17 209.79 551.33 698.27"/>
                <path class="cls-6" d="M411.69,754.77l-.53-1.35-192.71-489.83,141.55-55.67.53,1.35,192.69,489.83-141.53,55.67ZM222.23,265.22l191.11,485.78,136.1-53.54-191.09-485.78-136.11,53.54Z"/>
              </g>
              <g>
                <rect class="cls-11" x="253.11" y="250.06" width="112.08" height="72.6" transform="translate(-83.37 133.05) rotate(-21.47)"/>
                <g class="cls-9">
                  <rect class="cls-11" x="285.33" y="331.96" width="112.08" height="72.61" transform="translate(-111.11 150.51) rotate(-21.47)"/>
                </g>
                <g class="cls-1">
                  <polygon class="cls-11" points="439.02 463.43 334.72 504.46 308.13 436.89 412.45 395.86 439.02 463.43"/>
                </g>
                <g class="cls-5">
                  <polygon class="cls-11" points="471.24 545.33 366.93 586.36 340.36 518.78 444.66 477.76 471.24 545.33"/>
                </g>
                <g class="cls-10">
                  <rect class="cls-11" x="381.97" y="577.65" width="112.08" height="72.61" transform="translate(-194.36 202.98) rotate(-21.48)"/>
                </g>
              </g>
              <g>
                <rect class="cls-2" x="253.11" y="250.06" width="112.08" height="72.6" transform="translate(-83.37 133.05) rotate(-21.47)"/>
                <g class="cls-9">
                  <rect class="cls-2" x="285.33" y="331.96" width="112.08" height="72.61" transform="translate(-111.11 150.51) rotate(-21.47)"/>
                </g>
                <g class="cls-1">
                  <polygon class="cls-2" points="439.02 463.43 334.72 504.46 308.13 436.89 412.45 395.86 439.02 463.43"/>
                </g>
                <g class="cls-5">
                  <polygon class="cls-2" points="471.24 545.33 366.93 586.36 340.36 518.78 444.66 477.76 471.24 545.33"/>
                </g>
                <g class="cls-10">
                  <rect class="cls-2" x="381.97" y="577.65" width="112.08" height="72.61" transform="translate(-194.36 202.98) rotate(-21.48)"/>
                </g>
              </g>
              <path class="cls-8" d="M477.71,688.98c1.91,4.88-.5,10.37-5.35,12.29-4.88,1.91-10.37-.48-12.28-5.35-1.93-4.88.46-10.37,5.33-12.29,4.88-1.92,10.37.49,12.3,5.35Z"/>
            </g>
            <g>
              <g>
                <polygon class="cls-3" points="516.26 607.41 545.77 753.63 31.25 857.5 1.72 711.28 516.26 607.41"/>
                <path class="cls-6" d="M30.11,859.21l-.29-1.43L0,710.14l1.43-.29,515.97-104.15.29,1.43,29.8,147.64-1.43.29L30.11,859.21ZM3.44,712.41l28.94,143.38,511.67-103.29-28.93-143.38L3.44,712.41Z"/>
              </g>
              <g>
                <polygon class="cls-14" points="92.86 711.79 115.04 821.66 43.87 836.03 21.7 726.17 92.86 711.79"/>
                <g class="cls-9">
                  <polygon class="cls-14" points="179.14 694.39 201.3 804.25 130.14 818.61 107.96 708.75 179.14 694.39"/>
                </g>
                <g class="cls-1">
                  <polygon class="cls-14" points="265.4 676.98 287.58 786.83 216.4 801.2 194.22 691.34 265.4 676.98"/>
                </g>
                <g class="cls-5">
                  <polygon class="cls-14" points="351.67 659.56 373.84 769.42 302.68 783.79 280.49 673.92 351.67 659.56"/>
                </g>
                <g class="cls-10">
                  <polygon class="cls-14" points="437.93 642.15 460.12 752.01 388.94 766.37 366.77 656.5 437.93 642.15"/>
                </g>
              </g>
              <path class="cls-6" d="M493.08,672.53c8.31-1.69,16.41,3.7,18.07,11.99,1.69,8.31-3.7,16.41-12,18.08-8.3,1.68-16.39-3.7-18.07-12.01-1.67-8.3,3.7-16.39,12-18.06Z"/>
            </g>
          </g>
          <g>
            <path d="M665.98,31.92s-5.11-43.22-79.57-25.69c-53.79,12.65-63.52,8.3-63.52,8.3,0,0,5.98,19.67,28.39,24.97,0,0-38.85-4.92-36.59,35.16,2.22,40.07,26.52,45.73,26.9,64.26.38,18.53-32.91,38.55,1.84,64.67,34.76,26.07,112.38,73.07,163.65-3.79,49.7-74.49,5.24-201.5-41.08-167.87Z"/>
            <path d="M636.02,243.88h-.02c-28.03,0-59.57-13.04-93.75-38.69-25.21-18.89-16.18-35.67-8.94-49.16,3.25-6.08,6.35-11.79,6.24-17.11-.14-6.91-4.02-11.96-8.94-18.36-7.41-9.59-16.58-21.57-17.95-45.8-.63-11.8,2.08-21.04,8.1-27.48,5.79-6.22,13.59-8.67,19.91-9.57-15.05-7.83-19.48-21.89-19.71-22.59l-1.29-4.27,4.02,1.8h0s1.63.55,6.35.55c8.07,0,24.35-1.55,55.89-8.98,11.93-2.81,22.91-4.23,32.52-4.23,36.75,0,46.45,20.7,48.82,28.63,16.82-10.34,35.25-1.32,48.2,23.33,20.07,38.19,23.03,104.34-6.73,148.94-19,28.52-43.47,42.98-72.72,42.98ZM547.37,41.33c-5.79,0-16.58,1.12-23.7,8.75-5.21,5.62-7.58,13.83-7,24.44,1.29,22.99,10.06,34.38,17.11,43.56,5.19,6.7,9.63,12.51,9.82,20.79.12,6.38-3.23,12.56-6.77,19.11-7.48,13.96-14.59,27.15,7.79,43.94,33.02,24.78,64.63,37.88,91.4,37.88h0c27.82,0,51.16-13.85,69.39-41.14,28.91-43.34,26.02-107.65,6.5-144.81-12.38-23.56-29.24-31.57-44.76-20.28l-2.75,1.99-.41-3.4c-.14-1.15-3.99-28.1-45.54-28.1-9.32,0-19.95,1.38-31.59,4.12-37.97,8.94-54.17,9.49-60.74,8.97,2.67,5.54,9.8,16.61,25.62,20.35l-.69,3.98s-1.46-.15-3.68-.15Z"/>
          </g>
          <g>
            <path class="cls-3" d="M617.85,378.01c-42.08-.52-62.75-24.2-64.21-26.47,8.57-34.48,7.39-129.66,7.17-138l148.63-17.24c-1.89,23.01,8.53,150.09,8.53,150.09,0,0-56.13,32.16-100.12,31.61Z"/>
            <path class="cls-12" d="M619,380.29c-.4,0-.79,0-1.17-.02h0c-40.05-.47-62.66-22.14-66.12-27.49-.31-.53-.43-1.18-.28-1.81,8.84-35.66,7.14-136.39,7.12-137.38-.07-1.18.83-2.2,2-2.33l148.63-17.25c.64-.03,1.36.15,1.86.63.46.5.74,1.16.69,1.82-1.88,22.58,8.41,148.49,8.51,149.76.07.85-.38,1.71-1.14,2.14-2.29,1.33-56.18,31.92-100.1,31.92ZM617.86,375.74h1.12c39.11,0,88.19-25.98,96.61-30.61-1.17-14.36-9.6-119.05-8.56-146.24l-143.9,16.67c.21,14.58.98,101.33-7.03,135.42,3.49,4.01,23.04,24.25,61.77,24.76Z"/>
          </g>
          <g>
            <g>
              <path class="cls-3" d="M607.99,346.67c-41.49-2.06-70.52-14.47-91.33-39.1-15.12-17.88-12.21-52.01-9.85-79.44.32-4.07.67-8.03.93-11.74,2.03-28.44,11.52-101.25,17.4-128.94,6.38-30.06,46.62-43.52,83.7-43.52,47.65,0,95.92,20.77,95.92,60.48,0,4.17.26,9.79.58,16.27.54,11.09,1.19,24.91.86,38.96l-.03.61h.89c20.6,0,37.23,16.86,37.23,37.56s-16.63,37.58-37.1,37.58c-2.59,0-5.23-.28-7.81-.83l-.62-.13-.15,1.04c-4.19,29.37-9.44,65.92-33.45,87.93-6.24,5.75-15.17,6.1-24.63,6.44-13.02.49-26.5,1.01-32.55,16.85Z"/>
              <path d="M608.84,44.52c47.36,0,95.32,20.58,95.32,59.89,0,4.21.28,9.79.57,16.29.55,11.09,1.2,24.92.88,38.93l-.02,1.24h1.22c.08,0,.17-.03.39-.03,20.12,0,36.53,16.58,36.53,36.97s-16.41,36.97-36.53,36.97c-2.56,0-5.14-.29-7.69-.82l-1.25-.29-.17,1.29-.05.4c-4.19,29.28-9.41,65.73-33.26,87.57-6.1,5.61-14.89,5.94-24.23,6.3-13.14.48-26.71.99-32.97,16.81-41.08-2.09-69.84-14.45-90.47-38.86-14.94-17.7-12.02-51.69-9.73-78.98.36-4.14.71-8.05.96-11.79,2.03-28.4,11.54-101.14,17.39-128.81,6.29-29.75,46.28-43.08,83.11-43.08h0ZM608.78,43.33c-39.71,0-77.97,14.54-84.21,43.99-5.92,27.83-15.39,100.18-17.44,129.02-2.01,28.85-8.46,70.86,9.04,91.63,23.68,27.99,55.84,37.6,92.19,39.32,10.01-27.17,41.75-9.28,57.21-23.45,24.26-22.25,29.53-59.6,33.67-88.71,2.58.53,5.21.86,7.94.86,20.83,0,37.73-17.09,37.73-38.19s-16.9-38.17-37.73-38.17h-.39c.51-22.29-1.45-43.95-1.45-55.23,0-40.53-49.34-61.08-96.58-61.08h0Z"/>
            </g>
            <path d="M609.76,349.38l-1.48-.04c-42.48-2.03-72.24-14.75-93.6-40.06-15.85-18.74-12.86-53.45-10.47-81.38.31-4.06.69-8,.93-11.72,2.03-28.43,11.56-101.41,17.47-129.28,7.14-33.65,50.89-45.63,86.23-45.63,48.94,0,98.52,21.7,98.52,63.14,0,4.12.26,9.68.59,16.14.52,10.59,1.12,23.67.91,37.12,21.34,1.06,38.07,18.66,38.07,40.14s-17.82,40.23-39.73,40.23c-2.1,0-4.16-.19-6.24-.51-4.27,29.75-9.87,65.67-34.05,87.83-6.95,6.4-16.77,6.76-26.26,7.12-12.86.49-25,.93-30.35,15.51l-.53,1.39ZM608.84,45.36c-36.53,0-76.1,13.12-82.3,42.42-5.87,27.72-15.38,100.39-17.37,128.7-.28,3.74-.6,7.7-.95,11.79-2.32,27.17-5.21,60.93,9.51,78.37,20.4,24.1,48.81,36.39,89.32,38.56,6.6-15.8,20.84-16.33,33.46-16.8,9.2-.34,17.83-.66,23.71-6.05,23.63-21.67,28.82-57.97,33-87.15l.31-2.17,2.15.12c2.48.52,5.02.82,7.51.82,19.69,0,35.72-16.22,35.72-36.16s-16.02-36.13-35.72-36.13h-2.06l-.34-2.07c.31-13.99-.34-27.78-.86-38.86-.33-6.52-.6-12.12-.6-16.33,0-38.78-47.56-59.05-94.49-59.05Z"/>
          </g>
          <path d="M670.21,232.21c-21.89,0-34.27-9.95-47.89-19.82-10.73-7.88-26.78-12.17-43.35-9.57-12.4,1.95-21.58,8.93-37.73,8.93-13.07,0-23.99-3.38-32.72-9.04-.64,5.28-1.14,9.89-1.34,13.63-2.03,28.85-8.53,70.86,9.01,91.66,23.65,27.96,55.87,37.57,92.19,39.29,10.01-27.13,41.77-9.28,57.23-23.47,27.36-25.06,30.52-69.38,35.25-99.38-8.43,4.82-18.57,7.76-30.64,7.76ZM572.96,254.44c-15.81-5.55-17.78-17.64-17.78-27.77,0-8,62.67-3.06,62.67,4.94,0,18.2-25.16,29.81-44.88,22.84ZM585.2,258.53c-4.47,0-8.87-.72-12.91-2.17-16.96-5.94-19.11-19-19.11-29.69,0-2.62,2.1-6.1,20.33-6.1,9.18,0,46.36,1.95,46.36,11.03,0,16.61-18,26.92-34.67,26.92ZM573.51,224.63c-12.07,0-15.93,1.65-16.39,2.3.05,9.69,2.01,20.53,16.47,25.6,3.66,1.29,7.57,1.93,11.61,1.93,14.81,0,30.64-9.18,30.64-22.86-1.43-2.87-22.63-6.97-42.34-6.97Z"/>
          <g>
            <path class="cls-3" d="M555.18,226.67c0,10.14,1.98,22.23,17.78,27.77,19.72,6.97,44.88-4.64,44.88-22.84,0-8-62.67-12.93-62.67-4.94Z"/>
            <path d="M573.51,214.46c-8.57,0-26.38,0-26.38,12.21,0,6.73,0,27.33,23.15,35.47,4.73,1.67,9.77,2.5,14.93,2.5,19.57,0,40.69-12.62,40.69-33.04,0-15.49-36.63-17.15-52.38-17.15ZM585.2,248.35c-3.37,0-6.58-.53-9.63-1.57-8.56-3.02-11.4-8.2-12.12-15.45,1.97-.31,5.19-.59,10.06-.59,14.51,0,29.51,2.34,35.73,4.37-2.6,7.95-13.83,13.25-24.04,13.25Z"/>
          </g>
          <path d="M517.19,122.64l1.27,3.87c24.54-8.28,38.66-3.21,38.81-3.16l1.41-3.81c-.64-.23-15.5-5.68-41.5,3.1Z"/>
          <path d="M612.75,106.06l.54,4.02c.14-.03,15.06-1.73,37.09,11.94l2.1-3.5c-23.42-14.51-39.04-12.56-39.73-12.47Z"/>
          <g>
            <path d="M631.04,150.57c-3.41,0-6.19,2.8-6.19,6.24s2.79,6.25,6.19,6.25,6.17-2.79,6.17-6.25-2.77-6.24-6.17-6.24Z"/>
            <path d="M631.04,148.51c-4.51,0-8.17,3.72-8.17,8.3s3.66,8.28,8.17,8.28,8.2-3.72,8.2-8.28-3.68-8.3-8.2-8.3ZM631.04,161.05c-2.31,0-4.18-1.92-4.18-4.24s1.87-4.21,4.18-4.21,4.16,1.9,4.16,4.21-1.87,4.24-4.16,4.24Z"/>
          </g>
          <g>
            <path d="M540.1,140.02c-3.44,0-6.19,2.78-6.19,6.23s2.75,6.26,6.19,6.26,6.14-2.79,6.14-6.26-2.75-6.23-6.14-6.23Z"/>
            <path d="M540.1,137.98c-4.56,0-8.22,3.72-8.22,8.28s3.66,8.3,8.22,8.3,8.17-3.72,8.17-8.3-3.68-8.28-8.17-8.28ZM540.1,150.47c-2.32,0-4.21-1.88-4.21-4.21s1.89-4.22,4.21-4.22,4.14,1.9,4.14,4.22-1.88,4.21-4.14,4.21Z"/>
          </g>
          <path d="M578.88,177.75l-.91-3.99c-4.49,1.07-7.24,3.12-8.17,6.1-1.6,4.96,2.67,10.12,3.18,10.67l3.01-2.66c-.85-1.01-3.17-4.39-2.39-6.76.62-1.9,3.18-2.87,5.28-3.36Z"/>
          <g>
            <path d="M720.96,176.01c-9.15-3.91-19.9-2.07-26.07,4.5l2.92,2.8c4.97-5.26,14.03-6.76,21.6-3.53,7.12,3.06,11.06,9.32,10.78,17.26-.63,18.87-21.84,21.27-22.72,21.38l.4,4.04c.24-.03,25.57-2.83,26.33-25.29.34-9.55-4.61-17.47-13.24-21.15Z"/>
            <path d="M715.71,178.18c2.08,4.69,2.36,8.65.83,11.77-2.29,4.73-8.13,6.23-8.2,6.24l.93,3.95c.31-.08,7.72-1.9,10.89-8.39,2.06-4.26,1.8-9.39-.77-15.25l-3.67,1.68Z"/>
          </g>
        </g>
        <g>
          <g>
            <g>
              <path class="cls-3" d="M874.47,890.61c-160.98-54.45-266.44-159.46-267.49-160.5l-.31-.33-.38.22c-6.22,3.38-12.93,3.79-20.48,1.25-11.23-3.82-22.13-13.57-30.87-21.44-6.19-5.52-11.52-10.31-15.44-11.62-2.31-.78-4.11-.36-5.33,1.27-2.41,3.16-5.16,8.28-8.06,13.69-7.05,13.04-15.79,29.28-23.96,26.53h0c-.26-.09-.5-.19-.76-.3-5.75-2.73-5.18-21.92-4.45-29.05l.17-1.71-1.2,1.26c-.12.15-16.08,16.46-32.79,21.51-3.59,1.07-6.48,1.23-8.6.53-6.02-2.03-4.08-11.03-4.04-11.13l.48-2.15-1.5,1.6c-3.94,4.2-12.16,4.73-17.83,2.79-3.39-1.12-5.83-3.03-6.9-5.39-.88-1.93-.86-4.14.14-6.53,2.46-6.23,23.46-31.18,23.7-31.44l3.56-4.27-4.4,3.41c-.19.17-20.19,15.42-31.52,11.61-1.12-.39-2.11-.97-3.01-1.69-1.91-1.57-2.82-3.28-2.84-5.14-.02-5.86,8.67-13.53,20.64-24.14,6.29-5.55,13.41-11.83,20.86-19.22,15.87-15.8,23.42-21.74,32.17-28.63,3.48-2.73,7.07-5.58,11.47-9.23,5.48-4.62,11.23-5.55,18.62-3.02,6.35,2.12,14.15,6.93,24.59,15.11,21.41,16.8,68.01,36.7,87.08,43.16,2.82.95,11.11,3.41,23.56,7.15,34.27,10.24,98.04,29.3,157.8,49.52l.77.27,1.57-51.51,169.1,29.05c1.89,8.28,31.69,144.45-18.57,190.88-19.24,17.77-48.01,20.36-85.54,7.63Z"/>
              <path class="cls-12" d="M916.74,900.81c-12.79,0-27.14-2.67-43.01-8.03h0c-152.81-51.72-256.59-149.64-267.49-160.2-6.72,3.16-13.55,3.41-21.14.82-11.74-3.95-22.8-13.9-31.68-21.88-5.76-5.14-11.18-10.02-14.67-11.19-1.93-.65-2.48.09-2.77.5-2.3,3.05-5.02,8.07-7.89,13.42-7.82,14.53-16.97,30.91-26.7,27.57-.31-.13-.64-.24-.93-.38-6.5-3.08-6.54-18.93-6.11-26.96-5.64,5.12-17.88,15.24-30.59,19.06-4.04,1.23-7.38,1.37-9.99.51-4.64-1.56-5.85-6.15-5.92-9.79-4.95,2.67-11.86,2.64-16.97.95-3.97-1.35-6.92-3.72-8.22-6.65-1.15-2.5-1.12-5.41.09-8.33,1.63-4.12,10.42-15.36,17.04-23.53-7.17,4.1-17.01,8.24-24.32,5.85-1.34-.44-2.6-1.16-3.73-2.09-2.41-1.99-3.63-4.31-3.64-6.87-.07-6.9,8.46-14.44,21.37-25.85,5.92-5.22,13.28-11.71,20.77-19.16,15.84-15.73,23.39-21.7,32.16-28.62,3.66-2.9,7.22-5.73,11.63-9.37,6.07-5.09,12.69-6.17,20.83-3.42,6.58,2.22,14.62,7.14,25.26,15.48,21.2,16.65,67.48,36.4,86.41,42.79,2.29.8,8.13,2.54,16.87,5.17l6.59,1.98c31.26,9.32,95.89,28.62,155.75,48.83l1.48-48.45c0-.67.31-1.3.82-1.69.5-.41,1.26-.63,1.82-.49l169.1,29.04c.91.17,1.63.86,1.84,1.76,1.36,5.9,32.47,145.29-19.26,193.04-11.66,10.8-26.64,16.17-44.8,16.17ZM875.21,888.47c36.71,12.38,64.71,9.98,83.27-7.16,47.64-44.01,21.7-171.18,18.21-187.23l-165-28.35-1.5,48.91c-.02.72-.38,1.38-.98,1.79-.57.4-1.32.53-2.03.3l-.77-.27c-60.38-20.43-126.1-40.06-157.71-49.5l-6.58-1.97c-8.86-2.66-14.72-4.41-17.08-5.2-19.16-6.52-66.09-26.54-87.74-43.53-10.23-8.03-17.8-12.72-23.91-14.77-6.67-2.25-11.57-1.46-16.44,2.6-4.42,3.68-8.03,6.55-11.52,9.29-8.86,7.01-16.34,12.87-32,28.46-7.57,7.52-14.98,14.07-20.91,19.31-10.68,9.45-19.88,17.6-19.88,22.42.02.74.24,1.92,2.01,3.38.69.59,1.45,1,2.27,1.29,8.65,2.96,24.14-7.15,29.42-11.24l4.39-3.4c.96-.68,2.27-.63,3.04.23.81.83.84,2.16.11,3.04l-3.6,4.26c-7.82,9.34-21.51,26.29-23.32,30.82-.72,1.82-.79,3.38-.17,4.75.81,1.76,2.79,3.27,5.57,4.21,4.85,1.59,12.12,1.27,15.41-2.22l1.53-1.62c.72-.74,1.8-.88,2.75-.42.89.5,1.34,1.52,1.12,2.51l-.48,2.14c-.03.06-1.41,7.12,2.54,8.45,1.1.4,3.27.61,7.22-.55,16.01-4.86,31.62-20.73,31.78-20.89l1.26-1.27c.71-.69,1.76-.82,2.6-.47.86.43,1.37,1.34,1.29,2.31l-.19,1.69c-1.12,11.39-.1,25.18,3.2,26.77l.53.19c6.52,1.85,15.22-14.51,21.17-25.46,2.96-5.47,5.78-10.65,8.26-13.99,1.05-1.39,3.4-3.53,7.91-2.06,4.33,1.46,9.84,6.38,16.2,12.08,8.58,7.72,19.26,17.32,30.1,20.98,6.86,2.33,12.97,1.95,18.64-1.08.93-.5,2.37-.52,3.06.19,4.78,4.67,109.71,107.03,266.96,160.27h0Z"/>
            </g>
            <path d="M447.92,682.57l-3.01-2.67c20.86-23.98,47.91-52.27,48.19-52.54l2.91,2.8c-.26.28-27.29,28.49-48.08,52.41Z"/>
            <path d="M451.55,721.8l-3.34-2.23c.43-.74,11.54-17.62,19.38-25.79,1.77-1.88,4.33-5.17,7.29-9.02,9.92-12.86,24.94-32.26,41.05-37.87l1.29,3.86c-14.96,5.2-29.53,24.03-39.16,36.49-3.16,4.08-5.64,7.31-7.6,9.34-7.53,7.9-18.8,25.03-18.92,25.22Z"/>
            <path d="M497.07,712.61l-3.7-1.63c.46-1.04,11.21-25.44,16.1-31.52,4.73-5.83,15.7-13.5,25.33-12.37l-.48,4.04c-7.29-.88-16.95,5.01-21.72,10.89-4.58,5.62-15.43,30.34-15.53,30.59Z"/>
          </g>
          <path class="cls-4" d="M830.88,379.77l-57.85,193.28s14.89,104.93,18.95,114.7c10.52,25.58,58.87,36.33,125.73,26.51,63.21-9.3,93.77-25.9,93.77-41.93.07-154.01-90.39-243.77-180.6-292.57Z"/>
          <path d="M872.27,719.01c-75.68,0-82.39-29.28-82.68-30.8l-12.81-72.9,4.78-.84,12.81,72.86c.08.34,10.33,40.7,139.69,21.74l.69,4.82c-24.82,3.63-45.4,5.12-62.48,5.12Z"/>
        </g>
      </g>
    </g>
  </g>
</svg>