<?xml version="1.0" encoding="UTF-8"?>
<svg id="Capa_2" data-name="Capa 2" xmlns="http://www.w3.org/2000/svg" viewBox="0 0 312.22 267.78">
  <defs>
    <style>
      .cls-1 {
        fill: #fff;
      }

      .cls-2 {
        fill: #abfb4f;
      }

      .cls-3 {
        fill: blue;
      }

      .cls-4 {
        fill: #010101;
      }
    </style>
  </defs>
  <g id="Capa_1-2" data-name="Capa 1">
    <g>
      <g>
        <rect class="cls-1" x=".56" y="256.11" width="311.11" height="11.11"/>
        <path class="cls-4" d="M311.67,267.78H.56c-.31,0-.56-.24-.56-.55v-11.11c0-.31.25-.55.56-.55h311.11c.31,0,.55.24.55.55v11.11c0,.31-.24.55-.55.55ZM1.11,266.67h310v-10H1.11v10Z"/>
      </g>
      <g>
        <g>
          <g>
            <rect x=".56" y="22.78" width="255.56" height="188.89" rx="5.56" ry="5.56"/>
            <path class="cls-4" d="M250.56,212.22H6.11c-3.37,0-6.11-2.74-6.11-6.11V28.34c0-3.37,2.74-6.11,6.11-6.11h244.44c3.37,0,6.11,2.74,6.11,6.11v177.78c0,3.37-2.74,6.11-6.11,6.11ZM6.11,23.33c-2.76,0-5,2.25-5,5v177.78c0,2.76,2.24,5,5,5h244.44c2.76,0,5-2.25,5-5V28.34c0-2.76-2.25-5-5-5H6.11Z"/>
          </g>
          <g>
            <rect x=".56" y="22.78" width="255.56" height="188.89" rx="5.56" ry="5.56"/>
            <path d="M250.56,212.22H6.11c-3.37,0-6.11-2.74-6.11-6.11V28.34c0-3.37,2.74-6.11,6.11-6.11h244.44c3.37,0,6.11,2.74,6.11,6.11v177.78c0,3.37-2.74,6.11-6.11,6.11ZM6.11,23.33c-2.76,0-5,2.25-5,5v177.78c0,2.76,2.24,5,5,5h244.44c2.76,0,5-2.25,5-5V28.34c0-2.76-2.25-5-5-5H6.11Z"/>
          </g>
          <g>
            <rect class="cls-4" x="106.11" y="211.67" width="44.44" height="44.44"/>
            <path class="cls-4" d="M150.56,256.67h-44.44c-.31,0-.56-.24-.56-.55v-44.44c0-.31.25-.55.56-.55h44.44c.31,0,.55.24.55.55v44.44c0,.31-.24.55-.55.55ZM106.67,255.56h43.33v-43.34h-43.33v43.34Z"/>
          </g>
          <rect class="cls-1" x="11.67" y="33.89" width="233.33" height="166.67"/>
        </g>
        <g>
          <g>
            <circle class="cls-2" cx="95" cy="67.23" r="66.67"/>
            <path class="cls-2" d="M95,134.45c-37.07,0-67.22-30.15-67.22-67.22S57.93,0,95,0s67.22,30.15,67.22,67.22-30.15,67.22-67.22,67.22ZM95,1.11C58.55,1.11,28.89,30.77,28.89,67.23s29.66,66.11,66.11,66.11,66.11-29.66,66.11-66.11S131.45,1.11,95,1.11Z"/>
          </g>
          <path class="cls-4" d="M95,134.45c-.1,0-.19-.02-.28-.08-23.89-13.98-38.74-39.83-38.74-67.46S70.83,14.21,94.72.08c.17-.11.39-.11.56,0,23.89,13.98,38.74,39.83,38.74,67.46s-14.84,52.7-38.73,66.83c-.09.05-.18.08-.28.08ZM95,1.2c-23.39,13.96-37.91,39.11-37.91,65.71s14.52,52.51,37.9,66.33c23.39-13.96,37.91-39.11,37.91-65.71S118.39,15.03,95,1.2Z"/>
          <path class="cls-4" d="M143.72,112.65c-.1,0-.21-.03-.3-.09-12.92-8.21-30.12-12.73-48.42-12.73s-35.5,4.52-48.42,12.73c-.25.17-.6.1-.77-.17-.17-.26-.09-.6.17-.76,13.09-8.33,30.5-12.91,49.02-12.91s35.92,4.58,49.02,12.91c.26.16.34.5.17.76-.1.17-.28.26-.47.26Z"/>
          <path class="cls-4" d="M95,35.73c-18.51,0-35.92-4.58-49.01-12.91-.26-.16-.34-.5-.17-.77.16-.26.51-.33.77-.17,12.92,8.21,30.11,12.73,48.42,12.73s35.5-4.52,48.42-12.73c.27-.16.61-.09.77.17.17.26.09.6-.17.77-13.1,8.33-30.51,12.91-49.02,12.91Z"/>
          <path class="cls-4" d="M161.67,67.78H28.33c-.31,0-.56-.24-.56-.55s.25-.55.56-.55h133.33c.31,0,.55.24.55.55s-.24.55-.55.55Z"/>
          <path class="cls-4" d="M95,134.45c-.31,0-.56-.24-.56-.55V.56c0-.31.25-.55.56-.55s.56.24.56.55v133.33c0,.31-.25.55-.56.55Z"/>
        </g>
        <g>
          <rect class="cls-3" x="42.22" y="147.78" width="105.56" height="38.89"/>
          <path class="cls-4" d="M147.78,187.22H42.22c-.31,0-.56-.24-.56-.55v-38.89c0-.31.25-.55.56-.55h105.56c.31,0,.55.24.55.55v38.89c0,.31-.24.55-.55.55ZM42.78,186.12h104.45v-37.78H42.78v37.78Z"/>
        </g>
        <g>
          <polygon class="cls-3" points="167.22 111.67 161.67 139.45 139.44 83.89 195 106.11 167.22 111.67"/>
          <path class="cls-4" d="M161.67,140c-.23,0-.43-.14-.52-.35l-22.22-55.56c-.08-.21-.04-.44.12-.6.16-.16.4-.21.6-.12l55.56,22.22c.23.09.37.32.35.56-.02.24-.2.45-.45.49l-27.41,5.48-5.48,27.41c-.04.24-.25.42-.49.44h-.05ZM140.44,84.89l21.05,52.62,5.19-25.94c.04-.22.21-.39.43-.43l25.94-5.19-52.61-21.04Z"/>
        </g>
        <g>
          <polygon class="cls-1" points="70.39 172.36 65.77 157.5 63.1 157.5 58.57 172.06 54.74 157.5 51.43 157.5 57.08 176.95 59.77 176.95 64.37 162.21 69.1 176.95 71.8 176.95 77.46 157.5 74.13 157.5 70.39 172.36"/>
          <polygon class="cls-1" points="100.95 172.36 96.33 157.5 93.66 157.5 89.12 172.06 85.3 157.5 81.99 157.5 87.63 176.95 90.33 176.95 94.93 162.21 99.66 176.95 102.35 176.95 108.01 157.5 104.69 157.5 100.95 172.36"/>
          <polygon class="cls-1" points="135.24 157.5 131.5 172.36 126.89 157.5 124.21 157.5 119.68 172.06 115.85 157.5 112.55 157.5 118.19 176.95 120.88 176.95 125.49 162.21 130.21 176.95 132.91 176.95 138.57 157.5 135.24 157.5"/>
        </g>
      </g>
      <g>
        <g>
          <path class="cls-2" d="M83.89,250.56c-12.25,0-22.22,6.38-22.22,14.2,0,.63.08,1.3.25,2.04l.09.42h43.74l.09-.42c.18-.77.26-1.42.26-2.04,0-7.83-9.97-14.2-22.23-14.2Z"/>
          <path class="cls-4" d="M105.76,267.78h-43.74c-.26,0-.49-.18-.54-.43l-.09-.42c-.18-.79-.27-1.5-.27-2.17,0-8.14,10.22-14.76,22.78-14.76s22.78,6.62,22.78,14.76c0,.66-.09,1.35-.27,2.17l-.1.42c-.06.25-.28.43-.54.43ZM62.46,266.67h42.85c.17-.73.24-1.33.24-1.91,0-7.53-9.72-13.65-21.67-13.65s-21.66,6.12-21.66,13.65c0,.58.08,1.2.24,1.91Z"/>
        </g>
        <g>
          <path class="cls-1" d="M224.53,97.17c-1.2,2.78-2.54,11.49-1.33,14.53,1.22,3.04-5.59,12.97-5.59,16.66,0,1.93,4.92,2.18,4.92,2.18,0,0,1.96,22.56,15.25,17.46,0,0-.62,3.71-3.05,10.8l29.29.23s-4.05-10.7-1.41-14.96c2.63-4.26,10.82-5.94,10.82-20.94s-36.75-54.32-48.9-25.95Z"/>
          <path d="M237.48,86.53c-6.02,0-10.57,3.49-13.52,10.39-1.22,2.84-2.63,11.77-1.33,15.01.57,1.43-1.31,5.42-2.82,8.64-1.45,3.09-2.83,6.01-2.83,7.8,0,2.07,3.47,2.62,4.99,2.75.35,3.09,2.56,18.25,12.09,18.25.92,0,1.9-.15,2.9-.44-.34,1.55-1.15,4.82-2.81,9.67-.06.19-.04.4.08.55.11.16.3.26.5.26l29.29.24h0c.2,0,.39-.1.5-.26.11-.17.14-.38.06-.57-.03-.11-3.91-10.48-1.46-14.43.66-1.05,1.7-1.95,2.91-3.01,3.39-2.93,8.02-6.96,8.02-18.25,0-5.57-4.96-14.66-12.35-22.61-8.26-8.89-17.09-13.99-24.22-13.99ZM265.22,140.46c-1.23,1.06-2.39,2.08-3.14,3.28-2.34,3.79.16,12.01,1.06,14.67l-27.56-.22c2.2-6.53,2.77-9.94,2.8-10.09.04-.22-.05-.44-.22-.58-.17-.14-.4-.18-.61-.1-1.23.47-2.41.71-3.49.71-9.28,0-10.91-17.47-10.93-17.65-.03-.3-.28-.54-.58-.56-1.82-.1-4.34-.69-4.34-1.56,0-1.51,1.38-4.45,2.7-7.28,1.86-3.96,3.62-7.69,2.85-9.61-1.13-2.83.2-11.43,1.32-14.06,2.75-6.4,6.91-9.65,12.4-9.65,15.17,0,35.34,24.26,35.34,35.36s-4.21,14.39-7.6,17.33Z"/>
        </g>
        <g>
          <path d="M248.69,109.89c-2.65.93-4.75,3.86-4.8,6.67l1.23.02c.03-2.29,1.81-4.77,3.98-5.53,1.04-.37,2.57-.48,3.9,1.12,2.97,3.58-.58,8.67-.61,8.72l1,.72c.17-.24,4.13-5.91.56-10.22-1.37-1.65-3.29-2.2-5.26-1.5Z"/>
          <path d="M247.79,110.68l-.43,1.16c1,.36,1.64.93,1.91,1.66.53,1.42-.38,3.11-.39,3.13l1.07.6c.05-.09,1.19-2.2.47-4.14-.41-1.1-1.3-1.9-2.64-2.4Z"/>
        </g>
        <g>
          <path class="cls-1" d="M138.99,237.16s-27.89,9.93-30.49,9c-2.6-.94-13.19-10.35-17.89-11.77-4.7-1.42-25.47,16.46-23.39,19.16,1.13,1.48,10.18-2.37,10.18-2.37,0,0-1.87,3.31.52,6.24,0,0-1.52,7.26,1.05,9.8h71.59l-11.57-30.06Z"/>
          <path class="cls-4" d="M150.56,267.78h-71.59c-.15,0-.29-.05-.39-.16-2.49-2.47-1.5-8.7-1.25-10.06-1.49-1.99-1.29-4.07-.92-5.37-3.21,1.29-8.52,3.14-9.63,1.69-.7-.91.14-2.35.84-3.36,3.81-5.53,18.72-17.95,23.16-16.67,2.87.87,7.62,4.43,11.81,7.58,2.64,1.98,5.12,3.85,6.11,4.2,1.67.64,19.4-5.18,30.11-9,.28-.12.6.04.71.32l11.57,30.06c.07.17.04.36-.07.52-.1.15-.27.24-.46.24ZM79.2,266.67h70.54l-11.08-28.8c-5.36,1.9-25.37,8.89-29.75,8.89-.26,0-.46-.02-.6-.08-1.14-.41-3.46-2.15-6.4-4.36-3.91-2.94-8.78-6.59-11.46-7.41-3.3-1.04-17.77,10.22-21.92,16.24-.95,1.37-.95,1.94-.87,2.05.49.56,5.03-.63,9.53-2.54.23-.1.48-.03.63.14.16.17.19.43.07.64-.07.12-1.65,3.03.46,5.62.11.13.15.3.11.47-.39,1.89-1,7.1.75,9.14Z"/>
        </g>
        <g>
          <path d="M271.13,79.73c-5.25-16.99-35.7-6.48-35.7-6.48-.84-2.2,2.2-6.09,2.2-6.09-3.72,1.69-7.1,6.6-7.1,6.6-2.03-4.9,1.01-9.81,1.01-9.81,0,0-14.2,3.89-16.57,21.3-2.37,17.42,16.57,13.87,16.57,13.87.02,12.29,8.6,14.34,8.6,14.34,0,0-.08-1.41,4.15-5.15,4.23-3.73,16.3-1.94,14.47,9.38-1.93,11.92-10.82,9.85-10.82,9.85-1.01,19.11,13.53,12.35,13.53,12.35.17,4.22,2.03,7.44,2.03,7.44,6.08-10.66,23.04-15.8,23.04-43.91,0-20.68-15.41-23.68-15.41-23.68Z"/>
          <path d="M271.61,79.22c-2.16-6.5-8.11-9.8-17.65-9.8-7.8,0-15.75,2.31-18.06,3.03-.06-1.6,1.52-4.02,2.21-4.91l1.54-1.98-2.28,1.04c-2.84,1.29-5.43,4.29-6.64,5.84-1.09-4.17,1.3-8.13,1.33-8.17l.81-1.33-1.5.41c-.15.04-14.62,4.2-17.02,21.82-.63,4.66.17,8.3,2.39,10.84,2.9,3.32,7.59,4.02,11.01,4.02,1.36,0,2.5-.11,3.18-.2.35,12.01,8.98,14.2,9.07,14.22l.8.25-.05-.83s.17-1.37,3.94-4.7c1.14-1.01,3.02-1.61,5.02-1.61,2.72,0,5.26,1.08,6.8,2.88,1.57,1.84,2.13,4.45,1.64,7.54-1.34,8.25-6.03,9.48-8.71,9.48-.82,0-1.36-.12-1.36-.12l-.72-.16-.04.73c-.29,5.51.68,9.48,2.88,11.8,1.48,1.56,3.47,2.35,5.92,2.35,1.99,0,3.79-.53,4.79-.9.36,3.9,1.99,6.74,2.06,6.86l.53.93.53-.93c1.72-3.01,4.41-5.64,7.25-8.43,7.06-6.93,15.86-15.56,15.86-35.78,0-19.15-13.17-23.55-15.54-24.19ZM270.42,138.3c-2.6,2.56-5.08,4.98-6.86,7.73-.54-1.22-1.37-3.49-1.48-6.18l-.04-.92-.83.39s-2.41,1.1-5.09,1.1c-2.1,0-3.79-.66-5.03-1.96-1.87-1.97-2.73-5.41-2.57-10.22.26.03.58.05.92.05,2.47,0,8.39-1.02,9.92-10.5.56-3.46-.1-6.4-1.91-8.53-1.79-2.1-4.61-3.31-7.73-3.31-2.33,0-4.46.7-5.84,1.92-2.77,2.45-3.8,3.97-4.16,4.83-1.85-.69-7.55-3.62-7.57-13.56v-.74s-.73.14-.73.14c-.01,0-1.56.29-3.67.29-3.16,0-7.48-.63-10.09-3.6-1.97-2.26-2.67-5.58-2.09-9.87,1.85-13.56,11.15-18.76,14.72-20.27-.8,1.89-1.81,5.38-.34,8.93l.43,1.05.64-.93s2.05-2.94,4.61-4.97c-.7,1.36-1.28,3.04-.78,4.33l.22.55.55-.2c.1-.03,9.33-3.18,18.33-3.18s14.69,3.12,16.59,9.26l.11.35.36.07c.61.12,14.91,3.17,14.91,23.07s-8.23,27.78-15.49,34.9Z"/>
        </g>
        <g>
          <path class="cls-3" d="M263.93,156.38c-7.69-.58-26.42.79-28.87,1.83-2.45,1.05-22.2.04-31.71,3.77-12.02,4.73-35.71,70.38-35.71,70.38l-49.3,6.03c-1.44.17-2.61,1.22-2.95,2.62-1.11,4.64-3.42,16.65-3.42,26.22h114.14l74.29-88.85s-9.61-19.97-36.47-22Z"/>
          <path class="cls-3" d="M226.11,267.77h-114.14c-.3,0-.54-.24-.54-.54,0-9.53,2.25-21.4,3.43-26.34.4-1.64,1.74-2.83,3.41-3.03l48.97-5.99c2-5.51,24.1-65.75,35.9-70.39,6.29-2.47,17.07-2.89,24.2-3.17,3.61-.14,6.73-.27,7.49-.59,2.58-1.1,21.31-2.45,29.13-1.88h0c26.86,2.04,36.82,22.1,36.92,22.31.09.19.06.42-.07.58l-74.29,88.85c-.1.12-.25.2-.42.2ZM112.52,266.68h113.34l73.89-88.38c-1.36-2.51-11.46-19.54-35.87-21.39-8.03-.61-26.39.84-28.62,1.79-.9.39-3.32.5-7.87.68-7.06.28-17.74.7-23.84,3.1-11.65,4.58-35.16,69.41-35.4,70.06-.07.2-.24.33-.44.35l-49.3,6.03c-1.22.15-2.19,1.01-2.48,2.21-1.16,4.81-3.32,16.21-3.4,25.54Z"/>
        </g>
        <path d="M84.35,244.41c-.33.06-.54.4-.47.72l.24,1.12c-4.86,2.18-7.42,4.82-7.53,4.94-.23.25-.23.63.02.87.11.11.27.17.42.17.16,0,.33-.06.44-.19.03-.02,2.68-2.76,7.59-4.86.27-.11.42-.41.36-.69l-.34-1.6c-.06-.33-.4-.53-.73-.47Z"/>
        <g>
          <path class="cls-1" d="M225.75,108.53c-2.06-2.4-5.14-2.79-5.14-2.79l5.14,2.79Z"/>
          <path d="M224.19,105.26c-.52-.28-1.11-.41-1.72-.36-.61.07-1.25.25-1.86.85.37.75.69,1.19,1.03,1.58.33.37.66.63,1.01.82.36.19.75.31,1.23.38.5.05,1.02.1,1.87.01.19-.81.01-1.49-.29-2.04-.3-.54-.75-.97-1.27-1.24Z"/>
        </g>
        <path d="M222.23,122.39c-.8,3.28-.32,8.54-.3,8.77l1.22-.11s-.48-5.28.27-8.36l-1.19-.29Z"/>
      </g>
      <g>
        <g>
          <g>
            <path d="M288.49,216.17c-.6-.09-79.75,0-79.75,0l-11.47,50.47h77.44c2.68,0,5.19-1.7,6.16-4.44,13.56-38.66,12.87-36.69,13.12-38.39.53-3.67-1.93-7.09-5.5-7.63Z"/>
            <path d="M288.57,215.58c-.11-.01-.3-.04-21.02-.04-23.63,0-58.81.04-58.81.04-.27,0-.49.19-.56.46l-11.47,50.47c-.04.18,0,.36.11.5.11.14.28.22.45.22h77.44c2.99,0,5.68-1.94,6.69-4.83l.6-1.7q12.33-35.16,12.52-36.58l.03-.22c.28-1.93-.19-3.86-1.32-5.42-1.13-1.57-2.79-2.59-4.67-2.89ZM293.42,223.71l-.03.23c-.17,1.29-.28,1.63-12.46,36.34l-.6,1.7c-.85,2.42-3.11,4.05-5.62,4.05h-76.71l11.21-49.29c4.19,0,36.3-.04,58.34-.04,16.78,0,20.62.02,20.86.04,1.58.24,2.97,1.1,3.91,2.41.95,1.31,1.34,2.92,1.1,4.55Z"/>
          </g>
          <g>
            <path class="cls-1" d="M210.34,216.17c-3.59-.55-6.9,1.97-7.44,5.65-.05.4.62-1.55-12.49,35.82-1.23,3.49.53,7.34,3.93,8.6.73.27,1.48.4,2.22.4,2.67,0,5.19-1.7,6.15-4.44,13.56-38.66,12.87-36.69,13.12-38.39.54-3.67-1.93-7.09-5.5-7.63Z"/>
            <path d="M210.43,215.58c-3.98-.59-7.51,2.18-8.11,6.23-.05.28-1.06,3.17-8.95,25.64l-3.5,9.99c-.65,1.83-.56,3.82.25,5.59.81,1.76,2.24,3.1,4.03,3.76.79.29,1.6.43,2.41.43,2.99,0,5.68-1.94,6.69-4.83l.6-1.7q12.33-35.16,12.52-36.58l.03-.22c.58-3.98-2.1-7.71-5.98-8.31ZM215.27,223.71l-.03.23c-.17,1.29-.29,1.63-12.47,36.34l-.6,1.7c-.85,2.42-3.11,4.05-5.61,4.05-.69,0-1.37-.12-2.02-.37-1.5-.55-2.7-1.67-3.37-3.15-.68-1.48-.75-3.14-.21-4.69l3.5-9.98q8.99-25.63,9.01-25.95c.44-3.03,2.92-5.22,5.89-5.22.3,0,.6.02.9.07,3.25.5,5.5,3.62,5.01,6.96Z"/>
          </g>
        </g>
        <g>
          <g>
            <path d="M305.52,167.89c-.6-.09-79.74,0-79.74,0l-11.48,50.47h77.44c2.68,0,5.19-1.7,6.16-4.43,13.56-38.66,12.87-36.69,13.12-38.4.53-3.67-1.93-7.08-5.5-7.64Z"/>
            <path d="M305.6,167.31c-.1-.02-.3-.05-21.02-.05-23.63,0-58.8.04-58.8.04-.27,0-.5.2-.56.46l-11.47,50.47c-.04.17,0,.36.11.5.11.14.27.22.45.22h77.44c2.99,0,5.68-1.94,6.7-4.83l.54-1.54q12.39-35.32,12.58-36.75l.03-.22c.59-3.98-2.1-7.71-5.98-8.31ZM310.45,175.44l-.03.23c-.17,1.29-.29,1.64-12.52,36.51l-.54,1.54c-.85,2.42-3.1,4.05-5.61,4.05h-76.71l11.2-49.28c4.19,0,36.3-.04,58.34-.04,16.78,0,20.62.02,20.85.03,3.26.5,5.5,3.62,5.01,6.96Z"/>
          </g>
          <g>
            <path class="cls-1" d="M227.37,167.89c-3.59-.55-6.9,1.99-7.43,5.65-.06.41.61-1.55-12.49,35.83-1.23,3.49.54,7.34,3.93,8.59.73.27,1.48.4,2.21.4,2.68,0,5.2-1.7,6.16-4.43,13.56-38.66,12.87-36.69,13.12-38.4.54-3.67-1.93-7.08-5.5-7.64Z"/>
            <path d="M227.46,167.31c-3.98-.62-7.51,2.17-8.1,6.22-.05.28-1.05,3.11-8.79,25.17l-3.67,10.46c-1.33,3.8.59,7.99,4.28,9.36.78.29,1.59.43,2.41.43,2.99,0,5.68-1.94,6.7-4.83l.54-1.54q12.39-35.32,12.58-36.75l.03-.22c.58-3.98-2.11-7.71-5.98-8.31ZM232.31,175.44l-.03.23c-.17,1.29-.29,1.64-12.53,36.51l-.54,1.54c-.85,2.42-3.11,4.05-5.62,4.05-.68,0-1.36-.12-2.02-.36-3.09-1.15-4.7-4.67-3.59-7.85l3.67-10.46q8.83-25.15,8.85-25.48c.43-3.02,2.91-5.22,5.88-5.22.3,0,.6.03.89.07,3.25.5,5.5,3.62,5.02,6.96Z"/>
          </g>
        </g>
      </g>
    </g>
  </g>
</svg>