<?xml version="1.0" encoding="UTF-8"?>
<svg id="Capa_2" data-name="Capa 2" xmlns="http://www.w3.org/2000/svg" viewBox="0 0 282.96 321.29">
  <defs>
    <style>
      .cls-1 {
        fill: #fff;
      }

      .cls-2 {
        fill: #abfb4f;
      }

      .cls-3 {
        fill: blue;
      }

      .cls-4 {
        fill: #838489;
      }

      .cls-5 {
        fill: #4c4c4c;
      }

      .cls-6 {
        fill: #010101;
      }
    </style>
  </defs>
  <g id="Capa_1-2" data-name="Capa 1">
    <g>
      <g>
        <path class="cls-3" d="M100.58,198.38h-32.55C30.46,198.38,0,228.83,0,266.41v53.41h175.45v-53.41c0-37.57-37.29-68.03-74.87-68.03Z"/>
        <path d="M124.75,177.33c.16-1.08.45-2.71.8-4.74,2.29-13.35,2.58-26.92.92-40.36-.45-3.73-.89-7.67-1.22-11.01v-.03c-.35-4.24-1.08-9.04-2.58-14.49-7.33-26.3-25.12-28.88-34.36-30.54-42.97-7.74-65.52,20.99-61.98,50.35.35,3.12.57,5.83.61,8.25.06,3.38-.16,6.12-.61,8.47-.03.6-.03,1.24-.03,1.82-.03.57-.03,1.12-.03,1.65v.03c0,15.1,2.86,28.57,3.44,32.93,1.25,9.4-5.99,11.98-5.99,11.98,2.36,2.7,5.32,4.9,8.57,6.66.44.25.89.48,1.33.7.48.25.96.48,1.43.67,2.43,1.11,4.99,1.95,7.56,2.69l-.02.04c.17.04.33.07.51.11,3.72,1.02,7.45,1.74,10.89,2.2.41-.14.82-.29,1.23-.44,32.11,2.8,65.6-7.58,65.6-7.58.44-.22.88-.45,1.34-.7,3.24-1.75,6.21-3.95,8.57-6.66,0,0-7.23-2.58-6-11.97Z"/>
        <path class="cls-1" d="M102.53,191.76s12.79,46.84,4.82,89.89h-35.56s-2.42-84.13-2.42-84.13l33.16-5.77Z"/>
        <path d="M107.86,282.26h-36.66l-4.86-98.73,35.15.57.12.43c.12.41,14.26,54.52,6.35,97.23l-.09.5ZM72.38,281.04h34.46c7.25-39.87-5.06-91.28-6.29-95.73l-32.96-.53,4.79,96.26Z"/>
        <path class="cls-1" d="M72.47,82.49c-31.8,3.82-33.49,20.05-31.89,30.16,1.63,10.29,2.08,29.33,5.31,37.94,6.28,16.7,14.21,17.94,24.5,27.44,2.56,2.37,9.41,3.87,14.27,3.45,6.58-.56,10.37-3.68,12.48-6.66,8.12-11.4,17.17-18.76,17.96-35.48.43-9.19-3.63-24.73-4.49-35.1-.85-10.2-6.33-25.57-38.13-21.74Z"/>
        <path d="M111.45,104.17c-1.45-17.56-14.99-25.42-39.09-22.53-14,1.68-23.69,5.97-28.8,12.73-3.7,4.9-4.99,11.09-3.83,18.42.56,3.53.98,8.12,1.43,12.97.83,9.09,1.78,19.4,3.93,25.13,4.6,12.26,10.2,16.43,16.67,21.26,2.56,1.9,5.2,3.87,8.05,6.5,2.64,2.43,8.73,3.75,13.14,3.75.61,0,1.2-.03,1.78-.08,7.14-.61,11.07-4.16,13.1-7.01,1.69-2.37,3.42-4.56,5.1-6.7,6.36-8.09,12.38-15.74,13.01-29.24.27-5.56-1.08-13.36-2.39-20.9-.9-5.22-1.76-10.16-2.1-14.32ZM114.24,139.3c-.61,12.96-6.19,20.05-12.66,28.26-1.69,2.14-3.43,4.36-5.14,6.76-1.83,2.57-5.37,5.75-11.86,6.31-.52.04-1.06.07-1.63.07-4.72,0-9.98-1.45-11.99-3.29-2.91-2.7-5.58-4.69-8.18-6.62-6.51-4.87-11.67-8.71-16.09-20.49-2.07-5.52-3.01-15.71-3.83-24.68-.45-4.89-.87-9.5-1.43-13.09-1.08-6.85.1-12.61,3.5-17.12,4.82-6.37,14.12-10.43,27.64-12.06,3.26-.39,6.36-.59,9.22-.59,17.37,0,26.77,7.25,27.96,21.55.35,4.25,1.21,9.21,2.12,14.47,1.29,7.45,2.62,15.16,2.37,20.53Z"/>
        <path d="M94.68,78.47s-25.78-19.31-47.18-1.83c-21.39,17.49-8.9,51.42-8.9,51.42,7-6.39,13.62-8.51,13.62-8.51-1.89-15.72,4.38-21.66,4.38-21.66-1.39,8.34.41,19.14.41,19.14,4.2-.07,12.1-1.45,12.1-1.45l2.21-5.34,2.35,4.8,10.87-1.31c-.83-4.66,1.02-10.78,1.02-10.78,3,5.63,3.54,11.28,3.54,11.28,16.85-2.02,23.22,3.43,23.22,3.43,5.05-37.53-17.64-39.17-17.64-39.17Z"/>
        <path d="M95,77.64c-1.69-1.21-13.25-9.18-27.13-9.18-7.77,0-14.8,2.52-20.9,7.51-21.61,17.67-9.29,52.03-9.16,52.38.1.27.33.47.6.53.06.02.13.02.2.02.22,0,.41-.08.58-.22,6.76-6.17,13.23-8.32,13.3-8.33.39-.12.63-.51.59-.92-1.12-9.33.72-15.13,2.29-18.19-.55,7.56.75,15.52.81,15.91.08.42.38.76.86.71,4.22-.06,11.91-1.41,12.22-1.46.3-.05.54-.24.65-.52l1.49-3.59,1.51,3.09c.15.33.49.51.87.47l10.87-1.31c.23-.03.44-.15.59-.34.14-.19.2-.43.15-.66-.48-2.7-.01-5.97.43-8.11,2,4.63,2.42,8.79,2.43,8.84.01.23.13.44.31.58.18.15.42.21.63.18,2.46-.3,4.83-.44,7.05-.44,11,0,15.46,3.64,15.52,3.68.23.2.56.25.86.15.29-.11.5-.38.54-.68,1.97-14.64.03-25.67-5.75-32.79-4.96-6.11-11.08-7.17-12.42-7.32ZM111.64,116.17c-2.08-1.2-6.88-3.27-15.39-3.27-2.03,0-4.19.12-6.41.36-.28-1.83-1.14-6.27-3.52-10.74-.16-.31-.5-.49-.84-.45-.35.03-.64.27-.74.6-.07.24-1.69,5.64-1.16,10.29l-9.4,1.13-2.08-4.26c-.15-.3-.49-.52-.79-.48-.34.02-.63.22-.77.53l-2.03,4.91c-1.63.27-7.17,1.17-10.76,1.33-.37-2.56-1.45-11.25-.3-18.13.06-.36-.12-.72-.44-.89-.32-.17-.72-.12-.99.13-.27.25-6.39,6.25-4.72,21.71-1.77.67-6.81,2.85-12.29,7.59-1.92-6.14-9.4-34.18,9.04-49.26,5.78-4.73,12.46-7.13,19.82-7.13,14.13,0,26.18,8.9,26.3,8.99.13.09.29.16.45.17.06,0,6.45.53,11.48,6.72,5.29,6.52,7.16,16.65,5.55,30.13Z"/>
        <path d="M73.34,160.96l.24,1.69c.58-.08,14.2-2.07,22.6-8.28l-1.01-1.37c-8.05,5.95-21.68,7.94-21.82,7.96Z"/>
        <path d="M95.58,124.45c-2.2-.11-4.08,1.58-4.19,3.78-.04.76.15,1.48.49,2.09,4.57-2.37,7.48-1.48,7.48-1.69.11-2.2-1.58-4.07-3.78-4.18Z"/>
        <path d="M95.61,123.59h-.24c-2.58,0-4.7,2.02-4.84,4.6-.04.88.16,1.75.6,2.54.15.29.45.45.75.45.14,0,.27-.03.39-.09,2.05-1.06,4.04-1.59,5.92-1.59.29,0,.53.01.71.02h.31c.46.01.98-.38,1-.83.07-1.29-.37-2.53-1.25-3.49-.86-.96-2.06-1.52-3.35-1.59ZM98.19,127.78c-1.9,0-3.87.46-5.86,1.37-.08-.29-.1-.58-.09-.87.08-1.67,1.45-2.97,3.28-2.97h0c.84.03,1.6.4,2.16,1.02.38.42.63.92.75,1.46-.08,0-.16,0-.25,0Z"/>
        <path d="M81.55,143.08h-.04c-1.51.03-2.92,1.17-4.23,3.37-.24.41-.1.94.3,1.17.13.08.28.12.43.12.29,0,.58-.15.74-.42.94-1.61,1.93-2.51,2.77-2.53h.03c.91,0,1.58.99,1.59,1.03.26.4.79.51,1.18.26.4-.25.51-.79.26-1.18-.04-.08-1.17-1.82-3.04-1.82Z"/>
        <path d="M83.99,119.36l1,1.39s4.71-3.34,9.48-2.4c5.01,1.01,9.55,3.14,9.59,3.16l.74-1.55c-.2-.09-4.76-2.24-10-3.29-5.47-1.1-10.6,2.52-10.81,2.68Z"/>
        <path d="M61.55,132.04c-1.89,1.13-2.5,3.59-1.37,5.47.11.18,2.26-1.96,7.4-2.02,0-.71-.16-1.43-.55-2.08-1.14-1.89-3.58-2.5-5.47-1.37Z"/>
        <path d="M61.11,131.3c-1.12.67-1.9,1.73-2.21,2.98-.31,1.25-.12,2.56.55,3.67.15.26.44.43.75.43.29,0,.48-.12.8-.31.76-.46,2.82-1.68,6.59-1.73.47,0,.84-.38.84-.85,0-.9-.22-1.77-.67-2.53-1.32-2.2-4.43-2.99-6.64-1.67ZM60.59,136.33c-.15-.53-.17-1.09-.03-1.63.21-.81.72-1.5,1.43-1.93.48-.29,1.04-.44,1.61-.44,1.12,0,2.13.57,2.69,1.52.15.25.27.53.35.82-3.08.19-5.02,1.1-6.04,1.67Z"/>
        <path d="M48.51,223.32c-2.39,38.31,44.14,56.74,59.13,56.74,8.16,0-2.78-27.25-28.83-53.06-26.06-25.8-29.84-10.93-30.29-3.68Z"/>
        <path d="M56.23,211.58c-5.06,0-8.11,4.15-8.57,11.69-.8,12.83,3.63,24.49,13.19,34.66,14.09,15,36.22,22.98,46.78,22.98,1.46,0,2.55-.73,3.1-2.05,2.62-6.36-8.04-29.39-31.34-52.47-9.92-9.84-17.71-14.82-23.17-14.82ZM109.16,278.21c-.28.68-.76.99-1.52.99-10,0-31.96-8-45.54-22.45-9.22-9.81-13.51-21.03-12.73-33.37.28-4.61,1.71-10.09,6.86-10.09s12.38,4.82,21.97,14.32c22.1,21.9,33.27,44.96,30.96,50.6Z"/>
        <path d="M58.57,124.82c-4.12,3.39-7.14,7.44-7.27,7.61l1.38,1.01s3.03-4.06,6.98-7.3c3.75-3.07,9.43-2.36,9.49-2.35l.23-1.7c-.27-.03-6.48-.82-10.81,2.72Z"/>
        <path class="cls-1" d="M111.06,156.11c-4.19.6-45.49,19.4-45.49,19.4,0,0-3.49-7.25-9.27-13.43-5.79-6.18-11.57-1.59-8.78,2.19,2.79,3.79,5.58,9.78,6.18,15.76.59,5.98-3.14,14.95-2.75,22.93.4,7.97-10.66,52.98-10.66,52.98l35.68,21.35s-3.93-60.57,1.26-65.16c5.19-4.58,15.6-6.56,21.18-12.54,5.59-5.98,1.95-9.4,1.95-9.4,4.18-4.39,1.39-9.77,1.39-9.77,3.66-9.98-1.31-9.52-1.31-9.52,4.83-2.33,11.17-6.77,13.16-9.21,3.12-3.8,0-5.95-2.55-5.58Z"/>
        <path d="M110.93,155.27c-3.99.56-39.19,16.5-44.98,19.12-1.05-2.03-4.25-7.78-9.05-12.9-1.98-2.13-4.25-3.3-6.38-3.3-1.85,0-3.45.91-4.19,2.35-.67,1.33-.49,2.91.49,4.24,2.51,3.4,5.4,9.22,6.02,15.33.28,2.79-.46,6.36-1.21,10.15-.86,4.2-1.75,8.54-1.53,12.74.39,7.76-10.53,52.28-10.63,52.73l-.15.61,37.61,22.52-.1-1.63c-1.51-23.26-2.58-61.32.97-64.46,2.21-1.96,5.49-3.46,8.95-5.03,4.46-2.02,9.09-4.13,12.3-7.57,4.66-5,3.33-8.53,2.42-9.93,3.28-3.98,1.75-8.54,1.21-9.85,1.51-4.25,1.68-7.27.49-8.97-.18-.27-.39-.48-.6-.65,4.61-2.5,9.85-6.28,11.69-8.53,1.93-2.35,1.58-4.06,1.19-4.87-.69-1.48-2.6-2.38-4.52-2.09ZM112.94,161.15c-1.92,2.34-8.17,6.71-12.86,8.97l-3.26,1.63h3.73c.23,0,.81.05,1.22.64.49.71,1.04,2.65-.82,7.73l-.13.35.17.34c.1.2,2.45,4.91-1.25,8.79l-.58.62.6.59c.12.12,2.91,2.96-1.97,8.19-2.98,3.19-7.44,5.22-11.75,7.18-3.59,1.63-6.97,3.17-9.38,5.3-5.02,4.45-2.33,53.22-1.65,64.23l-33.75-20.2c1.38-5.64,10.92-45.01,10.54-52.6-.2-3.99.66-8.22,1.5-12.32.79-3.92,1.54-7.62,1.24-10.66-.65-6.45-3.71-12.59-6.35-16.18-.61-.82-.73-1.69-.34-2.46.43-.86,1.46-1.4,2.66-1.4,1.65,0,3.48.98,5.14,2.76,5.62,6.01,9.08,13.15,9.12,13.22l.36.76.76-.35c11.46-5.22,41.92-18.85,45.26-19.33,1.16-.16,2.35.34,2.73,1.14.36.77.02,1.85-.98,3.06Z"/>
        <path d="M85.38,184.86l.14,1.7c13.55-1.08,17.19-6.68,17.34-6.92l-1.45-.9s-3.33,5.11-16.03,6.12Z"/>
        <path d="M84.7,194.49l.14,1.71c13.55-1.08,17.2-6.69,17.34-6.93l-1.44-.91c-.04.05-3.45,5.13-16.04,6.13Z"/>
        <path class="cls-3" d="M48.77,219.69l-33.88,99.88h78.3l16.64-40.83c-70.99-27-61.06-59.05-61.06-59.05Z"/>
        <path d="M93.61,320.19H14.04l34.15-100.69,1.16.38c-.02.08-2.33,7.99,3.92,19.04,5.81,10.27,20.38,25.42,56.78,39.26l.58.22-17.02,41.79ZM15.74,318.96h77.05l16.24-39.87c-36.42-13.95-51.04-29.27-56.88-39.7-3.38-6.01-4.33-11.08-4.46-14.6l-31.94,94.17Z"/>
        <path d="M110.13,277.94c-69.27-26.35-60.65-57.69-60.55-58,.13-.45-.11-.92-.55-1.07-.45-.15-.92.1-1.07.54l-33.88,99.89c-.08.26-.04.54.12.77.16.22.42.35.69.35h78.3c.36,0,.67-.21.8-.53l16.63-40.84c.08-.22.08-.45-.01-.66-.09-.22-.27-.38-.48-.46ZM92.63,318.72H16.09l31.38-92.53c.9,10.94,9.72,33.25,61.24,53.04l-16.08,39.49Z"/>
        <path d="M110.13,277.03c-68.3-25.98-60.92-56.64-60.57-57.93.12-.45-.15-.92-.6-1.04-.46-.14-.92.14-1.05.6l-6.27,22.55c-.51,9.62,4.34,34.35,60.26,56.12.1.04.21.05.32.05.34,0,.66-.2.79-.53l7.62-18.71c.08-.21.08-.44-.01-.66-.09-.21-.27-.38-.48-.46ZM101.74,295.43c-55.67-21.89-58.78-46.95-58.41-53.95l4.36-15.63c1.37,11.14,10.96,33.22,61.02,52.46l-6.97,17.12Z"/>
        <path class="cls-1" d="M48.74,218.89l.03-.11s-.01.04-.03.11Z"/>
        <path d="M49,217.96c-.46-.14-.93.14-1.05.6,0,0-.03.11-.03.11-.12.44.14.84.57.98.02,0,.03.01.03.01.03.01.06.01.08.02.04.01.09.01.13.01.34,0,.66-.21.81-.53.02-.05.04-.09.06-.15h0c.12-.45-.15-.93-.6-1.05Z"/>
        <path class="cls-2" d="M78.6,70.95s-1.3.1-3.18.52c-6.56,1.47-6.74,10.71-.29,12.63,15.59,4.64,39.65,17.56,39.9,53.12,0,0,12.76-60.96-36.43-66.28Z"/>
        <path class="cls-2" d="M69.77,69.43s1.43.12,3.49.58c7.21,1.62,7.41,11.77.32,13.88-17.13,5.09-43.55,19.28-43.83,58.34,0,0-14.02-66.95,40.01-72.8Z"/>
        <g>
          <g>
            <path class="cls-6" d="M29.93,314.68c0,3.32,2.69,6.01,6.01,6.01h102.18v-6.01H29.93Z"/>
            <path class="cls-6" d="M138.11,321.29H35.93c-3.64,0-6.61-2.97-6.61-6.61,0-.33.27-.6.6-.6h108.18c.34,0,.6.27.6.6v6.01c0,.34-.27.6-.6.6ZM30.56,315.28c.3,2.71,2.6,4.81,5.38,4.81h101.58v-4.81H30.56Z"/>
          </g>
          <g>
            <path class="cls-6" d="M275.86,224.53h-132.4c-1.97,0-3.67,1.25-4.25,3.1l-27,87.42c-.41,1.33-.16,2.75.67,3.87.85,1.12,2.15,1.76,3.57,1.76h132.4c1.97,0,3.68-1.24,4.25-3.1l27-87.42c.41-1.34.17-2.75-.68-3.88-.85-1.12-2.14-1.77-3.56-1.77Z"/>
            <path class="cls-6" d="M248.85,321.29H116.45c-1.6,0-3.08-.73-4.05-2-.95-1.29-1.24-2.9-.77-4.42l27-87.42c.66-2.11,2.59-3.52,4.82-3.52h132.4c1.61,0,3.08.73,4.04,2,.96,1.28,1.25,2.88.78,4.42l-27,87.42c-.65,2.11-2.58,3.53-4.83,3.53ZM143.46,225.13c-1.7,0-3.18,1.08-3.67,2.67l-27,87.42c-.35,1.15-.14,2.37.58,3.34.73.97,1.86,1.52,3.09,1.52h132.4c1.71,0,3.18-1.08,3.68-2.68l27-87.41c.35-1.17.14-2.38-.59-3.34-.73-.98-1.86-1.53-3.08-1.53h-132.4Z"/>
          </g>
          <g>
            <path class="cls-1" d="M277.92,224.53h-132.41c-1.96,0-3.67,1.25-4.25,3.1l-27,87.42c-.41,1.33-.17,2.75.68,3.87.85,1.12,2.15,1.76,3.56,1.76h132.4c1.97,0,3.68-1.24,4.25-3.1l27.01-87.42c.41-1.34.16-2.75-.68-3.88-.85-1.12-2.15-1.77-3.56-1.77Z"/>
            <path class="cls-6" d="M250.91,321.29H118.51c-1.61,0-3.08-.73-4.05-2-.96-1.29-1.24-2.9-.77-4.42l27-87.42c.66-2.11,2.6-3.52,4.82-3.52h132.41c1.61,0,3.08.73,4.04,2,.96,1.29,1.24,2.89.78,4.42l-27.01,87.42c-.65,2.11-2.59,3.53-4.82,3.53ZM145.51,225.13c-1.69,0-3.17,1.08-3.67,2.68l-27,87.42c-.36,1.15-.14,2.37.59,3.34.73.97,1.86,1.52,3.08,1.52h132.4c1.71,0,3.18-1.08,3.67-2.68l27.01-87.41c.36-1.16.14-2.37-.59-3.35-.73-.97-1.86-1.52-3.08-1.52h-132.41Z"/>
          </g>
        </g>
      </g>
      <g>
        <g>
          <path class="cls-2" d="M206.01,0h-.68c-33,0-59.75,26.74-59.75,59.72,0,19.78,9.65,37.26,24.48,48.12,2.4,1.77,3.82,4.57,3.82,7.56v13.1c0,1.74,1.41,3.15,3.15,3.15h57.29c1.74,0,3.15-1.41,3.15-3.15v-13.1c0-2.98,1.42-5.79,3.82-7.56,14.83-10.86,24.48-28.34,24.48-48.12,0-32.98-26.75-59.72-59.75-59.72Z"/>
          <path class="cls-5" d="M175.02,143.08h61.3c2.04,0,3.69,1.65,3.69,3.69v1.2c0,2.04-1.65,3.69-3.69,3.69h-61.3c-2.04,0-3.69-1.65-3.69-3.69v-1.2c0-2.04,1.65-3.69,3.69-3.69Z"/>
          <path class="cls-4" d="M175.02,134.49h61.3c2.04,0,3.69,1.65,3.69,3.69v1.2c0,2.04-1.66,3.69-3.69,3.69h-61.3c-2.04,0-3.69-1.65-3.69-3.69v-1.21c0-2.04,1.65-3.69,3.69-3.69Z"/>
          <path class="cls-5" d="M175.02,125.91h61.3c2.04,0,3.69,1.65,3.69,3.69v1.2c0,2.04-1.65,3.69-3.69,3.69h-61.3c-2.04,0-3.69-1.65-3.69-3.69v-1.2c0-2.04,1.65-3.69,3.69-3.69Z"/>
          <path class="cls-4" d="M218.54,160.25h-25.75c-4.74,0-8.58-3.84-8.58-8.58h42.92c0,4.74-3.84,8.58-8.58,8.58Z"/>
        </g>
        <g>
          <path class="cls-1" d="M219.91,25.74c-18.97-7.87-40.73,1.13-48.6,20.1-7.87,18.97,1.13,40.74,20.11,48.61,18.97,7.87,40.73-1.13,48.61-20.11,7.87-18.97-1.13-40.73-20.11-48.6Z"/>
          <path class="cls-6" d="M205.66,97.59c-4.86,0-9.73-.96-14.36-2.88-9.25-3.83-16.44-11.04-20.27-20.3-3.82-9.25-3.82-19.44.02-28.68,7.92-19.09,29.89-28.16,48.97-20.26h0c9.25,3.84,16.44,11.04,20.27,20.29,3.83,9.26,3.82,19.44-.01,28.68-3.84,9.25-11.05,16.45-20.3,20.28-4.62,1.91-9.47,2.86-14.33,2.86ZM205.71,23.19c-14.49,0-28.25,8.57-34.13,22.76-3.78,9.11-3.79,19.14-.02,28.25s10.86,16.21,19.96,19.98c18.8,7.8,40.43-1.16,48.23-19.95,3.78-9.1,3.78-19.13.02-28.24-3.77-9.11-10.87-16.21-19.97-19.98h0c-4.61-1.91-9.39-2.82-14.09-2.82Z"/>
        </g>
        <polygon points="198.92 84.84 178.92 64.83 187.01 56.74 198.92 68.65 223.32 44.26 231.41 52.35 198.92 84.84"/>
      </g>
    </g>
  </g>
</svg>