<?xml version="1.0" encoding="UTF-8"?>
<svg id="Capa_2" data-name="Capa 2" xmlns="http://www.w3.org/2000/svg" viewBox="0 0 267.97 231.2">
  <defs>
    <style>
      .cls-1 {
        fill: #fff;
      }

      .cls-2 {
        fill: #6cf;
      }

      .cls-3 {
        fill: #080717;
      }
    </style>
  </defs>
  <g id="_Layer_" data-name="&amp;lt;Layer&amp;gt;">
    <g>
      <path class="cls-3" d="M2.74,170.86l4.11-1.92c4.82-2.25,10.33-2.5,15.33-.69l54.02,19.6,35.98-16.83,31.35,11.37-50.45,23.59c-4.85,2.27-10.4,2.52-15.43.69L3.14,179.64c-3.98-1.45-4.23-6.99-.39-8.78Z"/>
      <path class="cls-2" d="M100.67.03C46.73-1.21,1.83,41.68.6,95.62c-1.24,53.93,41.64,98.81,95.58,100.06,53.95,1.22,98.84-41.65,100.08-95.59C197.49,46.15,154.6,1.25,100.67.03Z"/>
      <g>
        <path class="cls-1" d="M135.66,38.99l-9.67,2.79c-4.12,1.19-10.77.92-14.79-.58h-.03c-4.01-1.52-9.95-.45-13.18,2.36l-2.32,2.01c-3.24,2.81-4.63,7.14-3.09,9.62,1.54,2.48-.28,6.2-4.04,8.27l-.12.07c-3.76,2.07-6.69,4.72-6.51,5.89.18,1.17,3.49,2.75,7.35,3.5,3.87.75,10.07,3.12,13.78,5.27l3.21,1.86c3.71,2.15,3.32,4.66-.86,5.59l-.23.05c-4.19.93-9.05.69-10.81-.52-1.76-1.21-5.56-1.71-8.45-1.1-2.89.61-6.51,4.38-8.06,8.38l-1.82,4.71c-1.55,4-1.65,9.41-.22,12.03,1.42,2.62,5.39,4.94,8.83,5.16,3.43.22,6.77,3.87,7.41,8.11l1.52,10.06c.64,4.24,2.52,10.94,4.16,14.9l.37.88c1.65,3.96,4.67,6.18,6.7,4.93,2.04-1.24,5.09-5.48,6.79-9.42l11.27-26.1c1.7-3.94.96-8.05-1.63-9.14-2.6-1.09-5.2-4.91-5.79-8.48-.59-3.57,1.7-5.35,5.09-3.95,3.39,1.4,7.02,2.79,8.08,3.08,1.06.29,3.7-1.63,5.87-4.27s5.59-1.7,7.6,2.09l1.39,2.61c2.01,3.79,6.61,4.99,10.22,2.67l.49-.32c3.61-2.32,8.07-1.05,9.93,2.82l1.93,4.04c1.85,3.87,4.98,3.92,6.96.11l7.6-14.62c1.98-3.8,5.79-9.65,8.47-13l4.63-5.79c-4.77-20.36-15.94-38.35-31.3-51.66l-13.03,8.27c-3.43,2.57-9.6,5.65-13.72,6.84Z"/>
        <path class="cls-1" d="M13.82,100.91c-2.26-3.01-4.39-6.12-4.36-6.4s.7-2.24,1.49-4.35c.79-2.11,1.9-4.48,2.2-4.6.3-.12,3.39-.42,6.88-.67,3.48-.25,9-2.74,12.26-5.52l10.92-9.34c3.26-2.79,3.76-7.82,1.11-11.19l-1.59-2.02c-2.65-3.37-6.15-4.04-7.77-1.49-1.63,2.55-3.3,4.95-3.72,5.33h-.9c-.49-.39-2.37-3.2-4.17-6.22-1.8-3.02-3.49-6.2-3.41-6.49.07-.29,1.88-3.57,4.03-7.28l2.27-3.94c1.54-2.67,2.57-6.79,2.75-10.46C13.14,43.63,1.23,68.19.6,95.62c-.01.5-.01,1-.02,1.5,3.42,2.14,7.68,4.56,10.59,5.97,3.71,1.81,4.9.82,2.64-2.18Z"/>
        <path class="cls-1" d="M25.71,102.66c-3.59-1.85-7.36-.23-8.39,3.61l-1.6,5.96c-1.03,3.84.22,9.39,2.78,12.33l2,2.3c2.56,2.94,4.7,5.44,4.77,5.54.07.1.72,3.51,1.41,7.3l.99,5.41c.69,3.8,2.66,8.75,4.37,11.01,1.71,2.26,4.08.99,5.25-2.82l9.72-31.61c1.17-3.81-.8-8.45-4.39-10.3l-16.91-8.75Z"/>
        <path class="cls-1" d="M74.94,28.85l1.48-6.02c1.02-4.16-1.49-7.14-5.58-6.62-4.09.52-16.2,6.15-16.2,6.15-4.05,1.41-5.92,5.76-4.15,9.66l4.11,9.1c1.76,3.91,5.98,4.96,9.38,2.34l2.95-2.27c3.39-2.62,7.01-8.17,8.03-12.33Z"/>
      </g>
      <g>
        <path class="cls-1" d="M266.97,191.59l-69.2-37.25c-11.75-7.6-26.05-10.22-39.73-7.28l-66.71,14.33c-7.88,1.69-12.9,9.45-11.2,17.33h0c.46,2.16,2.59,3.54,4.75,3.07l41.71-8.96c1.95-.42,3.87.82,4.29,2.78.42,1.95-.82,3.87-2.78,4.29l-50.33,10.81-50.21-32.46c-4.64-3-10.29-4.04-15.7-2.88l-4.62.99c-4.31.93-5.35,6.6-1.65,9l69.26,44.77c4.68,3.02,10.36,4.06,15.8,2.89l69.12-14.84c11.36-2.44,23.23-.27,32.99,6.04l40.16,25.96,34.04-38.61Z"/>
        <path class="cls-3" d="M232.93,231.2c-.19,0-.37-.05-.54-.16l-40.16-25.96c-9.6-6.21-21.05-8.31-32.23-5.9l-69.12,14.84c-5.74,1.23-11.62.16-16.56-3.03L5.06,166.21c-2.06-1.33-3.06-3.66-2.62-6.07.44-2.41,2.21-4.23,4.6-4.74l4.62-.99c5.71-1.23,11.55-.16,16.45,3.01l49.86,32.23,49.93-10.72c.68-.15,1.27-.55,1.65-1.14.38-.59.51-1.29.36-1.97-.3-1.41-1.7-2.31-3.11-2.01l-41.71,8.96c-1.31.28-2.64.04-3.77-.69-1.12-.73-1.89-1.84-2.17-3.15-.87-4.07-.11-8.24,2.15-11.74,2.26-3.5,5.75-5.91,9.82-6.78l66.71-14.33c14.04-3.02,28.42-.38,40.48,7.42l69.13,37.21c.49.26.67.87.41,1.35-.26.49-.87.67-1.35.41l-69.2-37.25c-11.68-7.55-25.53-10.08-39.05-7.18l-66.71,14.33c-3.55.76-6.59,2.86-8.56,5.91-1.97,3.05-2.64,6.68-1.87,10.23.17.78.63,1.46,1.31,1.89.67.44,1.48.58,2.26.41l41.71-8.96c2.49-.53,4.95,1.06,5.48,3.54.26,1.21.03,2.44-.64,3.47-.67,1.04-1.7,1.75-2.91,2.01l-50.33,10.81c-.26.06-.53,0-.75-.14l-50.21-32.46c-4.45-2.88-9.76-3.85-14.95-2.74l-4.62.99c-1.9.41-2.83,1.9-3.06,3.15-.23,1.26.11,2.97,1.74,4.03l69.26,44.77c4.48,2.9,9.83,3.88,15.05,2.76l69.12-14.84c11.71-2.51,23.69-.32,33.74,6.18l40.16,25.96c.46.3.6.92.3,1.38-.19.3-.51.46-.84.46Z"/>
      </g>
      <path class="cls-3" d="M120.71,15.68c-7.66,0-13.87,6.21-13.87,13.87s13.87,28.67,13.87,28.67c0,0,13.87-21.01,13.87-28.67s-6.21-13.87-13.87-13.87ZM120.71,34.42c-2.27,0-4.1-1.84-4.1-4.11s1.84-4.11,4.1-4.11,4.1,1.84,4.1,4.11-1.84,4.11-4.1,4.11Z"/>
      <path class="cls-3" d="M28.93,40.95c-7.66,0-13.87,6.21-13.87,13.87s13.87,28.67,13.87,28.67c0,0,13.87-21.01,13.87-28.67s-6.21-13.87-13.87-13.87ZM28.93,59.7c-2.27,0-4.1-1.84-4.1-4.11s1.84-4.11,4.1-4.11,4.1,1.84,4.1,4.11-1.84,4.11-4.1,4.11Z"/>
      <path class="cls-3" d="M152.64,46.27c-7.66,0-13.87,6.21-13.87,13.87s13.87,28.67,13.87,28.67c0,0,13.87-21.01,13.87-28.67s-6.21-13.87-13.87-13.87ZM152.64,65.02c-2.27,0-4.1-1.84-4.1-4.11s1.84-4.11,4.1-4.11,4.1,1.84,4.1,4.11-1.84,4.11-4.1,4.11Z"/>
    </g>
  </g>
</svg>