<?xml version="1.0" encoding="UTF-8"?>
<svg id="Capa_2" data-name="Capa 2" xmlns="http://www.w3.org/2000/svg" viewBox="0 0 1249.89 1161.85">
  <defs>
    <style>
      .cls-1 {
        fill: #fff;
      }

      .cls-2 {
        fill: #abfb4f;
      }

      .cls-3 {
        fill: blue;
      }

      .cls-4 {
        fill: #0e0e27;
      }

      .cls-5 {
        fill: #010101;
      }
    </style>
  </defs>
  <g id="Capa_1-2" data-name="Capa 1">
    <g>
      <g>
        <g>
          <rect class="cls-5" x="691.66" y="937.22" width="177.92" height="222.4"/>
          <g>
            <path class="cls-1" d="M1223.63,225.53H337.62c-13.27,0-24.03,10.76-24.03,24.03v663.63c0,13.27,10.76,24.03,24.03,24.03h886.01c13.29,0,24.04-10.76,24.04-24.03V249.56c0-13.27-10.75-24.03-24.04-24.03Z"/>
            <path class="cls-5" d="M1223.63,939.45H337.62c-14.48,0-26.26-11.78-26.26-26.26V249.56c0-14.47,11.78-26.26,26.26-26.26h886.01c14.49,0,26.26,11.78,26.26,26.26v663.63c0,14.48-11.77,26.26-26.26,26.26ZM337.62,227.76c-12.02,0-21.81,9.78-21.81,21.8v663.63c0,12.02,9.79,21.81,21.81,21.81h886.01c12.03,0,21.83-9.79,21.83-21.81V249.56c0-12.02-9.79-21.8-21.83-21.8H337.62Z"/>
          </g>
        </g>
        <g>
          <g>
            <path class="cls-1" d="M340.51,624.25s-3.36,41.91,5.67,80.73c0,0-123-38.1-160.33-38.1,0,0,8.09-37.94,5.82-61.45l148.84,18.82Z"/>
            <path class="cls-5" d="M346.18,707.21c-.22,0-.45-.03-.66-.1-1.23-.38-123.09-38-159.67-38-.67,0-1.3-.31-1.73-.82-.42-.52-.59-1.21-.45-1.87.08-.37,7.99-37.88,5.79-60.77-.06-.67.19-1.35.66-1.81.5-.47,1.19-.67,1.84-.61l148.83,18.82c1.17.15,2.03,1.19,1.93,2.38-.03.42-3.22,42.03,5.61,80.06.19.77-.06,1.59-.64,2.13-.42.39-.97.6-1.52.6ZM188.56,664.72c36.47,1.48,134.09,30.74,154.62,37.01-6.91-32.67-5.53-66.82-5.03-75.54l-144.04-18.21c1.25,20.14-3.83,48.06-5.55,56.74Z"/>
          </g>
          <g>
            <path class="cls-3" d="M465.7,1159.63H2.22c0-314.23,183.62-492.74,183.62-492.74,0,0,190.79,2.93,229.72,41.42,34.25,33.87,50.13,451.32,50.13,451.32Z"/>
            <path class="cls-3" d="M465.7,1161.85H2.22c-1.23,0-2.22-1-2.22-2.23,0-311.57,182.46-492.55,184.3-494.34.41-.4.98-.63,1.55-.63h.03c7.83.12,192.14,3.39,231.25,42.06,34.49,34.1,50.13,435.74,50.78,452.82.02.61-.2,1.19-.61,1.63-.43.43-1,.68-1.61.68ZM4.45,1157.4h458.92c-1.35-33.48-17.42-415.92-49.37-447.51-36.48-36.06-212.74-40.46-227.26-40.77-11.93,12.09-181.46,189.36-182.3,488.28Z"/>
          </g>
          <path d="M393.02,496.83c.17-9.15,5.41-15.8,12.03-24.21,9.87-12.62,22.19-28.29,24-60.11.88-15.42-2.77-27.52-10.81-35.97-7.88-8.29-18.48-11.46-27.03-12.58,20.41-10.2,26.43-28.86,26.73-29.79l1.44-4.89-4.88,1.79s-2.12.76-8.57.76c-10.86,0-32.66-2.06-74.95-11.8-15.98-3.68-30.61-5.55-43.49-5.55-49.42,0-62.27,27.39-65.34,37.65-6.28-3.79-12.7-5.71-19.16-5.71-16.76,0-32.86,12.86-45.37,36.22-26.84,50.13-30.83,136.96,8.99,195.49,25.46,37.4,58.19,56.35,97.32,56.35s79.77-17.08,125.55-50.77c33.64-24.77,21.6-46.73,11.91-64.36-4.38-7.98-8.53-15.53-8.38-22.52Z"/>
          <g>
            <path class="cls-1" d="M402.86,563.85c-2.02-28.06-10.25-82.49-16.1-109.56-13.57-62.77-57.03-37.51-57.03-37.51-62.64-16.04-120.82,16.84-123.6,38.16-1.43,10.87-1.97,32.06-1.45,53.75-.11,0-.25-.02-.39-.02-20.68,0-37.46,16.63-37.46,37.15s16.78,37.16,37.46,37.16c2.72,0,5.35-.29,7.89-.85,4.12,28.34,9.34,64.69,33.42,86.33,15.34,13.81,46.83-3.6,56.78,22.84,36.11-1.69,68.03-11.05,91.51-38.29,17.41-20.2,11-61.09,8.98-89.17Z"/>
            <path class="cls-5" d="M302.36,693.53c-.92,0-1.76-.57-2.09-1.44-5.29-14.05-17.27-14.5-29.95-14.96-9.47-.35-19.25-.72-26.24-7.01-24.03-21.6-29.61-56.64-33.79-85.37-2,.31-4.02.46-6.03.46-21.88,0-39.68-17.67-39.68-39.39s16.79-38.36,37.8-39.33c-.43-21.29.15-41.47,1.52-51.84.99-7.59,7.82-16.03,19.22-23.75,21.46-14.54,62.06-27.53,106.29-16.48,3.65-1.89,18.43-8.6,33.08-2.14,12.79,5.65,21.69,19.62,26.42,41.55,5.59,25.88,14.05,80.65,16.15,109.86.26,3.63.6,7.46.95,11.44,2.37,27.2,5.31,61.05-10.46,79.35-21.26,24.66-50.84,37.08-93.09,39.06h-.11ZM212.16,579.92c.45,0,.89.14,1.27.4.5.35.85.89.93,1.51,4.15,28.61,9.29,63.94,32.7,84.99,5.79,5.2,14.36,5.53,23.42,5.86,12.54.46,26.71.98,33.34,16.32,40.11-2.15,68.22-14.06,88.36-37.44,14.54-16.87,11.69-49.68,9.39-76.05-.35-4.01-.68-7.86-.94-11.5-2.1-29.04-10.5-83.51-16.06-109.26-4.42-20.45-12.46-33.37-23.88-38.42-14.51-6.39-29.72,2.27-29.86,2.37-.51.27-1.1.39-1.67.23-43.08-11.04-82.71,1.54-103.55,15.66-10.19,6.88-16.49,14.41-17.3,20.63-1.39,10.53-1.95,31.5-1.43,53.41.01.6-.22,1.18-.63,1.61-.42.43-1,.67-1.6.67h-.02c-19.81,0-35.6,15.66-35.6,34.91s15.8,34.93,35.23,34.93c2.49,0,4.98-.26,7.43-.78.15-.03.31-.05.47-.05Z"/>
          </g>
          <path d="M402.89,563.87c-.27-3.66-.75-8.19-1.36-13.27-8.75,5.48-19.54,8.8-32.48,8.8-16.04,0-25.19-6.77-37.46-8.66-16.46-2.57-32.36,1.62-43.07,9.26-13.52,9.62-25.79,19.22-47.58,19.22-11.93,0-22.03-2.77-30.37-7.5,4.66,29.24,7.86,72.29,35.02,96.73,15.36,13.8,46.8-3.58,56.77,22.82,36.1-1.62,68.04-11.03,91.5-38.26,17.41-20.24,11-61.12,9.01-89.14ZM336.59,598.6c-4.77,1.81-9.62,2.74-14.49,2.74-12.27,0-21.61-5.93-25.43-11.82-2.22-3.42-2.72-6.88-1.39-9.76.23-.49,1.31-1.07,5.22-1.07,1.84,0,3.96.13,6.34.24,3.18.17,6.82.36,10.84.36,12.83,0,23.93-1.97,34.95-6.22,3.16-1.24,6.61-1.36,7.35-.39.37.48.39,1.52.05,2.87-1.68,6.32-9.32,17.69-23.44,23.06Z"/>
          <path d="M347.78,461.02l1.8,4.76c.12-.05,13.98-4.92,38.15,3.07l1.62-4.82c-26.04-8.6-40.93-3.24-41.57-3.01Z"/>
          <path d="M254.57,468.21l2.65,4.33c21.71-13.19,36.33-11.55,36.48-11.53l.65-5.04c-.63-.09-16.39-1.99-39.78,12.24Z"/>
          <path d="M272.85,497.3c-4.8,0-8.69,3.88-8.69,8.62s3.89,8.63,8.69,8.63,8.7-3.88,8.7-8.63-3.91-8.62-8.7-8.62Z"/>
          <path d="M363.15,487.04c-4.8,0-8.72,3.87-8.72,8.62s3.92,8.62,8.72,8.62,8.7-3.88,8.7-8.62-3.92-8.62-8.7-8.62Z"/>
          <path d="M323.87,521.9l-1.17,4.94c1.9.45,4.28,1.3,4.82,2.91.67,2.03-1.48,5.13-2.28,6.04l3.87,3.34c.52-.59,4.93-5.81,3.28-10.93-1-3.09-3.87-5.22-8.51-6.3Z"/>
          <g>
            <path class="cls-2" d="M922.08,1084.17c-56.9,0-106.55,30.59-106.55,68.2,0,2.19.22,4.46.67,7.04h208.44c.41-2.54.63-4.82.63-7.04,0-37.61-46.28-68.2-103.19-68.2Z"/>
            <path class="cls-2" d="M1024.64,1161.63h-208.44c-1.08,0-2-.77-2.19-1.83-.48-2.69-.7-5.12-.7-7.43,0-38.17,49.8-70.42,108.77-70.42s105.4,31.59,105.4,70.42c0,2.28-.2,4.62-.65,7.39-.17,1.07-1.11,1.87-2.19,1.87ZM818.09,1157.18h204.62c.24-1.74.35-3.3.35-4.81,0-36.38-45.3-65.97-100.97-65.97s-104.34,30.21-104.34,65.97c0,1.54.13,3.1.35,4.81Z"/>
          </g>
          <g>
            <path class="cls-1" d="M889.74,1008.16c-.78,0-1.48.08-2.04.25-12.86,3.86-36.31,21.43-55.19,35.53-14.21,10.63-25.43,19.03-30.99,21.02-.93.33-2.11.49-3.69.49-23.54,0-112.31-20.63-112.31-20.63l-43.48,114.59c24.17.49,80.86,0,176.49,0s115.68-6.82,117.87-7.95c6.39-3.69,10.16-7.85,10.95-12.04.8-4.31-1.69-7.5-1.8-7.61l-2.22-2.65,2.89-1.89c2.46-1.61,3.69-3.42,3.78-5.58.26-6.09-7.89-13.9-11.06-16.39l-3.28-2.6,3.43-2.37c4.67-3.18,6.86-6.59,6.71-10.41-.35-9.61-15.12-20.35-20.76-23.68l3.02-5.38c.83.44,20.29,10.74,28.13,19.34,11.25,12.29,25.8,16.66,34.86,16.66,3.84,0,5.91-.8,6.28-1.16.13-.22.26-1.85-1.85-5.62-13.62-24.48-84.42-81.93-105.73-81.93Z"/>
            <path class="cls-5" d="M677.24,1161.85c-15.53,0-27.17-.05-35.25-.22-.72-.02-1.39-.38-1.8-.98-.39-.61-.5-1.36-.24-2.04l43.48-114.59c.41-1.05,1.5-1.66,2.58-1.37.89.2,88.79,20.57,111.81,20.57,1.28,0,2.26-.12,2.95-.36,5.28-1.91,16.92-10.62,30.41-20.71,19.07-14.27,42.68-31.91,55.86-35.88.76-.23,1.65-.35,2.69-.35,22.24,0,93.35,57.34,107.66,83.08,1.17,2.11,2.98,5.92,1.82,7.84-.11.17-.22.33-.37.46-1.11,1.09-4.19,1.79-7.82,1.79-9.49,0-24.76-4.55-36.51-17.39-6.19-6.8-20.46-15-25.61-17.84l-.91,1.63c5.19,3.42,19.63,13.82,20,24.35.2,4.65-2.32,8.68-7.67,12.32l-.96.65.93.73c.11.1,12.25,9.72,11.88,18.23-.11,2.88-1.72,5.34-4.78,7.34l-.8.52.63.74c.56.55,3.19,4.47,2.28,9.45-.91,4.84-5.06,9.53-12.03,13.55-3.82,1.98-23.44,8.25-118.98,8.25-37.55,0-69.09.08-95.02.13-18.14.04-33.51.09-46.26.09ZM645.23,1157.24c15.18.22,40.79.17,78.25.09,25.93-.06,57.49-.14,95.04-.14,96.98,0,114.35-6.42,116.85-7.7,5.63-3.26,9.12-6.99,9.77-10.48.63-3.29-1.28-5.75-1.3-5.77l-2.24-2.66c-.39-.48-.59-1.12-.48-1.75.09-.63.43-1.18.98-1.53l2.89-1.9c2.41-1.58,2.74-2.92,2.78-3.8.2-4.79-6.8-11.87-10.21-14.55l-3.3-2.6c-.54-.45-.85-1.12-.83-1.82.02-.71.37-1.36.96-1.76l3.43-2.37c4-2.71,5.86-5.49,5.76-8.49-.28-7.65-12.23-17.45-19.68-21.84-1.04-.62-1.41-1.95-.8-3.01l3.02-5.38c.56-1.04,1.85-1.43,2.98-.88.83.43,20.61,10.9,28.73,19.81,10.75,11.76,24.61,15.93,33.21,15.93,1.76,0,3.06-.18,3.89-.37-.2-.67-.61-1.68-1.39-3.09-13.08-23.48-83.57-80.79-103.8-80.79-.74,0-1.17.08-1.39.15-12.44,3.75-35.7,21.13-54.38,35.1-14.46,10.82-25.78,19.29-31.69,21.43-1.22.42-2.63.62-4.45.62-21.89,0-97.58-17.19-110.92-20.25l-41.68,109.81Z"/>
          </g>
          <g>
            <path d="M190.37,524.11c-8.78,3.67-13.81,11.55-13.48,21.11.63,17.86,17.72,24.26,26.66,25.15l.52-5.06c-.89-.09-21.44-2.32-22.07-20.26-.26-7.48,3.51-13.39,10.35-16.26,7.29-3.05,16.06-1.66,20.85,3.32l3.71-3.52c-6.33-6.54-17.23-8.38-26.55-4.48Z"/>
            <path d="M195.48,537.91c-1.4-2.88-1.13-6.56.87-10.96l-4.68-2.07c-2.65,5.86-2.9,11.01-.74,15.3,3.24,6.55,10.84,8.38,11.15,8.46l1.19-4.93c-.05-.02-5.6-1.41-7.8-5.8Z"/>
          </g>
          <path class="cls-3" d="M614.91,948.7c-84.99-48.06-149.21-198.37-199.34-240.4l-210.1,153.03c116.91,145.32,291.05,298.29,406.55,298.29h151.99l23.63-142.23s-100.1-27.62-172.73-68.7Z"/>
          <path class="cls-5" d="M764.01,1161.85h-151.99c-115.81,0-288.49-150.23-408.29-299.13-.76-.96-.61-2.36.35-3.13.91-.77,2.32-.63,3.13.35,119.12,148.06,290.48,297.45,404.81,297.45h150.1l23-138.41c-14.29-4.08-104.79-30.74-171.3-68.36-52.02-29.41-95.54-95.6-133.96-154-24.83-37.72-46.24-70.29-65.72-86.63-.93-.79-1.06-2.19-.27-3.14.79-.93,2.2-1.05,3.14-.27,19.97,16.76,41.57,49.58,66.57,87.59,38.14,57.98,81.36,123.69,132.42,152.58,71.56,40.47,171.23,68.21,172.23,68.49,1.11.29,1.8,1.38,1.61,2.51l-23.63,142.23c-.17,1.06-1.11,1.86-2.19,1.86Z"/>
        </g>
      </g>
      <g>
        <path class="cls-1" d="M531.2,519.54l156.81-234.59c4.82-7.24,13.23-12.47,22.44-13.95,4.06-.66,8.04-.59,11.77.26l275.38,61.76,106.71,266.85-466.4,186.53-106.71-266.86Z"/>
        <path class="cls-5" d="M637,788.54c-.56-.24-1.02-.71-1.26-1.27l-106.71-266.87c-.31-.71-.2-1.52.24-2.16l156.81-234.59c5.17-7.76,14.14-13.36,24.02-14.95,4.35-.73,8.62-.61,12.62.28l275.38,61.76c.74.17,1.39.7,1.65,1.42l106.73,266.85c.48,1.19-.11,2.55-1.3,3.03l-466.4,186.52c-.28.12-.56.17-.87.17-.33,0-.61-.07-.91-.2ZM995.88,335.03l-274.18-61.5c-3.41-.76-7.08-.83-10.88-.23-8.58,1.39-16.38,6.22-20.87,12.96l-156.14,233.56,105.4,263.56,462.05-184.8-105.38-263.55Z"/>
      </g>
      <g>
        <g>
          <path d="M829.97,553.01c13.34,7.29,34.42,19.2,37.38,33.63,2.91,14.43-53.82,20.02-53.82,20.02l-179.64-169.81,79.51-35.92s103.21,144.81,116.57,152.08Z"/>
          <polygon class="cls-2" points="806.43 583.69 673.01 453.57 674.99 451.55 808.4 581.67 806.43 583.69"/>
        </g>
        <g>
          <path class="cls-2" d="M617.36,478.55c-12.36,4.45-30.86-4.12-45-20.81-7.82-9.25-13.16-19.7-15.03-29.41-1.93-10.05,1.74-16.72,5.63-22.89l172.34-272.68,182.05,215.06-299.98,130.73Z"/>
          <path class="cls-2" d="M570.6,459.25c-8.12-9.58-13.66-20.4-15.57-30.48-2.04-10.73,1.82-18.03,5.95-24.56l172.34-272.68c.41-.64,1.07-1.03,1.82-1.09.56-.1,1.46.27,1.93.83l182.05,215.06c.48.55.65,1.3.5,2.02-.2.72-.67,1.33-1.35,1.62l-299.98,130.73c-.07.02-.11.03-.15.05-2.41.87-5,1.29-7.75,1.29-12.42,0-27.71-8.52-39.79-22.78ZM913.52,346.93l-177.94-210.24-170.63,270.01c-3.95,6.22-7.08,12.11-5.32,21.19,1.76,9.32,6.93,19.37,14.51,28.36,13.47,15.92,30.86,24.21,42.35,20.14l297.03-129.45Z"/>
        </g>
        <path d="M564.04,406.7l21.94-34.73c4.21,21.71,18.87,63.63,69.24,87.73l-33.9,14.68c-10.51,8.92-31.88,1-47.69-17.7-15.83-18.69-20.11-41.07-9.58-49.99Z"/>
        <g>
          <path class="cls-2" d="M899.45,353.46c-39.03,14.07-95.37-10.42-136.96-59.57-23.65-27.93-39.18-59.9-43.74-90.01-4.58-30.41,2.56-55.34,20.11-70.19,5-4.24,10.75-7.55,17.12-9.83,39.03-14.07,95.37,10.44,136.96,59.58,23.65,27.94,39.2,59.9,43.72,90.03,4.61,30.41-2.52,55.33-20.07,70.17-5.02,4.23-10.77,7.54-17.14,9.83Z"/>
          <path class="cls-5" d="M753.56,301.42c-25.02-29.54-41.46-63.57-46.35-95.81-5.21-34.58,3.37-63.27,24.09-80.81,6.06-5.16,13.03-9.18,20.7-11.91,43.52-15.69,105.14,10.22,149.84,62.98,25.04,29.6,41.53,63.65,46.35,95.85,5.26,34.54-3.32,63.25-24.09,80.79-6.04,5.14-13.01,9.15-20.68,11.92h0c-8.53,3.06-17.72,4.54-27.32,4.54-39.66,0-86.57-25.07-122.54-67.56ZM759.91,134.83c-5.04,1.8-9.58,4.41-13.51,7.76-14.33,12.12-20.05,33.26-16.11,59.53,4.23,28.02,18.85,57.92,41.11,84.21,37.92,44.82,90.18,68.37,124.1,56.15h0c5.06-1.82,9.6-4.43,13.53-7.76,14.36-12.15,20.07-33.29,16.09-59.53-4.21-27.99-18.81-57.9-41.09-84.24-31.19-36.82-72.06-59.35-104.51-59.35-6.99,0-13.6,1.05-19.61,3.23Z"/>
        </g>
        <path d="M791.57,229.51l32.36,41.93-31.1,49.9c-10.19-8.19-19.94-17.69-29.1-28.48-9.93-11.78-18.31-24.04-24.89-36.43l52.73-26.91Z"/>
        <path class="cls-1" d="M820.85,273.18c-7.21,2.58-17.94-2.31-26.11-11.92-4.47-5.31-7.54-11.31-8.62-16.89-1.15-5.94.09-10.75,3.43-13.6.87-.75,1.91-1.35,3.06-1.74,7.21-2.63,17.96,2.29,26.11,11.91,4.5,5.31,7.56,11.3,8.64,16.89,1.13,5.93-.09,10.74-3.43,13.6-.91.75-1.93,1.34-3.08,1.75Z"/>
        <g>
          <polygon points="1064.62 220.79 957.31 244.39 955.4 235.85 1062.71 212.27 1064.62 220.79"/>
          <polygon points="987.35 187.38 946.47 207.4 942.59 199.52 983.5 179.49 987.35 187.38"/>
          <polygon points="1010 112.89 928.62 176.99 923.15 170.14 1004.61 105.96 1010 112.89"/>
          <polygon points="944.52 84.76 898.1 139.4 891 133.37 937.39 78.72 944.52 84.76"/>
          <polygon points="840.38 46.89 849.35 49.47 834.38 101.09 825.43 98.44 840.38 46.89"/>
          <polygon points="911.4 0 919.76 4.1 864.72 115.14 856.36 110.96 910.05 2.69 911.4 0"/>
        </g>
      </g>
      <g>
        <polygon class="cls-3" points="531.2 519.54 1104.31 599.87 637.91 786.4 531.2 519.54"/>
        <path class="cls-5" d="M637,788.54c-.56-.24-1.02-.71-1.26-1.27l-106.71-266.87c-.33-.77-.17-1.65.33-2.29.52-.66,1.35-.91,2.15-.88l573.12,80.33c1.04.15,1.87.99,2,2.03.11,1.07-.48,2.06-1.46,2.46l-466.4,186.52c-.28.12-.56.17-.87.17-.33,0-.61-.07-.91-.2ZM534.87,522.41l104.34,260.96,456.06-182.41-560.4-78.56Z"/>
      </g>
      <g>
        <polygon class="cls-3" points="997.6 333.02 1104.31 599.88 637.91 786.4 997.6 333.02"/>
        <path class="cls-5" d="M636.04,787.79c-.63-.85-.61-2.02.04-2.83l359.69-453.38c.5-.65,1.26-.92,2.15-.87.83.13,1.54.67,1.82,1.45l106.73,266.86c.48,1.19-.11,2.54-1.3,3.02l-466.4,186.52c-.28.12-.56.17-.87.17-.74,0-1.41-.35-1.87-.95ZM996.91,337.62l-351.7,443.35,456.06-182.39-104.36-260.97Z"/>
      </g>
      <g>
        <path class="cls-4" d="M913.5,893.25c67.52-73.81,81.99-176.78,40.72-289.95l-43.83,15.97c24.76,67.94,39.42,165.15-31.34,242.48l34.45,31.49Z"/>
        <polygon class="cls-4" points="983.92 604.62 900.93 544.67 890.5 646.5 983.92 604.62"/>
      </g>
    </g>
  </g>
</svg>