<?xml version="1.0" encoding="UTF-8"?>
<svg id="Capa_2" data-name="Capa 2" xmlns="http://www.w3.org/2000/svg" viewBox="0 0 276.68 237.35">
  <defs>
    <style>
      .cls-1 {
        fill: #fff;
      }

      .cls-2 {
        fill: #7ca0fc;
      }

      .cls-3 {
        fill: #fccc42;
      }

      .cls-4 {
        fill: #080717;
      }

      .cls-5 {
        fill: #1d1d1b;
      }
    </style>
  </defs>
  <g id="Layer_2" data-name="Layer 2">
    <g>
      <g>
        <path class="cls-1" d="M111,135.67s-8.73,7.53-9.1,8.29c0,0,0,0,0,0,1.35,2.91,3.49,5.52,6.23,7.54l7.64-6.76,5.78-5.54c1.37-1.31,1.93-3.28,1.27-4.62-1.79-3.64-6.18-2.19-11.83,1.09Z"/>
        <path class="cls-4" d="M108.13,152.5c-.21,0-.42-.06-.59-.19-2.86-2.1-5.12-4.84-6.55-7.92-.13-.27-.12-.59.01-.87.31-.62,3.45-3.52,9.34-8.6.05-.04.1-.08.15-.11,5-2.9,8.12-3.84,10.44-3.14,1.22.37,2.16,1.2,2.79,2.47.85,1.72.22,4.15-1.48,5.78l-5.78,5.54-7.67,6.78c-.19.17-.42.25-.66.25ZM103.08,144.11c1.18,2.32,2.89,4.4,5.01,6.09l7.03-6.21,5.75-5.51c1.05-1.01,1.52-2.53,1.07-3.45-.38-.78-.88-1.24-1.57-1.44-2.2-.66-6.04,1.33-8.78,2.91-3.52,3.04-7.33,6.43-8.5,7.62Z"/>
      </g>
      <path class="cls-4" d="M121.45,216.2l-48.91,20.32c-5.82,2.42-12.46-.64-14.41-6.63L.6,53.19c-2.57-7.9,3.43-15.97,11.73-15.78l60.81,1.37c5.31.12,9.92,3.7,11.34,8.83l43.23,155.74c1.46,5.25-1.23,10.77-6.26,12.86Z"/>
      <path class="cls-3" d="M81.94,48.31c-1.12-4.03-4.68-6.8-8.86-6.89,0,0-40.64-.82-56.85-1.04-3.23-.04-5.53,3.1-4.54,6.17l58.62,180.06c1.23,3.78,5.43,5.72,9.11,4.19l41.02-17.04c3.79-1.58,5.83-5.75,4.73-9.71L81.94,48.31Z"/>
      <g>
        <path class="cls-4" d="M228.87,215.38c-.55,0-1-.45-1-1v-17.96c0-.55.45-1,1-1s1,.45,1,1v17.96c0,.55-.45,1-1,1Z"/>
        <path class="cls-4" d="M237.85,206.4h-17.96c-.55,0-1-.45-1-1s.45-1,1-1h17.96c.55,0,1,.45,1,1s-.45,1-1,1Z"/>
        <path class="cls-4" d="M224.38,210.89c-.26,0-.51-.1-.71-.29-.39-.39-.39-1.02,0-1.41l8.98-8.98c.39-.39,1.02-.39,1.41,0,.39.39.39,1.02,0,1.41l-8.98,8.98c-.2.2-.45.29-.71.29Z"/>
        <path class="cls-4" d="M233.36,210.89c-.26,0-.51-.1-.71-.29l-8.98-8.98c-.39-.39-.39-1.02,0-1.41.39-.39,1.02-.39,1.41,0l8.98,8.98c.39.39.39,1.02,0,1.41-.2.2-.45.29-.71.29Z"/>
      </g>
      <g>
        <path d="M256.71,157.87c-.27,0-.55-.11-.75-.33l-3.82-4.28c-.37-.41-.33-1.04.08-1.41.41-.37,1.04-.33,1.41.08l3.82,4.28c.37.41.33,1.04-.08,1.41-.19.17-.43.25-.67.25Z"/>
        <path d="M249.7,160.28c-.38,0-.75-.22-.91-.59l-1.29-2.88c-.23-.5,0-1.1.5-1.32.51-.23,1.1,0,1.32.5l1.29,2.88c.23.5,0,1.1-.5,1.32-.13.06-.27.09-.41.09Z"/>
        <path d="M259.83,150.97c-.16,0-.33-.04-.48-.12l-2.76-1.52c-.48-.27-.66-.88-.39-1.36.27-.48.87-.66,1.36-.39l2.76,1.52c.48.27.66.88.39,1.36-.18.33-.52.52-.88.52Z"/>
      </g>
      <path class="cls-5" d="M68.45,65.28l-1.88-3.44-3.44-1.88,3.44-1.88,1.88-3.44,1.88,3.44,3.44,1.88-3.44,1.88-1.88,3.44ZM67.29,59.95l.75.41.41.75.41-.75.75-.41-.75-.41-.41-.75-.41.75-.75.41Z"/>
      <g>
        <path d="M226.56,55.01l-2.12-5.07-6.36.55.16,1.91,4.97-.43,1.38,3.29h-.03s6.01,14.29,6.01,14.29v.03h.01l.28.68,21.2-2.75.1-.73c.66-4.71,1.32-9.42,1.99-14.13l.18-1.25-27.77,3.6Z"/>
        <path d="M235.43,72.36c-1.42.18-2.42,1.48-2.24,2.9.18,1.42,1.48,2.42,2.9,2.24,1.42-.18,2.42-1.48,2.24-2.9-.18-1.42-1.48-2.42-2.9-2.24Z"/>
        <path d="M247.68,70.77c-1.42.18-2.42,1.48-2.24,2.9.18,1.42,1.48,2.42,2.9,2.24,1.42-.18,2.42-1.48,2.24-2.9-.18-1.42-1.48-2.42-2.9-2.24Z"/>
      </g>
      <path class="cls-4" d="M162.85,190.18l-19.42-43.83-42.31,32.46,4.63-51.82-39.07,4.8,25.09-27.43-37.84-25.48,49.64-7.66-12.57-42.33,39.16,16.11L142.14,1.54l20.61,34.62L198.87,0l-3.08,51.06,55.27-22.23-32.53,54.6,58.14,9.55-56.48,29.39,12.75,45.52-47.54-19.2-22.56,41.51ZM144.23,143.21l18.8,42.44,21.47-39.51,45.42,18.35-12.08-43.16,52.59-27.36-55.11-9.05,31-52.03-52.71,21.2,2.95-48.95-34.22,34.25-19.52-32.8-11.33,41.12-37.38-15.38,12.03,40.51-46.85,7.23,35.52,23.92-23,25.15,36.15-4.44-4.45,49.75,40.71-31.24Z"/>
      <path class="cls-4" d="M191.4,181.51s-.05,0-.08,0c-.36-.03-.68-.25-.83-.59l-2.15-4.79-4.39-2.87c-.31-.2-.48-.55-.45-.92.03-.36.25-.68.59-.83l4.79-2.15,2.87-4.39c.2-.31.54-.47.92-.45.36.03.68.25.83.59l2.15,4.79,4.39,2.87c.31.2.48.55.45.91-.03.36-.25.68-.59.83l-4.79,2.15-2.87,4.39c-.19.28-.5.45-.84.45ZM186.57,172.59l3.11,2.03c.16.1.29.25.37.43l1.52,3.38,2.03-3.11c.1-.16.25-.29.43-.37l3.38-1.52-3.11-2.03c-.16-.1-.29-.25-.37-.43l-1.52-3.39-2.03,3.11c-.1.16-.25.29-.43.37l-3.38,1.52Z"/>
      <polygon class="cls-4" points="202.26 58.2 200 61.66 196.23 63.35 199.69 65.61 201.38 69.38 203.64 65.92 207.41 64.23 203.95 61.97 202.26 58.2"/>
      <path class="cls-4" d="M122.71,30.18s-16.23-5.8-13-10.46c3.23-4.66,11.22-1.92,11.57,2.57.35,4.5-6.09-3.7-1.95-8.55,4.14-4.85,10.44-2.91,3.38,16.44Z"/>
      <g>
        <rect class="cls-4" x="259.49" y="39.94" width="3.19" height="2" transform="translate(3.09 98.22) rotate(-21.43)"/>
        <rect class="cls-4" x="268.63" y="36.36" width="3.19" height="2" transform="translate(5.03 101.31) rotate(-21.43)"/>
        <rect class="cls-4" x="263.33" y="43" width="3.19" height="2" transform="translate(181.85 299.39) rotate(-81.41)"/>
        <rect class="cls-4" x="264.79" y="33.3" width="3.19" height="2" transform="translate(192.68 292.58) rotate(-81.41)"/>
        <rect class="cls-4" x="260.82" y="34.5" width="2" height="3.19" transform="translate(70.33 218.26) rotate(-51.42)"/>
        <rect class="cls-4" x="268.49" y="40.62" width="2" height="3.19" transform="translate(68.44 226.56) rotate(-51.42)"/>
      </g>
      <path class="cls-4" d="M212.87,34.47c-.15,0-.29-.03-.43-.1-.3-.14-.51-.43-.56-.76-.1-.73-2.5-18.06-.06-23.19,1.25-2.62,3.44-4.59,6.17-5.56,2.73-.97,5.68-.82,8.29.43,5.4,2.57,7.71,9.06,5.13,14.46-2.44,5.13-17.4,14.19-18.04,14.58-.16.1-.34.14-.52.14ZM221.63,6.23c-1,0-2,.17-2.97.52-2.23.79-4.02,2.4-5.03,4.54-1.65,3.46-.67,14.85.03,20.53,4.85-3.04,14.31-9.46,15.96-12.92,2.1-4.41.22-9.7-4.19-11.8h0c-1.21-.58-2.5-.87-3.8-.87ZM221.38,19.5c-.56,0-1.13-.12-1.68-.38h0c-1.95-.93-2.78-3.27-1.85-5.22.93-1.95,3.27-2.78,5.22-1.85.94.45,1.66,1.24,2.01,2.23.35.99.3,2.05-.15,2.99-.67,1.41-2.08,2.23-3.54,2.23ZM220.56,17.31c.95.45,2.1.05,2.55-.91.22-.46.25-.98.08-1.46s-.52-.87-.98-1.09c-.95-.45-2.1-.05-2.55.9-.45.95-.05,2.1.9,2.55h0Z"/>
      <g>
        <path class="cls-1" d="M76.81,232.32c-3.4,0-6.39-2.17-7.44-5.4l-8.23-25.28c-.1-.3-.05-.63.13-.89l19.07-27.06-2.56-17.96c-.03-.18,0-.36.07-.53l9-21.32c.13-.3.4-.53.72-.59.07-.01.13-.02.2-.02.26,0,.51.1.7.29l2.23,2.19c2.26,2.22,3.23,5.4,2.59,8.51l-.57,2.76,1.06-2.28c.17-.36.52-.58.91-.58.05,0,.11,0,.16.01l8.46,1.39.6-.36c.16-.09.33-.14.51-.14.08,0,.16.01.24.03.26.06.48.23.61.46l.09.15c-.19-1.05-.16-1.91.1-2.6.09-.25.27-.56,1.63-2.1.19-.22.47-.34.75-.34.07,0,.15,0,.22.03.36.08.64.35.74.71l3.41,12.28c.04.16.05.32.01.48l-.44,2.07,1.31,1.21c.14.13.24.29.29.47l3.81,13.74c.11.41-.05.85-.4,1.09l-10.13,6.95-22.85,50.09c-.11.23-.29.41-.53.51l-3.5,1.45c-.96.4-1.97.6-3,.6h0Z"/>
        <path class="cls-4" d="M87.77,134.27l2.23,2.19c2.01,1.97,2.88,4.83,2.31,7.59l-1.53,7.41s.29.16.77.46l3.13-6.77,8.82,1.45.91-.55.46.77,1.9.31c-.45-1.33-.73-2.75-.38-3.7.07-.19.65-.89,1.45-1.79l3.41,12.28-.56,2.63,1.73,1.59,3.81,13.74-10.35,7.11-22.97,50.34-3.5,1.45c-.86.36-1.74.52-2.61.52-2.86,0-5.55-1.81-6.49-4.71l-8.23-25.28,19.2-27.25.07-.26-2.6-18.22,9.01-21.32M87.77,132.27c-.13,0-.26.01-.39.04-.65.13-1.19.57-1.45,1.18l-9.01,21.32c-.14.33-.19.7-.14,1.06l2.51,17.57-18.84,26.73c-.36.52-.46,1.17-.27,1.77l8.23,25.28c1.19,3.65,4.56,6.09,8.39,6.09,1.16,0,2.3-.23,3.38-.68l3.5-1.45c.47-.19.84-.56,1.05-1.02l22.74-49.84,9.9-6.79c.7-.48,1.02-1.36.8-2.18l-3.81-13.74c-.1-.36-.3-.69-.57-.94l-.89-.82.32-1.51c.07-.32.06-.64-.03-.95l-3.41-12.28c-.2-.71-.76-1.25-1.48-1.41-.15-.03-.3-.05-.45-.05-.57,0-1.12.24-1.5.68-1.48,1.68-1.68,2.03-1.82,2.41-.15.4-.24.84-.27,1.32-.3.02-.59.11-.87.28l-.29.17-8.1-1.33c-.11-.02-.22-.03-.32-.03-.08,0-.15,0-.23.01.24-3.01-.86-5.98-3.05-8.14l-2.23-2.19c-.38-.37-.88-.57-1.4-.57h0Z"/>
      </g>
      <g>
        <polyline class="cls-4" points="106.76 130.48 124.19 168.7 111.02 175.31 81.88 141.28"/>
        <path class="cls-4" d="M66.03,114.12l-2.93,1.4c-4.64,2.22-6.61,7.77-4.39,12.42l5.54,11.6c2.22,4.64,7.77,6.61,12.42,4.39l2.93-1.4"/>
        <g>
          <polyline class="cls-1" points="115.68 129.49 179.05 126.86 140.03 45.08 98.12 92.69"/>
          <path class="cls-4" d="M115.68,130.49c-.53,0-.98-.42-1-.96-.02-.55.41-1.02.96-1.04l61.86-2.56-37.72-79.05-40.9,46.47c-.37.41-1,.45-1.41.09-.41-.37-.45-1-.09-1.41l41.91-47.61c.22-.25.55-.38.89-.33.33.05.62.26.76.56l39.03,81.78c.14.3.13.66-.05.95-.17.29-.48.47-.82.48l-63.37,2.63s-.03,0-.04,0Z"/>
        </g>
        <path class="cls-4" d="M118.88,131.91l-25.3,12.07c-8.94,4.27-19.65.48-23.92-8.47l-5.18-10.85c-4.27-8.94-.48-19.65,8.46-23.92l25.3-12.07,20.63,43.23Z"/>
        <rect class="cls-1" x="83.28" y="104.57" width="11.75" height="2" transform="translate(-36.78 48.7) rotate(-25.52)"/>
      </g>
      <g>
        <path class="cls-1" d="M123.96,165.84l-3.19-14.13c-.11-.72-.3-1.5-.49-2.19l-.15-.64h-.05c-.27-.85-.5-1.47-.5-1.47-.29-1.41-1.86-2.24-3.1-1.64l-1.54.75-4.62,2.6c-1.09.62-1.54,1.98-1.01,3.21.6,1.39,1.56,2.23,2.79,2.67l-1.91,1.08c-1.09.62-1.54,1.98-1.01,3.21,1.06,2.46,3.24,3.2,6.11,3.07l-1.82,1.02c-1.09.62-1.54,1.98-1.01,3.21,1.44,3.35,4.95,3.52,9.47,2.64,0,0,1.54-.61,1.84-1.09.3-.48.28-1.35.13-2.3h.05Z"/>
        <path class="cls-4" d="M118.02,170.68c-2.71,0-5.23-.82-6.47-3.69-.59-1.37-.29-2.91.69-3.9-1.89-.49-3.2-1.62-3.97-3.41-.72-1.68-.1-3.61,1.44-4.47l.37-.21c-.72-.58-1.28-1.34-1.68-2.28-.72-1.68-.1-3.6,1.44-4.47l4.62-2.6,1.59-.78c.85-.42,1.84-.4,2.73.03.89.44,1.55,1.26,1.77,2.22.06.17.23.61.42,1.2.07.1.12.21.15.33l.14.64c.23.81.41,1.59.51,2.26l3.17,14.06c.03.13.03.27,0,.4.15,1.21.05,2.06-.32,2.65-.39.63-1.47,1.16-2.32,1.49-.06.02-.12.04-.18.05-1.32.26-2.74.47-4.11.47ZM115.3,161.36c.44,0,.84.29.96.72.13.45-.07.92-.47,1.15l-1.82,1.02c-.66.37-.91,1.19-.58,1.94,1.03,2.39,3.42,3,8.26,2.07.55-.23,1.16-.55,1.3-.7,0,0,.15-.37-.04-1.57-.01-.08-.02-.17,0-.25l-3.12-13.82c-.1-.66-.26-1.35-.48-2.13l-.1-.42c-.04-.06-.07-.13-.09-.2-.25-.81-.48-1.4-.48-1.41-.02-.05-.03-.1-.04-.16-.08-.39-.35-.73-.72-.91-.33-.16-.68-.17-.97-.03l-1.54.75-4.56,2.58c-.66.37-.91,1.19-.58,1.94.46,1.07,1.16,1.75,2.21,2.13.37.13.62.47.66.86.03.39-.16.76-.5.95l-1.91,1.08c-.66.37-.91,1.19-.58,1.94.79,1.83,2.38,2.59,5.15,2.47.02,0,.03,0,.04,0Z"/>
      </g>
      <path class="cls-4" d="M111.87,156.16c-.37,0-.72-.2-.9-.56-.25-.5-.04-1.09.45-1.34l8.38-4.16c.49-.25,1.1-.04,1.34.45.25.5.04,1.09-.45,1.34l-8.38,4.16c-.14.07-.29.1-.44.1Z"/>
      <path class="cls-4" d="M114.07,163.93c-.37,0-.72-.2-.89-.55-.25-.49-.05-1.09.44-1.34l7.88-3.98c.49-.25,1.09-.05,1.34.44.25.49.05,1.09-.44,1.34l-7.88,3.98c-.14.07-.3.11-.45.11Z"/>
      <path class="cls-1" d="M92.39,153.74l-1.61-2.28,1.53-7.41c.57-2.76-.3-5.62-2.31-7.6l-2.23-2.19-9.01,21.32,2.6,18.22-.07.26"/>
      <g>
        <path class="cls-1" d="M188.98,131.86c-14.21,0-30.66-21.32-40.65-42.45-6.17-13.03-10.13-26.24-11.16-37.19-1.53-16.31,3.78-22.4,8.51-24.63,1.68-.8,3.52-1.2,5.47-1.2,14.21,0,30.66,21.32,40.66,42.45,6.17,13.03,10.13,26.24,11.16,37.19,1.53,16.31-3.79,22.4-8.52,24.63-1.68.8-3.52,1.2-5.47,1.2Z"/>
        <path class="cls-4" d="M151.15,27.39c9.92,0,26.06,12.95,39.75,41.88,6.12,12.93,10.05,26.02,11.07,36.85,1.48,15.73-3.51,21.53-7.95,23.64-1.55.73-3.24,1.1-5.04,1.1-9.92,0-26.06-12.95-39.75-41.88-6.12-12.93-10.05-26.02-11.07-36.85-1.48-15.73,3.51-21.53,7.95-23.64,1.55-.73,3.24-1.1,5.04-1.1M151.15,25.39c-2.1,0-4.08.44-5.89,1.29-5.02,2.37-10.67,8.75-9.08,25.63,1.04,11.06,5.03,24.39,11.25,37.52,15.02,31.76,31.78,43.02,41.56,43.02,2.1,0,4.08-.44,5.89-1.29,5.02-2.37,10.67-8.75,9.08-25.63-1.04-11.06-5.03-24.38-11.25-37.52-15.02-31.76-31.78-43.02-41.56-43.02h0Z"/>
      </g>
      <ellipse class="cls-4" cx="172.28" cy="78.08" rx="16.33" ry="51.75" transform="translate(-16.84 81.17) rotate(-25.32)"/>
      <g>
        <path class="cls-1" d="M173.13,97.23l2.93-1.4c4.64-2.22,6.61-7.77,4.39-12.42l-5.54-11.6c-2.22-4.64-7.77-6.61-12.42-4.39l-2.93,1.4-.02.32c-.84,11.12,4.34,21.85,13.58,28.09h0Z"/>
        <path class="cls-4" d="M173.13,98.23c-.2,0-.39-.06-.56-.17-9.52-6.43-14.89-17.54-14.02-29l.02-.32c.03-.36.24-.67.57-.83l2.94-1.4c5.13-2.45,11.3-.27,13.75,4.87l5.54,11.6c1.19,2.49,1.33,5.29.42,7.88-.92,2.6-2.79,4.68-5.28,5.87l-2.93,1.4c-.14.07-.28.1-.43.1ZM160.52,69.47c-.7,10.46,4.14,20.58,12.7,26.61l2.41-1.15c2-.96,3.52-2.64,4.26-4.73.74-2.09.62-4.35-.33-6.35l-5.54-11.6c-1.98-4.14-6.95-5.9-11.08-3.92l-2.41,1.15Z"/>
      </g>
      <polygon class="cls-5" points="174.48 143.43 168.43 146.92 162.37 150.41 162.37 143.43 162.37 136.44 168.43 139.93 174.48 143.43"/>
      <g>
        <path class="cls-2" d="M219.77,104.24l-10.67,21.42c-1.1,2.22-.19,4.93,2.02,6.04l32.81,16.34c2.22,1.1,4.93.19,6.04-2.02l10.67-21.42"/>
        <g>
          <path d="M238.12,108.09l-2.62-7.81c-.79-2.34.48-4.88,2.82-5.67h0c2.34-.79,4.88.48,5.67,2.82l2.62,7.81c.79,2.34-.48,4.88-2.82,5.67h0c-2.34.79-4.88-.48-5.67-2.82Z"/>
          <path d="M246.5,112.26l7.81-2.62c2.34-.79,3.61-3.32,2.82-5.67h0c-.79-2.34-3.32-3.61-5.67-2.82l-7.81,2.62c-2.34.79-3.61,3.32-2.82,5.67h0c.79,2.34,3.32,3.61,5.67,2.82Z"/>
        </g>
        <path class="cls-2" d="M262.79,115.22l-36.84-18.35c-2.22-1.1-4.93-.19-6.04,2.02l-2.49,5.01,44.9,22.36,2.49-5.01c1.1-2.22.19-4.93-2.02-6.04Z"/>
        <rect x="231.55" y="103.68" width="8.98" height="38.17" transform="translate(79.48 -92.35) rotate(26.47)"/>
        <path class="cls-4" d="M261.81,128.29c-.15,0-.3-.03-.44-.1l-44.9-22.36c-.5-.25-.7-.85-.45-1.34.25-.49.85-.7,1.34-.45l44.9,22.36c.5.25.7.85.45,1.34-.17.35-.53.55-.9.55Z"/>
      </g>
    </g>
  </g>
</svg>