<?xml version="1.0" encoding="UTF-8"?>
<svg id="Capa_2" data-name="Capa 2" xmlns="http://www.w3.org/2000/svg" xmlns:xlink="http://www.w3.org/1999/xlink" viewBox="0 0 994.72 853.36">
  <defs>
    <style>
      .cls-1 {
        fill: #fff;
      }

      .cls-2 {
        fill: #abfb4f;
      }

      .cls-3 {
        fill: url(#New_Pattern_3);
      }

      .cls-4 {
        fill: blue;
      }

      .cls-5, .cls-6, .cls-7 {
        fill: none;
      }

      .cls-8 {
        fill: url(#New_Pattern_4);
      }

      .cls-6 {
        stroke-width: 4px;
      }

      .cls-6, .cls-7 {
        stroke: #000;
        stroke-linecap: round;
        stroke-linejoin: round;
      }

      .cls-9 {
        fill: #3496f7;
      }

      .cls-7 {
        stroke-width: 1.5px;
      }

      .cls-10 {
        fill: url(#New_Pattern_4-2);
      }
    </style>
    <pattern id="New_Pattern_4" data-name="New Pattern 4" x="0" y="0" width="70" height="50" patternTransform="translate(-432.06 31.97)" patternUnits="userSpaceOnUse" viewBox="0 0 70 50">
      <g>
        <rect class="cls-5" width="70" height="50"/>
        <g>
          <path class="cls-7" d="M8.89,99.96c-.05-7.08.29-14.17.29-21.25,0-4.32-.36-17.47-.29-28.09"/>
          <path class="cls-7" d="M22.94,99.84c.02-1.65.09-3.32.09-5.03,0-2.48-.2-4.98-.2-7.46s.02-3.83.05-7.28c0-1.44-.06-2.9-.06-4.35,0-3.1.31-4.62.31-7.37,0-1.39-.27-4.93-.27-8.33,0-1.07.03-2.14.09-3.21,0-2.06,0-4.29,0-6.7"/>
          <path class="cls-7" d="M36.74,99.84c.02-9.46.33-18.09.33-27.56,0-3.7-.15-7.46-.15-11.2,0-3.35-.09-7.29-.18-10.75"/>
          <path class="cls-7" d="M50.93,99.75c.03-1.23-.07-2.74-.07-3.99,0-1.92-.02-3.85-.02-5.78,0-3.87,0-7.66.02-11.51-.06-.41-.08-.82-.08-1.23,0-.32.18-6.67.18-8.04,0-2.2-.21-3.25-.21-5.64,0-1.3.06-2.65.17-3.87,0-2.88.01-5.88.02-9.05"/>
          <path class="cls-7" d="M64.98,99.71c.02-8.34-.55-15.73-.36-24.06.18-8.13.16-17.71.36-25.19"/>
        </g>
        <g>
          <path class="cls-7" d="M8.89,49.96c-.05-7.08.29-14.17.29-21.25,0-4.32-.36-17.47-.29-28.09"/>
          <path class="cls-7" d="M22.94,49.84c.02-1.65.09-3.32.09-5.03,0-2.48-.2-4.98-.2-7.46s.02-3.83.05-7.28c0-1.44-.06-2.9-.06-4.35,0-3.1.31-4.62.31-7.37,0-1.39-.27-4.93-.27-8.33,0-1.07.03-2.14.09-3.21,0-2.06,0-4.29,0-6.7"/>
          <path class="cls-7" d="M36.74,49.84c.02-9.46.33-18.09.33-27.56,0-3.7-.15-7.46-.15-11.2,0-3.35-.09-7.29-.18-10.75"/>
          <path class="cls-7" d="M50.93,49.75c.03-1.23-.07-2.74-.07-3.99,0-1.92-.02-3.85-.02-5.78,0-3.87,0-7.66.02-11.51-.06-.41-.08-.82-.08-1.23,0-.32.18-6.67.18-8.04,0-2.2-.21-3.25-.21-5.64,0-1.3.06-2.65.17-3.87,0-2.88.01-5.88.02-9.05"/>
          <path class="cls-7" d="M64.98,49.71c.02-8.34-.55-15.73-.36-24.06.18-8.13.16-17.71.36-25.19"/>
        </g>
        <g>
          <path class="cls-7" d="M8.89-.04c-.05-7.08.29-14.17.29-21.25,0-4.32-.36-17.47-.29-28.09"/>
          <path class="cls-7" d="M22.94-.16c.02-1.65.09-3.32.09-5.03,0-2.48-.2-4.98-.2-7.46s.02-3.83.05-7.28c0-1.44-.06-2.9-.06-4.35,0-3.1.31-4.62.31-7.37,0-1.39-.27-4.93-.27-8.33,0-1.07.03-2.14.09-3.21,0-2.06,0-4.29,0-6.7"/>
          <path class="cls-7" d="M36.74-.16c.02-9.46.33-18.09.33-27.56,0-3.7-.15-7.46-.15-11.2,0-3.35-.09-7.29-.18-10.75"/>
          <path class="cls-7" d="M50.93-.25c.03-1.23-.07-2.74-.07-3.99,0-1.92-.02-3.85-.02-5.78,0-3.87,0-7.66.02-11.51-.06-.41-.08-.82-.08-1.23,0-.32.18-6.67.18-8.04,0-2.2-.21-3.25-.21-5.64,0-1.3.06-2.65.17-3.87,0-2.88.01-5.88.02-9.05"/>
          <path class="cls-7" d="M64.98-.29c.02-8.34-.55-15.73-.36-24.06.18-8.13.16-17.71.36-25.19"/>
        </g>
      </g>
    </pattern>
    <pattern id="New_Pattern_4-2" data-name="New Pattern 4" patternTransform="translate(-379.17 32.42)" xlink:href="#New_Pattern_4"/>
    <pattern id="New_Pattern_3" data-name="New Pattern 3" x="0" y="0" width="40" height="40" patternTransform="translate(-412.06 31.97)" patternUnits="userSpaceOnUse" viewBox="0 0 40 40">
      <g>
        <rect class="cls-5" width="40" height="40"/>
        <g>
          <path d="M36.18,30c0,1.06.86,1.91,1.91,1.91v-3.82c-1.06,0-1.91.86-1.91,1.91Z"/>
          <path d="M40,33.82c1.06,0,1.91-.86,1.91-1.91h-3.82c0,1.06.86,1.91,1.91,1.91Z"/>
          <path d="M40,26.18c-1.06,0-1.91.86-1.91,1.91h3.82c0-1.06-.86-1.91-1.91-1.91Z"/>
          <path d="M16.18,40c0,1.06.86,1.91,1.91,1.91v-3.82c-1.06,0-1.91.86-1.91,1.91Z"/>
          <path d="M21.91,38.09v3.82c1.06,0,1.91-.86,1.91-1.91s-.86-1.91-1.91-1.91Z"/>
          <path d="M20,36.18c-1.06,0-1.91.86-1.91,1.91h3.82c0-1.06-.86-1.91-1.91-1.91Z"/>
          <path d="M1.91,28.09v3.82c1.06,0,1.91-.86,1.91-1.91s-.86-1.91-1.91-1.91Z"/>
          <path d="M36.18,10c0,1.06.86,1.91,1.91,1.91v-3.82c-1.06,0-1.91.86-1.91,1.91Z"/>
          <path d="M40,13.82c1.06,0,1.91-.86,1.91-1.91h-3.82c0,1.06.86,1.91,1.91,1.91Z"/>
          <path d="M40,6.18c-1.06,0-1.91.86-1.91,1.91h3.82c0-1.06-.86-1.91-1.91-1.91Z"/>
          <path d="M18.79,16.37c-1,.33-1.54,1.42-1.21,2.42l3.63-1.21c-.33-1-1.42-1.54-2.42-1.21Z"/>
          <path d="M22.42,21.21l-3.63,1.21c.33,1,1.42,1.54,2.42,1.21s1.54-1.42,1.21-2.42Z"/>
          <path d="M16.37,21.21c.33,1,1.42,1.54,2.42,1.21l-1.21-3.63c-1,.33-1.54,1.42-1.21,2.42Z"/>
          <path d="M23.63,18.79c-.33-1-1.42-1.54-2.42-1.21l1.21,3.63c1-.33,1.54-1.42,1.21-2.42Z"/>
          <path d="M1.91,8.09v3.82c1.06,0,1.91-.86,1.91-1.91s-.86-1.91-1.91-1.91Z"/>
          <path d="M20,3.82c1.06,0,1.91-.86,1.91-1.91h-3.82c0,1.06.86,1.91,1.91,1.91Z"/>
        </g>
        <g>
          <path d="M0,33.82c1.06,0,1.91-.86,1.91-1.91H-1.91c0,1.06.86,1.91,1.91,1.91Z"/>
          <path d="M0,26.18c-1.06,0-1.91.86-1.91,1.91H1.91c0-1.06-.86-1.91-1.91-1.91Z"/>
          <path d="M0,13.82c1.06,0,1.91-.86,1.91-1.91H-1.91c0,1.06.86,1.91,1.91,1.91Z"/>
          <path d="M0,6.18c-1.06,0-1.91.86-1.91,1.91H1.91c0-1.06-.86-1.91-1.91-1.91Z"/>
        </g>
        <g>
          <path d="M16.18,0c0,1.06.86,1.91,1.91,1.91V-1.91c-1.06,0-1.91.86-1.91,1.91Z"/>
          <path d="M21.91-1.91V1.91c1.06,0,1.91-.86,1.91-1.91s-.86-1.91-1.91-1.91Z"/>
        </g>
      </g>
    </pattern>
  </defs>
  <g id="Capa_1-2" data-name="Capa 1">
    <g>
      <g>
        <path class="cls-1" d="M552.05,343.77c.85,3.03,3.26,5.45,6.29,6.27.02,0,.05,0,.06,0l15.58,4.24-15.58,4.23s-.04.01-.06.01c-3.03.84-5.44,3.24-6.29,6.27,0,.03-.02.06-.02.09l-4.23,15.58-4.23-15.58s0-.03-.02-.05c-.82-3.04-3.23-5.47-6.28-6.31,0,0-.04,0-.06-.01l-15.59-4.23,15.59-4.24s.05,0,.06,0c3.05-.84,5.46-3.25,6.28-6.3.02-.01.02-.03.02-.04l4.23-15.6,4.23,15.6s.02.04.02.07Z"/>
        <path class="cls-1" d="M569.24,450.69c-1.37-5.07-5.41-9.11-10.49-10.49-.03-.01-.05-.03-.1-.03l-25.98-7.06,25.98-7.05s.07-.02.1-.03c5.08-1.38,9.12-5.42,10.49-10.49,0-.03.02-.06.02-.09l7.06-25.98,7.04,25.98s.02.09.03.14c1.42,5.05,5.42,9.12,10.49,10.44.04.01.07.01.1.03l25.97,7.05-25.97,7.06s-.06.02-.1.03c-5.07,1.32-9.14,5.37-10.49,10.44-.01.04-.01.1-.03.14l-7.04,25.98-7.06-25.98s-.02-.06-.02-.09Z"/>
        <polygon class="cls-1" points="417.42 603.57 358.25 603.57 387.84 562.58 417.42 603.57"/>
        <path d="M992.72,851.36h-141.88c0-35.16,28.57-17.85,20.14-55.9-.01-.03-.01-.06-.02-.09l-4.76-21.4c10.35-2.16,19.23,10.15,25.42,22.62h89.46l11.64,54.77Z"/>
        <path class="cls-4" d="M806.43,505.21l-70.35,291.38h-86.69c-1.82-13.34-6.38-26.15-17.22-26.15l74.73-309.48c1.27.57,2.63.85,3.99.85,2.51,0,5.02-.96,6.94-2.88,1.65-1.65,2.59-3.76,2.82-5.92,3.83,2.72,9.18,2.37,12.62-1.07l.32-.32c1.75-1.76,2.71-4.02,2.85-6.32,2.76.2,5.58-.74,7.69-2.85l.32-.32c3.84-3.84,3.84-10.05,0-13.88l-1.66-1.67c.96-3.07,1.55-6.3,1.71-9.64,2.18-.23,4.25-1.34,5.63-3.2,2.68-3.6,1.88-8.7-1.77-11.32l-19.5-13.97c3.1-3.68,6.83-6.78,11.01-9.15,6-3.42,12.91-5.34,20.19-5.34h84.74l.06-.06c12.37,11.77,28.75,19.38,46.82,20.48,3.76,15.89,57.22,251.43,89.41,402.21h-89.46c-6.19-12.47-15.07-24.78-25.42-22.62l-59.77-268.76Z"/>
        <path d="M805.74,151.06c3.53-2,5.92-5.78,5.92-10.13,0-6.41-5.21-11.61-11.62-11.61-4.6,0-8.58,2.68-10.46,6.56-1.45-10.5-.25-22.58,5.16-37.56,3.57-1.06,7.35-1.64,11.25-1.68,23.03-.25,41.61,18.9,41.7,41.94,0,.92.02,1.84.06,2.74.85,20.48,16.37,37.05,36.65,39.94,35.73,5.08,61.73,34.9,52.12,67.2-.27,2.39-.8,4.71-1.54,6.93,21.76,13.11,36.31,36.96,36.31,64.21s-14.99,51.83-37.3,64.8c-12.12,7.06-26.4,10.74-41.61,10.03-.24-.01-.48-.03-.71-.05-18.05-1.33-34.45-8.71-46.82-20.48-13.83-13.13-22.68-31.44-23.37-51.69-.55-16.25,4.07-31.4,12.37-43.9.28-.42.56-.84.85-1.26-12.31-6.69-21.53-18.34-24.97-32.27-.02-.05-.03-.1-.04-.16-.95-3.86-1.45-7.89-1.45-12.04,0-4.38.56-8.63,1.6-12.68h.01c.91-3.56,2.2-6.95,3.83-10.16,4.43-8.75,3.95-19.19-1.43-27.38-.75-1.13-1.49-2.26-2.24-3.37-5.32-7.97-10.5-15.53-14.39-23.65,3.18-1.04,6.53-2.42,9.6-4.01.18-.09.35-.18.52-.28h0Z"/>
        <path class="cls-1" d="M914.13,412.28c5.09,6.07,8.16,13.89,8.16,22.43,0,11.72-5.78,22.09-14.65,28.42-6.86-29.93-12.21-52.86-15.97-68.75.23.02.47.03.71.05,15.21.71,29.49-2.97,41.61-10.03h0s-19.86,27.88-19.86,27.88Z"/>
        <path class="cls-2" d="M844.85,373.9l-.06.06h-84.74c-7.28,0-14.19,1.92-20.19,5.34l-14.56-87.71-33.12,29.44-49.4-50.24c52.58-49.34,66.1-71.9,96.62-71.9,23.18,0,33.55,16.25,70.44,21.01-1.04,4.05-1.6,8.3-1.6,12.68,0,4.15.5,8.18,1.45,12.04,0,.06.02.11.04.16,2.87,13.57,11.69,25.41,24.12,33.53-8.28,12.51-12.92,27.65-12.37,43.9.69,20.25,9.54,38.56,23.37,51.69Z"/>
        <path class="cls-1" d="M834.7,277.05c-.29.42-.57.84-.85,1.26-12.43-8.12-21.25-19.96-24.12-33.53,3.44,13.93,12.66,25.58,24.97,32.27Z"/>
        <path class="cls-1" d="M811.66,140.93c0,4.35-2.39,8.13-5.92,10.13h0c-.17.09-.34.18-.52.27-3.07,1.59-6.42,2.97-9.6,4.01,3.89,8.12,9.07,15.68,14.39,23.65-2.13.18-4.3.2-6.5.05-20.29-1.4-36.74-17.78-38.22-38.06-1.46-20.06,11.43-37.35,29.45-42.66-5.41,14.98-6.61,27.06-5.16,37.56,1.88-3.88,5.86-6.56,10.46-6.56,6.41,0,11.62,5.2,11.62,11.61Z"/>
        <polygon class="cls-1" points="786.81 711.83 786.81 851.36 722.85 851.36 756.54 711.83 786.81 711.83"/>
        <path class="cls-1" d="M728.85,388.45l19.5,13.97c3.65,2.62,4.45,7.72,1.77,11.32-1.38,1.86-3.45,2.97-5.63,3.2-1.28.13-2.61-.05-3.86-.56l-12.95-5.32-.44,1.08c-3.54-1.44-7.76-.72-10.63,2.15l-.33.32c-1.35,1.36-2.23,3.02-2.63,4.76h0c-3.37-1.06-7.22-.26-9.9,2.42l-.32.32c-1.95,1.95-2.9,4.53-2.87,7.09.01.95.16,1.9.45,2.82-.1-.01-.2-.01-.3-.01-2.51,0-5.02.96-6.94,2.88s-2.91,4.52-2.87,7.08c.04,2.46.99,4.92,2.87,6.8l4.53,4.52-.03.03c-1.86-.35-3.66-.83-5.42-1.43-6.25-1.75-12.08-5.27-16.7-10.49l-57.86-65.38c-22.66-25.6-20.31-64.92,5.25-87.63,6.96-6.21,13.34-12.08,19.24-17.6l49.4,50.24-12.38,11.01c-2.16,1.91-2.35,5.21-.44,7.36l25.99,29.37c4.56,5.15,9.68,9.77,15.27,13.78l8.23,5.9Z"/>
        <path class="cls-1" d="M744.44,428.25c3.84,3.83,3.84,10.04,0,13.88l-.32.32c-2.11,2.11-4.93,3.05-7.69,2.85.17-2.71-.78-5.49-2.85-7.56l-13.25-13.25c2.89.12,5.82-.93,8.02-3.14,1.73-1.73,2.75-3.9,3.05-6.15l13.04,13.05Z"/>
        <path class="cls-1" d="M740.63,416.38c1.25.51,2.58.69,3.86.56-.16,3.34-.75,6.57-1.71,9.64l-12.29-12.29c-.96-.95-2.07-1.67-3.25-2.15l.44-1.08,12.95,5.32Z"/>
        <path class="cls-1" d="M733.58,437.74c2.07,2.07,3.02,4.85,2.85,7.56-.14,2.3-1.1,4.56-2.85,6.32l-.32.32c-3.44,3.44-8.79,3.79-12.62,1.07.29-2.84-.65-5.78-2.82-7.96l-10.17-10.16c-1.84-1.84-4.23-2.8-6.64-2.87-.29-.92-.44-1.87-.45-2.82h.09c4.22,3.85,10.76,3.74,14.84-.35,1.34-1.33,2.26-2.94,2.73-4.65h.01c.69.17,1.4.26,2.1.29l13.25,13.25Z"/>
        <path d="M736.07,796.59l-13.22,54.77h-131.73c0-35.19,24.56-12.67,35.77-59.1l5.27-21.82c10.84,0,15.4,12.81,17.22,26.15h86.69Z"/>
        <path class="cls-1" d="M730.49,414.29l.91.91c-.3,2.25-1.32,4.42-3.05,6.15-2.2,2.21-5.13,3.26-8.02,3.14l-2.7-2.7c-1.15-1.15-2.52-1.95-3.98-2.41h0c.4-1.75,1.28-3.41,2.63-4.77l.33-.32c2.87-2.87,7.09-3.59,10.63-2.15,1.18.48,2.29,1.2,3.25,2.15Z"/>
        <path class="cls-1" d="M717.82,445.05c2.17,2.18,3.11,5.12,2.82,7.96-.23,2.16-1.17,4.27-2.82,5.92-1.92,1.92-4.43,2.88-6.94,2.88-1.36,0-2.72-.28-3.99-.85-1.07-.47-2.07-1.15-2.95-2.03l-10.17-10.16c-1.88-1.88-2.83-4.34-2.87-6.8,4.12,3.76,10.51,3.65,14.5-.34,1.69-1.69,2.69-3.81,2.98-6.01l9.44,9.43Z"/>
        <path class="cls-1" d="M718.54,422.7l1.79,1.79c-.7-.03-1.41-.12-2.1-.29h-.01c.15-.49.25-1,.32-1.5Z"/>
        <path class="cls-1" d="M717.63,421.79l.91.91c-.07.5-.18,1.01-.32,1.5-.49,1.7-1.39,3.32-2.73,4.65-4.08,4.09-10.62,4.2-14.84.35h-.09c-.04-2.56.92-5.14,2.87-7.09l.32-.32c2.68-2.68,6.53-3.48,9.9-2.41,1.46.46,2.83,1.26,3.98,2.41Z"/>
        <path class="cls-1" d="M707.65,434.89l.73.73c-.29,2.2-1.29,4.32-2.98,6.01-3.99,3.99-10.38,4.1-14.5.34-.04-2.56.92-5.13,2.87-7.08s4.43-2.88,6.94-2.88c.1,0,.2,0,.3.01,2.41.07,4.8,1.03,6.64,2.87Z"/>
        <path class="cls-1" d="M646.31,711.83l-19.42,80.43c-11.21,46.43-35.77,23.91-35.77,59.1h-43.32v-78.03c33.97,0,61.5-27.54,61.5-61.5h37.01Z"/>
        <rect x="527.67" y="638.04" width="104.49" height="49.19"/>
        <circle class="cls-2" cx="602.72" cy="597.07" r="26.41"/>
        <g>
          <polygon class="cls-1" points="603.52 113.26 523.17 113.26 489.14 147.3 569.48 147.3 603.52 113.26"/>
          <polygon class="cls-1" points="490.46 156.7 523.17 189.41 603.52 189.41 570.81 156.7 490.46 156.7"/>
        </g>
        <g>
          <polygon class="cls-8" points="603.52 113.26 523.17 113.26 489.14 147.3 569.48 147.3 603.52 113.26"/>
          <polygon class="cls-8" points="490.46 156.7 523.17 189.41 603.52 189.41 570.81 156.7 490.46 156.7"/>
        </g>
        <path d="M592.99,147.3c2.6,0,4.71,2.1,4.71,4.7s-2.11,4.7-4.71,4.7h-235.32c-2.6,0-4.71-2.1-4.71-4.7s2.11-4.7,4.71-4.7h235.32Z"/>
        <path d="M552.49,550.48l-7.94,2.15c-23.59,6.39-42.03,24.81-48.45,48.39l-2.19,8.06-2.16-7.96c-6.39-23.62-24.83-42.07-48.44-48.47l-8-2.17,8-2.17c23.61-6.41,42.05-24.86,48.44-48.48l2.16-7.95,2.19,8.06c6.42,23.58,24.86,41.99,48.45,48.39,4.69,1.27,7.89,2.14,7.94,2.15Z"/>
        <path class="cls-1" d="M493.9,480.37c38.72,0,70.11,31.39,70.11,70.11s-31.39,70.11-70.11,70.11-70.11-31.39-70.11-70.11,31.39-70.11,70.11-70.11ZM544.55,552.63l7.94-2.15s-3.25-.88-7.94-2.15c-23.59-6.4-42.03-24.81-48.45-48.39l-2.19-8.06-2.16,7.95c-6.39,23.62-24.83,42.07-48.44,48.48l-8,2.17,8,2.17c23.61,6.4,42.05,24.85,48.44,48.47l2.16,7.96,2.19-8.06c6.42-23.58,24.86-42,48.45-48.39Z"/>
        <path class="cls-10" d="M493.9,480.37c38.72,0,70.11,31.39,70.11,70.11s-31.39,70.11-70.11,70.11-70.11-31.39-70.11-70.11,31.39-70.11,70.11-70.11ZM544.55,552.63l7.94-2.15s-3.25-.88-7.94-2.15c-23.59-6.4-42.03-24.81-48.45-48.39l-2.19-8.06-2.16,7.95c-6.39,23.62-24.83,42.07-48.44,48.48l-8,2.17,8,2.17c23.61,6.4,42.05,24.85,48.44,48.47l2.16,7.96,2.19-8.06c6.42-23.58,24.86-42,48.45-48.39Z"/>
        <path class="cls-1" d="M519.72,749.99v101.37h-65v-101.37c0-32.45-26.4-58.86-58.86-58.86s-58.86,26.41-58.86,58.86v101.37h-65v-101.37c0-68.29,55.56-123.86,123.86-123.86s123.86,55.57,123.86,123.86Z"/>
        <path class="cls-2" d="M490.46,156.7l17.82,17.82c-5.42,36-23.63,67.8-49.86,90.64-26.34,22.95-60.78,36.84-98.46,36.84s-72.11-13.89-98.46-36.84c-31.58-27.49-51.54-68-51.54-113.16C209.96,69.16,277.12,2,359.96,2c74.79,0,136.8,54.73,148.15,126.33l-18.97,18.97h-16.77c-2.47-59.96-51.85-107.8-112.41-107.8s-112.5,50.37-112.5,112.5,50.37,112.5,112.5,112.5,109.94-47.85,112.41-107.8h18.09Z"/>
        <path class="cls-1" d="M493.9,410.48v45.27h-68.9c17.78-21.4,50.19-32.12,68.9-45.27Z"/>
        <path class="cls-4" d="M493.9,379.23v31.25c-18.71,13.15-51.12,23.87-68.9,45.27h-34.9c6.69-8.24,18.17-10.64,18.17-19.06,0-4.51-4.9-15.47-22.36-15.47-16.53,0-42.12,6.76-67.93,19.57v-48.72c11.44.85,23.1,2.44,38.6-4.98,44.15-21.14,34.73-38.07,60.93-56.69h59.4c-21.32,21.57-45.95,35.26-45.95,52.34,0,9.58,3.42,16.35,12.93,16.35,14.77,0,36.1-15.48,50.01-19.86Z"/>
        <path class="cls-1" d="M493.9,330.4v48.83c-13.91,4.38-35.24,19.86-50.01,19.86-9.51,0-12.93-6.77-12.93-16.35,0-17.08,24.63-30.77,45.95-52.34h16.99Z"/>
        <path class="cls-1" d="M472.37,147.3h-37.55c-2.43-39.23-35.02-70.3-74.86-70.3s-75,33.58-75,75,33.58,75,75,75,72.43-31.07,74.86-70.3h37.55c-2.47,59.95-51.85,107.8-112.41,107.8s-112.5-50.37-112.5-112.5,50.37-112.5,112.5-112.5,109.94,47.84,112.41,107.8Z"/>
        <path class="cls-2" d="M434.82,147.3h-37.65c-2.31-18.5-18.09-32.8-37.21-32.8-20.71,0-37.5,16.79-37.5,37.5s16.79,37.5,37.5,37.5c19.12,0,34.9-14.31,37.21-32.8h37.65c-2.43,39.23-35.02,70.3-74.86,70.3s-75-33.58-75-75,33.58-75,75-75,72.43,31.07,74.86,70.3Z"/>
        <path class="cls-1" d="M317.98,330.4h99.53c-26.2,18.62-16.78,35.55-60.93,56.69-15.5,7.42-27.16,5.83-38.6,4.98v-61.67Z"/>
        <path class="cls-1" d="M385.91,421.22c17.46,0,22.36,10.96,22.36,15.47,0,8.42-11.48,10.82-18.17,19.06h-72.12v-14.96c25.81-12.81,51.4-19.57,67.93-19.57Z"/>
        <path class="cls-1" d="M397.17,147.3h-39.5c-2.6,0-4.71,2.1-4.71,4.7s2.11,4.7,4.71,4.7h39.5c-2.31,18.49-18.09,32.8-37.21,32.8-20.71,0-37.5-16.79-37.5-37.5s16.79-37.5,37.5-37.5c19.12,0,34.9,14.3,37.21,32.8Z"/>
        <path class="cls-4" d="M372.32,480.37v21.36c0,65.54-53.32,118.86-118.86,118.86s-118.87-53.32-118.87-118.86v-21.36h55v21.36c0,35.21,28.65,63.86,63.86,63.86s63.87-28.65,63.87-63.86v-21.36h55Z"/>
        <polygon points="289.96 362.17 289.96 423.98 223.26 423.98 223.26 463.95 152.38 393.07 223.26 322.19 223.26 362.17 289.96 362.17"/>
        <polygon class="cls-1" points="245.95 816.38 245.95 851.17 211.17 851.17 245.95 816.38"/>
        <polygon class="cls-1" points="245.95 781.59 245.95 816.38 211.17 781.59 245.95 781.59"/>
        <path class="cls-1" d="M245.95,701.09v34.25h-10.17c.01-.29.01-.59.01-.88,0-11.6-1.69-22.8-4.84-33.37h15Z"/>
        <rect class="cls-9" x="186.57" y="791.78" width="49.2" height="49.2" transform="translate(-515.36 388.33) rotate(-44.99)"/>
        <path d="M235.79,734.46c0,.29,0,.59-.01.88h-116.89v-34.25h112.06c3.15,10.57,4.84,21.77,4.84,33.37Z"/>
        <path class="cls-1" d="M118.89,735.34h116.89c-.11,16.45-3.64,32.09-9.89,46.25h-49.51v54.68c-16.98,9.6-36.59,15.09-57.49,15.09-64.56,0-116.89-52.34-116.89-116.9s52.33-116.89,116.89-116.89c52.96,0,97.7,35.22,112.06,83.52h-112.06v34.25Z"/>
        <path class="cls-3" d="M118.89,735.34h116.89c-.11,16.45-3.64,32.09-9.89,46.25h-49.51v54.68c-16.98,9.6-36.59,15.09-57.49,15.09-64.56,0-116.89-52.34-116.89-116.9s52.33-116.89,116.89-116.89c52.96,0,97.7,35.22,112.06,83.52h-112.06v34.25Z"/>
        <polygon class="cls-1" points="211.17 781.59 176.38 816.38 176.38 781.59 211.17 781.59"/>
        <polygon class="cls-1" points="211.17 851.17 176.38 851.17 176.38 816.38 211.17 851.17"/>
        <circle class="cls-1" cx="112.59" cy="577.49" r="17.64"/>
      </g>
      <g>
        <polyline class="cls-6" points="722.85 851.36 786.81 851.36 786.81 711.83 756.54 711.83"/>
        <path class="cls-6" d="M646.31,711.83h-37.01c0,33.96-27.53,61.5-61.5,61.5v78.03h43.32"/>
        <line class="cls-6" x1="870.96" y1="795.37" x2="806.43" y2="505.21"/>
        <path class="cls-6" d="M844.79,373.96h-84.74c-7.28,0-14.19,1.93-20.19,5.34-4.18,2.37-7.91,5.47-11.01,9.15l-.02.02"/>
        <path class="cls-6" d="M706.89,460.96c-1.07-.47-2.07-1.15-2.95-2.03l-10.17-10.16c-1.88-1.88-2.83-4.34-2.87-6.8s.92-5.13,2.87-7.08,4.43-2.88,6.94-2.88c.1,0,.2,0,.3.01,2.41.07,4.8,1.03,6.64,2.87l10.17,10.16c2.17,2.18,3.12,5.12,2.82,7.96-.23,2.16-1.17,4.27-2.82,5.92-1.92,1.92-4.43,2.88-6.94,2.88-1.36,0-2.72-.29-3.99-.85Z"/>
        <path class="cls-6" d="M690.9,441.97c4.12,3.76,10.51,3.65,14.5-.34,1.69-1.69,2.69-3.81,2.98-6.01"/>
        <path class="cls-6" d="M701.01,432.02c-.29-.92-.44-1.87-.45-2.82-.03-2.56.92-5.14,2.87-7.09l.32-.32c2.68-2.68,6.53-3.48,9.9-2.41,1.46.46,2.83,1.26,3.98,2.41l15.95,15.95c2.07,2.07,3.02,4.85,2.85,7.56-.14,2.3-1.1,4.56-2.85,6.32l-.32.32c-3.44,3.44-8.79,3.79-12.62,1.07"/>
        <path class="cls-6" d="M713.65,419.37c.4-1.74,1.28-3.4,2.63-4.76l.33-.32c2.87-2.87,7.09-3.59,10.63-2.15,1.18.48,2.29,1.2,3.25,2.15l13.95,13.96c3.84,3.83,3.84,10.04,0,13.88l-.32.32c-2.11,2.11-4.93,3.05-7.69,2.85"/>
        <path class="cls-6" d="M742.78,426.58c.96-3.07,1.55-6.3,1.71-9.64"/>
        <path class="cls-6" d="M736.07,796.59l70.85-293.45c19.04-16.42,31.2-41.36,31.2-69.29,0-3.08-.15-6.13-.44-9.13"/>
        <path class="cls-6" d="M706.89,460.96l-80,331.3c-11.21,46.43-35.77,23.91-35.77,59.1h131.73l13.22-54.77"/>
        <path class="cls-6" d="M700.65,429.2c4.22,3.85,10.76,3.74,14.84-.35,1.34-1.33,2.24-2.95,2.73-4.65.14-.49.25-1,.32-1.5"/>
        <path class="cls-6" d="M718.23,424.2c.69.17,1.4.26,2.1.29,2.89.12,5.82-.93,8.02-3.14,1.73-1.73,2.75-3.9,3.05-6.15"/>
        <path class="cls-6" d="M685.93,392.36c.65,10.4,9.3,18.63,19.86,18.63,2.49,0,4.87-.45,7.07-1.29,3.58-1.36,7.54-1.31,11.18-.14l16.59,6.82c1.25.51,2.58.69,3.86.56,2.18-.23,4.25-1.34,5.63-3.2,2.68-3.6,1.88-8.7-1.77-11.32l-27.73-19.87c-5.59-4.01-10.71-8.63-15.27-13.78l-25.99-29.37c-1.91-2.15-1.72-5.45.44-7.36l45.5-40.45,14.56,87.71"/>
        <path class="cls-6" d="M809.84,219.9c-36.89-4.76-47.26-21.01-70.44-21.01-30.52,0-44,22.6-96.62,71.9-5.9,5.52-12.28,11.39-19.24,17.6-25.56,22.71-27.91,62.03-5.25,87.63l57.86,65.38c4.62,5.22,10.45,8.74,16.7,10.49,1.76.6,3.56,1.08,5.42,1.43"/>
        <path class="cls-6" d="M794.74,98.32c-5.41,14.98-6.61,27.06-5.16,37.56,1.88-3.88,5.86-6.56,10.46-6.56,6.41,0,11.62,5.2,11.62,11.61,0,4.35-2.41,8.1-5.92,10.13-.17.1-.34.19-.52.28"/>
        <path class="cls-6" d="M809.73,244.78c2.87,13.57,11.69,25.41,24.12,33.53"/>
        <path class="cls-6" d="M805.74,151.05c-.17.1-.34.19-.52.28-3.07,1.59-6.42,2.97-9.6,4.01,3.89,8.12,9.05,15.7,14.39,23.65.75,1.11,1.49,2.24,2.24,3.37,5.38,8.19,5.86,18.63,1.43,27.38-1.63,3.21-2.92,6.6-3.83,10.16h-.01c-1.04,4.05-1.6,8.3-1.6,12.68,0,4.15.5,8.18,1.45,12.04,0,.06.02.11.04.16,3.44,13.93,12.66,25.58,24.97,32.27-.29.42-.57.84-.85,1.26-8.3,12.5-12.92,27.65-12.37,43.9.69,20.25,9.55,38.55,23.37,51.69,12.38,11.76,28.77,19.15,46.82,20.48.23.02.47.03.71.05,15.21.71,29.49-2.98,41.61-10.03,22.3-12.98,37.3-37.13,37.3-64.8s-14.55-51.1-36.31-64.21c.74-2.22,1.27-4.54,1.54-6.93,9.61-32.3-16.39-62.12-52.12-67.2-20.28-2.89-35.8-19.46-36.65-39.94-.04-.9-.06-1.82-.06-2.74-.09-23.04-18.67-42.19-41.7-41.94-3.9.04-7.68.62-11.25,1.68-18.01,5.33-30.91,22.6-29.45,42.66,1.48,20.28,17.93,36.66,38.22,38.06,2.2.15,4.37.13,6.5-.05"/>
        <line class="cls-6" x1="642.77" y1="270.78" x2="692.18" y2="321.03"/>
        <path class="cls-6" d="M891.67,394.38c3.76,15.89,97.07,438.18,101.05,456.98h-141.88c0-35.16,28.57-17.85,20.14-55.9-.01-.03-.01-.06-.02-.09"/>
        <path class="cls-6" d="M632.16,770.44c10.84,0,15.4,12.81,17.22,26.15h86.69"/>
        <path class="cls-6" d="M866.2,773.97c10.35-2.16,19.23,10.15,25.42,22.62h89.46"/>
        <line class="cls-6" x1="933.99" y1="384.41" x2="905.64" y2="424.19"/>
        <path class="cls-6" d="M907.64,463.13c8.87-6.33,14.65-16.7,14.65-28.42,0-8.54-3.07-16.36-8.16-22.43"/>
        <path class="cls-6" d="M519.72,851.36h-65v-101.37c0-32.45-26.4-58.86-58.86-58.86s-58.86,26.41-58.86,58.86v101.37h-65v-101.37c0-68.29,55.56-123.86,123.86-123.86s123.86,55.57,123.86,123.86v101.37Z"/>
        <path class="cls-6" d="M253.46,620.59c-65.55,0-118.87-53.32-118.87-118.86v-21.36h55v21.36c0,35.21,28.65,63.86,63.86,63.86s63.87-28.65,63.87-63.86v-21.36h55v21.36c0,65.54-53.32,118.86-118.86,118.86Z"/>
        <circle class="cls-6" cx="493.9" cy="550.48" r="70.11"/>
        <polygon class="cls-6" points="493.9 379.23 493.9 330.4 317.98 330.4 317.98 455.75 493.9 455.75 493.9 379.23"/>
        <path class="cls-6" d="M225.89,781.59c6.25-14.16,9.55-29.8,9.89-46.25,0-.29.01-.59.01-.88,0-11.6-1.69-22.8-4.84-33.37-14.38-48.3-59.1-83.52-112.06-83.52-64.56,0-116.89,52.33-116.89,116.89s52.33,116.9,116.89,116.9c20.9,0,40.51-5.49,57.49-15.09"/>
        <polygon class="cls-6" points="417.42 603.57 387.84 562.58 358.25 603.57 417.42 603.57"/>
        <polygon class="cls-6" points="245.95 816.38 245.95 851.17 176.38 851.17 176.38 781.59 245.95 781.59 245.95 816.38"/>
        <rect class="cls-6" x="186.57" y="791.78" width="49.2" height="49.2" transform="translate(-515.48 388.53) rotate(-45.01)"/>
        <polygon class="cls-6" points="223.26 322.19 152.38 393.07 223.26 463.95 223.26 423.98 289.96 423.98 289.96 362.17 223.26 362.17 223.26 322.19"/>
        <path class="cls-6" d="M508.11,128.33C496.76,56.73,434.75,2,359.96,2c-82.84,0-150,67.16-150,150,0,45.16,19.96,85.67,51.54,113.16,26.35,22.95,60.78,36.84,98.46,36.84s72.12-13.89,98.46-36.84c26.23-22.84,44.44-54.64,49.86-90.64"/>
        <path class="cls-6" d="M397.17,147.3c-2.31-18.5-18.09-32.8-37.21-32.8-20.71,0-37.5,16.79-37.5,37.5s16.79,37.5,37.5,37.5c19.12,0,34.9-14.31,37.21-32.8"/>
        <path class="cls-6" d="M434.82,147.3c-2.43-39.23-35.02-70.3-74.86-70.3s-75,33.58-75,75,33.58,75,75,75,72.43-31.07,74.86-70.3"/>
        <path class="cls-6" d="M472.37,147.3c-2.47-59.96-51.85-107.8-112.41-107.8s-112.5,50.37-112.5,112.5,50.37,112.5,112.5,112.5,109.94-47.85,112.41-107.8"/>
        <rect class="cls-6" x="527.67" y="638.04" width="104.49" height="49.19"/>
        <polygon class="cls-6" points="235.78 735.34 118.89 735.34 118.89 701.09 245.95 701.09 245.95 735.34 235.78 735.34"/>
        <circle class="cls-6" cx="602.72" cy="597.07" r="26.41"/>
        <circle class="cls-6" cx="112.59" cy="577.49" r="17.64"/>
        <path class="cls-6" d="M552.49,550.48s-3.25-.88-7.94-2.15c-23.59-6.4-42.03-24.81-48.45-48.39l-2.19-8.06-2.16,7.95c-6.39,23.62-24.83,42.07-48.44,48.48l-8,2.17,8,2.17c23.61,6.4,42.05,24.85,48.44,48.47l2.16,7.96,2.19-8.06c6.42-23.58,24.86-42,48.45-48.39l7.94-2.15Z"/>
        <path class="cls-6" d="M569.48,147.3h23.51c2.6,0,4.71,2.1,4.71,4.7s-2.11,4.7-4.71,4.7h-235.32c-2.6,0-4.71-2.1-4.71-4.7s2.11-4.7,4.71-4.7h211.81Z"/>
        <polyline class="cls-6" points="489.14 147.3 523.17 113.26 603.52 113.26 569.48 147.3"/>
        <polyline class="cls-6" points="570.81 156.7 603.52 189.41 523.17 189.41 490.46 156.7"/>
        <path class="cls-6" d="M619.95,433.11l-25.97-7.05s-.06-.02-.1-.03c-5.07-1.32-9.07-5.39-10.49-10.44-.01-.05-.01-.1-.03-.14l-7.04-25.98-7.06,25.98s-.02.06-.02.09c-1.37,5.07-5.41,9.11-10.49,10.49-.03.01-.05.01-.1.03l-25.98,7.05,25.98,7.06s.07.02.1.03c5.08,1.38,9.12,5.42,10.49,10.49,0,.03.02.06.02.09l7.06,25.98,7.04-25.98s.02-.1.03-.14c1.35-5.07,5.42-9.12,10.49-10.44.04-.01.07-.03.1-.03l25.97-7.06Z"/>
        <path d="M568.1,354.29l-12.08-3.29s-.03,0-.05,0c-2.35-.64-4.22-2.51-4.88-4.86,0-.02-.02-.03-.02-.05l-3.28-12.1-3.28,12.1s0,.02-.02.03c-.64,2.37-2.5,4.23-4.87,4.89,0,0-.03,0-.05,0l-12.09,3.29,12.09,3.28s.05,0,.05,0c2.37.65,4.23,2.54,4.87,4.89.02.02.02.02.02.04l3.28,12.08,3.28-12.08s.02-.05.02-.07c.66-2.35,2.53-4.21,4.88-4.86.02,0,.04,0,.05,0l12.08-3.28Z"/>
        <path class="cls-6" d="M317.98,392.07c11.44.85,23.1,2.44,38.6-4.98,44.15-21.14,34.73-38.07,60.93-56.69"/>
        <path class="cls-6" d="M476.91,330.4c-21.32,21.57-45.95,35.26-45.95,52.34,0,9.58,3.42,16.35,12.93,16.35,14.77,0,36.1-15.48,50.01-19.86"/>
        <path class="cls-6" d="M493.9,410.48c-18.71,13.15-51.12,23.87-68.9,45.27"/>
        <path class="cls-6" d="M317.98,440.79c25.81-12.81,51.4-19.57,67.93-19.57,17.46,0,22.36,10.96,22.36,15.47,0,8.42-11.48,10.82-18.17,19.06"/>
      </g>
    </g>
  </g>
</svg>