<?xml version="1.0" encoding="UTF-8"?>
<svg id="Capa_2" data-name="Capa 2" xmlns="http://www.w3.org/2000/svg" viewBox="0 0 303.95 212.76">
  <defs>
    <style>
      .cls-1 {
        fill: #fff;
      }

      .cls-2 {
        fill: #ffcf4b;
      }

      .cls-3 {
        fill: #cdd5d7;
      }

      .cls-4 {
        fill: #fccc42;
      }

      .cls-5 {
        fill: #080717;
      }
    </style>
  </defs>
  <g id="Layer_2" data-name="Layer 2">
    <g>
      <g>
        <path class="cls-3" d="M55.36,153.75c-4.1,0-7.44-5.29-7.44-9.36V7.38c0-4.07,3.34-7.38,7.44-7.38h201.87c4.11,0,7.45,3.31,7.45,7.38v137.01c0,4.07-3.34,9.36-7.45,9.36H55.36Z"/>
        <path d="M263.97,144.39c0,3.69-3.02,8.67-6.75,8.67H55.36c-3.73,0-6.75-4.98-6.75-8.67V7.38c0-3.7,3.02-6.69,6.75-6.69h201.87c3.73,0,6.75,3,6.75,6.69v137.01Z"/>
        <rect class="cls-2" x="59.17" y="10.29" width="194.24" height="122.96"/>
        <g>
          <rect class="cls-1" x="12.61" y="144.49" width="287.36" height="8.4"/>
          <path d="M298.97,145.49v6.41H13.61v-6.41h285.36M300.97,143.5H11.61v10.38h289.36v-10.38h0Z"/>
        </g>
        <path d="M12.04,153.88c3.42,3.59,9.71,5,14.06,5h260.4c4.34,0,10.63-1.41,14.05-5H12.04Z"/>
      </g>
      <g>
        <g>
          <g>
            <path class="cls-1" d="M118.78,108.97l13.57,13.12c.9.87.79,2.34-.23,3.07h0c-2.94,2.11-6.91,2.11-9.86,0l-8.84-6.33,5.35-9.86Z"/>
            <path d="M127.19,127.73c-1.93,0-3.86-.59-5.51-1.77l-8.84-6.33c-.41-.29-.53-.84-.29-1.27l5.35-9.86c.15-.27.42-.46.73-.51.32-.05.62.05.85.27l13.57,13.12c.64.62.97,1.48.91,2.37-.07.89-.52,1.69-1.25,2.21-1.65,1.18-3.58,1.77-5.51,1.77ZM114.72,118.53l8.12,5.82c2.6,1.86,6.09,1.86,8.68,0,.25-.18.4-.45.42-.75.02-.3-.09-.59-.31-.8l-12.62-12.2-4.31,7.93Z"/>
          </g>
          <g>
            <path class="cls-1" d="M69.5,210.74l26.34-44.52,25.77-9.48c5.4-1.99,10.14-5.41,13.71-9.89l3.76-4.72c1.13-1.42.59-3.53-1.1-4.23h0c-2.41-1.01-5.19-.63-7.24.98l-7.76,6.1-4.73.58c-6.85.83-11.62-6.58-7.96-12.38l13.08-20.8,13.46-7.28c2.02-1.09,3.14-3.32,2.82-5.57h0c-.12-.83-.93-1.39-1.76-1.19l-16.43,3.81-6.12,6.07-10.7,2.65,5.35-8.34,14.9-7.72c1.14-.59,1.74-1.86,1.47-3.1-.37-1.69-2.16-2.66-3.79-2.06l-19.46,7.2-10.7,12.51s9.43-20.65,7.27-21.48c-1.36-.52-2.9-.07-3.76,1.09l-7.72,10.53-22.94,42.46L1,188.97"/>
            <path d="M69.5,211.73c-.17,0-.35-.04-.5-.14-.48-.28-.64-.88-.36-1.36l26.34-44.52c.12-.2.3-.35.51-.43l25.77-9.48c5.23-1.92,9.82-5.23,13.28-9.57l3.76-4.72c.34-.43.46-.99.32-1.52-.14-.53-.51-.96-1.02-1.18-2.08-.87-4.46-.54-6.23.85l-7.76,6.1c-.14.11-.32.19-.5.21l-4.73.58c-3.56.43-6.96-1.16-8.89-4.15-1.93-2.99-1.94-6.73-.05-9.74l13.08-20.8c.09-.14.22-.26.37-.35l13.46-7.28c1.65-.89,2.57-2.72,2.31-4.56-.02-.17-.13-.26-.19-.3-.06-.04-.18-.1-.35-.07l-16.15,3.75-5.92,5.87c-.13.13-.29.22-.46.26l-10.7,2.65c-.39.1-.81-.05-1.05-.38-.24-.33-.25-.77-.03-1.11l5.35-8.34c.09-.15.23-.27.38-.35l14.9-7.72c.74-.38,1.13-1.21.95-2.01-.11-.52-.45-.97-.92-1.23-.47-.26-1.03-.3-1.54-.11l-19.22,7.11-10.54,12.31c-.32.38-.88.46-1.3.2-.42-.26-.58-.8-.38-1.25,3.8-8.31,7.63-18.14,7.52-20.24-.86-.2-1.76.13-2.28.85l-7.68,10.48-22.91,42.4c-.07.13-.17.24-.29.33L1.59,189.77c-.45.33-1.07.23-1.4-.21-.33-.44-.23-1.06.21-1.39l64.07-46.89,22.83-42.27s.05-.08.07-.12l7.72-10.53c1.12-1.53,3.15-2.12,4.93-1.43.36.14.64.42.8.8.78,1.9-2.12,9.54-4.78,15.8l6.29-7.35c.11-.13.25-.23.41-.29l19.46-7.2c1.05-.39,2.22-.3,3.2.23.98.53,1.68,1.46,1.91,2.55.36,1.67-.45,3.4-1.98,4.19l-14.66,7.6-3.86,6.02,8-1.98,5.92-5.87c.13-.13.3-.22.48-.26l16.43-3.81c.66-.16,1.37-.02,1.94.36.57.38.95.99,1.04,1.66.38,2.66-.96,5.3-3.33,6.59l-13.23,7.16-12.94,20.58c-1.48,2.36-1.47,5.28.04,7.62,1.51,2.34,4.16,3.59,6.95,3.25l4.45-.54,7.54-5.93c2.34-1.84,5.5-2.27,8.25-1.12,1.09.46,1.89,1.37,2.19,2.51.29,1.14.04,2.32-.69,3.25l-3.76,4.72c-3.68,4.63-8.58,8.16-14.15,10.21l-25.43,9.35-26.16,44.21c-.19.31-.52.49-.86.49Z"/>
          </g>
          <path d="M106.29,118.05c-.26,0-.52-.1-.71-.3-.39-.39-.38-1.02,0-1.4l9.05-8.85c.39-.38,1.03-.38,1.41,0,.39.39.38,1.02,0,1.4l-9.05,8.85c-.2.19-.45.29-.7.29Z"/>
          <path d="M99.66,113.75c-.4,0-.78-.24-.93-.64-.2-.51.06-1.08.57-1.28l4.97-1.9c.52-.2,1.09.06,1.29.57.2.51-.06,1.08-.57,1.28l-4.97,1.9c-.12.05-.24.07-.36.07Z"/>
        </g>
        <g>
          <g>
            <path class="cls-1" d="M205.81,124.07l-7.39,19.55h0c3.58,1.03,7.4-.47,9.29-3.65l6.59-11.07-8.49-4.83Z"/>
            <path d="M200.7,144.94c-.85,0-1.71-.12-2.56-.36-.27-.08-.49-.26-.61-.51-.12-.25-.14-.53-.04-.79l7.39-19.55c.1-.27.32-.49.6-.59.27-.1.58-.07.84.07l8.49,4.83c.23.13.4.35.47.61.07.26.03.53-.11.76l-6.59,11.07c-1.68,2.82-4.7,4.46-7.88,4.46ZM199.77,142.89c2.81.37,5.61-.95,7.09-3.43l6.07-10.2-6.59-3.75-6.57,17.38Z"/>
          </g>
          <g>
            <path class="cls-1" d="M197.77,124.07l-7.39,19.55h0c3.58,1.03,7.4-.47,9.29-3.65l6.59-11.07-8.49-4.83Z"/>
            <path d="M192.66,144.94c-.85,0-1.71-.12-2.56-.36-.27-.08-.49-.26-.61-.51-.12-.25-.14-.53-.04-.79l7.39-19.55c.1-.27.32-.49.6-.59.28-.1.58-.07.84.07l8.49,4.83c.23.13.4.35.47.61.07.26.03.53-.11.76l-6.59,11.07c-1.68,2.82-4.7,4.46-7.88,4.46ZM191.72,142.89c2.81.37,5.61-.95,7.09-3.43l6.07-10.2-6.59-3.75-6.57,17.38Z"/>
          </g>
          <g>
            <path class="cls-1" d="M191.2,124.16l-10.32,18.2h0c3.37,1.56,7.39.66,9.75-2.2l8.22-9.93-7.65-6.07Z"/>
            <path d="M184.32,144.11c-1.31,0-2.63-.28-3.87-.85-.25-.12-.44-.33-.53-.6-.09-.26-.06-.55.08-.79l10.32-18.2c.14-.25.39-.43.68-.49.29-.06.59.02.82.2l7.65,6.07c.21.17.34.41.37.67.03.26-.05.53-.22.73l-8.22,9.94c-1.78,2.15-4.4,3.32-7.08,3.32ZM182.32,141.84c2.72.79,5.69-.08,7.54-2.31l7.58-9.16-5.94-4.71-9.18,16.18Z"/>
          </g>
          <g>
            <path class="cls-1" d="M302.95,195.57l-58.99-47.14-22.56-30.33-27.53,2.27-23.32-6.07c.24,3.52,2.35,6.64,5.54,8.2l15.87,7.73,13.38,12.89h0c2.03,5.68-2.29,11.63-8.37,11.51h-.74c-4.31-.1-8.52-1.29-12.22-3.47l-7.35-4.33c-.74-.44-1.61-.63-2.47-.53h0c-3.44.38-4.79,4.64-2.18,6.9l23.39,20.26,23.32,7.2,22.68,31.11"/>
            <path d="M241.41,212.76c-.31,0-.62-.14-.81-.41l-22.49-30.84-23-7.11c-.13-.04-.25-.11-.36-.2l-23.38-20.26c-1.51-1.31-2.08-3.3-1.48-5.2.6-1.9,2.21-3.21,4.2-3.43,1.08-.12,2.17.12,3.1.66l7.35,4.33c3.55,2.09,7.6,3.24,11.73,3.32h.74c.05.01.1.02.16.02,2.5,0,4.77-1.15,6.24-3.17,1.46-2,1.85-4.47,1.08-6.81l-13.09-12.61-15.73-7.66c-3.5-1.71-5.84-5.16-6.1-9.02-.02-.32.11-.63.36-.83.25-.2.58-.28.89-.19l23.15,6.02,27.36-2.26c.34-.03.68.12.89.4l22.48,30.23,58.89,47.06c.43.34.5.97.15,1.39-.34.43-.97.49-1.41.15l-58.99-47.14c-.07-.05-.13-.12-.18-.18l-22.22-29.89-26.97,2.23c-.11,0-.23,0-.34-.03l-21.86-5.69c.6,2.57,2.34,4.79,4.77,5.97l15.87,7.73c.09.05.18.11.26.18l13.38,12.89c.11.11.19.24.25.38,1.06,2.98.59,6.28-1.27,8.84s-4.84,4.05-8.06,3.99h-.74c-4.47-.1-8.87-1.34-12.71-3.61l-7.35-4.33c-.55-.33-1.21-.47-1.85-.4-1.43.16-2.23,1.16-2.51,2.05-.28.89-.2,2.17.88,3.11l23.23,20.12,23.12,7.14c.21.06.39.19.51.37l22.68,31.11c.32.44.22,1.06-.22,1.38-.18.13-.38.19-.59.19Z"/>
          </g>
          <g>
            <line class="cls-1" x1="209.93" y1="130.99" x2="193.88" y2="120.37"/>
            <path class="cls-5" d="M209.93,131.98c-.19,0-.38-.05-.55-.17l-16.06-10.62c-.46-.3-.58-.92-.28-1.38.31-.46.92-.58,1.39-.28l16.06,10.62c.46.3.58.92.28,1.38-.19.29-.51.44-.83.44Z"/>
          </g>
          <g>
            <line class="cls-1" x1="215.67" y1="126.82" x2="205.73" y2="119.23"/>
            <path class="cls-5" d="M215.67,127.81c-.21,0-.43-.07-.61-.21l-9.94-7.58c-.44-.33-.52-.96-.18-1.39.34-.43.96-.52,1.4-.18l9.94,7.58c.44.33.52.96.18,1.39-.2.25-.49.39-.79.39Z"/>
          </g>
          <g>
            <line class="cls-1" x1="221.4" y1="125.68" x2="214.14" y2="119.23"/>
            <path class="cls-5" d="M221.4,126.67c-.24,0-.48-.08-.67-.25l-7.26-6.45c-.41-.37-.45-.99-.08-1.4.37-.41,1-.44,1.41-.08l7.26,6.45c.41.36.45.99.08,1.4-.2.22-.47.33-.75.33Z"/>
          </g>
        </g>
      </g>
      <rect x="79.92" y="24.12" width="54.88" height="54.43"/>
      <g>
        <rect class="cls-5" x="143.58" y="24.78" width="60.46" height="3.81"/>
        <rect class="cls-5" x="143.58" y="32.24" width="80.89" height="3.81"/>
      </g>
      <g>
        <rect class="cls-1" x="143.58" y="40.93" width="39.78" height="1.98"/>
        <rect class="cls-1" x="143.58" y="46.48" width="23.53" height="1.98"/>
      </g>
      <g>
        <path class="cls-1" d="M200.16,76.92h-47.06c-5.26,0-9.52-4.23-9.52-9.45h0c0-5.22,4.26-9.45,9.52-9.45h47.06c5.26,0,9.52,4.23,9.52,9.45h0c0,5.22-4.26,9.45-9.52,9.45Z"/>
        <path class="cls-5" d="M193.52,67.91h-33.78c-.55,0-1-.44-1-.99s.45-.99,1-.99h33.78c.55,0,1,.44,1,.99s-.45.99-1,.99Z"/>
      </g>
      <path d="M227.57,82.63c-.04-.48-.38-.89-.83-1.05l-26.83-9.21c-.48-.15-1-.03-1.32.34-.32.37-.39.9-.17,1.34l12.8,25.15c.2.45.67.7,1.14.67h.02c.48-.03.89-.34,1.07-.8l3.27-9.03,8.79,7.62c.25.22.56.32.86.3.32-.02.64-.17.86-.42.42-.51.37-1.26-.12-1.71l-8.8-7.6,8.6-4.43c.42-.23.7-.67.66-1.18Z"/>
      <polygon class="cls-4" points="107.5 55.52 123.09 62.51 114.97 46.69 122.95 36.68 108.2 39.71 97.48 31.08 98.74 44.49 85.23 48.96 99.74 54.12 100.72 69.26 107.5 55.52"/>
    </g>
  </g>
</svg>