<?xml version="1.0" encoding="UTF-8"?>
<svg id="Capa_2" data-name="Capa 2" xmlns="http://www.w3.org/2000/svg" viewBox="0 0 299.24 231.14">
  <defs>
    <style>
      .cls-1 {
        fill: #282d33;
      }

      .cls-2 {
        fill: #fff;
      }

      .cls-3 {
        fill: #7ca0fc;
      }

      .cls-4 {
        fill: #fccc42;
      }

      .cls-5 {
        fill: #080717;
      }

      .cls-6 {
        fill: #1d1d1b;
      }
    </style>
  </defs>
  <g id="Layer_2" data-name="Layer 2">
    <g>
      <g>
        <g>
          <polygon class="cls-2" points="275.57 87.29 62.86 87.29 47.56 101.45 286.9 101.45 275.57 87.29"/>
          <path d="M286.9,102.45H47.56c-.41,0-.78-.25-.93-.63-.15-.38-.05-.81.25-1.09l15.3-14.17c.19-.17.43-.27.68-.27h212.71c.31,0,.59.14.78.38l11.33,14.17c.24.3.28.7.12,1.05-.17.34-.52.56-.9.56ZM50.1,100.46h234.74l-9.75-12.18H63.26l-13.16,12.18Z"/>
        </g>
        <g>
          <line class="cls-2" x1="62.13" y1="104.44" x2="40.85" y2="230.15"/>
          <path d="M40.85,231.14c-.05,0-.11,0-.17-.01-.54-.09-.91-.6-.82-1.14l21.28-125.72c.09-.54.6-.9,1.15-.81.54.09.91.6.82,1.14l-21.28,125.72c-.08.48-.51.83-.99.83Z"/>
        </g>
        <g>
          <line class="cls-2" x1="276.96" y1="104.44" x2="298.24" y2="230.15"/>
          <path d="M298.24,231.14c-.48,0-.9-.34-.99-.83l-21.28-125.72c-.09-.54.28-1.05.82-1.14.55-.09,1.06.27,1.15.81l21.28,125.72c.09.54-.28,1.05-.82,1.14-.06,0-.11.01-.17.01Z"/>
        </g>
        <g>
          <rect class="cls-2" x="47.56" y="101.45" width="239.34" height="6.3"/>
          <path d="M286.9,108.74H47.56c-.55,0-1-.44-1-.99v-6.3c0-.55.45-.99,1-.99h239.34c.55,0,1,.44,1,.99v6.3c0,.55-.45.99-1,.99ZM48.56,106.76h237.34v-4.32H48.56v4.32Z"/>
        </g>
      </g>
      <g>
        <path class="cls-6" d="M189.83,99.04l-48.3-.26c-1.94,0-3.85-.24-4.13-.51l-12.75-8.01v-2.16l53.33,3.01,12.41,5.06c1.52.62,1.07,2.87-.57,2.87Z"/>
        <path class="cls-6" d="M123.27,88.84l-12-29.13c-.89-2.16.71-4.52,3.06-4.52h48.9c1.38,0,2.61.85,3.1,2.13l11.06,29.13c.81,2.15-.79,4.44-3.1,4.44h-47.95c-1.34,0-2.56-.81-3.06-2.04Z"/>
        <path class="cls-3" d="M127.5,88.57c-.39,0-.74-.24-.89-.6l-11.72-29.13c-.17-.42-.02-.75.09-.91.11-.16.35-.43.8-.43h47.74c.4,0,.76.25.9.63l10.79,29.13c.15.42,0,.74-.11.9s-.35.42-.79.42h-46.81Z"/>
        <path class="cls-6" d="M189.83,96.89l-48.3-.26c-1.94,0-3.85-.24-4.13-.51l-12-5.37,52.58-1.79,12.41,5.06c1.52.62,1.07,2.87-.57,2.87Z"/>
      </g>
      <g>
        <g>
          <path class="cls-6" d="M190.03,7.52s-4.15,10.36-6.55,10.65c-2.41.29-8.8-.02-9.52-4.31-.72-4.28,1.12-3.65,2.96-4.12,1.84-.48.24-4.68,1.36-5.16,1.12-.48,2.56-.32,5.36.32,2.8.63,6.4,2.62,6.4,2.62Z"/>
          <g>
            <path class="cls-2" d="M222.54,48.31l-12.21-19.16c1.17-2.36,1.84-5.02,1.84-7.84,0-9.57-7.58-17.12-16.92-17.33-15.33-.35-17.67,13.26-17.21,16.05.11.65.21,1.29.3,1.9.04,1.05.16,2.07.37,3.06.16,2.19-.03,3.94-1.04,5.02-1.51,1.64,7.17,15.11,17.29,8.97l6.9,11.86,20.66-2.52Z"/>
            <path d="M201.88,51.83c-.35,0-.69-.19-.87-.5l-6.41-11.01c-6.1,3.09-11.89-.11-15.38-4.29-1.49-1.79-3.64-5.21-2.28-6.69.68-.74.93-2.08.78-4.22-.21-1.02-.34-2.06-.38-3.11-.09-.59-.19-1.2-.29-1.83-.33-2.03.56-7.54,4.19-11.69,3.33-3.79,8.04-5.65,14.02-5.51,10.04.23,17.9,8.27,17.9,18.32,0,2.71-.57,5.32-1.7,7.77l11.91,18.7c.18.29.21.65.06.95-.15.31-.44.52-.78.56l-20.66,2.52s-.08,0-.12,0ZM194.97,37.99c.08,0,.16.01.25.03.26.07.49.23.62.47l6.57,11.29,18.44-2.25-11.37-17.84c-.19-.29-.21-.66-.05-.97,1.15-2.32,1.74-4.81,1.74-7.4,0-8.96-7-16.13-15.94-16.34-5.39-.11-9.55,1.5-12.47,4.83-3.42,3.89-3.93,8.81-3.73,10.07.11.66.21,1.29.3,1.91,0,.04,0,.08,0,.11.03.98.15,1.95.35,2.89,0,.04.02.09.02.13.14,1.84.12,4.13-1.21,5.67-.05.89,1.83,4.6,5.35,7.04,2.44,1.69,6.26,3.14,10.59.51.16-.1.34-.15.52-.15Z"/>
          </g>
          <path class="cls-6" d="M196.51,0c-6.24,0-11.75,3.2-15.07,8.08,1.63-.44,3.32-.69,5.07-.69,11.86,0,21.47,10.73,21.47,23.97,0,.74-.03,1.46-.09,2.18,4.25-3.44,6.98-8.76,6.98-14.74,0-10.38-8.22-18.8-18.36-18.8Z"/>
          <path class="cls-6" d="M179.83,7.61s3.65,3.61,8.43,3.73c2.53.06-.51,1.32.19,3.82.69,2.51,2.78,5.33,2.91,6.7.13,1.38,2.32.86,2.32.86l9.38,10.7c1.12,1.28,2.96,1.69,4.52,1l4.72-2.06-.85-4.87-7.45-18.92s-16.55-8.21-24.16-.97Z"/>
          <ellipse class="cls-2" cx="197.46" cy="22.74" rx="4.04" ry="4.01"/>
          <path d="M183.81,36.62c-.32,0-.63-.15-.82-.42-.32-.45-.21-1.07.25-1.38.81-.56.84-1.69.84-1.7,0-.54.46-.98,1-.98h0c.55,0,.99.44.99.99,0,.09-.02,2.16-1.69,3.32-.17.12-.37.18-.57.18Z"/>
          <path d="M183.99,21.5c-.4,0-.78-.24-.93-.64-.08-.21-.61-.66-1.38-.83-.52-.11-1.26-.12-1.88.47-.4.38-1.03.37-1.41-.02-.38-.39-.37-1.02.02-1.4.97-.93,2.32-1.29,3.7-.98,1.32.29,2.45,1.11,2.82,2.06.2.51-.06,1.09-.57,1.28-.12.04-.24.07-.36.07Z"/>
          <path d="M182.86,25.37c-.1.84-.67,1.47-1.28,1.4-.61-.07-1.03-.81-.93-1.65s.67-1.47,1.28-1.4c.61.07,1.03.81.93,1.65Z"/>
        </g>
        <g>
          <polygon class="cls-2" points="185.42 213.64 176.8 185.62 191.89 190.78 197.3 213.64 185.42 213.64"/>
          <path d="M178.33,187.19l12.71,4.36,4.99,21.1h-9.88l-7.83-25.46M175.28,184.04l9.4,30.59h13.88l-5.82-24.6-17.47-5.98h0Z"/>
        </g>
        <path class="cls-6" d="M197.64,210.04l4.93,16.52h-46.28c-1.67,0-2.87-1.61-2.37-3.19l.46-1.48c.44-1.42,1.42-2.61,2.73-3.33l24.64-13.56s2.47,1.84,2.47,4.44,4.32,5.81,13.42.61Z"/>
        <polygon class="cls-3" points="198.25 129.9 198.25 198.72 176.51 198.72 167.72 134.95 198.25 129.9"/>
        <g>
          <polygon class="cls-2" points="156.12 213.64 147.5 185.62 162.59 190.78 168 213.64 156.12 213.64"/>
          <path d="M149.03,187.19l12.71,4.36,4.99,21.1h-9.88l-7.83-25.46M145.97,184.04l9.4,30.59h13.88l-5.82-24.6-17.46-5.98h0Z"/>
        </g>
        <path class="cls-6" d="M168.34,210.04l4.93,16.52h-46.28c-1.67,0-2.87-1.61-2.37-3.19l.46-1.48c.44-1.42,1.42-2.61,2.73-3.33l24.64-13.56s2.47,1.84,2.47,4.44,4.32,5.81,13.42.61Z"/>
        <path class="cls-3" d="M237.56,118.43l-101.57,5.05c-9.92.47-16.93,9.82-14.53,19.38l17.11,57.24h32.85l-16.66-50.93h68.63c8.39,0,15.78-5.5,18.11-13.5h0c.86-8.07-3.94-17.24-3.94-17.24Z"/>
        <polygon class="cls-4" points="169.26 99.16 194.15 99.15 194.71 81.73 169.26 81.73 169.26 99.16"/>
        <path class="cls-4" d="M185.77,49.01l-22.53,36.78c-1.47,2.39-1.85,5.29-1.06,7.98h0c1.41,4.8,7.74,6.94,12.4,4.19l23.95-14.12s16.19-57.68-12.75-34.82Z"/>
        <path class="cls-4" d="M241.9,123.02l-7.86-70.66c-.96-3.83-6.67-9.05-10.64-8.26l-27.13-1.09c-8.24,1.64-13.95,8.97-13.33,17.12l4.37,61.51,54.59,1.38Z"/>
        <path class="cls-2" d="M174.87,100.03c-.29,0-.58-.12-.78-.36-.35-.42-.29-1.05.14-1.4l23.08-18.69c.43-.35,1.06-.28,1.41.14.35.42.29,1.05-.14,1.4l-23.08,18.69c-.19.15-.41.22-.63.22Z"/>
      </g>
      <g>
        <g>
          <path d="M247.81,226.81c-.36,0-.71-.2-.89-.54l-36.11-70.22c-.25-.49-.06-1.09.44-1.33.49-.25,1.09-.06,1.34.43l36.11,70.22c.25.49.06,1.09-.44,1.33-.15.07-.3.11-.45.11Z"/>
          <path d="M165.31,226.81c-.15,0-.31-.03-.45-.11-.49-.25-.69-.85-.44-1.33l36.11-70.22c.25-.49.85-.68,1.34-.43.49.25.69.85.44,1.33l-36.11,70.22c-.18.34-.53.54-.89.54Z"/>
          <path d="M206.56,228.17c-.55,0-1-.44-1-.99v-71.35c0-.55.45-.99,1-.99s1,.44,1,.99v71.35c0,.55-.45.99-1,.99Z"/>
          <g>
            <path class="cls-2" d="M239.32,157.43h-58.99c-3.07,0-5.55-2.47-5.55-5.51h0c0-3.04,2.49-5.51,5.55-5.51h58.99c3.07,0,5.55,2.47,5.55,5.51h0c0,3.04-2.49,5.51-5.55,5.51Z"/>
            <path d="M239.32,158.43h-58.99c-3.61,0-6.55-2.91-6.55-6.5s2.94-6.5,6.55-6.5h58.99c3.61,0,6.55,2.91,6.55,6.5s-2.94,6.5-6.55,6.5ZM180.34,147.41c-2.51,0-4.55,2.03-4.55,4.51s2.04,4.51,4.55,4.51h58.99c2.51,0,4.55-2.03,4.55-4.51s-2.04-4.51-4.55-4.51h-58.99Z"/>
          </g>
        </g>
        <path class="cls-2" d="M245.21,157.36h-58.99c-3.07,0-5.55-2.47-5.55-5.51h0c0-3.04,2.49-5.51,5.55-5.51h58.99c3.07,0,5.55,2.47,5.55,5.51h0c0,3.04-2.49,5.51-5.55,5.51Z"/>
        <g>
          <path class="cls-2" d="M199.03,122.05s-15.33-9.47-24.52-1.5c-5.43,4.71-2.65,16.74.53,25.79h-1.31c-3.07,0-5.55,2.47-5.55,5.51s2.49,5.51,5.55,5.51h5.87s.04.08.04.08h24.75c4.15,0,7.77-2.78,8.8-6.76l-14.16-28.62Z"/>
          <path d="M204.39,158.43h-24.75c-.14,0-.27-.03-.39-.08h-5.52c-3.61,0-6.55-2.91-6.55-6.5s2.89-6.45,6.46-6.5c-3.11-9.26-5.35-20.72.2-25.54,9.63-8.36,25.06,1,25.71,1.4.16.1.29.24.37.41l14.16,28.62c.11.21.13.45.07.68-1.15,4.42-5.16,7.51-9.77,7.51ZM179.99,156.44h24.4c3.57,0,6.7-2.32,7.73-5.68l-13.86-28.01c-1.94-1.12-15.17-8.32-23.09-1.45-3.89,3.38-3.6,12.15.82,24.71.11.3.06.64-.13.9s-.49.42-.82.42h-1.31c-2.51,0-4.55,2.03-4.55,4.51s2.04,4.51,4.55,4.51h5.87c.14,0,.27.03.39.08Z"/>
        </g>
        <g>
          <path class="cls-2" d="M201.54,157.43h40.97c4.15,0,7.77-2.78,8.8-6.76,0,0,10.38-32.65,5.09-42.16-5.2-9.35-44.02-9.48-56.36,12.05-6.03,10.53,1.49,36.88,1.49,36.88Z"/>
          <path d="M242.51,158.43h-40.97c-.45,0-.84-.29-.96-.72-.31-1.09-7.57-26.87-1.4-37.64,7.92-13.82,26.04-18.63,39.07-18.55,9.54.06,16.83,2.56,19.03,6.51,5.43,9.77-4.58,41.59-5.01,42.94-1.13,4.37-5.15,7.46-9.75,7.46ZM202.3,156.44h40.21c3.69,0,6.91-2.48,7.83-6.02.12-.37,10.21-32.4,5.18-41.43-1.79-3.23-8.74-5.43-17.29-5.49-.11,0-.22,0-.32,0-12.51,0-29.57,4.58-37,17.54-5.21,9.1.26,31.13,1.39,35.39Z"/>
        </g>
      </g>
      <path d="M142.83,11.62c-5.83,0-10.55,4.26-10.55,9.51s10.55,19.66,10.55,19.66c0,0,10.55-14.41,10.55-19.66s-4.72-9.51-10.55-9.51ZM142.83,24.94c-2.33,0-4.22-1.7-4.22-3.81s1.89-3.81,4.22-3.81,4.22,1.7,4.22,3.81-1.89,3.81-4.22,3.81Z"/>
      <g>
        <g>
          <path d="M90.85,38.72c-1.08,0-1.96-.87-1.96-1.94s.88-1.94,1.96-1.94c1.08,0,1.96.87,1.96,1.94,0,.52-.2,1.01-.57,1.37-.37.37-.86.57-1.38.57h0Z"/>
          <path d="M90.85,35.83c.53,0,.96.43.96.95,0,.34-.18.57-.28.67-.1.1-.33.28-.68.28-.53,0-.96-.43-.96-.95,0-.34.18-.57.28-.67.1-.1.33-.28.68-.28M90.85,33.84c-1.63,0-2.96,1.31-2.96,2.93,0,1.62,1.32,2.93,2.96,2.93h0c1.63,0,2.96-1.31,2.96-2.93,0-1.62-1.32-2.93-2.96-2.93h0Z"/>
        </g>
        <g>
          <path d="M79.01,38.72c-1.08,0-1.96-.87-1.96-1.94s.88-1.94,1.96-1.94c1.08,0,1.96.87,1.96,1.94,0,.52-.2,1.01-.57,1.37-.37.37-.86.57-1.38.57h0Z"/>
          <path d="M79.02,35.83c.53,0,.96.43.96.95,0,.34-.18.57-.28.67-.1.1-.33.28-.68.28-.53,0-.96-.43-.96-.95,0-.34.18-.57.28-.67.1-.1.33-.28.68-.28M79.02,33.84c-1.63,0-2.96,1.31-2.96,2.93,0,1.62,1.32,2.93,2.96,2.93h0c1.63,0,2.96-1.31,2.96-2.93,0-1.62-1.32-2.93-2.96-2.93h0Z"/>
        </g>
        <rect x="80.99" y="35.78" width="7.89" height="1.98"/>
        <g>
          <polyline points="67.19 15.27 71.13 15.27 76.06 29.93 93.8 29.93 96.95 18.99 72.44 18.99 71.57 16.68"/>
          <path d="M94.56,30.92h-19.22l-4.71-13.89h.03s-.26-.77-.26-.77h-3.22v-1.98h4.66l1.29,3.72h25.14l-3.72,12.93ZM76.78,28.94h16.27l2.58-8.96h-21.86l3.01,8.96Z"/>
        </g>
        <path d="M76.55,37.77c-2.45,0-4.45-1.98-4.45-4.41s2-4.41,4.45-4.41v1.98c-1.35,0-2.45,1.09-2.45,2.43s1.1,2.43,2.45,2.43v1.98Z"/>
      </g>
      <path d="M25.17,34.48s5.74-16.34.94-18.25c-5.98-2.38-9.16,7.66-6.31,11,2.86,3.35-.49-8.32-5.91-5.91-4.23,1.88-4.54,9.08,11.28,13.16Z"/>
      <g>
        <polygon class="cls-1" points="18.51 9.07 17.61 2.82 19.59 2.54 20.49 8.78 18.51 9.07"/>
        <polygon class="cls-1" points="18.51 9.07 17.61 2.82 19.59 2.54 20.49 8.78 18.51 9.07"/>
        <polygon class="cls-1" points="5.9 20.14 0 17.79 .74 15.95 6.65 18.3 5.9 20.14"/>
        <polygon class="cls-1" points="4.27 40.4 3.03 38.84 8.04 34.95 9.27 36.51 4.27 40.4"/>
        <polygon class="cls-1" points="24.17 48.32 23.27 42.08 25.25 41.8 26.15 48.04 24.17 48.32"/>
        <polygon class="cls-1" points="43.01 34.91 37.11 32.57 37.86 30.72 43.76 33.07 43.01 34.91"/>
        <polygon class="cls-1" points="35.72 15.92 34.49 14.36 39.49 10.46 40.73 12.02 35.72 15.92"/>
      </g>
      <path class="cls-5" d="M65.57,24.84h-1.72v-1.98h1.72v1.98ZM61.85,24.84h-2v-1.98h2v1.98ZM57.85,24.84h-2v-1.98h2v1.98ZM53.85,24.84h-2v-1.98h2v1.98ZM49.85,24.84h-2v-1.98h2v1.98ZM45.85,24.84h-2v-1.98h2v1.98ZM41.85,24.84h-2v-1.98h2v1.98Z"/>
      <path class="cls-5" d="M129.09,24.84h-1.72v-1.98h1.72v1.98ZM125.37,24.84h-2v-1.98h2v1.98ZM121.37,24.84h-2v-1.98h2v1.98ZM117.37,24.84h-2v-1.98h2v1.98ZM113.37,24.84h-2v-1.98h2v1.98ZM109.37,24.84h-2v-1.98h2v1.98ZM105.37,24.84h-2v-1.98h2v1.98Z"/>
    </g>
  </g>
</svg>