<?xml version="1.0" encoding="UTF-8"?>
<svg id="Capa_2" data-name="Capa 2" xmlns="http://www.w3.org/2000/svg" viewBox="0 0 311.67 311.67">
  <defs>
    <style>
      .cls-1 {
        fill: #fff;
      }

      .cls-2 {
        fill: #abfb4f;
      }

      .cls-3 {
        fill: blue;
      }

      .cls-4 {
        fill: #010101;
      }
    </style>
  </defs>
  <g id="Capa_1-2" data-name="Capa 1">
    <g>
      <g>
        <g>
          <path class="cls-4" d="M22.78.55h100c12.26,0,22.22,9.96,22.22,22.22v233.33c0,12.26-9.96,22.22-22.22,22.22H22.78c-12.26,0-22.22-9.96-22.22-22.22V22.78C.55,10.51,10.51.55,22.78.55Z"/>
          <path class="cls-4" d="M122.78,278.89H22.78c-12.56,0-22.78-10.22-22.78-22.78V22.78C0,10.22,10.22,0,22.78,0h100c12.56,0,22.78,10.22,22.78,22.78v233.33c0,12.56-10.22,22.78-22.78,22.78ZM22.78,1.11C10.83,1.11,1.11,10.83,1.11,22.78v233.33c0,11.95,9.72,21.67,21.67,21.67h100c11.95,0,21.67-9.72,21.67-21.67V22.78c0-11.95-9.72-21.66-21.67-21.66H22.78Z"/>
        </g>
        <g>
          <g>
            <rect class="cls-2" x="6.11" y=".55" width="144.44" height="277.78" rx="22.22" ry="22.22"/>
            <path class="cls-4" d="M128.33,278.89H28.33c-12.56,0-22.78-10.22-22.78-22.78V22.78C5.56,10.22,15.77,0,28.33,0h100c12.56,0,22.78,10.22,22.78,22.78v233.33c0,12.56-10.22,22.78-22.78,22.78ZM28.33,1.11C16.38,1.11,6.66,10.83,6.66,22.78v233.33c0,11.95,9.72,21.67,21.67,21.67h100c11.95,0,21.67-9.72,21.67-21.67V22.78c0-11.95-9.72-21.66-21.67-21.66H28.33Z"/>
          </g>
          <path d="M97.78,20h-38.89c-1.54,0-2.78-1.24-2.78-2.78h0c0-1.53,1.24-2.78,2.78-2.78h38.89c1.54,0,2.78,1.25,2.78,2.78h0c0,1.54-1.24,2.78-2.78,2.78Z"/>
          <path d="M111.66,21.39h0c-2.3,0-4.17-1.86-4.17-4.17h0c0-2.3,1.87-4.17,4.17-4.17h0c2.3,0,4.17,1.87,4.17,4.17h0c0,2.31-1.87,4.17-4.17,4.17Z"/>
        </g>
        <g>
          <g>
            <polygon class="cls-3" points="132.95 186.52 142.06 163.76 101.09 109.14 55.57 109.14 14.61 163.76 23.71 186.52 132.95 186.52"/>
            <path class="cls-4" d="M132.95,186.97H23.71c-.19,0-.36-.11-.42-.29l-9.1-22.75c-.06-.15-.04-.32.06-.44l40.96-54.62c.09-.11.22-.18.36-.18h45.52c.15,0,.28.07.36.18l40.97,54.62c.09.12.12.3.06.44l-9.1,22.75c-.07.17-.24.29-.42.29ZM24.02,186.06h108.63l8.89-22.23-40.68-54.23h-45.06l-40.67,54.23,8.89,22.23Z"/>
          </g>
          <g>
            <path class="cls-3" d="M78.14,49.97l-15.74,25.4c-4.46,7.2-6.83,15.51-6.83,23.98v87.17h45.52v-86.99c0-8.59-2.43-17-7.01-24.27l-15.94-25.29Z"/>
            <path class="cls-4" d="M101.09,186.97h-45.52c-.25,0-.45-.2-.45-.46v-87.17c0-8.57,2.38-16.94,6.9-24.22l15.74-25.4c.08-.14.23-.22.39-.22h0c.16,0,.3.08.38.21l15.94,25.29c4.63,7.35,7.08,15.83,7.08,24.51v86.99c0,.25-.2.46-.46.46ZM56.03,186.06h44.61v-86.53c0-8.51-2.4-16.82-6.94-24.02l-15.55-24.68-15.36,24.78c-4.42,7.13-6.76,15.35-6.76,23.74v86.72Z"/>
          </g>
          <g>
            <polygon class="cls-4" points="69.23 200.17 73.78 186.52 82.88 186.52 87.44 200.17 69.23 200.17"/>
            <path class="cls-4" d="M87.44,200.63h-18.21c-.15,0-.28-.07-.37-.19-.08-.12-.11-.27-.06-.41l4.55-13.66c.06-.18.23-.32.43-.32h9.1c.2,0,.37.13.43.32l4.55,13.66c.05.14.02.29-.07.41-.08.12-.22.19-.37.19ZM69.86,199.72h16.94l-4.25-12.74h-8.45l-4.25,12.74Z"/>
          </g>
          <g>
            <polygon class="cls-4" points="30.54 200.17 35.09 186.52 44.19 186.52 48.75 200.17 30.54 200.17"/>
            <path class="cls-4" d="M48.75,200.63h-18.21c-.15,0-.28-.07-.37-.19-.08-.12-.11-.27-.06-.41l4.55-13.66c.06-.18.23-.32.43-.32h9.1c.2,0,.37.13.43.32l4.55,13.66c.05.14.03.29-.06.41-.08.12-.22.19-.37.19ZM31.17,199.72h16.95l-4.25-12.74h-8.44l-4.25,12.74Z"/>
          </g>
          <g>
            <polygon class="cls-4" points="107.92 200.17 112.47 186.52 121.58 186.52 126.13 200.17 107.92 200.17"/>
            <path class="cls-4" d="M126.13,200.63h-18.21c-.15,0-.29-.07-.37-.19-.09-.12-.11-.27-.06-.41l4.55-13.66c.06-.18.24-.32.43-.32h9.1c.2,0,.37.13.43.32l4.55,13.66c.05.14.02.29-.06.41-.09.12-.22.19-.37.19ZM108.55,199.72h16.94l-4.25-12.74h-8.45l-4.25,12.74Z"/>
          </g>
          <g>
            <path class="cls-1" d="M84.77,98.15c3.55,3.55,3.55,9.32,0,12.88-3.56,3.56-9.32,3.56-12.87,0-3.56-3.55-3.56-9.32,0-12.88,3.55-3.55,9.31-3.55,12.87,0Z"/>
            <path class="cls-4" d="M78.33,114.14c-2.45,0-4.89-.93-6.75-2.79-1.81-1.8-2.8-4.2-2.8-6.75s.99-4.95,2.8-6.76c3.73-3.73,9.79-3.73,13.51,0h0c1.81,1.81,2.8,4.21,2.8,6.76s-.99,4.95-2.8,6.75c-1.87,1.87-4.31,2.79-6.76,2.79ZM78.33,95.95c-2.21,0-4.43.84-6.11,2.53s-2.53,3.8-2.53,6.11.9,4.48,2.53,6.11c3.38,3.37,8.85,3.37,12.23,0,1.63-1.63,2.53-3.81,2.53-6.11s-.91-4.48-2.53-6.11h0c-1.69-1.69-3.91-2.53-6.12-2.53Z"/>
          </g>
          <g>
            <path class="cls-1" d="M84.77,130.01c3.55,3.55,3.55,9.32,0,12.87-3.56,3.55-9.32,3.55-12.87,0-3.56-3.55-3.56-9.32,0-12.87,3.55-3.55,9.31-3.55,12.87,0Z"/>
            <path class="cls-4" d="M78.33,146c-2.45,0-4.89-.93-6.75-2.79-1.81-1.8-2.8-4.2-2.8-6.75s.99-4.96,2.8-6.76c3.73-3.73,9.79-3.73,13.51,0h0c1.81,1.8,2.8,4.21,2.8,6.76s-.99,4.95-2.8,6.75c-1.87,1.87-4.31,2.79-6.76,2.79ZM78.33,127.8c-2.21,0-4.43.85-6.11,2.53-1.63,1.63-2.53,3.8-2.53,6.11s.9,4.48,2.53,6.12c3.38,3.37,8.85,3.37,12.23,0,1.63-1.64,2.53-3.81,2.53-6.12s-.91-4.48-2.53-6.11h0c-1.69-1.69-3.91-2.53-6.12-2.53Z"/>
          </g>
        </g>
      </g>
      <g>
        <g>
          <g>
            <path class="cls-1" d="M181.49,150.65c-16.77,0-11.1,15.76-29.87,40.29-.97,1.27-4.62,5.63-5.51,6.85-9.02-12.52-19.11-26.47-20.63-33.77-2.92-14.14-4.07-23.99-6.68-29.57-2.6-5.59-6.52-15.8-10.75-22.07-1.59-2.35-3.73-7.8-5.98-5.14-3.77,4.42.26,12.42,1.94,16.19,1.78,3.99,6.12,9.56,6.12,9.56,0,0-2.19-2.44-6.32-3.62-5.94-1.69-7.03-1.49-8.55.61-1.53,2.1-.53,6.12-2.63,7.26-2.85,1.54-1.86,6.73-1.86,6.73,0,0-1.57,3.94.33,7.99,1.24,2.63,3.4,4.16,7.41,4.83,2.9.48-2.6,10.35,2.34,12.95,15.1,7.93,16.26,77.98,39.44,77.98,13.36,0,29.04-9.55,44.39-39.75,16.78-33.02,15.19-57.32-3.18-57.32Z"/>
            <path d="M181.49,149.91c-10.21,0-12.52,5.66-16.34,15.02-2.79,6.84-6.26,15.34-14.07,25.55-.44.58-1.44,1.8-2.48,3.07-.91,1.11-1.83,2.25-2.47,3.04-8.7-12.08-18.51-25.73-19.97-32.73-.88-4.29-1.62-8.21-2.26-11.69-1.52-8.17-2.62-14.08-4.48-18.05-.67-1.43-1.42-3.16-2.24-5.05-2.4-5.52-5.39-12.4-8.58-17.13-.31-.46-.65-1.06-1.01-1.69-1.2-2.1-2.56-4.48-4.29-4.48-.65,0-1.24.32-1.78.96-3.83,4.49-.38,12.11,1.48,16.21l.35.78c.87,1.94,2.31,4.23,3.59,6.1-.85-.43-1.84-.85-2.97-1.17-2.93-.83-4.53-1.16-5.71-1.16-1.76,0-2.65.74-3.59,2.03-.79,1.08-.98,2.49-1.17,3.85-.21,1.47-.38,2.75-1.22,3.2-2.96,1.59-2.42,6.24-2.26,7.3-.31.91-1.37,4.59.42,8.38,1.38,2.93,3.82,4.55,7.93,5.24.54.09.24,2.05,0,3.62-.49,3.18-1.16,7.53,2.14,9.27,6.19,3.25,10.07,17.95,14.19,33.52,5.79,21.9,11.77,44.54,25.56,44.54,16.32,0,31.47-13.5,45.01-40.14,11.35-22.34,14.71-41.6,8.99-51.51-2.6-4.5-7.02-6.88-12.79-6.88ZM184.05,207.63c-13.28,26.12-28.01,39.36-43.77,39.36-12.72,0-18.83-23.08-24.21-43.46-4.2-15.89-8.17-30.9-14.91-34.44-2.38-1.25-1.84-4.69-1.38-7.73.39-2.55.76-4.97-1.17-5.29-3.65-.61-5.71-1.93-6.88-4.43-1.74-3.68-.33-7.34-.31-7.38l.08-.21-.04-.22s-.86-4.67,1.49-5.94c1.49-.8,1.73-2.57,1.96-4.29.16-1.18.33-2.39.89-3.18.73-1,1.26-1.45,2.47-1.45,1.03,0,2.58.32,5.34,1.11,3.87,1.1,5.97,3.39,6,3.41l1.06-.96c-.05-.06-4.31-5.55-6.03-9.41l-.35-.79c-1.72-3.79-4.92-10.84-1.69-14.62.26-.31.51-.46.73-.46.94,0,2.23,2.26,3.09,3.76.37.66.73,1.29,1.07,1.78,3.11,4.61,6.07,11.42,8.44,16.89.82,1.9,1.58,3.64,2.25,5.08,1.78,3.8,2.86,9.63,4.36,17.69.65,3.48,1.38,7.41,2.27,11.71,1.52,7.34,11.08,20.62,20.33,33.45l.98,1.37.56-.77c.48-.65,1.76-2.21,3-3.73,1.05-1.29,2.06-2.52,2.51-3.1,7.93-10.37,11.59-19.34,14.27-25.89,3.72-9.11,5.77-14.13,15.05-14.13,5.32,0,9.22,2.08,11.59,6.17,5.46,9.47,2.09,28.19-9.03,50.08Z"/>
          </g>
          <path class="cls-4" d="M100.55,134.72l.22,1.47c2.95-.46,5.09,1.27,6.01,2.9.7,1.23.79,2.45.24,3.21-.77,1.04-2.72,1.2-5.35.45-7.5-2.13-7.12-6.95-7.1-7.16l-1.42-.16c-.03.26-.59,6.27,8.14,8.76,1.29.37,2.36.51,3.24.51,2.13,0,3.16-.86,3.62-1.51.92-1.25.86-3.11-.14-4.87-1.15-2.03-3.79-4.19-7.46-3.61Z"/>
          <path class="cls-4" d="M103.52,145.48c.3.82.9,3.18-.04,4.27-.71.83-2.29.91-4.6.26-5.99-1.71-7.33-6.25-7.38-6.43l-1.38.41c.06.22,1.58,5.51,8.39,7.45,1.12.33,2.12.48,2.98.48,1.35,0,2.38-.39,3.05-1.18,1.73-2,.37-5.66.31-5.81l-1.33.54Z"/>
          <g>
            <path class="cls-1" d="M107.76,120.12c-2.38-.72-7.18,4.11-5.27,9.39,4.04,11.11-5.57,18.44,4.12,30.45l10.04-15.91s-3.16-11.4-4.16-13.44c-.98-2.04-3.49-10.11-4.74-10.48Z"/>
            <path d="M111.89,127.1c-2.02-5.41-2.91-7.38-3.93-7.69-1.29-.38-3.02.39-4.43,1.99-1.62,1.83-2.91,4.99-1.69,8.36,1.61,4.43.97,8.16.3,12.11-.95,5.55-1.93,11.27,3.95,18.56l1.07-.94c-5.45-6.75-4.57-11.9-3.64-17.36.68-3.98,1.38-8.08-.36-12.89-1.25-3.45.76-6.12,1.42-6.85,1.13-1.28,2.38-1.77,2.95-1.58.68.44,2.22,4.59,3.06,6.83.53,1.42.98,2.63,1.3,3.3.76,1.57,3.02,9.4,4.11,13.33l1.35-.41c-.13-.47-3.19-11.49-4.2-13.57-.29-.6-.74-1.8-1.25-3.17Z"/>
          </g>
        </g>
        <g>
          <path class="cls-1" d="M287.35,148.46c-10.21,0-30.13,18.79-22.05,33.36,0,0,18.45,26.5,14.91,28.83-16.45,10.8-40.02,38.04-45.64,42.63-9.58,7.8-30.77-4.62-37.62,5.47-6.85,10.09-13.61,11.28-13.61,19.97,0,7.43,23.63,9.63,26.93,3.76,2.86-5.1,8.61-7.59,23.91-9.97,4.8-.74,5.05.39,12.49-4.28,11.84-7.42,56.12-21.65,63.69-47.45,3.46-11.77-8.71-72.33-23-72.33Z"/>
          <path d="M287.35,147.73c-6.74,0-16.85,7.58-21.63,16.23-2.54,4.58-4.78,11.47-.99,18.29,6.45,9.27,15.82,24.25,15.21,27.56-.02.09-.05.19-.1.23-11.44,7.51-26.31,22.94-36.16,33.15-4.38,4.54-7.84,8.12-9.54,9.51-2.16,1.76-5.13,2.58-9.34,2.58-2.83,0-5.9-.37-8.88-.72-2.92-.35-5.95-.72-8.69-.72-3.35,0-8.13.47-10.86,4.49-2.59,3.82-5.14,6.32-7.39,8.51-3.54,3.47-6.35,6.22-6.35,11.88s9.99,7.84,17.08,7.84c2.73,0,9.27-.36,11.15-3.71,2.78-4.95,8.47-7.29,23.41-9.62,1.05-.16,1.88-.23,2.61-.3,2.72-.23,4.22-.36,10.13-4.07,2.63-1.65,7.01-3.69,12.08-6.07,18.3-8.56,45.96-21.5,51.93-41.8,2.97-10.13-4.83-52.45-15.6-67.62-2.66-3.75-5.38-5.66-8.08-5.66ZM309.68,220.57c-5.78,19.67-33.08,32.45-51.16,40.9-5.11,2.39-9.52,4.45-12.22,6.15-5.64,3.53-7.02,3.65-9.53,3.86-.76.06-1.62.14-2.71.31-15.45,2.41-21.38,4.92-24.41,10.33-1.04,1.84-4.84,2.99-9.94,2.99-7.57,0-15.67-2.57-15.67-6.39,0-5.03,2.35-7.33,5.91-10.81,2.29-2.25,4.9-4.8,7.57-8.74,1.82-2.67,4.81-3.87,9.71-3.87,2.66,0,5.51.34,8.53.7,3.01.36,6.12.74,9.03.74,4.54,0,7.79-.92,10.21-2.89,1.77-1.44,5.25-5.06,9.66-9.64,9.8-10.16,24.62-25.53,35.92-32.95.27-.17.61-.52.73-1.18.93-5-13.76-26.28-15.4-28.63-3.41-6.16-1.32-12.52,1.03-16.78,5.06-9.12,14.82-15.49,20.42-15.49,2.23,0,4.57,1.7,6.95,5.06,10.32,14.56,18.22,56.67,15.38,66.32Z"/>
        </g>
        <path d="M189.56,244.85s-23.03,33.45-23.03,66.81h125.52c0-19.36-9.36-57.35-20.45-72.16l-82.04,5.35Z"/>
        <path d="M166.53,311.66s81.36,1.28,108.88-72.16l-85.85,5.35s-23.03,33.45-23.03,66.81Z"/>
        <path d="M210.21,109.56s-.61,19.94-16.4,27.2c-15.79,7.26-12.23,26.55-3.91,26.55,0,0-.17,10.27,7.3,10.27s5.67-36.19,19.61-36.19c5.52,0,1.39-26,1.39-26l-8-1.83Z"/>
        <path class="cls-3" d="M287.72,145.02c-19.38,0-33.28-9.19-56.74-9.19-20.63,0-35.68,9.19-48.5,9.19-7.78,0-2.89,29.46-2.89,29.46-3.84,13.7-3.86,27.03-.95,33.73,8.7,20.06-1.27,31.26,6.03,40.8,4.75,6.2,76.45,8.77,90.91.25,5.4-3.18,1.76-5.31,1.76-14s2.98-39.78,2.98-46.49c0,0,10.74-43.77,7.4-43.77Z"/>
        <g>
          <g>
            <path class="cls-1" d="M244.72,88.25s3.67-19.91-5.15-27.15c-8.83-7.23-33.05-2.34-35.49,11.61-.85,4.82-2.4,12.83-3.72,21.77-2.09,14.19,2.11,27.87,17.46,27.87,0,0,.75,9.98-2.02,15.48,0,0-.9,9.09,4.71,12.26,1.18.67,1.97,21.71,1.97,21.71,0,0,5.8-20.79,7.27-21.07,12.76-2.45,20.44-13.14,20.44-13.14,0,0-4.68-5.42-4.68-28.88,0,0,4.82-2.7,6.49-10.23,1.24-5.53-1.86-9.6-7.28-10.23Z"/>
            <path d="M245.54,87.64c.59-3.8,2.63-20.4-5.53-27.11-2.74-2.24-6.99-3.47-11.99-3.47-10.62,0-22.86,5.44-24.63,15.53-.2,1.12-.43,2.43-.7,3.87-.85,4.67-2.01,11.06-3.03,17.92-1.42,9.62.1,17.7,4.28,22.78,3.11,3.79,7.56,5.77,13.21,5.92.1,2.29.26,9.97-1.98,14.42l-.08.27c-.04.39-.87,9.5,4.96,12.91.63,1.36,1.36,11.72,1.71,21.16l.17,4.5,1.2-4.32c2.59-9.31,5.83-19.42,6.85-20.58,12.81-2.52,20.43-12.96,20.75-13.4l.34-.48-.37-.44c-.04-.05-4.44-5.63-4.5-27.99,1.21-.82,5-3.85,6.47-10.47.62-2.8.24-5.34-1.12-7.35-1.3-1.91-3.42-3.2-6.03-3.67ZM251.32,98.32c-1.58,7.08-6.1,9.72-6.14,9.74l-.37.21v.44c0,19.94,3.36,27.04,4.5,28.85-1.57,1.97-8.78,10.35-19.69,12.45-.43.08-1.69.33-6.62,17.38-.79-17.17-1.81-17.75-2.15-17.94-4.78-2.7-4.43-10.32-4.36-11.42,2.75-5.64,2.06-15.33,2.03-15.75l-.05-.67h-.65c-5.54,0-9.85-1.82-12.81-5.42-3.91-4.75-5.31-12.42-3.96-21.61,1.01-6.83,2.17-13.21,3.02-17.87.27-1.45.5-2.76.7-3.88,1.57-8.97,13.05-14.33,23.25-14.33,4.68,0,8.63,1.12,11.12,3.16,8.38,6.87,4.94,26.25,4.9,26.44l-.14.78.75.08c2.55.3,4.6,1.43,5.78,3.16,1.12,1.67,1.44,3.79.9,6.18Z"/>
          </g>
          <path class="cls-4" d="M220.48,78.31l-1.23.75c.66,1.19,2.1,1.37,3.93,1.61,2,.26,4.5.59,6.73,2.35l.87-1.19c-2.54-2.01-5.37-2.38-7.42-2.64-1.38-.18-2.57-.34-2.87-.89Z"/>
          <path class="cls-4" d="M208.1,79.18c-1.59.29-3.77.68-6.27,2.66l.86,1.19c2.22-1.76,4.12-2.1,5.65-2.38,1.36-.24,2.53-.46,3.2-1.63l-1.24-.75c-.31.55-.93.69-2.2.92Z"/>
          <path class="cls-4" d="M211.41,92.54c-1.43.29-2.03,1.86-2.06,1.92l1.33.54s.35-.87.99-.99c.6-.11,1.42.41,2.34,1.47l1.06-1c-1.31-1.5-2.54-2.17-3.68-1.94Z"/>
          <g>
            <path class="cls-4" d="M224.87,85.72c-.61.66-.59,1.68.04,2.29.63.6,1.63.56,2.23-.09.61-.66.59-1.68-.04-2.28-.63-.61-1.63-.56-2.23.09Z"/>
            <path class="cls-4" d="M224.35,85.21c-.43.47-.66,1.08-.65,1.72.02.62.28,1.2.72,1.63.42.41.97.62,1.55.62.63,0,1.25-.27,1.68-.74.43-.47.66-1.08.65-1.71-.02-.62-.27-1.21-.71-1.64-.88-.85-2.41-.79-3.24.12ZM226.63,87.4c-.32.35-.91.38-1.24.05-.16-.14-.25-.35-.25-.58-.01-.23.08-.46.24-.63.17-.18.41-.29.66-.29.22,0,.42.08.57.23.16.15.25.36.26.59,0,.23-.09.46-.24.63Z"/>
          </g>
          <g>
            <path class="cls-4" d="M206.56,85.72c-.6.66-.59,1.68.05,2.29.63.6,1.63.56,2.23-.09.6-.66.58-1.68-.05-2.28-.63-.61-1.63-.56-2.23.09Z"/>
            <path class="cls-4" d="M206.05,85.21c-.43.47-.66,1.08-.65,1.72.02.62.28,1.2.72,1.63.42.41.97.62,1.55.62.63,0,1.24-.27,1.68-.74.43-.47.66-1.08.65-1.72-.02-.62-.28-1.21-.72-1.63-.88-.85-2.4-.79-3.23.12ZM208.33,87.4c-.32.35-.91.38-1.24.05-.15-.14-.25-.35-.25-.58-.01-.23.08-.46.24-.63.17-.18.41-.29.66-.29.21,0,.42.08.57.23.16.15.25.36.26.58.01.24-.08.46-.24.63Z"/>
          </g>
          <path class="cls-4" d="M244.63,91.54l.19,1.47s1.79-.22,2.86.88c.73.75,1.01,1.98.83,3.65l1.42.16c.23-2.16-.18-3.8-1.25-4.89-1.57-1.61-3.94-1.3-4.05-1.27Z"/>
          <path class="cls-4" d="M243.37,98.55l1.31.61c.04-.1,1.03-2.22,4.24-1.82l.17-1.48c-4.35-.54-5.66,2.55-5.72,2.68Z"/>
        </g>
        <path d="M294.86,134.92c-17.34-6.03-18.02-7.76-21.09-22.41-2.6-12.29,5.11-51.16-18.95-51.16,0,0-5.11-11.87-19-15.26-24.69-6.03-39.03,13.91-33.46,34.37,0,0,.11-.17.32-.49,2.1-3.03,14.1-19.08,32.35-16.93,0,0-6.9,25.88,7.25,25.27,12.75-.55,11.06,12.41,3.22,20.4,0,23.45,4.68,28.87,4.68,28.87,0,0-.08.1-.22.26,13.34,2.68,24.2,7.18,37.74,7.18.59,0,.74,1.33.59,3.54,4.23.78,8.24,6.71,11.68,14.91.63.36.96.54.96.54,0,0,11.67-.96,2.99-13.42,0,0,8.3-9.65-9.06-15.67Z"/>
        <path class="cls-4" d="M211.94,108.21h0c-.94,0-1.82-.6-2.7-1.83l-1.15.88c1.16,1.62,2.45,2.43,3.84,2.43h.01c2.88,0,5.52-3.35,8.43-7.4l-1.14-.9c-2.06,2.88-4.89,6.81-7.29,6.81Z"/>
        <path d="M219.24,211.84c5.94,0,1.73-37.76,1.73-37.76,0,0-7.67,37.76-1.73,37.76Z"/>
        <path d="M226.48,240.32c6.69-.52-2.7-66.19-2.7-66.19,0,0-4,66.7,2.7,66.19Z"/>
      </g>
    </g>
  </g>
</svg>