<?xml version="1.0" encoding="UTF-8"?>
<svg id="Capa_2" data-name="Capa 2" xmlns="http://www.w3.org/2000/svg" viewBox="0 0 268.36 239.33">
  <defs>
    <style>
      .cls-1 {
        fill: #fff;
      }

      .cls-2 {
        fill: #abfb4f;
      }

      .cls-3 {
        fill: blue;
      }

      .cls-4 {
        fill: #010101;
      }

      .cls-5 {
        fill: #fffffd;
      }
    </style>
  </defs>
  <g id="Capa_1-2" data-name="Capa 1">
    <g>
      <g>
        <g>
          <path class="cls-5" d="M154.25,165.99c-2.69,0-4.87-2.18-4.87-4.87V17.79h118.28v143.33c0,2.68-2.18,4.87-4.87,4.87h-108.54Z"/>
          <path d="M266.98,18.48v142.64c0,2.3-1.87,4.17-4.17,4.17h-108.55c-2.3,0-4.17-1.87-4.17-4.17V18.48h116.89ZM268.36,17.09h-119.67v144.02c0,3.07,2.49,5.56,5.56,5.56h108.55c3.07,0,5.56-2.49,5.56-5.56V17.09h0Z"/>
        </g>
        <path d="M148.69,0h119.67v11.53c0,3.07-2.49,5.56-5.56,5.56h-108.55c-3.07,0-5.56-2.49-5.56-5.56V0h0Z" transform="translate(417.06 17.09) rotate(180)"/>
        <path class="cls-1" d="M257.68,8.55c0,1.18.96,2.13,2.14,2.13s2.14-.96,2.14-2.13-.96-2.14-2.14-2.14-2.14.96-2.14,2.14Z"/>
        <path class="cls-1" d="M246.99,8.55c0,1.18.96,2.13,2.13,2.13s2.14-.96,2.14-2.13-.96-2.14-2.14-2.14-2.13.96-2.13,2.14Z"/>
        <path class="cls-1" d="M236.31,8.55c0,1.18.95,2.13,2.14,2.13s2.14-.96,2.14-2.13-.96-2.14-2.14-2.14-2.14.96-2.14,2.14Z"/>
      </g>
      <g>
        <g>
          <path class="cls-3" d="M91.41,85.49c-8.26-1.2-19.39-1.45-27.53-.12-15.39,2.51-34.08,11.01-42.46,24.1C-1.74,145.58,1.28,198.6,0,238.87h145.81c-1.08-46.15-1.17-79.35-15.66-116.64-5.76-14.82-18.23-33.76-38.74-36.74Z"/>
          <g>
            <g>
              <g>
                <path class="cls-5" d="M132.88,238.64c-2.68,0-4.86-2.18-4.86-4.86V51.98h118.28v181.79c0,2.68-2.18,4.87-4.87,4.87h-108.56Z"/>
                <path d="M245.61,52.67v181.1c0,2.3-1.87,4.17-4.17,4.17h-108.56c-2.3,0-4.17-1.87-4.17-4.17V52.67h116.89ZM246.99,51.28h-119.67v182.49c0,3.07,2.49,5.56,5.56,5.56h108.56c3.07,0,5.56-2.49,5.56-5.56V51.28h0Z"/>
              </g>
              <path d="M127.32,34.19h119.67v11.52c0,3.08-2.5,5.57-5.57,5.57h-108.54c-3.07,0-5.56-2.49-5.56-5.56v-11.53h0Z" transform="translate(374.32 85.47) rotate(180)"/>
              <path class="cls-1" d="M236.31,42.74c0,1.18.95,2.13,2.14,2.13s2.14-.96,2.14-2.13-.96-2.14-2.14-2.14-2.14.96-2.14,2.14Z"/>
              <path class="cls-1" d="M225.62,42.74c0,1.18.95,2.13,2.14,2.13s2.14-.96,2.14-2.13-.96-2.14-2.14-2.14-2.14.96-2.14,2.14Z"/>
              <path class="cls-1" d="M214.94,42.74c0,1.18.95,2.13,2.13,2.13s2.14-.96,2.14-2.13-.96-2.14-2.14-2.14-2.13.96-2.13,2.14Z"/>
            </g>
            <g>
              <polygon class="cls-2" points="234.17 66.42 234.12 108.98 191.43 108.81 191.48 66.24 234.17 66.42"/>
              <path class="cls-4" d="M234.12,109.41l-42.69-.18c-.24,0-.43-.19-.43-.43l.05-42.56c0-.11.04-.22.12-.3.08-.08.18-.12.3-.12h0l42.69.18c.23,0,.42.19.42.43l-.05,42.56c0,.11-.04.22-.13.3-.08.08-.18.12-.3.12h0ZM191.91,66.67l-.05,41.71,41.83.17.04-41.7-41.83-.18Z"/>
              <path class="cls-4" d="M191.43,109.23c.11,0,.22-.04.3-.12l42.74-42.38c.17-.17.17-.44,0-.6-.16-.17-.43-.17-.6,0l-42.74,42.38c-.16.17-.16.44,0,.6.09.09.2.13.3.13Z"/>
              <path class="cls-4" d="M234.12,109.41c.11,0,.22-.04.3-.12.17-.17.17-.44,0-.6l-42.64-42.74c-.17-.17-.44-.17-.6,0-.17.17-.17.44,0,.61l42.64,42.74c.08.08.19.12.3.12Z"/>
            </g>
            <g>
              <polygon class="cls-3" points="182.89 117.71 182.83 160.27 140.15 160.09 140.2 117.53 182.89 117.71"/>
              <path class="cls-4" d="M182.83,160.7l-42.69-.18c-.23,0-.42-.19-.42-.43l.05-42.56c0-.11.05-.22.13-.3.08-.08.14-.12.3-.12l42.69.18c.23,0,.42.19.42.43l-.05,42.56c0,.11-.04.22-.12.3-.08.08-.19.13-.3.13h0ZM140.62,117.96l-.05,41.7,41.83.18.05-41.7-41.83-.18Z"/>
              <path class="cls-4" d="M140.15,160.52c.11,0,.22-.04.3-.12l42.74-42.38c.17-.16.17-.43,0-.6-.17-.17-.44-.17-.61,0l-42.74,42.38c-.17.16-.17.44,0,.6.08.08.19.13.3.13Z"/>
              <path class="cls-4" d="M182.83,160.7c.11,0,.22-.04.3-.13.16-.17.16-.44,0-.6l-42.64-42.74c-.17-.17-.44-.17-.61,0-.17.17-.17.44,0,.6l42.64,42.74c.09.08.2.13.3.13Z"/>
            </g>
            <g>
              <polygon class="cls-2" points="234.17 168.99 234.12 211.55 191.43 211.38 191.48 168.81 234.17 168.99"/>
              <path class="cls-4" d="M234.12,211.98l-42.69-.18c-.24,0-.43-.19-.43-.42l.05-42.56c0-.11.04-.22.12-.3.08-.08.16-.11.3-.12l42.69.18c.23,0,.42.19.42.42l-.05,42.56c0,.12-.04.22-.13.3-.08.08-.18.12-.3.12h0ZM191.91,169.24l-.05,41.7,41.83.18.04-41.7-41.83-.18Z"/>
              <path class="cls-4" d="M191.43,211.8c.11,0,.22-.04.3-.12l42.74-42.38c.17-.17.17-.44,0-.6-.16-.17-.43-.17-.6,0l-42.74,42.38c-.16.17-.16.43,0,.6.09.08.2.12.3.12Z"/>
              <path class="cls-4" d="M234.12,211.98c.11,0,.22-.04.3-.12.17-.17.17-.44,0-.6l-42.64-42.74c-.17-.17-.44-.17-.6,0-.17.17-.17.44,0,.6l42.64,42.74c.08.08.19.12.3.12Z"/>
            </g>
            <g>
              <rect x="140.15" y="79.6" width="42.74" height="3.21"/>
              <rect x="157.24" y="92.42" width="25.65" height="3.21"/>
              <rect x="140.15" y="66.78" width="42.74" height="3.21"/>
              <rect x="140.15" y="105.24" width="42.74" height="3.21"/>
              <rect x="191.43" y="118.06" width="21.37" height="3.2"/>
              <rect x="221.35" y="118.06" width="12.82" height="3.2"/>
              <rect x="204.25" y="130.88" width="29.92" height="3.21"/>
              <rect x="191.43" y="143.71" width="42.74" height="3.2"/>
              <rect x="212.8" y="156.53" width="21.37" height="3.2"/>
              <rect x="140.15" y="169.35" width="12.82" height="3.2"/>
              <rect x="161.52" y="169.35" width="21.37" height="3.2"/>
              <rect x="140.15" y="182.17" width="42.74" height="3.21"/>
              <rect x="140.15" y="194.99" width="42.74" height="3.2"/>
              <rect x="165.79" y="207.81" width="17.1" height="3.21"/>
            </g>
          </g>
          <g>
            <path class="cls-1" d="M89.61,144.15c-5.71-12.26-22.14-53.52-24.32-59,2.87-.86,6.64-.75,10.89-.75,6.54,0,12.64.66,14.19.95,2.11,9.3-.15,48.87-.76,58.8Z"/>
            <path class="cls-4" d="M89.61,144.56c-.16,0-.3-.09-.38-.24-5.1-10.94-18.65-44.77-24.25-58.81l-.08-.21c-.04-.11-.04-.23.01-.34.05-.1.15-.18.26-.21,2.64-.79,5.94-.78,9.75-.78h1.26c6.38,0,12.54.63,14.27.95.16.03.29.15.33.31,2.18,9.58-.25,50.77-.75,58.92-.02.19-.15.35-.34.39-.03,0-.05,0-.08,0ZM65.85,85.43c5.4,13.56,17.94,44.85,23.45,57.04.65-10.86,2.65-47.36.73-56.76-1.73-.27-7.42-.89-13.85-.89h-1.26c-3.54,0-6.61-.02-9.07.62Z"/>
          </g>
          <g>
            <path class="cls-1" d="M78.31,88.21c-4.29,0-8.64-.88-13.02-3.05-.14-2.16-.83-14.27.04-25.4.13-1.59-.55-5.37-1.27-9.36-.76-4.21-1.62-8.97-1.3-10.19,3.08-11.65,12.66-17.8,27.69-17.8h1.36c7.49,0,14.15,2.35,17.83,6.29,2.67,2.86,3.88,6.57,3.6,11.02-.09,1.38-.11,3.13-.12,5.14-.08,7.9-.21,19.85-5.03,27.43-2.26,3.55-6.88,7.13-12.12,7.13h0c-2.08,0-4.11-.57-6.03-1.71l-1.11-.65.21,1.27c.03.2.88,4.88,1.34,7.02-1.17.76-5.65,2.86-12.06,2.86Z"/>
            <path class="cls-4" d="M78.31,88.62c-4.69,0-9.01-1.01-13.2-3.09-.13-.07-.23-.2-.23-.35-.21-3.27-.8-14.75.04-25.46.12-1.53-.54-5.23-1.25-9.15l-.06-.3c-.93-5.2-1.57-8.97-1.25-10.18,3.13-11.84,12.84-18.1,28.09-18.1h1.36c7.6,0,14.38,2.4,18.14,6.42,2.75,2.94,4,6.76,3.71,11.33-.09,1.34-.1,3.04-.12,5v.12c-.09,7.95-.21,19.97-5.1,27.65-2.32,3.65-7.07,7.32-12.47,7.32-2.16,0-4.26-.59-6.23-1.76l-.35-.2.07.4c.03.18.88,4.85,1.34,7,.04.17-.04.34-.18.43-1.56,1.01-6.13,2.93-12.29,2.93ZM65.7,84.89c4.01,1.95,8.14,2.9,12.62,2.9,5.82,0,10.12-1.79,11.59-2.65-.47-2.26-1.26-6.57-1.29-6.75l-.21-1.28c-.03-.16.04-.32.17-.41.14-.09.31-.11.45-.02l1.11.65c1.85,1.09,3.8,1.65,5.82,1.65,5.08,0,9.58-3.48,11.77-6.94,4.76-7.49,4.88-19.36,4.96-27.21v-.12c.02-1.97.04-3.68.12-5.05.28-4.33-.89-7.94-3.49-10.71-3.6-3.85-10.15-6.15-17.52-6.15h-1.36c-14.83,0-24.26,6.04-27.28,17.49-.3,1.12.56,5.94,1.26,9.82l.05.3c.72,3.97,1.39,7.72,1.26,9.36-.81,10.4-.26,21.56-.05,25.1Z"/>
          </g>
          <g>
            <path d="M95.33,8.54c-29.87-10.11-33.63,12.66-33.63,12.66-19.48,17.57,2.84,46.7,2.84,46.7,1.26-2.47,3.18-7.53,2.96-9.43-.2-1.67-8.15-15.25,1.57-18.57,2.77-.95,5.77-.59,7.99,1.95,1.54-6.29,1.7-11.53,1.7-11.53,16.37,11.83,47.84,2.86,47.84,2.86-2.12-37.59-31.29-24.63-31.29-24.63Z"/>
            <path class="cls-4" d="M64.55,68.31c-.13,0-.25-.06-.33-.16-.23-.29-22.25-29.53-2.9-47.17.22-1.15,1.87-8.4,8.83-12.58,6.22-3.73,14.69-3.82,25.16-.31,1.41-.58,12.26-4.73,20.86.52,6.52,3.97,10.17,12.23,10.86,24.54.01.2-.11.37-.3.42-.31.09-31.08,8.66-47.58-2.48-.11,1.68-.48,5.98-1.68,10.85-.04.15-.15.27-.3.3-.15.03-.31-.01-.41-.13-2.58-2.95-5.83-2.42-7.55-1.82-1.89.65-3.21,1.76-3.91,3.3-1.77,3.93.63,9.75,1.92,12.88.43,1.05.66,1.62.7,1.95.25,2.14-1.87,7.44-3.01,9.66-.06.13-.19.21-.33.23h-.04ZM81.5,6.36c-4.2,0-7.85.92-10.92,2.76-7.08,4.25-8.45,12.07-8.46,12.15-.02.1-.06.18-.13.24-17.53,15.8-.41,41.51,2.49,45.59,1.28-2.69,2.81-6.99,2.62-8.58-.03-.24-.31-.92-.64-1.73-1.34-3.24-3.84-9.28-1.91-13.54.8-1.76,2.28-3.02,4.41-3.75,2.99-1.01,5.82-.46,7.9,1.5,1.35-5.84,1.51-10.65,1.51-10.7,0-.15.1-.29.23-.36.14-.07.3-.05.43.04,15.14,10.93,43.8,3.77,47.16,2.88-.72-11.83-4.23-19.75-10.43-23.54-8.81-5.36-20.13-.45-20.25-.4-.1.03-.21.05-.3.01-5.07-1.71-9.65-2.57-13.71-2.57Z"/>
          </g>
          <g>
            <path d="M88.67,37.64h-.21c-4.21,0-7.63,3.94-7.8,8.97-.08,2.44.64,4.77,2.02,6.54,1.41,1.82,3.32,2.85,5.4,2.91h.21c4.21,0,7.64-3.93,7.8-8.97.08-2.44-.64-4.76-2.02-6.55-1.4-1.81-3.33-2.85-5.4-2.91ZM88.29,54.93h-.17c-1.74-.06-3.35-.94-4.55-2.48-1.22-1.57-1.84-3.63-1.77-5.81.13-4.34,3.12-7.87,6.66-7.87h.17c1.74.06,3.36.93,4.55,2.48,1.22,1.57,1.85,3.64,1.79,5.81-.14,4.34-3.13,7.87-6.67,7.87Z"/>
            <path d="M109.9,38.31h-.21c-4.21,0-7.64,3.94-7.8,8.97-.07,2.44.64,4.77,2.02,6.55,1.41,1.81,3.32,2.85,5.4,2.91h.21c4.21,0,7.63-3.94,7.8-8.97.16-5.08-3.17-9.32-7.43-9.46ZM109.53,55.6h-.17c-1.75-.06-3.36-.93-4.55-2.48-1.22-1.57-1.86-3.64-1.78-5.81.14-4.34,3.13-7.87,6.67-7.87h.17c3.63.11,6.47,3.83,6.33,8.28-.14,4.34-3.13,7.87-6.67,7.87Z"/>
            <path d="M95.15,44.38c-.24.2-.29.55-.09.8.2.25.55.28.8.09,3.62-2.92,6.46.05,6.58.17.11.12.27.18.41.18.14,0,.28-.04.39-.15.23-.21.24-.57.04-.8-.04-.04-3.66-3.88-8.12-.3Z"/>
          </g>
          <path d="M103.73,65.5s-3.37,2.99-11.62-.42c-.29-.12-.62.02-.74.31-.12.29.02.62.31.74,3.15,1.3,5.65,1.73,7.58,1.73,3.54,0,5.14-1.43,5.24-1.52.23-.21.24-.57.03-.8-.21-.23-.57-.24-.8-.03Z"/>
          <path d="M91.57,42.76c-.17-.05-4.11-1.33-6.83,1.09-.23.21-.25.57-.05.8.12.12.27.19.42.19.14,0,.27-.05.38-.14,2.22-1.99,5.69-.88,5.72-.87.29.11.61-.06.71-.35.1-.3-.06-.61-.35-.72Z"/>
          <path d="M105.19,42.76c-.29.1-.46.42-.35.72.09.3.42.46.72.35.03,0,3.48-1.12,5.72.87.1.09.24.14.37.14.16,0,.31-.07.42-.19.21-.23.19-.59-.04-.8-2.73-2.43-6.67-1.14-6.84-1.09Z"/>
          <path d="M107.37,46.86c-.69,0-1.25.74-1.25,1.64s.56,1.64,1.25,1.64,1.25-.74,1.25-1.64-.56-1.64-1.25-1.64Z"/>
          <path d="M87.71,46.86c-.69,0-1.25.74-1.25,1.64s.55,1.64,1.25,1.64,1.25-.74,1.25-1.64-.56-1.64-1.25-1.64Z"/>
          <path d="M100.6,53.76c-1.12-.27-2.41.31-3.82,1.73-.22.23-.22.58,0,.8.11.11.25.17.4.17s.29-.06.41-.17c1.09-1.1,2.04-1.6,2.75-1.43.78.19,1.12,1.16,1.13,1.19.1.3.41.46.72.36.3-.09.46-.41.36-.71-.02-.06-.53-1.6-1.94-1.94Z"/>
          <path d="M89.1,76.74c-.14-.06-13.4-5.92-13.4-13.69,0-.29-.22-.51-.48-.51s-.48.23-.48.51c0,8.45,13.42,14.39,13.99,14.64.06.03.12.04.18.04.2,0,.37-.12.45-.32.1-.27-.02-.56-.27-.68Z"/>
          <g>
            <path d="M72.88,42.2c-1.82-.73-3.62-.3-4.95,1.16-2.56,2.82-.98,6.54.21,8.1.11.15.28.23.45.23.12,0,.24-.04.35-.12.24-.19.29-.55.1-.79-.02-.04-2.85-3.82-.27-6.65,1.37-1.5,2.9-1.19,3.7-.87,1.63.65,2.84,2.36,2.81,3.98,0,.31.24.57.55.58h.01c.31,0,.56-.25.57-.56.03-2.1-1.44-4.22-3.53-5.05Z"/>
            <path d="M73.18,42.64c-1.23.46-2.03,1.17-2.38,2.13-.56,1.54.32,3.09.36,3.17.1.18.29.28.48.28.1,0,.2-.02.29-.08.27-.15.36-.5.21-.77-.01-.01-.66-1.17-.28-2.21.23-.63.8-1.12,1.7-1.45.29-.11.45-.44.34-.73-.1-.3-.43-.45-.73-.34Z"/>
          </g>
        </g>
        <g>
          <g>
            <path class="cls-1" d="M252.56,177.44c.52,1.27,4.07,9.25,5.27,11.91l-9.24-2.4c-.29-.75-.45-1.56-.49-2.41-.12-2.53.91-4.62.92-4.64l.17-.34-.3-.23c-2.49-1.83-3.47-4.33-3.55-6.04-.04-.94.18-1.37.23-1.41,1.65.36,6.43,4.16,7,5.57Z"/>
            <path class="cls-4" d="M248.07,187.14c-.31-.81-.49-1.68-.53-2.58-.12-2.42.75-4.43.94-4.84-2.6-1.93-3.63-4.58-3.72-6.41-.05-.99.18-1.65.42-1.86.14-.12.31-.16.48-.12,1.84.4,6.77,4.33,7.4,5.9h0c.5,1.24,3.97,9,5.26,11.89.09.19.05.42-.08.58-.14.16-.36.23-.56.18l-9.23-2.4c-.11-.02-.21-.09-.28-.17-.04-.05-.08-.11-.1-.17ZM252.04,177.64h0c-.48-1.15-4.34-4.28-6.14-5.07-.03.17-.04.39-.03.68.08,1.6.99,3.91,3.33,5.63l.31.23c.2.16.27.45.16.69l-.17.35s-.98,2-.86,4.36c.03.68.15,1.35.36,1.97l7.83,2.03c-1.51-3.39-4.35-9.74-4.8-10.86ZM252.55,177.42h.01s-.01,0-.01,0Z"/>
          </g>
          <g>
            <path class="cls-1" d="M248.17,181.01c2.82,1.03,9.03,6.59,10.96,9.44.37.55.58,1.1.6,1.62.08,1.56-1.45,2.56-1.46,2.57l-.37.25.24.37c.72,1.13,1.12,2.26,1.18,3.37.17,3.53-3.16,5.85-3.2,5.87l-.21.14v.25c.26,5.04-3.92,5.95-4.1,6l-.38.08.02.38c.18,3.74-6,6.11-10.35,6.33-3.98.2-5.81-1.66-7.76-5.14-.37-.66-.58-1.24-.6-1.74-.03-.57.17-1,.59-1.28.61-.42,1.62-.44,2.4-.08,1.75.81,3.41,3.22,3.43,3.25l.32.44.38-.39c.37-.39,3.79-1.68,6.88-2.72l2.68-.9-2.83.03c-1.31.01-4.94-.05-6.08-.47-.79-.3-1.54-.88-2.49-1.6-.87-.66-1.84-1.42-3.14-2.19-1.6-.95-2.55-2.3-2.63-3.72-.04-.84.25-1.57.8-2,.52-.42,1.21-.52,2-.3,3.47.97,6.24,3.55,6.27,3.58l.22.2.27-.11c1.78-.8,6.18-.55,6.22-.55l.49-.02-.03-.5c-.05-1.05,1-1.54,1.05-1.57l1.35-.62-1.46-.22c-8.15-1.26-16.92-3.94-17.11-7.79-.01-.4.14-.7.45-.94,2.45-1.82,13.04,1.07,16.92,2.33l1.33.44-.83-1.13-2.97-3.97c-.21-.13-5.16-3.33-8.14-4.48-1.84-.71-3.51-2.51-3.58-3.84-.03-.62.31-1.03,1.03-1.28,2.46-.84,7.46,1.07,10.46,2.2l1.18.45Z"/>
            <path class="cls-4" d="M232.85,212.79c-.42-.74-.63-1.39-.66-1.99-.04-.76.25-1.37.83-1.77.77-.52,1.97-.58,2.94-.12,1.65.77,3.17,2.75,3.59,3.34.81-.62,4.79-2.02,6.4-2.57-1.36-.01-4.48-.08-5.63-.51-.87-.33-1.63-.92-2.64-1.68-.85-.65-1.81-1.39-3.09-2.15-1.75-1.03-2.81-2.56-2.89-4.16-.05-1.03.32-1.93,1-2.46.66-.54,1.52-.68,2.5-.4,3.37.94,6.07,3.31,6.45,3.66,1.82-.77,5.77-.6,6.29-.57-.02-.73.37-1.39,1.1-1.87-4.38-.7-17.02-3.16-17.27-8.27-.02-.59.21-1.06.67-1.41,2.94-2.2,14.91,1.45,17.1,2.14l-2.69-3.6c-1.57-1-5.47-3.42-7.97-4.38-2.05-.8-3.86-2.78-3.93-4.33-.03-.6.18-1.41,1.4-1.83,2.65-.9,7.58.97,10.83,2.2l1.18.45c2.97,1.08,9.22,6.67,11.22,9.65.43.63.67,1.27.7,1.91.08,1.64-1.25,2.76-1.62,3.01.74,1.18,1.14,2.37,1.21,3.55.17,3.58-2.95,6-3.4,6.33.22,5.05-3.68,6.28-4.47,6.48.11,4.1-6.22,6.59-10.87,6.82-2.94.14-4.81-.79-6.35-2.56-.69-.79-1.31-1.75-1.94-2.87ZM247.98,181.53s0,0,0,0l-1.19-.45c-2.73-1.04-7.81-2.97-10.07-2.2-.62.22-.66.49-.65.72.04,1,1.48,2.68,3.22,3.35,2.59.99,6.57,3.46,8.24,4.52.06.04.1.08.15.14l3.8,5.1c.15.2.15.46,0,.66-.14.2-.39.28-.62.2l-1.33-.44c-5.67-1.86-14.52-3.83-16.41-2.41-.17.13-.23.26-.23.47.15,2.89,6.68,5.73,16.64,7.27l1.46.22c.24.03.43.23.47.47.04.24-.1.48-.32.58l-1.34.61c-.28.15-.76.5-.73,1.04l.02.5c.02.31-.22.57-.53.58l-.56.03c-.83-.06-4.5-.15-5.97.5l-.27.12c-.2.08-.43.04-.59-.11l-.22-.2s-2.73-2.53-6.03-3.45c-.63-.17-1.14-.11-1.52.2-.4.32-.62.88-.59,1.54.06,1.22.92,2.41,2.35,3.27,1.33.79,2.33,1.55,3.22,2.24.9.7,1.62,1.25,2.32,1.51.9.34,3.98.46,5.89.44l2.83-.03c.27,0,.5.2.55.46.05.27-.11.53-.37.62l-2.67.9c-3.58,1.19-6.34,2.3-6.66,2.57l-.38.39c-.11.12-.28.18-.44.17-.16-.01-.34-.1-.41-.23l-.33-.46c-.17-.23-1.67-2.34-3.21-3.05-.6-.28-1.41-.26-1.84.04-.17.12-.37.31-.35.79.02.41.2.92.53,1.5,1.88,3.36,3.53,5.04,7.25,4.86,4.2-.21,9.98-2.5,9.82-5.74l-.02-.38c-.02-.28.17-.52.45-.58l.37-.08c.4-.09,3.9-.99,3.67-5.43v-.25c-.02-.2.08-.38.24-.49l.2-.13s3.12-2.19,2.96-5.38c-.05-1.01-.42-2.05-1.09-3.09l-.24-.37c-.16-.26-.09-.6.16-.77l.38-.25s1.26-.86,1.21-2.07c-.02-.43-.2-.88-.51-1.34-.27-.4-.63-.85-1.06-1.35-2.51-2.89-7.35-7.05-9.64-7.88Z"/>
          </g>
        </g>
        <g>
          <g>
            <g>
              <path class="cls-1" d="M65.58,183.71c2.75.29,14.39,1.46,23.04,1.46,7.8,0,9.58-.93,10.23-1.63,3.79-4.02,5.63-6.8,7.96-10.3l.41-.63c2.1-3.16,7.88-8.43,10.99-11.27l1.21-1.11c.34-.32.57-.37.67-.37.24,0,.41.3.49.48.59,1.3.33,4.58-2.15,7.47-4.32,5.03-1.87,8.91-1.76,9.07l.2.3.36-.02c.25-.02,25.68-1.81,33.97-1.81,1.56,0,2.09.07,2.27.11.82.18,1.51.79,1.62,1.44.1.66-.42,1.36-1.46,1.97-1.94,1.13-7.38,2.54-11.21,2.9l-3.33.32,3.22.87s.53.17.7.75c.18.62.09,2.12-2.55,5.2l-.17.2.03.27c.02.17.43,4.05-3.14,5.79l-.55.26.27.55c.05.11,1.25,2.81-3.49,5.19-.8.4-1.56.79-2.29,1.17-3.44,1.79-6.16,3.21-9.35,3.21h0c-.6,0-1.23-.05-1.88-.16-.73-.12-1.75-.18-3.08-.18-10.6,0-47.5,4.86-54.59,6.65l3.36-28.15Z"/>
              <path class="cls-4" d="M62.22,212.27c-.1,0-.2-.03-.28-.1-.1-.09-.16-.23-.14-.36l3.36-28.15c.03-.21.21-.37.42-.37h.04c3.26.34,14.56,1.46,23,1.46,5.73,0,8.98-.49,9.93-1.51,3.74-3.98,5.58-6.72,7.89-10.2l.44-.67c2.13-3.19,7.92-8.47,11.03-11.32l1.25-1.14c.42-.39.75-.48.96-.48.35,0,.64.24.87.72.66,1.45.41,4.86-2.21,7.92-3.98,4.65-1.97,8.19-1.72,8.58l.06.09.29-.02c5-.35,33.55-2.24,36.18-1.68.99.21,1.81.96,1.94,1.77.12.85-.47,1.7-1.66,2.4-1.99,1.15-7.51,2.59-11.38,2.96l-1.05.1,1.01.27c.2.05.79.34.99,1.04.25.86-.01,2.52-2.63,5.59l-.05.06v.09c.06.46.34,4.41-3.36,6.21l-.17.08.09.18c.15.34,1.28,3.26-3.68,5.75-.68.34-1.35.68-1.97,1.01l-.31.16c-3.49,1.82-6.25,3.25-9.54,3.25-.65,0-1.29-.05-1.95-.17-.72-.11-1.73-.17-3.02-.17-10.7,0-47.4,4.84-54.49,6.63-.04,0-.07.01-.1.01ZM65.94,184.16l-3.24,27.15c8.35-1.89,43.64-6.51,54.11-6.51,1.35,0,2.38.06,3.15.18.62.1,1.21.15,1.82.15,3.09,0,5.77-1.39,9.15-3.15l.32-.17c.63-.33,1.3-.68,1.99-1.02,4.34-2.17,3.35-4.55,3.3-4.65l-.26-.54c-.05-.1-.06-.21-.02-.32.04-.11.11-.19.22-.24l.55-.27c3.18-1.55,2.95-4.99,2.91-5.37l-.03-.27c-.02-.11.02-.22.09-.31l.16-.2c2.69-3.13,2.57-4.48,2.47-4.82-.1-.35-.41-.46-.42-.47l-3.21-.87c-.2-.05-.32-.24-.3-.44.02-.2.17-.36.37-.38l3.32-.32c3.78-.36,9.14-1.74,11.04-2.84.87-.51,1.33-1.08,1.26-1.55-.08-.47-.65-.95-1.3-1.09-.1-.02-.58-.1-2.18-.1-7.52,0-29.44,1.49-33.76,1.8l-.54.04c-.14.02-.29-.06-.37-.19l-.2-.3c-.28-.45-2.58-4.47,1.8-9.57,2.44-2.85,2.57-5.98,2.09-7.03-.08-.15-.14-.22-.16-.24-.01.02-.14.06-.35.26l-1.21,1.11c-3.12,2.85-8.87,8.09-10.93,11.19l-.41.62c-2.37,3.56-4.22,6.34-8,10.36-.78.82-2.67,1.76-10.54,1.76s-18.96-1.04-22.68-1.42Z"/>
            </g>
            <path d="M139.79,188.76s-3.72,2.68-12.71.12c-.3-.09-.62.08-.7.39-.09.3.09.62.39.7,3.05.87,5.52,1.17,7.5,1.17,4.23,0,6.11-1.39,6.21-1.48.25-.19.3-.54.11-.79-.18-.25-.55-.3-.8-.11Z"/>
            <path d="M140.08,181.42s-3.29.62-13.18.34c-.29-.02-.58.24-.58.55-.02.31.23.58.55.58,1.83.05,3.42.07,4.82.07,6.31,0,8.51-.42,8.62-.44.3-.06.5-.36.44-.67-.06-.31-.36-.51-.66-.44Z"/>
            <path d="M136.4,194.96s-4.44,2.29-12.91,1.89c-.34.02-.59.23-.6.54-.01.32.23.58.54.6.71.03,1.39.05,2.04.05,7.47,0,11.28-1.97,11.45-2.06.27-.15.37-.49.23-.76-.15-.27-.49-.38-.76-.24Z"/>
          </g>
          <path class="cls-3" d="M88.62,183.1l-37.46-6.58s8.92-30.19,5.14-61.43l-41.31,22.49s-6.61,23.8-4.57,45.04c1.51,15.67,4.92,35.72,39.07,35.89,12.64.06,38.97-2.63,38.97-2.63-1.5-4.19.15-32.8.15-32.8Z"/>
          <path class="cls-4" d="M49.95,218.95c-.16,0-.3,0-.46,0-33.22-.17-37.8-18.81-39.48-36.27-2.03-21.08,4.51-44.95,4.58-45.19.07-.23.29-.34.52-.29.22.06.35.29.29.51-.07.24-6.58,23.97-4.56,44.89,1.27,13.22,3.4,35.34,38.66,35.52h.45c11.67,0,34.36-2.22,37.99-2.58-1.2-5.25.06-28.69.25-32.08l-37.1-6.51c-.11-.02-.22-.09-.28-.19-.06-.1-.08-.22-.04-.34.09-.3,8.85-30.47,5.12-61.26-.02-.23.14-.44.37-.46.23,0,.43.14.46.37,3.5,28.91-3.95,57.26-5.03,61.15l37.01,6.49c.21.04.35.23.34.44-.02.28-1.63,28.56-.18,32.63.04.12.03.25-.04.36-.07.11-.18.18-.31.19-.26.02-25.88,2.64-38.56,2.64Z"/>
          <g>
            <path class="cls-1" d="M78.23,225.31c-1.65-4.43-2.98-9.36-3.34-11.39l9.12-5.21-10.48,1.12c-.86-3.97-3.87-21.73,3.25-34.59l20.71,6.54c-.24,2.72-1.23,16.22,1.16,29.65l-20.43,13.88Z"/>
            <path class="cls-4" d="M78.23,225.73s-.09,0-.12-.02c-.12-.04-.22-.13-.27-.25-1.57-4.21-2.96-9.23-3.36-11.46-.03-.17.05-.35.2-.43l7.4-4.22-8.5.91c-.21,0-.41-.12-.45-.33-.46-2.13-4.28-21.22,3.29-34.88.1-.17.3-.25.49-.2l20.71,6.54c.18.06.3.24.29.43-.22,2.58-1.22,16.16,1.16,29.54.03.16-.04.33-.17.42l-20.44,13.88c-.07.05-.15.07-.23.07ZM75.35,214.14c.38,1.95,1.54,6.3,3.08,10.53l19.78-13.42c-2.26-12.9-1.42-25.91-1.16-29.16l-20.07-6.34c-6.89,12.79-3.8,30.3-3.12,33.63l10.11-1.08c.18,0,.37.1.43.29.07.19-.02.39-.18.49l-8.87,5.06Z"/>
          </g>
          <g>
            <path d="M90.86,212c-.99,0-1.85-.64-2.14-1.59-.18-.58-.11-1.18.17-1.7.28-.53.75-.91,1.32-1.09.21-.06.43-.1.65-.1.99,0,1.84.64,2.13,1.58.36,1.18-.31,2.44-1.48,2.79-.22.06-.43.1-.65.1h0Z"/>
            <path class="cls-4" d="M90.86,212.41c-1.17,0-2.19-.76-2.53-1.88-.21-.68-.14-1.4.2-2.02.33-.62.88-1.08,1.56-1.29.25-.08.51-.11.78-.11,1.17,0,2.19.75,2.53,1.88.42,1.4-.37,2.89-1.76,3.31-.25.08-.52.11-.77.11ZM90.86,207.93c-.18,0-.36.03-.53.08-.46.14-.84.45-1.07.88-.23.43-.28.92-.13,1.38.29.95,1.31,1.51,2.26,1.22.96-.29,1.5-1.31,1.21-2.27-.24-.77-.93-1.29-1.74-1.29Z"/>
          </g>
        </g>
      </g>
    </g>
  </g>
</svg>