<?xml version="1.0" encoding="UTF-8"?>
<svg id="Capa_2" data-name="Capa 2" xmlns="http://www.w3.org/2000/svg" viewBox="0 0 304.66 224.64">
  <defs>
    <style>
      .cls-1 {
        fill: #fff;
      }

      .cls-2 {
        fill: #a6d154;
      }

      .cls-3 {
        fill: #080717;
      }
    </style>
  </defs>
  <g id="_Layer_" data-name="&amp;lt;Layer&amp;gt;">
    <g>
      <g>
        <g>
          <path class="cls-1" d="M15.89,15.44h126.37c4.87,0,8.82,3.95,8.82,8.82v82.66c0,4.87-3.95,8.82-8.82,8.82H15.89c-4.87,0-8.82-3.95-8.82-8.82V24.26c0-4.87,3.95-8.82,8.82-8.82Z"/>
          <path class="cls-3" d="M142.25,116.74H15.89c-5.41,0-9.82-4.4-9.82-9.82V24.26c0-5.41,4.4-9.82,9.82-9.82h126.37c5.41,0,9.82,4.4,9.82,9.82v82.66c0,5.41-4.4,9.82-9.82,9.82ZM15.89,16.44c-4.31,0-7.82,3.51-7.82,7.82v82.66c0,4.31,3.51,7.82,7.82,7.82h126.37c4.31,0,7.82-3.51,7.82-7.82V24.26c0-4.31-3.51-7.82-7.82-7.82H15.89Z"/>
        </g>
        <path class="cls-3" d="M15.3,25.76c-1.84,0-3.33-1.49-3.33-3.33s1.49-3.33,3.33-3.33,3.33,1.49,3.33,3.33-1.49,3.33-3.33,3.33ZM15.3,21.1c-.73,0-1.33.6-1.33,1.33s.6,1.33,1.33,1.33,1.33-.6,1.33-1.33-.6-1.33-1.33-1.33Z"/>
        <path class="cls-3" d="M23.14,25.76c-1.84,0-3.33-1.49-3.33-3.33s1.49-3.33,3.33-3.33,3.33,1.49,3.33,3.33-1.49,3.33-3.33,3.33ZM23.14,21.1c-.73,0-1.33.6-1.33,1.33s.6,1.33,1.33,1.33,1.33-.6,1.33-1.33-.6-1.33-1.33-1.33Z"/>
        <path class="cls-3" d="M30.97,25.76c-1.83,0-3.33-1.49-3.33-3.33s1.49-3.33,3.33-3.33,3.33,1.49,3.33,3.33-1.49,3.33-3.33,3.33ZM30.97,21.1c-.73,0-1.33.6-1.33,1.33s.6,1.33,1.33,1.33,1.33-.6,1.33-1.33-.6-1.33-1.33-1.33Z"/>
      </g>
      <path class="cls-3" d="M134.49,69.45c1.34-1.8,1.9-4.01,1.57-6.23-.26-1.75-1.05-3.32-2.25-4.57.38-.14.77-.28,1.13-.48,1.98-1.07,3.42-2.84,4.06-4.99,1.17-3.91-.63-8.08-4.27-9.91-.02,0-.04-.01-.05-.02,1.96-1.65,3.16-4.15,3-6.9-.17-2.99-1.95-5.68-4.62-7.02-.89-.45-1.86-.72-2.84-.82.2-.35.41-.7.56-1.09.83-2.09.79-4.37-.09-6.43-.78-1.81-2.18-3.29-3.94-4.18-1.8-.91-3.84-1.09-5.76-.62.45-2.53-.23-5.24-2.13-7.25-.68-.72-1.46-1.3-2.34-1.74-2.72-1.36-5.95-1.12-8.43.53-.45-2.52-2.01-4.82-4.47-6.05-3.71-1.86-8.14-.69-10.52,2.54-.8-1.4-1.99-2.57-3.49-3.33-.88-.44-1.82-.72-2.79-.83-2.23-.26-4.43.36-6.19,1.76-1.38,1.09-2.34,2.56-2.83,4.22-.5-.42-1.03-.78-1.63-1.08-1.76-.88-3.79-1.12-5.7-.66-2.18.52-4.04,1.85-5.21,3.77-.92,1.5-1.33,3.21-1.22,4.93-2.47-.9-5.26-.59-7.48.87-1.87,1.23-3.16,3.12-3.61,5.32-.36,1.73-.15,3.48.55,5.06-2.58,0-5.11,1.17-6.74,3.36-1.34,1.8-1.9,4.01-1.57,6.24.26,1.75,1.05,3.32,2.25,4.57-2.41.88-4.4,2.82-5.19,5.46-1.17,3.91.62,8.08,4.27,9.91.02,0,.04.01.05.02-1.96,1.65-3.16,4.15-3,6.9.18,2.99,1.95,5.68,4.62,7.02.89.45,1.86.72,2.84.82-.2.35-.41.7-.56,1.09-.83,2.09-.79,4.37.09,6.43.78,1.81,2.18,3.29,3.94,4.18,1.8.91,3.84,1.09,5.76.62-.45,2.53.23,5.24,2.13,7.25.68.72,1.46,1.3,2.34,1.74,2.72,1.36,5.95,1.12,8.43-.53.45,2.52,2.01,4.82,4.47,6.05,3.71,1.86,8.14.69,10.52-2.54.8,1.4,1.99,2.57,3.49,3.33.88.44,1.82.72,2.8.83,2.23.26,4.42-.36,6.18-1.76,1.38-1.09,2.34-2.56,2.83-4.22.5.42,1.03.78,1.63,1.08,1.76.88,3.79,1.12,5.71.66,4.03-.96,6.67-4.69,6.42-8.69,2.47.9,5.26.6,7.49-.87,1.87-1.23,3.16-3.12,3.61-5.32.36-1.73.15-3.48-.55-5.06,2.58,0,5.11-1.17,6.75-3.36Z"/>
      <path class="cls-2" d="M274.24,20.14v43.96c0,3.13-2.54,5.67-5.67,5.67h-91.24c-3.13,0-5.67-2.54-5.67-5.67v-10.85h-12.34c-2.37,0-3.85-2.56-2.66-4.61l15.01-16.16v-12.34c0-3.13,2.54-5.67,5.67-5.67h91.24c3.13,0,5.67,2.54,5.67,5.67Z"/>
      <g>
        <path class="cls-1" d="M48.9,81.07c-13.02,0-24.7,8.03-29.36,20.19l-5.55,14.48h126.84l-4.72-13.56c-4.4-12.64-16.32-21.11-29.7-21.11h-57.5Z"/>
        <path class="cls-3" d="M140.82,116.74H13.98c-.33,0-.64-.16-.82-.43-.19-.27-.23-.62-.11-.92l5.55-14.48c4.78-12.46,16.95-20.83,30.3-20.83h57.5c13.8,0,26.11,8.75,30.65,21.78l4.72,13.56c.11.31.06.64-.13.91-.19.26-.49.42-.82.42ZM15.44,114.74h123.98l-4.26-12.23c-4.25-12.23-15.81-20.44-28.76-20.44h-57.5c-12.52,0-23.95,7.86-28.43,19.55l-5.03,13.13Z"/>
      </g>
      <ellipse class="cls-3" cx="96.33" cy="43.6" rx="23.14" ry="24.64" transform="translate(-3.89 77.29) rotate(-42.93)"/>
      <g>
        <path class="cls-1" d="M60.04,90.69h0c8.13,7.16,20.53,6.38,27.69-1.75l28.9-32.8-20.54-18.1-36.74,41.7c-2.83,3.21-2.52,8.12.69,10.95Z"/>
        <path class="cls-3" d="M72.98,96.58c-5.02,0-9.8-1.8-13.6-5.15h0c-3.62-3.19-3.97-8.74-.78-12.36l36.74-41.7c.17-.2.42-.32.69-.34.28,0,.53.07.72.25l20.54,18.1c.41.37.45,1,.09,1.41l-28.89,32.8c-3.64,4.13-8.67,6.6-14.17,6.95-.45.03-.89.04-1.33.04ZM60.7,89.94c3.73,3.29,8.53,4.93,13.48,4.61,4.96-.31,9.51-2.54,12.79-6.27l28.23-32.05-19.04-16.78-36.07,40.95c-2.46,2.8-2.19,7.07.6,9.54h0Z"/>
      </g>
      <g>
        <path class="cls-1" d="M90.34,42.05c4.31-6.29,12.47-9.12,19.96-6.4h0c8.89,3.23,13.47,13.05,10.24,21.94l-.65,1.78c1.7.84,2.53,2.82,1.86,4.64h0c-.67,1.8-2.57,2.75-4.38,2.31l-2.25,6.2c-3.23,8.89-13.05,13.47-21.94,10.24-8.89-3.23-13.47-13.05-10.24-21.94l1.94-5.33-2.63-2.33c-2.85-2.53-3.11-6.89-.59-9.74h0c2.23-2.51,5.88-3.01,8.67-1.36Z"/>
        <path class="cls-3" d="M99.02,84.78c-2.05,0-4.13-.35-6.17-1.09-9.39-3.41-14.25-13.83-10.84-23.22l1.71-4.69-2.12-1.88c-3.26-2.89-3.56-7.89-.67-11.15,2.3-2.59,6-3.36,9.11-1.98,4.77-6.29,13.12-8.78,20.61-6.06,4.55,1.65,8.18,4.98,10.23,9.36,2.05,4.39,2.27,9.31.61,13.86l-.37,1.01c1.64,1.24,2.32,3.42,1.58,5.41-.73,1.96-2.65,3.16-4.66,3.06l-1.98,5.44c-2.67,7.35-9.64,11.93-17.05,11.93ZM86.84,42.09c-1.64,0-3.27.68-4.42,1.98-2.16,2.43-1.93,6.17.5,8.33l2.63,2.33c.31.27.42.7.28,1.09l-1.94,5.33c-3.04,8.35,1.29,17.62,9.65,20.66,8.35,3.03,17.62-1.29,20.66-9.65l2.25-6.2c.17-.48.68-.75,1.18-.63,1.35.33,2.73-.39,3.21-1.69.49-1.31-.1-2.77-1.36-3.39-.46-.23-.67-.76-.5-1.24l.65-1.78c1.47-4.05,1.28-8.42-.55-12.33-1.82-3.9-5.05-6.86-9.1-8.33-6.91-2.51-14.65-.04-18.8,6.03-.3.43-.88.56-1.33.29-.93-.55-1.97-.82-2.99-.82Z"/>
      </g>
      <path class="cls-3" d="M86.38,51.11c-.2,0-.39-.06-.56-.18-.46-.31-.57-.93-.26-1.39,1.23-1.79.12-3.53.08-3.6-.3-.46-.18-1.08.28-1.38.46-.3,1.07-.18,1.38.27.08.12,1.92,2.91-.09,5.84-.19.28-.51.43-.83.43Z"/>
      <path class="cls-3" d="M104.27,71.08h0c-1.46,0-4.29-1.13-4.53-5.38-.03-.55.39-1.02.94-1.05.54-.02,1.02.39,1.05.94.19,3.33,2.31,3.48,2.55,3.49.55.02.99.47.98,1.01,0,.55-.45.99-.99.99Z"/>
      <path class="cls-3" d="M115.95,57.52c-.47.84-1.4,1.21-2.1.82-.69-.38-.88-1.38-.41-2.22.47-.84,1.4-1.21,2.1-.82.69.38.88,1.38.41,2.22Z"/>
      <path class="cls-3" d="M117.28,51.5c-.02.6-1.39,1.04-3.05.98-1.66-.06-2.99-.6-2.97-1.2.02-.6,1.39-1.04,3.05-.98,1.66.06,2.99.6,2.97,1.2Z"/>
      <path class="cls-3" d="M105.09,18.09c-11.82-3.83-24.28-.02-32.05,8.69.9,1.15,2.14,2.04,3.58,2.51.84.27,1.72.38,2.6.34-.13.34-.26.67-.34,1.03-.45,1.94-.11,3.94.94,5.62.93,1.48,2.35,2.59,4.01,3.13,1.7.55,3.51.44,5.13-.23-.06,2.28.91,4.56,2.84,6.07.69.54,1.46.95,2.28,1.21,2.57.83,5.36.19,7.31-1.59.73,2.15,2.41,3.95,4.73,4.7,3.5,1.13,7.22-.48,8.88-3.64.89,1.12,2.09,1.99,3.51,2.45.83.27,1.69.39,2.56.36,1.91-.07,3.68-.85,5.02-2.21-.19-12.64-8.31-24.33-21.01-28.44Z"/>
      <g>
        <g>
          <path class="cls-1" d="M64.42,115.85h-6.83l4.4-4.54c1.7-1.75,3.98-2.83,6.41-3.04h0c2.17-.19,3.28.59,4.86,3.21l7.69,13.84-3.25.6c-2.31.42-4.68-.39-6.25-2.15l-7.04-7.91Z"/>
          <path class="cls-3" d="M76.51,127.02c-2.19,0-4.32-.93-5.8-2.59l-6.75-7.58h-6.38c-.4,0-.76-.24-.92-.61-.16-.37-.08-.8.2-1.09l4.4-4.54c1.87-1.93,4.37-3.11,7.05-3.34,2.86-.25,4.24,1.11,5.8,3.69l7.71,13.87c.16.28.17.62.03.91-.14.29-.41.5-.72.56l-3.25.6c-.46.08-.92.12-1.38.12ZM59.95,114.85h4.47c.29,0,.56.12.75.33l7.04,7.91c1.32,1.49,3.35,2.19,5.32,1.83l1.88-.34-7.01-12.62c-1.47-2.44-2.3-2.82-3.9-2.7-2.19.19-4.25,1.16-5.78,2.74l-2.76,2.84Z"/>
        </g>
        <g>
          <path class="cls-1" d="M55.43,115.85h-6.83l4.4-4.54c1.7-1.75,3.98-2.83,6.41-3.04h0c2.17-.19,4.18,1.14,4.86,3.21l6.08,17.61-4.5.23c-2.33.12-4.51-1.14-5.57-3.22l-4.85-10.25Z"/>
          <path class="cls-3" d="M65.55,130.32c-2.58,0-4.97-1.45-6.16-3.77l-4.6-9.7h-6.2c-.4,0-.76-.24-.92-.61-.16-.37-.08-.8.2-1.09l4.4-4.54c1.87-1.93,4.37-3.11,7.05-3.34,2.63-.24,5.06,1.37,5.89,3.89l6.07,17.59c.1.3.06.62-.12.89-.18.26-.46.42-.78.44l-4.5.23c-.12,0-.24,0-.35,0ZM50.97,114.85h4.47c.39,0,.74.22.9.57l4.85,10.25c.87,1.69,2.68,2.75,4.61,2.64l3.17-.16-5.64-16.35c-.54-1.64-2.11-2.68-3.83-2.54-2.19.19-4.25,1.16-5.78,2.74l-2.76,2.84Z"/>
        </g>
        <g>
          <path class="cls-1" d="M46.45,115.85h-6.83l4.4-4.54c1.7-1.75,3.98-2.83,6.41-3.04h0c2.17-.19,4.18,1.14,4.86,3.21l5.49,16.11-4.5.23c-2.33.12-4.51-1.14-5.57-3.22l-4.27-8.75Z"/>
          <path class="cls-3" d="M55.98,128.83c-2.58,0-4.97-1.45-6.16-3.77l-4-8.21h-6.2c-.4,0-.76-.24-.92-.61-.16-.37-.08-.8.2-1.09l4.4-4.54c1.87-1.93,4.37-3.11,7.05-3.34,2.64-.23,5.06,1.37,5.89,3.89l5.49,16.1c.1.3.06.62-.12.88-.18.26-.46.42-.78.44l-4.5.23c-.12,0-.24,0-.35,0ZM41.98,114.85h4.47c.38,0,.73.22.9.56l4.27,8.75c.87,1.71,2.69,2.79,4.62,2.66l3.17-.16-5.06-14.86c-.54-1.64-2.12-2.67-3.82-2.53-2.19.19-4.25,1.16-5.78,2.74l-2.76,2.84Z"/>
        </g>
        <g>
          <path class="cls-1" d="M37.91,115.85h-6.83l4.41-4.54c1.7-1.75,3.98-2.83,6.41-3.04h0c2.17-.19,4.18,1.14,4.86,3.21l4.6,13.98-4.5.23c-2.33.12-4.51-1.14-5.57-3.22l-3.38-6.62Z"/>
          <path class="cls-3" d="M46.55,126.7c-2.58,0-4.97-1.45-6.16-3.77l-3.1-6.07h-6.22c-.4,0-.76-.24-.92-.61-.16-.37-.08-.8.2-1.09l4.4-4.54c1.87-1.93,4.37-3.11,7.05-3.34,2.63-.24,5.06,1.37,5.89,3.89l4.6,13.98c.1.3.05.62-.12.88-.18.26-.46.42-.77.43l-4.5.23c-.12,0-.24,0-.35,0ZM33.44,114.85h4.47c.38,0,.72.21.89.54l3.38,6.62c.88,1.72,2.7,2.8,4.63,2.67l3.19-.16-4.19-12.73c-.54-1.63-2.12-2.67-3.82-2.52-2.19.19-4.25,1.16-5.78,2.74l-2.76,2.84Z"/>
        </g>
      </g>
      <g>
        <g>
          <rect class="cls-1" x="110.49" y="98.25" width="193.17" height="114.3" rx="8.82" ry="8.82"/>
          <path class="cls-3" d="M294.84,213.55H119.31c-5.41,0-9.82-4.4-9.82-9.82v-96.66c0-5.41,4.4-9.82,9.82-9.82h175.53c5.41,0,9.82,4.4,9.82,9.82v96.66c0,5.41-4.4,9.82-9.82,9.82ZM119.31,99.25c-4.31,0-7.82,3.51-7.82,7.82v96.66c0,4.31,3.51,7.82,7.82,7.82h175.53c4.31,0,7.82-3.51,7.82-7.82v-96.66c0-4.31-3.51-7.82-7.82-7.82H119.31Z"/>
        </g>
        <path class="cls-3" d="M118.72,108.56c-1.83,0-3.33-1.49-3.33-3.33s1.49-3.33,3.33-3.33,3.33,1.49,3.33,3.33-1.49,3.33-3.33,3.33ZM118.72,103.9c-.73,0-1.33.6-1.33,1.33s.6,1.33,1.33,1.33,1.33-.6,1.33-1.33-.6-1.33-1.33-1.33Z"/>
        <path class="cls-3" d="M126.56,108.56c-1.83,0-3.33-1.49-3.33-3.33s1.49-3.33,3.33-3.33,3.33,1.49,3.33,3.33-1.49,3.33-3.33,3.33ZM126.56,103.9c-.73,0-1.33.6-1.33,1.33s.6,1.33,1.33,1.33,1.33-.6,1.33-1.33-.6-1.33-1.33-1.33Z"/>
        <path class="cls-3" d="M134.4,108.56c-1.83,0-3.33-1.49-3.33-3.33s1.49-3.33,3.33-3.33,3.33,1.49,3.33,3.33-1.49,3.33-3.33,3.33ZM134.4,103.9c-.73,0-1.33.6-1.33,1.33s.6,1.33,1.33,1.33,1.33-.6,1.33-1.33-.6-1.33-1.33-1.33Z"/>
      </g>
      <path class="cls-3" d="M205.31,48.66c-.46,0-.92-.05-1.37-.16-2.96-.74-4.84-2.31-5.52-4.55-1.34.24-2.97.37-4.95.32l.04-2c1.89.04,3.41-.08,4.62-.3,0-.5.04-1.03.13-1.58.27-1.64,1.17-3.27,2.2-3.97.66-.45,1.25-.45,1.62-.37,1.53.33,2.59,1.87,2.4,3.49-.09.79-.68,2.79-4.12,3.92.51,1.52,1.86,2.55,4.05,3.09,2.08.52,4.61-.88,6.57-2.73-1.95-2.25-3.19-5.01-2.88-6.7.4-2.2,2.09-4,4.02-4.28,1.65-.24,3.12.65,4.02,2.44,1.07,2.11.25,5.19-2.18,8.24-.07.08-.14.17-.21.25,1.64,1.41,4.2,2.81,7.35,1.87,1.53-.46,2.78-1.34,3.72-2.38-1.29-1.92-2.12-4.28-1.93-5.94.12-1.03.64-1.79,1.45-2.14,1.74-.75,2.84-.32,3.45.17,1.03.83,1.4,2.4,1.02,4.32-.23,1.16-.72,2.41-1.48,3.57.27.29.54.54.83.76,1.99,1.49,2.73.93,2.74.92l1.44,1.38c-.07.08-1.83,1.96-5.38-.7-.3-.23-.6-.49-.88-.78-1.14,1.2-2.62,2.19-4.41,2.73-3.18.96-6.47.13-9.29-2.32-2.04,1.94-4.64,3.42-7.09,3.42ZM212.64,34.81c-.07,0-.14,0-.22.02-1.07.16-2.1,1.33-2.34,2.66-.15.83.68,2.95,2.28,4.86.02-.02.04-.04.05-.07,1.84-2.31,2.63-4.76,1.96-6.09-.33-.65-.88-1.38-1.73-1.38ZM226.1,36.78c-.33,0-.7.13-.95.24-.13.06-.22.24-.25.54-.11.95.37,2.51,1.18,3.93.39-.73.65-1.48.79-2.19.25-1.27.02-2.11-.31-2.38-.12-.1-.28-.13-.46-.13ZM201.66,38c-.27.06-1.18,1.18-1.43,2.7-.04.24-.07.48-.08.71,1.64-.63,2.27-1.48,2.35-2.11.08-.67-.37-1.2-.84-1.3Z"/>
      <path class="cls-3" d="M0,158.35v43.96c0,3.13,2.54,5.67,5.67,5.67h91.24c3.13,0,5.67-2.54,5.67-5.67v-10.85h12.34c2.37,0,3.85-2.56,2.66-4.61l-15.01-16.16v-12.34c0-3.13-2.54-5.67-5.67-5.67H5.67c-3.13,0-5.67,2.54-5.67,5.67Z"/>
      <path class="cls-3" d="M174.67,148.83c3.65,2.34,5.51,4.82,5.78,6.66,0,0,79.73,30.38,100.71,15.06,16.99-12.4-.35-26.01-5.57-27.17-9.82-2.18-10.37-2.73-6-13.09,4.36-10.37,10.53-16.46-4.91-18-10.91-1.09-11.46-4.36-12-16.91-.55-12.55-20.19-14.18-27.28-10.91-7.09,3.27,0-4.91-6.55-6.55-6.55-1.64-8.18,2.18-9.27,4.91-1.09,2.73-14.73,3.82-17.46,13.64-2.73,9.82-13.64,8.73-9.82,25.09,3.82,16.37-1.64,9.82-6,11.46-4.36,1.64-9.27,10.91-1.64,15.82Z"/>
      <g>
        <path class="cls-1" d="M159.5,209.16l9.12-41.92c4.1-6.5,11.28-10.39,18.96-10.27l61.2-1.38c8.62-.19,16.33,5.31,18.96,13.52l14.13,41.05-122.38-1Z"/>
        <path class="cls-3" d="M281.87,211.16c-.41,0-.8-.26-.95-.67l-14.13-41.05c-2.48-7.75-9.86-13.02-17.99-12.84l-61.21,1.38c-7.24-.1-14.15,3.58-18.05,9.66l-9.08,41.75c-.12.54-.65.88-1.19.76-.54-.12-.88-.65-.76-1.19l9.12-41.92c.03-.11.07-.22.13-.32,4.19-6.65,11.63-10.74,19.47-10.74.12,0,.23,0,.35,0l61.17-1.38c8.95-.19,17.19,5.64,19.93,14.21l14.12,41.03c.18.52-.1,1.09-.62,1.27-.11.04-.22.05-.33.05Z"/>
      </g>
      <circle class="cls-3" cx="208.49" cy="108.91" r="28.17"/>
      <g>
        <path class="cls-1" d="M242.43,118.51c-1.24-.25-2.46-.17-3.59.18,2.07-10.9-3.46-21.92-13.6-26.7-12.5-5.89-27.4-.27-32.89,12.41l-3.01,6.94c-4.81,11.11,1.87,23.82,13.74,26.15l2.16.43v18.12h-10.82c3.65,10.02,13.73,17.22,25.6,17.22s21.96-7.2,25.6-17.22h-13.24v-18.78c1.62-1.63,2.83-3.69,3.42-6.08l.11-.43c.96.95,2.19,1.64,3.61,1.93,3.91.8,7.73-1.72,8.54-5.63.8-3.91-1.72-7.73-5.63-8.54Z"/>
        <path class="cls-3" d="M220.02,174.25c-11.98,0-22.65-7.18-26.54-17.88-.11-.31-.07-.65.12-.92.19-.27.49-.43.82-.43h9.82v-16.3l-1.36-.27c-5.96-1.17-11-4.93-13.82-10.3-2.83-5.38-3.06-11.66-.65-17.23l3.01-6.94c2.77-6.38,7.87-11.25,14.38-13.7,6.51-2.46,13.56-2.18,19.85.79,10.05,4.73,15.82,15.41,14.39,26.33.86-.1,1.73-.06,2.58.12,2.15.44,4.01,1.7,5.22,3.53,1.21,1.83,1.63,4.03,1.19,6.19-.44,2.15-1.7,4.01-3.53,5.22-1.84,1.21-4.03,1.63-6.19,1.19-1.02-.21-1.99-.61-2.85-1.18-.64,1.92-1.69,3.69-3.09,5.18v17.38h12.24c.33,0,.63.16.82.43.19.27.23.61.12.92-3.89,10.69-14.56,17.88-26.54,17.88ZM195.89,157.03c3.98,9.16,13.49,15.22,24.13,15.22s20.14-6.06,24.13-15.22h-11.77c-.55,0-1-.45-1-1v-18.78c0-.26.1-.52.29-.7,1.55-1.56,2.64-3.5,3.16-5.61l.11-.43c.09-.35.35-.62.7-.72.35-.1.72,0,.97.25.86.85,1.94,1.42,3.11,1.66,1.63.33,3.29.01,4.68-.9,1.39-.92,2.34-2.32,2.67-3.95.33-1.63.01-3.29-.9-4.68-.92-1.39-2.32-2.34-3.95-2.67h0c-1.03-.21-2.1-.16-3.09.15-.33.1-.7.03-.96-.21-.26-.23-.38-.59-.32-.93,2-10.52-3.37-21.05-13.04-25.61-5.8-2.73-12.3-2.99-18.3-.73-6,2.26-10.71,6.75-13.25,12.63l-3.01,6.94c-2.17,5.01-1.96,10.67.58,15.5,2.54,4.84,7.08,8.22,12.44,9.27l2.16.42c.47.09.81.5.81.98v18.12c0,.55-.45,1-1,1h-9.35Z"/>
      </g>
      <path class="cls-3" d="M237.55,127.81c-.07,0-.13,0-.2-.02-.54-.11-.89-.64-.78-1.18.7-3.42,4.06-5.64,7.48-4.93.54.11.89.64.78,1.18-.11.54-.63.89-1.18.78-2.34-.48-4.64,1.03-5.12,3.38-.1.47-.51.8-.98.8Z"/>
      <path class="cls-3" d="M202.68,111.8c-.24,0-.47-.08-.66-.25-.41-.37-.45-1-.08-1.41l4-4.5c1.03-1.16,1.51-2.71,1.3-4.25-.2-1.54-1.06-2.92-2.36-3.77-.03-.02-.06-.04-.09-.07-.08-.06-2.29-1.76-6.45.17-.5.23-1.1.01-1.33-.49-.23-.5-.01-1.1.49-1.33,5.04-2.33,8.06-.28,8.52.07,1.76,1.18,2.93,3.05,3.21,5.16.28,2.12-.37,4.25-1.79,5.84l-4,4.5c-.2.22-.47.34-.75.34Z"/>
      <path class="cls-3" d="M222.33,108.38c-.9,1.15-2.19,1.48-2.89.73-.7-.75-.54-2.29.35-3.44.9-1.15,2.19-1.48,2.89-.73.7.75.54,2.29-.35,3.44Z"/>
      <path class="cls-3" d="M201.99,103.66c-.9,1.15-2.19,1.48-2.9.73-.7-.75-.55-2.29.35-3.44.9-1.15,2.19-1.48,2.9-.73.7.75.55,2.29-.35,3.44Z"/>
      <g>
        <path class="cls-1" d="M201.52,114.2l13.61.07s-7.32,15.76-13.61-.07Z"/>
        <path class="cls-3" d="M207.87,122.25s-.09,0-.13,0c-2.75-.08-5.15-2.66-7.15-7.68-.12-.31-.08-.66.1-.93.19-.27.5-.44.83-.44h0l13.61.07c.34,0,.66.18.84.46.18.29.21.65.06.96-.36.78-3.65,7.56-8.18,7.56ZM203.04,115.21c1.49,3.26,3.12,5,4.75,5.04.02,0,.05,0,.07,0,2.19,0,4.38-2.9,5.61-4.99l-10.44-.05Z"/>
      </g>
      <path class="cls-3" d="M238.98,117.69c1.53-10.36-3.7-20.64-13.17-25.41-.6,9.67,4.53,19.06,13.17,25.41Z"/>
      <path class="cls-3" d="M229.97,108.63c-.42,0-.82-.27-.95-.7-2.22-6.94-10.66-7.67-10.75-7.68-.55-.04-.96-.52-.92-1.07.04-.55.52-.97,1.07-.92.4.03,9.87.82,12.5,9.06.17.53-.12,1.09-.65,1.26-.1.03-.2.05-.3.05Z"/>
      <path class="cls-3" d="M205.24,138.91c-.53,0-.98-.42-1-.96-.02-.55.41-1.02.96-1.04,4.82-.2,13.08-3.8,13.16-3.84.51-.22,1.1,0,1.32.51.22.51,0,1.1-.51,1.32-.35.15-8.68,3.79-13.88,4-.01,0-.03,0-.04,0Z"/>
      <g>
        <path class="cls-1" d="M258.38,211.96s-15.16-16.38-36.71-11.49c-17.27,3.92-19.52,15.2-14.48,18.19,2.01,1.19,8.08-1.64,8.08-1.64,0,0,1.12,2.72,4.12,2.13,3.3-.65,3.28,2.7,5.03,4.11,1.85,1.5,4.7.81,5.64-1.26.94-2.07,5.19-7.49,5.19-7.49,0,0,.94,4.03,2.58,6.33,1.12,1.58,5.42.48,6.98-2.7,1.57-3.18,3.14-8.47,13.57-6.18Z"/>
        <g>
          <path class="cls-1" d="M225.31,199.97s-10.57,9.11-9.83,16.02c.53,4.95,6.27,2.97,6.27,2.97l3.57-18.99Z"/>
          <path d="M219.31,220.35c-.94,0-1.97-.17-2.85-.73-1.14-.72-1.8-1.91-1.97-3.52-.79-7.34,9.73-16.5,10.17-16.88.42-.36,1.05-.31,1.41.1.36.42.31,1.05-.1,1.41-.1.09-10.17,8.85-9.49,15.16.11.99.45,1.66,1.05,2.04,1.19.76,3.21.32,3.89.09.52-.18,1.09.1,1.27.62.18.52-.1,1.09-.62,1.27-.08.03-1.31.44-2.77.44Z"/>
        </g>
        <g>
          <path class="cls-1" d="M235.31,200.7c-7.27,5.13-16.06,17.99-11.87,21.61,4.26,3.68,6.75-1.16,8.34-3.33,2.18-2.98,4.89-5.43,4.89-5.43l-1.35-12.85Z"/>
          <path d="M226.43,224.64c-1.2,0-2.42-.53-3.64-1.58-.71-.61-1.53-1.77-1.42-3.85.28-5.77,7.42-15.13,13.37-19.33.45-.32,1.07-.21,1.39.24.32.45.21,1.08-.24,1.39-5.43,3.83-12.28,12.79-12.53,17.79-.05,1.04.19,1.77.73,2.24.94.82,1.83,1.18,2.59,1.08,1.5-.19,2.78-2.07,3.72-3.44.2-.29.39-.56.56-.81,2.21-3.03,4.91-5.48,5.02-5.58.41-.37,1.04-.34,1.41.07.37.41.34,1.04-.07,1.41-.03.02-2.66,2.41-4.75,5.27-.17.23-.34.48-.53.76-1.15,1.68-2.73,3.98-5.11,4.29-.17.02-.35.03-.52.03Z"/>
        </g>
        <path d="M240.44,222.31c-1.18,0-2.34-.49-3.48-1.45-1.1-.93-1.69-2.14-1.77-3.62-.26-5,5.84-11.46,6.1-11.73.38-.4,1.01-.41,1.41-.03.4.38.41,1.01.03,1.41-1.61,1.68-5.73,6.8-5.55,10.24.05.91.4,1.63,1.06,2.19.9.76,1.77,1.08,2.58.94,1.55-.26,2.61-2.03,2.62-2.05l4.48-6.79c.18-.28.5-.45.83-.45l8.02-.05c-4.98-4.71-21.04-17.11-43.06-6.18-5.28,2.62-8.14,5.36-8.28,7.92-.12,2.24,1.88,3.89,2.48,4.33.89.09,4.43.33,6.92-1.78.42-.36,1.05-.3,1.41.12.36.42.3,1.05-.12,1.41-3.57,3.02-8.53,2.23-8.74,2.2-.13-.02-.26-.07-.37-.14-.15-.1-3.77-2.44-3.57-6.23.18-3.38,3.34-6.62,9.39-9.62,27.58-13.7,46.87,8.08,47.07,8.31.25.29.32.71.15,1.07-.16.36-.51.58-.9.59l-9.83.06-4.16,6.3c-.03.06-1.49,2.53-3.97,2.96-.25.04-.5.06-.74.06Z"/>
      </g>
      <g>
        <path class="cls-1" d="M139.76,211.38l9.29-21.51-32.69-31.81c-.98-.95-.97-2.53.02-3.47h0c1.61-1.53,4.09-1.67,5.86-.33l19.15,14.47,19.81.1-3.51-13.86c-.68-2.7,1.25-5.36,4.03-5.54h0c1.81-.11,3.5.88,4.29,2.51l8.9,18.43c3.11,6.44,3.57,13.83,1.29,20.61l-6.5,19.97-29.93.44Z"/>
        <path class="cls-3" d="M139.76,212.38c-.13,0-.27-.03-.4-.08-.51-.22-.74-.81-.52-1.31l9.02-20.88-32.2-31.33c-.67-.65-1.04-1.53-1.03-2.46,0-.94.38-1.81,1.06-2.45,1.97-1.87,4.98-2.04,7.15-.4l18.88,14.26,18.18.09-3.2-12.61c-.4-1.58-.08-3.24.88-4.55.96-1.31,2.44-2.13,4.06-2.23,2.22-.16,4.29,1.07,5.25,3.07l8.9,18.43c3.24,6.71,3.72,14.3,1.34,21.36l-6.5,19.96c-.17.52-.74.81-1.26.64-.53-.17-.81-.74-.64-1.26l6.5-19.97c2.21-6.57,1.77-13.63-1.24-19.86l-8.9-18.43c-.61-1.27-1.91-2.03-3.33-1.94-1.03.07-1.97.58-2.57,1.41-.61.83-.81,1.88-.55,2.88l3.51,13.86c.08.3,0,.62-.18.86-.19.24-.48.38-.79.38h0l-19.8-.1c-.22,0-.43-.07-.6-.2l-19.15-14.46c-1.39-1.05-3.31-.94-4.56.26-.28.27-.44.63-.44,1.01,0,.39.15.75.43,1.02l32.69,31.81c.3.29.39.73.22,1.11l-9.29,21.51c-.16.38-.53.6-.92.6Z"/>
      </g>
      <g>
        <path class="cls-1" d="M131.42,166.5l-4.24-16.86c-.39-1.56,1.15-2.91,2.64-2.31h0c1.9.76,3.4,2.28,4.13,4.19l6.55,15.82-9.07-.84Z"/>
        <path class="cls-3" d="M140.5,168.35c-.39,0-.76-.23-.92-.62l-6.54-15.82c-.64-1.67-1.94-3-3.58-3.65-.34-.13-.72-.07-1,.17-.28.25-.39.61-.3.97l4.24,16.86c.13.54-.19,1.08-.73,1.21-.53.13-1.08-.19-1.21-.73l-4.24-16.86c-.27-1.09.08-2.22.92-2.96.84-.74,2.01-.94,3.05-.53,2.16.86,3.87,2.6,4.7,4.77l6.53,15.79c.21.51-.03,1.09-.54,1.31-.12.05-.25.08-.38.08Z"/>
      </g>
      <g>
        <path class="cls-1" d="M158.15,182.82l-10.79-10.24-2.96-16.15c-.4-2.2-1.94-4.03-4.04-4.81h0c-1.36-.5-2.79.54-2.74,1.99l.8,20.14,19.73,9.07Z"/>
        <path class="cls-3" d="M158.15,183.82c-.25,0-.5-.09-.69-.27l-10.79-10.24c-.15-.15-.26-.34-.3-.55l-2.96-16.15c-.34-1.85-1.64-3.4-3.41-4.05-.33-.12-.68-.07-.97.13-.28.21-.44.53-.43.88l.8,20.14c.02.55-.41,1.02-.96,1.04-.51.04-1.02-.41-1.04-.96l-.8-20.14c-.04-1.01.43-1.98,1.25-2.57.82-.6,1.88-.74,2.83-.39,2.42.9,4.21,3.03,4.68,5.57l2.9,15.83,10.55,10.01c.4.38.42,1.01.04,1.41-.2.21-.46.31-.73.31Z"/>
      </g>
      <path class="cls-1" d="M39.43,191.75c-.67,0-1.33-.05-1.98-.17-6.19-1.1-8.75-3.78-9.67-6.44-2.44.45-5.53.74-9.42.76v-2c3.73-.02,6.68-.3,9-.74-.08-.92-.01-1.8.11-2.54.51-3.08,3.06-6.36,5.62-5.97,2.32.35,4.02,2.26,3.86,4.34-.1,1.42-1.15,4.14-7.21,5.71.98,2.48,3.67,4.13,8.05,4.91,4.03.72,8.9-1.42,12.67-4.56-.29-.24-.54-.47-.77-.68-3.27-3.03-5.27-6.65-4.87-8.79.53-2.83,2.94-5.22,5.87-5.83,2.7-.56,5.19.52,6.84,2.97,1.5,2.21,1.1,5.31-1.11,8.71-.77,1.19-1.74,2.37-2.84,3.48,3.15,2.14,8.23,4.39,14.39,2.75,2.96-.79,5.31-2.25,7.04-3.95-2.38-2.61-4.03-5.93-3.84-8.29.11-1.41.86-2.45,2.1-2.91,3.03-1.13,4.79-.39,5.72.43,1.36,1.2,1.81,3.29,1.24,5.73-.38,1.6-1.2,3.33-2.47,4.94.59.51,1.22.96,1.87,1.33,4.37,2.49,6.06,1.18,6.08,1.16l1.35,1.47c-.26.25-2.74,2.34-8.42-.9-.76-.43-1.5-.97-2.2-1.58-1.96,1.95-4.62,3.6-7.94,4.49-7.15,1.91-12.96-.84-16.4-3.29-3.64,3.13-8.32,5.45-12.67,5.45ZM52.06,171.61c-.36,0-.68.04-.95.1-2.12.44-3.93,2.22-4.31,4.24-.19,1.03,1.03,3.96,4.26,6.96.26.24.56.5.91.79,1.08-1.07,2.03-2.21,2.78-3.36,1.72-2.65,2.13-5.02,1.13-6.5-1.22-1.8-2.71-2.23-3.83-2.23ZM32.67,176.61c-1.11,0-2.84,2.04-3.21,4.33-.1.62-.14,1.21-.11,1.78,4.11-1.1,5.54-2.74,5.63-3.88.08-1.05-.88-2.02-2.17-2.22-.04,0-.08,0-.13,0ZM76.11,173.93c-.61,0-1.33.15-2.13.45-.34.13-.74.38-.8,1.2-.13,1.65,1.17,4.38,3.17,6.63.99-1.32,1.65-2.7,1.95-3.99.39-1.68.17-3.09-.61-3.77-.38-.34-.92-.51-1.57-.51Z"/>
    </g>
  </g>
</svg>