<?xml version="1.0" encoding="UTF-8"?>
<svg id="Capa_2" data-name="Capa 2" xmlns="http://www.w3.org/2000/svg" xmlns:xlink="http://www.w3.org/1999/xlink" viewBox="0 0 1051.59 825.71">
  <defs>
    <style>
      .cls-1 {
        fill: #fff;
      }

      .cls-2 {
        fill: #abfb4f;
      }

      .cls-3 {
        fill: url(#New_Pattern_3);
      }

      .cls-4 {
        fill: blue;
      }

      .cls-5, .cls-6, .cls-7 {
        fill: none;
      }

      .cls-8 {
        fill: url(#New_Pattern_4);
      }

      .cls-6 {
        stroke-width: 4px;
      }

      .cls-6, .cls-7 {
        stroke: #000;
        stroke-linecap: round;
        stroke-linejoin: round;
      }

      .cls-7 {
        stroke-width: 1.5px;
      }
    </style>
    <pattern id="New_Pattern_3" data-name="New Pattern 3" x="0" y="0" width="40" height="40" patternTransform="translate(-1744.26 -430.18) scale(1.03)" patternUnits="userSpaceOnUse" viewBox="0 0 40 40">
      <g>
        <rect class="cls-5" width="40" height="40"/>
        <g>
          <path d="M36.18,30c0,1.06.86,1.91,1.91,1.91v-3.82c-1.06,0-1.91.86-1.91,1.91Z"/>
          <path d="M40,33.82c1.06,0,1.91-.86,1.91-1.91h-3.82c0,1.06.86,1.91,1.91,1.91Z"/>
          <path d="M40,26.18c-1.06,0-1.91.86-1.91,1.91h3.82c0-1.06-.86-1.91-1.91-1.91Z"/>
          <path d="M16.18,40c0,1.06.86,1.91,1.91,1.91v-3.82c-1.06,0-1.91.86-1.91,1.91Z"/>
          <path d="M21.91,38.09v3.82c1.06,0,1.91-.86,1.91-1.91s-.86-1.91-1.91-1.91Z"/>
          <path d="M20,36.18c-1.06,0-1.91.86-1.91,1.91h3.82c0-1.06-.86-1.91-1.91-1.91Z"/>
          <path d="M1.91,28.09v3.82c1.06,0,1.91-.86,1.91-1.91s-.86-1.91-1.91-1.91Z"/>
          <path d="M36.18,10c0,1.06.86,1.91,1.91,1.91v-3.82c-1.06,0-1.91.86-1.91,1.91Z"/>
          <path d="M40,13.82c1.06,0,1.91-.86,1.91-1.91h-3.82c0,1.06.86,1.91,1.91,1.91Z"/>
          <path d="M40,6.18c-1.06,0-1.91.86-1.91,1.91h3.82c0-1.06-.86-1.91-1.91-1.91Z"/>
          <path d="M18.79,16.37c-1,.33-1.54,1.42-1.21,2.42l3.63-1.21c-.33-1-1.42-1.54-2.42-1.21Z"/>
          <path d="M22.42,21.21l-3.63,1.21c.33,1,1.42,1.54,2.42,1.21s1.54-1.42,1.21-2.42Z"/>
          <path d="M16.37,21.21c.33,1,1.42,1.54,2.42,1.21l-1.21-3.63c-1,.33-1.54,1.42-1.21,2.42Z"/>
          <path d="M23.63,18.79c-.33-1-1.42-1.54-2.42-1.21l1.21,3.63c1-.33,1.54-1.42,1.21-2.42Z"/>
          <path d="M1.91,8.09v3.82c1.06,0,1.91-.86,1.91-1.91s-.86-1.91-1.91-1.91Z"/>
          <path d="M20,3.82c1.06,0,1.91-.86,1.91-1.91h-3.82c0,1.06.86,1.91,1.91,1.91Z"/>
        </g>
        <g>
          <path d="M0,33.82c1.06,0,1.91-.86,1.91-1.91H-1.91c0,1.06.86,1.91,1.91,1.91Z"/>
          <path d="M0,26.18c-1.06,0-1.91.86-1.91,1.91H1.91c0-1.06-.86-1.91-1.91-1.91Z"/>
          <path d="M0,13.82c1.06,0,1.91-.86,1.91-1.91H-1.91c0,1.06.86,1.91,1.91,1.91Z"/>
          <path d="M0,6.18c-1.06,0-1.91.86-1.91,1.91H1.91c0-1.06-.86-1.91-1.91-1.91Z"/>
        </g>
        <g>
          <path d="M16.18,0c0,1.06.86,1.91,1.91,1.91V-1.91c-1.06,0-1.91.86-1.91,1.91Z"/>
          <path d="M21.91-1.91V1.91c1.06,0,1.91-.86,1.91-1.91s-.86-1.91-1.91-1.91Z"/>
        </g>
      </g>
    </pattern>
    <pattern id="New_Pattern_4" data-name="New Pattern 4" x="0" y="0" width="70" height="50" patternTransform="translate(-1785.64 -461.22) scale(1.03)" patternUnits="userSpaceOnUse" viewBox="0 0 70 50">
      <g>
        <rect class="cls-5" width="70" height="50"/>
        <g>
          <path class="cls-7" d="M8.89,99.96c-.05-7.08.29-14.17.29-21.25,0-4.32-.36-17.47-.29-28.09"/>
          <path class="cls-7" d="M22.94,99.84c.02-1.65.09-3.32.09-5.03,0-2.48-.2-4.98-.2-7.46s.02-3.83.05-7.28c0-1.44-.06-2.9-.06-4.35,0-3.1.31-4.62.31-7.37,0-1.39-.27-4.93-.27-8.33,0-1.07.03-2.14.09-3.21,0-2.06,0-4.29,0-6.7"/>
          <path class="cls-7" d="M36.74,99.84c.02-9.46.33-18.09.33-27.56,0-3.7-.15-7.46-.15-11.2,0-3.35-.09-7.29-.18-10.75"/>
          <path class="cls-7" d="M50.93,99.75c.03-1.23-.07-2.74-.07-3.99,0-1.92-.02-3.85-.02-5.78,0-3.87,0-7.66.02-11.51-.06-.41-.08-.82-.08-1.23,0-.32.18-6.67.18-8.04,0-2.2-.21-3.25-.21-5.64,0-1.3.06-2.65.17-3.87,0-2.88.01-5.88.02-9.05"/>
          <path class="cls-7" d="M64.98,99.71c.02-8.34-.55-15.73-.36-24.06.18-8.13.16-17.71.36-25.19"/>
        </g>
        <g>
          <path class="cls-7" d="M8.89,49.96c-.05-7.08.29-14.17.29-21.25,0-4.32-.36-17.47-.29-28.09"/>
          <path class="cls-7" d="M22.94,49.84c.02-1.65.09-3.32.09-5.03,0-2.48-.2-4.98-.2-7.46s.02-3.83.05-7.28c0-1.44-.06-2.9-.06-4.35,0-3.1.31-4.62.31-7.37,0-1.39-.27-4.93-.27-8.33,0-1.07.03-2.14.09-3.21,0-2.06,0-4.29,0-6.7"/>
          <path class="cls-7" d="M36.74,49.84c.02-9.46.33-18.09.33-27.56,0-3.7-.15-7.46-.15-11.2,0-3.35-.09-7.29-.18-10.75"/>
          <path class="cls-7" d="M50.93,49.75c.03-1.23-.07-2.74-.07-3.99,0-1.92-.02-3.85-.02-5.78,0-3.87,0-7.66.02-11.51-.06-.41-.08-.82-.08-1.23,0-.32.18-6.67.18-8.04,0-2.2-.21-3.25-.21-5.64,0-1.3.06-2.65.17-3.87,0-2.88.01-5.88.02-9.05"/>
          <path class="cls-7" d="M64.98,49.71c.02-8.34-.55-15.73-.36-24.06.18-8.13.16-17.71.36-25.19"/>
        </g>
        <g>
          <path class="cls-7" d="M8.89-.04c-.05-7.08.29-14.17.29-21.25,0-4.32-.36-17.47-.29-28.09"/>
          <path class="cls-7" d="M22.94-.16c.02-1.65.09-3.32.09-5.03,0-2.48-.2-4.98-.2-7.46s.02-3.83.05-7.28c0-1.44-.06-2.9-.06-4.35,0-3.1.31-4.62.31-7.37,0-1.39-.27-4.93-.27-8.33,0-1.07.03-2.14.09-3.21,0-2.06,0-4.29,0-6.7"/>
          <path class="cls-7" d="M36.74-.16c.02-9.46.33-18.09.33-27.56,0-3.7-.15-7.46-.15-11.2,0-3.35-.09-7.29-.18-10.75"/>
          <path class="cls-7" d="M50.93-.25c.03-1.23-.07-2.74-.07-3.99,0-1.92-.02-3.85-.02-5.78,0-3.87,0-7.66.02-11.51-.06-.41-.08-.82-.08-1.23,0-.32.18-6.67.18-8.04,0-2.2-.21-3.25-.21-5.64,0-1.3.06-2.65.17-3.87,0-2.88.01-5.88.02-9.05"/>
          <path class="cls-7" d="M64.98-.29c.02-8.34-.55-15.73-.36-24.06.18-8.13.16-17.71.36-25.19"/>
        </g>
      </g>
    </pattern>
  </defs>
  <g id="Capa_1-2" data-name="Capa 1">
    <g>
      <g>
        <path class="cls-1" d="M1014.03,536.67c-3.97,3.26-8.77,5.57-14.08,6.52-8.47,2.51-16.24-2.42-17.95-9.99-1.88-8.37-12.46-42.58-21.39-60.2-.1-.21-.18-.33-.22-.4t-.01-.02h0l-.03-.06c-.47-.93-3.26-6.47-17.05-33.76h0c-1.77-18-3.31-33.87-4.54-46.84-1.67-17.57-2.49-35.18-2.49-52.82v-51.31l31.65.99v48.26c0,8.34,1.99,16.68,5.74,24.11l42.25,83.66c7.69,13.66,21.03,19.96,28.61,22.55,3.27,1.13,5.33,4.34,5.05,7.79-.01.06-.01.11-.02.18-.33,4.08-3.82,7.18-7.9,6.97-5.38-.27-11.5-.84-16.14-1.32,1.54,11.04.79,23.25-.42,35.13-.85,8.26-4.94,15.56-11.05,20.57Z"/>
        <path d="M1025.27,823.71h-145.37l-3.78-45.64h101.82l.47,4.52c.49,4.63,3.43,8.63,7.7,10.52,18.22,8.11,39.17,9.73,39.17,30.6Z"/>
        <path class="cls-2" d="M846.59,420.94c-3.19,2.38-6.69,4.43-10.5,6.07l-133.71,57.76v187.95h-103.45v-155.26c31.84-29.9,51.72-72.38,51.72-119.52v-.77h-4.04c3.83-2.32,7.84-4.4,12.03-6.21l123.6-53.38v-15.76h154.02v17.26c0,17.64.83,35.26,2.49,52.82,1.23,12.97,2.77,28.84,4.54,46.83h0c9.2,93.09,24.63,242.69,34.65,339.32h-101.82l-29.53-357.13Z"/>
        <path class="cls-1" d="M960.38,472.56h0s-.01-.01-.02-.02l.02.02Z"/>
        <path class="cls-1" d="M960.38,472.56l-.02-.02s-.01-.03-.01-.03c0,0,.01.02.03.05Z"/>
        <path d="M925.76,125.39c0,6.35-1.22,12.4-3.43,17.96-5.48-2.14-10.68-4.87-15.5-8.09-19.24-12.86-32.69-33.7-35.59-57.8,1.66-.28,3.34-.44,5.07-.5.33-.01.67-.01,1.01-.01,26.75,0,48.44,21.68,48.44,48.44Z"/>
        <path class="cls-1" d="M906.83,135.26c-6.66,9.06-17.4,14.94-29.5,14.94-16.3,0-30.1-10.64-34.85-25.36-1.15-3.55-1.77-7.33-1.77-11.27,0-18.16,13.2-33.22,30.54-36.11,2.9,24.09,16.35,44.94,35.59,57.8Z"/>
        <path class="cls-1" d="M871.24,77.34c1.67-.21,3.36-.33,5.08-.37-1.73.05-3.41.22-5.07.5,0-.04-.01-.08-.01-.12Z"/>
        <path d="M871.25,77.47c-17.34,2.9-30.54,17.96-30.54,36.11,0,3.93.62,7.72,1.77,11.27h-.01c-9.83,7.83-17.8,11.01-17.8,11.01,0,0,4.94-50.78,46.57-58.51,0,.04.01.08.01.12Z"/>
        <path class="cls-4" d="M843.76,822.89h-87.77v-110.77h-53.61v-93.58c82.59,31.12,141.36,110.87,141.37,204.35Z"/>
        <path class="cls-1" d="M782.25,238.17l-44.12,21.96-28.96-54.91,84.06-41.87c46.83-20.18,43.79,17.29,77.6,17.29h.11c19.48-.02,37.26-8.79,51.07-8.79,6.86,0,45.89-1.3,45.89,33.38v83.55l-31.65-.99v34.06h-154.02v-83.67Z"/>
        <rect class="cls-1" x="333.22" y="712.12" width="422.77" height="110.77"/>
        <path class="cls-4" d="M735.51,23.86v60.8c-36.37,0-65.84,29.48-65.84,65.84,0,.85.02,1.71.05,2.56h-60.84c-.02-.85-.02-1.71-.02-2.56,0-69.95,56.7-126.65,126.65-126.65Z"/>
        <path d="M702.38,672.72v39.4h-146.31c0-15.07,20.71-17.25,36.94-23.65,3.58-1.42,5.92-4.88,5.92-8.73v-7.02h103.45Z"/>
        <path class="cls-1" d="M650.66,397.18v.77c0,47.13-19.88,89.62-51.72,119.52-29.33,27.55-68.8,44.43-112.22,44.43-90.55,0-163.95-73.4-163.95-163.95v-.77h67.72v.77c0,53.15,43.08,96.23,96.23,96.23s96.23-43.08,96.23-96.23v-.77h67.72Z"/>
        <polygon class="cls-1" points="561.27 268.34 561.27 305.45 412.16 305.45 412.16 175.37 561.27 175.37 561.27 268.34"/>
        <path class="cls-3" d="M650.66,397.18v.77c0,47.13-19.88,89.62-51.72,119.52-29.33,27.55-68.8,44.43-112.22,44.43-90.55,0-163.95-73.4-163.95-163.95v-.77h67.72v.77c0,53.15,43.08,96.23,96.23,96.23s96.23-43.08,96.23-96.23v-.77h67.72Z"/>
        <path class="cls-1" d="M731.57,263.4c-24.58,12.24-51.93,18.56-79.31,18.56-10.49,0-20.99-.93-31.35-2.8l-59.64-10.81v-63.08l70.71,12.82c24.29,4.41,49.83.77,71.93-10.23l5.27-2.63,28.96,54.91h0s-6.56,3.27-6.56,3.27Z"/>
        <path class="cls-4" d="M598.94,677.81v1.93c0,3.85-2.34,7.31-5.92,8.73-16.23,6.4-36.94,8.58-36.94,23.65h-118.82c3.44-5.84,7.16-11.51,11.12-17h95.55v-74.81c17.35-6.98,35.79-11.8,55.01-14.13v71.63Z"/>
        <polygon class="cls-8" points="561.27 268.34 561.27 305.45 412.16 305.45 412.16 175.37 561.27 175.37 561.27 268.34"/>
        <path class="cls-2" d="M543.92,657.33v37.79h-114.43v-39.04c4.13-.99,8.58-1.56,13.39-1.56,30.61,0,19.83,27.7,56.76,27.7,16.65,0,25.95-14.18,44.28-24.89Z"/>
        <path class="cls-1" d="M543.92,633.25v24.08c-18.33,10.71-27.63,24.89-44.28,24.89-36.93,0-26.15-27.7-56.76-27.7-4.81,0-9.26.57-13.39,1.56v-42.89c26.38-9.3,47.38,2.21,72.9-32.49h30.41c-16.09,42.66-61.35,46.08-61.35,62.06,0,6.3,6.33,7.08,12.63,7.08,24.45,0,31.56-12.42,59.82-16.58Z"/>
        <path class="cls-2" d="M543.92,620.31v12.94c-28.26,4.16-35.38,16.58-59.82,16.58-6.3,0-12.63-.78-12.63-7.08,0-15.98,45.26-19.4,61.35-62.06h11.11v39.61Z"/>
        <path d="M486.71,331.77c36.55,0,66.18,29.63,66.18,66.18s-29.63,66.18-66.18,66.18-66.18-29.63-66.18-66.18,29.63-66.18,66.18-66.18ZM512.15,397.94c0-14.05-11.39-25.43-25.44-25.43s-25.44,11.38-25.44,25.43,11.39,25.44,25.44,25.44,25.44-11.39,25.44-25.44Z"/>
        <polygon points="486.71 73.79 528.83 153.37 444.6 153.37 455.74 132.33 455.74 132.32 486.71 73.79"/>
        <path class="cls-1" d="M486.71,372.52c14.05,0,25.44,11.38,25.44,25.43s-11.39,25.44-25.44,25.44-25.44-11.39-25.44-25.44,11.39-25.43,25.44-25.43Z"/>
        <path class="cls-2" d="M429.5,580.7h72.9c-25.52,34.71-46.52,23.19-72.9,32.49v-32.49Z"/>
        <path class="cls-2" d="M480.27,2c14.86,0,26.89,12.04,26.89,26.9s-11.77,26.29-26.38,26.88c-.17,0-.34.01-.51.01-7.37,0-14.05-2.97-18.9-7.77.25-1.33.23-2.73-.11-4.13-.85-3.52-3.49-6.12-6.7-7.11h0c-.76-2.5-1.17-5.14-1.17-7.88,0-14.86,12.04-26.9,26.89-26.9Z"/>
        <path class="cls-1" d="M440.91,66.17c1.68-2.28,2.16-5.06,1.57-7.6l11.51-2.78c3.89-.94,6.68-4.08,7.38-7.77,4.85,4.8,11.53,7.77,18.9,7.77.17,0,.34,0,.51-.01-1.29,2.32-3.52,4.12-6.3,4.79l-35.81,8.67,2.24-3.06Z"/>
        <path class="cls-1" d="M317.9,210.51c-1.34-.55-2.74-.74-4.12-.64v-23.86c9.36,1.5,18.85,2.26,28.36,2.26h51.53v-113.13c0-14.12,9.23-26.43,22.12-30.36.24-.07.49-.14.72-.21l32.85-7.96c1.78-.42,3.56-.34,5.19.17,3.22.98,5.86,3.59,6.7,7.11.34,1.4.36,2.79.11,4.13-.69,3.69-3.49,6.83-7.38,7.77l-11.51,2.78c.59,2.54.1,5.33-1.57,7.6l-2.24,3.06,30.62-7.42,2.14,1.75c3.94,3.21,4.53,9,1.32,12.94-3.2,3.93-8.99,4.53-12.93,1.32l-4.08-3.32v57.82l-11.14,21.04h11.14v22h-43.58v74.97h-23.47c-.69-2.28-2.44-4.06-4.63-4.81.53-1.01.84-2.17.85-3.4,0-.52-.05-1.03-.16-1.52-.7-3.33-3.71-5.83-7.25-5.92-41.92-1.11-47.16,4.19-52.69,4.1-2.8-.04-4.76-2.82-3.97-5.51,1.08-3.69,1.71-6.18,2.89-11.93.48-2.36.04-4.76-1.13-6.76-1.03-1.78-2.64-3.24-4.69-4.08Z"/>
        <path class="cls-1" d="M418.42,44.1l-1.74.42c.57-.17,1.15-.3,1.74-.42Z"/>
        <path class="cls-1" d="M416.51,44.57c-.24.06-.49.13-.72.21.24-.08.48-.14.72-.21Z"/>
        <path class="cls-4" d="M227.94,618.53l-25.25,114.1c-13.6.87-24.84,10.49-28.14,23.29h-85.23l51.74-190.71c6.1-22.48,5.28-46.27-2.38-68.27-21.43-61.57-49.04-137.21-3.6-191.5l12.24,37.55c2.78,8.57,9.14,15.49,17.44,18.98,3.86,1.63,7.97,2.44,12.06,2.44,4.7,0,9.39-1.07,13.71-3.19l56-27.56,121.66,378.44h-34.96v43.8h-64.83l-40.45-137.39Z"/>
        <polygon points="333.22 755.92 333.22 801.88 281.92 801.88 268.39 755.92 333.22 755.92"/>
        <path class="cls-1" d="M313.79,209.87c1.38-.1,2.77.09,4.12.64,2.05.84,3.65,2.3,4.69,4.08,1.17,2,1.6,4.4,1.13,6.76-1.18,5.75-1.81,8.23-2.89,11.93-.79,2.69,1.17,5.47,3.97,5.51,5.52.09,10.77-5.2,52.69-4.1,3.54.08,6.55,2.59,7.25,5.92.1.49.16,1,.16,1.52,0,1.23-.32,2.39-.85,3.4,2.19.76,3.95,2.53,4.63,4.81.16.53.26,1.08.3,1.64.27,3.82-2.41,7.17-6.11,7.8-.67.11-1.33.23-1.99.33,1.37.8,2.46,2.03,3.09,3.54.21.5.38,1.03.48,1.59.65,3.78-1.68,7.38-5.3,8.38-2.1.59-4.09,1.14-5.98,1.68-15.82,4.43-25.22,7.57-41.43,17.39,0,0-17.47,9.56-30.6,14.11-.01,0-.02,0-.03.01l-110.59,54.42c-4.31,2.12-9.01,3.19-13.71,3.19-4.1,0-8.2-.81-12.06-2.44-8.3-3.5-14.66-10.42-17.44-18.98l-19.05-58.46,58.79-19.91,8.18,25.11,77.09-37.93c4.44-7.28,11.3-12.89,19.46-15.76,3.09-1.09,5.65-3.35,7.17-6.27,1.98-3.79,3.58-7.27,5.11-10.92.39-.92.79-1.86,1.18-2.82,1.46-3.58,4.88-5.92,8.53-6.16Z"/>
        <path class="cls-2" d="M187.06,264.63l-58.79,19.91-30.55-93.78c-5.31-16.29,3.6-33.81,19.9-39.11,39.04-13.11,40.8,26.99,72.48,32.76,2.82.53,5.89.77,9.24.67,36.03-.99,45.61-17.76,92.02-4.13,7.37,2.16,14.87,3.86,22.43,5.06v23.86c-3.65.24-7.08,2.58-8.53,6.16-.39.96-.79,1.9-1.18,2.82-1.53,3.65-3.13,7.14-5.11,10.92-1.52,2.92-4.08,5.18-7.17,6.27-8.16,2.87-15.02,8.47-19.46,15.76l-77.09,37.93-8.18-25.11Z"/>
        <path d="M196.99,758.42l34.92,43.46H76.86l12.47-45.96h85.23c3.3-12.8,14.53-22.42,28.14-23.29l-5.7,25.79Z"/>
        <path class="cls-1" d="M228.41,70.71c9.7,6,16.17,16.75,16.17,29,0,18.82-15.26,34.08-34.08,34.08-.74,0-1.49-.03-2.22-.08-13.96-1.03-25.62-10.19-30.01-22.89,16.84-2.88,29.98-16.58,32.01-33.69,1,.16,2.02.23,3.06.23,5.97,0,11.34-2.56,15.06-6.64h.01Z"/>
        <path d="M213.34,36.46c11.29,0,20.44,9.16,20.44,20.44,0,5.32-2.03,10.16-5.38,13.8-3.72,4.09-9.09,6.64-15.06,6.64-1.04,0-2.06-.07-3.06-.23-2.03,17.11-15.17,30.82-32.01,33.69,4.39,12.7,16.05,22,30.01,22.89h0c.11.96.19,1.91.26,2.88,1.25,18.81-6.04,35.94-18.43,47.84-31.68-5.77-33.43-45.87-72.48-32.76-16.3,5.31-25.21,22.82-19.9,39.11l9.7,29.78c-7.48,19.6-26.02,33.81-47.68,35.07-31.57,1.84-57.75-23.22-57.75-54.39,0-36.03,32.91-59.21,64.15-53.69,10.73,1.9,20.74-5.39,22.46-16.15,4.45-27.78,28.23-50.55,58.88-50.94,9.03-.11,17.63,1.72,25.38,5.13,2.97-10.84,10.51-19.8,20.41-24.68-.25-1.29-.38-2.63-.38-3.99,0-11.29,9.14-20.44,20.44-20.44Z"/>
      </g>
      <g>
        <path class="cls-6" d="M755.99,822.89h87.77c-.01-93.49-58.78-173.24-141.37-204.35"/>
        <path class="cls-6" d="M598.94,606.18c-19.22,2.33-37.67,7.15-55.01,14.13"/>
        <path class="cls-6" d="M448.37,695.12c-3.96,5.48-7.68,11.15-11.12,17"/>
        <path class="cls-6" d="M738.13,260.14l-6.56,3.26c-24.58,12.24-51.93,18.56-79.31,18.56-10.49,0-20.99-.93-31.35-2.8l-59.64-10.81"/>
        <line class="cls-6" x1="782.25" y1="238.17" x2="738.13" y2="260.13"/>
        <path class="cls-6" d="M384.05,245.53c2.19.76,3.95,2.53,4.63,4.81.16.53.26,1.08.3,1.64.27,3.82-2.41,7.17-6.11,7.8l-6.12,1.04c-16.35,2.86-26.06,5.06-43.52,13.4"/>
        <path class="cls-6" d="M322.59,214.59c-1.03-1.78-2.64-3.24-4.69-4.08-1.34-.55-2.74-.74-4.12-.64-3.65.26-7.08,2.58-8.53,6.16-.39.96-.79,1.9-1.18,2.82-1.53,3.65-3.13,7.14-5.11,10.92-1.52,2.92-4.08,5.18-7.17,6.27-8.16,2.87-15.02,8.47-19.46,15.76l-77.09,37.93-23.57-72.35"/>
        <path class="cls-6" d="M328.17,258.67c17.61-6.32,27.42-7.55,43.69-8.77h0c1.97-.16,4.02-.3,6.2-.47,2.6-.18,4.83-1.71,5.99-3.9h.01c.53-1.01.84-2.17.85-3.4,0-.52-.05-1.03-.16-1.52-.7-3.33-3.71-5.83-7.25-5.92-41.92-1.11-47.16,4.19-52.69,4.1-2.8-.04-4.76-2.82-3.97-5.51,1.08-3.69,1.71-6.18,2.89-11.93.48-2.36.04-4.76-1.13-6.76"/>
        <path class="cls-6" d="M416.68,44.53c.57-.17,1.15-.3,1.74-.42"/>
        <path class="cls-6" d="M301.15,306.79l-.03.02-110.59,54.42c-4.31,2.12-9.01,3.19-13.71,3.19-4.1,0-8.2-.81-12.06-2.44-8.3-3.5-14.66-10.42-17.44-18.98l-49.59-152.24c-5.31-16.29,3.6-33.81,19.9-39.11,39.04-13.11,40.81,26.92,72.48,32.76,2.83.52,5.89.77,9.24.67,36.03-.99,45.61-17.76,92.02-4.13,7.37,2.16,14.87,3.85,22.43,5.06,9.36,1.49,18.85,2.26,28.36,2.26h51.53v-113.13c0-14.12,9.23-26.43,22.12-30.36.24-.07.49-.14.72-.21"/>
        <path class="cls-6" d="M380.88,260.12c1.37.8,2.46,2.03,3.09,3.54.21.5.38,1.03.48,1.59.65,3.78-1.68,7.38-5.3,8.38-2.1.59-4.09,1.14-5.98,1.68-15.82,4.43-25.22,7.57-41.43,17.39,0,0-17.47,9.56-30.6,14.11-.01,0-.02,0-.03.01"/>
        <path class="cls-6" d="M135.08,305.45c-45.44,54.29-17.83,129.92,3.6,191.5,7.66,21.99,8.48,45.79,2.38,68.27l-64.2,236.67h155.06l-34.92-43.46,39.77-179.74c6.85-30.96,7.55-62.96,2.07-94.19l-17.13-97.54"/>
        <line class="cls-6" x1="246.52" y1="333.68" x2="368.18" y2="712.12"/>
        <polyline class="cls-6" points="227.94 618.53 281.92 801.88 333.22 801.88"/>
        <rect class="cls-6" x="333.22" y="712.12" width="422.77" height="110.77"/>
        <line class="cls-6" x1="128.27" y1="284.54" x2="187.06" y2="264.63"/>
        <path class="cls-6" d="M202.69,732.63c-13.6.87-24.84,10.49-28.14,23.29h-85.23"/>
        <line class="cls-6" x1="268.39" y1="755.92" x2="333.22" y2="755.92"/>
        <path class="cls-6" d="M228.41,70.71c9.7,6,16.17,16.75,16.17,29,0,18.82-15.26,34.08-34.08,34.08-.74,0-1.49-.03-2.22-.08-13.96-1.03-25.62-10.19-30.01-22.89,16.84-2.88,29.98-16.58,32.01-33.69,1,.16,2.02.23,3.06.23,5.97,0,11.33-2.56,15.06-6.64,3.34-3.65,5.38-8.48,5.38-13.8,0-11.29-9.16-20.44-20.44-20.44s-20.44,9.16-20.44,20.44c0,1.37.13,2.7.38,3.99-9.9,4.88-17.44,13.84-20.41,24.68-7.75-3.41-16.35-5.24-25.38-5.13-30.65.39-54.44,23.16-58.88,50.94-1.72,10.76-11.73,18.05-22.46,16.15-31.24-5.52-64.15,17.66-64.15,53.69,0,31.17,26.17,56.24,57.75,54.39,21.66-1.26,40.2-15.47,47.68-35.07"/>
        <path class="cls-6" d="M190.09,184.42h.01c12.39-11.91,19.69-29.04,18.43-47.85-.06-.96-.14-1.91-.26-2.87"/>
        <polygon class="cls-6" points="561.27 268.34 561.27 305.45 412.16 305.45 412.16 175.37 561.27 175.37 561.27 268.34"/>
        <path class="cls-6" d="M415.39,44.9c.13-.04.26-.08.39-.12.24-.08.48-.14.72-.21l32.85-7.96c1.78-.42,3.56-.34,5.19.17,3.22.99,5.86,3.59,6.7,7.11.34,1.4.36,2.79.11,4.13-.69,3.69-3.49,6.83-7.38,7.77l-11.51,2.78"/>
        <line class="cls-6" x1="388.68" y1="250.34" x2="412.16" y2="250.34"/>
        <line class="cls-6" x1="455.74" y1="175.37" x2="455.74" y2="153.37"/>
        <path class="cls-6" d="M455.74,132.32v-57.81l4.08,3.32c3.94,3.21,9.73,2.61,12.93-1.32,3.21-3.94,2.62-9.73-1.32-12.94l-2.14-1.75"/>
        <path class="cls-6" d="M480.77,55.77c-1.29,2.32-3.52,4.12-6.3,4.79l-35.81,8.67"/>
        <path class="cls-6" d="M461.37,48.01c4.85,4.8,11.53,7.77,18.9,7.77.17,0,.34,0,.51-.01,14.61-.59,26.38-12.2,26.38-26.88s-12.03-26.9-26.89-26.9-26.89,12.04-26.89,26.9c0,2.74.41,5.38,1.17,7.87"/>
        <path class="cls-6" d="M410.38,76.3l15.55-21.15c3.05-4.14,8.87-5.03,13-1.98,1.86,1.37,3.06,3.3,3.55,5.39.59,2.54.1,5.33-1.57,7.6l-11.67,15.86c2.72,9.83.51,20.19-5.5,27.99"/>
        <polygon class="cls-6" points="455.74 153.37 444.6 153.37 455.74 132.33 455.74 132.32 486.71 73.79 528.83 153.37 455.74 153.37"/>
        <circle class="cls-6" cx="486.71" cy="397.94" r="66.18"/>
        <path class="cls-6" d="M512.15,397.94c0-14.05-11.39-25.43-25.44-25.43s-25.44,11.38-25.44,25.43,11.39,25.44,25.44,25.44,25.44-11.39,25.44-25.44Z"/>
        <path class="cls-6" d="M646.62,397.18h-63.67v.77c0,53.15-43.09,96.23-96.23,96.23s-96.23-43.08-96.23-96.23v-.77h-67.72v.77c0,90.55,73.4,163.95,163.95,163.95,43.42,0,82.89-16.89,112.22-44.43,31.84-29.9,51.72-72.38,51.72-119.52v-.77h-4.04Z"/>
        <polygon class="cls-6" points="543.92 657.33 543.92 695.12 429.5 695.12 429.5 580.7 543.92 580.7 543.92 657.33"/>
        <path class="cls-6" d="M846.59,420.94c-3.19,2.38-6.69,4.43-10.5,6.07l-133.71,57.76v227.35"/>
        <path class="cls-6" d="M646.62,397.18c3.83-2.32,7.84-4.4,12.03-6.21l123.6-53.38v-120.08"/>
        <path class="cls-6" d="M561.27,205.26l70.71,12.82c24.29,4.41,49.83.77,71.93-10.23l89.33-44.49c46.83-20.18,43.79,17.29,77.6,17.29h.11c19.48-.02,37.26-8.79,51.07-8.79,6.86,0,45.89-1.3,45.89,33.38v131.81c0,8.34,1.99,16.68,5.74,24.11l42.25,83.66"/>
        <path class="cls-6" d="M960.35,472.51c-.47-.93-3.26-6.47-17.05-33.76"/>
        <path class="cls-6" d="M960.38,472.56l-.02-.02.02.02Z"/>
        <path class="cls-6" d="M960.39,472.59s.01.02.01.02c.02.05.03.06.03.06l-.04-.08Z"/>
        <path class="cls-6" d="M999.95,543.19c-8.47,2.51-16.24-2.42-17.95-9.99-1.88-8.37-12.46-42.58-21.39-60.2-.1-.21-.18-.33-.22-.4t-.01-.02h0l-.03-.06s.01.01.01.03c.01.01.01.02.02.03"/>
        <path class="cls-6" d="M1014.17,502.38c1.09,11.88-.12,22.45-.14,34.29-3.97,3.26-8.77,5.57-14.08,6.52-.73-5.99-1.25-11.13-1.97-16.32-.71-5.18-1.62-10.41-3.16-16.55"/>
        <path class="cls-6" d="M1014.03,536.67c6.1-5.01,10.2-12.31,11.05-20.57,1.21-11.89,1.97-24.09.42-35.13,4.63.49,10.76,1.06,16.14,1.32,4.09.21,7.57-2.9,7.9-6.97.01-.06.01-.11.02-.18.28-3.44-1.78-6.66-5.05-7.79-7.58-2.6-20.93-8.9-28.61-22.55"/>
        <polyline class="cls-6" points="709.17 205.22 738.13 260.13 738.13 260.14"/>
        <line class="cls-6" x1="936.26" y1="287.78" x2="967.91" y2="288.77"/>
        <line class="cls-6" x1="782.25" y1="321.84" x2="936.26" y2="321.84"/>
        <path class="cls-6" d="M876.31,76.97c-1.73.05-3.41.22-5.07.5-17.34,2.91-30.54,17.96-30.54,36.11,0,3.93.62,7.72,1.77,11.27,4.75,14.71,18.55,25.36,34.85,25.36,12.1,0,22.84-5.88,29.5-14.94"/>
        <path class="cls-6" d="M906.83,135.26c4.82,3.22,10.01,5.95,15.5,8.09,2.21-5.56,3.43-11.61,3.43-17.96,0-26.75-21.68-48.44-48.44-48.44-.34,0-.68,0-1.01.01-1.72.05-3.41.17-5.08.37,0,.04.01.08.01.12,2.9,24.09,16.34,44.94,35.59,57.8Z"/>
        <path class="cls-6" d="M842.47,124.85c-9.83,7.83-17.8,11.01-17.8,11.01,0,0,4.94-50.78,46.57-58.51"/>
        <path class="cls-6" d="M608.87,153.07h60.84c-.03-.85-.05-1.71-.05-2.56,0-36.37,29.48-65.84,65.84-65.84V23.86c-69.95,0-126.65,56.7-126.65,126.65,0,.85,0,1.71.02,2.56Z"/>
        <path class="cls-6" d="M556.08,712.12c0-15.07,20.71-17.25,36.94-23.65,3.58-1.42,5.92-4.88,5.92-8.73v-162.27"/>
        <path class="cls-6" d="M843.76,386.69l36.15,437.02h145.37c0-20.87-20.95-22.49-39.17-30.6-4.26-1.89-7.21-5.89-7.7-10.52-.16-1.49-25.91-250.75-35.11-343.84h0c-1.77-18-3.31-33.87-4.54-46.84-1.67-17.57-2.49-35.18-2.49-52.82v-98.68"/>
        <line class="cls-6" x1="876.13" y1="778.07" x2="977.94" y2="778.07"/>
        <line class="cls-6" x1="598.94" y1="672.72" x2="702.38" y2="672.72"/>
        <line class="cls-6" x1="313.79" y1="209.86" x2="313.79" y2="186.02"/>
        <path class="cls-6" d="M429.5,613.19c26.38-9.3,47.38,2.21,72.9-32.49"/>
        <path class="cls-6" d="M429.5,656.08c4.13-.99,8.58-1.56,13.39-1.56,30.61,0,19.83,27.7,56.76,27.7,16.65,0,25.95-14.18,44.28-24.89"/>
        <path class="cls-6" d="M532.81,580.7c-16.09,42.66-61.35,46.08-61.35,62.06,0,6.3,6.33,7.08,12.63,7.08,24.45,0,31.56-12.42,59.82-16.58"/>
      </g>
    </g>
  </g>
</svg>