<?xml version="1.0" encoding="UTF-8"?>
<svg id="Capa_2" data-name="Capa 2" xmlns="http://www.w3.org/2000/svg" viewBox="0 0 285.75 235.49">
  <defs>
    <style>
      .cls-1 {
        fill: #fff;
      }

      .cls-2 {
        fill: #6cf;
      }

      .cls-3 {
        fill: #080717;
      }
    </style>
  </defs>
  <g id="_Layer_" data-name="&amp;lt;Layer&amp;gt;">
    <g>
      <g>
        <path class="cls-1" d="M56.63,230.49l-4.66-61.08,155-34.16,30.55-57.63,28.6,13.3-19.04,53.86c-5.27,14.91-16.23,27.13-30.49,33.98l-45.58,21.9,1.33,33.82-115.72-4Z"/>
        <path class="cls-3" d="M172.35,235.49c-.53,0-.98-.42-1-.96l-1.33-33.82c-.02-.4.21-.77.57-.94l45.58-21.9c14.12-6.78,24.76-18.65,29.98-33.41l18.74-53.01-26.91-12.52-30.11,56.79c-.14.26-.38.45-.67.51l-154.16,33.97,4.59,60.22c.04.55-.37,1.03-.92,1.07-.55.04-1.03-.37-1.07-.92l-4.66-61.08c-.04-.5.3-.95.78-1.05l154.55-34.06,30.34-57.22c.25-.47.82-.66,1.31-.44l28.6,13.3c.47.22.69.75.52,1.24l-19.04,53.86c-5.4,15.27-16.41,27.54-31,34.55l-44.99,21.61,1.3,33.17c.02.55-.41,1.02-.96,1.04-.01,0-.03,0-.04,0Z"/>
      </g>
      <g>
        <polygon class="cls-1" points="88.33 234.49 49.7 137.35 52.4 115.52 15.08 115.52 35.94 234.49 88.33 234.49"/>
        <path class="cls-3" d="M88.33,235.49c-.4,0-.77-.24-.93-.63l-38.63-97.14c-.06-.16-.08-.33-.06-.49l2.56-20.71H16.27l20.66,117.8c.1.54-.27,1.06-.81,1.16-.55.1-1.06-.27-1.16-.81L14.09,115.69c-.05-.29.03-.59.22-.82.19-.23.47-.36.77-.36h37.33c.29,0,.56.12.75.34.19.21.28.5.24.78l-2.67,21.58,38.53,96.9c.2.51-.05,1.09-.56,1.3-.12.05-.25.07-.37.07Z"/>
      </g>
      <g>
        <rect class="cls-2" x="10.28" y="10.28" width="108.46" height="108.46" rx="17.08" ry="17.08" transform="translate(-17.84 25.25) rotate(-19.51)"/>
        <circle class="cls-1" cx="74" cy="39.79" r="15.64"/>
        <path class="cls-3" d="M128.03,81.41l-5.63-15.9-9.68-4.62c-7.16-3.41-15.73-.38-19.14,6.78h0c-3.23,6.78-11.34,9.65-18.12,6.42l-38.02-18.13c-9.03-4.3-19.84-.47-24.14,8.55l-3.62,7.59,16.13,45.51c3.15,8.89,12.92,13.55,21.81,10.4l70.03-24.81c8.89-3.15,13.55-12.92,10.4-21.81Z"/>
      </g>
      <g>
        <g>
          <rect class="cls-1" x="167.24" y="7.29" width="108.46" height="108.46" rx="17.08" ry="17.08" transform="translate(-.73 2.69) rotate(-.7)"/>
          <path class="cls-3" d="M184.77,117.2c-4.75,0-9.22-1.82-12.62-5.14-3.46-3.37-5.39-7.89-5.45-12.72l-.9-74.29c-.12-9.97,7.89-18.18,17.86-18.3l74.29-.9c4.82-.07,9.39,1.77,12.85,5.14,3.46,3.37,5.39,7.89,5.45,12.72l.9,74.29c.12,9.97-7.89,18.18-17.86,18.3l-74.29.9c-.08,0-.15,0-.23,0ZM259.27,115.29h0,0ZM258.17,7.84c-.07,0-.13,0-.2,0l-74.29.9c-8.87.11-16,7.41-15.89,16.28l.9,74.29c.05,4.3,1.77,8.31,4.85,11.31,3.07,3,7.15,4.64,11.43,4.57l74.29-.9c8.87-.11,16-7.41,15.89-16.28l-.9-74.29c-.05-4.3-1.77-8.31-4.85-11.31-3.03-2.95-7.01-4.57-11.23-4.57Z"/>
        </g>
        <g>
          <path class="cls-3" d="M203.7,22.62c-2.31,0-4.19-1.88-4.19-4.19s1.88-4.19,4.19-4.19,4.19,1.88,4.19,4.19-1.88,4.19-4.19,4.19ZM203.7,16.24c-1.21,0-2.19.98-2.19,2.19s.98,2.19,2.19,2.19,2.19-.98,2.19-2.19-.98-2.19-2.19-2.19Z"/>
          <path class="cls-3" d="M192.97,22.62c-2.31,0-4.19-1.88-4.19-4.19s1.88-4.19,4.19-4.19,4.19,1.88,4.19,4.19-1.88,4.19-4.19,4.19ZM192.97,16.24c-1.21,0-2.19.98-2.19,2.19s.98,2.19,2.19,2.19,2.19-.98,2.19-2.19-.98-2.19-2.19-2.19Z"/>
          <path class="cls-3" d="M182.25,22.62c-2.31,0-4.19-1.88-4.19-4.19s1.88-4.19,4.19-4.19,4.19,1.88,4.19,4.19-1.88,4.19-4.19,4.19ZM182.25,16.24c-1.21,0-2.19.98-2.19,2.19s.98,2.19,2.19,2.19,2.19-.98,2.19-2.19-.98-2.19-2.19-2.19Z"/>
        </g>
        <g>
          <g>
            <path class="cls-3" d="M187.51,94.07c-.08.08-.17.15-.25.24l5.95,5.95c.08-.08.15-.17.24-.25,5.08-5.08,11.95-6.81,16.94-4.73l11.71-15.52-14.34-14.34-15.52,11.71c2.09,5,.35,11.86-4.72,16.94Z"/>
            <rect class="cls-1" x="187.35" y="90.06" width="18.21" height="2" transform="translate(-6.85 165.57) rotate(-45)"/>
          </g>
          <g>
            <path class="cls-2" d="M237.2,35.64c12.19-12.18,26.86,2.49,14.67,14.68-20.12,20.86-8.2,9.68-28.32,30.54-5.63-5.63-11.26-11.26-16.89-16.88,20.86-20.12,9.68-8.2,30.54-28.33Z"/>
            <path class="cls-1" d="M232.95,59.74c1.89-1.78,4.81-4.58,10.69-10.35,2.62-2.62,5.01-4.17,6.99-4.87-.7,1.97-2.25,4.37-4.87,6.99-17.77,18.12-7.48,8.18-25.25,26.3-.81-.81-1.63-1.63-2.45-2.45,11.94-12.18,10.59-11.08,14.9-15.62Z"/>
            <rect class="cls-2" x="211.24" y="60.48" width="5.33" height="26.27" transform="translate(10.59 172.82) rotate(-45)"/>
          </g>
        </g>
      </g>
      <g>
        <path class="cls-1" d="M23.52,130.26l3.5-6.22.33-12.44,23.17-15.06c1.89-1.23,3.1-3.28,3.25-5.54l.02-.37c.17-2.56-2.52-4.32-4.78-3.11-5.89,3.15-15.21,8.15-19.16,10.44,3.94-2.91,13.2-10.44,18.81-15.02,2.83-2.32,4.2-5.94,3.64-9.56v-.07c-.35-2.14-2.78-3.21-4.58-2.01l-26.58,17.72,23.93-22.76c1.73-1.64,2.18-4.22,1.11-6.35l-.56-1.13c-.82-1.65-2.92-2.17-4.43-1.11l-28.73,20.36.33-12.24,9.83-8.46c2.55-2.2,3.48-5.75,2.32-8.91h0c-.59-1.63-2.57-2.23-3.96-1.22l-14.58,10.65c-2.46,1.8-3.91,4.66-3.91,7.7v19.54l-.21,14.55c-.07,5.04,1.23,10.01,3.77,14.36l13.57,23.23,3.92-6.98Z"/>
        <path class="cls-3" d="M19.6,138.24c-.34,0-.68-.18-.86-.5l-13.57-23.23c-2.63-4.51-3.99-9.66-3.91-14.88l.21-14.54v-19.52c0-3.35,1.61-6.53,4.32-8.51l14.58-10.65c.92-.67,2.07-.87,3.16-.54,1.09.33,1.94,1.13,2.33,2.2,1.3,3.55.25,7.57-2.6,10.03l-9.49,8.17-.27,9.8,27.09-19.2c.96-.68,2.16-.9,3.29-.62,1.14.28,2.09,1.05,2.61,2.1l.56,1.13c1.27,2.54.74,5.57-1.32,7.53l-15.54,14.78,16.95-11.3c1.13-.75,2.55-.88,3.79-.33,1.24.55,2.11,1.67,2.32,3.02.63,4.02-.9,8.04-3.98,10.56-2.47,2.02-5.86,4.78-9.17,7.45,3.07-1.66,6.13-3.3,8.43-4.52,1.38-.74,2.99-.67,4.3.18,1.32.86,2.05,2.31,1.95,3.89l-.02.37c-.17,2.55-1.55,4.91-3.7,6.31l-22.73,14.77-.31,11.91c0,.16-.05.32-.13.46l-3.5,6.22c-.27.48-.88.65-1.36.38-.48-.27-.65-.88-.38-1.36l3.38-6.01.32-12.19c0-.33.18-.63.45-.81l23.17-15.06c1.62-1.05,2.67-2.84,2.8-4.77l.02-.37c.06-.84-.33-1.62-1.04-2.07-.7-.45-1.55-.48-2.28-.09-5.43,2.9-15.12,8.1-19.13,10.42-.46.27-1.05.13-1.34-.32-.29-.44-.18-1.04.24-1.35,3.98-2.94,13.47-10.65,18.77-14.99,2.53-2.07,3.79-5.38,3.28-8.63-.12-.75-.54-1.29-1.16-1.57-.62-.27-1.31-.21-1.88.16l-26.58,17.72c-.43.29-1.01.2-1.34-.21-.32-.41-.28-.99.09-1.35l23.93-22.76c1.42-1.35,1.78-3.43.91-5.18l-.56-1.13c-.26-.53-.74-.91-1.31-1.05-.57-.14-1.17-.03-1.65.31l-28.73,20.36c-.31.22-.72.24-1.05.07-.33-.18-.54-.53-.53-.91l.33-12.24c0-.28.13-.55.35-.73l9.83-8.46c2.22-1.91,3.04-5.05,2.04-7.81-.18-.49-.55-.84-1.04-.99-.48-.15-1-.06-1.4.24l-14.58,10.65c-2.19,1.6-3.5,4.18-3.5,6.89v19.54l-.21,14.56c-.07,4.86,1.19,9.65,3.64,13.85l13.57,23.23c.28.48.12,1.09-.36,1.37-.16.09-.33.14-.5.14Z"/>
      </g>
      <path class="cls-3" d="M13.67,95.41c-.31,0-.61-.14-.8-.4-.33-.44-.24-1.07.21-1.4l20.46-15.15c.44-.33,1.07-.24,1.4.21.33.44.24,1.07-.21,1.4l-20.46,15.15c-.18.13-.39.2-.59.2Z"/>
      <path class="cls-3" d="M22.23,103.7c-.34,0-.67-.17-.86-.48-.29-.47-.14-1.09.34-1.37l21.22-12.88c.47-.29,1.09-.14,1.37.34.29.47.14,1.09-.34,1.37l-21.22,12.88c-.16.1-.34.15-.52.15Z"/>
      <path class="cls-3" d="M2.69,87.2c-.22,0-.44-.07-.63-.22-.43-.35-.5-.98-.15-1.41l2.41-2.98c1.05-1.3,2.32-2.4,3.77-3.25l4.42-2.6c.48-.28,1.09-.12,1.37.35.28.48.12,1.09-.35,1.37l-4.42,2.6c-1.24.73-2.33,1.66-3.23,2.78l-2.41,2.98c-.2.24-.49.37-.78.37Z"/>
      <g>
        <g>
          <path class="cls-1" d="M275.75,33.16v8.08l5.37-5.21c2.08-2.01,3.35-4.71,3.6-7.59h0c.22-2.56-.7-3.88-3.8-5.75l-16.38-9.1-.71,3.84c-.5,2.74.46,5.54,2.54,7.39l9.37,8.34Z"/>
          <path class="cls-3" d="M275.75,42.25c-.13,0-.26-.03-.39-.08-.37-.16-.61-.52-.61-.92v-7.64l-9.03-8.04c-2.33-2.07-3.42-5.26-2.86-8.32l.71-3.84c.06-.32.27-.59.56-.72.29-.14.63-.13.91.03l16.38,9.1c3.02,1.82,4.59,3.42,4.31,6.71-.27,3.12-1.65,6.04-3.9,8.22l-5.37,5.21c-.19.18-.44.28-.7.28ZM265.28,15.14l-.45,2.47c-.44,2.38.41,4.86,2.22,6.46l9.37,8.34c.21.19.33.46.33.75v5.72l3.68-3.57c1.9-1.85,3.07-4.32,3.3-6.96.17-1.97-.31-2.99-3.32-4.81l-15.13-8.41Z"/>
        </g>
        <g>
          <path class="cls-1" d="M275.75,43.8v8.08l5.37-5.21c2.08-2.01,3.35-4.71,3.6-7.59h0c.22-2.56-1.35-4.94-3.8-5.75l-20.84-7.19-.27,5.32c-.14,2.76,1.35,5.34,3.81,6.59l12.13,5.74Z"/>
          <path class="cls-3" d="M275.75,52.88c-.13,0-.26-.03-.39-.08-.37-.16-.61-.52-.61-.92v-7.45l-11.56-5.47c-2.83-1.44-4.54-4.4-4.38-7.55l.27-5.32c.02-.31.18-.6.44-.78.26-.18.59-.22.89-.12l20.84,7.19c2.88.95,4.73,3.74,4.47,6.78-.27,3.12-1.65,6.04-3.9,8.22l-5.37,5.21c-.19.18-.44.28-.7.28ZM261.02,27.52l-.21,4c-.12,2.36,1.16,4.58,3.26,5.65l12.1,5.73c.35.17.57.52.57.9v5.72l3.68-3.57c1.9-1.85,3.07-4.32,3.3-6.96.18-2.11-1.1-4.05-3.11-4.71l-19.6-6.76Z"/>
        </g>
        <g>
          <path class="cls-1" d="M275.75,54.44v8.08l5.37-5.21c2.08-2.01,3.35-4.71,3.6-7.59h0c.22-2.56-1.35-4.94-3.8-5.75l-19.07-6.5-.27,5.32c-.14,2.76,1.35,5.34,3.81,6.59l10.36,5.05Z"/>
          <path class="cls-3" d="M275.75,63.52c-.13,0-.26-.03-.39-.08-.37-.16-.61-.52-.61-.92v-7.46l-9.8-4.78c-2.82-1.44-4.53-4.4-4.37-7.54l.27-5.32c.02-.31.18-.6.44-.78.26-.18.59-.22.88-.12l19.07,6.5c2.89.95,4.73,3.74,4.47,6.78-.27,3.12-1.65,6.04-3.9,8.22l-5.37,5.21c-.19.18-.44.28-.7.28ZM262.79,38.84l-.21,4c-.12,2.36,1.16,4.58,3.26,5.65l10.34,5.04c.34.17.56.52.56.9v5.72l3.68-3.57c1.9-1.85,3.07-4.32,3.3-6.96.18-2.11-1.1-4.05-3.11-4.71l-17.83-6.08Z"/>
        </g>
        <g>
          <path class="cls-1" d="M275.75,64.54v8.08l5.37-5.21c2.08-2.01,3.35-4.71,3.6-7.59h0c.22-2.56-1.35-4.94-3.8-5.75l-16.55-5.45-.27,5.32c-.14,2.76,1.35,5.34,3.81,6.59l7.84,4Z"/>
          <path class="cls-3" d="M275.75,73.63c-.13,0-.26-.03-.39-.08-.37-.16-.61-.52-.61-.92v-7.47l-7.29-3.72c-2.8-1.43-4.51-4.39-4.35-7.53l.27-5.32c.02-.31.18-.6.43-.77.26-.18.58-.22.88-.12l16.55,5.45c2.9.95,4.74,3.74,4.48,6.78-.27,3.12-1.65,6.04-3.9,8.22l-5.37,5.21c-.19.18-.44.28-.7.28ZM265.31,49.99l-.21,4.02c-.12,2.36,1.16,4.58,3.26,5.65l7.83,4c.33.17.55.52.55.89v5.72l3.68-3.57c1.9-1.85,3.07-4.32,3.3-6.96.18-2.11-1.1-4.05-3.11-4.71l-15.3-5.04Z"/>
        </g>
      </g>
      <g>
        <g>
          <path class="cls-1" d="M140.93,149.8l-14.22,3.13,12.54-28.41-28.98-12.79-21.77,47.84c-.29.63-.46,1.27-.58,1.9l-13.1,2.89c1.5,15.49,16.32,27.65,34.4,27.65,19.07,0,34.53-13.54,34.53-30.24,0-4.26-1.01-8.31-2.82-11.98Z"/>
          <path class="cls-3" d="M109.23,193.02c-18.29,0-33.84-12.54-35.39-28.55-.05-.5.29-.96.78-1.07l12.47-2.75c.13-.52.3-1.01.51-1.48l21.77-47.84c.23-.5.81-.72,1.31-.5l28.98,12.79c.24.11.43.31.53.55.1.25.09.52-.02.77l-11.74,26.6,12.29-2.71c.45-.1.91.12,1.11.53,1.94,3.93,2.93,8.11,2.93,12.42,0,17.22-15.94,31.24-35.53,31.24ZM75.92,165.15c1.93,14.58,16.36,25.87,33.3,25.87,18.49,0,33.53-13.12,33.53-29.24,0-3.74-.8-7.38-2.38-10.83l-13.44,2.96c-.37.08-.75-.05-.99-.34-.24-.29-.29-.69-.14-1.04l12.13-27.49-27.16-11.98-21.36,46.94c-.23.5-.39,1.04-.51,1.66-.07.4-.38.71-.77.8l-12.22,2.69Z"/>
        </g>
        <path class="cls-3" d="M127.79,146.23l10.11-22.9-27.24-12.02-10.82,24.51c7.04,7.29,17.18,11.39,27.95,10.41Z"/>
        <path class="cls-3" d="M166.35,84.21l-6.33-4.34c-14.76-10.12-33.99-9.36-46.64,1.85l-15.28,13.54c-5.71,5.06-6,13.98-.65,20.03l20.54,23.21,48.36-54.29Z"/>
        <path class="cls-3" d="M155.18,75.29l7.06,5.4c16.46,12.58,23.05,32.88,16,49.26l-8.52,19.77c-3.18,7.39-12.56,10.2-21.06,6.3l-32.61-14.94,39.14-65.79Z"/>
        <path class="cls-3" d="M152.43,84.04c-.12,0-.24-.02-.35-.06-.52-.19-.78-.77-.58-1.29l7.02-18.69c1.17-3.12,3.83-5.32,7.3-6.04.54-.11,1.07.24,1.18.78.11.54-.24,1.07-.78,1.18-2.83.58-4.9,2.28-5.84,4.78l-7.02,18.69c-.15.4-.53.65-.94.65Z"/>
        <path class="cls-3" d="M152.52,83.46l9.02-17.56c2.82-5.5,10.01-7.02,15.34-3.26l5.9,4.17c5.88,4.16,6.47,12.51,1.18,16.79l-17.34,14.05-14.1-14.21Z"/>
        <g>
          <path class="cls-1" d="M173.11,134.65c2.18-4.7.13-10.28-4.57-12.45l-.15-.07c6.36-13.43,5.05-28.17-4.4-36.51-10.45-9.22-27.43-7.58-40.67,2.99-3.38-2.73-8.31-2.82-11.81.03h0c-4.02,3.27-4.62,9.18-1.35,13.2l1.03,1.26c-7.54,13.97-6.61,29.83,3.33,38.6,10.87,9.59,28.79,7.43,42.23-4.29l3.9,1.81c4.7,2.18,10.28.13,12.45-4.57Z"/>
          <path class="cls-3" d="M131.36,148.76c-6.56,0-12.7-2.07-17.5-6.31-9.85-8.69-11.41-24.75-3.86-39.23l-.61-.75c-3.61-4.44-2.94-10.99,1.5-14.6,3.57-2.91,8.67-3.08,12.42-.51,13.89-10.74,30.81-11.78,41.35-2.48,9.29,8.2,11.27,22.89,5.05,36.8,4.66,2.63,6.6,8.46,4.31,13.4h0c-1.17,2.52-3.24,4.43-5.84,5.38-2.6.95-5.42.84-7.94-.33l-3.32-1.54c-7.91,6.72-17.08,10.17-25.56,10.17ZM117.43,87.54c-1.88,0-3.76.62-5.29,1.87-3.58,2.92-4.13,8.21-1.21,11.79l1.03,1.27c.25.31.3.75.1,1.11-7.46,13.81-6.18,29.18,3.11,37.38,10.37,9.15,27.58,7.34,40.91-4.29.3-.26.72-.32,1.08-.15l3.9,1.81c2.03.94,4.31,1.03,6.41.26,2.1-.77,3.78-2.31,4.72-4.34h0c1.94-4.19.11-9.18-4.08-11.13l-.15-.07c-.24-.11-.43-.32-.52-.57-.09-.25-.08-.53.04-.77,6.33-13.36,4.66-27.55-4.16-35.33-9.8-8.64-26.37-7.38-39.39,3.02-.37.29-.89.29-1.25,0-1.52-1.23-3.39-1.85-5.26-1.85ZM173.11,134.65h0,0Z"/>
        </g>
        <path class="cls-3" d="M172.21,95.74c-1.25-4.63-3.63-8.72-7.19-11.86-10.76-9.49-28.71-7.27-42.97,4.32-.74-.59-1.56-1.05-2.42-1.39,12.09,11.8,32.17,15.04,52.59,8.93Z"/>
        <path class="cls-3" d="M146.76,103.2c-7.92,0-15.22-2.1-21.01-6.27-.45-.32-.55-.95-.23-1.4.32-.45.95-.55,1.4-.23,10.52,7.59,26.47,7.87,41.63.75.5-.23,1.1-.02,1.33.48.23.5.02,1.1-.48,1.33-7.58,3.56-15.37,5.33-22.64,5.33Z"/>
        <path class="cls-3" d="M156.7,105.56c-.45,0-.86-.31-.97-.76-.13-.54.2-1.08.74-1.21,5.31-1.29,10.24-4.07,14.64-8.28.4-.38,1.03-.37,1.41.03.38.4.37,1.03-.03,1.41-4.66,4.46-9.89,7.41-15.55,8.78-.08.02-.16.03-.24.03Z"/>
        <path class="cls-3" d="M161.31,132.64c-.18,0-.36-.05-.53-.15-.47-.29-.61-.91-.32-1.38,2.4-3.85,6.61-3.13,6.79-3.09.54.1.9.62.8,1.16-.1.54-.61.9-1.16.8-.14-.02-3.07-.48-4.73,2.19-.19.3-.52.47-.85.47Z"/>
        <path class="cls-3" d="M115.03,97.4c-.28,0-.56-.12-.75-.34-.36-.42-.32-1.04.09-1.41.11-.1,2.29-2.1,1.23-5.07-.19-.52.09-1.09.61-1.28.52-.18,1.09.09,1.28.61,1.52,4.28-1.66,7.12-1.8,7.24-.19.17-.42.25-.66.25Z"/>
        <path class="cls-2" d="M132.44,117.88c-2.76,0-5.4-.99-7.49-2.84-2.27-2-3.63-4.77-3.82-7.8-.19-3.02.81-5.94,2.81-8.21,4.14-4.69,11.32-5.14,16.01-1,2.27,2,3.63,4.77,3.82,7.8.19,3.02-.81,5.94-2.81,8.21h0c-2,2.27-4.77,3.63-7.8,3.82-.24.02-.48.02-.72.02ZM132.46,97.21c-2.59,0-5.17,1.07-7.01,3.16-1.65,1.87-2.47,4.27-2.32,6.76.16,2.49,1.27,4.77,3.14,6.42,1.87,1.65,4.27,2.48,6.76,2.32,2.49-.16,4.77-1.27,6.42-3.14h0c1.65-1.87,2.47-4.27,2.32-6.76-.16-2.49-1.27-4.77-3.14-6.42-1.77-1.56-3.98-2.33-6.17-2.33Z"/>
        <path class="cls-2" d="M150.64,133.92c-2.67,0-5.34-.93-7.5-2.83-4.69-4.14-5.14-11.32-1-16.01,4.14-4.69,11.32-5.14,16.01-1,4.69,4.14,5.14,11.32,1,16.01h0c-2.24,2.54-5.37,3.83-8.51,3.83ZM150.65,113.25c-2.59,0-5.17,1.07-7.01,3.16-3.41,3.86-3.04,9.78.83,13.18,3.86,3.41,9.78,3.04,13.18-.83h0c1.65-1.87,2.47-4.27,2.32-6.76-.16-2.49-1.27-4.77-3.14-6.42-1.77-1.56-3.98-2.33-6.17-2.33Z"/>
        <path class="cls-2" d="M141.62,116.99c-.23,0-.47-.08-.66-.25l-1.58-1.4c-.41-.37-.45-1-.09-1.41.37-.41,1-.45,1.41-.09l1.58,1.4c.41.37.45,1,.09,1.41-.2.22-.47.34-.75.34Z"/>
        <path class="cls-3" d="M131.68,106.82c-1.16,1.51-1.32,3.33-.35,4.07.96.74,2.68.11,3.84-1.4,1.16-1.51,1.32-3.33.35-4.07-.96-.74-2.68-.11-3.84,1.4Z"/>
        <path class="cls-3" d="M146.39,119.48c-1.26,1.43-1.54,3.23-.64,4.04.91.8,2.67.29,3.92-1.13,1.26-1.43,1.54-3.23.64-4.04s-2.67-.29-3.92,1.13Z"/>
        <path class="cls-3" d="M122.42,132.95c-.31,0-.61-.14-.8-.4-3.84-5.15-3.07-10.56-3.04-10.78.08-.55.6-.92,1.14-.84.55.08.92.59.84,1.14,0,.06-.66,4.83,2.66,9.29.33.44.24,1.07-.2,1.4-.18.13-.39.2-.6.2Z"/>
        <path class="cls-3" d="M134.09,127.38c-.77,0-1.54-.19-2.23-.57-.49-.26-.67-.87-.4-1.36.26-.49.87-.66,1.36-.4.67.37,1.44.43,2.16.17.72-.25,1.28-.78,1.58-1.49l2.84-6.8c.21-.51.8-.75,1.31-.54.51.21.75.8.54,1.31l-2.84,6.8c-.51,1.22-1.51,2.17-2.76,2.61-.5.18-1.03.26-1.55.26Z"/>
        <path class="cls-2" d="M174.23,93.24c-.38,0-.74-.22-.91-.59-.05-.1-4.7-10.03-18.85-15.7-.51-.21-.76-.79-.56-1.3.21-.51.78-.76,1.3-.56,14.94,5.99,19.74,16.3,19.93,16.74.23.5,0,1.09-.5,1.32-.13.06-.27.09-.41.09Z"/>
        <path class="cls-1" d="M96.71,115.94c-5.69-6.43-5.36-16.04.73-21.44l15.28-13.54c4.01-3.56,8.68-6.13,13.89-7.66l.56,1.92c-4.92,1.45-9.33,3.88-13.12,7.24l-15.28,13.54c-5.26,4.67-5.52,13.02-.56,18.62l-1.5,1.33Z"/>
      </g>
      <path class="cls-3" d="M67.94,186.81H28.03c-.55,0-1-.45-1-1s.45-1,1-1h39.91c.55,0,1,.45,1,1s-.45,1-1,1Z"/>
    </g>
  </g>
</svg>