<?xml version="1.0" encoding="UTF-8"?>
<svg id="Capa_2" data-name="Capa 2" xmlns="http://www.w3.org/2000/svg" viewBox="0 0 892.62 791.19">
  <defs>
    <style>
      .cls-1 {
        fill: #fff;
      }

      .cls-2 {
        fill: #abfb4f;
      }

      .cls-3 {
        fill: blue;
      }

      .cls-4 {
        fill: #0e0e27;
      }

      .cls-5 {
        fill: #010101;
      }

      .cls-6 {
        fill: #fffffd;
      }
    </style>
  </defs>
  <g id="Capa_1-2" data-name="Capa 1">
    <g>
      <g>
        <rect x="54.87" y="80.43" width="700.26" height="3.8"/>
        <g>
          <g>
            <polygon points="390.23 390.21 380.37 390.21 380.37 383.64 383.65 383.64 383.65 380.36 390.23 380.36 390.23 390.21"/>
            <path d="M367.08,390.21h-13.3v-6.58h13.3v6.58ZM340.49,390.21h-13.3v-6.58h13.3v6.58ZM313.9,390.21h-13.29v-6.58h13.29v6.58ZM287.31,390.21h-13.29v-6.58h13.29v6.58ZM260.72,390.21h-13.29v-6.58h13.29v6.58ZM234.15,390.21h-13.3v-6.58h13.3v6.58ZM207.56,390.21h-13.29v-6.58h13.29v6.58ZM180.97,390.21h-13.29v-6.58h13.29v6.58ZM154.39,390.21h-13.3v-6.58h13.3v6.58ZM127.8,390.21h-13.3v-6.58h13.3v6.58ZM101.21,390.21h-13.29v-6.58h13.29v6.58ZM74.62,390.21h-13.29v-6.58h13.29v6.58ZM48.05,390.21h-13.3v-6.58h13.3v6.58Z"/>
            <polygon points="21.45 390.21 11.6 390.21 11.6 380.36 18.18 380.36 18.18 383.64 21.45 383.64 21.45 390.21"/>
            <path d="M18.18,367.07h-6.58v-13.3h6.58v13.3ZM18.18,340.48h-6.58v-13.29h6.58v13.29ZM18.18,313.9h-6.58v-13.3h6.58v13.3ZM18.18,287.31h-6.58v-13.3h6.58v13.3ZM18.18,260.72h-6.58v-13.29h6.58v13.29ZM18.18,234.13h-6.58v-13.29h6.58v13.29ZM18.18,207.54h-6.58v-13.29h6.58v13.29ZM18.18,180.97h-6.58v-13.3h6.58v13.3ZM18.18,154.38h-6.58v-13.29h6.58v13.29ZM18.18,127.79h-6.58v-13.29h6.58v13.29ZM18.18,101.2h-6.58v-13.29h6.58v13.29ZM18.18,74.62h-6.58v-13.3h6.58v13.3ZM18.18,48.03h-6.58v-13.29h6.58v13.29Z"/>
            <polygon points="18.18 21.44 11.6 21.44 11.6 11.59 21.45 11.59 21.45 18.16 18.18 18.16 18.18 21.44"/>
            <path d="M367.08,18.16h-13.3v-6.58h13.3v6.58ZM340.49,18.16h-13.3v-6.58h13.3v6.58ZM313.9,18.16h-13.29v-6.58h13.29v6.58ZM287.33,18.16h-13.3v-6.58h13.3v6.58ZM260.74,18.16h-13.3v-6.58h13.3v6.58ZM234.15,18.16h-13.3v-6.58h13.3v6.58ZM207.56,18.16h-13.29v-6.58h13.29v6.58ZM180.97,18.16h-13.29v-6.58h13.29v6.58ZM154.39,18.16h-13.3v-6.58h13.3v6.58ZM127.8,18.16h-13.3v-6.58h13.3v6.58ZM101.21,18.16h-13.29v-6.58h13.29v6.58ZM74.62,18.16h-13.29v-6.58h13.29v6.58ZM48.05,18.16h-13.3v-6.58h13.3v6.58Z"/>
            <polygon points="390.23 21.44 383.65 21.44 383.65 18.16 380.37 18.16 380.37 11.59 390.23 11.59 390.23 21.44"/>
            <path d="M390.23,367.07h-6.58v-13.3h6.58v13.3ZM390.23,340.48h-6.58v-13.29h6.58v13.29ZM390.23,313.9h-6.58v-13.3h6.58v13.3ZM390.23,287.31h-6.58v-13.3h6.58v13.3ZM390.23,260.72h-6.58v-13.29h6.58v13.29ZM390.23,234.13h-6.58v-13.29h6.58v13.29ZM390.23,207.54h-6.58v-13.29h6.58v13.29ZM390.23,180.97h-6.58v-13.3h6.58v13.3ZM390.23,154.38h-6.58v-13.29h6.58v13.29ZM390.23,127.79h-6.58v-13.29h6.58v13.29ZM390.23,101.2h-6.58v-13.29h6.58v13.29ZM390.23,74.62h-6.58v-13.3h6.58v13.3ZM390.23,48.03h-6.58v-13.29h6.58v13.29Z"/>
          </g>
          <path class="cls-3" d="M205.41,239.97h-74.25l-28.85,71.52h28.11v6.29h-57.36v-6.29h17.62l95.61-227.45h30.75l94.47,227.45h17.26v6.29h-122.61v-6.29h26.63l-27.37-71.52ZM134.54,232.69h67.87l-32.62-86.76-35.25,86.76Z"/>
          <g>
            <rect x="1.9" y="373.95" width="25.97" height="25.97" transform="translate(401.81 372.05) rotate(90)"/>
            <path d="M29.76,401.81H0v-29.76h29.76v29.76ZM3.8,398.01h22.16v-22.15H3.8v22.15Z"/>
          </g>
          <g>
            <rect x="1.9" y="187.91" width="25.97" height="25.97" transform="translate(215.78 186.02) rotate(90)"/>
            <path d="M29.76,215.78H0v-29.76h29.76v29.76ZM3.8,211.99h22.16v-22.17H3.8v22.17Z"/>
          </g>
          <g>
            <rect x="1.9" y="1.89" width="25.96" height="25.97" transform="translate(29.75 0) rotate(90)"/>
            <path d="M29.76,29.76H0V0h29.76v29.76ZM3.8,25.96h22.16V3.8H3.8v22.15Z"/>
          </g>
          <g>
            <rect x="373.95" y="373.95" width="25.97" height="25.96" transform="translate(773.87 0) rotate(90)"/>
            <path d="M401.82,401.81h-29.77v-29.76h29.77v29.76ZM375.85,398.01h22.17v-22.15h-22.17v22.15Z"/>
          </g>
          <g>
            <rect x="373.95" y="187.92" width="25.97" height="25.96" transform="translate(587.84 -186.04) rotate(90)"/>
            <path d="M401.82,215.78h-29.77v-29.76h29.77v29.76ZM375.85,211.99h22.17v-22.17h-22.17v22.17Z"/>
          </g>
          <g>
            <rect x="373.96" y="1.89" width="25.96" height="25.96" transform="translate(401.81 -372.07) rotate(90)"/>
            <path d="M401.82,29.76h-29.77V0h29.77v29.76ZM375.85,25.96h22.17V3.8h-22.17v22.15Z"/>
          </g>
          <g>
            <rect x="187.93" y="1.89" width="25.96" height="25.97" transform="translate(215.79 -186.04) rotate(90)"/>
            <path d="M215.79,29.76h-29.76V0h29.76v29.76ZM189.82,25.96h22.17V3.8h-22.17v22.15Z"/>
          </g>
          <g>
            <rect x="187.93" y="373.95" width="25.97" height="25.97" transform="translate(587.84 186.02) rotate(90)"/>
            <path d="M215.79,401.81h-29.76v-29.76h29.76v29.76ZM189.82,398.01h22.17v-22.15h-22.17v22.15Z"/>
          </g>
        </g>
        <g>
          <g>
            <g>
              <path class="cls-6" d="M689.32,293.1c-31.85-56.89-35.44-108.06-35.81-115.9,46.18-26.52,52.03-82.03,52.71-92.51h1.78v98.99c-7.19,2.31-12.11,8.99-12.11,16.69,0,9.64,7.84,17.47,17.48,17.47s17.47-7.84,17.47-17.47c0-7.7-4.91-14.39-12.11-16.69v-98.99h1.77c.68,10.47,6.53,65.99,52.71,92.51-.37,7.84-3.95,59.02-35.8,115.9h-48.1Z"/>
              <path d="M706.24,99.16v83.28c-7.26,2.88-12.11,9.9-12.11,17.93,0,10.6,8.62,19.23,19.23,19.23s19.23-8.63,19.23-19.23c0-8.03-4.86-15.05-12.11-17.93v-83.28c3.78,21.22,15.39,58.11,50.92,79.03-.61,10.41-5,59.08-35.03,113.16h-46.03c-30.04-54.07-34.43-102.75-35.03-113.16,35.53-20.92,47.14-57.82,50.93-79.03h0ZM722.17,82.94h-5.19v102.08c6.97,1.66,12.11,7.83,12.11,15.36,0,8.68-7.04,15.72-15.72,15.72s-15.72-7.04-15.72-15.72c0-7.54,5.13-13.7,12.11-15.36v-102.08h-5.2s-1.34,64.46-52.85,93.26c0,0,.99,55.61,36.58,118.66h50.14c35.61-63.05,36.58-118.66,36.58-118.66-51.51-28.8-52.85-93.26-52.85-93.26h0Z"/>
            </g>
            <path d="M739.54,296.77h-52.37l-.55-.97c-35.42-62.75-36.82-118.99-36.82-119.55l-.03-1.14,1-.55c49.91-27.93,51.85-91.03,51.87-91.66l.03-1.87h8.96v105.5l-1.47.34c-6.26,1.48-10.64,7.04-10.64,13.51,0,7.62,6.19,13.81,13.82,13.81s13.81-6.19,13.81-13.81c0-6.47-4.38-12.03-10.64-13.51l-1.47-.34v-105.5h8.95l.04,1.87c.01.63,1.96,63.72,51.88,91.66l1,.55-.03,1.14c-.01.56-1.39,56.8-36.82,119.55l-.55.97ZM689.4,292.97h47.92c31.72-56.68,35.36-107.58,35.75-115.68-45.97-26.47-51.97-81.64-52.7-92.45h-1.5v98.76c7.2,2.36,12.11,9.06,12.11,16.79,0,9.71-7.91,17.61-17.61,17.61s-17.63-7.91-17.63-17.61c0-7.73,4.91-14.43,12.11-16.79v-98.76h-1.49c-.73,10.82-6.73,65.99-52.7,92.45.39,8.11,4.05,59.04,35.75,115.68Z"/>
          </g>
          <rect x="676.32" y="288.75" width="74.1" height="31.19"/>
        </g>
        <rect x="54.87" y="318.05" width="837.75" height="3.79"/>
      </g>
      <g>
        <g>
          <path class="cls-3" d="M414.14,531.71h5.9l1.81-12.62c-6.75-.54-13.05-3.76-17.5-9.06-4.89-5.81-7.04-13.49-5.9-21.06l5.83-39.22c4.76-32.05,31.23-55.29,62.91-55.29h338.39c18.56,0,36.16,8.27,48.25,22.65,12.12,14.41,17.45,33.44,14.66,52.21l-47.46,319.02h-467.14l34.87-234.33c1.92-12.92,12.59-22.3,25.37-22.3Z"/>
          <path class="cls-2" d="M261.46,681.7l.41,1.26,26.15,90.38.43,1.55c.56,0,.97,0,1.4.14.43,0,.99,0,1.4.15,17.86,1.4,40.07,2.8,62.71,3.36h2.8c31.78.56,64.24-.7,87.29-6.32,1.55-.43,2.95-.71,4.37-1.12.43-.15.84-.29,1.26-.43h.14c.43-.14.7-.29,1.12-.43.43-.14.85-.27,1.26-.43.29,0,.56-.14.85-.27,0,0,0,.14.14,0,4.5-1.55,8.43-3.24,11.81-5.34.14,0,.14-.14.29-.14.27-.15.7-.43.97-.71.43-.14.85-.41,1.13-.84.43-.14.85-.43,1.12-.7,1.83-1.12,3.51-2.54,5.2-3.94,8.72-7.3,16.87-17.01,24.46-28.11.56-.7.99-1.4,1.54-2.25.15-.14.15-.27.29-.43.27-.27.42-.7.7-1.11.43-.43.7-.99.99-1.55h.14v-.29c30.5-47.22,50.75-113.85,56.36-122.71,1.55-2.39,2.95-4.91,4.23-7.59.27-.43.41-.84.7-1.26.27-.42.41-.99.56-1.41,1.4-2.8,2.66-5.9,3.79-8.99.14-.42.29-.84.43-1.4.28-.43.43-.85.43-1.28,1.54-4.06,2.8-8.43,3.93-12.93,0-.41.14-.84.29-1.26.14-.41.14-.84.27-1.26,2.68-11.81,4.22-24.17,4.5-36.13.14-.98.14-2.1.14-3.09.43-31.9-7.45-59.88-23.9-61.84-.41-.15-.84-.15-1.4-.15s-.99,0-1.55.15c-1.54,0-3.09.27-4.64.84-1.54.43-2.95.99-4.35,1.4h-.14c-.56.29-1.13.43-1.69.56-19.82,6.47-30.93,10.69-46.81,19.96-24.46,14.48-42.31,47.94-60.3,88.28-.27.56-.56,1.12-.85,1.69-.14.56-.41,1.13-.7,1.69-2.39,5.34-4.78,10.97-7.17,16.58-.27.43-.42.99-.7,1.55-.14.43-.29.84-.56,1.26v.14c-.14.14-.14.42-.29.7-1.83,4.23-3.65,8.44-5.61,12.79-.14.42-.29.99-.56,1.41-.14.41-.29.84-.56,1.26-.99,2.53-2.11,4.91-3.09,7.45l-.15.14c-.27.56-.56,1.12-.7,1.69v.14c-.41.7-.7,1.26-.84,1.82l-.15.14c-3.36,8.02-7.03,16.03-10.68,24.04l-24.74,5.9-1.55.43-1.4.29-108.38,25.86-1.26.41-1.26.29Z"/>
          <g>
            <path class="cls-1" d="M596.92,356.73c12.09,35.28,33.86,71.45,37.97,78.09-23.08,24.42-48.14,28.1-61.12,28.1h-.01c-4.26,0-7.47-.39-9.23-.66,2.03-18.39-6.86-41.51-8.8-46.26l41.18-59.27Z"/>
            <path class="cls-5" d="M554.4,416.58c.27.71.7,1.83,1.26,3.24.14.56.43.99.56,1.54v.15c.27.41.43.97.56,1.4,1.13,3.24,2.39,7.32,3.65,11.96.56,2.8,1.26,5.75,1.83,8.85,0,.56.15.98.15,1.4.14.56.14.99.27,1.4.7,5.2.99,10.54.43,15.61,0,.7.41,1.4,1.26,1.55,1.55.27,4.91.7,9.42.7,11.24,0,32.06-2.81,52.58-19.69,3.23-2.53,6.33-5.48,9.55-8.85.43-.56.43-1.27.14-1.83-.84-1.26-3.51-5.77-7.17-12.51-.42-.43-.56-.85-.84-1.27-.29-.29-.43-.71-.71-1.12-3.52-6.33-7.87-14.21-12.22-23.2-.15-.43-.43-.84-.71-1.4-.27-.43-.41-.99-.7-1.41-5.2-10.95-10.54-23.05-14.76-35.01,0-.14,0-.27-.14-.41l-.15-.14c-.14-.42-.27-.85-.41-1.27,0-.14,0-.28-.15-.28-.14-.43-.55-.56-.97-.7h-.15c-.27,0-.7,0-.84.27-.14.14-.27.14-.43.29l-.28.41-.42.56-4.49,6.62-20.67,29.65-.99,1.41-.98,1.4-13.36,19.26c-.27.43-.27.99-.14,1.4ZM557.36,416.17l14.06-20.25.97-1.4.99-1.41,16.31-23.34,6.19-8.86.7-1.12c.27.99.7,1.83.99,2.81.55,1.41,1.11,2.95,1.54,4.36,3.51,8.99,7.59,17.85,11.53,26.14.14.43.41.99.7,1.41.14.41.43.98.56,1.4,4.78,9.56,9.42,18.13,13.07,24.89.29.41.56.7.71,1.11.27.43.55.85.7,1.28,3.09,5.48,5.48,9.42,6.74,11.38-8.15,8.43-16.58,14.35-24.6,18.41-.27.15-.56.29-.7.43-4.22,2.11-8.15,3.65-11.94,4.78-2.4.71-4.64,1.28-6.76,1.69-6.04,1.42-11.38,1.69-15.32,1.69-3.38,0-6.04-.27-7.73-.56.41-4.78.14-9.84-.71-14.76,0-.43,0-.99-.14-1.55,0-.41-.14-.84-.27-1.26-1.26-8.15-3.51-15.88-5.34-21.22-.15-.56-.43-.99-.56-1.55-.14-.56-.42-1.12-.56-1.69-.43-1.13-.85-2.1-1.12-2.8Z"/>
          </g>
          <path class="cls-1" d="M507.64,603.2c-4.01-37.24,7.33-86.26,29.49-113.94,18.06-22.58,19.16-43.53,19.16-43.53,0,0,43.75-.91,82.32-33.36,3.71,4.68,16.01,19.99,22.91,26.03,104.47,91.36,99.03,328.38,98.29,349.94h-271.26c3.6-15.62,26-120.7,19.1-185.14Z"/>
          <g>
            <path class="cls-5" d="M793.22,737.92c5.11,10.53,14.73,46.92-20.04,30.5-34.76-16.43-130.15-67.73-115.95-108.17,14.18-40.43,121.49,47.89,136,77.67Z"/>
            <path class="cls-5" d="M654.34,669.04c.15,19.4,20.25,39.78,44.01,57.35.55.29.97.7,1.4,1.13.56.29,1.12.56,1.55.99,20.1,14.48,42.45,26.7,57.49,34.44.43.14.84.41,1.26.56.56.27.99.56,1.4.84,4.64,2.25,8.58,4.08,11.1,5.34,6.05,2.81,11.26,4.36,15.32,4.36,3.51,0,6.19-1.12,8.3-3.1,1.26-1.26,2.1-2.66,2.53-4.49l.14-.15c0-.14.29-1.26.85-3.51.14-2.1.14-4.22,0-6.47v-.14c-.15-1.4-.29-2.66-.56-3.94-.99-5.9-2.95-11.66-4.64-14.89-4.78-9.7-18.7-25.16-35.99-40.48-.56-.56-1.12-.99-1.69-1.41l-1.26-1.26c-2.25-1.83-4.49-3.79-6.74-5.62-.42-.43-.99-.7-1.41-1.12-.41-.29-.84-.7-1.26-.99-1.26-1.13-2.53-2.1-3.79-3.09-21.37-16.73-44.98-30.93-62.28-34.3-.7-.14-1.54-.28-2.25-.28-.84-.14-1.68-.29-2.53-.29-.84-.14-1.54-.14-2.39-.14-.56,0-.99,0-1.54.14-2.97.15-5.49.85-7.61,1.83,0,0-.14.15-.27.29-.99.43-1.96,1.13-2.81,1.83v.14c-1.26.99-2.25,2.25-3.09,3.8-.7.97-1.26,2.1-1.69,3.38-.56,1.54-.84,3.09-1.13,4.63-.14.71-.27,1.55-.27,2.4-.15.7-.15,1.4-.15,2.24ZM701.44,724.85c-24.6-17.86-45.68-38.94-44.13-58.05,0-.71.14-1.41.14-2.25.27-.85.41-1.83.84-2.81,0-.29.14-.7.29-.99.41-1.26.97-2.53,1.68-3.51.29-.56.71-.98,1.27-1.4.27-.56.84-1.13,1.4-1.55,2.25-1.83,5.07-2.81,8.58-2.95,0,0,0,.14.14,0,.56-.14.84-.14,1.4-.14h1.55c.7.14,1.55.14,2.39.27,17.86,2.25,44.42,18.85,67.76,37.39.43.43.84.85,1.26,1.12.43.42.84.7,1.26,1.13,2.95,2.39,5.77,4.78,8.58,7.32.41.41.97.84,1.4,1.11.56.56,1.13,1.12,1.69,1.55,16.02,14.34,28.67,28.54,33.03,37.39,2.54,5.48,5.77,16.17,4.93,23.9-.14.56-.14,1.26-.43,1.83,0,.56-.27,1.26-.56,1.83-.27,1.12-.99,2.11-1.69,2.95-3.51,3.52-10.54,2.81-20.39-1.83-1.96-.99-6.46-3.09-12.37-6.04-.56-.29-.98-.56-1.54-.85-.43-.14-.85-.43-1.28-.7-14.06-7.17-35.14-18.97-54.39-32.62-.56-.27-.99-.56-1.41-1.12-.43-.14-.98-.56-1.4-.98Z"/>
          </g>
          <g>
            <path class="cls-1" d="M453.63,727.17c.86,0,1.84.19,2.9.56,2.34.82,4.85,1.22,7.66,1.22,4.38,0,8.77-.99,12.66-1.87,3.25-.74,6.33-1.43,8.84-1.43,1.68,0,2.99.32,4,.96,1.52.99,2.13,2.94,1.51,4.97-1.21,3.98-7,8.24-19.64,8.24-.92,0-1.88-.03-2.88-.08-13.55-.63-18.46-6.36-18.37-9.83.03-1.71,1.28-2.75,3.34-2.75Z"/>
            <path d="M460.78,736.94l.43,1.69c.41.14.97.29,1.4.29l-.43-1.69c-.56-.14-.97-.14-1.4-.29ZM460.22,740.17c.43.14.84.27,1.4.27.43.15.85.29,1.42.29.84.27,1.96.41,2.95.41.7.15,1.4.29,2.1.29h3.51c18.99,0,23.34-9.28,20.81-14.19-.43-.7-.85-1.26-1.55-1.69,0-.14-.14-.14-.27-.29-.85-.56-1.83-.98-2.81-.98-.7-.29-1.4-.29-2.12-.29-5.75,0-13.63,3.24-21.5,3.24-1.69,0-3.24-.15-4.78-.56-.56,0-.99-.14-1.41-.42-.28,0-.56,0-.84-.14-.14,0-.43-.14-.56-.14-1.13-.29-2.12-.43-2.95-.43-7.45,0-7.59,10.82,6.6,14.62ZM451.93,729.91c0-.27,0-1.13,1.69-1.13.7,0,1.54.15,2.39.56.41.15.84.29,1.4.42h.14c.43.14.85.29,1.42.29.43.14.84.27,1.4.27,1.26.14,2.54.27,3.8.27,4.64,0,9.13-.97,13.07-1.96.43-.14.85-.14,1.26-.28,1.55-.29,2.95-.56,4.22-.71,1.12-.14,2.11-.28,2.95-.28.99,0,1.69,0,2.25.28.29,0,.56.15.85.29.84.7,1.26,1.83.84,3.23-.98,3.1-5.9,6.75-16.45,7.03h-2.1c-.85,0-1.55,0-2.25-.14-2.54-.14-4.78-.43-6.62-.84-.56-.14-.97-.14-1.4-.29h-.14c-.56-.27-.99-.41-1.41-.56-5.34-1.83-7.3-4.78-7.3-6.46Z"/>
          </g>
          <g>
            <path class="cls-1" d="M493.51,725.38c8.08,0,17.37,2.46,27.17,5.05,10.01,2.66,20.36,5.41,29.64,5.41,6.11,0,11.17-1.18,15.48-3.58,21.76-12.13,128.79-96.65,133.34-100.25,3.62-2.09,7.78-3.21,12.19-3.21,12.18,0,25.44,8.68,33.76,22.08,7.36,11.86,8.81,24.59,3.9,34.07-20.96,40.48-87.74,59.34-131.92,71.83-12.35,3.5-23.02,6.51-29.76,9.25-11.06,4.53-15.37,5.38-19.44,5.38-1.24,0-2.44-.07-3.8-.17-1.77-.11-3.76-.25-6.33-.25-18.72,0-27.08-4.24-32.08-6.77-2.36-1.2-4.05-2.06-5.89-2.06-2.18,0-4.03,1.17-6.38,4.05-1.87,2.28-8.81,6.1-34.52,6.1-14.61,0-29.56-1.24-35.82-1.83,5.04-6.22,19.37-23.67,34.61-39.34,3.75-3.89,8.95-5.77,15.87-5.77Z"/>
            <path d="M449.12,763.08l.42,2.12c.28-.43.7-.85,1.13-1.28v-.14c3.36-3.94,7.44-8.86,12.08-14.06.29-.43.7-.84.99-1.26.42-.29.7-.7.99-1.13h.14c1.69-1.96,3.52-3.94,5.34-5.9.43-.43.85-.99,1.4-1.55.42-.56.99-1.13,1.55-1.69,1.83-1.96,3.65-3.93,5.63-5.9,2.39-2.53,5.34-4.08,9.13-4.64.71-.28,1.55-.28,2.39-.41.56,0,1.26-.15,2.11,0,.28-.15.7-.15,1.13-.15,1.4,0,2.95.15,4.5.29h.41c.42,0,.85.14,1.26.14h.29c.27.14.7.14,1.12.29h.14v-.15c.14-.56.29-.98.29-1.54-.29-.14-.56-.14-.85-.14-.14,0-.27-.15-.56,0,.14-.56.29-1.13.29-1.84h-1.41c-1.83-.27-3.65-.41-5.48-.41-1.98,0-3.94.14-5.76.56-1.96.28-3.79.84-5.48,1.69-1.41.56-2.68,1.26-3.8,2.39-.7.41-1.4.98-2.1,1.69l-7.59,8c-.42.56-.99.99-1.41,1.55-.56.56-.98,1.13-1.4,1.54-.85.85-1.55,1.69-2.25,2.4-.29.41-.7.84-.99,1.11-.27.42-.7.71-.98,1.12h-.15c-4.49,5.2-8.56,9.98-12.08,14.06v.15l.56,1.96c-.43.43-.71.84-.99,1.12ZM439.84,771.8s1.55.14,4.21.43c.99.14,2.4.28,3.8.41.84,0,1.54,0,2.39.14h.14c.43,0,.85.15,1.26.15h1.42v.14c4.64.27,10.12.56,16.02.84h2.68c2.39.15,4.64.15,7.03.15,3.79,0,7.73-.15,11.38-.29.56,0,.99-.14,1.55-.14h1.4c10.27-.85,18.56-2.68,21.51-6.33,2.12-2.53,3.52-3.51,5.2-3.51,4.78,0,10.68,8.85,37.96,8.85,4.49,0,7.17.43,10.12.43,4.22,0,8.86-.99,20.1-5.48,9.57-4.08,27.14-8.44,47.51-14.35.42-.27.85-.27,1.26-.43.43-.14.85-.27,1.27-.41,20.37-6.05,43.01-13.64,63.26-23.9.41-.29.98-.56,1.54-.7.43-.29.99-.56,1.41-.85,14.62-7.73,27.69-16.87,37.24-27.98.29-.41.7-.84.99-1.26.42-.41.7-.84.99-1.26,1.4-1.69,2.66-3.51,3.79-5.34.29-.43.56-.84.7-1.13.43-.43.71-.99.85-1.4.7-.99,1.13-1.98,1.69-2.95,1.96-3.8,2.95-7.88,3.09-11.96.14-3.36-.29-6.74-1.26-10.25-4.78-18.56-23.06-36.27-41.04-36.27-4.5,0-9,1.13-13.22,3.52,0,0-9.13,7.17-22.77,17.84-.56.43-1.13.85-1.69,1.26-.7.56-1.26,1.12-1.96,1.55-.14.14-.14,0-.14,0-1.26,1.12-2.68,2.25-4.08,3.24-.56.56-1.12.97-1.83,1.4-.56.56-1.12.99-1.69,1.4-1.83,1.41-3.66,2.81-5.63,4.37-.56.43-1.26.99-1.83,1.4l-.14.15c-.56.41-.99.84-1.55,1.11-10.97,8.58-22.91,17.86-34.58,26.57-.43.27-.7.56-1.13.84-.41.29-.7.56-1.13.85-23.18,17.71-44.56,33.32-52.99,38.09-4.37,2.53-9.28,3.36-14.62,3.36-14.62,0-32.05-6.88-47.1-9.42-.41-.14-.97-.27-1.4-.27h-.14c-.43-.14-.85-.14-1.26-.29h-1.41c-1.83-.27-3.65-.41-5.48-.41-1.98,0-3.94.14-5.76.56-1.96.28-3.79.84-5.48,1.69-1.41.56-2.68,1.26-3.8,2.39-.7.41-1.4.98-2.1,1.69l-7.59,8c-.42.56-.99.99-1.41,1.55-.56.56-.98,1.13-1.4,1.54-.85.85-1.55,1.69-2.25,2.4-.29.41-.7.84-.99,1.11-.27.42-.7.71-.98,1.12h-.15c-4.49,5.2-8.56,9.98-12.08,14.06v.15c-.29.41-.7.84-.99,1.13-.27.41-.56.84-.99,1.11v.15c-4.21,5.05-7.03,8.43-7.59,9.28l-.14.14ZM446.3,769.13c.7-.84,1.42-1.83,2.25-2.81.43-.41.7-.7.99-1.11.28-.43.7-.85,1.13-1.28v-.14c3.36-3.94,7.44-8.86,12.08-14.06.29-.43.7-.84.99-1.26.42-.29.7-.7.99-1.13h.14c1.69-1.96,3.52-3.94,5.34-5.9.43-.43.85-.99,1.4-1.55.42-.56.99-1.13,1.55-1.69,1.83-1.96,3.65-3.93,5.63-5.9,2.39-2.53,5.34-4.08,9.13-4.64.71-.28,1.55-.28,2.39-.41.56,0,1.26-.15,2.11,0,.28-.15.7-.15,1.13-.15,1.4,0,2.95.15,4.5.29h.41c.42,0,.85.14,1.26.14h.29c.27.14.7.14,1.12.29h.14c5.9.84,12.37,2.53,18.98,4.21,10.12,2.66,20.51,5.48,30.08,5.48,6.47,0,11.67-1.26,16.31-3.79,8.43-4.64,29.38-20.11,52.29-37.53.43-.29.84-.56,1.13-.85.43-.27.84-.56,1.13-.97,11.1-8.15,22.49-17.01,33.16-25.31.43-.27.99-.7,1.41-.97.56-.43.97-.85,1.55-1.26,4.06-3.1,8-6.19,11.81-9.14.56-.43.97-.7,1.54-1.13.56-.43,1.12-.99,1.69-1.4,1.55-1.28,3.24-2.39,4.64-3.67.56-.41,1.12-.7,1.55-1.12.56-.41,1.12-.84,1.54-1.26,10.83-8.29,18.28-14.33,19.96-15.6,3.51-1.98,7.32-3.1,11.25-3.1,11.52,0,24.45,8.58,32.33,21.37,7.03,11.38,8.58,23.47,3.94,32.47-.42.85-.85,1.55-1.41,2.25-.14.43-.27.85-.7,1.26-.14.43-.27.7-.7,1.13-.99,1.82-2.25,3.51-3.66,5.2-.27.43-.55.85-1.11,1.26-.15.43-.56.85-.99,1.26-9.42,11.26-22.64,20.52-37.53,28.26-.56.27-.99.56-1.55.84-.56.29-.99.43-1.54.7-19.41,9.71-41.33,17.01-61.29,22.91-.43.15-.84.29-1.26.43-.43.14-.85.29-1.26.43-6.33,1.83-12.37,3.51-18,5.05-12.37,3.51-23.06,6.48-29.94,9.28-10.69,4.37-15.05,5.2-18.7,5.2-1.26,0-2.39,0-3.8-.14-1.68-.14-3.79-.29-6.32-.29-18.42,0-26.58-4.06-31.35-6.46-2.53-1.26-4.35-2.24-6.6-2.24-3.51,0-5.9,2.24-7.73,4.64-1.12,1.26-4.79,3.79-18.28,4.91-.41,0-.97.14-1.4.14h-1.4c-3.24.29-7.03.43-11.53.43h-3.65c-1.69,0-3.24-.14-4.93-.14h-2.81c-1.4-.15-2.8-.15-4.22-.29-1.26,0-2.39-.14-3.51-.14-1.26-.14-2.53-.14-3.79-.29h-.15c-1.11,0-2.24-.14-3.23-.27-.14.14-.14,0-.14,0h-.99c-.43,0-.84,0-1.26-.14h-1.42c-.14,0-.41-.15-.55,0-.85-.15-1.69-.29-2.54-.29Z"/>
          </g>
          <g>
            <path class="cls-1" d="M502.91,270.67c8.51-1.98,16.52-2.98,23.82-2.98,45.63,0,52.21,38.04,52.47,39.66l.29,1.73,1.73-.37c1.52-.32,3.01-.48,4.44-.48,10.17,0,17.46,8.2,19.04,21.37,1.33,11.26-7.86,17.02-7.96,17.08l-1,.61.23,1.12c5.52,27.35-3.36,45.14-11.78,55.25-9.43,11.34-23.53,18.66-35.92,18.66-1.66,0-3.28-.12-4.8-.4-24.81-4.35-41.11-12.81-48.44-25.09-4.05-6.82-9.51-19.84-14.8-32.41-4.9-11.69-9.98-23.79-14.06-31.23-4.24-7.76-10.45-22.88-4.09-36.8,5.49-12.07,19.23-20.72,40.85-25.71Z"/>
            <path d="M464.72,333.93c7.59,13.78,18.54,43.72,26.42,59.18.14.56.41.99.7,1.41.29.41.43.98.7,1.4.42.56.7,1.13.99,1.69,7.86,13.36,25.59,21.79,49.62,26,1.69.29,3.36.42,5.05.42,2.81,0,5.63-.27,8.58-1.13.27,0,.56,0,.84-.14.15,0,.42-.14.56-.29.43,0,.99-.14,1.41-.27,11.24-3.38,22.91-11.53,30.5-24.17.56-.71.98-1.42,1.26-2.12.28-.43.56-.99.7-1.4.42-.43.56-.85.7-1.41,3.8-7.44,6.19-16.16,6.33-26.14.14-1.12.14-2.39.14-3.66v-.14c0-1.69-.14-3.38-.27-5.07,0-.14,0-.27-.14-.41.14-.56,0-.99,0-1.55,0-.42-.15-.99-.15-1.4-.27-2.11-.7-4.36-1.11-6.61,0,0,10.25-6.32,8.85-18.69-.15-.71-.15-1.41-.29-1.98-.14-.99-.43-1.96-.56-2.81q0-.14-.14-.28c-1.26-4.93-3.51-8.99-6.46-11.95-.29-.55-.7-.84-1.13-1.11-3.24-3.1-7.45-4.79-12.23-4.79-1.55,0-3.09.29-4.78.56,0,0-.14,0-.14-.14-.15-1.4-1.98-10.41-8.58-19.67-.27-.43-.56-.85-.84-1.28-.29-.41-.56-.7-.85-1.12-7.87-9.69-21.22-18.84-43.72-18.84-7.17,0-15.17.85-24.17,2.95-56.93,13.22-46.95,48.5-37.8,64.94ZM467.11,331.4c-3.94-7.59-9.28-21.65-3.52-34.3,5.2-11.67,18.55-19.96,39.63-24.87,8.44-1.98,16.31-2.81,23.47-2.81,21.8,0,34.44,8.99,41.62,18.27.41.43.7.7.84,1.13.42.43.7.85.83,1.26.56.71,1.13,1.41,1.42,2.12,0,.14,0,.27.14.42,4.78,7.59,5.9,14.33,6.04,15.03l.43,3.38,3.51-.7c1.4-.29,2.81-.43,4.08-.43,11.11,0,16.31,10.27,17.43,19.96,1.12,10.13-6.89,15.18-7.17,15.47l-1.98,1.13.43,2.24c.14.99.43,1.84.43,2.81.27.85.41,1.69.41,2.54.15.41.15.97.15,1.4.14.27.14.56.14.84.14.29.14.56.14.71,0,.56.14.98.14,1.4,0,.84.15,1.69.15,2.53.7,13.08-2.12,23.47-6.19,31.35-.14.27-.27.56-.42.84-.27.56-.56.99-.84,1.41-.14.56-.43.98-.7,1.4-1.55,2.53-3.24,4.78-4.79,6.75-6.6,7.87-15.46,13.77-24.45,16.3-.43.29-.85.42-1.41.42-.41.14-.84.29-1.4.43-2.53.56-5.07.84-7.45.84-1.54,0-3.09-.14-4.49-.41-24.32-4.23-40.21-12.38-47.24-24.32-.29-.43-.56-.84-.84-1.4-.29-.43-.43-.85-.71-1.41-3.79-7.03-8.57-18.27-13.21-29.38-4.93-11.67-9.98-23.75-14.06-31.34-.14-.29-.29-.56-.56-.99Z"/>
          </g>
          <path d="M513.91,327.55c.56-.21,13.78-5.26,28.39,1.43.78.36,1.13,1.27.76,2.04-.26.58-.82.91-1.41.91-.22,0-.45-.04-.66-.14-13.4-6.12-25.78-1.4-25.9-1.34-.83.3-1.72-.1-2.05-.88-.32-.78.08-1.7.88-2.02Z"/>
          <path d="M493.62,338.71c2.94-.62,3.21-2.75,3.24-2.99.07-.84.81-1.54,1.68-1.43.86.07,1.51.78,1.46,1.63-.1,1.61-1.4,4.91-5.71,5.82-5,1.04-8.65,3.75-10.87,8.05-.27.53-.84.85-1.4.85-.25,0-.49-.05-.71-.18-.78-.4-1.08-1.32-.7-2.07,2.69-5.17,7.08-8.43,13.03-9.68Z"/>
          <path d="M543.27,376.21c.37-1.22.01-1.81,0-1.84-.52-.69-.37-1.62.3-2.14.7-.52,1.71-.36,2.24.32.12.15,1.21,1.65.56,4.19-1.36,5.4-9.24,11.33-23.39,17.65-.21.1-.43.14-.64.14-.59,0-1.18-.33-1.44-.89-.34-.8,0-1.7.8-2.07,16.97-7.58,20.8-12.86,21.58-15.35Z"/>
          <path d="M509.65,364.02c2.25-1.58,5.59-1.47,9.93.33.8.36,1.17,1.25.84,2.03-.34.8-1.26,1.15-2.06.83-3.17-1.3-5.61-1.55-6.88-.67-1.4.99-1.29,3.22-1.29,3.25.07.86-.59,1.59-1.46,1.63-.04.01-.11.01-.11.01-.81,0-1.5-.62-1.55-1.44-.01-.15-.25-3.97,2.58-5.97Z"/>
          <path d="M443.01,264.11s40.04-82.24,125.56-63.32c72.38,16.01,89.91,136.49,89.91,156.29,0,38.59,28.73,35.54,28.73,35.54-16.02,39.97-99.1,68.5-99.1,68.5,14.47-16.16-11.06-95.03,9.49-113.02,9.77-8.54,16.8-41.4-16.75-41-.48.01-9.71-17.87-10.17-17.87-.93.03,6.92,17.93,6.03,17.95-29.99.83-36.55,6.38-36.55,6.38-8.21-6.89-23.39-13.33-23.39-13.33,5.97,7.39,14.26,14.61,14.26,14.61l-14.87,2.77c-20.92-11.2-32.36-28.38-32.36-28.38-3.44,20.98,7.59,34.84,7.59,34.84-22.59-1.65-25.24,9.12-25.24,9.12,0,0,22.69,61.22,34.59,72.05,20.01,18.19,56.46,16.27,56.46,16.27l4.03,12.81c-57.96,41.58-103.71,33.56-103.71,33.56,34.62-9.32,15.02-72.11,4.83-114.43-5.68-23.57-34.11-52.93-19.35-89.34Z"/>
          <path d="M533,336.77c2.28-.04,4.13,1.51,4.17,3.45.05,1.96-1.76,3.58-4.02,3.62-2.26.05-4.13-1.51-4.17-3.44-.05-1.96,1.76-3.58,4.02-3.62Z"/>
          <path d="M497.52,349.59c2.28-.05,4.15,1.5,4.19,3.44.04,1.95-1.77,3.57-4.04,3.64-2.26.03-4.13-1.51-4.19-3.46-.03-1.96,1.76-3.57,4.03-3.62Z"/>
          <path class="cls-2" d="M597.76,269.91c2.85-.56,5.75-.84,8.63-.84,21.18,0,39.52,14.91,43.6,35.42,2.29,11.52-.1,23.2-6.73,32.93-6.61,9.73-16.69,16.32-28.35,18.59-2.84.55-5.75.83-8.63.83-21.17,0-39.51-14.89-43.58-35.4-4.74-23.75,11-46.85,35.06-51.52Z"/>
          <path class="cls-1" d="M613.12,283.08c.92-.16,1.85-.25,2.76-.25,9.75,0,19.01,9.69,21.58,22.55,2.86,14.33-3.42,27.66-13.97,29.71-.92.18-1.84.26-2.76.26-9.75,0-19.03-9.69-21.59-22.55-2.84-14.33,3.42-27.66,13.99-29.72Z"/>
          <path d="M614.21,288.73c6.62-1.29,13.3,4.28,14.92,12.45,1.63,8.15-2.42,15.81-9.05,17.08-6.6,1.29-13.29-4.28-14.92-12.45-1.61-8.14,2.44-15.8,9.05-17.08Z"/>
          <g>
            <path class="cls-1" d="M524.57,221.5c3.86,0,7.63.26,11.27.8,41.1,6,84.04,69.8,85.84,72.49,1.4,2.1.81,4.91-1.3,6.29-.75.49-1.63.75-2.54.75-1.54,0-2.98-.77-3.83-2.05-1.74-2.58-42.86-63.16-79.52-68.51-2.65-.39-5.45-.59-8.33-.59-33.82,0-73.44,26.79-77.86,29.84-1.29.86-1.9,2.68-2.51,4.61-.19.59-.47,1.47-.73,2.05-.54-.47-1.55-1.47-2.05-3.07-.88-2.75.08-6.25,2.77-10.15,5.77-8.35,41.83-32.47,78.79-32.47Z"/>
            <path class="cls-5" d="M441.66,264.5c.15.56.43.98.7,1.4.43.84.99,1.69,1.84,2.39.27.29.7.43,1.13.29.41-.15.84-.42.97-.85.29-.56.56-1.26.7-1.96.56-1.69,1.12-3.51,2.11-4.08,4.37-3.09,43.86-29.66,77.04-29.66,2.8,0,5.48.29,8.15.7,19.11,2.81,39.77,21.24,55.1,38.09.27.43.55.85.97,1.12.29.43.7.85.99,1.13,5.07,5.76,9.42,11.1,12.79,15.61,1.26,1.55,2.39,3.09,3.36,4.35,3.1,4.23,5.07,7.03,5.35,7.59,1.13,1.69,2.95,2.68,4.91,2.68,1.26,0,2.39-.42,3.38-.99,1.26-.97,2.25-2.25,2.53-3.79.29-1.55,0-3.24-.84-4.5-.56-.84-1.69-2.53-3.24-4.78-1.4-1.69-2.95-3.94-4.78-6.33-2.81-3.65-6.19-7.86-9.98-12.51-.28-.42-.7-.85-.99-1.13-.28-.43-.7-.85-1.13-1.26-16.72-19.55-41.88-43.45-66.77-47.1-3.65-.56-7.44-.84-11.38-.84-26.15,0-51.72,11.94-66.91,22.06-6.61,4.37-11.24,8.44-13.08,10.97-2.95,4.37-3.93,8.29-2.95,11.39ZM444.05,262.11c0-1.98.99-4.5,2.81-7.32.99-1.26,2.68-3.09,5.07-4.91,12.09-10.27,42.03-26.99,72.67-26.99,3.79,0,7.59.27,11.11.84,23.2,3.38,47.08,25.59,63.68,44.56.27.43.56.7.97,1.13.29.43.71.84,1.13,1.26,3.94,4.64,7.32,9.01,10.27,12.79,1.4,1.83,2.66,3.51,3.79,5.07,2.53,3.36,4.21,5.9,4.93,7.03.56.7.7,1.54.56,2.39-.29.84-.71,1.54-1.41,1.96-1.4.85-3.51.56-4.49-.84-.85-1.13-2.81-4.08-5.63-7.88-.99-1.4-2.11-2.95-3.38-4.49-3.23-4.37-7.3-9.43-11.94-14.62-.29-.43-.56-.85-.99-1.12-.27-.29-.56-.71-.84-.99v-.14c-15.74-17.57-37.25-36.97-57.64-39.92-35.28-5.35-82.37,26.13-87.29,29.51-1.55.99-2.25,2.95-2.81,4.91-.14-.27-.27-.41-.27-.7-.14-.56-.29-.98-.29-1.54Z"/>
          </g>
          <path class="cls-2" d="M697.76,618.74s-5.2-9.72-15.91-40.25c-28.88-82.31-14.89-137.45-14.89-137.45,0,0,6.22,10.23,48.88,19.52,42.65,9.29,66.05,18.83,90.37,96.39,24.31,77.56-8.69,208.98-8.69,208.98,0,0-68.91-113.21-138.8-110.13,0,0,22.35-40.02,39.04-37.06Z"/>
          <path d="M541.52,465.16c.85.18,1.76-.82,1.56.01-.07.34-7.62,34.26,7.33,50.83,6.48,7.18,16.4,10.13,29.51,8.73,52.43-5.53,86.39-76.31,86.74-77.04.36-.77,1.32-1.11,2.07-.74.8.36,1.14,1.29.77,2.06-1.4,2.98-35.05,73.08-89.26,78.81-2.22.23-4.35.36-6.41.36-11.05,0-19.71-3.39-25.78-10.13-16.05-17.75-8.39-52.11-8.06-53.56.21-.84.63.47,1.51.67Z"/>
          <g>
            <path d="M558.91,504.09c.75.41,1.02,1.37.63,2.11-.3.49-.84.78-1.39.78-.26,0-.55-.04-.76-.17-.78-.43-1.04-1.36-.63-2.11.42-.74,1.34-1.03,2.14-.62Z"/>
            <path d="M579.48,507.53c.84-.08,1.58.58,1.68,1.44.04.82-.59,1.58-1.51,1.66h-.04c-.85,0-1.55-.62-1.61-1.46-.04-.86.59-1.56,1.48-1.65Z"/>
            <path d="M568.79,507.24c.89.12,1.47.91,1.34,1.73-.12.8-.8,1.32-1.55,1.32h-.25c-.84-.11-1.47-.9-1.3-1.77.12-.83.92-1.4,1.76-1.28Z"/>
            <path d="M563.67,506.08c.84.25,1.3,1.11,1.02,1.94-.2.67-.8,1.07-1.45,1.07-.18,0-.34,0-.51-.07-.81-.26-1.25-1.12-1-1.91.25-.82,1.13-1.28,1.95-1.03Z"/>
            <path d="M574.12,507.69c.84,0,1.55.7,1.51,1.58,0,.83-.73,1.47-1.61,1.47s-1.55-.7-1.55-1.57c.04-.86.77-1.52,1.65-1.48Z"/>
            <path d="M595.35,504.59c.85-.25,1.73.22,1.98,1.03.25.78-.22,1.66-1.06,1.91-.17.08-.3.08-.45.08-.67,0-1.3-.41-1.51-1.11-.25-.84.21-1.66,1.05-1.91Z"/>
            <path d="M590.12,505.9c.86-.15,1.71.39,1.88,1.21.21.82-.33,1.65-1.18,1.85-.11,0-.2.05-.33.05-.7,0-1.39-.51-1.55-1.25-.17-.83.33-1.65,1.18-1.87Z"/>
            <path d="M584.84,506.91c.84-.12,1.63.45,1.76,1.32.12.82-.47,1.66-1.3,1.78h-.25c-.75,0-1.41-.55-1.51-1.32-.16-.84.42-1.62,1.3-1.78Z"/>
            <path d="M554.64,501.21c.66.52.75,1.52.16,2.18-.29.33-.75.49-1.18.49-.37,0-.74-.12-1.05-.37-.63-.53-.71-1.52-.12-2.18.55-.63,1.55-.71,2.18-.12Z"/>
            <path d="M551.16,497.43c.49.67.39,1.66-.34,2.16-.29.2-.58.33-.92.33-.49,0-.96-.2-1.26-.62-.54-.7-.37-1.65.3-2.18.71-.51,1.69-.39,2.22.31Z"/>
            <path d="M600.5,502.86c.8-.29,1.71.08,2.02.9.29.78-.12,1.7-.92,1.99-.18.08-.38.11-.55.11-.63,0-1.26-.4-1.47-1.03-.34-.78.08-1.69.92-1.98Z"/>
            <path d="M548.47,493.01c.37.8.04,1.7-.75,2.07-.21.12-.47.17-.67.17-.58,0-1.13-.33-1.42-.86-.38-.78-.04-1.69.74-2.07.77-.37,1.73-.04,2.1.7Z"/>
            <path d="M544.62,487.15c.8-.25,1.69.21,1.94,1.03.25.84-.22,1.7-1.06,1.95-.11.04-.29.04-.43.04-.7,0-1.33-.43-1.5-1.07-.26-.84.2-1.7,1.04-1.95Z"/>
            <path d="M642.48,475.29c.63.58.63,1.58.04,2.2-.29.33-.71.49-1.12.49-.39,0-.76-.17-1.1-.41-.62-.62-.67-1.56-.03-2.19.59-.66,1.58-.66,2.21-.08Z"/>
            <path d="M649.63,467.04c.69.54.81,1.48.26,2.18-.33.37-.8.53-1.21.53-.39,0-.71-.12-1.02-.33-.66-.54-.8-1.54-.25-2.18.55-.67,1.55-.76,2.21-.21Z"/>
            <path d="M646.13,471.2c.67.59.71,1.58.15,2.2-.33.37-.74.53-1.2.53-.34,0-.71-.12-1.02-.37-.67-.58-.71-1.58-.18-2.18.59-.67,1.61-.7,2.24-.18Z"/>
            <path d="M656.3,458.27c.69.55.84,1.48.34,2.2-.3.41-.81.66-1.3.66-.29,0-.63-.14-.88-.29-.71-.53-.89-1.48-.39-2.2.51-.7,1.47-.82,2.22-.37Z"/>
            <path d="M650.85,463.02c.51-.7,1.47-.83,2.18-.33.67.55.84,1.5.3,2.2-.3.41-.75.62-1.27.62-.32,0-.66-.12-.95-.33-.67-.54-.8-1.48-.26-2.18v.03Z"/>
            <path d="M659.36,453.77c.71.49.92,1.46.45,2.15-.33.45-.78.7-1.33.7-.29,0-.59-.08-.84-.25-.73-.49-.93-1.44-.47-2.16.51-.74,1.47-.9,2.18-.45Z"/>
            <path d="M607.59,501.57c.34.8,0,1.7-.8,2.07-.19.08-.41.12-.66.12-.59,0-1.18-.33-1.43-.9-.34-.8,0-1.7.8-2.06.78-.33,1.7,0,2.09.77Z"/>
            <path d="M619.65,492.95c.71-.51,1.71-.34,2.18.36.49.76.29,1.7-.41,2.15-.26.21-.56.29-.89.29-.51,0-1-.25-1.3-.7-.45-.66-.29-1.65.43-2.14v.04Z"/>
            <path d="M617.22,496.34c.46.73.21,1.68-.51,2.14-.25.12-.54.21-.85.21-.49,0-1.03-.25-1.32-.74-.41-.76-.22-1.7.54-2.12.75-.45,1.71-.19,2.14.51Z"/>
            <path d="M612.48,499.1c.37.74.14,1.7-.67,2.11-.21.12-.47.17-.71.17-.59,0-1.13-.3-1.37-.84-.42-.74-.12-1.69.63-2.1.74-.43,1.71-.08,2.13.66Z"/>
            <path d="M626.27,490.08c.55.67.37,1.66-.29,2.19-.29.21-.62.29-.97.29-.45,0-.92-.19-1.25-.62-.51-.66-.39-1.65.33-2.14.69-.53,1.68-.41,2.18.28Z"/>
            <path d="M634.7,483.02c.59.62.53,1.62-.14,2.18-.29.26-.67.43-1.03.43-.44,0-.85-.22-1.2-.55-.59-.6-.53-1.61.14-2.17.62-.59,1.63-.55,2.22.11Z"/>
            <path d="M638.66,479.23c.59.62.59,1.61-.03,2.18-.3.29-.73.45-1.1.45-.41,0-.8-.16-1.14-.45-.58-.62-.58-1.61.05-2.18.58-.63,1.59-.63,2.21,0Z"/>
            <path d="M628.33,486.45c.66-.54,1.66-.45,2.21.2.56.66.47,1.61-.16,2.15h-.04c-.29.25-.63.36-1,.36-.41,0-.88-.21-1.18-.52-.59-.67-.47-1.66.22-2.2h-.04Z"/>
          </g>
          <polygon class="cls-4" points="481.42 748.08 462.09 772.64 459.79 770.88 479.11 746.32 481.42 748.08"/>
          <polygon class="cls-4" points="497.24 748.08 477.93 772.64 475.62 770.88 494.95 746.32 497.24 748.08"/>
        </g>
        <g>
          <g>
            <path class="cls-5" d="M666.83,775.73c0,7.76-6.29,14.06-14.06,14.06h-238.96v-14.06h253.02Z"/>
            <path class="cls-5" d="M412.41,789.79v-14.06c0-.78.62-1.4,1.4-1.4h253.02c.78,0,1.42.62,1.42,1.4,0,8.52-6.95,15.46-15.47,15.46h-238.96c-.78,0-1.4-.62-1.4-1.4ZM415.21,777.13v11.25h237.56c6.51,0,11.88-4.93,12.57-11.25h-250.14Z"/>
          </g>
          <g>
            <path class="cls-5" d="M94.57,564.88h309.67c4.6,0,8.59,2.91,9.94,7.25l63.15,204.47c.96,3.12.38,6.42-1.58,9.06-1.99,2.62-5.04,4.13-8.35,4.13H157.74c-4.6,0-8.61-2.91-9.94-7.25l-63.16-204.46c-.96-3.13-.39-6.44,1.61-9.07,1.98-2.62,5.01-4.13,8.32-4.13Z"/>
            <path class="cls-5" d="M146.46,782.95l-63.16-204.45c-1.1-3.57-.43-7.34,1.83-10.34,2.25-2.98,5.7-4.68,9.45-4.68h309.67c5.22,0,9.75,3.31,11.28,8.24l63.14,204.47c1.1,3.56.44,7.3-1.8,10.32-2.27,2.98-5.73,4.68-9.47,4.68H157.74c-5.23,0-9.77-3.31-11.28-8.24ZM94.57,566.28c-2.86,0-5.49,1.3-7.2,3.58-1.71,2.27-2.22,5.11-1.39,7.81l63.16,204.45c1.15,3.73,4.6,6.26,8.59,6.26h309.66c2.87,0,5.51-1.3,7.22-3.57,1.69-2.28,2.18-5.12,1.36-7.81l-63.14-204.47c-1.15-3.73-4.61-6.26-8.59-6.26H94.57Z"/>
          </g>
          <g>
            <path class="cls-1" d="M86.83,564.88h309.67c4.6,0,8.58,2.91,9.94,7.25l63.15,204.47c.96,3.12.38,6.42-1.59,9.06-1.98,2.62-5.02,4.13-8.33,4.13H150c-4.6,0-8.61-2.91-9.94-7.25l-63.16-204.46c-.96-3.13-.39-6.44,1.59-9.07,1.98-2.62,5.02-4.13,8.33-4.13Z"/>
            <path class="cls-5" d="M138.71,782.95l-63.16-204.45c-1.1-3.57-.44-7.33,1.81-10.34,2.25-2.98,5.7-4.68,9.46-4.68h309.67c5.2,0,9.73,3.31,11.28,8.24l63.15,204.47c1.1,3.56.44,7.32-1.81,10.32-2.25,2.98-5.7,4.68-9.46,4.68H150c-5.23,0-9.77-3.31-11.28-8.24ZM86.83,566.28c-2.87,0-5.51,1.3-7.21,3.57-1.71,2.28-2.2,5.12-1.37,7.83l63.16,204.45c1.15,3.73,4.6,6.26,8.59,6.26h309.66c2.87,0,5.51-1.3,7.21-3.57,1.7-2.28,2.21-5.12,1.37-7.81l-63.14-204.46c-1.17-3.75-4.63-6.27-8.59-6.27H86.83Z"/>
          </g>
        </g>
      </g>
    </g>
  </g>
</svg>