<?xml version="1.0" encoding="UTF-8"?>
<svg xmlns="http://www.w3.org/2000/svg" viewBox="0 0 299.85 241.6">
  <defs>
    <style>
      .cls-1 {
        fill: #282d33;
      }

      .cls-2 {
        fill: #fff;
      }

      .cls-3 {
        isolation: isolate;
      }

      .cls-4 {
        fill: #fccc42;
      }

      .cls-5 {
        mix-blend-mode: multiply;
      }

      .cls-6 {
        fill: #080717;
      }
    </style>
  </defs>
  <g class="cls-3">
    <g id="Capa_2" data-name="Capa 2">
      <g id="Layer_2" data-name="Layer 2">
        <g>
          <ellipse class="cls-6" cx="102.82" cy="179.96" rx="105.25" ry="57.36" transform="translate(-42.52 32.2) rotate(-14.79)"/>
          <g>
            <path d="M45.46,126.67s-8.51.5-11.18-2.94-3.61-7.76-6.96-9.97c-3.34-2.2-13.89,1.55-5.96-22.33,7.93-23.88,21.4-64.03,30.25-50.45,8.85,13.59,7.85,21.34,8.85,23.67,1,2.33,16.43,14.67,23.31,20.29,6.88,5.62,8.28,9.3,8.96,15.06,1.17,9.84-5.04,20.18-11.76,28.73-6.72,8.55-28.5,6.32-35.52-2.07Z"/>
            <g>
              <path class="cls-2" d="M82.26,83.33s-6.59.81-9.62,6.78c-3.03,5.97-4.2,13.38-10.75,16.8-6.55,3.42-12.44-5.76-16.95-14.4-2.7-5.17,2.82-13.08-.6-19.64-.18-.34,2.46,1.35,6.86-5.34,4.41-6.69,6.55-13.51,6.55-13.51,0,0,11.04,14.42,14.38,16.62,3.34,2.2,9.47,4.7,9.47,4.7,0,0,2.49,3.09.66,7.99Z"/>
              <path d="M59.05,108.64c-2.33,0-4.71-1.24-7.11-3.72-3.15-3.25-5.86-8.1-7.88-11.96-1.43-2.74-.85-5.94-.24-9.33.63-3.51,1.29-7.14-.37-10.31-.17-.32-.15-.74.04-1.05.33-.51.89-.47,1.08-.46,2.14.15,4.56-2.97,5.79-4.84,4.27-6.48,6.41-13.19,6.43-13.26.11-.36.41-.62.78-.68.37-.07.74.08.97.38,3.04,3.97,11.51,14.66,14.13,16.39,3.22,2.12,9.24,4.59,9.3,4.61.16.06.29.17.4.3.12.14,2.82,3.59.82,8.97-.13.35-.44.6-.81.64-.1.01-6.12.86-8.85,6.24-.76,1.5-1.42,3.15-2.06,4.74-1.93,4.81-3.93,9.78-9.11,12.49-1.09.57-2.19.85-3.31.85ZM45.79,73.68c1.24,3.42.58,7.05,0,10.31-.55,3.04-1.07,5.92.04,8.05,1.8,3.45,4.54,8.39,7.54,11.49,2.9,2.99,5.53,3.8,8.06,2.48,4.53-2.36,6.3-6.78,8.18-11.46.66-1.63,1.33-3.32,2.14-4.9,2.7-5.32,7.94-6.83,9.76-7.21,1.06-3.37-.13-5.64-.56-6.29-1.25-.52-6.35-2.69-9.37-4.68-2.83-1.86-10.57-11.63-13.5-15.39-.93,2.49-2.92,7.25-6.05,11.99-2.13,3.24-4.23,5.12-6.25,5.61ZM82.26,83.33h0,0Z"/>
            </g>
            <path class="cls-6" d="M57.76,56.53s-.03,0-.05,0c-.55-.03-.98-.5-.95-1.05.32-6.38-1.75-12.94-5.68-17.98-.34-.44-.26-1.06.17-1.4.43-.34,1.06-.26,1.4.17,4.22,5.42,6.44,12.45,6.1,19.31-.03.54-.47.95-1,.95Z"/>
            <path class="cls-2" d="M75.68,103.84c3.65-1.2,7.15-4.76,8.49-8.63l2.75,8.07c1.22,3.59-3.89,7.89-6.4,5.38l-4.83-4.83Z"/>
            <path class="cls-6" d="M36.99,106.5c-.38,0-.74-.21-.91-.57-1.08-2.3-3.3-4.09-5.78-4.67-.54-.12-.87-.66-.75-1.2.12-.54.65-.87,1.2-.75,3.11.72,5.77,2.88,7.13,5.77.23.5.02,1.1-.48,1.33-.14.06-.28.09-.42.09Z"/>
            <path class="cls-6" d="M61.19,83.36c-.48,0-.9-.34-.98-.83-.25-1.43.17-2.95,1.15-4.18.98-1.23,2.38-1.98,3.82-2.05.53-.04,1.02.4,1.05.95.03.55-.4,1.02-.95,1.05-.88.04-1.73.52-2.36,1.3-.62.78-.9,1.73-.75,2.59.09.54-.27,1.06-.81,1.16-.06,0-.12.01-.17.01Z"/>
            <path class="cls-6" d="M56.15,75.46c-.26,0-.53-.1-.72-.31-.38-.4-.37-1.03.03-1.41,1.15-1.1,2.47-2.01,3.91-2.7.5-.24,1.09-.03,1.33.47.24.5.03,1.09-.47,1.33-1.25.6-2.39,1.39-3.39,2.34-.19.19-.44.28-.69.28Z"/>
            <g>
              <path class="cls-2" d="M38.73,147.91c5.33-9.4.29-32.37.29-32.37,0,0-14.59-12.71-14.15-17.8.44-5.09,14.71-.61,14.71-.61,0,0,6.76,25.64,15.26,30.92,8.5,5.28,26.76-2.92,26.76-2.92,0,0,.21,12.82,5.25,29.36-17.39,1.46-33.95-.82-48.11-6.59Z"/>
              <path d="M76.74,155.92c-13.78,0-26.89-2.41-38.39-7.09-.27-.11-.47-.33-.57-.6-.09-.27-.07-.57.07-.82,4.75-8.37.83-28.56.25-31.34-2.38-2.1-14.69-13.21-14.24-18.42.09-1,.58-1.84,1.43-2.4,3.61-2.41,13.47.58,14.58.93.33.1.58.37.67.7.07.25,6.75,25.32,14.82,30.33,7.95,4.94,25.64-2.91,25.82-2.98.31-.14.66-.11.95.07.28.18.46.49.46.83,0,.13.27,12.89,5.21,29.09.09.29.04.6-.13.85-.17.25-.44.41-.74.43-3.43.29-6.83.43-10.19.43ZM40.12,147.39c13.45,5.28,29.09,7.41,45.42,6.21-3.74-12.75-4.66-23.25-4.87-26.98-4.47,1.82-18.78,6.99-26.35,2.29-8.14-5.06-14.5-27.13-15.55-30.98-3.92-1.17-10.32-2.38-12.34-1.02-.34.23-.51.51-.55.91-.29,3.34,8.32,12.17,13.82,16.96.16.14.27.33.32.54.2.92,4.74,21.96.12,32.06Z"/>
            </g>
          </g>
          <g>
            <g>
              <path class="cls-2" d="M102.31,150.56l43.41-38.2c3.52-3.1,8.5-3.94,12.85-2.18h0l14.77-10.15c3.56-2.45,8.39-1.76,11.13,1.59l2.05,2.51,57.5-54.02h0c4.09,5.58,3.95,13.21-.33,18.65l-41.09,52.07,12.22,13.9-6.71,7.69,26.12-1.14c4.99-.22,8.94,4.18,8.18,9.12h0c-.56,3.67-3.6,6.46-7.3,6.71l-28.67,1.95-12.51,8.27c-15.87,10.49-35.35,14.03-53.9,9.78h0l-18.53,27.11c-12.22,17.89-39.75,13.5-45.81-7.3l-3.23-11.07,29.86-35.28Z"/>
              <path class="cls-6" d="M100.42,216.41c-1.42,0-2.86-.11-4.3-.34-10.28-1.64-18.48-8.87-21.4-18.87l-3.23-11.07c-.09-.32-.02-.67.2-.92l29.86-35.28s.07-.07.1-.11l43.41-38.2c3.7-3.25,8.77-4.2,13.37-2.55l14.34-9.85c3.95-2.72,9.43-1.94,12.47,1.78l1.37,1.68,56.71-53.29c.21-.2.49-.29.78-.27.29.03.55.17.71.41,4.34,5.92,4.2,14.09-.36,19.86l-40.58,51.41,11.67,13.28c.33.38.33.94,0,1.32l-5.17,5.93,23.79-1.04c2.69-.11,5.25.96,7.04,2.96,1.79,2,2.59,4.67,2.18,7.32-.64,4.16-4.02,7.27-8.22,7.56l-28.41,1.93-12.29,8.13c-15.83,10.47-35.48,14.12-54.01,10.07l-18.15,26.55c-5.05,7.39-13.18,11.62-21.9,11.62ZM73.57,186.08l3.08,10.56c2.7,9.25,10.28,15.93,19.79,17.45,9.51,1.51,18.8-2.49,24.23-10.44l18.53-27.11c.23-.34.65-.5,1.05-.41,18.19,4.17,37.56.66,53.12-9.64l12.51-8.27c.14-.1.31-.15.48-.16l28.67-1.95c3.26-.22,5.88-2.63,6.38-5.86.32-2.06-.3-4.13-1.69-5.68-1.39-1.55-3.39-2.39-5.46-2.29l-26.12,1.14c-.39.03-.77-.2-.95-.57-.17-.36-.12-.79.15-1.09l6.13-7.03-11.64-13.24c-.32-.36-.33-.9-.03-1.28l41.09-52.07c3.76-4.76,4.1-11.39.95-16.49l-56.64,53.22c-.2.19-.47.28-.75.27-.28-.02-.53-.15-.71-.37l-2.05-2.51c-2.38-2.92-6.68-3.53-9.79-1.39l-14.77,10.15c-.28.19-.63.23-.94.1-4.02-1.64-8.55-.87-11.81,2l-43.36,38.15-29.46,34.82Z"/>
            </g>
            <path class="cls-6" d="M163.61,158.51c-.08,0-.17,0-.25-.03l-16-3.94c-.3-.08-.56-.28-.69-.57-.13-.28-.13-.61,0-.9,2.37-4.99,6.84-8.76,12.12-10.29l-4.19-2.7c-.49-.31-.62-.96-.31-1.44.31-.48.96-.62,1.44-.31l6.26,4.04c.36.23.54.65.46,1.07-.08.42-.4.75-.81.83l-1.1.23c-4.8,1.02-8.97,4.1-11.39,8.33l14.15,3.48,16.51-16.15-20.22-22.23c-.39-.43-.36-1.09.07-1.48.43-.39,1.09-.36,1.48.07l20.9,22.97c.38.42.36,1.06-.04,1.45l-17.65,17.26c-.2.19-.46.3-.73.3Z"/>
            <path class="cls-6" d="M166.04,169.53c-.27,0-.54-.1-.74-.31l-2.63-2.67c-1.32-1.34-2.01-3.1-1.97-4.98.05-1.87.83-3.6,2.21-4.87.42-.39,1.08-.36,1.48.06.39.42.36,1.08-.06,1.48-.96.88-1.5,2.08-1.53,3.39-.03,1.3.45,2.53,1.37,3.46l1.95,1.98,33.09-28.68-23.95-25.77c-.39-.42-.37-1.08.05-1.48.42-.39,1.08-.37,1.48.05l24.68,26.56c.19.21.29.48.28.77-.01.28-.14.55-.36.73l-34.64,30.03c-.2.17-.44.26-.68.26Z"/>
            <path class="cls-6" d="M187.08,166.44c-.2,0-.4-.06-.58-.18-4.42-2.94-6.11-8.62-4.03-13.49l.05-.11c.23-.53.84-.78,1.37-.56.53.22.78.84.56,1.37l-.05.12c-1.57,3.68-.5,7.92,2.54,10.41l26.46-29.26-27.55-30.44c-.39-.43-.35-1.09.07-1.48.43-.38,1.09-.35,1.48.07l28.19,31.14c.36.4.36,1,0,1.4l-27.73,30.67c-.21.23-.49.34-.78.34Z"/>
          </g>
          <g class="cls-5">
            <path class="cls-4" d="M267.05,32.78c-12.31-12.3-32.28-12.3-44.6,0-12.31,12.32-12.29,32.29,0,44.59,12.33,12.31,32.3,12.32,44.61,0,12.32-12.31,12.31-32.28,0-44.59ZM260.06,70.37c-8.45,8.45-22.15,8.45-30.61,0-8.43-8.44-8.45-22.15,0-30.6,8.46-8.44,22.16-8.44,30.61,0,8.45,8.45,8.45,22.15,0,30.6Z"/>
            <path class="cls-4" d="M283.71,16.12c-21.5-21.49-56.39-21.49-77.92,0-21.51,21.51-21.48,56.4-.01,77.89,21.54,21.51,56.43,21.53,77.93,0,21.53-21.5,21.51-56.39,0-77.9ZM275.41,85.72c-16.93,16.93-44.37,16.92-61.32,0-16.89-16.91-16.92-44.36,0-61.29,16.94-16.91,44.39-16.91,61.31,0,16.92,16.93,16.93,44.38,0,61.3Z"/>
            <path class="cls-4" d="M251.71,48.12c-3.84-3.84-10.07-3.84-13.91,0-3.84,3.84-3.84,10.07,0,13.9,3.85,3.84,10.07,3.84,13.91,0,3.84-3.84,3.84-10.07,0-13.91Z"/>
          </g>
          <g>
            <path class="cls-1" d="M140.77,68.61c-7.47,0-14.49-2.92-19.79-8.21-5.3-5.3-8.22-12.33-8.22-19.8,0-7.45,2.9-14.47,8.17-19.78,5.3-5.32,12.34-8.25,19.83-8.25.01,0,.02,0,.03,0,7.47,0,14.5,2.91,19.8,8.21h0c5.3,5.29,8.22,12.33,8.22,19.81,0,7.45-2.9,14.47-8.17,19.77-5.31,5.33-12.36,8.26-19.85,8.26h-.01ZM140.77,14.57c-6.96,0-13.49,2.72-18.41,7.66-4.9,4.92-7.6,11.45-7.59,18.37,0,6.94,2.71,13.47,7.64,18.39,4.92,4.92,11.44,7.62,18.37,7.62h.01c6.96,0,13.51-2.72,18.44-7.67,4.89-4.92,7.59-11.44,7.59-18.36,0-6.94-2.71-13.48-7.63-18.39h0c-4.92-4.91-11.45-7.62-18.39-7.62h-.03Z"/>
            <path class="cls-1" d="M181.47,90.08l-17.4-17.4,8.81-8.81,17.4,17.4-8.81,8.81ZM166.89,72.68l14.58,14.58,5.98-5.98-14.58-14.58-5.98,5.98Z"/>
            <polygon class="cls-1" points="163.34 72 158.99 67.65 167.85 58.79 172.2 63.14 170.79 64.56 167.85 61.61 161.81 67.65 164.75 70.59 163.34 72"/>
            <rect class="cls-1" x="160.46" y="57.83" width="2" height="5.71" transform="translate(4.36 131.9) rotate(-44.99)"/>
          </g>
          <path class="cls-6" d="M237.61,204.86h35.06c9.68,0,17.52-7.85,17.52-17.53s-7.3-16.94-16.5-17.48v-14.49l-14.43,14.43h-21.65c-9.68,0-17.53,7.85-17.53,17.53s7.85,17.53,17.53,17.53Z"/>
          <g>
            <rect class="cls-2" x="233.82" y="191.56" width="40.57" height="2"/>
            <rect class="cls-2" x="233.82" y="182.25" width="40.57" height="2"/>
          </g>
          <path class="cls-6" d="M269.31,141.88c-15.22,0-27.6-12.38-27.6-27.6s12.38-27.6,27.6-27.6,27.6,12.38,27.6,27.6-12.38,27.6-27.6,27.6ZM269.31,88.67c-14.12,0-25.6,11.49-25.6,25.6s11.49,25.6,25.6,25.6,25.6-11.49,25.6-25.6-11.49-25.6-25.6-25.6Z"/>
          <g>
            <path class="cls-6" d="M284.6,126.61v-1.56c0-5.15-4.18-9.33-9.33-9.33h-9.33c-5.15,0-9.33,4.18-9.33,9.33v1.56h28Z"/>
            <path class="cls-6" d="M276.83,104.83c0,3.44-2.79,6.22-6.22,6.22s-6.22-2.79-6.22-6.22,2.79-6.22,6.22-6.22,6.22,2.79,6.22,6.22Z"/>
          </g>
          <g>
            <path class="cls-1" d="M178.69,22.47c-1.26,0-2.47-.46-3.41-1.3-1.08-.96-1.7-2.35-1.7-3.8,0-2.82,2.29-5.11,5.11-5.11s5.11,2.29,5.11,5.11-2.29,5.11-5.11,5.11ZM178.69,14.25c-1.71,0-3.11,1.39-3.11,3.11,0,.88.38,1.73,1.04,2.31.57.51,1.31.79,2.07.79,1.71,0,3.11-1.39,3.11-3.11s-1.39-3.11-3.11-3.11Z"/>
            <path class="cls-1" d="M151.31,48.48c-1.26,0-2.47-.46-3.41-1.3-1.08-.96-1.7-2.35-1.7-3.8,0-2.82,2.29-5.11,5.11-5.11s5.11,2.29,5.11,5.11-2.29,5.11-5.11,5.11ZM151.31,40.26c-1.71,0-3.11,1.39-3.11,3.11,0,.88.38,1.73,1.04,2.31.57.51,1.31.79,2.07.79,1.71,0,3.11-1.39,3.11-3.11s-1.39-3.11-3.11-3.11Z"/>
            <path class="cls-1" d="M137.62,36.16c-1.26,0-2.47-.46-3.41-1.3-1.08-.97-1.7-2.36-1.7-3.81,0-2.82,2.29-5.11,5.11-5.11s5.11,2.29,5.11,5.11-2.29,5.11-5.11,5.11ZM137.62,27.94c-1.71,0-3.11,1.39-3.11,3.11,0,.88.38,1.73,1.04,2.32.57.51,1.31.79,2.07.79,1.71,0,3.11-1.39,3.11-3.11s-1.39-3.11-3.11-3.11Z"/>
            <rect class="cls-1" x="143.47" y="31.86" width="2" height="10.69" transform="translate(23.4 124.38) rotate(-50.2)"/>
            <rect class="cls-1" x="151.07" y="29.42" width="29.17" height="2" transform="translate(27.14 126.24) rotate(-45.08)"/>
            <rect class="cls-1" x="119.97" y="38.97" width="17.47" height="2" transform="translate(9.44 102.72) rotate(-45)"/>
          </g>
          <path class="cls-1" d="M140.77,63.56c-6.12,0-11.88-2.39-16.22-6.73-4.34-4.34-6.74-10.11-6.74-16.23,0-6.11,2.38-11.87,6.7-16.21,4.34-4.36,10.11-6.76,16.25-6.76h.01v2h-.01c-5.6,0-10.87,2.19-14.83,6.17-3.95,3.97-6.12,9.22-6.12,14.8,0,5.59,2.19,10.85,6.15,14.82,3.96,3.96,9.22,6.14,14.81,6.14h.01c5.61,0,10.88-2.19,14.86-6.18l1.42,1.41c-4.35,4.36-10.13,6.77-16.27,6.77h-.01Z"/>
        </g>
      </g>
    </g>
  </g>
</svg>