<?xml version="1.0" encoding="UTF-8"?>
<svg id="Capa_2" data-name="Capa 2" xmlns="http://www.w3.org/2000/svg" xmlns:xlink="http://www.w3.org/1999/xlink" viewBox="0 0 869.65 833.36">
  <defs>
    <style>
      .cls-1 {
        stroke: #fff;
      }

      .cls-1, .cls-2, .cls-3, .cls-4 {
        fill: none;
      }

      .cls-1, .cls-3 {
        stroke-width: 4px;
      }

      .cls-1, .cls-3, .cls-4 {
        stroke-linecap: round;
        stroke-linejoin: round;
      }

      .cls-5 {
        fill: #fff;
      }

      .cls-6 {
        fill: #abfb4f;
      }

      .cls-7 {
        fill: url(#New_Pattern_3);
      }

      .cls-8 {
        fill: blue;
      }

      .cls-9 {
        fill: url(#New_Pattern_4);
      }

      .cls-3, .cls-4 {
        stroke: #000;
      }

      .cls-4 {
        stroke-width: 1.5px;
      }
    </style>
    <pattern id="New_Pattern_4" data-name="New Pattern 4" x="0" y="0" width="70" height="50" patternTransform="translate(-268.31 30.63) scale(1.02)" patternUnits="userSpaceOnUse" viewBox="0 0 70 50">
      <g>
        <rect class="cls-2" width="70" height="50"/>
        <g>
          <path class="cls-4" d="M8.89,99.96c-.05-7.08.29-14.17.29-21.25,0-4.32-.36-17.47-.29-28.09"/>
          <path class="cls-4" d="M22.94,99.84c.02-1.65.09-3.32.09-5.03,0-2.48-.2-4.98-.2-7.46s.02-3.83.05-7.28c0-1.44-.06-2.9-.06-4.35,0-3.1.31-4.62.31-7.37,0-1.39-.27-4.93-.27-8.33,0-1.07.03-2.14.09-3.21,0-2.06,0-4.29,0-6.7"/>
          <path class="cls-4" d="M36.74,99.84c.02-9.46.33-18.09.33-27.56,0-3.7-.15-7.46-.15-11.2,0-3.35-.09-7.29-.18-10.75"/>
          <path class="cls-4" d="M50.93,99.75c.03-1.23-.07-2.74-.07-3.99,0-1.92-.02-3.85-.02-5.78,0-3.87,0-7.66.02-11.51-.06-.41-.08-.82-.08-1.23,0-.32.18-6.67.18-8.04,0-2.2-.21-3.25-.21-5.64,0-1.3.06-2.65.17-3.87,0-2.88.01-5.88.02-9.05"/>
          <path class="cls-4" d="M64.98,99.71c.02-8.34-.55-15.73-.36-24.06.18-8.13.16-17.71.36-25.19"/>
        </g>
        <g>
          <path class="cls-4" d="M8.89,49.96c-.05-7.08.29-14.17.29-21.25,0-4.32-.36-17.47-.29-28.09"/>
          <path class="cls-4" d="M22.94,49.84c.02-1.65.09-3.32.09-5.03,0-2.48-.2-4.98-.2-7.46s.02-3.83.05-7.28c0-1.44-.06-2.9-.06-4.35,0-3.1.31-4.62.31-7.37,0-1.39-.27-4.93-.27-8.33,0-1.07.03-2.14.09-3.21,0-2.06,0-4.29,0-6.7"/>
          <path class="cls-4" d="M36.74,49.84c.02-9.46.33-18.09.33-27.56,0-3.7-.15-7.46-.15-11.2,0-3.35-.09-7.29-.18-10.75"/>
          <path class="cls-4" d="M50.93,49.75c.03-1.23-.07-2.74-.07-3.99,0-1.92-.02-3.85-.02-5.78,0-3.87,0-7.66.02-11.51-.06-.41-.08-.82-.08-1.23,0-.32.18-6.67.18-8.04,0-2.2-.21-3.25-.21-5.64,0-1.3.06-2.65.17-3.87,0-2.88.01-5.88.02-9.05"/>
          <path class="cls-4" d="M64.98,49.71c.02-8.34-.55-15.73-.36-24.06.18-8.13.16-17.71.36-25.19"/>
        </g>
        <g>
          <path class="cls-4" d="M8.89-.04c-.05-7.08.29-14.17.29-21.25,0-4.32-.36-17.47-.29-28.09"/>
          <path class="cls-4" d="M22.94-.16c.02-1.65.09-3.32.09-5.03,0-2.48-.2-4.98-.2-7.46s.02-3.83.05-7.28c0-1.44-.06-2.9-.06-4.35,0-3.1.31-4.62.31-7.37,0-1.39-.27-4.93-.27-8.33,0-1.07.03-2.14.09-3.21,0-2.06,0-4.29,0-6.7"/>
          <path class="cls-4" d="M36.74-.16c.02-9.46.33-18.09.33-27.56,0-3.7-.15-7.46-.15-11.2,0-3.35-.09-7.29-.18-10.75"/>
          <path class="cls-4" d="M50.93-.25c.03-1.23-.07-2.74-.07-3.99,0-1.92-.02-3.85-.02-5.78,0-3.87,0-7.66.02-11.51-.06-.41-.08-.82-.08-1.23,0-.32.18-6.67.18-8.04,0-2.2-.21-3.25-.21-5.64,0-1.3.06-2.65.17-3.87,0-2.88.01-5.88.02-9.05"/>
          <path class="cls-4" d="M64.98-.29c.02-8.34-.55-15.73-.36-24.06.18-8.13.16-17.71.36-25.19"/>
        </g>
      </g>
    </pattern>
    <pattern id="New_Pattern_3" data-name="New Pattern 3" x="0" y="0" width="40" height="40" patternTransform="translate(-278.54 71.57) scale(1.02)" patternUnits="userSpaceOnUse" viewBox="0 0 40 40">
      <g>
        <rect class="cls-2" width="40" height="40"/>
        <g>
          <path d="M36.18,30c0,1.06.86,1.91,1.91,1.91v-3.82c-1.06,0-1.91.86-1.91,1.91Z"/>
          <path d="M40,33.82c1.06,0,1.91-.86,1.91-1.91h-3.82c0,1.06.86,1.91,1.91,1.91Z"/>
          <path d="M40,26.18c-1.06,0-1.91.86-1.91,1.91h3.82c0-1.06-.86-1.91-1.91-1.91Z"/>
          <path d="M16.18,40c0,1.06.86,1.91,1.91,1.91v-3.82c-1.06,0-1.91.86-1.91,1.91Z"/>
          <path d="M21.91,38.09v3.82c1.06,0,1.91-.86,1.91-1.91s-.86-1.91-1.91-1.91Z"/>
          <path d="M20,36.18c-1.06,0-1.91.86-1.91,1.91h3.82c0-1.06-.86-1.91-1.91-1.91Z"/>
          <path d="M1.91,28.09v3.82c1.06,0,1.91-.86,1.91-1.91s-.86-1.91-1.91-1.91Z"/>
          <path d="M36.18,10c0,1.06.86,1.91,1.91,1.91v-3.82c-1.06,0-1.91.86-1.91,1.91Z"/>
          <path d="M40,13.82c1.06,0,1.91-.86,1.91-1.91h-3.82c0,1.06.86,1.91,1.91,1.91Z"/>
          <path d="M40,6.18c-1.06,0-1.91.86-1.91,1.91h3.82c0-1.06-.86-1.91-1.91-1.91Z"/>
          <path d="M18.79,16.37c-1,.33-1.54,1.42-1.21,2.42l3.63-1.21c-.33-1-1.42-1.54-2.42-1.21Z"/>
          <path d="M22.42,21.21l-3.63,1.21c.33,1,1.42,1.54,2.42,1.21s1.54-1.42,1.21-2.42Z"/>
          <path d="M16.37,21.21c.33,1,1.42,1.54,2.42,1.21l-1.21-3.63c-1,.33-1.54,1.42-1.21,2.42Z"/>
          <path d="M23.63,18.79c-.33-1-1.42-1.54-2.42-1.21l1.21,3.63c1-.33,1.54-1.42,1.21-2.42Z"/>
          <path d="M1.91,8.09v3.82c1.06,0,1.91-.86,1.91-1.91s-.86-1.91-1.91-1.91Z"/>
          <path d="M20,3.82c1.06,0,1.91-.86,1.91-1.91h-3.82c0,1.06.86,1.91,1.91,1.91Z"/>
        </g>
        <g>
          <path d="M0,33.82c1.06,0,1.91-.86,1.91-1.91H-1.91c0,1.06.86,1.91,1.91,1.91Z"/>
          <path d="M0,26.18c-1.06,0-1.91.86-1.91,1.91H1.91c0-1.06-.86-1.91-1.91-1.91Z"/>
          <path d="M0,13.82c1.06,0,1.91-.86,1.91-1.91H-1.91c0,1.06.86,1.91,1.91,1.91Z"/>
          <path d="M0,6.18c-1.06,0-1.91.86-1.91,1.91H1.91c0-1.06-.86-1.91-1.91-1.91Z"/>
        </g>
        <g>
          <path d="M16.18,0c0,1.06.86,1.91,1.91,1.91V-1.91c-1.06,0-1.91.86-1.91,1.91Z"/>
          <path d="M21.91-1.91V1.91c1.06,0,1.91-.86,1.91-1.91s-.86-1.91-1.91-1.91Z"/>
        </g>
      </g>
    </pattern>
  </defs>
  <g id="Capa_1-2" data-name="Capa 1">
    <g>
      <g>
        <path class="cls-5" d="M810.44,260.44c17.33,1.14,15.29,19.15,7.54,26.76-16.64,16.35-31.85,33.08-47.53,51.72-17.22,20.49-42.36,32.68-69.1,33.74l-133.82,5.27c-26.93,0-52.19-11.92-69.3-32.71l-18.15-22.03,64.3-57.56,15.05,18.27c4.06,4.94,10.13,7.8,16.53,7.8h89.28c13.26,0,25.46-7.16,32-18.69,5.43-9.56,9.67-20.28,12.3-31.47,2.05-8.69,10.75-14.08,19.44-12.04,3.73.88,6.85,2.99,9.04,5.79-1.1,3.56-1.68,7.34-1.68,11.25,0,4.29.7,8.42,2,12.27-1.23,4.02-2.61,7.95-4.15,11.8-3.18,8.02-1.45,17.08,4.46,23.36.3.32,2.31,2.36,2.31,2.36,4.18,4.25,11,4.29,15.26.11,3.86-3.79,8.4-8.04,12.87-11.95,1.82.27,3.7.41,5.59.41,16.28,0,30.19-10.14,35.75-24.46Z"/>
        <path d="M867.65,614.63c0,3.46-.12,6.89-.37,10.3-29.24,10.28-50.6,31.72-71.14,31.72-5.61,0-10.68-.99-10.68-6.53,0-28.95,43.28-51.1,61.64-70.05,5.02-5.17,8.96-9.64,12.12-13.62,5.46,15.04,8.44,31.26,8.44,48.19Z"/>
        <path class="cls-8" d="M746.57,220.48c7.01-7.56,17.01-12.28,28.12-12.28,21.18,0,38.35,17.17,38.35,38.35,0,4.9-.92,9.59-2.6,13.89-5.56,14.31-19.48,24.46-35.75,24.46-1.9,0-3.77-.14-5.59-.41-14.4-2.1-26.21-12.21-30.75-25.67-1.3-3.85-2-7.98-2-12.27,0-3.91.58-7.7,1.68-11.25,1.71-5.59,4.67-10.64,8.55-14.82Z"/>
        <path class="cls-5" d="M859.22,566.44c-3.16,3.98-7.1,8.45-12.12,13.62-18.36,18.95-61.64,41.11-61.64,70.05,0,5.54,5.07,6.53,10.68,6.53,20.54,0,41.9-21.43,71.14-31.72-1.81,25.07-10.15,48.33-23.34,68.08-46.03,3.28-69.96,32.93-89.67,32.93-43.42,0-4.4-43.83-55.94-43.83-25.69,0-44.73,14.47-68.23,35.96-19.05-17.71-33.21-40.64-40.17-66.51,22.29-21.79,50.08-51.76,86.65-51.76s12.46,35.58,51.54,35.58,32.32-68.44,105.77-112.4c10.86,12.74,19.51,27.42,25.32,43.46Z"/>
        <path d="M812.93,172.91h-14.96c0-15.55-4.16-30.14-11.43-42.7l12.96-7.49c8.54,14.77,13.43,31.91,13.43,50.19Z"/>
        <path class="cls-6" d="M784.97,486.04c18.91,8.63,35.59,21.31,48.92,36.94-73.44,43.96-65.38,112.4-105.77,112.4s-13.37-35.58-51.54-35.58-64.36,29.97-86.65,51.76c-3.2-11.77-4.89-24.15-4.89-36.93,0-15.8,2.59-30.99,7.37-45.17h96.48v-91.1c7.32-2.03,14.89-3.46,22.63-4.26,4.85,18.21,30.9,17.15,30.9,35.76,0,7.25-15.77,21.26-15.77,31.98,0,6.38,6.85,8.56,13.1,8.56,25.34,0,32.61-33.29,45.21-64.36Z"/>
        <path class="cls-8" d="M843.94,693.01c-25.34,37.94-68.54,62.93-117.6,62.93-37.19,0-71.02-14.36-96.24-37.87,23.5-21.49,42.54-35.96,68.23-35.96,51.54,0,12.52,43.83,55.94,43.83,19.71,0,43.64-29.65,89.67-32.93Z"/>
        <path class="cls-5" d="M799.5,122.72l-12.96,7.49c-7.49-12.97-18.31-23.78-31.27-31.27l7.48-12.96c15.23,8.82,27.93,21.5,36.75,36.74Z"/>
        <path class="cls-8" d="M797.97,172.91h-63.92c0-5.93-2.4-11.28-6.27-15.17l8.12-41.98c.16-.82-.21-1.69-.97-2.12-.96-.55-2.19-.22-2.74.74l-21.25,37.1h0c-11.1.85-19.86,10.11-19.86,21.42h-63.92c0-15.55,4.16-30.14,11.43-42.7,7.49-12.96,18.31-23.78,31.27-31.27,12.56-7.27,27.16-11.43,42.71-11.43s30.14,4.16,42.7,11.43c12.96,7.49,23.78,18.29,31.27,31.27,7.27,12.56,11.43,27.14,11.43,42.7Z"/>
        <path class="cls-5" d="M791.23,42.92c0,20.11-14.53,36.84-33.65,40.27h-.01c-13.53-6.81-28.81-10.63-44.99-10.63s-32.43,4.08-46.27,11.29h0s-143.5-.01-143.5-.01V2h227.52c22.6,0,40.92,18.32,40.92,40.92Z"/>
        <path d="M762.75,85.98l-7.48,12.96c-12.56-7.27-27.14-11.43-42.7-11.43v-14.96c16.18,0,31.46,3.83,44.99,10.64,1.76.87,3.48,1.8,5.18,2.79Z"/>
        <path class="cls-5" d="M784.97,486.04c-12.6,31.07-19.88,64.36-45.21,64.36-6.24,0-13.1-2.18-13.1-8.56,0-10.72,15.77-24.73,15.77-31.98,0-18.61-26.05-17.55-30.9-35.76,4.87-.51,9.81-.77,14.82-.77,20.91,0,40.77,4.55,58.63,12.71Z"/>
        <path class="cls-5" d="M734.93,113.64c.76.44,1.13,1.3.97,2.12l-8.12,41.98c-3.89-3.91-9.27-6.32-15.21-6.32-.55,0-1.1.02-1.63.07h0s21.25-37.11,21.25-37.11c.55-.96,1.78-1.29,2.74-.74Z"/>
        <path class="cls-5" d="M727.78,157.74c3.87,3.88,6.27,9.24,6.27,15.17,0,11.87-9.63,21.48-21.48,21.48s-21.49-9.62-21.49-21.48,8.76-20.52,19.86-21.41c.54-.04,1.08-.07,1.63-.07,5.94,0,11.32,2.41,15.21,6.32Z"/>
        <path class="cls-5" d="M712.57,72.55v14.96c-15.55,0-30.15,4.16-42.71,11.43l-7.48-12.96c1.29-.74,2.59-1.46,3.92-2.14,13.84-7.22,29.58-11.29,46.27-11.29Z"/>
        <path d="M688.9,478.36v91.1h-96.48c14.91-44.23,51.14-78.68,96.48-91.1Z"/>
        <path d="M688.9,424.34v54.02c-45.34,12.42-81.56,46.87-96.48,91.1h-48.63v-145.12h145.11Z"/>
        <polygon class="cls-9" points="537.1 703.06 665.4 831.36 537.1 831.36 537.1 703.06"/>
        <path d="M662.38,85.98l7.48,12.96c-12.96,7.49-23.78,18.31-31.27,31.27l-12.96-7.49c8.82-15.23,21.51-27.92,36.75-36.74Z"/>
        <path class="cls-5" d="M625.63,122.72l12.96,7.49c-7.27,12.56-11.43,27.14-11.43,42.7h-14.96c0-18.28,4.89-35.42,13.43-50.19Z"/>
        <path class="cls-8" d="M239.95,313.35l-12.3,29.79-75.3-43.59,34.82-84.33c11.27-27.33,29.81-42.25,47.6-50.68,19.26-9.13,41.67-7.08,59.73,4.24,19.57,12.25,46.25,7.84,60.92-9.78,15.61-18.73,40.46-27.2,63.85-20.3,15.52,4.59,31.98,13.85,46.49,31.47l78.62,95.45-64.3,57.56-61.72-74.93v100.65h-173.31l-5.1-35.56Z"/>
        <path d="M482.18,49c2.47,2.47,5.88,4,9.65,4,7.54,0,13.65-6.12,13.65-13.66s-6.11-13.65-13.65-13.65-13.65,6.11-13.65,13.65c0,3.77,1.53,7.17,4,9.65h0ZM522.8,2v81.83h-35.34c-22.6,0-40.92-18.32-40.92-40.92S464.85,2,487.45,2h35.34Z"/>
        <path class="cls-6" d="M352.83,466.07v223.85l42.51-129.23-42.51-94.62ZM323.53,779.01h-78.49v-430.1h173.31l76.92,171.24c10.1,22.47,11.34,47.71,3.49,71.08l-68.69,204.58-106.55-16.8Z"/>
        <path d="M491.82,25.7c7.54,0,13.65,6.11,13.65,13.65s-6.11,13.66-13.65,13.66c-3.77,0-7.18-1.53-9.65-4h0c-2.47-2.49-4-5.89-4-9.66,0-7.54,6.11-13.65,13.65-13.65Z"/>
        <path d="M462.56,819.41v11.95h-156.25l17.22-52.35,106.55,16.8c8.34,13.17,17.01,19.44,32.47,23.59Z"/>
        <path class="cls-5" d="M323.36,53.16c21.21,3.06,37.51,21.32,37.51,43.37,0,24.21-19.62,43.82-43.82,43.82-11.31,0-21.61-4.28-29.37-11.31,22.17-11.08,37.4-33.98,37.4-60.45,0-5.15-.57-10.16-1.67-14.98v-.05c-.01-.13-.02-.27-.04-.4Z"/>
        <path d="M323.4,53.61c1.1,4.82,1.67,9.83,1.67,14.98,0,26.47-15.23,49.37-37.4,60.45h-.01c-8.86-8.03-14.43-19.62-14.43-32.52s5.14-23.59,13.42-31.57c-1.78-2.96-2.8-6.45-2.8-10.15,0-10.94,8.87-19.8,19.8-19.8,7.38,0,13.82,4.04,17.21,10.03.98,2.63,1.78,5.34,2.45,8.11.03.13.06.27.1.41v.05Z"/>
        <polygon points="323.53 779.01 306.31 831.36 245.05 831.36 245.05 779.01 323.53 779.01"/>
        <path class="cls-5" d="M227.65,343.14l-22.81,55.24c-2.64,6.4-6.34,12.19-10.86,17.17-8.3,9.16-19.39,15.6-31.86,18.16-3.97.82-7.97,1.22-11.93,1.22-15.27,0-30.1-5.93-41.27-16.84l-75.33-86.4C7.47,301.75-3.29,261.37,4.47,222.4c4.03-20.22,8.08-42.25,10.69-60.64.99-6.98,6.96-12.17,14.02-12.17,7.81,0,14.15,6.34,14.15,14.16v2.65c-4.17,6.14-6.61,13.56-6.61,21.53s2.57,15.77,6.93,22c-.3,4.02-.42,8.37-.23,13.06.54,12.71,15.21,19.55,25.29,11.8,4.2-3.23,8.32-6.22,12.38-8.99,8.59-1.36,16.23-5.56,21.93-11.63,5.1-.26,10.14,2.39,12.66,7.26,3.36,6.51.67,14.54-5.72,18.13-.95.53-1.9,1.08-2.85,1.63-17.58,10.3-20.58,34.49-6,48.73l36.88,36.03c.55.54,1.34.77,2.09.61s1.38-.67,1.67-1.38l10.58-25.64,75.3,43.59Z"/>
        <path class="cls-6" d="M193.98,415.55v91.7h-73.59c0-32.13-26.04-58.17-58.17-58.17v-39.01h39.71l7,8.02c11.17,10.91,26,16.84,41.27,16.84,3.97,0,7.97-.4,11.93-1.22,12.47-2.57,23.56-9,31.86-18.16Z"/>
        <path d="M120.39,507.25h-58.17v-58.17c32.13,0,58.17,26.04,58.17,58.17Z"/>
        <path class="cls-7" d="M62.22,507.25h58.17c0,32.12-26.04,58.17-58.17,58.17s-58.17-26.05-58.17-58.17,26.05-58.17,58.17-58.17v58.17Z"/>
        <path class="cls-6" d="M103.18,161.87c6.35,6.84,10.23,16.01,10.23,26.07s-3.94,19.39-10.38,26.24c-5.7,6.07-13.34,10.27-21.93,11.63-1.97.31-3.99.47-6.04.47-13,0-24.48-6.47-31.41-16.35-4.37-6.23-6.93-13.82-6.93-22s2.44-15.39,6.61-21.53c6.9-10.15,18.54-16.81,31.73-16.81,11.11,0,21.11,4.72,28.12,12.28Z"/>
      </g>
      <g>
        <polyline class="cls-3" points="306.31 831.36 395.34 560.69 327.68 410.08"/>
        <line class="cls-3" x1="352.83" y1="689.92" x2="352.83" y2="466.07"/>
        <path class="cls-3" d="M430.09,795.82l68.69-204.58c7.85-23.37,6.61-48.61-3.49-71.08l-76.92-171.24h-173.31v482.45"/>
        <line class="cls-3" x1="190" y1="831.36" x2="813.03" y2="831.36"/>
        <line class="cls-3" x1="245.05" y1="348.91" x2="230.18" y2="245.26"/>
        <path class="cls-3" d="M245.05,779.01h78.49l106.55,16.8c8.34,13.17,17.01,19.44,32.47,23.59v11.95"/>
        <path class="cls-3" d="M239.95,313.35l-35.1,85.03c-2.64,6.4-6.34,12.19-10.86,17.17-8.31,9.15-19.39,15.6-31.86,18.16-3.97.82-7.97,1.22-11.93,1.22-15.27,0-30.1-5.93-41.27-16.84l-75.33-86.4C7.47,301.75-3.29,261.37,4.47,222.4c4.03-20.22,8.08-42.25,10.69-60.64.99-6.98,6.96-12.17,14.02-12.17,7.81,0,14.15,6.34,14.15,14.16v2.65"/>
        <path class="cls-3" d="M810.44,260.44c1.68-4.3,2.6-8.99,2.6-13.89,0-21.18-17.17-38.35-38.35-38.35-11.11,0-21.11,4.72-28.12,12.28-3.88,4.18-6.83,9.23-8.55,14.82-1.09,3.56-1.68,7.34-1.68,11.25,0,4.29.7,8.42,2,12.27,4.55,13.46,16.35,23.56,30.75,25.67,1.82.27,3.7.41,5.59.41,16.28,0,30.17-10.15,35.75-24.46Z"/>
        <line class="cls-3" x1="774.69" y1="246.55" x2="746.57" y2="220.48"/>
        <path class="cls-3" d="M43.66,209.94c-4.37-6.23-6.93-13.82-6.93-22s2.43-15.39,6.61-21.53c6.9-10.15,18.54-16.81,31.73-16.81,11.11,0,21.11,4.72,28.12,12.28,6.35,6.84,10.23,16.01,10.23,26.07s-3.94,19.39-10.38,26.24c-5.7,6.07-13.34,10.27-21.93,11.63-1.97.31-3.99.47-6.04.47-13,0-24.48-6.47-31.41-16.35Z"/>
        <line class="cls-3" x1="75.06" y1="187.94" x2="103.18" y2="161.87"/>
        <path class="cls-3" d="M43.66,209.94c-.3,4.02-.42,8.37-.23,13.06.54,12.71,15.21,19.55,25.29,11.8,4.2-3.23,8.32-6.22,12.38-8.99"/>
        <path class="cls-3" d="M418.36,348.91v-100.65l79.87,96.96c17.12,20.79,42.37,32.71,69.3,32.71l133.82-5.27c26.74-1.06,51.88-13.25,69.1-33.74,15.68-18.65,30.89-35.37,47.53-51.72,7.75-7.61,9.79-25.62-7.54-26.76"/>
        <path class="cls-3" d="M738.34,258.82c-1.23,4.02-2.61,7.95-4.15,11.8-3.18,8.02-1.45,17.08,4.46,23.36.3.32,2.31,2.36,2.31,2.36,4.18,4.25,11,4.29,15.26.11,3.86-3.79,8.4-8.04,12.87-11.95"/>
        <path class="cls-3" d="M734.05,172.91h78.88c0-18.28-4.89-35.42-13.43-50.19-8.81-15.23-21.51-27.93-36.75-36.74-1.7-.98-3.43-1.91-5.18-2.79-13.56-6.76-28.81-10.64-44.99-10.64s-32.4,4.15-46.27,11.29c-1.32.68-2.63,1.39-3.92,2.14-15.25,8.8-27.93,21.5-36.75,36.74-8.54,14.77-13.43,31.91-13.43,50.19h78.88"/>
        <path class="cls-3" d="M627.16,172.91c0-15.55,4.16-30.13,11.43-42.7,7.5-12.96,18.31-23.77,31.27-31.27,12.56-7.27,27.16-11.43,42.71-11.43s30.13,4.16,42.7,11.43c12.96,7.5,23.77,18.3,31.27,31.27,7.27,12.57,11.43,27.14,11.43,42.7"/>
        <path class="cls-3" d="M734.05,172.91c0-5.93-2.4-11.28-6.27-15.17-3.89-3.91-9.27-6.32-15.21-6.32-.55,0-1.1.03-1.63.07-11.1.89-19.86,10.1-19.86,21.41s9.63,21.48,21.49,21.48,21.48-9.62,21.48-21.48Z"/>
        <path class="cls-3" d="M710.94,151.48l21.25-37.1c.55-.96,1.78-1.29,2.74-.74.76.44,1.13,1.3.97,2.12l-8.12,41.98"/>
        <path class="cls-3" d="M666.3,83.83h-178.84c-22.6,0-40.92-18.32-40.92-40.92S464.85,2,487.45,2h262.86c22.6,0,40.92,18.32,40.92,40.92,0,20.11-14.53,36.84-33.65,40.27"/>
        <line class="cls-3" x1="522.8" y1="2" x2="522.8" y2="83.83"/>
        <path class="cls-1" d="M482.18,49c2.47,2.47,5.88,4,9.65,4,7.54,0,13.65-6.12,13.65-13.66s-6.11-13.65-13.65-13.65-13.65,6.11-13.65,13.65c0,3.77,1.53,7.17,4,9.65h0Z"/>
        <polyline class="cls-1" points="482.18 48.99 482.18 49 470.21 60.96"/>
        <line class="cls-3" x1="480.08" y1="323.19" x2="544.38" y2="265.64"/>
        <line class="cls-3" x1="152.35" y1="299.56" x2="227.65" y2="343.14"/>
        <path class="cls-3" d="M103.03,214.18c5.1-.26,10.14,2.39,12.66,7.26,3.36,6.51.67,14.54-5.72,18.13-.95.53-1.9,1.08-2.85,1.63-17.58,10.3-20.58,34.49-6,48.73l36.88,36.03c.55.54,1.34.77,2.09.61s1.38-.67,1.67-1.38l45.41-109.97c11.27-27.33,29.81-42.25,47.6-50.68,19.26-9.13,41.67-7.08,59.73,4.24,19.57,12.25,46.25,7.84,60.92-9.78,15.61-18.73,40.46-27.2,63.85-20.3,15.52,4.59,31.98,13.85,46.49,31.47l93.66,113.72c4.06,4.94,10.13,7.8,16.53,7.8h89.28c13.26,0,25.46-7.16,32-18.69,5.43-9.56,9.67-20.28,12.3-31.47,2.05-8.69,10.75-14.08,19.44-12.04,3.73.88,6.85,2.99,9.04,5.79"/>
        <path class="cls-3" d="M323.4,53.56c-.03-.14-.07-.28-.1-.41-.67-2.76-1.51-5.46-2.45-8.11-.01-.03-.02-.05-.03-.09"/>
        <path class="cls-3" d="M287.67,129.05c22.17-11.08,37.4-33.98,37.4-60.45,0-5.15-.57-10.16-1.67-14.98"/>
        <path class="cls-3" d="M323.4,53.61v-.05c-.01-.13-.02-.27-.04-.4-.24-2.93-1.12-5.69-2.5-8.12-3.41-5.98-9.83-10.03-17.21-10.03-10.93,0-19.8,8.86-19.8,19.8,0,3.71,1.02,7.19,2.8,10.15-8.28,7.98-13.42,19.17-13.42,31.57s5.57,24.49,14.43,32.52h.01c7.76,7.03,18.06,11.31,29.37,11.31,24.21,0,43.82-19.62,43.82-43.82,0-22.05-16.3-40.31-37.51-43.37-.02-.01-.03-.01-.05-.01"/>
        <polyline class="cls-3" points="193.98 415.55 193.98 507.25 62.22 507.25 62.22 410.08 101.92 410.08"/>
        <circle class="cls-3" cx="62.22" cy="507.25" r="58.17"/>
        <polyline class="cls-3" points="537.1 831.36 537.1 703.06 665.4 831.36"/>
        <path class="cls-3" d="M867.28,624.93c.25-3.4.37-6.84.37-10.3,0-16.93-2.98-33.15-8.44-48.19-5.82-16.04-14.46-30.73-25.32-43.46-13.33-15.63-30.01-28.31-48.92-36.94-17.85-8.15-37.71-12.71-58.63-12.71-5,0-9.95.27-14.82.77-7.75.81-15.31,2.24-22.63,4.26-45.32,12.48-81.56,46.87-96.48,91.1-4.78,14.18-7.37,29.37-7.37,45.17,0,12.78,1.71,25.15,4.89,36.93,6.99,25.87,21.13,48.79,40.17,66.51,25.24,23.49,59.05,37.87,96.24,37.87,49.06,0,92.26-24.99,117.6-62.93,13.19-19.75,21.52-43.01,23.34-68.08Z"/>
        <polygon class="cls-3" points="688.9 478.36 688.9 569.46 543.79 569.46 543.79 424.34 688.9 424.34 688.9 478.36"/>
        <line class="cls-3" x1="625.63" y1="122.72" x2="638.59" y2="130.21"/>
        <line class="cls-3" x1="669.86" y1="98.94" x2="662.38" y2="85.98"/>
        <line class="cls-3" x1="712.57" y1="72.55" x2="712.57" y2="87.51"/>
        <line class="cls-3" x1="755.27" y1="98.94" x2="762.75" y2="85.98"/>
        <line class="cls-3" x1="786.53" y1="130.21" x2="799.5" y2="122.72"/>
        <path class="cls-3" d="M589.92,651.57h.01c22.29-21.81,50.08-51.77,86.65-51.77s12.46,35.58,51.54,35.58,32.32-68.44,105.77-112.4"/>
        <path class="cls-3" d="M630.09,718.08h.01c23.5-21.5,42.54-35.98,68.23-35.98,51.54,0,12.52,43.83,55.94,43.83,19.71,0,43.64-29.65,89.67-32.93"/>
        <path class="cls-3" d="M859.22,566.44c-3.16,3.98-7.1,8.45-12.12,13.62-18.36,18.95-61.64,41.11-61.64,70.05,0,5.54,5.07,6.53,10.68,6.53,20.54,0,41.9-21.43,71.14-31.72"/>
        <path class="cls-3" d="M711.53,474.1c4.85,18.21,30.9,17.15,30.9,35.76,0,7.25-15.77,21.26-15.77,31.98,0,6.38,6.85,8.56,13.1,8.56,25.34,0,32.61-33.29,45.21-64.36h0"/>
      </g>
    </g>
  </g>
</svg>