<?xml version="1.0" encoding="UTF-8"?>
<svg id="Capa_2" data-name="Capa 2" xmlns="http://www.w3.org/2000/svg" viewBox="0 0 312.29 312.22">
  <defs>
    <style>
      .cls-1 {
        fill: #fff;
      }

      .cls-2 {
        fill: #abfb4f;
      }

      .cls-3 {
        fill: blue;
      }

      .cls-4 {
        fill: #000100;
      }
    </style>
  </defs>
  <g id="Capa_1-2" data-name="Capa 1">
    <g>
      <circle class="cls-1" cx="106.11" cy="106.11" r="105.56"/>
      <path class="cls-4" d="M106.11,212.22C47.6,212.22,0,164.62,0,106.11S47.6,0,106.11,0s106.11,47.6,106.11,106.11-47.6,106.11-106.11,106.11ZM106.11,1.11C48.21,1.11,1.11,48.21,1.11,106.11s47.1,105,105,105,105-47.1,105-105S164.01,1.11,106.11,1.11Z"/>
      <circle class="cls-3" cx="106.11" cy="106.11" r="81.37" transform="translate(-.17 212.05) rotate(-89.91)"/>
      <path class="cls-4" d="M106.11,188.03c-45.17,0-81.92-36.75-81.92-81.92S60.94,24.19,106.11,24.19s81.92,36.75,81.92,81.92-36.75,81.92-81.92,81.92ZM106.11,25.3c-44.56,0-80.81,36.25-80.81,80.81s36.25,80.81,80.81,80.81,80.81-36.25,80.81-80.81S150.67,25.3,106.11,25.3Z"/>
      <circle class="cls-1" cx="106.11" cy="106.11" r="57.18" transform="translate(-.14 .14) rotate(-.08)"/>
      <path class="cls-4" d="M106.11,163.84c-31.84,0-57.73-25.9-57.73-57.73s25.9-57.73,57.73-57.73,57.73,25.9,57.73,57.73-25.9,57.73-57.73,57.73ZM106.11,49.49c-31.22,0-56.62,25.4-56.62,56.62s25.4,56.62,56.62,56.62,56.62-25.4,56.62-56.62-25.4-56.62-56.62-56.62Z"/>
      <path class="cls-3" d="M139.44,106.11c0,18.41-14.92,33.33-33.33,33.33s-33.33-14.92-33.33-33.33,14.92-33.33,33.33-33.33,33.33,14.92,33.33,33.33Z"/>
      <path class="cls-4" d="M106.11,140c-18.68,0-33.89-15.2-33.89-33.89s15.2-33.89,33.89-33.89,33.89,15.2,33.89,33.89-15.2,33.89-33.89,33.89ZM106.11,73.33c-18.07,0-32.78,14.7-32.78,32.78s14.71,32.78,32.78,32.78,32.78-14.7,32.78-32.78-14.71-32.78-32.78-32.78Z"/>
      <path class="cls-4" d="M106.11,73.33c-.31,0-.55-.25-.55-.56V.56c0-.31.24-.56.55-.56s.55.25.55.56v72.22c0,.31-.24.56-.55.56Z"/>
      <path class="cls-4" d="M106.11,212.22c-.31,0-.55-.25-.55-.56v-72.22c0-.31.24-.56.55-.56s.55.25.55.56v72.22c0,.31-.24.56-.55.56Z"/>
      <path class="cls-4" d="M72.78,106.67H.55c-.31,0-.55-.25-.55-.56s.24-.56.55-.56h72.22c.31,0,.55.25.55.56s-.24.56-.55.56Z"/>
      <path class="cls-4" d="M211.67,106.67h-72.22c-.31,0-.55-.25-.55-.56s.24-.56.55-.56h72.22c.31,0,.55.25.55.56s-.24.56-.55.56Z"/>
      <path d="M283.11,140.2c11.68,1.33,20.76,5.98,20.27,10.39-.49,4.4-9.47,8.36-21.16,7.03-11.68-1.33-21.65-7.46-21.15-11.86.48-4.39,10.36-6.88,22.04-5.55Z"/>
      <path class="cls-4" d="M286.69,158.42c-1.49,0-3.01-.08-4.54-.26-11.48-1.3-22.2-7.48-21.64-12.48.12-1.11.75-2.13,1.86-3.02,3.6-2.87,11.76-4.05,20.8-3.02,12.17,1.39,21.28,6.22,20.76,11-.15,1.35-1,2.67-2.45,3.82-3.16,2.52-8.69,3.95-14.79,3.95ZM276.94,140.4c-6.14,0-11.36,1.13-13.88,3.14-.87.7-1.36,1.46-1.45,2.27-.43,3.87,9.21,9.95,20.67,11.25,9.14,1.02,15.68-1.21,18.51-3.46,1.21-.97,1.92-2.03,2.03-3.08.45-4.02-8.61-8.5-19.78-9.77h0c-2.09-.24-4.14-.35-6.1-.35Z"/>
      <path class="cls-1" d="M270.43,171.2c-5.75-15.69-6.03-24.07-6.25-30.81-.11-3.51-.21-6.54-1.03-9.96-.8-3.34.17-10.32.81-14.94.29-2.12.5-3.65.46-4.24-.08-1.07-.39-2.44-.68-3.76-.3-1.34-.93-4.13-.52-4.39h0s.05-.02.2-.02c.98,0,3.23.99,4.75,2.79,1.2,1.41,1.68,2.97,1.43,4.63-.28,1.86,2.12,8.92,2.48,9.91l.18.49.47-.2c1.57-.66,6.24-2.97,9.34-4.5,1.24-.61,2.21-1.09,2.62-1.28,2-.96,3.44-1.4,4.51-1.4,1.16,0,1.9.52,2.91,1.23l.29.2c1.59,1.12,1.19,2.67,1.17,2.73l-.22.8.8-.18s.09-.02.22-.02c.58,0,1.69.25,2.59,1.96,1.52,2.88.76,4.49.72,4.55l-.2.4.37.25c2.69,1.79,1.17,5.8,1.16,5.84l-.08.21.1.2s1.64,3.2,1.01,5.54c-.71,2.62-2.15,4.45-6.93,4.86-10.43,4.55-9.98,5.77-9.83,6.17,1.19,3.21,3.14,6.85,4.86,10.07,1.11,2.06,2.08,3.88,2.62,5.16l-20.31,7.72Z"/>
      <path d="M263.59,103.58c.88.11,2.83.98,4.21,2.6,1.1,1.3,1.54,2.72,1.32,4.23-.33,2.16,2.48,10.09,2.51,10.17l.36.97.94-.4c1.58-.67,6.27-2.98,9.36-4.51,1.23-.61,2.21-1.09,2.62-1.28,1.93-.92,3.3-1.35,4.3-1.35s1.62.43,2.63,1.14l.29.2c1.27.89,1.01,2.06.98,2.17l-.42,1.53,1.55-.27s.07,0,.14,0c.47,0,1.37.22,2.15,1.69,1.39,2.61.74,4.04.73,4.08l-.42.8.75.5c2.34,1.55,1.02,5.09.97,5.24l-.17.43.22.4c.43.83,1.44,3.39.96,5.18-.67,2.49-1.99,4.11-6.49,4.5h-.16s-.15.08-.15.08c-10.71,4.7-10.24,5.94-9.94,6.76,1.2,3.24,3.16,6.9,4.89,10.13.97,1.81,1.83,3.43,2.39,4.64l-19.36,7.36c-5.56-15.32-5.83-23.55-6.04-30.19-.12-3.54-.22-6.59-1.05-10.06-.78-3.25.22-10.45.82-14.75.34-2.44.51-3.74.47-4.35-.08-1.1-.4-2.49-.7-3.83-.26-1.17-.69-3.05-.63-3.8h0ZM263.42,102.57c-.2,0-.35.03-.46.1-1.11.71.77,5.79.98,8.6.12,1.74-2.44,14.31-1.26,19.26,2.4,10.06-1.48,17.13,7.46,41.3l21.25-8.07c-1.15-3.08-5.61-10.16-7.66-15.7-.44-1.17,9.41-5.5,9.41-5.5,5-.43,6.61-2.43,7.36-5.22.69-2.57-1.05-5.9-1.05-5.9,0,0,1.72-4.41-1.34-6.43,0,0,.97-1.82-.73-5.02-1.04-1.97-2.4-2.22-3.02-2.22-.21,0-.33.03-.33.03,0,0,.57-1.93-1.36-3.28-1.2-.84-2.05-1.52-3.48-1.52-1.09,0-2.53.4-4.71,1.45-1.43.68-9.76,4.86-11.94,5.78-.66-1.77-2.7-8.11-2.46-9.67.74-4.96-4.79-7.99-6.67-7.99h0Z"/>
      <path class="cls-2" d="M303.47,150.03c-6.62,12.63-37.83,5.93-42.43-3.79l8.53,46.7s-8.6-11.38-30.14-22.57c-16.64-8.64-27.58-8.11-27.58-8.11l24.9,58.25c19.6,20.94,44.21,24.75,62.94,15.65,24.53-11.93,3.79-86.12,3.79-86.12Z"/>
      <path class="cls-4" d="M279.25,241.43c-15.01,0-30.31-7.1-42.91-20.56-.21-.23-.2-.58.03-.79.23-.2.58-.2.79.03,18.17,19.42,42.05,25.38,62.29,15.53,22.11-10.75,6.39-74.46,3.83-84.22-2.86,4.09-8.69,6.25-16.58,6.07-8.96-.18-20.03-3.66-24.63-8.79l8.07,44.13c.04.25-.09.5-.33.61-.23.1-.51.03-.67-.17-.08-.11-8.79-11.42-29.95-22.41-16.29-8.46-27.2-8.08-27.3-8.05-.35,0-.57-.22-.58-.53-.02-.31.22-.57.53-.58.48,0,11.28-.44,27.86,8.18,16.72,8.68,25.77,17.59,28.97,21.14l-8.16-44.67c-.05-.27.11-.54.38-.63.27-.09.55.04.67.29,2.51,5.31,14.27,10.17,25.16,10.39.24,0,.49,0,.75,0,4.82,0,12.54-.95,15.52-6.62.11-.21.34-.3.55-.3.22.02.41.18.48.4.85,3.05,20.58,74.77-4.08,86.76-6.62,3.22-13.62,4.79-20.68,4.79Z"/>
      <path d="M169.25,133.15c5.09-8.23,12.13-1.98,19.56-.59,7.45,1.4,8.8,15.56,1.7,14.79-7.1-.77-7.04,10.14-9.57,14.09-2.53,3.95-9.28,7.73-15.32,4.82-6.64-3.21-10.92-18.22-9.59-21.74,2.47-6.53,8.12-3.14,13.22-11.37Z"/>
      <path class="cls-2" d="M244.05,200.96l-32.2-38.71c-12.66-.1-25.3-2.43-37.3-.46-12.76,2.1-24.63,8.71-29.1,16.11-16.81,27.86-19.3,103.97-20.56,133.77h128.88c.26-33.69,3.72-74.72-9.72-110.71Z"/>
      <path class="cls-4" d="M253.78,312.22H124.9c-.15,0-.3-.06-.4-.17-.1-.11-.16-.26-.15-.41l.15-3.71c1.27-30.95,4.26-103.43,20.48-130.32,4.55-7.54,16.67-14.27,29.48-16.37,7.94-1.3,16.3-.73,24.4-.18,4.25.29,8.65.59,12.99.63.3,0,.55.25.55.56,0,.3-.25.55-.55.55h0c-4.37-.04-8.79-.34-13.06-.63-8.4-.58-16.34-1.12-24.14.16-12.52,2.05-24.32,8.57-28.71,15.85-16.08,26.64-19.05,98.92-20.32,129.79l-.13,3.14h127.75c.04-4.99.16-10.07.27-15.43.65-30.07,1.38-64.15-9.96-94.52-.11-.29.04-.61.33-.72.29-.11.61.04.72.33,11.41,30.57,10.68,64.77,10.03,94.94-.12,5.56-.23,10.81-.28,15.97,0,.3-.25.55-.55.55Z"/>
      <path class="cls-1" d="M193.84,177.94c-1.76,0-3.59-.43-5.44-1.28-11.86-5.44-8.51-15.07-8.36-15.48.04-.19,1.73-10.1,6.3-25.38l.18-.61-.63-.03c-.08,0-1.74-.1-3.06-1.68-1.36-1.63-1.84-4.21-1.43-7.67.49-4.09,2.82-6.43,6.39-6.43.44,0,.89.04,1.36.11l.53.08.03-.54c.01-.17,1.2-16.89,9.81-20.68,1.31-.58,2.9-.87,4.71-.87,6.19,0,13.86,3.48,18.25,8.28,2.75,3.01,4.08,6.31,3.84,9.56l-.11,1.42c-.28,3.49-.52,6.51.21,13.28.46,4.29-1.51,11.64-6.08,16.79-3.42,3.86-7.81,5.9-12.71,5.9-.93,0-1.89-.07-2.86-.21l-.46-.07-.1.46c-.06.3-1.46,7.4,2.85,15.31-.78,1.48-5.49,9.75-13.25,9.75Z"/>
      <path class="cls-4" d="M193.84,178.5c-1.83,0-3.74-.45-5.67-1.33-12.29-5.63-8.81-15.75-8.65-16.17v-.07c.61-3.29,2.42-12.33,6.27-25.2-.38-.04-2.05-.27-3.39-1.88-1.46-1.75-1.99-4.48-1.55-8.09.58-4.83,3.74-7.47,8.32-6.82.09-1.14,1.48-17.28,10.13-21.1,1.39-.61,3.05-.92,4.94-.92,6.32,0,14.17,3.56,18.66,8.46,2.86,3.13,4.24,6.58,3.98,9.97l-.11,1.42c-.28,3.5-.52,6.49.21,13.18.47,4.41-1.54,11.95-6.21,17.22-3.53,3.98-8.07,6.09-13.12,6.09-.95,0-1.91-.07-2.88-.21-.12.7-1.24,7.46,2.81,14.88.09.16.09.36,0,.52-.88,1.68-5.7,10.05-13.74,10.05ZM187.79,119.94c-3.31,0-5.38,2.11-5.84,5.94-.4,3.3.04,5.74,1.3,7.25,1.16,1.39,2.64,1.48,2.65,1.48l.63.03c.17,0,.33.09.42.23.1.14.13.32.08.48l-.18.61c-3.96,13.22-5.79,22.6-6.26,25.16l-.03.18c-.16.45-3.31,9.64,8.05,14.85,1.78.81,3.53,1.22,5.21,1.22,7.06,0,11.5-7.16,12.62-9.2-4.13-7.78-2.92-14.66-2.77-15.42l.1-.47c.06-.29.33-.47.62-.44l.46.07c.93.14,1.86.21,2.78.21,4.73,0,8.98-1.98,12.29-5.71,4.46-5.04,6.39-12.19,5.94-16.37-.73-6.79-.49-9.83-.22-13.34l.11-1.46c.23-3.08-1.05-6.24-3.7-9.14-4.3-4.69-11.8-8.09-17.84-8.09-1.74,0-3.24.28-4.49.83-8.29,3.66-9.47,20.05-9.48,20.21l-.03.54c-.01.15-.08.3-.2.4-.12.1-.3.13-.43.12l-.53-.08c-.44-.07-.87-.1-1.28-.1Z"/>
      <path d="M210.28,113.73l.07.93s-4.81.38-8.18,4.49l-.71-.59c3.63-4.43,8.62-4.81,8.82-4.82Z"/>
      <path d="M224.52,121.35l-.09.92c-4.04-.43-7.09-2.89-7.21-2.99l.57-.72s2.98,2.4,6.74,2.79Z"/>
      <path d="M219.13,132.68l-.85.34s-.34-.82-.99-.93c-.58-.1-1.34.35-2.19,1.32l-.68-.62c1.09-1.24,2.11-1.78,3.04-1.61,1.16.21,1.66,1.46,1.68,1.51Z"/>
      <path d="M205.35,121.21c.73-.33,1.56-.08,1.85.57.29.65-.07,1.45-.81,1.79-.74.33-1.56.08-1.86-.57-.29-.65.08-1.45.81-1.78Z"/>
      <path d="M204.14,121.79c-.21.46-.22.96-.02,1.4.27.61.89.99,1.61.99.29,0,.59-.06.86-.19.97-.44,1.43-1.52,1.04-2.4-.37-.86-1.51-1.24-2.46-.81-.45.21-.81.56-1.01,1ZM204.98,122.18c.11-.23.3-.43.56-.54.16-.07.33-.11.48-.11.35,0,.65.17.77.44.18.42-.08.94-.58,1.17-.49.22-1.07.07-1.25-.34-.08-.19-.07-.41.02-.62Z"/>
      <path d="M221.25,123.54c.73-.34,1.56-.08,1.86.57.29.65-.07,1.45-.81,1.78-.74.34-1.57.08-1.86-.57-.29-.65.07-1.45.81-1.79Z"/>
      <path d="M220.05,124.12c-.21.46-.22.95-.03,1.4.28.61.89.99,1.61.99.29,0,.58-.06.86-.19.46-.21.81-.57,1.01-1,.21-.46.22-.96.02-1.4-.38-.86-1.52-1.24-2.46-.8-.46.21-.82.56-1.01,1ZM220.88,124.51c.1-.23.3-.43.56-.55.15-.07.31-.11.48-.11.35,0,.65.17.76.45.09.19.08.41-.02.62-.1.24-.3.43-.56.55-.49.23-1.07.06-1.25-.34-.09-.19-.08-.42.02-.63Z"/>
      <path d="M211.41,138.37l.47.8c-.67.41-1.33.57-1.97.57-2.9,0-5.26-3.45-5.38-3.63l.75-.52s3.14,4.6,6.13,2.78Z"/>
      <path d="M200.05,89.61c20.07-1.74,22.64,10.83,22.64,10.83,13.66,8.46,6.78,22.95,6.78,22.95,0,0-2.28-14.61-10.8-15.86-10.28-1.51-12.74-7.65-12.74-7.65,1.29,6.03-1.05,10.55-7.9,14.69-6.85,4.14-6.23,15.41-6.23,15.41-2.6-2.82-2.26-10.06-4-10.47-4.87-1.14-6.88,6.26-6.88,6.26-2.95-8.33-4.15-34.13,19.15-36.15Z"/>
      <path d="M185,122c1.6-.93,3.47-.17,3.55-.14l-.35.86s-1.52-.62-2.74.09c-.83.48-1.35,1.46-1.56,2.94l-.91-.14c.25-1.77.93-2.98,2.01-3.6Z"/>
      <path d="M188.03,127.77l-.91.14s-.37-2.16-3.33-2.57l.12-.92c3.63.5,4.1,3.23,4.11,3.34Z"/>
      <path class="cls-1" d="M200.87,311.67c-.11-77.51-24.57-145.19-26.32-149.88l7.38-9.53c1.62,8.34,11.24,10.26,11.24,10.26l4.62,7.7,2.79-7.47s4.84-.92,5.95-5.41l5.32,4.92c.6,3.96,12.13,81.48,13.1,149.42h-24.07Z"/>
      <path class="cls-4" d="M224.95,312.22h-24.07c-.31,0-.55-.25-.55-.56-.11-78.97-25.22-146.83-26.29-149.68-.07-.18-.04-.38.08-.53l7.38-9.53c.14-.18.35-.25.57-.2.21.05.37.22.42.43,1.53,7.87,10.71,9.8,10.8,9.82.15.03.29.12.37.26l4.02,6.71,2.39-6.39c.07-.18.23-.31.42-.35.18-.04,4.5-.92,5.52-5,.04-.19.19-.34.38-.4.17-.05.38,0,.53.12l5.32,4.92c.1.08.16.2.17.32.12.8,12.12,80.38,13.1,149.49,0,.15-.05.29-.16.4-.1.11-.25.17-.4.17ZM201.43,311.11h22.96c-1.01-67.24-12.39-144.19-13.05-148.58l-4.54-4.19c-1.31,3.46-4.74,4.6-5.8,4.88l-2.69,7.19c-.08.2-.25.34-.47.36-.21.02-.42-.09-.53-.27l-4.49-7.49c-1.48-.36-9.09-2.56-11.15-9.49l-6.48,8.37c2.08,5.62,26.03,72.07,26.25,149.22Z"/>
      <path d="M215.76,164.81c.5.53,12.39,13.07,13.17,25.01v.23s-3.28,2.79-3.28,2.79l5.64-.87.02.53c0,.34.68,34.23-3.67,68.87l-.92-.12c4.05-32.2,3.74-63.76,3.67-68.2l-7.86,1.22,5.46-4.63c-.9-11.53-12.77-24.07-12.88-24.19l.66-.65Z"/>
      <path class="cls-1" d="M164.26,304.26c2.82,3.46,2.93,7.41,2.93,7.41h-27.19l7.98-15.07,6.26-4.17s7.2,8.37,10.02,11.83Z"/>
      <path class="cls-4" d="M167.19,312.22h-27.19c-.2,0-.37-.1-.48-.27-.1-.17-.1-.37-.01-.55l7.98-15.07c.04-.08.1-.15.18-.2l6.26-4.17c.24-.16.55-.12.73.1.07.08,7.23,8.42,10.03,11.84h0c2.91,3.56,3.05,7.58,3.05,7.75,0,.15-.05.3-.16.4-.1.11-.24.17-.4.17ZM140.92,311.11h25.66c-.15-1.18-.71-4-2.75-6.5h0c-2.45-2.99-8.26-9.78-9.69-11.45l-5.74,3.82-7.48,14.12Z"/>
      <path class="cls-2" d="M174.55,161.79c-11.26.59-28.94,8.69-33.92,14.08-10.7,11.57-23.95,44.96-28.41,66.64-4.69,22.83,27.78,69.15,27.78,69.15,13.76,0,23.45-16.46,23.45-16.46l-14.68-49.96c5.46-7.36,10.95-18.23,15.06-29.06l10.73-54.4Z"/>
      <path class="cls-4" d="M140,312.22c-.18,0-.35-.09-.46-.24-1.33-1.9-32.56-46.78-27.87-69.58,4.5-21.89,17.67-55.15,28.55-66.91,5.16-5.6,23.07-13.67,34.3-14.26h.03c.29,0,.54.23.55.53.02.31-.22.57-.53.59-11,.58-28.5,8.45-33.54,13.9-10.58,11.44-23.89,45.08-28.28,66.38-4.42,21.5,25.03,64.86,27.53,68.48,12.33-.21,21.41-14.13,22.56-15.98l-14.62-49.73c-.05-.17-.02-.35.09-.49,5.22-7.03,10.68-17.57,14.99-28.92.11-.28.43-.44.72-.32.29.11.43.43.33.72-4.3,11.32-9.74,21.86-14.97,28.97l14.61,49.7c.04.15.03.31-.05.44-.4.68-10.01,16.73-23.93,16.73Z"/>
      <path d="M165.98,191.97v-.21c-.27-11.87,4.86-27.18,4.9-27.34l.87.3c-.05.15-5.07,15.14-4.87,26.81l4.93,4.26-6.2-.66c3.8,5.47,22.26,36.5,28.03,67.81l-.89.18c-6.3-34.11-28.23-67.94-28.47-68.28l-.62-.85,5.3.57-2.98-2.58Z"/>
    </g>
  </g>
</svg>