<?xml version="1.0" encoding="UTF-8"?>
<svg id="Capa_2" data-name="Capa 2" xmlns="http://www.w3.org/2000/svg" viewBox="0 0 1018.91 1008.32">
  <defs>
    <style>
      .cls-1 {
        fill: #fff;
      }

      .cls-2 {
        fill: #abfb4f;
      }

      .cls-3 {
        fill: blue;
      }

      .cls-4 {
        fill: #010101;
      }
    </style>
  </defs>
  <g id="Capa_1-2" data-name="Capa 1">
    <g>
      <g>
        <g>
          <path class="cls-3" d="M863.88,228.32c-43.57-61.39-104.42-110.57-175.93-142.22-58.53-25.93-120.78-39.07-184.99-39.07-11.55,0-23.33.44-35.11,1.36l-103.65,20.03c-113.29,35.81-203.74,111.41-254.69,212.92-27.69,55.2-41.67,113.99-41.53,174.72l.02,2h142.82v-2c-.07-97.96,55.89-189.18,146.08-238.05,44.39-24.07,94.78-36.79,145.76-36.79,97.97,0,187.52,45.64,241.77,121.95,3.46,4.86,7.8,11.9,11.26,17.46l116.7-79.86c-2.77-4.18-5.6-8.33-8.52-12.44Z"/>
          <path class="cls-3" d="M210.82,459.88H68c-1,0-1.82-.81-1.82-1.81l-.02-2c-.13-61.03,13.88-120.1,41.7-175.56,51.18-101.94,142-177.89,255.76-213.84l103.86-20.08c11.8-.93,23.67-1.39,35.47-1.39,64.48,0,127,13.2,185.72,39.23,71.84,31.77,132.92,81.17,176.7,142.82h0c2.92,4.13,5.77,8.3,8.55,12.5.52.83.3,1.94-.5,2.5l-116.7,79.86c-.39.29-.93.38-1.39.28-.5-.1-.93-.39-1.2-.82l-.25-.41c-3.4-5.46-7.61-12.26-10.96-16.97-53.96-75.87-143.78-121.16-240.27-121.16-50.65,0-100.76,12.64-144.91,36.57-89.59,48.55-145.19,139.15-145.12,236.45v2c0,1.01-.8,1.83-1.82,1.83ZM69.8,456.23l139.21-.17c-.07-98.64,56.24-190.47,147.01-239.66,44.68-24.21,95.4-37.02,146.66-37.02,97.66,0,188.61,45.87,243.25,122.7,3.15,4.46,7.04,10.68,10.32,15.94l113.63-77.76c-2.43-3.66-4.92-7.29-7.45-10.89h-.04c-43.38-61.14-103.95-110.1-175.17-141.61-58.29-25.82-120.28-38.91-184.26-38.91-11.69,0-23.47.45-34.97,1.35l-103.47,20c-112.6,35.61-202.65,110.9-253.37,211.95-27.57,54.94-41.49,113.45-41.35,173.9v.17Z"/>
        </g>
        <g>
          <path class="cls-1" d="M503.47,36.09c-61.72,0-121.44,11.8-177.45,35.08l-1.92.8,62.48,132.8,1.76-.76c35.27-14.96,73.94-22.55,114.86-22.55,13.24,0,26.8.82,40.35,2.41l1.92.24,19.09-144.06-1.98-.25c-19.39-2.48-39.3-3.72-59.12-3.72Z"/>
          <path class="cls-4" d="M386.58,206.6c-.68,0-1.32-.39-1.66-1.05l-62.46-132.8c-.23-.45-.25-.97-.05-1.43.2-.46.53-.84,1.01-1.02l1.92-.79c56.19-23.38,116.13-35.23,178.13-35.23,19.98,0,39.96,1.26,59.35,3.73l1.98.25c.48.06.91.31,1.21.69.3.38.43.87.38,1.36l-19.09,144.06c-.14.99-.82,1.69-2.05,1.57l-1.91-.24c-55.53-6.49-107.93.37-154.26,20.01l-1.76.75c-.23.1-.48.15-.73.15ZM326.55,72.93l60.93,129.47.14-.06c46.93-19.91,99.94-26.89,156.14-20.27l.14.02,18.61-140.45-.16-.02c-19.23-2.45-39.05-3.7-58.88-3.7-61.52,0-120.96,11.75-176.76,34.95l-.16.06Z"/>
        </g>
        <g>
          <path class="cls-2" d="M295.31,1.82l-1.74.74C151.51,62.52,45.38,178.6,2.41,321.03l-.59,1.99,219.42,60.3c43.93-141.24,169.04-180.11,169.04-180.11L295.31,1.82Z"/>
          <path class="cls-4" d="M221.24,385.14c-.16,0-.3-.03-.46-.07L1.34,324.77c-.46-.12-.87-.44-1.1-.86-.25-.44-.3-.94-.16-1.41l.59-1.99C43.8,177.54,150.3,61.04,292.87.88l1.75-.74c.89-.38,1.92.04,2.35.91l94.95,201.38c.21.47.25,1.02.04,1.51-.23.49-.64.86-1.14,1.02-1.23.38-124.71,40.27-167.82,178.91-.23.77-.96,1.28-1.75,1.28ZM4.1,321.75l215.93,59.34c41.12-129.47,151.54-173.18,167.72-178.96L294.4,4.18l-.12.06C152.72,63.98,46.97,179.64,4.16,321.55l-.05.2Z"/>
        </g>
        <path class="cls-1" d="M136.91,134.13h131.31c1.53,0,2.78,1.24,2.78,2.78v131.31c0,1.53-1.24,2.78-2.78,2.78h-131.31c-1.53,0-2.78-1.24-2.78-2.78v-131.31c0-1.53,1.24-2.78,2.78-2.78Z"/>
        <polygon class="cls-3" points="200.09 251.22 158.14 209.27 177.49 189.91 200.09 212.51 284.39 128.21 303.74 147.57 200.09 251.22"/>
        <g>
          <path d="M947.85,191.54l-1.11-1.68-191.05,130.76.93,1.62c5.11,8.88,27.11,49.62,34.31,101.54l226.14-59.49c-8.36-51.52-27.07-108.76-69.22-172.75Z"/>
          <path d="M790.93,425.61c-.36,0-.7-.11-1.02-.31-.43-.28-.71-.75-.78-1.26-7.25-52.27-29.67-93.21-34.09-100.89l-.91-1.61c-.47-.83-.25-1.88.54-2.42l191.05-130.77c.39-.28.93-.4,1.39-.29.48.1.93.38,1.18.79l1.11,1.69c36.91,56.05,59.65,112.79,69.5,173.45.14.93-.45,1.82-1.35,2.06l-226.14,59.49c-.16.04-.3.06-.47.06ZM758.12,321.17l.11.15c4.42,7.68,26.59,48.2,34.22,100.17l222.56-58.54c-9.91-59.52-32.38-115.29-68.68-170.39h0s-.09-.14-.09-.14l-188.11,128.76Z"/>
        </g>
      </g>
      <g>
        <path class="cls-4" d="M549.43,128.8c-11.57-21.55-26.48-33.43-41.99-33.43-5.95,0-11.89,1.76-17.64,5.24-2.89-9.53-14.85-34.68-60.41-34.68-11.89,0-25.42,1.72-40.19,5.12-62.29,14.32-77.06,10.19-77.15,10.18-.86-.32-1.85-.11-2.51.51-.69.61-.98,1.54-.69,2.42.27.86,5.79,17.99,24.54,27.4-7.86,1.07-17.57,4.02-24.83,11.6-7.43,7.8-10.82,18.97-9.98,33.21,1.67,29.35,13.04,43.82,22.19,55.44,6.1,7.73,10.93,13.88,11.09,22.29.13,6.45-3.67,13.38-7.73,20.75-8.95,16.29-20.12,36.55,11.03,59.43,42.29,31.05,81.34,46.81,116,46.81s66.44-17.5,89.95-51.98c36.82-54,33.15-134.06,8.34-180.3Z"/>
        <g>
          <path class="cls-1" d="M533.32,225.95c.48-.04,1.05-.07,1.67-.07,6.84,0,15.45,2.24,17.43,12.79,4.22,22.31-5.88,36.35-11.51,42.18l-7.59-54.91Z"/>
          <path d="M536.28,228.49c7.79.35,12.35,3.94,13.6,10.66,3.24,17.01-2.21,28.83-7.18,35.65l-6.42-46.31h0ZM534.98,223.32c-2.73,0-4.6.36-4.6.36l8.64,62.39s22.01-15.82,15.97-47.88c-2.44-12.94-13.61-14.87-20.01-14.87h0Z"/>
        </g>
        <g>
          <path class="cls-1" d="M438.85,1006.64c1.46-26.37,5.09-109.86,3.12-200.82-1.62-74.33-30.21-136.53-53.18-186.49-11.65-25.36-21.71-47.28-26.3-66.26-14.65-60.52-21.49-98.55,20.12-117.58,23.44-10.71,60.75-17.36,97.41-17.36,24.27,0,44.48,2.93,55.41,8.06,15.52,7.27,37.89,35.82,54.46,69.44,78.68,159.86,76.45,467.01,74.16,511.01h-225.19Z"/>
          <path class="cls-4" d="M664.04,1008.32h-225.19c-.45,0-.89-.19-1.21-.53-.32-.34-.48-.78-.45-1.25.54-9.92,5.29-99.79,3.1-200.7-1.62-73.97-30.12-135.96-53.02-185.79-11.74-25.57-21.81-47.5-26.43-66.61-14.83-61.33-21.74-99.93,21.07-119.5,23.63-10.8,61.23-17.51,98.11-17.51,24.54,0,45,3,56.12,8.23,15.79,7.4,38.51,36.27,55.25,70.21,75.1,152.58,77.72,447.12,74.33,511.85-.05.89-.79,1.6-1.67,1.6ZM440.63,1004.96h221.83c3.23-67.65.11-357.88-74.08-508.6-16.43-33.31-38.5-61.55-53.65-68.66-10.71-5.02-30.65-7.89-54.71-7.89-36.43,0-73.5,6.59-96.7,17.2-40.44,18.48-33.63,55.99-19.19,115.66,4.55,18.78,14.54,40.58,26.13,65.81,23.11,50.27,51.77,112.63,53.37,187.3,2.12,96.58-2.14,183.07-2.99,199.18Z"/>
        </g>
        <g>
          <path class="cls-1" d="M362.91,305.59c-6.75-4.42-19.73-15.79-20.58-38.72-.47-12.62,10.71-15.81,15.84-16.59l4.74,55.31Z"/>
          <path d="M355.82,253.39l4.03,46.63c-6.38-5.58-14.26-15.94-14.92-33.23-.36-8.75,6.1-12.12,10.89-13.4h0ZM360.5,247.44s-21.49.81-20.76,19.52c1.23,32.6,26.22,43.23,26.22,43.23l-5.45-62.75h0Z"/>
        </g>
        <g>
          <path class="cls-1" d="M468.77,429.72c-20.46,0-48.29-8.61-56.19-11.19,4.1-18.83,4.1-34.93,3.88-40.88l87.74-11.06c-.55,14.53,2.74,41.16,3.56,47.5-10.18,9.07-20.94,14.09-32.83,15.34-1.96.2-4.01.29-6.17.29Z"/>
          <path class="cls-4" d="M468.77,431.41c-20.6,0-48.62-8.64-56.73-11.28-.82-.27-1.28-1.11-1.1-1.96,4.21-19.38,4.01-35.87,3.85-40.45-.04-.87.6-1.62,1.46-1.73l87.74-11.06c.47-.04.98.1,1.34.43.37.34.55.81.55,1.31-.55,14.53,2.87,41.88,3.56,47.22.07.55-.14,1.1-.55,1.47-10.46,9.32-21.51,14.47-33.77,15.76-2.03.2-4.13.3-6.35.3ZM414.52,417.4c10.52,3.35,41.08,12.22,60.24,10.35,11.3-1.18,21.51-5.87,31.24-14.34-1.05-8.13-3.74-30.77-3.53-44.91l-84.28,10.62c.11,6.01-.04,20.9-3.67,38.27Z"/>
        </g>
        <g>
          <path class="cls-1" d="M450.63,400.73c-6.31-14.13-19.48-14.62-31.15-15.05-8.25-.29-16.06-.59-21.26-5.26-21.48-19.25-26.23-51.67-29.99-77.71-.95-6.3-1.82-12.16-2.82-17.33-4.83-24.45-5.31-80.76-2.82-99.59,1.96-15.01,28.94-44.21,71.45-44.21,8.14,0,16.56,1.1,24.98,3.25l.66.17.68-.19c.07-.02,6.38-1.75,14.99-1.75,18.16,0,41.4,7.34,48.99,42.34,5.13,23.68,12.9,73.89,14.83,100.66.25,3.38.55,6.94.89,10.67,2.09,24.19,4.7,54.28-8.57,69.68-18.46,21.39-44.16,32.29-80.86,34.32Z"/>
          <path d="M434.04,144.15h0c7.95,0,16.13,1.04,24.34,3.16l1.34.33,1.35-.37c.07-.02,6.08-1.65,14.28-1.65,17.22,0,39.25,6.99,46.44,40.3,5.13,23.66,12.87,73.67,14.81,100.3.23,3.39.53,6.96.85,10.68,2.07,23.72,4.65,53.25-7.95,67.84-17.68,20.46-42.29,31.09-77.28,33.3-7.22-14-21.24-14.53-32.67-14.93-7.75-.29-15.13-.56-19.62-4.6-20.76-18.65-25.45-50.54-29.19-76.19-.89-6.28-1.78-12.2-2.82-17.46-4.79-24.2-5.22-80.07-2.78-98.78,1.85-14.24,27.87-41.95,68.88-41.95h0ZM434.04,139c-43.58,0-71.88,29.88-74.03,46.45-2.59,19.66-2.01,75.92,2.85,100.42,5.24,26.54,6.13,71.81,33.61,96.47,14.17,12.72,43.27-3.35,52.45,21.05,33.35-1.56,62.84-10.19,84.53-35.3,16.09-18.63,10.19-56.33,8.32-82.21-1.87-25.89-9.48-76.07-14.88-101.01-8.2-37.81-34.4-44.38-51.54-44.38-9.12,0-15.68,1.85-15.68,1.85-9.03-2.3-17.57-3.33-25.62-3.33h0Z"/>
        </g>
        <path class="cls-4" d="M392.21,300.09c-11.05,0-20.39-2.61-28.09-6.94,4.33,26.93,7.25,66.66,32.35,89.19,14.17,12.72,43.27-3.35,52.45,21.05,33.35-1.56,62.84-10.19,84.55-35.3,16.07-18.63,10.18-56.33,8.31-82.21-.25-3.33-.68-7.51-1.23-12.22-8.07,5.04-18.04,8.1-30.05,8.1-14.78,0-23.19-6.24-34.57-8.01-15.2-2.34-29.9,1.53-39.76,8.54-12.51,8.91-23.86,17.8-43.95,17.8ZM432.79,314.14c-.27-6.16,5.58-11.73,11.71-11.58,2.12.05,4.24.05,6.36-.05.94-.04,1.87-.1,2.83-.19.23-.02.89-.1,1.43-.14.59-.09,1.37-.22,1.64-.27.87-.17,1.76-.35,2.62-.54,1.76-.39,3.47-.85,5.17-1.39,1.67-.52,3.29-1.2,4.92-1.79.27-.11.52-.21.78-.32.82-.4,1.66-.8,2.5-1.22,3.53-1.75,6.92-3.71,10.25-5.79,5.56-3.44,12.65-.97,16,4.16,3.51,5.35.98,12.61-4.19,15.82-7.56,4.68-15.52,8.79-24.04,11.44-8.41,2.67-17.48,3.64-26.27,3.43-6.56-.18-11.41-5.17-11.71-11.57Z"/>
        <path class="cls-4" d="M447.72,310.01c.23,0,21.74-1.03,37.07-18.52.87-1.01,2.42-1.11,3.44-.24,1,.85,1.12,2.39.23,3.39-16.68,19.02-39.56,20.13-40.54,20.16h-.05c-1.32,0-2.41-1.01-2.46-2.3-.07-1.33,1-2.44,2.32-2.5Z"/>
        <g>
          <path class="cls-4" d="M364.39,222.89c-1.64,2.34-2.19,5.26-1.51,8.03l3.23,13.22c2.28,9.31,10.6,15.8,20.28,15.8.82,0,1.64-.04,2.46-.13l31.1-3.62c10.46-1.24,18.39-10.02,18.43-20.47l.05-13.59c0-2.67-1.03-5.17-2.94-7.07-2.17-2.17-5.12-3.23-8.27-2.84l-55.75,6.49c-2.85.34-5.43,1.85-7.08,4.18ZM368.38,225.64c.86-1.22,2.16-1.99,3.63-2.17l55.75-6.5c.2,0,.43-.03.62-.03,1.36,0,2.68.54,3.65,1.51,1,.98,1.53,2.28,1.53,3.67l-.07,13.59c0,8-6.1,14.76-14.13,15.71l-31.1,3.62c-8.13.95-15.56-4.29-17.45-12.05l-3.24-13.22c-.36-1.44-.07-2.9.8-4.14Z"/>
          <path class="cls-4" d="M452.68,212.62c-1.66,2.34-2.19,5.28-1.53,8.03l3.22,13.21c2.28,9.31,10.62,15.82,20.28,15.82h0c.8,0,1.64-.05,2.46-.15l31.08-3.63c10.5-1.2,18.41-10,18.45-20.45l.05-13.61c.02-2.66-1.03-5.17-2.92-7.04-2.19-2.17-5.2-3.23-8.29-2.87l-55.74,6.5c-2.85.33-5.44,1.86-7.06,4.19ZM456.65,215.36c.85-1.23,2.17-2,3.67-2.16l55.71-6.49c.2-.04.41-.05.61-.05,1.41,0,2.67.55,3.69,1.53.98.97,1.49,2.26,1.49,3.65l-.04,13.6c-.02,8.04-6.11,14.78-14.17,15.71l-31.08,3.63c-8.16.97-15.58-4.3-17.45-12.03l-3.23-13.24c-.36-1.44-.11-2.92.79-4.14Z"/>
          <path class="cls-4" d="M454.92,218.12c1.07.78,1.33,2.26.57,3.37-.78,1.07-2.28,1.31-3.4.56-7.48-5.28-14.06,1.43-14.35,1.73-.48.5-1.1.74-1.75.74-.61,0-1.21-.21-1.69-.65-.95-.9-1-2.41-.11-3.39,3.31-3.5,11.89-8.52,20.73-2.36Z"/>
        </g>
        <path class="cls-4" d="M462.28,183.96c.57-.21,14.36-5.19,38.44,2.75,1.27.43,1.94,1.78,1.52,3.05-.32,1.02-1.28,1.63-2.3,1.63-.23,0-.48-.03-.75-.11-22.29-7.36-35.09-2.88-35.22-2.84-1.25.47-2.66-.17-3.1-1.42-.48-1.22.14-2.6,1.41-3.07Z"/>
        <path class="cls-4" d="M382.67,189.93c21.64-13.1,36.2-11.38,36.8-11.29,1.33.18,2.25,1.38,2.09,2.68-.18,1.32-1.46,2.23-2.69,2.08-.14-.04-13.65-1.5-33.68,10.64-.39.23-.82.33-1.27.33-.8,0-1.6-.39-2.05-1.12-.69-1.14-.34-2.61.8-3.31Z"/>
        <path class="cls-4" d="M404.36,229.94c3.13,0,5.67,2.51,5.67,5.61s-2.53,5.61-5.67,5.61-5.65-2.51-5.65-5.61,2.55-5.61,5.65-5.61Z"/>
        <path class="cls-4" d="M488.29,220.24c3.15,0,5.68,2.53,5.68,5.61s-2.53,5.6-5.68,5.6-5.67-2.49-5.67-5.6,2.55-5.61,5.67-5.61Z"/>
        <g>
          <path class="cls-3" d="M286.85,460.01c44.91-20.53,96.93-32.65,96.93-32.65,0,0,44.23,207.67,49.01,245.32,21.46,169.33,19.62,333.95,19.62,333.95h-163.21s6.02-92.81,3.62-203.92c-2.41-111.12-56.4-174.19-70.23-231.43-13.54-55.95,19.39-90.76,64.26-111.28Z"/>
          <path class="cls-4" d="M452.41,1008.32h-163.21c-.47,0-.91-.2-1.23-.54-.32-.34-.48-.79-.45-1.26.05-.93,6.01-94.01,3.62-203.77-1.58-73.36-26.2-126.59-45.96-169.35-10.48-22.69-19.53-42.29-24.24-61.72-11.89-49.12,10.68-88.26,65.21-113.19h0c44.55-20.37,96.73-32.64,97.25-32.76.39-.11.89-.03,1.28.21.38.25.64.63.73,1.07.45,2.08,44.3,208.17,49.05,245.46,21.23,167.52,19.64,332.53,19.62,334.18,0,.92-.77,1.67-1.68,1.67ZM290.98,1004.96h159.75c.11-17.75.45-173.81-19.62-332.06-4.47-35.36-44.39-223.59-48.6-243.5-9.26,2.26-55.19,13.95-94.95,32.13h0c-36.89,16.87-77.83,49.53-63.34,109.36,4.6,19.11,13.61,38.57,24,61.1,19.91,43.05,44.66,96.63,46.27,170.69,2.21,101.53-2.71,188.82-3.51,202.28Z"/>
        </g>
        <g>
          <path class="cls-1" d="M732.94,907.98c-1.23,0-2.48-.04-3.78-.12-16.09-.91-34.88-17.85-46.37-34.24-10.73-15.3-15.66-30.36-12.85-39.29,7.08-22.73,41.49-50.49,71.57-50.49.48,0,.98,0,1.44.02l50.47,52.41c.66,3.82,2.82,22.55-18.11,30.85-24.7,9.77-38.19,12.36-38.32,12.38l.86,5.08c.07,0,7.38-1.08,14.84-1.08,10.28,0,13.3,1.96,14.11,2.83,1.92,1.97,2.3,4.18,1.16,6.8-3.14,7.31-17.13,14.85-35.04,14.85Z"/>
          <path class="cls-4" d="M732.94,909.66c-1.26,0-2.55-.04-3.87-.13-16.65-.93-35.95-18.23-47.66-34.96-11.03-15.73-16.04-31.35-13.1-40.75,7.25-23.26,42.45-51.67,73.19-51.67.94,0,1.98-.14,2.65.54l50.47,52.4c.23.24.37.55.45.88.68,3.92,2.92,23.95-19.14,32.69-20.08,7.95-32.67,11.14-37.02,12.12l.3,1.9c2.71-.33,8.02-.88,13.47-.88,10.07,0,13.88,1.83,15.33,3.36,2.39,2.45,2.91,5.37,1.5,8.62-3.31,7.7-17.25,15.88-36.59,15.88ZM741.59,785.52h-.07c-29.41,0-63.05,27.11-69.97,49.3-2.65,8.44,2.17,22.93,12.62,37.82,11.26,16.07,29.56,32.67,45.11,33.54,1.26.07,2.48.11,3.67.11,17.02,0,30.64-7.18,33.51-13.84.87-2,.62-3.48-.82-4.96-.25-.25-2.5-2.32-12.92-2.32-6.91,0-13.83.94-14.58,1.05-.91.2-1.76-.47-1.92-1.37l-.86-5.08c-.09-.45.02-.92.3-1.28.27-.37.69-.6,1.14-.67.05-.02,13.23-2.51,37.91-12.27,18.55-7.35,17.98-23.08,17.16-28.51l-49.63-51.52h-.64Z"/>
        </g>
        <g>
          <path class="cls-3" d="M954.29,704.26c0,79.57-164.26,179.13-164.26,179.13,0,0-16.38-65.43-61.88-97.88,0,0,42-44.71,72.35-68.09,0,0-88.61-41.74-104.18-55.73l-166.76-245.07s100.55-18.58,232.54,73.35c66.3,46.16,192.19,134.41,192.19,214.3Z"/>
          <path class="cls-4" d="M790.03,885.08c-.2,0-.41-.04-.63-.13-.5-.2-.85-.62-1-1.14-.16-.65-16.77-65.21-61.22-96.93-.41-.29-.66-.71-.71-1.2-.04-.48.13-.95.45-1.31.41-.45,40.47-42.99,70.39-66.59-14.74-6.99-87.81-41.98-102.12-54.83l-167.03-245.38c-.32-.46-.39-1.07-.18-1.59.23-.53.7-.9,1.25-1.01,1.07-.21,102.78-17.66,233.82,73.61,62.62,43.6,192.9,134.34,192.9,215.68s-158.31,176.49-165.07,180.57c-.27.17-.57.25-.87.25ZM730.69,785.28c39.64,29.36,57.03,83.9,60.36,95.51,18.25-11.42,161.55-103.39,161.55-176.52,0-79.58-129.33-169.64-191.48-212.92-118.23-82.34-212.06-75.47-228.67-73.43l165.24,242.84c14.94,13.37,102.63,54.73,103.51,55.16.53.24.89.75.96,1.34.05.58-.2,1.15-.66,1.51-26.91,20.73-63.48,58.8-70.82,66.53Z"/>
        </g>
        <path class="cls-3" d="M704.43,556.92l-174.87-140.29s83.17,156.29,83.17,367.22c0,113.45,51.31,222.8,51.31,222.8h78s-14.54-302.46-37.62-449.72Z"/>
        <path class="cls-4" d="M742.05,1008.32h-78c-.66,0-1.25-.38-1.52-.96-.52-1.11-51.47-110.99-51.47-223.52,0-208.1-82.16-364.86-82.98-366.42-.45-.82-.13-1.83.7-2.27.82-.44,1.83-.11,2.26.69.84,1.57,83.37,159.07,83.37,368,0,106.16,45.7,210.05,50.72,221.12h75.15c-1.23-25.08-15.61-308.12-37.51-447.78-.14-.92.48-1.78,1.41-1.92,1.07-.18,1.76.48,1.91,1.39,22.87,145.67,37.5,446.88,37.64,449.9.04.46-.14.91-.46,1.24-.3.34-.75.53-1.21.53Z"/>
        <path class="cls-4" d="M442.8,259.14c-.38.83-1.44,4.24-.25,5.86.89,1.25,3.23,1.31,5.01,1.17l.39,4.78c-.55.05-1.1.09-1.66.09-3.55,0-6.15-1.1-7.68-3.23-2.94-4.03-.55-9.91-.27-10.56l4.46,1.9Z"/>
        <g>
          <g>
            <g>
              <path class="cls-1" d="M47.06,393.53c6.26-5.19,13.38-14.26,23.93-21.68,10.52-7.43,16.86-3.02,27.22-4.58,10.39-1.54,16.88,4.59,14.63,9.31-2.19,4.73-13.6,8.11-13.6,8.11,0,0,16.36,1.5,25.75,3.17,9.34,1.69,16.11,6.23,17.43,7.56,1.32,1.34,5.67,8.39,5.67,8.39,0,0,28.19,21.99,22.08,32.19-6.52,10.91-21.81-7.32-21.81-7.32-5.54,2.67-13.05-2.18-13.05-2.18-1.66,17.98,7.04,19.24,42.04,32.99,35.02,13.74,11.8,23.81,20.19,41.3,8.4,17.5,26.95,57.98,26.95,57.98-16.73,65.83-67.4,67.56-67.4,67.56,0,0-1.07-95.4-36.27-123.92-35.18-28.51-64.34-13.89-67.85-47.41-3.53-33.52-12.17-56.27-5.92-61.48Z"/>
              <path d="M155.29,628.2l-.02-1.85c0-.94-1.46-94.87-35.61-122.54-14.62-11.84-28.32-16.15-39.34-19.61-15.7-4.94-27.03-8.5-29.19-29.01-1.32-12.65-3.42-23.93-5.09-33-3.01-16.31-4.85-26.13-.16-30.04,2.26-1.87,4.74-4.37,7.34-7,4.67-4.7,9.94-10.02,16.7-14.77,7.89-5.58,13.28-4.95,18.93-4.69,2.99.15,6.26.22,9.11-.2,1.21-.19,2.35-.26,3.47-.26,5.47,0,10.27,2.13,12.48,5.57,1.35,2.08,1.57,4.47.59,6.54-1.21,2.61-4.47,4.75-7.64,6.3,5.56.6,13.1,1.5,18.45,2.45,9.73,1.75,16.91,6.54,18.43,8.08,1.3,1.31,4.7,6.77,5.74,8.42,4.01,3.15,28.86,23.37,22.26,34.33-2.16,3.61-5.08,4.36-7.16,4.36-6.68,0-14.13-7.57-16.74-10.45-3.49,1.08-8.14-.17-10.87-1.42-.37,12.39,6.15,14.9,31.21,24.57,3.03,1.18,6.31,2.44,9.85,3.83,23.85,9.35,22.13,17.85,20.35,26.83-.95,4.73-1.94,9.64.82,15.39,8.31,17.31,26.79,57.61,26.97,58.01l.27.58-.14.6c-16.88,66.38-68.59,68.89-69.11,68.91l-1.87.07ZM84.84,369.16c-3.58,0-7.63.5-12.81,4.15-6.47,4.57-11.64,9.77-16.2,14.36-2.68,2.7-5.21,5.24-7.59,7.24-3.07,2.54-1.11,13.17,1.41,26.63,1.69,9.12,3.78,20.48,5.13,33.27,1.91,18.16,11.23,21.09,26.66,25.95,11.32,3.55,25.4,7.98,40.54,20.25,33.08,26.8,36.53,109.28,36.89,123.36,9.21-1,48.99-8.59,63.71-65.42-2.3-5.02-18.95-41.24-26.68-57.39-3.28-6.83-2.14-12.56-1.12-17.63,1.69-8.43,2.91-14.53-18.11-22.77-3.55-1.4-6.83-2.66-9.84-3.82-26.84-10.36-34.95-13.49-33.34-31.01l.27-2.97,2.53,1.62c.05.03,4.26,2.68,8.31,2.68,1.12,0,2.12-.21,2.98-.61l1.28-.62.91,1.09c2.37,2.82,9.66,10.15,14.79,10.15,1.71,0,2.99-.83,4.05-2.59,3.87-6.43-11.21-21.73-21.65-29.86l-.43-.48c-1.75-2.86-4.6-7.24-5.42-8.05-.75-.78-7-5.36-16.45-7.05-9.18-1.65-25.41-3.15-25.57-3.16l-9.32-.85,8.97-2.66c4.1-1.23,11.12-4.24,12.48-7.14.57-1.22.13-2.36-.38-3.1-1.35-2.13-5.77-4.65-12.33-3.69-3.07.48-6.6.43-9.84.25-1.28-.06-2.55-.13-3.81-.13Z"/>
            </g>
            <path d="M65.73,405.15l-.94-1.59,1.57-1.02c.07-.05,7.5-4.93,14.7-17.21l.52-.88,1.02-.08c.13,0,12.65-1.02,17.77-1.77,1.09-.14,2.08.57,2.23,1.64.16,1.08-.59,2.05-1.66,2.22-4.42.65-13.87,1.46-17,1.73-5.65,9.37-11.34,14.51-13.95,16.55,4.42,8.56,3.01,14.54,2.96,14.82-.16.68-.68,1.2-1.32,1.39-.3.1-.66.11-1.05.03-1.03-.24-1.69-1.28-1.46-2.33.02-.05,1.2-5.59-3.37-13.48Z"/>
            <path d="M110.54,418.9c3.33-6.66,11.17-17.87,17.55-19.34,5.63-1.32,18.96,1.98,20.46,2.35,1.07.27,1.69,1.31,1.43,2.37-.25,1.03-1.34,1.67-2.37,1.4-3.83-.96-14.63-3.25-18.61-2.32-4.21.86-11.19,9.72-14.94,17.26-4.01,8.03-6.51,19-6.54,19.11-.14.7-.68,1.23-1.32,1.42-.32.11-.66.13-1.02.05-1.07-.22-1.75-1.28-1.49-2.34.09-.45,2.62-11.54,6.84-19.99Z"/>
            <path d="M91.2,384.04c.79-.74,2.03-.74,2.8.04.73.78.71,2-.05,2.76-14.72,14.16-23.6,41.83-23.67,42.09-.22.63-.7,1.1-1.3,1.29-.38.12-.79.12-1.18,0-1.05-.31-1.62-1.43-1.3-2.44.38-1.18,9.25-28.88,24.7-43.74Z"/>
            <path d="M103.53,396.21c12.39-9.3,41.06,2.72,42.29,3.23,1,.44,1.46,1.58,1.02,2.58-.43.98-1.59,1.43-2.59,1.02-7.7-3.24-29.58-10.22-38.33-3.7-11.05,8.29-21.79,31.7-21.92,31.93-.23.53-.68.9-1.19,1.07-.45.14-.95.13-1.41-.08-1-.45-1.43-1.61-.98-2.58.45-1,11.26-24.58,23.12-33.46Z"/>
          </g>
          <g>
            <path class="cls-3" d="M319.32,712.88c25.59,144.46-44.59,192.89-107.73,146.87-99.84-72.71-101.24-293.51-101.24-293.51l126.41-47.32s72.41,136.71,82.56,193.96Z"/>
            <path class="cls-4" d="M257.39,878.27c-15.1,0-31.17-5.77-46.78-17.15-99.39-72.37-101.94-292.64-101.94-294.86-.02-.7.43-1.34,1.07-1.59l126.43-47.33c.79-.31,1.67.04,2.07.78.73,1.37,72.66,137.61,82.74,194.46h0c13.58,76.68.87,135.45-34,157.23-9.07,5.65-19.09,8.45-29.58,8.45ZM112.02,567.4c.34,17.44,6.27,222.33,100.55,290.98,25.32,18.46,51.79,21.56,72.6,8.58,33.68-21.03,45.82-78.53,32.49-153.79h0c-9.46-53.38-74.28-178.01-81.71-192.16l-123.93,46.39Z"/>
          </g>
        </g>
        <g>
          <path class="cls-1" d="M451.43,474c-42.04-15.68-67.65-46.64-67.65-46.64,14.45-13.84,30.24-16.32,30.24-16.32,11.81,7.08,33.54,16.85,61.72,18.29-10.41,4.99-24.31,23.69-24.31,44.67Z"/>
          <path class="cls-4" d="M451.43,475.68c-.2,0-.39-.04-.59-.11-41.97-15.66-68.09-46.83-68.34-47.14-.57-.69-.52-1.68.13-2.29,14.67-14.04,30.46-16.66,31.13-16.76.38-.08.8,0,1.14.21,10.16,6.1,31.6,16.56,60.92,18.06.78.04,1.41.6,1.57,1.35.16.76-.23,1.51-.93,1.84-9.53,4.57-23.35,22.58-23.35,43.15,0,.55-.25,1.07-.71,1.38-.29.2-.61.3-.96.3ZM386.11,427.49c5.08,5.69,28.46,30.31,63.69,44.1.87-18.17,11.3-33.78,20.68-40.94-26.9-2.37-46.75-11.91-56.78-17.84-2.82.59-15.56,3.73-27.59,14.68Z"/>
        </g>
        <g>
          <path class="cls-1" d="M518.81,465.5c-8.87-20.22-30.62-34.21-43.07-36.17,11.14-5.07,28.35-19.46,31.12-22.74,8.59.28,19.32,6.37,22.7,10.03,3.99,16.4-9.02,40.7-10.75,48.88Z"/>
          <path class="cls-4" d="M518.81,467.17c-.66,0-1.26-.39-1.55-1.01-8.68-19.78-30.21-33.36-41.79-35.18-.75-.12-1.3-.69-1.39-1.42-.13-.74.27-1.45.96-1.76,10.96-5,27.84-19.11,30.53-22.3.34-.38.84-.53,1.33-.6,8.89.29,20.08,6.46,23.88,10.58.2.21.32.47.39.74,3.05,12.49-3.3,29.18-7.5,40.22-1.48,3.93-2.78,7.32-3.23,9.39-.14.71-.75,1.26-1.46,1.33-.07,0-.13,0-.18,0ZM480.51,428.77c11.98,3.78,28.94,15.42,37.93,32.13.59-1.66,1.3-3.54,2.1-5.64,3.99-10.52,10.03-26.37,7.49-37.81-3.49-3.49-12.89-8.59-20.46-9.14-3.62,3.74-16.66,14.58-27.06,20.46Z"/>
        </g>
      </g>
    </g>
  </g>
</svg>