<?xml version="1.0" encoding="UTF-8"?>
<svg id="Capa_2" data-name="Capa 2" xmlns="http://www.w3.org/2000/svg" viewBox="0 0 289.64 226.8">
  <defs>
    <style>
      .cls-1 {
        fill: #282d33;
      }

      .cls-2 {
        fill: #fff;
      }

      .cls-3 {
        fill: #fccc42;
      }

      .cls-4 {
        fill: #080717;
      }
    </style>
  </defs>
  <g id="Layer_2" data-name="Layer 2">
    <g>
      <g>
        <path class="cls-3" d="M107.42,213.07C48.19,213.07,0,165.28,0,106.53S48.19,0,107.42,0s107.43,47.79,107.43,106.53-48.2,106.53-107.43,106.53ZM107.42,14.55C56.28,14.55,14.67,55.81,14.67,106.53s41.61,91.99,92.75,91.99,92.76-41.26,92.76-91.99S158.58,14.55,107.42,14.55Z"/>
        <path class="cls-3" d="M107.42,213.07c-18.19,0-34.98-11.61-47.29-32.71-11.57-19.84-17.95-46.06-17.95-73.83s6.38-53.99,17.95-73.83C72.44,11.61,89.23,0,107.42,0s34.98,11.62,47.28,32.71c11.57,19.84,17.94,46.06,17.94,73.83s-6.37,53.99-17.94,73.83c-12.3,21.09-29.09,32.71-47.28,32.71ZM107.42,14.55c-27.41,0-50.57,42.12-50.57,91.98s23.16,91.99,50.57,91.99,50.54-42.12,50.54-91.99S134.82,14.55,107.42,14.55Z"/>
        <path class="cls-3" d="M107.42,213.07h-7.33V0h7.33c59.24,0,107.43,47.79,107.43,106.53s-48.2,106.53-107.43,106.53ZM114.76,14.83v183.4c47.73-3.72,85.43-43.43,85.43-91.7S162.49,18.55,114.76,14.83Z"/>
        <path class="cls-3" d="M206.07,148.79H8.77l-1.79-4.71c-4.63-12.2-6.98-24.83-6.98-37.54s2.35-25.35,6.99-37.56l1.79-4.71h197.3l1.79,4.71c4.64,12.2,6.99,24.84,6.99,37.57s-2.35,25.36-7,37.55l-1.79,4.7ZM19.06,134.24h176.74c2.92-9.06,4.4-18.36,4.4-27.71s-1.48-18.65-4.4-27.72H19.07c-2.92,9.09-4.4,18.39-4.4,27.72s1.47,18.63,4.39,27.71Z"/>
      </g>
      <g>
        <polygon class="cls-4" points="39.35 50.54 38.2 48.92 39.03 48.35 40.17 49.98 39.35 50.54"/>
        <path class="cls-4" d="M185.54,53.26c-.52-.41-1.05-.81-1.58-1.21l1.21-1.58c.54.41,1.07.82,1.6,1.24l-1.24,1.56ZM182.37,50.86c-.54-.39-1.08-.78-1.62-1.16l1.16-1.62c.55.39,1.1.78,1.64,1.18l-1.19,1.6ZM41.82,48.87l-1.11-1.65c.56-.37,1.13-.74,1.7-1.1l1.08,1.67c-.56.36-1.12.72-1.67,1.09ZM179.11,48.56c-.55-.37-1.1-.74-1.65-1.11l1.11-1.65c.56.37,1.13.75,1.68,1.13l-1.13,1.63ZM45.19,46.72l-1.06-1.68c.57-.36,1.15-.71,1.73-1.05l1.03,1.7c-.57.34-1.14.69-1.71,1.04ZM175.79,46.37c-.56-.36-1.12-.71-1.69-1.05l1.05-1.69c.58.35,1.15.71,1.72,1.07l-1.08,1.67ZM48.61,44.67l-1.01-1.71c.59-.34,1.17-.67,1.76-1l.98,1.73c-.58.32-1.16.65-1.74.98ZM172.38,44.29c-.57-.34-1.15-.67-1.73-1l.99-1.72c.59.33,1.17.67,1.76,1.01l-1.02,1.7ZM52.1,42.73l-.95-1.74c.6-.32,1.19-.64,1.79-.95l.92,1.76c-.59.31-1.18.62-1.76.93ZM168.91,42.32c-.58-.32-1.17-.63-1.76-.94l.93-1.75c.6.31,1.2.63,1.79.96l-.96,1.74ZM55.65,40.9l-.9-1.77c.61-.3,1.21-.6,1.82-.89l.87,1.79c-.6.29-1.2.58-1.79.88ZM165.38,40.47c-.59-.3-1.19-.59-1.79-.88l.88-1.78c.61.29,1.21.59,1.82.89l-.9,1.77ZM59.25,39.17l-.84-1.8c.62-.28,1.23-.56,1.85-.83l.81,1.81c-.61.27-1.21.54-1.82.82ZM161.79,38.74c-.6-.28-1.21-.55-1.82-.82l.81-1.81c.62.27,1.24.55,1.85.83l-.84,1.8ZM62.9,37.56l-.79-1.82c.62-.26,1.25-.52,1.87-.78l.76,1.84c-.62.25-1.23.5-1.84.76ZM158.13,37.13c-.61-.26-1.23-.51-1.85-.76l.75-1.84c.63.25,1.25.51,1.88.77l-.78,1.83ZM66.6,36.06l-.73-1.85c.63-.24,1.26-.48,1.9-.72l.7,1.86c-.62.23-1.25.47-1.87.71ZM154.43,35.64c-.62-.24-1.24-.47-1.87-.7l.69-1.86c.64.23,1.27.47,1.9.71l-.72,1.85ZM70.35,34.68l-.67-1.87c.64-.22,1.28-.44,1.92-.66l.64,1.88c-.63.21-1.26.43-1.89.65ZM150.67,34.28c-.63-.22-1.26-.43-1.89-.64l.63-1.88c.64.21,1.29.43,1.92.65l-.66,1.87ZM74.13,33.42l-.61-1.89c.64-.2,1.29-.4,1.94-.6l.58,1.9c-.64.19-1.27.39-1.91.59ZM146.88,33.04c-.64-.2-1.27-.39-1.91-.57l.56-1.9c.65.19,1.3.38,1.95.58l-.59,1.89ZM77.96,32.27l-.55-1.91c.65-.18,1.3-.36,1.96-.53l.52,1.92c-.64.17-1.29.35-1.93.53ZM143.04,31.92c-.64-.18-1.29-.35-1.93-.51l.5-1.92c.65.17,1.31.34,1.96.52l-.53,1.91ZM81.82,31.25l-.49-1.92c.66-.16,1.31-.32,1.97-.47l.46,1.93c-.65.15-1.3.31-1.94.46ZM139.17,30.93c-.65-.16-1.3-.3-1.95-.45l.43-1.94c.66.15,1.32.3,1.98.45l-.47,1.93ZM85.71,30.35l-.42-1.94c.66-.14,1.32-.28,1.99-.41l.39,1.94c-.65.13-1.3.26-1.96.4ZM135.28,30.07c-.65-.13-1.31-.26-1.96-.38l.37-1.95c.66.12,1.33.25,1.99.39l-.4,1.94ZM89.63,29.58l-.36-1.95c.66-.12,1.33-.23,2-.34l.33,1.96c-.66.11-1.31.22-1.97.34ZM131.35,29.34c-.66-.11-1.31-.22-1.97-.32l.3-1.96c.67.1,1.34.21,2.01.32l-.34,1.95ZM93.57,28.94l-.29-1.96c.67-.1,1.34-.19,2.01-.28l.26,1.97c-.66.09-1.32.18-1.98.27ZM127.4,28.73c-.66-.09-1.32-.17-1.98-.25l.24-1.97c.67.08,1.34.17,2.01.26l-.27,1.97ZM97.53,28.42l-.23-1.97c.67-.08,1.34-.15,2.02-.21l.2,1.97c-.66.06-1.33.13-1.99.21ZM123.44,28.26c-.67-.07-1.33-.13-1.99-.19l.17-1.98c.67.06,1.35.12,2.02.19l-.2,1.97ZM101.5,28.03l-.16-1.98c.67-.05,1.35-.1,2.02-.15l.13,1.98c-.66.04-1.33.09-1.99.14ZM119.45,27.92c-.67-.05-1.33-.09-2-.12l.11-1.98c.67.04,1.35.08,2.03.12l-.14,1.98ZM105.48,27.78l-.1-1.98c.67-.03,1.35-.06,2.03-.08l.06,1.98c-.67.02-1.33.05-2,.08ZM115.46,27.72c-.67-.02-1.33-.04-2-.05l.04-1.98c.68.01,1.35.03,2.03.06l-.07,1.98ZM109.47,27.65l-.03-1.98c.59,0,1.19-.01,1.78-.01h.25v1.98h-.25c-.58,0-1.17,0-1.75.01Z"/>
        <polygon class="cls-4" points="187.87 55.13 187.1 54.5 188.37 52.96 189.14 53.6 187.87 55.13"/>
      </g>
      <g>
        <path class="cls-4" d="M36.9,57.1c-.33,0-.66-.02-.99-.03l.04-1.98c.34,0,.67.02,1.01.03l-.06,1.98Z"/>
        <path class="cls-4" d="M90.68,102.14c-.02-.65-.06-1.29-.11-1.93l1.99-.15c.05.67.09,1.34.11,2.01l-2,.07ZM90.39,98.28c-.08-.64-.16-1.28-.26-1.92l1.97-.31c.11.66.2,1.33.28,2l-1.99.23ZM89.78,94.47c-.13-.63-.27-1.26-.43-1.88l1.94-.48c.16.65.31,1.31.45,1.97l-1.96.39ZM88.84,90.72c-.18-.62-.38-1.23-.59-1.84l1.89-.65c.22.64.43,1.28.62,1.92l-1.92.56ZM87.58,87.07c-.24-.6-.49-1.19-.76-1.78l1.82-.81c.28.62.54,1.24.79,1.86l-1.86.73ZM85.98,83.55c-.29-.57-.6-1.14-.92-1.7l1.74-.97c.33.59.66,1.18.96,1.78l-1.79.89ZM84.07,80.19c-.35-.55-.7-1.08-1.07-1.61l1.65-1.13c.38.55.76,1.11,1.12,1.69l-1.69,1.05ZM81.86,77.01c-.39-.51-.8-1.01-1.21-1.51l1.54-1.27c.43.52.86,1.04,1.27,1.58l-1.59,1.2ZM79.37,74.05c-.44-.47-.89-.94-1.34-1.39l1.41-1.4c.48.48.95.96,1.41,1.46l-1.48,1.34ZM76.62,71.32c-.48-.43-.97-.86-1.46-1.28l1.29-1.52c.52.43,1.03.88,1.53,1.33l-1.35,1.46ZM73.63,68.83c-.51-.39-1.04-.78-1.57-1.15l1.15-1.62c.56.39,1.1.79,1.64,1.2l-1.22,1.57ZM70.44,66.6c-.55-.35-1.1-.69-1.66-1.02l1.02-1.7c.58.34,1.16.7,1.72,1.06l-1.09,1.67ZM67.08,64.61c-.57-.31-1.15-.61-1.73-.89l.89-1.78c.61.3,1.21.61,1.8.93l-.96,1.74ZM63.58,62.88c-.59-.27-1.19-.52-1.79-.77l.76-1.83c.63.26,1.25.52,1.86.8l-.83,1.8ZM59.97,61.4c-.61-.23-1.22-.45-1.84-.65l.64-1.88c.64.22,1.28.44,1.91.68l-.7,1.86ZM56.26,60.15c-.62-.19-1.25-.37-1.88-.54l.52-1.91c.65.18,1.3.36,1.94.56l-.58,1.9ZM52.47,59.12c-.63-.15-1.27-.29-1.91-.43l.41-1.94c.66.14,1.32.29,1.97.44l-.47,1.93ZM48.63,58.32c-.64-.12-1.29-.22-1.94-.32l.31-1.96c.67.1,1.33.21,1.99.33l-.36,1.95ZM44.75,57.72c-.65-.08-1.3-.16-1.96-.23l.21-1.97c.67.07,1.34.15,2,.23l-.25,1.97ZM40.83,57.32c-.65-.05-1.31-.1-1.96-.13l.11-1.98c.67.04,1.34.08,2.01.13l-.16,1.98Z"/>
        <path class="cls-4" d="M92.7,105.12l-2-.05c0-.32.01-.65.01-.97h2c0,.34,0,.68-.01,1.02Z"/>
      </g>
      <g>
        <g>
          <path class="cls-2" d="M288.81,226.25l-33.2-49.87-17.99-44.8c-1.8-4.49-5.31-8.1-9.77-10.05l-28.59-10.64c-4.17-1.55-8.8-1.35-12.81.56l-3.62,1.72-39.24-70.21c-.57-1.02-1.92-1.32-2.87-.63-3.79,2.74-5.21,7.68-3.45,11.99l27.09,67.13h0c-2.29,1.07-3.55,3.54-3.07,6l3.35,17.03-3.27-.58c-5.36-.95-10.64,2.04-12.54,7.09l-.83,2.21c-1.65,4.37-.39,9.29,3.16,12.35l19.75,17.04c10.91,9.41,24.74,14.71,39.08,15.09l9.52,28.55"/>
          <path class="cls-4" d="M287.97,226.8l-33.25-49.95-.04-.09-17.99-44.8c-1.72-4.27-5-7.65-9.24-9.51l-28.54-10.62c-3.89-1.45-8.28-1.26-12.03.53l-4.47,2.13-39.7-71.03c-.13-.24-.36-.41-.63-.47-.27-.06-.55,0-.77.16-3.42,2.47-4.7,6.92-3.12,10.81l27.44,68.01-.85.4c-1.88.87-2.91,2.89-2.51,4.91l3.63,18.45-4.71-.83c-4.88-.86-9.69,1.86-11.43,6.47l-.83,2.21c-1.49,3.96-.33,8.48,2.88,11.26l19.75,17.04c10.66,9.2,24.31,14.47,38.45,14.85l.7.02,9.74,29.21-1.9.62-9.3-27.89c-14.35-.54-28.17-5.97-39-15.31l-19.75-17.04c-3.84-3.31-5.22-8.72-3.44-13.45l.83-2.21c2.08-5.5,7.81-8.76,13.65-7.72l1.84.32-3.07-15.61c-.51-2.6.62-5.2,2.79-6.62l-26.77-66.33c-1.93-4.73-.37-10.15,3.79-13.16.69-.5,1.56-.68,2.38-.49.83.18,1.54.71,1.95,1.44l38.78,69.4,2.77-1.32c4.24-2.02,9.19-2.24,13.6-.6l28.59,10.64c4.78,2.09,8.43,5.85,10.34,10.61l17.95,44.7,33.14,49.78-1.67,1.09Z"/>
        </g>
        <path class="cls-4" d="M214.22,151.6c-.36,0-.7-.19-.88-.52-.26-.48-.08-1.08.41-1.34l10.29-5.44c.49-.26,1.09-.07,1.35.41.26.48.08,1.08-.41,1.34l-10.29,5.44c-.15.08-.31.12-.47.12Z"/>
        <path class="cls-4" d="M176.14,147.52c-.55,0-1-.44-1-.99v-10.21c0-.31.15-.61.41-.8l25.05-18.37c.44-.33,1.07-.23,1.4.21.33.44.24,1.06-.21,1.39l-24.64,18.08v9.71c0,.55-.45.99-1,.99Z"/>
        <path class="cls-4" d="M203.18,166.91c-.85,0-1.72-.08-2.58-.23l-4.4-.8c-.45-.08-.78-.45-.82-.9l-1.71-22.8c-.03-.33.12-.65.38-.86l20.24-15.65c.44-.34,1.06-.26,1.4.17.34.43.26,1.06-.17,1.39l-19.82,15.33,1.62,21.51,3.64.67c4.85.89,9.7-1.2,12.37-5.3l4.8-7.39-1.61-1.99c-.34-.43-.27-1.05.16-1.39.43-.34,1.06-.27,1.41.16l2.06,2.55c.27.33.29.8.06,1.16l-5.19,7.99c-2.64,4.05-7.1,6.41-11.83,6.41Z"/>
        <path class="cls-4" d="M160.35,166.57c-.54,0-.98-.43-1-.96-.01-.55.42-1,.97-1.02l16.83-.45c4.26-.11,7.67-3.52,7.76-7.74.08-3.87-2.64-7.2-6.46-7.94l-13.84-2.66c-.54-.1-.9-.62-.79-1.16.1-.54.62-.89,1.17-.78l13.84,2.66c4.79.92,8.19,5.09,8.08,9.93-.11,5.29-4.38,9.54-9.71,9.69l-16.83.45h-.03Z"/>
        <path class="cls-4" d="M196.38,165.89c-.05,0-.1,0-.16-.01l-13.04-2.04c-.54-.09-.92-.59-.83-1.13.09-.54.6-.91,1.14-.82l13.04,2.04c.54.09.92.59.83,1.13-.08.49-.5.84-.99.84Z"/>
        <path class="cls-4" d="M164.47,122.17c-.39,0-.76-.23-.92-.61-.21-.51.03-1.09.53-1.3l20.42-8.51c.51-.21,1.1.02,1.31.53.21.51-.03,1.09-.53,1.3l-20.42,8.51c-.13.05-.26.08-.39.08Z"/>
        <path class="cls-4" d="M216.99,198.31c-.51,0-.94-.38-.99-.89-.05-.55.35-1.03.9-1.09,10.08-1,19.49-6.08,25.8-13.95l3.19-3.98c.34-.43.97-.5,1.4-.16.43.34.5.96.16,1.39l-3.19,3.98c-6.64,8.28-16.54,13.64-27.16,14.69-.03,0-.07,0-.1,0Z"/>
      </g>
      <path class="cls-1" d="M25.2,7.27C13.73,7.27,4.43,15.66,4.43,26s20.77,38.71,20.77,38.71c0,0,20.77-28.36,20.77-38.71S36.68,7.27,25.2,7.27ZM25.2,33.5c-4.59,0-8.31-3.35-8.31-7.49s3.72-7.49,8.31-7.49,8.31,3.36,8.31,7.49-3.72,7.49-8.31,7.49Z"/>
      <path class="cls-1" d="M200.6,53.11c-10.13,0-18.35,7.41-18.35,16.54s18.35,34.19,18.35,34.19c0,0,18.35-25.05,18.35-34.19s-8.22-16.54-18.35-16.54ZM200.6,76.27c-4.05,0-7.34-2.96-7.34-6.62s3.29-6.62,7.34-6.62,7.34,2.97,7.34,6.62-3.29,6.62-7.34,6.62Z"/>
      <path class="cls-1" d="M89.05,107.42c-11.47,0-20.77,8.39-20.77,18.73s20.77,38.71,20.77,38.71c0,0,20.77-28.36,20.77-38.71s-9.3-18.73-20.77-18.73ZM89.05,133.64c-4.59,0-8.31-3.35-8.31-7.49s3.72-7.49,8.31-7.49,8.31,3.36,8.31,7.49-3.72,7.49-8.31,7.49Z"/>
    </g>
  </g>
</svg>