<?xml version="1.0" encoding="UTF-8"?>
<svg id="Capa_2" data-name="Capa 2" xmlns="http://www.w3.org/2000/svg" viewBox="0 0 1329.76 1329.79">
  <defs>
    <style>
      .cls-1 {
        fill: #fff;
      }

      .cls-2 {
        fill: #abfb4f;
      }

      .cls-3 {
        fill: blue;
      }

      .cls-4 {
        fill: #010101;
      }
    </style>
  </defs>
  <g id="Capa_1-2" data-name="Capa 1">
    <g>
      <g>
        <g>
          <rect x="49.68" y="1040.1" width="662.53" height="57.47"/>
          <path class="cls-4" d="M712.21,1099.94H49.68c-1.32,0-2.36-1.06-2.36-2.37v-57.47c0-1.31,1.04-2.37,2.36-2.37h662.53c1.31,0,2.35,1.06,2.35,2.37v57.47c0,1.31-1.04,2.37-2.35,2.37ZM52.04,1095.2h657.81v-52.73H52.04v52.73Z"/>
        </g>
        <g>
          <rect x="49.68" y="752.79" width="662.53" height="57.47"/>
          <path class="cls-4" d="M712.21,812.62H49.68c-1.32,0-2.36-1.06-2.36-2.37v-57.47c0-1.31,1.04-2.37,2.36-2.37h662.53c1.31,0,2.35,1.06,2.35,2.37v57.47c0,1.31-1.04,2.37-2.35,2.37ZM52.04,807.89h657.81v-52.73H52.04v52.73Z"/>
        </g>
        <g>
          <g>
            <path class="cls-1" d="M9.1,810.25h743.68c3.72,0,6.74,3.02,6.74,6.74v216.36c0,3.72-3.02,6.74-6.74,6.74H9.1c-3.72,0-6.74-3.02-6.74-6.74v-216.36c0-3.72,3.02-6.74,6.74-6.74Z" transform="translate(761.89 1850.35) rotate(180)"/>
            <path class="cls-4" d="M730.81,1042.47H31.08c-17.14,0-31.08-13.95-31.08-31.09v-172.4c0-17.15,13.93-31.09,31.08-31.09h699.73c17.14,0,31.08,13.94,31.08,31.09v172.4c0,17.14-13.93,31.09-31.08,31.09ZM31.08,812.62c-14.53,0-26.36,11.82-26.36,26.36v172.4c0,14.53,11.83,26.35,26.36,26.35h699.73c14.53,0,26.37-11.82,26.37-26.35v-172.4c0-14.53-11.83-26.36-26.37-26.36H31.08Z"/>
          </g>
          <g>
            <path class="cls-2" d="M594.31,925.18c0-23.8,19.29-43.1,43.09-43.1s43.12,19.29,43.12,43.1-19.32,43.09-43.12,43.09-43.09-19.29-43.09-43.09Z"/>
            <path class="cls-2" d="M637.41,970.64c-25.07,0-45.45-20.39-45.45-45.46s20.38-45.46,45.45-45.46,45.48,20.39,45.48,45.46-20.41,45.46-45.48,45.46ZM637.41,884.45c-22.46,0-40.74,18.27-40.74,40.73s18.28,40.73,40.74,40.73,40.76-18.27,40.76-40.73-18.3-40.73-40.76-40.73Z"/>
          </g>
          <g>
            <path class="cls-4" d="M510.23,925.18c0-7.94,6.45-14.36,14.37-14.36s14.37,6.42,14.37,14.36-6.45,14.36-14.37,14.36-14.37-6.42-14.37-14.36Z"/>
            <path class="cls-4" d="M438.41,925.18c0-7.94,6.42-14.36,14.37-14.36s14.35,6.42,14.35,14.36-6.42,14.36-14.35,14.36-14.37-6.42-14.37-14.36Z"/>
            <path class="cls-4" d="M366.57,925.18c0-7.94,6.45-14.36,14.37-14.36s14.37,6.42,14.37,14.36-6.45,14.36-14.37,14.36-14.37-6.42-14.37-14.36Z"/>
          </g>
          <g>
            <g>
              <path class="cls-3" d="M85.17,858.42c-13.08,0-23.66,10.59-23.66,23.66v86.19c0,13.07,10.59,23.66,23.66,23.66s23.66-10.6,23.66-23.66v-86.19c0-13.07-10.61-23.66-23.66-23.66Z"/>
              <path class="cls-3" d="M85.17,994.3c-14.35,0-26.02-11.68-26.02-26.03v-86.19c0-14.35,11.67-26.03,26.02-26.03s26.02,11.68,26.02,26.03v86.19c0,14.35-11.67,26.03-26.02,26.03ZM85.17,860.79c-11.74,0-21.3,9.56-21.3,21.29v86.19c0,11.74,9.57,21.29,21.3,21.29s21.3-9.56,21.3-21.29v-86.19c0-11.74-9.57-21.29-21.3-21.29Z"/>
            </g>
            <g>
              <path class="cls-3" d="M179.82,858.42c-13.08,0-23.66,10.59-23.66,23.66v86.19c0,13.07,10.58,23.66,23.66,23.66s23.66-10.6,23.66-23.66v-86.19c0-13.07-10.61-23.66-23.66-23.66Z"/>
              <path class="cls-4" d="M179.82,994.3c-14.35,0-26.02-11.68-26.02-26.03v-86.19c0-14.35,11.67-26.03,26.02-26.03s26.02,11.68,26.02,26.03v86.19c0,14.35-11.67,26.03-26.02,26.03ZM179.82,860.79c-11.74,0-21.31,9.56-21.31,21.29v86.19c0,11.74,9.57,21.29,21.31,21.29s21.3-9.56,21.3-21.29v-86.19c0-11.74-9.57-21.29-21.3-21.29Z"/>
            </g>
            <g>
              <path class="cls-3" d="M274.47,858.42c-13.08,0-23.66,10.59-23.66,23.66v86.19c0,13.07,10.59,23.66,23.66,23.66s23.66-10.6,23.66-23.66v-86.19c0-13.07-10.61-23.66-23.66-23.66Z"/>
              <path class="cls-3" d="M274.47,994.3c-14.35,0-26.02-11.68-26.02-26.03v-86.19c0-14.35,11.67-26.03,26.02-26.03s26.02,11.68,26.02,26.03v86.19c0,14.35-11.67,26.03-26.02,26.03ZM274.47,860.79c-11.74,0-21.3,9.56-21.3,21.29v86.19c0,11.74,9.57,21.29,21.3,21.29s21.3-9.56,21.3-21.29v-86.19c0-11.74-9.57-21.29-21.3-21.29Z"/>
            </g>
          </g>
        </g>
        <g>
          <g>
            <path class="cls-1" d="M9.1,522.93h743.68c3.72,0,6.74,3.02,6.74,6.74v216.37c0,3.72-3.02,6.75-6.75,6.75H9.1c-3.72,0-6.74-3.02-6.74-6.74v-216.37c0-3.72,3.02-6.75,6.75-6.75Z" transform="translate(761.89 1275.72) rotate(180)"/>
            <path class="cls-4" d="M730.81,755.15H31.08c-17.14,0-31.08-13.96-31.08-31.1v-172.39c0-17.14,13.93-31.1,31.08-31.1h699.73c17.14,0,31.08,13.96,31.08,31.1v172.39c0,17.15-13.93,31.1-31.08,31.1ZM31.08,525.3c-14.53,0-26.36,11.83-26.36,26.37v172.39c0,14.53,11.83,26.37,26.36,26.37h699.73c14.53,0,26.37-11.83,26.37-26.37v-172.39c0-14.53-11.83-26.37-26.37-26.37H31.08Z"/>
          </g>
          <g>
            <path class="cls-2" d="M594.31,637.85c0-23.8,19.29-43.09,43.09-43.09s43.12,19.29,43.12,43.09-19.32,43.11-43.12,43.11-43.09-19.29-43.09-43.11Z"/>
            <path class="cls-2" d="M637.41,683.33c-25.07,0-45.45-20.4-45.45-45.48s20.38-45.46,45.45-45.46,45.48,20.39,45.48,45.46-20.41,45.48-45.48,45.48ZM637.41,597.13c-22.46,0-40.74,18.27-40.74,40.73s18.28,40.74,40.74,40.74,40.76-18.28,40.76-40.74-18.3-40.73-40.76-40.73Z"/>
          </g>
          <g>
            <path class="cls-4" d="M510.23,637.85c0-7.92,6.45-14.36,14.37-14.36s14.37,6.44,14.37,14.36-6.45,14.37-14.37,14.37-14.37-6.44-14.37-14.37Z"/>
            <path class="cls-4" d="M438.41,637.85c0-7.92,6.42-14.36,14.37-14.36s14.35,6.44,14.35,14.36-6.42,14.37-14.35,14.37-14.37-6.44-14.37-14.37Z"/>
            <path class="cls-4" d="M366.57,637.85c0-7.92,6.45-14.36,14.37-14.36s14.37,6.44,14.37,14.36-6.45,14.37-14.37,14.37-14.37-6.44-14.37-14.37Z"/>
          </g>
          <g>
            <g>
              <path class="cls-2" d="M85.17,571.09c-13.08,0-23.66,10.6-23.66,23.66v86.2c0,13.07,10.59,23.66,23.66,23.66s23.66-10.59,23.66-23.66v-86.2c0-13.07-10.61-23.66-23.66-23.66Z"/>
              <path class="cls-2" d="M85.17,706.99c-14.35,0-26.02-11.68-26.02-26.03v-86.2c0-14.35,11.67-26.03,26.02-26.03s26.02,11.68,26.02,26.03v86.2c0,14.35-11.67,26.03-26.02,26.03ZM85.17,573.46c-11.74,0-21.3,9.55-21.3,21.29v86.2c0,11.74,9.57,21.29,21.3,21.29s21.3-9.55,21.3-21.29v-86.2c0-11.74-9.57-21.29-21.3-21.29Z"/>
            </g>
            <g>
              <path class="cls-3" d="M179.82,571.09c-13.08,0-23.66,10.6-23.66,23.66v86.2c0,13.07,10.58,23.66,23.66,23.66s23.66-10.59,23.66-23.66v-86.2c0-13.07-10.61-23.66-23.66-23.66Z"/>
              <path class="cls-4" d="M179.82,706.99c-14.35,0-26.02-11.68-26.02-26.03v-86.2c0-14.35,11.67-26.03,26.02-26.03s26.02,11.68,26.02,26.03v86.2c0,14.35-11.67,26.03-26.02,26.03ZM179.82,573.46c-11.74,0-21.31,9.55-21.31,21.29v86.2c0,11.74,9.57,21.29,21.31,21.29s21.3-9.55,21.3-21.29v-86.2c0-11.74-9.57-21.29-21.3-21.29Z"/>
            </g>
            <g>
              <path class="cls-2" d="M274.47,571.09c-13.08,0-23.66,10.6-23.66,23.66v86.2c0,13.07,10.59,23.66,23.66,23.66s23.66-10.59,23.66-23.66v-86.2c0-13.07-10.61-23.66-23.66-23.66Z"/>
              <path class="cls-2" d="M274.47,706.99c-14.35,0-26.02-11.68-26.02-26.03v-86.2c0-14.35,11.67-26.03,26.02-26.03s26.02,11.68,26.02,26.03v86.2c0,14.35-11.67,26.03-26.02,26.03ZM274.47,573.46c-11.74,0-21.3,9.55-21.3,21.29v86.2c0,11.74,9.57,21.29,21.3,21.29s21.3-9.55,21.3-21.29v-86.2c0-11.74-9.57-21.29-21.3-21.29Z"/>
            </g>
          </g>
        </g>
        <g>
          <rect x="49.68" y="465.48" width="662.53" height="57.47"/>
          <path class="cls-4" d="M712.21,525.32H49.68c-1.32,0-2.36-1.06-2.36-2.37v-57.47c0-1.3,1.04-2.37,2.36-2.37h662.53c1.31,0,2.35,1.06,2.35,2.37v57.47c0,1.31-1.04,2.37-2.35,2.37ZM52.04,520.58h657.81v-52.73H52.04v52.73Z"/>
        </g>
        <g>
          <g>
            <path class="cls-1" d="M9.1,235.63h743.68c3.72,0,6.74,3.02,6.74,6.74v216.37c0,3.72-3.02,6.75-6.75,6.75H9.1c-3.72,0-6.74-3.02-6.74-6.74v-216.37c0-3.72,3.02-6.75,6.75-6.75Z" transform="translate(761.89 701.11) rotate(180)"/>
            <path class="cls-4" d="M730.81,467.85H31.08c-17.14,0-31.08-13.96-31.08-31.1v-172.39c0-17.14,13.93-31.1,31.08-31.1h699.73c17.14,0,31.08,13.96,31.08,31.1v172.39c0,17.15-13.93,31.1-31.08,31.1ZM31.08,237.99c-14.53,0-26.36,11.83-26.36,26.37v172.39c0,14.54,11.83,26.37,26.36,26.37h699.73c14.53,0,26.37-11.83,26.37-26.37v-172.39c0-14.53-11.83-26.37-26.37-26.37H31.08Z"/>
          </g>
          <g>
            <path class="cls-2" d="M594.31,350.56c0-23.8,19.29-43.11,43.09-43.11s43.12,19.31,43.12,43.11-19.32,43.09-43.12,43.09-43.09-19.29-43.09-43.09Z"/>
            <path class="cls-2" d="M637.41,396.02c-25.07,0-45.45-20.39-45.45-45.46s20.38-45.46,45.45-45.46,45.48,20.39,45.48,45.46-20.41,45.46-45.48,45.46ZM637.41,309.84c-22.46,0-40.74,18.27-40.74,40.73s18.28,40.73,40.74,40.73,40.76-18.27,40.76-40.73-18.3-40.73-40.76-40.73Z"/>
          </g>
          <g>
            <path class="cls-4" d="M510.23,350.56c0-7.94,6.45-14.37,14.37-14.37s14.37,6.44,14.37,14.37-6.45,14.36-14.37,14.36-14.37-6.42-14.37-14.36Z"/>
            <path class="cls-4" d="M438.41,350.56c0-7.94,6.42-14.37,14.37-14.37s14.35,6.44,14.35,14.37-6.42,14.36-14.35,14.36-14.37-6.42-14.37-14.36Z"/>
            <path class="cls-4" d="M366.57,350.56c0-7.94,6.45-14.37,14.37-14.37s14.37,6.44,14.37,14.37-6.45,14.36-14.37,14.36-14.37-6.42-14.37-14.36Z"/>
          </g>
          <g>
            <g>
              <path class="cls-2" d="M85.17,291.41c-13.08,0-23.66,10.59-23.66,23.66v70.98c0,13.07,10.59,23.66,23.66,23.66s23.66-10.59,23.66-23.66v-70.98c0-13.07-10.61-23.66-23.66-23.66Z"/>
              <path class="cls-4" d="M85.17,412.09c-14.35,0-26.02-11.68-26.02-26.03v-70.98c0-14.35,11.67-26.03,26.02-26.03s26.02,11.68,26.02,26.03v70.98c0,14.35-11.67,26.03-26.02,26.03ZM85.17,293.77c-11.74,0-21.3,9.56-21.3,21.3v70.98c0,11.74,9.57,21.29,21.3,21.29s21.3-9.56,21.3-21.29v-70.98c0-11.74-9.57-21.3-21.3-21.3Z"/>
            </g>
            <g>
              <path class="cls-3" d="M179.82,291.41c-13.08,0-23.66,10.59-23.66,23.66v70.98c0,13.07,10.58,23.66,23.66,23.66s23.66-10.59,23.66-23.66v-70.98c0-13.07-10.61-23.66-23.66-23.66Z"/>
              <path class="cls-3" d="M179.82,412.09c-14.35,0-26.02-11.68-26.02-26.03v-70.98c0-14.35,11.67-26.03,26.02-26.03s26.02,11.68,26.02,26.03v70.98c0,14.35-11.67,26.03-26.02,26.03ZM179.82,293.77c-11.74,0-21.31,9.56-21.31,21.3v70.98c0,11.74,9.57,21.29,21.31,21.29s21.3-9.56,21.3-21.29v-70.98c0-11.74-9.57-21.3-21.3-21.3Z"/>
            </g>
            <g>
              <path class="cls-3" d="M274.47,291.41c-13.08,0-23.66,10.59-23.66,23.66v70.98c0,13.07,10.59,23.66,23.66,23.66s23.66-10.59,23.66-23.66v-70.98c0-13.07-10.61-23.66-23.66-23.66Z"/>
              <path class="cls-3" d="M274.47,412.09c-14.35,0-26.02-11.68-26.02-26.03v-70.98c0-14.35,11.67-26.03,26.02-26.03s26.02,11.68,26.02,26.03v70.98c0,14.35-11.67,26.03-26.02,26.03ZM274.47,293.77c-11.74,0-21.3,9.56-21.3,21.3v70.98c0,11.74,9.57,21.29,21.3,21.29s21.3-9.56,21.3-21.29v-70.98c0-11.74-9.57-21.3-21.3-21.3Z"/>
            </g>
          </g>
        </g>
        <g>
          <g>
            <path class="cls-1" d="M9.1,1097.57h743.68c3.72,0,6.74,3.02,6.74,6.74v216.37c0,3.72-3.02,6.75-6.75,6.75H9.1c-3.72,0-6.74-3.02-6.74-6.74v-216.37c0-3.72,3.02-6.75,6.75-6.75Z" transform="translate(761.89 2424.99) rotate(180)"/>
            <path class="cls-4" d="M730.81,1329.79H31.08c-17.14,0-31.08-13.96-31.08-31.1v-172.39c0-17.15,13.93-31.1,31.08-31.1h699.73c17.14,0,31.08,13.96,31.08,31.1v172.39c0,17.15-13.93,31.1-31.08,31.1ZM31.08,1099.94c-14.53,0-26.36,11.83-26.36,26.37v172.39c0,14.53,11.83,26.37,26.36,26.37h699.73c14.53,0,26.37-11.83,26.37-26.37v-172.39c0-14.53-11.83-26.37-26.37-26.37H31.08Z"/>
          </g>
          <g>
            <path class="cls-2" d="M594.31,1212.5c0-23.81,19.29-43.11,43.09-43.11s43.12,19.29,43.12,43.11-19.32,43.09-43.12,43.09-43.09-19.29-43.09-43.09Z"/>
            <path class="cls-2" d="M637.41,1257.96c-25.07,0-45.45-20.39-45.45-45.46s20.38-45.48,45.45-45.48,45.48,20.4,45.48,45.48-20.41,45.46-45.48,45.46ZM637.41,1171.76c-22.46,0-40.74,18.28-40.74,40.74s18.28,40.73,40.74,40.73,40.76-18.27,40.76-40.73-18.3-40.74-40.76-40.74Z"/>
          </g>
          <g>
            <g>
              <path class="cls-3" d="M85.17,1145.73c-13.08,0-23.66,10.6-23.66,23.66v86.2c0,13.07,10.59,23.66,23.66,23.66s23.66-10.6,23.66-23.66v-86.2c0-13.07-10.61-23.66-23.66-23.66Z"/>
              <path class="cls-3" d="M85.17,1281.63c-14.35,0-26.02-11.68-26.02-26.03v-86.2c0-14.35,11.67-26.03,26.02-26.03s26.02,11.68,26.02,26.03v86.2c0,14.35-11.67,26.03-26.02,26.03ZM85.17,1148.1c-11.74,0-21.3,9.56-21.3,21.29v86.2c0,11.74,9.57,21.29,21.3,21.29s21.3-9.56,21.3-21.29v-86.2c0-11.74-9.57-21.29-21.3-21.29Z"/>
            </g>
            <g>
              <path class="cls-2" d="M179.82,1145.73c-13.08,0-23.66,10.6-23.66,23.66v86.2c0,13.07,10.58,23.66,23.66,23.66s23.66-10.6,23.66-23.66v-86.2c0-13.07-10.61-23.66-23.66-23.66Z"/>
              <path class="cls-2" d="M179.82,1281.63c-14.35,0-26.02-11.68-26.02-26.03v-86.2c0-14.35,11.67-26.03,26.02-26.03s26.02,11.68,26.02,26.03v86.2c0,14.35-11.67,26.03-26.02,26.03ZM179.82,1148.1c-11.74,0-21.31,9.56-21.31,21.29v86.2c0,11.74,9.57,21.29,21.31,21.29s21.3-9.56,21.3-21.29v-86.2c0-11.74-9.57-21.29-21.3-21.29Z"/>
            </g>
            <g>
              <path class="cls-3" d="M274.47,1145.73c-13.08,0-23.66,10.6-23.66,23.66v86.2c0,13.07,10.59,23.66,23.66,23.66s23.66-10.6,23.66-23.66v-86.2c0-13.07-10.61-23.66-23.66-23.66Z"/>
              <path class="cls-3" d="M274.47,1281.63c-14.35,0-26.02-11.68-26.02-26.03v-86.2c0-14.35,11.67-26.03,26.02-26.03s26.02,11.68,26.02,26.03v86.2c0,14.35-11.67,26.03-26.02,26.03ZM274.47,1148.1c-11.74,0-21.3,9.56-21.3,21.29v86.2c0,11.74,9.57,21.29,21.3,21.29s21.3-9.56,21.3-21.29v-86.2c0-11.74-9.57-21.29-21.3-21.29Z"/>
            </g>
          </g>
          <g>
            <path class="cls-4" d="M510.23,1212.49c0-7.93,6.45-14.36,14.37-14.36s14.37,6.43,14.37,14.36-6.45,14.37-14.37,14.37-14.37-6.43-14.37-14.37Z"/>
            <path class="cls-4" d="M438.41,1212.49c0-7.93,6.42-14.36,14.37-14.36s14.35,6.43,14.35,14.36-6.42,14.37-14.35,14.37-14.37-6.43-14.37-14.37Z"/>
            <path class="cls-4" d="M366.57,1212.49c0-7.93,6.45-14.36,14.37-14.36s14.37,6.43,14.37,14.36-6.45,14.37-14.37,14.37-14.37-6.43-14.37-14.37Z"/>
          </g>
        </g>
      </g>
      <g>
        <g>
          <g>
            <path class="cls-1" d="M904.02,973.99c-1.62-.84-3.24-1.31-4.83-1.5,1.62.51,3.24,1.03,4.83,1.5Z"/>
            <path d="M899.19,972.49c1.62.51,3.24,1.03,4.83,1.5-1.62-.84-3.24-1.31-4.83-1.5h0Z"/>
          </g>
          <g>
            <path class="cls-1" d="M1113.11,739.12l49.47,115.74s-157.13,37.64-179.75,37.64c-1.29,0-2.24-.14-2.98-.39-5.78-2.01-22.32-14.09-41.48-28.05-19.66-14.36-41.94-30.63-51.9-35.22-3.07-1.42-6.03-2.14-8.83-2.14-11.55,0-20.03,12.71-28.24,24.96-4.09,6.15-8.34,12.47-12.96,17.26-5.34,5.49-12.29,10.15-18.42,14.28-8.53,5.73-16.59,11.14-14.56,15.31,2.59,5.35,6.68,7.95,12.52,7.95,13.24,0,31.8-13.61,43.28-27.07,8.62-10.04,15.5-14.95,21.05-14.95,4.18,0,6.4,2.82,7.05,4.48l.83,2.09-1.99,1.03c-.32.16-31.84,16.6-37.92,35.7-1.62,5.07-1.27,9.75,1.09,14.3l.44.89-.27.97c-.07.23-6.47,21.57,8.38,31.38l1.27.83-.16,1.5c0,.19-1.78,19.48,7.42,30.13,3.65,4.24,8.69,6.57,14.91,6.9l1.83.04c9.1,0,23.1-2.43,25.69-7.79.93-1.93.16-4.47-2.26-7.54-1.04-1.3-2.2-2.3-3.58-3.05l-4.39-1.36c-.62-.06-1.29-.1-1.92-.1-1.68,0-3.28.21-4.69.38-1.25.17-2.33.3-3.23.3-.58,0-2.33,0-3.56-1.26l-1.11-1.95.05-1.03c.14-4.45,2.26-5.12,3.51-5.12l1.13.23c3.74,1.33,7.35,2.52,10.91,3.66,1.83.24,3.59.81,5.2,1.62,24.01,7.35,44.62,11.07,61.3,11.07,19.76,0,34.06-5.16,42.5-15.35l.72-.83,1.06-.06c15.44-.9,35.15-1.62,57.17-2.4,91.74-3.33,230.4-8.33,249.09-34.86,6.1-8.68,10.63-21.87,10.63-37.69,0-66.81-50.49-178.77-57.44-195.05l-156.85,42.62Z"/>
            <path class="cls-4" d="M883.2,997.05l-1.87-.04c-6.98-.37-12.55-2.96-16.66-7.72-9.03-10.49-8.23-28.3-7.97-31.76l.02-.23-.07-.05c-16.15-10.65-9.63-33.09-9.36-34.04l.03-.06-.03-.04c-2.66-5.13-3.05-10.4-1.25-16.1,6.47-20.3,38.8-36.94,39.12-37.1l.07-.04-.05-.09c-.05-.14-1.2-2.99-4.85-2.99-4.74,0-11.21,4.75-19.25,14.12-11.83,13.86-31.12,27.9-45.08,27.9-6.75,0-11.67-3.13-14.65-9.29-2.94-6.01,5.52-11.68,15.3-18.27,6.31-4.24,13.06-8.78,18.09-13.99,4.62-4.8,9.1-11.53,12.71-16.93,8.6-12.85,17.42-26.02,30.2-26.02,3.14,0,6.45.8,9.82,2.36,10.17,4.69,32.56,21.03,52.29,35.46,18.35,13.37,35.45,25.83,40.87,27.73.49.17,1.23.26,2.2.26,20.47,0,155.49-31.94,176.47-36.93l-48.36-113.17c-.27-.62-.25-1.34.05-1.95.3-.62.86-1.07,1.5-1.26l156.88-42.62c1.09-.26,2.33.27,2.79,1.36l1.78,4.11c46.15,106.4,55.83,163.05,55.83,191.86,0,14.82-4.02,29.06-11.04,39.05-19.37,27.46-153.04,32.31-250.67,35.85-20.54.73-41.48,1.48-57.4,2.4l-.09.05c-16.25,19.64-52.75,21.44-106.32,5.04-1.81-.87-3.31-1.34-4.81-1.54-3.97-1.25-7.62-2.44-11.39-3.78l-.81-.14c-.49.05-.67,2.02-.69,2.87v.38l.58,1.03c.53.39,1.36.39,1.69.39.81,0,1.78-.11,2.91-.28,2.38-.29,4.67-.5,7.14-.29l4.88,1.46c2.06,1.06,3.46,2.26,4.73,3.84,3.05,3.86,3.91,7.23,2.55,10.04-3.61,7.5-21.31,9.14-27.82,9.14ZM880.33,862.07c5.47,0,8.39,3.77,9.24,6l.83,2.07c.46,1.13-.03,2.43-1.11,2.98l-1.98,1.03c-.32.16-31.01,16.3-36.74,34.31-1.46,4.52-1.16,8.49.92,12.5l.47.89c.27.54.35,1.19.16,1.79l-.3.97c-.23.79-5.8,19.96,7.42,28.7l1.27.83c.74.49,1.16,1.34,1.06,2.23l-.16,1.5c-.14,1.93-1.16,19.06,6.86,28.33,3.21,3.74,7.67,5.79,13.22,6.08l1.76.04c9.63,0,21.67-2.65,23.52-6.45.46-.99-.25-2.84-1.98-5.05-.88-1.07-1.78-1.85-2.87-2.44l-3.95-1.18c-.14.05-.65-.01-1.23,0-1.5,0-2.91.17-4.18.33-1.55.21-2.75.35-3.74.35-2.22,0-3.98-.67-5.24-1.98-.14-.15-.28-.31-.37-.48l-1.11-1.95c-.23-.38-.32-.83-.3-1.27l.05-1.03c.16-5.43,3.14-7.38,5.87-7.38l1.59.28c4.05,1.41,7.65,2.6,11.18,3.73,1.62.17,3.61.8,5.52,1.76,50.46,15.36,86.1,14.27,100.91-3.69l.69-.83c.44-.51,1.04-.81,1.71-.85l1.09-.06c15.97-.92,36.93-1.67,57.19-2.4,85.93-3.11,229.25-8.31,247.24-33.85,6.5-9.22,10.22-22.46,10.22-36.32,0-28.35-9.64-84.33-55.46-189.97l-.97-2.25-152.27,41.37,48.41,113.25c.28.64.25,1.36-.07,1.99-.3.62-.88,1.07-1.55,1.24-6.42,1.54-157.66,37.71-180.3,37.71-1.57,0-2.77-.17-3.79-.53-6.05-2.12-21.84-13.62-41.82-28.19-19.81-14.48-41.99-30.66-51.74-35.16-2.75-1.27-5.39-1.92-7.84-1.92-10.26,0-18.37,12.1-26.2,23.8-3.76,5.66-8.36,12.58-13.28,17.69-5.41,5.58-12.36,10.26-18.51,14.4-5.89,3.97-15.18,10.2-14.05,12.51,2.2,4.52,5.5,6.62,10.4,6.62,12.41,0,30.62-13.52,41.48-26.24,9.25-10.77,16.5-15.78,22.86-15.78Z"/>
          </g>
        </g>
        <g>
          <path d="M1097.96,934c-28.95-.94-317.61-47.04-338.06-13.32-7.12,11.76,21.17,188.69,32.44,406.74h379.72c-14.77-84.78-19.96-109.92-19.96-109.92,80.2-103.05-21.98-282.44-54.14-283.5Z"/>
          <path class="cls-4" d="M1172.06,1329.79h-379.72c-1.25,0-2.29-.99-2.35-2.24-6.1-117.69-16.96-221.7-24.89-297.63-7.76-74.24-10.77-104.61-7.23-110.46,14.86-24.41,148.76-11.23,291.22,6.61,24.89,3.12,42.87,5.37,48.94,5.57h0c14.37.47,38.61,30.28,57.63,70.88,14.65,31.25,57.72,138.89-1.01,215.58,1.11,5.63,6.77,34.36,19.76,108.93.12.68-.07,1.4-.53,1.93-.44.53-1.11.84-1.8.84ZM794.58,1325.06h374.66c-14.21-81.54-19.41-106.82-19.46-107.08-.14-.67.02-1.37.44-1.93,58.07-74.6,15.55-180.77,1.15-211.53-19.78-42.21-42.74-67.8-53.49-68.14-6.33-.21-24.38-2.47-49.4-5.61-81.18-10.19-271.3-34.03-286.55-8.85-2.87,4.73,1.87,50.1,7.86,107.52,7.9,75.52,18.69,178.74,24.79,295.63Z"/>
        </g>
        <g>
          <path d="M1020.64,920.68c-24.72-31.69-278.74-19.23-308.87,16.39-23.32,27.62-32.77,204.29-43.79,390.35h375.81c-.09-7.21-.12-14.55-.12-22.06,0-75.89,89.29-240.9-23.04-384.68Z"/>
          <path class="cls-4" d="M1043.79,1329.79h-375.81c-.64,0-1.27-.27-1.73-.75-.44-.47-.67-1.11-.62-1.76l1.41-23.89c10.79-182.87,20.11-340.8,42.94-367.84,19.39-22.92,129.21-37.08,215.89-35.28,31.06.61,84.9,3.9,96.66,18.95,84,107.53,56.45,225.66,36.32,311.91-6.86,29.46-12.8,54.89-12.8,74.23,0,7.5.02,14.81.11,22.02.02.64-.23,1.25-.67,1.7-.44.45-1.06.7-1.68.7ZM670.5,1325.06h370.89c-.07-6.45-.07-13-.07-19.69,0-19.88,5.99-45.57,12.92-75.31,19.89-85.32,47.14-202.17-35.47-307.92h0c-7.58-9.73-42.35-16.13-93.01-17.13-4.67-.09-9.4-.14-14.17-.14-82.77,0-180.99,13.62-198.03,33.74-21.79,25.83-31.51,190.62-41.82,365.08l-1.25,21.37Z"/>
        </g>
        <g>
          <g>
            <path class="cls-1" d="M1011.72,260.14h-2.7l.21-2.68c.07-.81,5.96-82.19-33.37-106.54-8.96-5.55-21.42-8.48-36.04-8.48-42.42,0-103.5,27.07-106.57,71.17l-.44,6.76c-1.09,17.04-1.99,31.79-10.31,63.98-5.01,19.47-1.5,60.55,22.09,90.96,16.73,21.63,39.54,32.61,67.75,32.61h3.07l-.62,2.97c-.07.35-6.49,30.36-26.9,67.05h150.04c-3.91-13.44-18.07-67.13-18.07-141.32v-1.68l1.55-.61c.21-.1,20.2-8.64,23.71-38.51,1.18-10.19-1.18-18.94-6.84-25.32-5.94-6.69-15.36-10.38-26.55-10.38Z"/>
            <path class="cls-4" d="M1011.72,257.66s6.51-83.43-34.55-108.85c-9.73-6.04-22.9-8.86-37.36-8.86-46.36,0-105.97,29-109.06,73.48-1.39,20.21-1.34,34.17-10.68,70.3-9.31,36.14,11.09,126.67,92.27,126.67,0,0-6.58,31.58-28.72,70.04h157.68s-18.95-57.57-18.95-143.82c0,0,21.49-8.85,25.23-40.51,2.72-23.3-12.41-38.46-35.86-38.46ZM1042.61,295.54c-3.28,28.12-21.42,36.16-22.18,36.49l-3.07,1.27v3.33c0,70.43,12.34,121.35,17.24,138.83h-142.5c18.97-35.22,24.88-62.79,25.14-64.03l1.25-6.01h-6.15c-27.41,0-49.54-10.63-65.81-31.63-23.06-29.75-26.53-69.84-21.63-88.8,8.36-32.37,9.29-47.21,10.37-64.39l.47-6.82c2.72-39.4,57.19-68.84,104.07-68.84,14.16,0,26.18,2.8,34.73,8.1,38.01,23.51,32.28,103.44,32.21,104.24l-.42,5.37h5.39c10.44,0,19.22,3.39,24.7,9.54,5.17,5.81,7.3,13.9,6.19,23.35Z"/>
          </g>
          <path class="cls-4" d="M896.93,215.77l-1.64,7.68c.21.06,22.55,5.12,35.72,26.66l6.7-4.1c-14.99-24.51-39.74-30.02-40.78-30.25Z"/>
          <path class="cls-4" d="M830.24,242.34l-.32,7.86c.83.01,1.61.05,2.4.05,19.44,0,35.17-9.21,35.84-9.61l-4-6.77c-.19.09-15.76,9.2-33.92,8.48Z"/>
          <path class="cls-4" d="M849.35,294.68c-6.65.24-10.26,6.24-10.65,6.93l6.82,3.92s1.8-2.93,4.11-2.99h.07c2.24,0,5.27,2.61,8.27,7.16l6.56-4.33c-4.81-7.27-9.84-10.83-15.18-10.69Z"/>
          <path class="cls-4" d="M915.46,256.9c-3.37-2.14-7.58-1.5-9.45,1.45-1.87,2.93-.67,7.03,2.7,9.17,3.35,2.13,7.58,1.48,9.45-1.45,1.85-2.92.65-7.05-2.7-9.17Z"/>
          <path class="cls-4" d="M844.61,256.9c-3.37-2.14-7.6-1.5-9.47,1.45-1.87,2.93-.64,7.03,2.7,9.17,3.35,2.13,7.6,1.48,9.47-1.45,1.85-2.92.64-7.05-2.7-9.17Z"/>
          <g>
            <path d="M1113.18,61.83c2.43-59.64-48.43-15.98-92.01-49.63-43.6-33.65-37.52,28.64-77.57,45.57-40.05,16.94-30.36,97.06,8.5,83.99,38.89-13.07,68.86,30,87.88,48.73,19.02,18.73,76.86,20.45,97.16-36.6,22.37-62.81-26.39-32.4-23.96-92.06Z"/>
            <path class="cls-4" d="M1074.02,204.51c-14.19,0-27.68-4.45-35.7-12.34-3.05-2.99-6.36-6.61-9.96-10.53-18.67-20.33-44.46-48.16-75.49-37.65-14.86,4.96-27.38-2.04-33.67-18.72-8.16-21.51-3.16-58.44,23.48-69.7,15.55-6.56,23.89-20.42,31.26-32.63,6.75-11.16,12.55-20.8,22.39-22.65,7.35-1.36,15.69,1.83,26.29,10.02,17.96,13.88,36.9,14.15,53.63,14.39,13.36.2,24.89.36,32.12,8.01,5.47,5.78,7.74,15.07,7.16,29.21-1.06,26.61,7.95,34.09,16.7,41.34,10.1,8.37,19.64,16.29,7.12,51.42-12.34,34.66-36.93,45.06-50.49,48.17-4.9,1.12-9.94,1.66-14.86,1.66ZM966.78,136.92c26.92,0,48.57,23.56,65.07,41.52,3.54,3.85,6.79,7.41,9.8,10.35,9.7,9.59,28.68,13.41,46.17,9.44,12.62-2.9,35.52-12.62,47.12-45.15,11.39-32.01,3.83-38.27-5.71-46.19-8.73-7.23-19.57-16.22-18.4-45.16h0c.51-12.62-1.41-21.04-5.89-25.78-5.85-6.18-15.95-6.33-28.74-6.52-16.59-.24-37.25-.54-56.47-15.38-9.34-7.22-16.85-10.12-22.51-9.1-7.77,1.46-13.06,10.25-19.2,20.44-7.74,12.82-16.52,27.37-33.48,34.55-24.05,10.15-28.37,43.93-20.91,63.66,2.54,6.71,10.31,21.74,27.73,15.91,5.34-1.79,10.49-2.59,15.43-2.59Z"/>
          </g>
          <path class="cls-3" d="M1004.07,88.4c-27.54-10.72-55.97-3.84-63.43,15.4-7.51,19.24,8.73,43.54,36.3,54.27,27.54,10.73,55.94,3.84,63.43-15.39,7.51-19.24-8.76-43.53-36.3-54.28Z"/>
          <path class="cls-4" d="M868.85,333.99l-4.97,6.09c4.23,3.44,8.64,4.77,12.96,4.77,13.91,0,26.66-13.68,27.36-14.44l-5.78-5.31c-.19.18-17.51,18.72-29.58,8.9Z"/>
          <path class="cls-4" d="M979.39,108.41c-96.72-22.57-118.07,36.16-118.07,36.16-72.58,31.11-37.76,112.53-37.76,112.53,0,0,9.98-75.53,52.41-75.53,51.28,0,67.59-27.85,67.59-27.85-10.51,28.16-2.24,51.6,28.28,76.36,30.52,24.77,19.67,78.67,19.67,78.67,21.12-6.69,18.58-47.33,27.38-48.06,24.54-2.05,28.7,35.43,28.7,35.43,20.19-38.02,44.11-161.51-68.19-187.71Z"/>
          <path class="cls-4" d="M1012.62,270.33l1.9,7.62c.09-.01,7.21-1.66,11.95,2.08,3.24,2.55,4.9,7.23,4.9,13.9h7.86c0-9.24-2.68-16.01-7.95-20.13-7.81-6.1-18.21-3.58-18.65-3.47Z"/>
          <path class="cls-4" d="M1009.85,300.28l7.51,2.3c.03-.07,2.87-8.81,16.22-8.81h.23l.05-7.87h-.28c-19.09,0-23.55,13.78-23.73,14.37Z"/>
          <path class="cls-3" d="M1022.35,324.07c-6.95,0-12.57,5.61-12.57,12.56s5.62,12.56,12.57,12.56,12.55-5.61,12.55-12.56-5.62-12.56-12.55-12.56Z"/>
        </g>
        <g>
          <path class="cls-2" d="M1099.74,475.13c-11.48,0-31.19-11.84-39.03-32.61-3.23-8.54-6.56-35.58-19.5-35.58-84.57,0-125.08,4.77-160.27,24.44-12.48,7-17.74,24.35-21.17,31.53-41.52,87.87-98,91.32-150.22,168.38-20.66,30.5-.62,118.54-14.91,177.84-13.28,55.09-2.96,81.59,13.38,114.96,0,0,133.95,37.93,399.52,17.78,0,0,17.88-44,9.22-122.46,0,0,17.56,11.72,25.37,26.19,122.31-23.12,167.18-107.11,167.18-107.11-113.48-176.9-140.06-263.35-209.58-263.35Z"/>
          <path class="cls-4" d="M958.83,950.07c-165.29,0-250.39-23.42-251.45-23.72-.64-.19-1.18-.63-1.48-1.24-16.87-34.44-26.92-61.15-13.56-116.55,6.51-27.01,5.82-59.64,5.17-91.19-.81-37.75-1.48-70.35,10.07-87.44,23.36-34.46,47.49-54.24,70.8-73.38,28.97-23.79,56.36-46.26,79.23-94.67.6-1.23,1.22-2.74,1.94-4.45,3.65-8.74,9.2-21.95,20.22-28.14,33.92-18.96,71.63-24.74,161.43-24.74,11.92,0,16.5,17.77,19.55,29.52.81,3.13,1.5,5.84,2.17,7.59,7.53,20.02,26.55,31.09,36.81,31.09,52.71,0,81.24,48.18,138.06,144.18,20.57,34.69,43.83,74.02,73.5,120.26.47.73.51,1.64.1,2.4-.44.84-46.82,85.25-168.82,108.32-.97.22-2.03-.3-2.52-1.2-5.13-9.51-14.81-17.91-20.38-22.24,7.28,74.81-9.22,116.49-9.94,118.28-.34.83-1.13,1.4-2.01,1.47-55.25,4.19-104.93,5.86-148.9,5.86ZM709.69,922.07c12.85,3.35,146.94,36.26,396.17,17.55,2.8-7.96,16.22-50.58,8.55-119.96-.1-.91.35-1.8,1.13-2.28.79-.5,1.78-.46,2.54.06.72.47,16.96,11.42,25.28,25.51,110.7-21.56,157.17-94.21,163.18-104.4-29.35-45.79-52.43-84.78-72.81-119.2-55.92-94.45-83.99-141.85-133.99-141.85-11.9,0-32.84-11.86-41.25-34.15-.76-2-1.48-4.82-2.33-8.09-2.66-10.34-6.7-25.96-14.95-25.96-88.85,0-126.03,5.64-159.12,24.14-9.61,5.38-14.77,17.69-18.16,25.83-.76,1.79-1.41,3.37-2.03,4.65-23.31,49.37-51.09,72.16-80.5,96.3-23.06,18.92-46.91,38.49-69.88,72.38-10.72,15.84-10.03,49.28-9.29,84.68.67,31.85,1.36,64.79-5.27,92.4-12.87,53.33-3.4,79.35,12.73,112.39Z"/>
        </g>
        <g>
          <g>
            <g>
              <path class="cls-1" d="M529.8,975.26c-1.43-1.12-2.94-1.86-4.48-2.38,1.53.8,3,1.62,4.48,2.38Z"/>
              <path d="M525.32,972.88c1.53.84,3,1.62,4.48,2.38-1.43-1.12-2.94-1.86-4.48-2.38h0Z"/>
            </g>
            <g>
              <path class="cls-1" d="M762.23,790.54l44.11,109.95-3.37.27c-1.18.11-118.4,9.95-164.29,9.95-14.12,0-17.61-.89-19.13-1.79-5.29-3.03-19.29-17.97-35.52-35.25-16.64-17.79-35.52-37.92-44.46-44.29-3.81-2.7-7.49-4-11.26-4-10.21,0-19.98,9.92-29.41,19.55-5.17,5.26-10.51,10.7-15.92,14.51-6.28,4.44-13.98,7.73-20.77,10.64-9.45,4.04-18.37,7.84-17.17,12.28,1.92,7.11,6.89,10.55,15.16,10.55,13.63,0,31.56-9.5,43.26-18.89,9.2-7.39,16.24-10.96,21.56-10.96s7.6,3.83,8.02,5.88l.42,2.19-2.17.65c-.35.09-34.36,10.4-43.91,28.02-2.54,4.68-3.05,9.36-1.59,14.23l.27.97-.46.89c-.12.22-10.31,20.07,2.43,32.42l1.06,1.05-.44,1.46c-.03.16-5.34,18.8,1.68,30.99,2.8,4.85,7.3,8.06,13.38,9.54,3.03.74,8.44,1.47,13.75,1.47,7.86,0,13.29-1.55,14.93-4.29,1.06-1.72.69-4.24-1.04-7.51-.76-1.47-1.73-2.68-2.96-3.67l-4.02-2.16c-2.24-.68-4.53-.82-6.54-.95-2.84-.16-5.08-.29-6.4-2-.46-.66-.97-1.76-.62-3.36.67-2.91,1.97-4.4,3.86-4.4l1.04.17.58.35c3.44,1.96,6.77,3.82,10.05,5.59,1.76.59,3.37,1.46,4.8,2.56,30.23,15.9,55.32,23.95,74.57,23.95,11.65,0,21.14-2.95,28.21-8.83l.83-.69,1.09.13c15.3,2.01,34.87,4.97,56.66,8.3,64.47,9.81,144.7,22.03,198.74,22.03,28,0,45.64-3.34,52.43-9.94,39.53-38.31,2.13-215.59-2.64-237.3l-178.8,19.73Z"/>
              <path class="cls-4" d="M891.27,1020.41c-54.14,0-134.3-12.2-198.72-22-21.42-3.27-41.57-6.32-57.01-8.35l-.09.03c-19.48,16.23-55.76,11.25-105.41-14.85-1.57-1.18-2.96-1.91-4.46-2.41-3.65-1.93-7-3.8-10.46-5.78l-.83-.24c-.44.04-.95,1.64-1.16,2.6-.16.76.07,1.21.25,1.47.58.75,2.13.87,4.58.99,2.22.15,4.62.3,7.12,1.05l4.44,2.35c1.85,1.44,3.03,2.89,3.95,4.67,2.15,4.06,2.47,7.37.95,9.84-2.68,4.46-10.7,5.41-16.94,5.41-5.54,0-11.18-.77-14.3-1.54-6.75-1.64-11.74-5.22-14.88-10.66-7.47-12.94-2.13-32.02-1.9-32.81l.02-.13-.05-.05c-14-13.58-2.98-35-2.87-35.2l.02-.12c-1.66-5.51-1.06-10.76,1.78-16.02,10.17-18.77,45.04-29.07,45.38-29.16h.05s-.02-.11-.02-.11c-.02-.13-.86-3.95-5.69-3.95s-11.44,3.51-20.08,10.44c-12.02,9.66-30.52,19.41-44.73,19.41-9.38,0-15.25-4.14-17.45-12.3-1.73-6.4,7.63-10.4,18.44-15.03,6.81-2.92,14.35-6.16,20.4-10.43,5.2-3.65,10.4-8.94,15.43-14.06,9.94-10.14,20.04-20.45,31.29-20.45,4.3,0,8.44,1.46,12.62,4.45,9.29,6.61,29,27.66,44.83,44.59,15.5,16.52,29.99,31.98,34.96,34.82,1.69,1,7.56,1.48,17.98,1.48,45.94,0,163-9.83,164.04-9.94h.21s-42.91-106.99-42.91-106.99c-.28-.68-.21-1.46.16-2.09.4-.63,1.04-1.06,1.78-1.14l178.8-19.73c1.13-.02,2.31.66,2.57,1.85,7.3,33.25,41.64,201.05,1.96,239.51-7.35,7.14-25.03,10.61-54.05,10.61ZM634.75,985.22c.1,0,.19.01.28.02l1.09.13c15.53,2.03,35.7,5.08,56.73,8.31,64.68,9.83,144.65,22,198.42,22,34.06,0,46.4-5.04,50.76-9.26,37.57-36.42,3.17-205.04-2.84-233.01l-173.6,19.16,42.96,107.06c.27.69.21,1.48-.19,2.13-.39.64-1.06,1.05-1.83,1.11l-3.37.28c-.97.09-118.12,9.96-164.45,9.96-15.48,0-18.55-1.05-20.36-2.13-5.54-3.18-18.95-17.45-35.89-35.52-15.85-16.93-35.37-37.79-44.25-44.12-3.37-2.4-6.61-3.57-9.89-3.57-9.26,0-18.65,9.58-27.73,18.84-5.36,5.46-10.72,10.91-16.27,14.8-6.45,4.56-14.24,7.9-21.12,10.85-6.28,2.69-16.55,7.07-15.88,9.51,1.64,6.09,5.62,8.8,12.87,8.8,13.06,0,30.38-9.22,41.78-18.37,9.75-7.83,17.08-11.48,23.04-11.48,6.93,0,9.8,5.08,10.33,7.78l.44,2.23c.21,1.19-.49,2.36-1.66,2.7l-2.17.65c-.35.1-33.55,10.36-42.5,26.87-2.22,4.09-2.68,8.16-1.41,12.44l.28.99c.18.58.12,1.2-.16,1.73l-.46.89c-.09.2-9.43,18.59,1.96,29.63l1.09,1.06c.62.62.86,1.54.6,2.37l-.44,1.46c-.05.15-4.99,17.91,1.48,29.12,2.45,4.26,6.45,7.11,11.87,8.42,2.87.69,8.04,1.4,13.19,1.4,8.14,0,12.04-1.69,12.89-3.13.58-.92.16-2.81-1.09-5.19-.64-1.2-1.41-2.16-2.38-2.95l-3.63-1.92c-1.53-.41-3.65-.54-5.52-.66-3.05-.16-6.19-.33-8.18-2.92-1.11-1.57-1.46-3.36-1.06-5.27,1.25-5.5,4.39-6.31,6.17-6.31l1.43.21c.3.05.57.15.83.3l.57.35c3.38,1.93,6.68,3.78,9.96,5.55,1.62.51,3.46,1.49,5.13,2.77,46.88,24.62,81.98,29.99,99.82,15.18l.81-.69c.44-.36.97-.56,1.52-.56Z"/>
            </g>
          </g>
          <path class="cls-2" d="M872.69,529.42c-25.09-11.13-49.15-9.77-67.89,1.15-47.3,27.61-72.86,73.9-73.66,131.22-1.11,77.15,46.49,225.76,46.49,225.76,34.62-30.88,169.44-38.76,210.3-14.92l-115.23-343.22Z"/>
          <path class="cls-4" d="M777.62,889.93c-.21,0-.42-.04-.62-.08-.76-.22-1.39-.8-1.64-1.57-.46-1.48-47.69-149.85-46.58-226.51.81-58.22,27.38-105.54,74.82-133.23,20.31-11.88,45.19-12.29,70.06-1.27,1.18.53,1.73,1.93,1.2,3.12-.53,1.19-1.92,1.74-3.14,1.2-23.41-10.4-46.79-10-65.72,1.04-45.96,26.83-71.7,72.72-72.51,129.22-.99,69.53,38.38,199.29,45.34,221.68,38.43-28.94,168.15-37.51,210.3-12.92,1.11.66,1.5,2.12.83,3.24-.67,1.13-2.05,1.51-3.23.85-41.02-23.96-174.85-14.51-207.53,14.64-.44.39-.99.6-1.57.6Z"/>
        </g>
      </g>
    </g>
  </g>
</svg>