<?xml version="1.0" encoding="UTF-8"?>
<svg id="Capa_2" data-name="Capa 2" xmlns="http://www.w3.org/2000/svg" xmlns:xlink="http://www.w3.org/1999/xlink" viewBox="0 0 973.07 904.91">
  <defs>
    <style>
      .cls-1 {
        stroke: #fff;
      }

      .cls-1, .cls-2, .cls-3, .cls-4 {
        fill: none;
      }

      .cls-1, .cls-3 {
        stroke-width: 4px;
      }

      .cls-1, .cls-3, .cls-4 {
        stroke-linecap: round;
        stroke-linejoin: round;
      }

      .cls-5 {
        fill: #fff;
      }

      .cls-6 {
        fill: #abfb4f;
      }

      .cls-7 {
        fill: url(#New_Pattern_3);
      }

      .cls-8 {
        fill: blue;
      }

      .cls-9 {
        fill: url(#New_Pattern_4);
      }

      .cls-3, .cls-4 {
        stroke: #000;
      }

      .cls-4 {
        stroke-width: 1.5px;
      }

      .cls-10 {
        fill: url(#New_Pattern_4-2);
      }
    </style>
    <pattern id="New_Pattern_4" data-name="New Pattern 4" x="0" y="0" width="70" height="50" patternTransform="translate(-385.52 -130.5)" patternUnits="userSpaceOnUse" viewBox="0 0 70 50">
      <g>
        <rect class="cls-2" width="70" height="50"/>
        <g>
          <path class="cls-4" d="M8.89,99.96c-.05-7.08.29-14.17.29-21.25,0-4.32-.36-17.47-.29-28.09"/>
          <path class="cls-4" d="M22.94,99.84c.02-1.65.09-3.32.09-5.03,0-2.48-.2-4.98-.2-7.46s.02-3.83.05-7.28c0-1.44-.06-2.9-.06-4.35,0-3.1.31-4.62.31-7.37,0-1.39-.27-4.93-.27-8.33,0-1.07.03-2.14.09-3.21,0-2.06,0-4.29,0-6.7"/>
          <path class="cls-4" d="M36.74,99.84c.02-9.46.33-18.09.33-27.56,0-3.7-.15-7.46-.15-11.2,0-3.35-.09-7.29-.18-10.75"/>
          <path class="cls-4" d="M50.93,99.75c.03-1.23-.07-2.74-.07-3.99,0-1.92-.02-3.85-.02-5.78,0-3.87,0-7.66.02-11.51-.06-.41-.08-.82-.08-1.23,0-.32.18-6.67.18-8.04,0-2.2-.21-3.25-.21-5.64,0-1.3.06-2.65.17-3.87,0-2.88.01-5.88.02-9.05"/>
          <path class="cls-4" d="M64.98,99.71c.02-8.34-.55-15.73-.36-24.06.18-8.13.16-17.71.36-25.19"/>
        </g>
        <g>
          <path class="cls-4" d="M8.89,49.96c-.05-7.08.29-14.17.29-21.25,0-4.32-.36-17.47-.29-28.09"/>
          <path class="cls-4" d="M22.94,49.84c.02-1.65.09-3.32.09-5.03,0-2.48-.2-4.98-.2-7.46s.02-3.83.05-7.28c0-1.44-.06-2.9-.06-4.35,0-3.1.31-4.62.31-7.37,0-1.39-.27-4.93-.27-8.33,0-1.07.03-2.14.09-3.21,0-2.06,0-4.29,0-6.7"/>
          <path class="cls-4" d="M36.74,49.84c.02-9.46.33-18.09.33-27.56,0-3.7-.15-7.46-.15-11.2,0-3.35-.09-7.29-.18-10.75"/>
          <path class="cls-4" d="M50.93,49.75c.03-1.23-.07-2.74-.07-3.99,0-1.92-.02-3.85-.02-5.78,0-3.87,0-7.66.02-11.51-.06-.41-.08-.82-.08-1.23,0-.32.18-6.67.18-8.04,0-2.2-.21-3.25-.21-5.64,0-1.3.06-2.65.17-3.87,0-2.88.01-5.88.02-9.05"/>
          <path class="cls-4" d="M64.98,49.71c.02-8.34-.55-15.73-.36-24.06.18-8.13.16-17.71.36-25.19"/>
        </g>
        <g>
          <path class="cls-4" d="M8.89-.04c-.05-7.08.29-14.17.29-21.25,0-4.32-.36-17.47-.29-28.09"/>
          <path class="cls-4" d="M22.94-.16c.02-1.65.09-3.32.09-5.03,0-2.48-.2-4.98-.2-7.46s.02-3.83.05-7.28c0-1.44-.06-2.9-.06-4.35,0-3.1.31-4.62.31-7.37,0-1.39-.27-4.93-.27-8.33,0-1.07.03-2.14.09-3.21,0-2.06,0-4.29,0-6.7"/>
          <path class="cls-4" d="M36.74-.16c.02-9.46.33-18.09.33-27.56,0-3.7-.15-7.46-.15-11.2,0-3.35-.09-7.29-.18-10.75"/>
          <path class="cls-4" d="M50.93-.25c.03-1.23-.07-2.74-.07-3.99,0-1.92-.02-3.85-.02-5.78,0-3.87,0-7.66.02-11.51-.06-.41-.08-.82-.08-1.23,0-.32.18-6.67.18-8.04,0-2.2-.21-3.25-.21-5.64,0-1.3.06-2.65.17-3.87,0-2.88.01-5.88.02-9.05"/>
          <path class="cls-4" d="M64.98-.29c.02-8.34-.55-15.73-.36-24.06.18-8.13.16-17.71.36-25.19"/>
        </g>
      </g>
    </pattern>
    <pattern id="New_Pattern_4-2" data-name="New Pattern 4" patternTransform="translate(-332.63 -130.05)" xlink:href="#New_Pattern_4"/>
    <pattern id="New_Pattern_3" data-name="New Pattern 3" x="0" y="0" width="40" height="40" patternTransform="translate(-365.52 -160.5)" patternUnits="userSpaceOnUse" viewBox="0 0 40 40">
      <g>
        <rect class="cls-2" width="40" height="40"/>
        <g>
          <path d="M36.18,30c0,1.06.86,1.91,1.91,1.91v-3.82c-1.06,0-1.91.86-1.91,1.91Z"/>
          <path d="M40,33.82c1.06,0,1.91-.86,1.91-1.91h-3.82c0,1.06.86,1.91,1.91,1.91Z"/>
          <path d="M40,26.18c-1.06,0-1.91.86-1.91,1.91h3.82c0-1.06-.86-1.91-1.91-1.91Z"/>
          <path d="M16.18,40c0,1.06.86,1.91,1.91,1.91v-3.82c-1.06,0-1.91.86-1.91,1.91Z"/>
          <path d="M21.91,38.09v3.82c1.06,0,1.91-.86,1.91-1.91s-.86-1.91-1.91-1.91Z"/>
          <path d="M20,36.18c-1.06,0-1.91.86-1.91,1.91h3.82c0-1.06-.86-1.91-1.91-1.91Z"/>
          <path d="M1.91,28.09v3.82c1.06,0,1.91-.86,1.91-1.91s-.86-1.91-1.91-1.91Z"/>
          <path d="M36.18,10c0,1.06.86,1.91,1.91,1.91v-3.82c-1.06,0-1.91.86-1.91,1.91Z"/>
          <path d="M40,13.82c1.06,0,1.91-.86,1.91-1.91h-3.82c0,1.06.86,1.91,1.91,1.91Z"/>
          <path d="M40,6.18c-1.06,0-1.91.86-1.91,1.91h3.82c0-1.06-.86-1.91-1.91-1.91Z"/>
          <path d="M18.79,16.37c-1,.33-1.54,1.42-1.21,2.42l3.63-1.21c-.33-1-1.42-1.54-2.42-1.21Z"/>
          <path d="M22.42,21.21l-3.63,1.21c.33,1,1.42,1.54,2.42,1.21s1.54-1.42,1.21-2.42Z"/>
          <path d="M16.37,21.21c.33,1,1.42,1.54,2.42,1.21l-1.21-3.63c-1,.33-1.54,1.42-1.21,2.42Z"/>
          <path d="M23.63,18.79c-.33-1-1.42-1.54-2.42-1.21l1.21,3.63c1-.33,1.54-1.42,1.21-2.42Z"/>
          <path d="M1.91,8.09v3.82c1.06,0,1.91-.86,1.91-1.91s-.86-1.91-1.91-1.91Z"/>
          <path d="M20,3.82c1.06,0,1.91-.86,1.91-1.91h-3.82c0,1.06.86,1.91,1.91,1.91Z"/>
        </g>
        <g>
          <path d="M0,33.82c1.06,0,1.91-.86,1.91-1.91H-1.91c0,1.06.86,1.91,1.91,1.91Z"/>
          <path d="M0,26.18c-1.06,0-1.91.86-1.91,1.91H1.91c0-1.06-.86-1.91-1.91-1.91Z"/>
          <path d="M0,13.82c1.06,0,1.91-.86,1.91-1.91H-1.91c0,1.06.86,1.91,1.91,1.91Z"/>
          <path d="M0,6.18c-1.06,0-1.91.86-1.91,1.91H1.91c0-1.06-.86-1.91-1.91-1.91Z"/>
        </g>
        <g>
          <path d="M16.18,0c0,1.06.86,1.91,1.91,1.91V-1.91c-1.06,0-1.91.86-1.91,1.91Z"/>
          <path d="M21.91-1.91V1.91c1.06,0,1.91-.86,1.91-1.91s-.86-1.91-1.91-1.91Z"/>
        </g>
      </g>
    </pattern>
  </defs>
  <g id="Capa_1-2" data-name="Capa 1">
    <g>
      <g>
        <g>
          <rect class="cls-5" x="350.39" y="865.4" width="112.54" height="37.51"/>
          <rect class="cls-5" x="350.39" y="827.89" width="112.54" height="37.51"/>
          <rect class="cls-5" x="350.39" y="790.37" width="112.54" height="37.52"/>
          <rect class="cls-5" x="202.13" y="865.4" width="112.54" height="37.51"/>
          <rect class="cls-5" x="202.13" y="827.89" width="112.54" height="37.51"/>
          <rect class="cls-5" x="202.13" y="790.37" width="112.54" height="37.52"/>
          <rect class="cls-8" x="258.4" y="386.96" width="21.76" height="39.94"/>
          <path class="cls-8" d="M258.4,457.97c9.63,0,17.44,7.8,17.44,17.43s-7.81,17.44-17.44,17.44-17.44-7.8-17.44-17.44,7.81-17.43,17.44-17.43Z"/>
          <path class="cls-6" d="M258.4,386.96v39.94h-71.34c-8.22-12.71-21.66-21.73-37.28-24.04v-15.9h108.62Z"/>
          <path class="cls-5" d="M187.06,426.9c5.46,8.43,8.63,18.47,8.63,29.26,0,29.76-24.12,53.88-53.88,53.88s-53.89-24.12-53.89-53.88,24.13-53.89,53.89-53.89c2.71,0,5.37.2,7.97.59v24.04h37.28Z"/>
          <path class="cls-9" d="M187.06,426.9c5.46,8.43,8.63,18.47,8.63,29.26,0,29.76-24.12,53.88-53.88,53.88s-53.89-24.12-53.89-53.88,24.13-53.89,53.89-53.89c2.71,0,5.37.2,7.97.59v24.04h37.28Z"/>
          <path d="M187.06,426.9h-37.28v-24.04c15.62,2.31,29.06,11.33,37.28,24.04Z"/>
          <rect class="cls-5" x="53.88" y="865.4" width="112.54" height="37.51"/>
          <rect class="cls-5" x="53.88" y="827.89" width="112.54" height="37.51"/>
          <rect class="cls-5" x="53.88" y="790.37" width="112.54" height="37.52"/>
        </g>
        <g>
          <polygon class="cls-3" points="462.93 865.4 462.93 902.91 350.39 902.91 350.39 790.37 462.93 790.37 462.93 865.4"/>
          <line class="cls-3" x1="350.39" y1="827.89" x2="462.93" y2="827.89"/>
          <line class="cls-3" x1="350.39" y1="865.4" x2="462.93" y2="865.4"/>
          <polygon class="cls-3" points="314.67 865.4 314.67 902.91 202.13 902.91 202.13 790.37 314.67 790.37 314.67 865.4"/>
          <line class="cls-3" x1="202.13" y1="827.89" x2="314.67" y2="827.89"/>
          <line class="cls-3" x1="202.13" y1="865.4" x2="314.67" y2="865.4"/>
          <polygon class="cls-3" points="166.42 865.4 166.42 902.91 53.88 902.91 53.88 790.37 166.42 790.37 166.42 865.4"/>
          <line class="cls-3" x1="53.88" y1="827.89" x2="166.42" y2="827.89"/>
          <line class="cls-3" x1="53.88" y1="865.4" x2="166.42" y2="865.4"/>
          <line class="cls-3" x1="258.4" y1="320.83" x2="258.4" y2="457.97"/>
          <line class="cls-3" x1="258.4" y1="492.84" x2="258.4" y2="790.37"/>
          <path class="cls-3" d="M258.4,492.84c9.63,0,17.44-7.8,17.44-17.44s-7.81-17.43-17.44-17.43-17.44,7.8-17.44,17.43,7.81,17.44,17.44,17.44Z"/>
          <polygon class="cls-3" points="258.4 386.96 280.16 386.96 280.16 426.9 149.78 426.9 149.78 386.96 258.4 386.96"/>
          <path class="cls-3" d="M149.78,402.86c-2.6-.39-5.26-.59-7.97-.59-29.76,0-53.89,24.13-53.89,53.89s24.13,53.88,53.89,53.88,53.88-24.12,53.88-53.88c0-10.79-3.17-20.83-8.63-29.26-8.22-12.71-21.66-21.71-37.28-24.04Z"/>
        </g>
      </g>
      <g>
        <g>
          <path class="cls-5" d="M764.99,390.98h-14.99l-15.48-35.85,18.97-20.75c8.88-9.71,21.44-15.24,34.6-15.24h71.73l57.72-46.94c11.86,13.32,25.01,28.43,40.3,44.71,13.97,14.87,17.27,36.91,8.03,55.34-8.37,16.68-25.77,26.89-44.43,26.89h-97.65c-.39-2.01-1.37-3.8-2.77-5.2-1.82-1.83-4.35-2.96-7.13-2.96h-48.9Z"/>
          <path class="cls-8" d="M917.54,272.2l-57.72,46.94h-71.73c-13.16,0-25.72,5.53-34.6,15.24l-18.97,20.75-32.42-75.07c-2.05-4.77-6.75-7.86-11.95-7.86h-79.81c39.17-37.5,72.75-56.91,116.74-35.03,8.05,4.01,17.14,6.26,26.74,6.26,12.26,0,23.66-3.66,33.17-9.96,57.53-38.12,84.23-13.28,130.55,38.73Z"/>
          <path class="cls-5" d="M890.83,612.54v290.37h-52.98v-290.37h52.98ZM877.98,737.72v-21.71h-24.62v21.71h24.62Z"/>
          <path class="cls-10" d="M890.83,612.54v290.37h-52.98v-290.37h52.98ZM877.98,737.72v-21.71h-24.62v21.71h24.62Z"/>
          <rect x="853.36" y="716.01" width="24.62" height="21.71"/>
          <path d="M857.07,178.79h-66.02c1.48-4.13,2.33-8.56,2.4-13.18-.02-1.24-.09-2.46-.22-3.66-2.46.46-5,.7-7.59.7-16.32,0-30.41-9.56-36.98-23.38-7.5,8.61-18.55,14.05-30.87,14.05-1.35,0-2.69-.06-4.02-.19-1.33,3.92-2.08,8.12-2.15,12.48.07,4.62.91,9.05,2.4,13.18h-50.47c16.12-.12,30-11.32,34.09-26.91,6.38-24.36,28.54-42.33,54.89-42.33,23.49,0,43.65,14.27,52.27,34.62,8.62,20.35,28.78,34.62,52.27,34.62Z"/>
          <path class="cls-6" d="M851.85,533.81c2.58,12.22,3.63,33.55-12.04,53.8-11.43,14.77-27.97,23.27-45.21,24.93h-12.49c-11.8-1.14-23.42-5.51-33.49-13.3l-165.26-125.52c-10.55-8.02-21.82-15.03-33.67-20.96l-4.31-2.16c-20.15-10.08-44.08-9.01-63.25,2.84-19.16,11.84-30.83,32.76-30.83,55.29v63.16l-55.63,55.63-55.26-55.26c19.12-19.12,3.23-48.04-30.17-43.16l171.17-171.17c12.13-12.13,26.42-21.03,41.7-26.61,1.59-.59,3.19-1.14,4.81-1.64,35.07-11.11,74.67-5.19,105.41,18.6l153.15,116.44h56.12c.29,3.02,3.15,30.51,3.15,30.51,1.36,12.96,3.41,25.83,6.1,38.58Z"/>
          <path class="cls-8" d="M842.6,464.72h-56.12l-70.43-53.55h97.84c5.57,0,10.09-4.52,10.09-10.09,0-.66-.06-1.31-.19-1.94h14.61c.71,21.89,2.11,43.76,4.2,65.58Z"/>
          <path class="cls-5" d="M837.85,872v30.91h-60.64c8.54-39.41,37.87-18.14,60.64-30.91Z"/>
          <path class="cls-5" d="M837.85,757.35v114.65c-22.77,12.77-52.1-8.5-60.64,30.91h-74.79c8.27-15.62,16.69-31.48,28.5-43.94,16.26-17.17,51.11-29.28,51.11-48.07,0-5.15-1.88-10.29-1.88-15.3,0-22.24,35.99-15.85,57.7-38.25Z"/>
          <path class="cls-7" d="M837.85,757.35v114.65c-22.77,12.77-52.1-8.5-60.64,30.91h-74.79c8.27-15.62,16.69-31.48,28.5-43.94,16.26-17.17,51.11-29.28,51.11-48.07,0-5.15-1.88-10.29-1.88-15.3,0-22.24,35.99-15.85,57.7-38.25Z"/>
          <path class="cls-5" d="M837.85,663.07v94.28c-21.71,22.4-57.7,16.01-57.7,38.25,0,5.01,1.88,10.15,1.88,15.3,0,18.79-34.85,30.9-51.11,48.07-11.81,12.46-20.23,28.32-28.5,43.94h-83.55c20.8-50.04,76.6-59.97,76.6-88.05,0-18.54-43.32-6.95-43.32-29.84,0-32.17,84.07-88.6,97.49-88.6,19.97,0-5.68,25.48,24.81,25.48,24.91,0,40.74-38.52,63.4-58.83Z"/>
          <path class="cls-5" d="M837.85,612.54v50.53c-22.66,20.31-38.49,58.83-63.4,58.83-30.49,0-4.84-25.48-24.81-25.48-13.42,0-97.49,56.43-97.49,88.6,0,22.89,43.32,11.3,43.32,29.84,0,28.08-55.8,38.01-76.6,88.05h-37.57v-176.23c5.39-9.47,13.38-17.19,28.69-22.64,17.65-6.28,40.67-.93,56.08-13.56,15.16-12.43,10.29-34,24.03-46.66,17.48-16.11,37.25-5.82,48.28-31.28h99.47Z"/>
          <path class="cls-7" d="M837.85,612.54v50.53c-22.66,20.31-38.49,58.83-63.4,58.83-30.49,0-4.84-25.48-24.81-25.48-13.42,0-97.49,56.43-97.49,88.6,0,22.89,43.32,11.3,43.32,29.84,0,28.08-55.8,38.01-76.6,88.05h-37.57v-176.23c5.39-9.47,13.38-17.19,28.69-22.64,17.65-6.28,40.67-.93,56.08-13.56,15.16-12.43,10.29-34,24.03-46.66,17.48-16.11,37.25-5.82,48.28-31.28h99.47Z"/>
          <path d="M823.79,399.14c.13.63.19,1.28.19,1.94,0,5.57-4.52,10.09-10.09,10.09h-55.17l-8.72-20.19h63.89c2.78,0,5.31,1.13,7.13,2.96,1.4,1.4,2.37,3.19,2.77,5.2Z"/>
          <path class="cls-5" d="M791.05,178.79c-5.69,15.77-20.79,27.05-38.52,27.05s-32.83-11.28-38.51-27.05c-1.49-4.13-2.33-8.56-2.4-13.18.07-4.36.82-8.56,2.15-12.48,1.33.13,2.67.19,4.02.19,12.32,0,23.37-5.44,30.87-14.05,6.57,13.82,20.66,23.38,36.98,23.38,2.59,0,5.13-.24,7.59-.7.13,1.2.2,2.42.22,3.66-.07,4.62-.92,9.05-2.4,13.18Z"/>
          <path class="cls-6" d="M782.11,612.54h-164.33c-3.38-1.25-6.68-2.7-9.77-4.24l-26.71-13.37v216.21h-78.15c0-27.04-31.68-36.26-51.85-9.19v-293.22c0-22.53,11.67-43.45,30.83-55.29,19.17-11.85,43.1-12.92,63.25-2.84l4.31,2.16c11.85,5.93,23.12,12.94,33.67,20.96l165.26,125.52c10.07,7.79,21.69,12.16,33.49,13.3Z"/>
          <path class="cls-5" d="M750,390.98l8.72,20.19h-42.67l-82.72-62.89c-30.74-23.79-70.34-29.71-105.41-18.6l-14.94-34.6h0s-7.33-16.97-7.33-16.97c-1.2-2.79.84-5.91,3.89-5.91h180.61c5.2,0,9.9,3.09,11.95,7.86l47.9,110.92Z"/>
          <path d="M617.78,612.54h120.6c-11.03,25.46-30.8,15.17-48.28,31.28-13.74,12.66-8.87,34.23-24.03,46.66-15.41,12.63-38.43,7.28-56.08,13.56-15.31,5.45-23.3,13.17-28.69,22.64v-114.14h36.48Z"/>
          <path d="M581.3,811.14v91.77h-163.45c-13.28,0-22.86-13.03-18.55-25.59,5.93-17.25,17.68-29.36,38.73-43.79,2.9-13.63,7.64-24.02,13.27-31.58,20.17-27.07,51.85-17.85,51.85,9.19h78.15Z"/>
          <path class="cls-5" d="M496.94,311.66l26.17,19.66c-15.28,5.58-29.57,14.48-41.7,26.61l-24.34,24.34-41.79-31.88c-4.93-3.76-10.95-5.8-17.16-5.8h-3.11c-6.54,0-12.38-4.09-14.61-10.24l-6.49-17.93c1.47.27,2.99.24,4.49-.13,6.68-1.65,10.52-9.42,8.57-17.37-1.21-4.89-4.32-8.7-8.09-10.53.24-.11.48-.2.73-.29,7.79-2.81,16.39,1.21,19.21,9l8.59,23.73h59.3c11.03,0,21.31-3.25,29.86-8.92.12-.08.25-.16.37-.25Z"/>
          <path class="cls-5" d="M468.7,212.04c29.2,1.05,52.6,25.51,52.42,54.72-.01,1.84-.11,3.65-.3,5.44h-11.28c-3.05,0-5.09,3.12-3.89,5.91l7.33,16.96h0c-4.12,6.62-9.59,12.28-16.04,16.59-.12.09-.25.17-.37.25-8.55,5.67-18.83,8.92-29.86,8.92h-59.3l-8.59-23.73c-2.82-7.79-11.42-11.81-19.21-9-.25.09-.49.18-.73.29-3.75,1.65-6.6,4.58-8.05,8.15-3.02-7.42-11.4-11.2-19-8.44-.33.12-.65.25-.97.39-3.66,1.61-6.38,4.56-7.8,8.05h-.01c-3.02-7.42-11.39-11.2-18.99-8.44-.41.15-.82.32-1.21.5-6.99,3.23-10.46,11.34-7.79,18.71l4.9,13.52H64.23c-33.7,0-61.79-26.81-62.22-60.5-.44-34.24,27.18-62.13,61.31-62.13,7.16,0,14.04,1.23,20.43,3.49-1.29-7.73-1.97-15.67-1.97-23.77,0-9.95,1.02-19.66,2.95-29.03,1.55-7.52,3.7-14.83,6.38-21.86,20.51-53.81,72.59-92.04,133.6-92.04,45.06,0,85.25,20.86,111.45,53.44l-85.35,85.5-63.41-60.27-45.59,45.71,110.56,104.34,150.7-150.98c28.04,10.49,48.37,37.22,49.36,68.56.4,12.63-2.3,24.6-7.38,35.2,7.2-3.13,15.23-4.75,23.65-4.45Z"/>
          <polygon class="cls-8" points="370.36 54.17 416.03 99.73 252.37 263.71 141.81 159.37 187.4 113.66 250.81 173.93 370.36 54.17"/>
          <path d="M395.67,627.52l-64.89,64.89-115.58-115.57c-9.39-9.4-6.95-25.39,4.99-31.21,16.38-8.01,33.26-8.27,58.35-3.58,11.67-7.59,22.37-11.59,31.7-12.95,33.4-4.88,49.29,24.04,30.17,43.16l55.26,55.26Z"/>
          <path class="cls-5" d="M395.01,344.59h-27.59c-6.65,0-12.59-4.16-14.86-10.42l-6.39-17.67c1.32.18,2.67.12,4-.21,6.69-1.65,10.52-9.42,8.57-17.37-1.18-4.79-4.2-8.56-7.88-10.43.32-.14.64-.27.97-.39,7.6-2.76,15.98,1.02,19,8.44-1.36,3.32-1.54,7.14-.22,10.77l9.79,27.04c2.23,6.15,8.07,10.24,14.61,10.24Z"/>
          <path class="cls-5" d="M386.97,298.92c1.95,7.95-1.89,15.72-8.57,17.37-1.5.37-3.02.4-4.49.13l-3.3-9.11c-1.32-3.63-1.14-7.45.22-10.77,1.45-3.57,4.27-6.56,8.05-8.15,3.77,1.83,6.88,5.64,8.09,10.53Z"/>
          <path class="cls-5" d="M367.42,344.59h-28.44c-6.25,0-11.83-3.91-13.96-9.79l-6.61-18.25c1.17.11,2.36.03,3.54-.26,6.68-1.65,10.52-9.42,8.56-17.37-1.15-4.7-4.08-8.41-7.66-10.32.39-.18.8-.35,1.21-.5,7.6-2.76,15.97,1.02,18.99,8.44h.01c-1.36,3.32-1.54,7.14-.22,10.77l3.32,9.19h.01l6.39,17.67c2.27,6.26,8.21,10.42,14.86,10.42Z"/>
          <path class="cls-5" d="M358.74,298.92c1.95,7.95-1.88,15.72-8.57,17.37-1.33.33-2.68.39-4,.21h-.01l-3.32-9.19c-1.32-3.63-1.14-7.45.22-10.77,1.42-3.49,4.14-6.43,7.8-8.05,3.68,1.87,6.7,5.64,7.88,10.43Z"/>
          <path class="cls-5" d="M330.51,298.92c1.96,7.95-1.88,15.72-8.56,17.37-1.18.29-2.37.37-3.54.26l-3.35-9.24c-2.67-7.37.8-15.48,7.79-18.71,3.58,1.91,6.51,5.62,7.66,10.32Z"/>
        </g>
        <g>
          <line class="cls-3" x1="451.3" y1="571.89" x2="395.67" y2="627.52"/>
          <path class="cls-3" d="M310.24,529.1l171.17-171.17c12.13-12.13,26.43-20.99,41.7-26.61,1.59-.59,3.19-1.13,4.81-1.64,35.11-10.98,74.67-5.19,105.41,18.6l153.15,116.44"/>
          <path class="cls-3" d="M782.11,612.54c-11.8-1.14-23.42-5.51-33.49-13.3l-165.26-125.52c-10.55-8.02-21.82-15.03-33.67-20.96l-4.31-2.16c-20.15-10.08-44.08-9.01-63.25,2.84-19.16,11.84-30.83,32.76-30.83,55.29v293.22"/>
          <path class="cls-3" d="M581.3,811.14v-216.21l26.71,13.37c3.09,1.54,6.39,2.99,9.77,4.24"/>
          <polyline class="cls-3" points="581.3 902.91 890.83 902.91 890.83 612.54 581.3 612.54"/>
          <line class="cls-3" x1="837.85" y1="902.91" x2="837.85" y2="612.54"/>
          <path class="cls-3" d="M838.4,399.14c.71,21.89,2.11,43.76,4.2,65.58.29,3.02,3.15,30.51,3.15,30.51,1.36,12.96,3.41,25.83,6.1,38.58,2.58,12.22,3.63,33.55-12.04,53.8-11.43,14.77-27.97,23.27-45.21,24.93"/>
          <path class="cls-3" d="M581.3,902.91h-163.45c-13.28,0-22.86-13.03-18.55-25.59,5.93-17.25,17.68-29.36,38.73-43.79,2.9-13.63,7.64-24.02,13.27-31.58,20.17-27.07,51.85-17.85,51.85,9.19h78.15v91.77Z"/>
          <line class="cls-1" x1="442.5" y1="839.56" x2="463.39" y2="856.59"/>
          <line class="cls-1" x1="452.95" y1="827.27" x2="473.84" y2="844.3"/>
          <path class="cls-3" d="M330.78,692.41l-115.58-115.57c-9.39-9.4-6.95-25.39,4.99-31.21,16.38-8.01,33.26-8.27,58.35-3.58,11.67-7.59,22.37-11.59,31.7-12.95,33.4-4.87,49.29,24.04,30.17,43.16l55.26,55.26-64.89,64.89Z"/>
          <line class="cls-1" x1="277.43" y1="549.47" x2="280.16" y2="576.28"/>
          <line class="cls-1" x1="293.5" y1="548.17" x2="296.24" y2="574.98"/>
          <line class="cls-3" x1="496.94" y1="311.66" x2="523.11" y2="331.32"/>
          <path class="cls-3" d="M610.34,272.2c39.17-37.5,72.75-56.91,116.74-35.03,8.05,4.01,17.14,6.26,26.74,6.26,12.26,0,23.66-3.66,33.17-9.96,57.53-38.12,84.23-13.28,130.55,38.73,11.86,13.32,25.01,28.43,40.3,44.71,13.97,14.87,17.27,36.91,8.03,55.34-8.37,16.68-25.77,26.89-44.43,26.89h-97.64"/>
          <path class="cls-3" d="M512.98,295.07l-7.33-16.96c-1.2-2.79.84-5.91,3.89-5.91h180.61c5.2,0,9.9,3.09,11.95,7.86l56.62,131.11h-42.67"/>
          <line class="cls-3" x1="527.92" y1="329.68" x2="512.98" y2="295.08"/>
          <path class="cls-3" d="M758.72,411.17h55.17c5.57,0,10.09-4.52,10.09-10.09,0-.66-.06-1.31-.19-1.94-.4-2.01-1.37-3.8-2.77-5.2-1.82-1.83-4.35-2.96-7.13-2.96h-63.89"/>
          <path class="cls-3" d="M876.95,319.14h-88.86c-13.16,0-25.72,5.53-34.6,15.24l-18.97,20.75"/>
          <line class="cls-3" x1="764.06" y1="355.08" x2="744.64" y2="378.56"/>
          <path class="cls-3" d="M786.04,360l-13.98,16.83c-3.44,4.14-5.84,8.99-7.07,14.15"/>
          <path class="cls-3" d="M798.83,390.98c-.73-5.88-5.75-10.44-11.84-10.44"/>
          <line class="cls-3" x1="859.82" y1="319.14" x2="917.54" y2="272.2"/>
          <path class="cls-3" d="M367.42,344.59h-28.44c-6.25,0-11.83-3.91-13.96-9.79l-9.96-27.49c-2.67-7.37.8-15.48,7.79-18.71.39-.18.8-.35,1.21-.5,7.6-2.76,15.97,1.02,18.99,8.44"/>
          <line class="cls-3" x1="395.01" y1="344.59" x2="374.09" y2="344.59"/>
          <path class="cls-3" d="M457.07,382.27l-41.79-31.88c-4.93-3.76-10.95-5.8-17.16-5.8"/>
          <path class="cls-3" d="M319.96,320.83H64.23c-33.7,0-61.79-26.81-62.22-60.5-.44-34.24,27.18-62.13,61.31-62.13,7.16,0,14.04,1.23,20.43,3.49-1.29-7.73-1.97-15.67-1.97-23.77,0-9.95,1.02-19.66,2.95-29.03,1.55-7.52,3.7-14.83,6.38-21.86,20.51-53.81,72.59-92.04,133.6-92.04,45.06,0,85.25,20.86,111.45,53.44"/>
          <path class="cls-3" d="M403.07,112.73c28.04,10.49,48.37,37.22,49.36,68.56.4,12.63-2.3,24.6-7.38,35.2,7.2-3.13,15.23-4.75,23.65-4.45,29.2,1.05,52.6,25.51,52.42,54.72-.01,1.84-.11,3.65-.3,5.44"/>
          <path class="cls-3" d="M512.98,295.07h0c-4.12,6.62-9.59,12.28-16.04,16.59-.12.09-.25.17-.37.25-8.55,5.67-18.83,8.92-29.86,8.92h-59.3l-8.59-23.73c-2.82-7.79-11.42-11.81-19.21-9-.25.09-.49.18-.73.29-3.75,1.65-6.59,4.58-8.05,8.15-1.36,3.32-1.54,7.14-.22,10.77l9.79,27.04c2.23,6.15,8.07,10.24,14.61,10.24h3.11"/>
          <path class="cls-3" d="M346.17,316.5l6.39,17.67c2.27,6.26,8.21,10.42,14.86,10.42h6.67"/>
          <path class="cls-3" d="M370.83,296.54c-3.02-7.42-11.4-11.2-19-8.44-.33.12-.65.25-.97.39-3.66,1.61-6.38,4.56-7.8,8.05-1.36,3.32-1.54,7.14-.22,10.77l3.32,9.19"/>
          <path class="cls-3" d="M322.85,288.6c3.58,1.91,6.51,5.62,7.66,10.32,1.96,7.95-1.88,15.72-8.56,17.37-1.18.29-2.37.37-3.54.26"/>
          <path class="cls-3" d="M350.86,288.49c3.68,1.87,6.7,5.64,7.88,10.43,1.95,7.95-1.88,15.72-8.57,17.37-1.33.33-2.68.39-4,.21h-.01"/>
          <path class="cls-3" d="M378.88,288.39c3.77,1.83,6.88,5.64,8.09,10.53,1.95,7.95-1.89,15.72-8.57,17.37-1.5.37-3.02.4-4.49.13"/>
          <polygon class="cls-3" points="336.16 88.43 370.36 54.17 416.03 99.73 252.37 263.71 141.81 159.37 187.4 113.66 250.81 173.93 336.16 88.43"/>
          <rect class="cls-3" x="853.36" y="716.01" width="24.62" height="21.71"/>
          <line class="cls-3" x1="854.58" y1="697.02" x2="877.98" y2="697.02"/>
          <line class="cls-3" x1="854.58" y1="678.02" x2="877.98" y2="678.02"/>
          <path class="cls-3" d="M581.3,726.68c5.39-9.47,13.38-17.19,28.69-22.64,17.65-6.28,40.67-.93,56.08-13.56,15.16-12.43,10.29-34,24.03-46.66,17.48-16.11,37.25-5.82,48.28-31.28"/>
          <path class="cls-3" d="M618.87,902.91c20.8-50.04,76.6-59.97,76.6-88.05,0-18.54-43.32-6.95-43.32-29.84,0-32.17,84.07-88.6,97.49-88.6,19.97,0-5.68,25.48,24.81,25.48,24.91,0,40.74-38.52,63.4-58.83"/>
          <path class="cls-3" d="M702.42,902.91c8.27-15.62,16.69-31.48,28.5-43.94,16.26-17.17,51.11-29.28,51.11-48.07,0-5.15-1.88-10.29-1.88-15.3,0-22.24,35.99-15.85,57.7-38.25"/>
          <path class="cls-3" d="M777.21,902.91c8.54-39.41,37.87-18.14,60.64-30.91"/>
          <line class="cls-3" x1="663.18" y1="178.79" x2="714.02" y2="178.79"/>
          <path class="cls-3" d="M791.04,178.79h66.03c-23.49,0-43.65-14.27-52.27-34.62-8.62-20.35-28.78-34.62-52.27-34.62-26.35,0-48.51,17.97-54.89,42.33-4.09,15.59-17.97,26.79-34.09,26.91"/>
          <path class="cls-3" d="M714.02,178.79c-1.49-4.13-2.33-8.56-2.4-13.18.07-4.36.82-8.56,2.15-12.48,1.33.13,2.67.19,4.02.19,12.32,0,23.37-5.44,30.87-14.05,6.57,13.82,20.66,23.38,36.98,23.38,2.59,0,5.13-.24,7.59-.7.13,1.2.2,2.42.22,3.66-.07,4.62-.92,9.05-2.4,13.18-5.67,15.78-20.79,27.05-38.52,27.05s-32.83-11.28-38.51-27.05Z"/>
          <line class="cls-3" x1="786.48" y1="464.72" x2="842.6" y2="464.72"/>
        </g>
      </g>
      <path d="M622.75,76.84l-18.87,5.12c-12.63,3.43-22.49,13.31-25.93,25.95l-5.09,18.82-5.12-18.82c-3.41-12.63-13.29-22.52-25.9-25.95l-18.86-5.12,18.86-5.12c12.61-3.43,22.49-13.28,25.9-25.93l5.12-18.84,5.09,18.84c3.43,12.65,13.29,22.49,25.93,25.93l18.87,5.12Z"/>
      <path class="cls-3" d="M488.33,26.95l-9.44,2.56c-6.32,1.72-11.25,6.66-12.96,12.97l-2.54,9.41-2.56-9.41c-1.71-6.32-6.65-11.26-12.95-12.97l-9.43-2.56,9.43-2.56c6.31-1.72,11.25-6.64,12.95-12.96l2.56-9.42,2.54,9.42c1.72,6.32,6.65,11.25,12.96,12.96l9.44,2.56Z"/>
    </g>
  </g>
</svg>