<?xml version="1.0" encoding="UTF-8"?>
<svg id="Capa_2" xmlns="http://www.w3.org/2000/svg" viewBox="0 0 827.84 692.09">
  <defs>
    <style>
      .cls-1 {
        fill: #fff;
      }

      .cls-2 {
        fill: blue;
      }

      .cls-3 {
        fill: #9afb4f;
      }

      .cls-4 {
        fill: #c6c6c6;
      }
    </style>
  </defs>
  <g id="Capa_1-2" data-name="Capa_1">
    <g id="Usability_testing">
      <g>
        <g>
          <path class="cls-1" d="M223.48,389.44l1.58-20.4-21.36-6.58c-.48-4.79-1.35-9.48-2.59-14.02l17.52-13.83-8.84-18.46-21.79,4.98c-2.78-3.85-5.88-7.47-9.26-10.81l8.27-20.77-16.88-11.57-16.36,15.19c-4.3-1.93-8.8-3.51-13.45-4.72l-3.22-22.12-20.4-1.58-6.58,21.36c-4.79.48-9.48,1.35-14.02,2.59l-13.83-17.52-18.46,8.84,4.98,21.79c-3.85,2.78-7.47,5.88-10.82,9.26l-20.77-8.27-11.57,16.88,15.19,16.36c-1.93,4.3-3.51,8.8-4.72,13.45l-22.12,3.22-1.58,20.4,21.36,6.58c.48,4.79,1.35,9.48,2.59,14.02l-17.52,13.83,8.84,18.46,21.79-4.98c2.78,3.85,5.88,7.47,9.26,10.81l-8.27,20.77,16.88,11.57,16.36-15.19c4.3,1.93,8.8,3.51,13.45,4.72l3.23,22.12,20.4,1.58,6.58-21.36c4.79-.48,9.48-1.35,14.02-2.59l13.83,17.52,18.46-8.84-4.98-21.79c3.86-2.78,7.47-5.88,10.81-9.26l20.77,8.27,11.57-16.88-15.19-16.36c1.93-4.3,3.51-8.8,4.72-13.45l22.12-3.22ZM114.66,423.61c-29.01-2.24-50.71-27.57-48.47-56.58,2.24-29.01,27.57-50.71,56.58-48.47,29.01,2.24,50.71,27.57,48.47,56.58-2.24,29.01-27.57,50.71-56.58,48.47Z"/>
          <path d="M114.22,472.61c-.07,0-.15,0-.22,0l-20.4-1.58c-1.32-.1-2.4-1.11-2.59-2.42l-2.96-20.28c-3.55-1-7.02-2.22-10.35-3.63l-15,13.92c-.97.9-2.44,1.01-3.53.26l-16.88-11.57c-1.09-.75-1.52-2.16-1.03-3.39l7.58-19.05c-2.53-2.62-4.92-5.4-7.12-8.31l-19.99,4.57c-1.29.29-2.62-.34-3.19-1.54l-8.84-18.46c-.57-1.2-.24-2.63.8-3.45l16.06-12.68c-.88-3.5-1.55-7.12-1.99-10.78l-19.58-6.03c-1.27-.39-2.1-1.61-1.99-2.93l1.58-20.4c.1-1.32,1.11-2.4,2.42-2.59l20.28-2.96c1-3.56,2.22-7.02,3.63-10.35l-13.93-15c-.9-.97-1.01-2.44-.26-3.53l11.57-16.88c.75-1.09,2.15-1.52,3.39-1.03l19.05,7.58c2.62-2.54,5.4-4.92,8.31-7.12l-4.57-19.99c-.3-1.29.34-2.62,1.54-3.19l18.46-8.84c1.19-.57,2.63-.24,3.45.8l12.68,16.06c3.51-.88,7.12-1.55,10.78-1.99l6.03-19.58c.39-1.27,1.62-2.09,2.93-1.99l20.4,1.58c1.32.1,2.4,1.11,2.59,2.42l2.96,20.28c3.55,1,7.02,2.22,10.35,3.63l15-13.93c.97-.9,2.44-1.01,3.53-.26l16.88,11.57c1.09.75,1.52,2.16,1.03,3.39l-7.58,19.05c2.54,2.62,4.93,5.41,7.12,8.31l19.99-4.57c1.29-.29,2.62.35,3.19,1.54l8.84,18.46c.57,1.2.24,2.63-.8,3.45l-16.06,12.68c.88,3.5,1.55,7.12,1.99,10.78l19.58,6.03c1.27.39,2.1,1.61,1.99,2.93l-1.58,20.4c-.1,1.32-1.11,2.4-2.42,2.59l-20.28,2.96c-1,3.55-2.22,7.02-3.63,10.35l13.92,15c.9.97,1.01,2.44.26,3.53l-11.57,16.88c-.75,1.09-2.15,1.52-3.39,1.03l-19.05-7.58c-2.62,2.54-5.41,4.93-8.31,7.12l4.57,19.98c.3,1.29-.34,2.62-1.54,3.19l-18.46,8.84c-1.19.57-2.63.24-3.45-.8l-12.68-16.06c-3.51.88-7.12,1.55-10.78,1.99l-6.03,19.58c-.37,1.2-1.47,2-2.71,2ZM96.3,465.54l15.88,1.23,5.92-19.19c.34-1.09,1.29-1.87,2.43-1.99,4.64-.47,9.19-1.31,13.55-2.51,1.09-.3,2.27.08,2.98.98l12.43,15.74,14.37-6.88-4.47-19.58c-.25-1.11.18-2.26,1.1-2.93,3.71-2.68,7.23-5.69,10.46-8.96.8-.81,2.01-1.06,3.06-.64l18.66,7.43,9.01-13.14-13.65-14.7c-.78-.83-.97-2.05-.51-3.09,1.85-4.12,3.39-8.5,4.56-13.01.29-1.1,1.21-1.93,2.34-2.09l19.87-2.9,1.23-15.88-19.19-5.91c-1.09-.34-1.87-1.29-1.99-2.43-.47-4.64-1.31-9.2-2.51-13.55-.3-1.1.08-2.27.98-2.98l15.74-12.43-6.88-14.37-19.58,4.47c-1.11.25-2.27-.18-2.93-1.1-2.68-3.71-5.69-7.23-8.96-10.46-.81-.8-1.06-2.01-.64-3.07l7.43-18.67-13.14-9-14.7,13.65c-.84.77-2.06.97-3.09.51-4.13-1.85-8.5-3.39-13.01-4.56-1.1-.29-1.93-1.21-2.09-2.34l-2.9-19.87-15.88-1.23-5.91,19.19c-.34,1.09-1.29,1.87-2.43,1.99-4.63.46-9.19,1.31-13.55,2.51-1.1.3-2.27-.08-2.98-.98l-12.43-15.74-14.37,6.88,4.47,19.58c.25,1.11-.18,2.26-1.1,2.93-3.72,2.69-7.24,5.7-10.46,8.96-.8.81-2.01,1.06-3.06.64l-18.66-7.43-9,13.14,13.65,14.7c.78.83.97,2.05.51,3.09-1.85,4.11-3.39,8.49-4.56,13-.29,1.1-1.21,1.93-2.34,2.09l-19.87,2.9-1.23,15.88,19.19,5.91c1.09.34,1.87,1.29,1.99,2.43.47,4.64,1.31,9.19,2.51,13.55.3,1.1-.08,2.27-.98,2.98l-15.74,12.43,6.88,14.37,19.58-4.47c1.11-.25,2.26.18,2.93,1.1,2.69,3.72,5.7,7.24,8.96,10.46.81.8,1.06,2.01.64,3.07l-7.43,18.66,13.14,9,14.7-13.65c.83-.77,2.05-.98,3.09-.51,4.12,1.85,8.5,3.39,13,4.56,1.1.29,1.93,1.21,2.09,2.34l2.9,19.87ZM216.93,381.79h.02-.02ZM112.21,418.95c-1.43,0-2.87-.06-4.31-.17-14.79-1.14-28.24-7.97-37.89-19.24-9.65-11.26-14.33-25.61-13.19-40.39,1.14-14.78,7.97-28.24,19.23-37.89,11.26-9.65,25.6-14.33,40.39-13.19,14.79,1.14,28.24,7.97,37.89,19.24,9.65,11.26,14.33,25.61,13.19,40.39-2.24,29.07-26.62,51.24-55.31,51.24ZM112.09,313.59c-11.87,0-23.23,4.19-32.35,11.99-10.11,8.66-16.24,20.74-17.27,34.02-1.02,13.28,3.18,26.15,11.84,36.27,8.66,10.11,20.74,16.24,34.02,17.27,27.41,2.12,51.42-18.45,53.54-45.86,1.02-13.27-3.18-26.15-11.84-36.27-8.66-10.11-20.74-16.24-34.02-17.27-1.31-.1-2.62-.15-3.92-.15Z"/>
        </g>
        <g>
          <path class="cls-1" d="M564.7,229.29l2.7-34.91-36.55-11.26c-.82-8.2-2.3-16.22-4.44-23.99l29.98-23.67-15.12-31.58-37.29,8.52c-4.76-6.6-10.06-12.79-15.85-18.51l14.15-35.54-28.89-19.79-28,25.99c-7.35-3.31-15.05-6-23.02-8.07l-5.52-37.85-34.91-2.7-11.27,36.55c-8.2.82-16.22,2.3-23.99,4.44l-23.67-29.98-31.58,15.12,8.52,37.3c-6.6,4.76-12.79,10.06-18.51,15.85l-35.54-14.15-19.79,28.89,25.99,28c-3.31,7.35-6,15.05-8.07,23.02l-37.85,5.52-2.7,34.91,36.55,11.26c.82,8.2,2.3,16.22,4.44,23.99l-29.98,23.67,15.12,31.58,37.29-8.52c4.76,6.6,10.06,12.79,15.85,18.51l-14.15,35.54,28.89,19.79,28-25.99c7.35,3.31,15.05,6,23.02,8.07l5.52,37.85,34.91,2.7,11.26-36.55c8.2-.82,16.22-2.3,23.99-4.44l23.67,29.98,31.58-15.12-8.52-37.29c6.6-4.76,12.79-10.07,18.51-15.85l35.54,14.15,19.79-28.89-25.99-28c3.31-7.35,6-15.05,8.07-23.02l37.85-5.52ZM378.49,287.76c-49.64-3.83-86.77-47.18-82.94-96.82,3.83-49.64,47.18-86.77,96.82-82.94,49.64,3.83,86.77,47.18,82.94,96.82-3.83,49.64-47.18,86.77-96.82,82.94Z"/>
          <path d="M377.73,369.6c-.07,0-.15,0-.22,0l-34.91-2.7c-1.32-.1-2.4-1.11-2.59-2.42l-5.25-36c-6.87-1.88-13.55-4.22-19.92-6.98l-26.63,24.72c-.97.9-2.44,1.01-3.53.26l-28.89-19.79c-1.09-.75-1.52-2.16-1.03-3.39l13.46-33.81c-4.93-5-9.53-10.37-13.71-16.01l-35.48,8.11c-1.29.29-2.62-.35-3.19-1.54l-15.12-31.58c-.57-1.2-.24-2.63.8-3.45l28.52-22.52c-1.75-6.72-3.04-13.69-3.84-20.76l-34.76-10.71c-1.27-.39-2.1-1.61-1.99-2.93l2.7-34.91c.1-1.32,1.11-2.4,2.42-2.59l36-5.25c1.88-6.87,4.22-13.56,6.98-19.93l-24.72-26.63c-.9-.97-1.01-2.44-.26-3.53l19.79-28.89c.75-1.09,2.16-1.52,3.39-1.03l33.81,13.46c5-4.93,10.37-9.53,16.01-13.71l-8.1-35.48c-.3-1.29.34-2.62,1.54-3.19l31.58-15.12c1.19-.57,2.63-.24,3.45.8l22.51,28.52c6.73-1.75,13.7-3.04,20.76-3.84l10.71-34.76c.39-1.27,1.62-2.09,2.93-1.99l34.91,2.7c1.32.1,2.4,1.11,2.59,2.42l5.25,36c6.86,1.87,13.55,4.22,19.93,6.98l26.63-24.72c.97-.9,2.44-1.01,3.53-.26l28.89,19.79c1.09.75,1.52,2.16,1.03,3.39l-13.46,33.81c4.93,5,9.53,10.37,13.72,16.01l35.48-8.11c1.29-.3,2.62.34,3.19,1.54l15.12,31.59c.57,1.2.24,2.63-.8,3.45l-28.52,22.52c1.75,6.72,3.04,13.69,3.84,20.76l34.76,10.71c1.27.39,2.1,1.61,1.99,2.93l-2.7,34.91c-.1,1.32-1.11,2.4-2.42,2.59l-36,5.25c-1.88,6.87-4.22,13.55-6.98,19.93l24.72,26.63c.9.97,1.01,2.44.26,3.53l-19.79,28.89c-.75,1.09-2.16,1.52-3.39,1.03l-33.81-13.46c-5,4.94-10.38,9.54-16.01,13.71l8.11,35.48c.3,1.29-.34,2.62-1.54,3.19l-31.58,15.12c-1.19.57-2.63.24-3.45-.8l-22.51-28.52c-6.72,1.75-13.69,3.04-20.76,3.84l-10.71,34.76c-.37,1.2-1.47,2-2.71,2ZM345.29,361.41l30.39,2.35,10.59-34.38c.34-1.09,1.29-1.87,2.43-1.99,8.04-.81,15.96-2.27,23.52-4.35,1.1-.3,2.27.08,2.98.98l22.27,28.2,27.5-13.16-8.02-35.08c-.25-1.11.18-2.26,1.1-2.93,6.44-4.65,12.55-9.88,18.15-15.55.8-.81,2.01-1.06,3.06-.64l33.44,13.31,17.23-25.15-24.45-26.33c-.78-.83-.97-2.05-.51-3.09,3.22-7.16,5.88-14.75,7.91-22.57.29-1.1,1.21-1.93,2.34-2.09l35.6-5.19,2.35-30.39-34.38-10.6c-1.09-.34-1.87-1.29-1.99-2.43-.81-8.05-2.27-15.96-4.35-23.52-.3-1.1.08-2.27.98-2.98l28.2-22.27-13.16-27.5-35.08,8.02c-1.11.25-2.27-.18-2.93-1.1-4.66-6.45-9.89-12.56-15.55-18.15-.81-.8-1.06-2.01-.64-3.07l13.31-33.44-25.15-17.23-26.34,24.45c-.84.77-2.05.97-3.09.51-7.16-3.22-14.76-5.88-22.57-7.91-1.1-.29-1.93-1.21-2.09-2.34l-5.19-35.6-30.39-2.35-10.6,34.38c-.34,1.09-1.29,1.87-2.43,1.99-8.03.81-15.95,2.27-23.52,4.35-1.1.3-2.27-.08-2.98-.98l-22.27-28.2-27.5,13.16,8.02,35.08c.25,1.11-.18,2.26-1.1,2.93-6.45,4.66-12.56,9.89-18.15,15.55-.8.81-2.01,1.06-3.07.64l-33.44-13.31-17.23,25.15,24.45,26.33c.78.83.97,2.05.51,3.09-3.22,7.15-5.88,14.75-7.91,22.57-.29,1.1-1.21,1.93-2.34,2.09l-35.6,5.19-2.35,30.39,34.38,10.6c1.09.34,1.87,1.29,1.99,2.43.81,8.05,2.27,15.96,4.35,23.52.3,1.1-.08,2.27-.98,2.98l-28.2,22.27,13.16,27.49,35.08-8.02c1.11-.25,2.26.18,2.93,1.1,4.66,6.45,9.89,12.56,15.55,18.15.81.8,1.06,2.01.64,3.07l-13.31,33.44,25.15,17.23,26.33-24.45c.84-.78,2.05-.98,3.09-.51,7.15,3.22,14.75,5.88,22.57,7.91,1.1.29,1.93,1.21,2.09,2.34l5.19,35.6ZM553.49,216.21h.02-.02ZM374.29,277.78c-2.4,0-4.8-.09-7.23-.28-51.12-3.95-89.49-48.75-85.54-99.87,3.95-51.12,48.76-89.49,99.87-85.54,51.12,3.95,89.49,48.75,85.54,99.87-3.76,48.69-44.59,85.82-92.64,85.82ZM367.5,271.85c47.99,3.71,90.07-32.33,93.78-80.33,3.71-48-32.33-90.07-80.33-93.78-47.97-3.71-90.07,32.33-93.78,80.33-3.71,48,32.33,90.07,80.33,93.78Z"/>
        </g>
      </g>
      <g>
        <g>
          <g>
            <path class="cls-1" d="M806,96.61h-361.39c-11.24,0-20.35,9.11-20.35,20.35s9.11,20.35,20.35,20.35h361.39c11.24,0,20.35-9.11,20.35-20.35s-9.11-20.35-20.35-20.35Z"/>
            <path d="M806,138.81h-361.39c-12.05,0-21.85-9.8-21.85-21.85s9.8-21.85,21.85-21.85h361.39c12.05,0,21.85,9.8,21.85,21.85s-9.8,21.85-21.85,21.85ZM444.61,98.11c-10.39,0-18.85,8.45-18.85,18.85s8.45,18.85,18.85,18.85h361.39c10.39,0,18.85-8.45,18.85-18.85s-8.45-18.85-18.85-18.85h-361.39Z"/>
          </g>
          <g>
            <path class="cls-3" d="M578.38,96.61h-133.77c-11.24,0-20.35,9.11-20.35,20.35s9.11,20.35,20.35,20.35h133.77c11.24,0,20.35-9.11,20.35-20.35s-9.11-20.35-20.35-20.35Z"/>
            <path d="M578.38,138.81h-133.77c-12.05,0-21.85-9.8-21.85-21.85s9.8-21.85,21.85-21.85h133.77c12.05,0,21.85,9.8,21.85,21.85s-9.8,21.85-21.85,21.85ZM444.61,98.11c-10.39,0-18.85,8.45-18.85,18.85s8.46,18.85,18.85,18.85h133.77c10.39,0,18.85-8.45,18.85-18.85s-8.45-18.85-18.85-18.85h-133.77Z"/>
          </g>
        </g>
        <g>
          <circle class="cls-2" cx="597.76" cy="116.96" r="30.52" transform="translate(92.38 456.94) rotate(-45)"/>
          <path d="M597.76,137.84c-.83,0-1.5-.67-1.5-1.5s.67-1.5,1.5-1.5c9.86,0,17.88-8.02,17.88-17.88s-8.02-17.88-17.88-17.88-17.88,8.02-17.88,17.88c0,.83-.67,1.5-1.5,1.5s-1.5-.67-1.5-1.5c0-11.51,9.37-20.88,20.88-20.88s20.88,9.37,20.88,20.88-9.37,20.88-20.88,20.88Z"/>
        </g>
      </g>
      <g>
        <g>
          <g>
            <path class="cls-1" d="M387.26,295.4s50.44,19.46,111.12-29.82c27.84-22.61,44.79-56,47.16-91.79.46-6.99,3.59-13.54,8.73-18.3l43.49-27.72s-3.08,4.75-6.43,17.05c-3.35,12.29-13.56,23.11-14.87,28.23l21.31-6.35s-2.26,13.38-12.68,22.32c-10.41,8.94-13.96,31.36-13.96,31.36,0,0-14.82,178.65-170.89,175.76l-12.97-100.74Z"/>
            <path d="M403.93,397.68c-1.24,0-2.48-.01-3.72-.03-.74-.01-1.37-.57-1.46-1.31l-12.97-100.74c-.07-.52.15-1.04.56-1.37.41-.33.97-.41,1.47-.22.12.05,12.66,4.76,32.34,3.46,18.17-1.19,46.33-7.9,77.29-33.05,27.27-22.14,44.25-55.21,46.6-90.72.49-7.41,3.76-14.26,9.21-19.3.07-.06.14-.12.21-.16l43.49-27.72c.59-.38,1.37-.29,1.87.21.5.5.58,1.28.19,1.87-.03.04-3.01,4.78-6.25,16.63-2.09,7.64-6.63,14.57-10.28,20.13-1.3,1.98-2.5,3.81-3.36,5.34l18.2-5.43c.49-.15,1.03-.03,1.42.31.39.34.57.86.48,1.37-.1.57-2.48,14.02-13.18,23.21-9.65,8.28-13.26,29.26-13.45,30.41-.17,1.95-4.39,46.18-27.08,89.47-13.59,25.94-31.05,46.49-51.89,61.09-25.17,17.62-55.33,26.55-89.71,26.55ZM401.55,394.66c.83,0,1.65.02,2.48.02,62.19,0,108.88-28.9,138.8-85.95,22.83-43.53,26.76-88.03,26.79-88.47,0-.04,0-.07.01-.11.15-.94,3.76-23.08,14.47-32.27,7.28-6.25,10.43-14.85,11.59-19l-18.82,5.61c-.52.15-1.08.02-1.47-.36-.39-.38-.55-.93-.41-1.45.58-2.27,2.53-5.23,4.98-8.98,3.54-5.39,7.94-12.09,9.9-19.28,1.54-5.64,3.02-9.73,4.2-12.53l-38.89,24.78c-4.83,4.51-7.72,10.62-8.16,17.21-2.41,36.34-19.8,70.19-47.71,92.85-31.65,25.71-60.52,32.53-79.16,33.72-15.51.99-26.54-1.56-31.11-2.9l12.51,97.1Z"/>
          </g>
          <g>
            <path class="cls-3" d="M66.7,590.72h242.13c1.03-86.74,35.58-192.7,35.58-192.7l67.53,5.02,7.99-119.48s-68.84-5.09-124.56-9.89c-37.62-3.24-107.35,10.39-148.67,19.59-21.18,4.71-39.96,16.87-52.97,34.23l-38.71,51.69,42.02,23.87c-36.01,60.79-35.69,138.08-30.35,187.68Z"/>
            <path class="cls-3" d="M308.84,592.22H66.7c-.77,0-1.41-.58-1.49-1.34-5.66-52.51-5.04-127.45,29.77-187.29l-40.7-23.12c-.37-.21-.64-.58-.73-1s0-.86.27-1.21l38.71-51.69c13.22-17.66,32.35-30.01,53.84-34.8,39.28-8.74,110.88-22.91,149.13-19.62,55.07,4.75,123.85,9.84,124.54,9.89.82.06,1.44.77,1.39,1.6l-7.99,119.48c-.03.4-.21.77-.51,1.03-.3.26-.7.39-1.09.36l-66.35-4.93c-3.67,11.59-34.19,110.37-35.14,191.14,0,.82-.68,1.48-1.5,1.48ZM68.05,589.22h239.3c1.39-85.71,35.28-190.61,35.63-191.67.21-.66.84-1.08,1.54-1.03l66.03,4.91,7.79-116.49c-10.34-.77-72.5-5.43-123.09-9.79-37.85-3.26-109.11,10.85-148.22,19.56-20.8,4.63-39.3,16.59-52.09,33.67l-37.69,50.33,40.54,23.03c.35.2.61.53.71.92.1.39.05.8-.16,1.15-34.86,58.84-35.79,133.04-30.29,185.42Z"/>
          </g>
          <g>
            <g>
              <path d="M233.84,420.15l10.36,171.52c.16,2.61-1.27,5.05-3.58,6.13l-200.58,93.72c-2,.93-4.15.66-5.81-.41-1.6-1.03-6.32-4.01-6.32-4.01l-6.92-172.5c-.16-2.61,1.27-5.05,3.58-6.13l201.4-96.82s3.55,2.47,5.25,3.68c1.47,1.05,2.5,2.75,2.63,4.81Z"/>
              <g>
                <path class="cls-1" d="M227.46,416.34l10.36,171.52c.16,2.61-1.27,5.05-3.58,6.13l-200.03,93.17c-3.92,1.83-8.43-.96-8.69-5.39l-10.36-171.52c-.16-2.61,1.27-5.05,3.58-6.13l200.03-93.17c3.92-1.83,8.43.96,8.69,5.39Z"/>
                <path d="M31.65,689.24c-1.33,0-2.65-.36-3.85-1.08-2.22-1.32-3.64-3.68-3.8-6.3l-10.36-171.52c-.19-3.2,1.59-6.25,4.45-7.58l200.03-93.17c2.29-1.06,4.85-.93,7.03.36,2.22,1.32,3.64,3.68,3.8,6.3h0s10.36,171.52,10.36,171.52c.19,3.2-1.59,6.25-4.45,7.58l-200.03,93.17c-1.02.48-2.1.71-3.18.71ZM221.31,411.89c-.65,0-1.29.14-1.91.43L19.37,505.49c-1.75.81-2.84,2.69-2.72,4.68l10.36,171.52c.1,1.63.97,3.08,2.34,3.9,1.31.78,2.85.86,4.22.22l200.03-93.17c1.75-.81,2.84-2.69,2.72-4.68l-10.36-171.52c-.1-1.63-.97-3.08-2.34-3.9-.72-.43-1.52-.65-2.32-.65Z"/>
              </g>
            </g>
            <g>
              <path class="cls-1" d="M213.82,402.81l10.36,171.52c.16,2.61-1.27,5.05-3.58,6.13l-200.03,93.17c-3.92,1.83-8.43-.96-8.69-5.39L1.51,496.72c-.16-2.61,1.27-5.05,3.58-6.13l200.03-93.17c3.92-1.83,8.43.96,8.69,5.39Z"/>
              <path d="M18.02,675.71c-1.33,0-2.64-.36-3.85-1.08-2.22-1.32-3.64-3.68-3.8-6.3L.01,496.81c-.19-3.21,1.59-6.25,4.45-7.58l200.03-93.17c2.29-1.07,4.85-.93,7.03.36,2.22,1.32,3.64,3.68,3.8,6.3l10.36,171.52c.19,3.2-1.59,6.25-4.45,7.58l-200.03,93.17c-1.02.48-2.1.71-3.18.71ZM207.67,398.35c-.65,0-1.29.14-1.91.43L5.73,491.95c-1.75.81-2.84,2.69-2.72,4.68l10.36,171.52c.1,1.63.97,3.08,2.34,3.9,1.31.78,2.85.86,4.22.22l200.03-93.17c1.75-.81,2.84-2.69,2.72-4.68l-10.36-171.52c-.1-1.63-.97-3.08-2.34-3.9-.72-.43-1.52-.65-2.32-.65Z"/>
            </g>
            <path class="cls-4" d="M202.43,417.63l9.13,151.13c.14,2.3-1.12,4.45-3.16,5.4l-176.25,82.09c-3.46,1.61-7.42-.85-7.66-4.75l-9.13-151.13c-.14-2.3,1.12-4.45,3.16-5.4l176.25-82.09c3.46-1.61,7.42.85,7.66,4.75Z"/>
            <g>
              <path d="M164.38,596.11c-.57,0-1.11-.32-1.36-.87-.35-.75-.03-1.64.73-1.99l43.72-20.36c1.47-.69,2.4-2.27,2.29-3.95l-1.01-16.78c-.05-.83.58-1.54,1.41-1.59.84-.05,1.54.58,1.59,1.41l1.01,16.78c.17,2.9-1.44,5.65-4.02,6.85l-43.72,20.36c-.21.1-.42.14-.63.14Z"/>
              <path d="M24.29,493.98c-.56,0-1.1-.32-1.36-.86-.35-.75-.03-1.64.72-1.99l28.92-13.56c.75-.35,1.64-.03,2,.72.35.75.03,1.64-.72,1.99l-28.92,13.56c-.21.1-.42.14-.64.14Z"/>
              <path d="M29.61,658.34c-1.2,0-2.39-.33-3.48-.97-2.01-1.2-3.29-3.32-3.43-5.69l-8.26-136.82c-.05-.83.58-1.54,1.41-1.59.83-.05,1.54.58,1.59,1.41l8.26,136.82c.08,1.37.82,2.61,1.98,3.29,1.1.66,2.4.72,3.55.19l40.49-18.86c.75-.35,1.64-.02,1.99.73.35.75.03,1.64-.73,1.99l-40.49,18.86c-.93.43-1.9.65-2.88.65Z"/>
            </g>
          </g>
          <g>
            <path class="cls-1" d="M67.85,385.41l60.78,35.74s-50.72,82.83,26.37,170.54l49.82-6.12s-10.71,7.99-21.74,9.99c-11.03,2-13.39,13.75-13.39,13.75l22.64,12.42s-27.85,25.91-45.29,15.8c-17.44-10.11-162.56-118.81-79.19-252.13Z"/>
            <path d="M156.28,641.4c-3.49,0-6.87-.75-9.98-2.55-15.73-9.12-83.17-61.6-101.12-133.87-10.16-40.91-2.96-81.4,21.4-120.36.43-.69,1.33-.91,2.03-.5l60.78,35.74c.35.2.6.54.69.93.1.39.03.8-.18,1.15-.12.21-12.58,20.88-15.52,51.88-2.71,28.44,2.27,71.65,41.22,116.29l49.03-6.02c.67-.08,1.32.3,1.57.93.25.63.05,1.35-.49,1.76-.45.33-11.12,8.23-22.37,10.26-8.06,1.46-11.05,8.78-11.91,11.53l21.61,11.86c.42.23.71.65.77,1.13.06.48-.11.96-.47,1.28-.97.9-20.18,18.55-37.08,18.55ZM68.36,387.45c-23.29,37.86-30.11,77.15-20.27,116.8,9.64,38.84,33.78,70.95,52.33,91.06,20.21,21.9,40.65,37.04,47.37,40.94,14,8.11,35.91-9.09,41.93-14.22l-20.77-11.39c-.57-.32-.88-.97-.75-1.61.1-.52,2.7-12.78,14.59-14.94,5.84-1.06,11.64-3.89,15.68-6.23l-43.31,5.32c-.49.06-.98-.13-1.31-.5-40.18-45.71-45.27-90.1-42.46-119.29,2.64-27.52,12.34-46.62,15.17-51.7l-58.23-34.24Z"/>
          </g>
          <path d="M222.07,312.79c-9.01,0-16.95-.95-23.57-2.23-20.83-4.04-33.11-11.99-33.62-12.32-.69-.45-.89-1.38-.43-2.08.45-.69,1.38-.89,2.08-.43.12.08,12.4,8,32.7,11.91,18.71,3.61,48.26,4.45,82.83-12.01.75-.36,1.64-.04,2,.71.36.75.04,1.64-.71,2-23.17,11.04-44.15,14.46-61.26,14.46Z"/>
        </g>
        <g>
          <path d="M236.81,237.68c-6.05,3.77-15.55,9.69-26.13,6.53-11.27-3.36-20.62-16.08-18.53-24.6,1.83-7.46,11.37-7.29,12.83-15.06,1.37-7.31-6.58-10.09-7.13-19.08-.73-11.97,12.23-26.26,24.23-26.61,7.37-.21,8.11,5.01,16.63,5.52,11.6.7,13.91-8.76,27.08-10.04,9.49-.92,17.23,3.12,23.76,6.53,9.68,5.05,16.03,8.36,16.63,13.55,1.23,10.63-23.62,12.32-46.56,39.16-8.34,9.76-11.48,17.04-22.81,24.1Z"/>
          <g>
            <path class="cls-1" d="M275.96,246.55c8.95-24.29-10.58-55.18-12.01-57.73,0,0-11.04,9.2-25.78,8.21-14.73-.99-13.51,18.96-13.51,18.96-8.01-1.77-9.41,3.62-7.43,14.62,1.98,11,12.91,7.78,12.91,7.78,1.52,1.82,3.12,3.4,4.77,4.79l-18.71,27.68c-5.11,7.56-12.24,13.52-20.58,17.2l-7.58,3.35c-1.98.87-1.57,3.79.57,4.08,14.82,1.99,49.61,4.47,75.73-10.73,1.57-.91,1.16-3.29-.62-3.67l-6.07-1.29c-4.32-.92-6.57-5.71-4.52-9.62l9.48-18.14c3.31-.14,6.14-.58,8.21-1.01,2.39-.49,4.32-2.19,5.16-4.48Z"/>
            <path d="M210.82,298.46c-9.34,0-17.3-.8-22.42-1.48-1.63-.22-2.88-1.46-3.11-3.09-.23-1.64.63-3.18,2.14-3.85l7.58-3.35c8.09-3.57,14.99-9.34,19.95-16.67l17.97-26.58c-1.18-1.06-2.29-2.19-3.33-3.38-1.78.34-5.68.73-8.99-1.31-2.56-1.58-4.19-4.23-4.84-7.87-1.44-8.02-.99-12.65,1.47-15.02,1.41-1.35,3.35-1.89,5.91-1.63.07-3.46.76-10.87,5.19-15.28,2.54-2.53,5.88-3.67,9.94-3.4,13.98.94,24.61-7.78,24.72-7.87.34-.29.79-.4,1.23-.32.44.08.82.35,1.04.74.07.13.19.33.35.6,7.65,12.96,19.36,37.77,11.76,58.39-1.03,2.8-3.37,4.83-6.26,5.43-2.48.51-5.03.85-7.58.99l-9.09,17.38c-.76,1.45-.79,3.12-.1,4.6.69,1.48,2.01,2.52,3.6,2.86l6.07,1.29c1.43.3,2.5,1.44,2.73,2.89.23,1.43-.43,2.82-1.67,3.55-17.05,9.92-37.8,12.4-54.26,12.4ZM230.14,236.89c.44,0,.86.19,1.15.54,1.38,1.65,2.93,3.2,4.58,4.6.59.49.7,1.35.28,1.99l-18.71,27.68c-5.27,7.8-12.61,13.93-21.22,17.73l-7.58,3.35c-.39.17-.41.5-.38.68.03.18.13.48.54.54,13.85,1.86,48.85,4.55,74.77-10.54.23-.13.24-.33.22-.48-.02-.13-.1-.36-.4-.43l-6.07-1.29c-2.52-.54-4.6-2.18-5.69-4.52-1.1-2.33-1.04-4.98.15-7.27l9.48-18.14c.25-.48.73-.78,1.27-.8,2.69-.11,5.37-.44,7.97-.98,1.87-.39,3.38-1.7,4.06-3.53h0c7.24-19.65-4.92-44.42-11.05-55-3.5,2.48-13.18,8.32-25.43,7.5-3.2-.21-5.68.61-7.62,2.53-4.84,4.8-4.3,14.74-4.29,14.84.03.47-.17.93-.52,1.23s-.84.43-1.3.32c-2.43-.54-4.08-.35-5.03.56-1.62,1.56-1.82,5.59-.6,12.33.5,2.76,1.66,4.73,3.45,5.84,3.2,1.99,7.51.78,7.56.77.14-.04.28-.06.42-.06Z"/>
          </g>
          <path d="M260.21,253.68c-8.1,0-15.56-4.46-15.91-4.67-.71-.43-.93-1.35-.51-2.06.43-.71,1.35-.94,2.06-.51.08.05,8.57,5.11,16.54,4.1.83-.11,1.57.48,1.68,1.3.1.82-.48,1.57-1.3,1.68-.86.11-1.71.16-2.57.16Z"/>
        </g>
      </g>
    </g>
    <circle class="cls-1" cx="408.52" cy="452.35" r="144.43"/>
    <path class="cls-2" d="M295.44,452.34c0,44.76,26.01,83.44,63.73,101.77l-53.94-147.79c-6.47,14.48-9.8,30.16-9.79,46.02ZM484.86,446.64c0-13.97-5.02-23.65-9.33-31.19-5.73-9.31-11.11-17.2-11.11-26.52,0-10.4,7.88-20.07,18.99-20.07.5,0,.98.06,1.46.09-20.12-18.43-46.92-29.69-76.36-29.69-39.51,0-74.26,20.27-94.48,50.97,2.65.08,5.15.13,7.28.13,11.83,0,30.14-1.43,30.14-1.43,6.1-.36,6.82,8.59.73,9.31,0,0-6.13.72-12.94,1.08l41.18,122.49,24.75-74.22-17.62-48.27c-6.09-.36-11.86-1.08-11.86-1.08-6.09-.36-5.38-9.67.71-9.31,0,0,18.68,1.43,29.79,1.43,11.83,0,30.14-1.43,30.14-1.43,6.1-.36,6.82,8.59.73,9.31,0,0-6.14.72-12.94,1.08l40.87,121.56,11.28-37.69c4.89-15.64,8.61-26.87,8.61-36.56h0ZM410.5,462.23l-33.93,98.59c10.37,3.06,21.13,4.61,31.94,4.61,13.17,0,25.8-2.28,37.55-6.41-.31-.49-.58-1.02-.81-1.56l-34.76-95.23h0ZM507.74,398.09c.49,3.6.76,7.47.76,11.63,0,11.48-2.14,24.37-8.6,40.5l-34.54,99.87c33.62-19.6,56.23-56.03,56.23-97.74,0-19.66-5.02-38.15-13.85-54.26h0ZM408.52,320.53c-72.68,0-131.82,59.13-131.82,131.81s59.14,131.82,131.82,131.82,131.82-59.13,131.82-131.82c0-72.68-59.14-131.81-131.82-131.81h0ZM408.52,578.12c-69.35,0-125.77-56.42-125.77-125.78s56.42-125.77,125.77-125.77,125.77,56.42,125.77,125.77-56.42,125.78-125.77,125.78Z"/>
  </g>
</svg>