<?xml version="1.0" encoding="UTF-8"?>
<svg id="Capa_2" data-name="Capa 2" xmlns="http://www.w3.org/2000/svg" viewBox="0 0 1435.45 1158.74">
  <defs>
    <style>
      .cls-1 {
        fill: #fff;
      }

      .cls-2 {
        fill: #abfb4f;
      }

      .cls-3 {
        fill: blue;
      }

      .cls-4 {
        fill: #010101;
      }
    </style>
  </defs>
  <g id="Capa_1-2" data-name="Capa 1">
    <g>
      <g>
        <g>
          <path class="cls-4" d="M1384.48,757.14h-601.09c-18.48,0-33.41-14.97-33.41-33.41h0c0-18.41,14.94-33.38,33.41-33.38h601.09c18.44,0,33.39,14.97,33.39,33.38h0c0,18.44-14.94,33.41-33.39,33.41Z"/>
          <path class="cls-4" d="M1384.48,759.34h-601.09c-19.64,0-35.64-15.98-35.64-35.61s16.01-35.61,35.64-35.61h601.09c19.64,0,35.62,15.98,35.62,35.61s-15.98,35.61-35.62,35.61ZM783.39,692.57c-17.2,0-31.19,13.99-31.19,31.16s13.99,31.18,31.19,31.18h601.09c17.17,0,31.19-13.99,31.19-31.18s-14.02-31.16-31.19-31.16h-601.09Z"/>
        </g>
        <rect class="cls-1" x="1017.16" y="701.48" width="44.52" height="44.52"/>
        <rect class="cls-1" x="1072.81" y="701.48" width="44.52" height="44.52"/>
        <rect class="cls-1" x="905.84" y="701.48" width="44.52" height="44.52"/>
        <rect class="cls-1" x="961.5" y="701.48" width="44.52" height="44.52"/>
        <rect class="cls-1" x="794.53" y="701.48" width="44.52" height="44.52"/>
        <rect class="cls-1" x="850.19" y="701.48" width="44.52" height="44.52"/>
      </g>
      <g>
        <g>
          <path class="cls-2" d="M1390.63,401.51c5.35-21.18,8.49-42.86,9.33-64.72l-48.32-12.15c.18-25.3-3.21-50.75-10.42-75.65l42.41-24.71c-6.95-20.37-16.12-40.24-27.56-59.43l-45.98,15.27c-.24-.36-.45-.66-.65-1.04-14.08-21.89-30.83-40.92-49.54-57.2l21.65-42.17c-17.41-13.81-36.09-25.6-55.72-35.34l-29.55,36.44c-23.61-10.87-48.62-18.27-74.28-21.98l-4.63-45.8c-21.92-2.29-44.16-2.31-66.29.06l-4.93,45.41c-25.39,3.5-50.61,10.66-74.76,21.68l-28.48-35.55c-9.77,4.9-19.42,10.31-28.93,16.34-9.38,6-18.41,12.45-27,19.21l20.41,40.57c-20.14,17.26-37.21,36.98-51.05,58.39l-43.54-14.64c-11.53,19.04-20.73,39.17-27.89,59.85l39.83,23.37c-7.37,24.77-11.2,50.46-11.14,76.36l-45.68,11.29c.63,21.8,3.57,43.63,8.85,65.13l47.61-1.78c6.95,23.76,17.37,46.84,31.42,68.72.23.36.42.65.63.98l-33.24,35.11c12.65,18.35,27,35.05,42.71,49.87l40.3-27.92c19.69,16.98,41.52,30.74,64.65,41.13l-9.15,48.8c20.32,8.4,41.34,14.64,62.93,18.74l19.28-46.3c25.18,3.62,50.96,3.72,76.51.03l19.15,46.8c21.33-3.8,42.47-9.92,63.06-18.2l-9.03-49.93c11.49-5.2,22.72-11.26,33.65-18.23,10.93-6.89,21.18-14.52,30.71-22.69l41.78,29.11c16.25-15.09,30.65-31.66,43.16-49.27l-34.72-36.91c14.11-21.57,24.83-44.79,32.17-69.09l50.28,2.05Z"/>
          <path class="cls-4" d="M1139.58,636.91c-.89,0-1.72-.53-2.08-1.4l-18.5-45.21c-24.41,3.36-49.18,3.36-73.68-.03l-18.59,44.7c-.44.98-1.54,1.51-2.49,1.37-21.77-4.16-43.1-10.49-63.38-18.89-.98-.42-1.54-1.42-1.34-2.46l8.85-47.07c-22.58-10.31-43.51-23.61-62.31-39.65l-38.91,26.94c-.83.59-2.02.53-2.76-.21-15.92-14.97-30.39-31.87-43.01-50.19-.63-.86-.53-2.02.18-2.79l32.05-33.86c-13.48-21.14-23.82-43.66-30.89-67.15l-45.86,1.69h-.09c-1.04,0-1.93-.68-2.2-1.69-5.23-21.44-8.26-43.51-8.89-65.57-.06-1.04.68-1.96,1.69-2.2l44.01-10.87c.09-24.74,3.68-49.48,10.72-73.57l-38.34-22.54c-.92-.5-1.34-1.63-.98-2.64,7.4-21.35,16.84-41.64,28.1-60.26.53-.89,1.66-1.31,2.61-.95l41.91,14.11c13.66-20.88,30.23-39.83,49.21-56.31l-19.63-39.03c-.48-.92-.24-2.08.63-2.74,8.88-7.01,18.03-13.51,27.17-19.33,9.21-5.85,18.71-11.23,29.11-16.42.95-.53,2.07-.27,2.73.59l27.41,34.16c22.96-10.25,47.17-17.29,72.05-20.88l4.78-43.72c.09-1.04.92-1.84,1.96-1.96,22.1-2.32,44.52-2.38,66.77-.06,1.07.12,1.87.95,1.99,2.02l4.46,44.05c24.71,3.74,48.8,10.87,71.58,21.21l28.45-35.11c.63-.83,1.75-1.07,2.73-.59,19.96,9.89,38.85,21.86,56.13,35.61.8.65,1.04,1.78.59,2.76l-20.88,40.6c18.71,16.49,34.98,35.34,48.35,56.11l44.34-14.7c.92-.36,2.08.06,2.61.98,11.41,19.15,20.76,39.29,27.77,59.84.35,1.01-.06,2.11-.95,2.65l-40.96,23.85c6.68,23.7,10.07,48.2,10.04,72.85l46.63,11.73c1.04.24,1.72,1.19,1.69,2.23-.83,21.83-3.98,43.75-9.39,65.16-.24,1.01-1.13,1.69-2.17,1.69h-.09l-48.56-1.96c-7.3,23.58-17.73,45.94-30.97,66.53l33.53,35.64c.72.77.8,1.96.18,2.82-12.8,18.03-27.41,34.72-43.43,49.57-.8.74-1.93.83-2.82.21l-40.36-28.13c-9.48,8.02-19.45,15.35-29.67,21.8-10.42,6.66-21.3,12.59-32.34,17.64l8.73,48.2c.18,1.04-.39,2.08-1.37,2.46-20.67,8.34-42.05,14.52-63.49,18.36-.12.03-.27.03-.39.03ZM1120.42,585.65c.89,0,1.72.53,2.05,1.37l18.48,45.14c19.96-3.68,39.85-9.41,59.16-17.07l-8.7-48.15c-.18-1.01.35-1.99,1.28-2.41,11.4-5.14,22.6-11.23,33.38-18.09,10.48-6.66,20.76-14.2,30.45-22.51.8-.63,1.87-.72,2.76-.12l40.3,28.07c14.85-13.96,28.42-29.49,40.45-46.22l-33.47-35.58c-.68-.74-.8-1.87-.24-2.74,13.78-21.12,24.53-44.16,31.9-68.55.29-.95,1.22-1.3,2.23-1.57l48.47,1.96c4.93-19.96,7.87-40.33,8.76-60.68l-46.57-11.7c-1.01-.24-1.72-1.16-1.69-2.2.21-25.36-3.27-50.6-10.3-74.99-.3-.98.12-2.02.98-2.53l40.86-23.82c-6.68-19.13-15.38-37.87-25.9-55.75l-44.28,14.7c-.87.33-1.96-.06-2.5-.86-.3-.38-.51-.74-.74-1.16-13.51-20.99-30.03-40.09-49.09-56.67-.8-.68-1.01-1.78-.53-2.7l20.82-40.51c-16.19-12.71-33.77-23.85-52.3-33.18l-28.42,35.05c-.63.8-1.69,1.01-2.67.63-23.37-10.78-48.17-18.12-73.66-21.8-.98-.15-1.78-.98-1.87-1.99l-4.45-43.99c-20.73-2.02-41.64-1.96-62.25.06l-4.75,43.63c-.12,1.01-.89,1.81-1.9,1.96-25.63,3.56-50.58,10.81-74.13,21.5-.89.42-2.05.15-2.67-.65l-27.35-34.1c-9.62,4.9-18.5,9.95-27.11,15.39-8.53,5.43-17.05,11.49-25.39,17.97l19.6,38.93c.48.92.24,2.02-.5,2.7-19.69,16.84-36.74,36.35-50.67,57.95-.57.8-1.66,1.19-2.58.86l-41.85-14.08c-10.4,17.44-19.15,36.33-26.17,56.16l38.26,22.49c.89.5,1.28,1.57,1.01,2.52-7.37,24.83-11.08,50.31-11.02,75.73,0,1.04-.72,1.94-1.69,2.17l-43.95,10.87c.71,20.52,3.48,41.08,8.29,61.09l45.8-1.69h.09c.98,0,1.84.63,2.11,1.58,7.03,23.88,17.52,46.84,31.18,68.16.18.24.38.56.57.92.53.83.47,2.05-.21,2.76l-31.99,33.83c11.91,16.98,25.37,32.7,40.07,46.75l38.84-26.88c.8-.56,1.94-.5,2.7.15,19.25,16.6,40.81,30.35,64.12,40.81.93.42,1.46,1.4,1.28,2.44l-8.82,47.01c18.92,7.69,38.79,13.63,59.05,17.58l18.56-44.61c.42-.98,1.37-1.6,2.41-1.37,25.18,3.59,50.73,3.66,75.85.03.09-.03.21-.03.33-.03Z"/>
        </g>
        <path class="cls-1" d="M1281.93,292.48c-16.84-109.35-119.16-184.31-228.51-167.47-109.36,16.84-184.35,119.15-167.48,228.51,16.84,109.36,119.16,184.32,228.51,167.48,109.36-16.84,184.32-119.16,167.48-228.51Z"/>
      </g>
      <g>
        <g>
          <path class="cls-1" d="M465.63,423.58s-4.6,57.29,7.75,110.39c0,0-168.22-52.1-219.28-52.1,0,0,11.08-51.88,7.99-84.05l203.54,25.75Z"/>
          <path class="cls-4" d="M473.39,537c-.3,0-.59-.03-.89-.12-1.69-.53-168.37-51.97-218.38-51.97-.92,0-1.78-.42-2.37-1.13-.57-.72-.8-1.64-.6-2.53.12-.53,10.93-51.82,7.93-83.13-.09-.92.24-1.84.92-2.46.65-.65,1.6-.86,2.5-.86l203.5,25.75c1.6.21,2.76,1.66,2.65,3.27-.03.57-4.39,57.47,7.72,109.47.24,1.07-.09,2.17-.89,2.91-.57.53-1.31.8-2.08.8ZM257.82,478.91c49.87,2.02,183.4,42.05,211.47,50.6-9.47-44.67-7.6-91.36-6.89-103.26l-196.97-24.95c1.69,27.56-5.25,65.76-7.61,77.61Z"/>
        </g>
        <g>
          <path class="cls-3" d="M636.79,1155.68H3.03c0-429.7,251.08-673.8,251.08-673.8,0,0,260.94,4.01,314.17,56.64,46.86,46.3,68.51,617.16,68.51,617.16Z"/>
          <path class="cls-3" d="M636.79,1158.71H3.03c-1.69,0-3.03-1.34-3.03-3.03C0,729.64,249.48,482.15,252,479.72c.59-.6,1.19-.8,2.17-.87,10.69.15,262.73,4.63,316.25,57.5,47.16,46.63,68.51,595.87,69.41,619.21.03.83-.27,1.63-.83,2.22-.59.6-1.36.92-2.2.92ZM6.09,1152.65h627.53c-1.81-45.79-23.79-568.78-67.48-611.96-49.9-49.3-290.94-55.33-310.78-55.75C239.02,501.48,7.22,743.89,6.09,1152.65Z"/>
        </g>
        <path d="M537.41,249.33c.24-12.5,7.4-21.59,16.46-33.09,13.51-17.26,30.35-38.7,32.82-82.21,1.19-21.08-3.77-37.63-14.79-49.18-10.75-11.34-25.24-15.65-36.95-17.19,27.92-13.96,36.14-39.47,36.56-40.72l1.96-6.71-6.66,2.46s-2.91,1.04-11.73,1.04c-14.85,0-44.67-2.82-102.49-16.16-21.86-5.02-41.88-7.58-59.49-7.58-67.57,0-85.15,37.45-89.34,51.5-8.58-5.2-17.35-7.82-26.19-7.82-22.9,0-44.93,17.58-62.04,49.51-36.71,68.55-42.15,187.29,12.3,267.33,34.8,51.15,79.56,77.07,133.08,77.07s109.08-23.37,171.66-69.44c46.03-33.86,29.55-63.88,16.31-88.03-5.97-10.9-11.67-21.2-11.47-30.8Z"/>
        <g>
          <path class="cls-1" d="M550.87,340.99c-2.76-38.37-14.02-112.8-22.04-149.81-18.56-85.86-77.96-51.29-77.96-51.29-85.68-21.95-165.25,23.01-169.05,52.18-1.94,14.85-2.67,43.84-1.96,73.48-.18,0-.36-.03-.57-.03-28.27,0-51.2,22.75-51.2,50.81s22.92,50.82,51.2,50.82c3.74,0,7.34-.39,10.81-1.16,5.64,38.76,12.77,88.45,45.71,118.06,20.97,18.89,64-4.93,77.63,31.24,49.36-2.32,93.05-15.12,125.12-52.36,23.82-27.62,15.06-83.58,12.3-121.95Z"/>
          <path class="cls-4" d="M413.45,518.32c-1.28,0-2.41-.78-2.85-1.96-7.22-19.21-23.61-19.84-40.96-20.49-12.95-.48-26.31-.95-35.88-9.56-32.85-29.55-40.48-77.49-46.21-116.75-2.67.42-5.46.63-8.26.63-29.9,0-54.23-24.15-54.23-53.85s22.96-52.48,51.68-53.79c-.6-29.16.2-56.73,2.05-70.86,1.36-10.4,10.69-21.95,26.29-32.49,29.37-19.87,85-37.69,145.38-22.54,4.96-2.58,25.21-11.82,45.2-2.94,17.5,7.72,29.67,26.82,36.14,56.82,7.67,35.34,19.22,110.22,22.1,150.25.35,4.93.8,10.16,1.28,15.59,3.23,37.21,7.28,83.52-14.29,108.56-29.04,33.71-69.5,50.7-127.29,53.4h-.14ZM290.11,362.96c.65,0,1.21.18,1.72.53.71.48,1.15,1.21,1.27,2.05,5.74,39.2,12.74,87.47,44.73,116.24,7.93,7.13,19.63,7.55,32.02,8.02,17.2.63,36.56,1.34,45.62,22.34,54.86-2.94,93.29-19.25,120.79-51.2,19.93-23.07,16.01-67.95,12.86-104.04-.48-5.46-.92-10.72-1.28-15.71-2.88-39.76-14.37-114.25-21.98-149.36-6.06-27.98-17.02-45.65-32.61-52.54-19.75-8.7-40.63,3.12-40.86,3.23-.68.39-1.58.48-2.26.3-58.86-15.09-113.1,2.08-141.64,21.38-13.93,9.45-22.54,19.75-23.64,28.24-1.9,14.38-2.67,43.04-1.96,73.03.03.8-.27,1.6-.87,2.2-.59.6-1.13,1.07-2.22.89-27.06,0-48.68,21.44-48.68,47.76s21.62,47.79,48.17,47.79c3.51,0,6.92-.38,10.16-1.1.21-.06.44-.06.66-.06Z"/>
        </g>
        <path d="M550.93,341.01c-.38-5.02-1.04-11.19-1.87-18.14-11.97,7.51-26.7,12.03-44.4,12.03-21.95,0-34.48-9.27-51.24-11.85-22.51-3.51-44.25,2.23-58.89,12.68-18.48,13.16-35.28,26.29-65.04,26.29-16.34,0-30.15-3.77-41.55-10.28,6.36,40,10.75,98.87,47.88,132.28,20.99,18.89,64-4.9,77.63,31.21,49.39-2.23,93.05-15.09,125.12-52.3,23.82-27.68,15.06-83.61,12.35-121.92ZM460.26,388.5c-6.53,2.5-13.16,3.74-19.81,3.74-16.78,0-29.55-8.1-34.78-16.16-3.03-4.66-3.71-9.41-1.9-13.33.3-.68,1.79-1.45,7.16-1.45,2.5,0,5.4.14,8.68.33,4.34.21,9.29.48,14.79.48,17.56,0,32.73-2.71,47.82-8.53,4.3-1.66,9.03-1.84,10.03-.5.51.62.53,2.08.06,3.89-2.29,8.68-12.71,24.21-32.05,31.54Z"/>
        <path d="M475.55,200.36l2.46,6.53c.18-.09,19.13-6.74,52.16,4.19l2.23-6.6c-35.62-11.76-55.99-4.43-56.85-4.13Z"/>
        <path d="M348.08,210.21l3.62,5.91c29.7-18.03,49.69-15.8,49.89-15.77l.89-6.89c-.87-.12-22.39-2.7-54.41,16.75Z"/>
        <path d="M373.09,249.98c-6.56,0-11.88,5.29-11.88,11.79s5.32,11.82,11.88,11.82,11.91-5.31,11.91-11.82-5.35-11.79-11.91-11.79Z"/>
        <path d="M496.58,235.94c-6.56,0-11.91,5.28-11.91,11.79s5.35,11.82,11.91,11.82,11.88-5.31,11.88-11.82-5.35-11.79-11.88-11.79Z"/>
        <path d="M442.88,283.6l-1.63,6.77c2.61.63,5.88,1.78,6.62,3.98.89,2.8-2.02,7.01-3.14,8.26l5.31,4.57c.68-.8,6.71-7.96,4.49-14.97-1.4-4.22-5.32-7.13-11.64-8.61Z"/>
        <g>
          <path class="cls-2" d="M1282.79,1003.62c-82.5,0-154.5,61.83-154.5,137.84,0,4.43.3,9.03.98,14.23h302.22c.63-5.14.92-9.74.92-14.23,0-76-67.12-137.84-149.63-137.84Z"/>
          <path class="cls-4" d="M1431.5,1158.71h-302.22c-1.52,0-2.82-1.13-3.03-2.65-.65-5.14-.98-9.92-.98-14.61,0-76.36,72.14-140.87,157.52-140.87s152.66,63.17,152.66,140.87c0,4.6-.3,9.36-.92,14.58-.21,1.54-1.49,2.67-3.03,2.67ZM1131.98,1152.65h296.79c.42-3.95.62-7.63.62-11.19,0-74.34-65.78-134.81-146.6-134.81s-151.47,61.75-151.47,134.81c0,3.62.21,7.31.65,11.19Z"/>
        </g>
        <g>
          <path class="cls-1" d="M1216.68,948.56c-1.07,0-2.02.12-2.8.33-17.58,5.29-49.66,29.31-75.46,48.62-19.43,14.52-34.78,26.02-42.38,28.75-1.28.44-2.88.65-5.05.65-32.19,0-153.57-28.22-153.57-28.22l-59.46,156.7c33.06.68,110.58,0,241.34,0s158.18-9.32,161.18-10.87c8.73-5.05,13.9-10.75,14.97-16.46,1.1-5.91-2.32-10.27-2.46-10.42l-3.03-3.62,3.95-2.59c3.36-2.2,5.05-4.69,5.17-7.63.35-8.34-10.78-19.01-15.12-22.42l-4.49-3.53,4.69-3.24c6.41-4.36,9.38-9.03,9.17-14.25-.47-13.13-20.67-27.83-28.39-32.38l4.13-7.33c1.13.59,27.73,14.7,38.46,26.46,15.39,16.78,35.28,22.78,47.67,22.78,5.26,0,8.08-1.1,8.58-1.6.18-.3.36-2.52-2.52-7.66-18.62-33.47-115.44-112.06-144.58-112.06Z"/>
          <path class="cls-4" d="M926.1,1158.74c-21.23,0-37.15-.09-48.2-.33-.98,0-1.9-.5-2.46-1.34-.53-.8-.68-1.84-.33-2.76l59.46-156.7c.57-1.45,1.99-2.31,3.53-1.9,1.22.29,121.42,28.15,152.89,28.15,1.79,0,3.15-.18,4.04-.5,7.16-2.56,23.11-14.49,41.58-28.3,25.96-19.43,58.3-43.6,76.39-49.1,1.16-.33,2.37-.44,3.68-.44,30.41,0,127.65,78.41,147.22,113.6,1.6,2.85,4.07,8.08,2.5,10.72-.15.24-.33.45-.53.66-1.57,1.45-5.76,2.41-10.66,2.41-12.98,0-33.83-6.21-49.9-23.76-8.52-9.32-28.01-20.52-35.04-24.41l-1.25,2.2c7.13,4.69,26.85,18.92,27.36,33.29.27,6.36-3.18,11.88-10.48,16.9l-1.3.86,1.25,1.01c.18.12,16.78,13.33,16.27,24.92-.12,3.95-2.35,7.3-6.53,10.07l-1.1.71.86.98c.77.77,4.36,6.12,3.12,12.95-1.25,6.62-6.95,13.01-16.45,18.53-5.23,2.7-32.04,11.25-162.69,11.25-51.35,0-94.47.12-129.94.21-24.8.06-45.83.12-63.26.12ZM882.32,1152.41c20.79.36,55.72.24,107.01.12,35.46-.09,78.61-.18,129.97-.18,132.61,0,156.37-8.79,159.79-10.54,7.69-4.46,12.47-9.56,13.36-14.32.86-4.52-1.75-7.87-1.79-7.9l-3.06-3.62c-.53-.68-.8-1.54-.65-2.41.12-.86.59-1.63,1.34-2.11l3.95-2.59c3.3-2.14,3.74-4.01,3.8-5.2.27-6.53-9.26-16.25-13.96-19.93l-4.49-3.53c-.77-.59-1.19-1.51-1.16-2.46.03-.98.51-1.87,1.31-2.41l4.69-3.23c7.28-4.99,7.95-9.03,7.87-11.64-.38-10.46-16.72-23.88-26.91-29.88-1.42-.83-1.93-2.67-1.1-4.1l4.13-7.33c.8-1.45,2.52-1.99,4.07-1.22,1.13.63,28.16,14.91,39.29,27.12,14.73,16.06,33.68,21.8,45.41,21.8,2.41,0,4.19-.27,5.31-.53-.27-.92-.83-2.28-1.9-4.22-17.88-32.1-114.29-110.51-141.94-110.51-.78,0-1.46.09-1.99.24-16.98,5.14-48.86,28.95-74.45,48.11-19.64,14.67-35.14,26.28-43.16,29.16-1.63.59-3.56.83-6.09.83-29.94,0-133.44-23.5-151.68-27.68l-56.99,150.16Z"/>
        </g>
        <g>
          <path d="M260.29,286.66c-12,4.99-18.89,15.8-18.42,28.84.86,24.44,24.23,33.2,36.48,34.39l.68-6.92c-1.19-.12-29.31-3.18-30.17-27.71-.33-10.22,4.81-18.29,14.17-22.21,9.98-4.16,21.95-2.29,28.51,4.54l5.08-4.81c-8.64-8.94-23.58-11.47-36.32-6.12Z"/>
          <path d="M267.3,305.52c-1.9-3.95-1.54-9,1.19-15l-6.39-2.82c-3.62,7.99-3.98,15.06-1.04,20.91,4.46,8.94,14.82,11.46,15.27,11.55l1.63-6.71c-.09-.06-7.66-1.94-10.66-7.93Z"/>
        </g>
        <path class="cls-3" d="M840.86,867.23c-116.22-65.72-204.07-271.24-272.59-328.71l-287.32,209.26c159.88,198.72,398.01,407.9,555.95,407.9h207.84l32.32-194.5s-136.89-37.75-236.2-93.95Z"/>
        <path class="cls-4" d="M1044.75,1158.71h-207.84c-158.36,0-394.53-205.43-558.33-409.02-1.04-1.31-.83-3.21.48-4.28,1.3-1.01,3.23-.8,4.28.47,162.87,202.47,397.23,406.77,553.58,406.77h205.25l31.45-189.27c-19.54-5.61-143.3-42.02-234.24-93.47-71.13-40.24-130.68-130.77-183.22-210.63-33.92-51.56-63.21-96.1-89.84-118.44-1.28-1.07-1.45-2.97-.36-4.28,1.07-1.28,3.03-1.49,4.28-.36,27.3,22.9,56.82,67.78,91,119.72,52.15,79.3,111.28,169.17,181.11,208.7,97.86,55.33,234.15,93.25,235.52,93.61,1.51.41,2.46,1.9,2.2,3.44l-32.31,194.5c-.24,1.46-1.52,2.53-3,2.53Z"/>
      </g>
    </g>
    <g>
      <path d="M918.59,322.86c0,65.51,38.07,122.13,93.28,148.96l-78.95-216.31c-9.18,20.58-14.33,43.36-14.33,67.36Z"/>
      <path d="M1195.83,314.51c0-20.45-7.35-34.62-13.65-45.65-8.39-13.63-16.25-25.18-16.25-38.81,0-15.21,11.54-29.38,27.79-29.38.73,0,1.43.09,2.14.13-29.45-26.98-68.68-43.45-111.77-43.45-57.82,0-108.69,29.67-138.29,74.6,3.88.12,7.54.2,10.65.2,17.31,0,44.11-2.1,44.11-2.1,8.92-.53,9.97,12.58,1.06,13.63,0,0-8.97,1.06-18.94,1.58l60.27,179.27,36.22-108.63-25.79-70.65c-8.91-.52-17.36-1.58-17.36-1.58-8.92-.52-7.87-14.16,1.05-13.63,0,0,27.33,2.1,43.6,2.1,17.31,0,44.11-2.1,44.11-2.1,8.93-.53,9.98,12.58,1.06,13.63,0,0-8.98,1.06-18.94,1.58l59.81,177.92,16.51-55.17c7.16-22.89,12.6-39.33,12.6-53.5Z"/>
      <path d="M1087.01,337.34l-49.66,144.3c14.83,4.36,30.51,6.74,46.75,6.74,19.27,0,37.76-3.33,54.96-9.38-.44-.71-.85-1.46-1.18-2.28l-50.88-139.38Z"/>
      <path d="M1229.33,243.46c.71,5.27,1.11,10.93,1.11,17.02,0,16.8-3.14,35.68-12.58,59.28l-50.56,146.17c49.2-28.69,82.3-82,82.3-143.06,0-28.78-7.35-55.83-20.28-79.41Z"/>
      <path d="M1084.1,129.93c-106.38,0-192.93,86.55-192.93,192.93s86.55,192.94,192.93,192.94,192.94-86.54,192.94-192.94c0-106.38-86.57-192.93-192.94-192.93ZM1084.1,506.96c-101.5,0-184.09-82.58-184.09-184.09s82.58-184.08,184.09-184.08,184.08,82.58,184.08,184.08-82.58,184.09-184.08,184.09Z"/>
    </g>
  </g>
</svg>