<?xml version="1.0" encoding="UTF-8"?>
<svg id="Capa_2" data-name="Capa 2" xmlns="http://www.w3.org/2000/svg" viewBox="0 0 266.1 240.44">
  <defs>
    <style>
      .cls-1 {
        fill: #fff;
      }

      .cls-2 {
        fill: #1212db;
      }

      .cls-3 {
        fill: #080717;
      }
    </style>
  </defs>
  <g id="_Layer_" data-name="&amp;lt;Layer&amp;gt;">
    <g>
      <g>
        <path class="cls-1" d="M132.19,230.45l-6.98-57.86-58.86,28.93-21.98,8.69c-25.13,9.94-50.36-14.13-41.62-39.7l4.74-13.88,113.73-50.88,57.86-13.97,48,19.76c12.44,5.12,21.62,15.97,24.62,29.09l12.51,54.79c2.33,10.2.1,20.91-6.11,29.34h0c-10.47,14.2-29.69,18.72-45.38,10.66l-9.68-4.97h-70.83Z"/>
        <path class="cls-3" d="M229.19,240.44c-5.73,0-11.52-1.34-16.95-4.12l-9.68-4.97c-.49-.25-.69-.86-.43-1.35.25-.49.86-.69,1.35-.43l9.69,4.97c15.34,7.88,33.89,3.52,44.12-10.36,6.04-8.2,8.21-18.59,5.94-28.52l-12.51-54.79c-2.92-12.78-11.9-23.39-24.02-28.39l-47.7-19.64-57.46,13.87L8.29,157.36l-4.6,13.46c-3.92,11.46-.91,23.76,7.85,32.12,8.76,8.36,21.2,10.78,32.45,6.33l21.98-8.69,58.79-28.9c.29-.14.63-.14.92.02.29.15.48.44.52.76l6.98,57.86c.07.55-.32,1.05-.87,1.11-.54.07-1.05-.32-1.11-.87l-6.81-56.46-57.6,28.31-22.05,8.72c-11.99,4.74-25.24,2.16-34.57-6.74-9.33-8.9-12.54-22.01-8.37-34.21l4.74-13.88c.09-.26.28-.48.54-.59l113.73-50.88c.06-.02.11-.04.17-.06l57.86-13.97c.21-.05.42-.03.62.05l48,19.76c12.72,5.24,22.15,16.38,25.21,29.79l12.51,54.79c2.4,10.5.11,21.49-6.28,30.15-7.2,9.77-18.3,15.08-29.7,15.08Z"/>
      </g>
      <g>
        <path class="cls-1" d="M154.14,112.73l.05.03c9.25,6.17,21.06,7.02,31.1,2.24l4.76-2.27v-49.88h-35.91v49.88Z"/>
        <path class="cls-3" d="M171.73,119.05c-6.35,0-12.69-1.84-18.1-5.45-.28-.19-.49-.53-.49-.86v-49.88c0-.55.45-1,1-1h35.91c.55,0,1,.45,1,1v49.88c0,.39-.22.74-.57.9l-4.76,2.27c-4.42,2.1-9.21,3.14-13.98,3.14ZM155.14,112.19c8.86,5.7,20.2,6.44,29.72,1.9l4.19-2v-48.25h-33.91v48.34Z"/>
      </g>
      <g>
        <path class="cls-1" d="M100.34,216.68c-42.25,0-76.63-34.38-76.63-76.64,0-25.53,10.92-46.97,31.59-61.98,10.2-7.4,20.82-11.88,32.47-13.68.04,0,.08-.01.12-.03l.56-.07c.87-.13,1.74-.24,2.61-.34,1.04-.11,2.03-.21,3.03-.28,0,0,.2-.01.2-.01.95-.07,1.91-.12,2.88-.15,1.04-.04,2.09-.05,3.15-.06,6.77,0,12.76.75,18.89,2.35.19.05.78.21.78.21.64.17,1.29.36,1.94.55.66.19,1.31.39,1.96.6,0,0,.39.13.39.13,1.13.37,2.23.76,3.26,1.15l.63.25c.95.37,1.88.75,2.81,1.16.24.11.48.22.72.33l.37.17c.74.34,1.47.68,2.2,1.04.53.26,1.05.53,1.57.81.53.28,1.06.56,1.59.85.67.37,1.33.75,1.99,1.15.36.21.72.42,1.07.64.78.48,1.54.97,2.29,1.47l.69.46c.83.57,1.65,1.15,2.46,1.75l.47.35c.84.63,1.66,1.28,2.47,1.94l.4.33c.8.67,1.59,1.35,2.36,2.04l.47.43c.72.66,1.42,1.33,2.11,2.01.22.22.44.44.67.67.6.61,1.19,1.22,1.76,1.85.31.34.62.69.93,1.03.46.51.91,1.03,1.35,1.56.42.5.83,1.01,1.24,1.52.3.38.61.76.91,1.15.53.68,1.04,1.38,1.54,2.08l.48.68c.61.88,1.21,1.76,1.79,2.66l.12.18c5.28,8.29,8.86,17.38,10.65,27.01l.08.47c.18.99.34,1.99.48,3,.04.26.07.52.1.79l.04.34c.1.8.19,1.61.27,2.42.05.51.08,1.02.12,1.53l.03.47c.04.56.08,1.11.1,1.67.03.73.04,1.46.06,2.19,0,.18,0,.36.02.54,0,.22.02.44.02.66v.43c-.01.65-.04,1.31-.06,1.96l-.02.57c-.01.48-.03.96-.06,1.43-.02.34-.05.68-.08,1.03l-.04.47c-.06.85-.13,1.69-.22,2.53l-.06.5c-4.47,38.61-37.19,67.73-76.1,67.73Z"/>
        <path class="cls-3" d="M100.32,64.44s.04,0,.05,0c6.72,0,12.46.72,18.6,2.32.16.04.31.08.47.12l.28.07c.64.17,1.28.35,1.93.55.65.19,1.29.38,1.93.59l.11.03.07.03c.06.02.13.05.2.07,1.12.37,2.21.75,3.22,1.14.11.04.22.09.33.13l.29.11c1.03.4,1.94.78,2.78,1.14.24.11.49.22.73.33l.34.16c.64.29,1.41.65,2.17,1.02.52.25,1.02.52,1.55.79.52.27,1.05.55,1.57.84.58.32,1.2.68,1.96,1.13l.09.05c.32.19.65.38.97.58.73.45,1.47.92,2.26,1.45l.07.05c.2.14.41.27.61.41.8.54,1.61,1.12,2.42,1.72l.47.35c.82.62,1.64,1.26,2.44,1.92l.4.33c.8.66,1.58,1.34,2.33,2.01.16.14.31.28.46.42.72.66,1.42,1.33,2.09,1.99.22.22.44.44.65.66.63.64,1.2,1.24,1.74,1.83.31.34.62.68.92,1.02.45.51.9,1.02,1.33,1.54.42.49.82.99,1.22,1.49.3.38.6.76.9,1.14.48.63.98,1.3,1.52,2.04l.09.12c.13.18.26.37.39.56.59.84,1.18,1.72,1.76,2.62l.06.1.06.09c5.21,8.18,8.74,17.14,10.51,26.66l.05.25.04.2c.19,1.07.35,2.03.48,2.97.04.26.07.52.1.78l.04.33c.09.72.19,1.56.27,2.4.05.5.08,1,.12,1.5l.02.24.02.24c.04.55.08,1.09.1,1.65.03.72.04,1.44.05,2.16,0,.19,0,.37.02.56,0,.21.01.42.01.63,0,.05,0,.1,0,.15,0,.09,0,.18,0,.27,0,.65-.03,1.29-.05,1.94v.16s-.02.42-.02.42c-.01.46-.03.93-.05,1.38-.02.34-.05.67-.08,1.01l-.04.47c-.07.89-.13,1.69-.22,2.49,0,.08-.02.16-.03.24l-.03.26c-4.42,38.11-36.7,66.84-75.1,66.84-41.7,0-75.63-33.93-75.63-75.64,0-25.2,10.78-46.35,31.18-61.17,10.07-7.31,20.55-11.72,32.04-13.5.05,0,.11-.02.16-.03h.11s.18-.04.18-.04l.23-.03c1-.15,1.82-.25,2.55-.33.02,0,.06,0,.08,0,1-.11,1.99-.2,2.99-.27h.15c1.04-.08,1.97-.13,2.85-.16,1.02-.04,2.06-.05,3.11-.06h0ZM100.34,62.44h-.02c-1.07,0-2.13.02-3.18.06-.98.03-1.95.09-2.92.16-.07,0-.13,0-.2.01-1.02.07-2.02.17-3.02.28-.02,0-.03,0-.05,0-.89.1-1.77.22-2.64.35-.14.02-.28.03-.41.06-.09.01-.18.02-.27.04h0c-11.87,1.85-22.59,6.39-32.91,13.87-20.81,15.12-32,37.09-32,62.79,0,42.87,34.76,77.64,77.63,77.64,39.82,0,72.61-29.99,77.09-68.61.02-.17.05-.34.06-.51.09-.85.16-1.7.22-2.56.04-.51.09-1.01.12-1.52.03-.61.05-1.23.07-1.85.02-.72.05-1.44.05-2.16,0-.15.01-.29.01-.43,0-.41-.02-.81-.03-1.22-.01-.74-.02-1.48-.06-2.22-.03-.65-.07-1.29-.12-1.93-.04-.6-.08-1.19-.14-1.78-.08-.82-.17-1.64-.27-2.46-.05-.38-.09-.76-.14-1.14-.14-1.02-.31-2.03-.49-3.04-.03-.16-.05-.31-.08-.47-1.84-9.91-5.57-19.16-10.79-27.36-.04-.06-.08-.12-.12-.19-.58-.91-1.19-1.81-1.81-2.7-.16-.23-.33-.46-.49-.69-.51-.71-1.03-1.41-1.56-2.1-.3-.39-.61-.78-.92-1.17-.41-.52-.83-1.03-1.26-1.53-.45-.53-.9-1.06-1.37-1.58-.31-.35-.63-.7-.95-1.05-.58-.63-1.18-1.26-1.79-1.87-.22-.23-.45-.45-.67-.68-.7-.69-1.41-1.37-2.14-2.04-.16-.15-.32-.29-.48-.44-.78-.7-1.57-1.39-2.39-2.07-.14-.11-.27-.22-.41-.34-.82-.67-1.65-1.33-2.5-1.97-.16-.12-.32-.24-.48-.36-.82-.6-1.64-1.19-2.49-1.77-.23-.16-.47-.31-.7-.47-.76-.51-1.54-1.01-2.32-1.49-.36-.22-.72-.44-1.08-.65-.67-.39-1.34-.78-2.02-1.16-.53-.29-1.07-.58-1.61-.86-.53-.28-1.06-.55-1.59-.82-.73-.36-1.48-.71-2.23-1.05-.37-.17-.73-.34-1.1-.5-.94-.41-1.89-.8-2.85-1.17-.21-.08-.42-.17-.64-.25-1.09-.41-2.19-.8-3.31-1.17-.09-.03-.18-.07-.27-.1-.04-.01-.08-.02-.12-.04-.65-.21-1.32-.41-1.98-.6-.66-.2-1.32-.38-1.97-.56-.26-.07-.52-.14-.78-.21-6.27-1.63-12.26-2.38-19.09-2.38-.01,0-.02,0-.03,0h0Z"/>
      </g>
      <path class="cls-3" d="M239.93,186.56c-.17,0-.33-.04-.49-.13l-41.68-23.28c-.48-.27-.65-.88-.39-1.36.27-.48.88-.66,1.36-.39l41.68,23.28c.48.27.65.88.39,1.36-.18.33-.52.51-.87.51Z"/>
      <path class="cls-3" d="M203.02,231.45c-.24,0-.47-.08-.66-.25l-44.01-39.13c-.41-.37-.45-1-.08-1.41.37-.41,1-.45,1.41-.08l44.01,39.13c.41.37.45,1,.08,1.41-.2.22-.47.34-.75.34Z"/>
      <g>
        <path class="cls-2" d="M38.02,140.19c0,24.67,14.33,45.98,35.12,56.08l-29.73-81.44c-3.46,7.75-5.4,16.33-5.4,25.36Z"/>
        <path class="cls-2" d="M142.41,137.05c0-7.7-2.77-13.04-5.14-17.19-3.16-5.13-6.12-9.48-6.12-14.61,0-5.73,4.34-11.06,10.46-11.06.28,0,.54.03.81.05-11.09-10.16-25.86-16.36-42.08-16.36-21.77,0-40.92,11.17-52.07,28.09,1.46.04,2.84.07,4.01.07,6.52,0,16.61-.79,16.61-.79,3.36-.2,3.76,4.74.4,5.13,0,0-3.38.4-7.13.59l22.69,67.5,13.64-40.9-9.71-26.6c-3.36-.2-6.53-.59-6.53-.59-3.36-.2-2.96-5.33.39-5.13,0,0,10.29.79,16.41.79,6.52,0,16.61-.79,16.61-.79,3.36-.2,3.76,4.74.4,5.13,0,0-3.38.4-7.13.59l22.52,66.99,6.22-20.77c2.69-8.62,4.74-14.81,4.74-20.14Z"/>
        <path class="cls-2" d="M101.43,145.64l-18.7,54.33c5.58,1.64,11.49,2.54,17.6,2.54,7.26,0,14.22-1.25,20.69-3.53-.17-.27-.32-.55-.44-.86l-19.16-52.48Z"/>
        <path class="cls-2" d="M155.02,110.29c.27,1.98.42,4.12.42,6.41,0,6.32-1.18,13.43-4.74,22.32l-19.03,55.03c18.53-10.8,30.99-30.87,30.99-53.86,0-10.83-2.77-21.02-7.63-29.9Z"/>
        <path class="cls-2" d="M100.34,67.55c-40.05,0-72.64,32.59-72.64,72.64s32.59,72.64,72.64,72.64,72.65-32.58,72.65-72.64c0-40.05-32.59-72.64-72.65-72.64ZM100.34,209.5c-38.22,0-69.31-31.09-69.31-69.31s31.09-69.31,69.31-69.31,69.31,31.09,69.31,69.31-31.09,69.31-69.31,69.31Z"/>
      </g>
      <g>
        <path class="cls-1" d="M168.55,177.36l-9.22,13.17s16.1,5.34,26.54-7.7c10.44-13.03,22.3-35.86,12.4-46.07-9.9-10.21-21.65-30.74-25.39-20.99-2.8,7.3,12.29,29.05,12.29,29.05l-30.45-14.45s-4.08,4.65-4.77,10.02c-.29,2.25-.58,6.22-.47,10.8.15,6.35,4.72,16.32,19.07,26.16Z"/>
        <path class="cls-3" d="M164.32,192.24c-1.85,0-3.66-.1-5.36-.25-.55-.05-.96-.54-.91-1.09.05-.55.53-.96,1.09-.91,8.62.78,20.11.06,25.93-7.76,7.08-9.52,22.46-32.95,12.44-44.83l-19.93-22.8c-.37-.42-.85-.63-1.46-.65-.56,0-1.08.25-1.44.68-2.24,2.65-2.57,6.44-.81,9.43l12.59,21.43c.28.48.12,1.09-.36,1.37-.48.28-1.09.12-1.37-.36l-12.59-21.43c-2.19-3.72-1.78-8.44,1-11.74.74-.87,1.81-1.38,2.96-1.39h.03c1.13,0,2.2.49,2.95,1.34l19.94,22.81c4.54,5.38,8.96,18.67-12.35,47.33-5.18,6.97-14.24,8.81-22.35,8.81Z"/>
        <path class="cls-3" d="M193.26,151.04c-.15,0-.31-.04-.46-.11l-38.04-19.71c-1.28,1.09-4.51,4.35-2.25,7.72.31.46.19,1.08-.27,1.39-.46.31-1.08.18-1.39-.27-3.03-4.52.77-9.06,3.21-10.83.31-.22.71-.25,1.05-.08l38.62,20.01c.49.25.68.86.43,1.35-.18.34-.53.54-.89.54Z"/>
        <path class="cls-3" d="M180.14,172.18c-.19,0-.39-.05-.56-.17-1.1-.74-26.86-18.1-30.57-21.53-4.19-3.87-.54-11.66-.39-12,.12-.25.34-.44.61-.53.27-.08.56-.05.8.09l38.38,22.32c.48.28.64.89.36,1.37-.28.48-.89.64-1.37.36l-37.38-21.74c-.75,2-2.02,6.46.35,8.66,3.6,3.32,30.06,21.16,30.33,21.34.46.31.58.93.27,1.39-.19.29-.51.44-.83.44Z"/>
        <path class="cls-3" d="M172.14,179.66c-.17,0-.35-.04-.51-.14-1.14-.67-27.81-16.63-22.61-29.71.2-.51.78-.76,1.3-.56.51.2.76.79.56,1.3-2.34,5.88,3.58,12.91,8.96,17.77,6.02,5.44,12.74,9.44,12.81,9.48.48.28.63.89.35,1.37-.19.32-.52.49-.86.49Z"/>
      </g>
      <g>
        <path class="cls-1" d="M22.3,170.71l9.16,18.56s-21.39-4.13-25.45-20.33c-4.06-16.2-5.32-41.89,7.93-47.05s35.97-.95,35.97-.95c0,0,4.13,9.57-3.66,10.31-43.73,4.16-8.98,4.16-8.98,4.16l18.95-1.5s1.73,6.26.12,11.43c-1.61,5.17-2.46,21.39-34.05,25.38Z"/>
        <path class="cls-3" d="M26.98,188.54c-.11,0-.22-.02-.33-.06-8.64-3.06-19.4-8.89-21.62-19.33-7.43-34.93,2.13-45.17,8.48-48.16,13.46-6.34,35.69-1.24,36.63-1.02.31.07.56.29.69.57.09.21,2.17,5.08.41,8.65-.8,1.63-2.24,2.72-4.27,3.22-2.83.71-6.7.82-10.44.93-5.32.15-11.34.32-13.02,2.37-.35.43-.98.49-1.41.14-.43-.35-.49-.98-.14-1.41,2.26-2.75,8.21-2.92,14.51-3.1,3.63-.1,7.39-.21,10.01-.87,1.46-.37,2.43-1.07,2.97-2.17,1-2.03.26-5.05-.27-6.51-3.4-.72-23.06-4.54-34.81.99-14.07,6.63-9.85,34.33-7.38,45.94,2.03,9.54,12.18,14.98,20.33,17.86.52.18.79.75.61,1.28-.15.41-.53.67-.94.67Z"/>
        <path class="cls-3" d="M55.15,144.8c-.34,0-.66-.17-.85-.48-.29-.47-.14-1.09.33-1.38,3.46-2.12,1.88-6.43,1.17-7.96l-42.79,2.06c-.55.03-1.02-.4-1.05-.95-.03-.55.4-1.02.95-1.05l43.44-2.09c.39-.01.73.18.92.51,1.47,2.62,3.04,8.33-1.6,11.18-.16.1-.34.15-.52.15Z"/>
        <path class="cls-3" d="M16.07,161.74c-.48,0-.91-.35-.99-.84-.09-.54.28-1.06.82-1.15.32-.05,31.81-5.23,36.46-6.75,3.08-1.01,3.77-5.59,3.93-7.72l-43.04,4.18c-.54.06-1.04-.35-1.09-.9-.05-.55.35-1.04.9-1.09l44.19-4.29c.28-.03.55.06.76.25.21.19.33.45.33.73,0,.37.07,8.97-5.35,10.74-4.8,1.57-35.46,6.61-36.76,6.83-.05,0-.11.01-.16.01Z"/>
        <path class="cls-3" d="M20.23,171.87c-.51,0-.94-.38-.99-.9-.06-.55.34-1.04.89-1.1.08,0,7.85-.84,15.59-3.28,6.91-2.17,15.23-6.1,15.56-12.42.03-.55.5-.99,1.05-.95.55.03.98.5.95,1.05-.73,14.05-31.62,17.44-32.94,17.58-.04,0-.07,0-.1,0Z"/>
      </g>
      <g>
        <path class="cls-3" d="M210.55,62.39l-7.65,23.75c-.67,2.08-2.71,3.4-4.89,3.16h0s-2.45-12.22-3.07-11.92c-5.73,2.76,15.61-14.99,15.61-14.99Z"/>
        <g>
          <path class="cls-1" d="M148.78,22.83l38.69-8.65,18.82,38.69c.12.04.25.07.37.11,6.36,2.21,9.73,9.16,7.52,15.53-2.21,6.36-9.16,9.73-15.53,7.52-.38-.13-.74-.31-1.09-.47l-2.95,5.64c-5.01,9.59-15.05,15.48-25.86,15.19l-15.4-.42c-9.69-.27-17.4-8.19-17.41-17.88l-.02-39.2c0-7.7,5.34-14.37,12.85-16.05Z"/>
          <path class="cls-3" d="M169.51,97.39c-.26,0-.52,0-.79-.01l-15.4-.42c-10.3-.28-18.37-8.57-18.38-18.88l-.02-39.2c0-8.23,5.6-15.24,13.64-17.03l38.69-8.65c.45-.11.91.12,1.12.54l18.63,38.3c3.32,1.16,6,3.54,7.54,6.71,1.54,3.17,1.75,6.75.59,10.09-2.39,6.87-9.92,10.53-16.8,8.14-.11-.04-.21-.08-.32-.12l-2.51,4.8c-5.03,9.62-15.17,15.74-25.99,15.74ZM148.78,22.83l.22.98c-7.11,1.59-12.08,7.79-12.07,15.08l.02,39.2c0,9.21,7.22,16.63,16.43,16.88l15.4.42c10.37.32,20.15-5.47,24.95-14.65l2.95-5.64c.25-.48.82-.67,1.31-.44l.16.08c.27.13.55.26.84.36,5.83,2.03,12.23-1.07,14.25-6.91.98-2.83.8-5.86-.5-8.56-1.3-2.69-3.58-4.71-6.4-5.7l-.34-.11c-.26-.08-.48-.27-.6-.52l-18.47-37.98-37.92,8.47-.22-.98Z"/>
        </g>
        <ellipse class="cls-3" cx="144.32" cy="23.07" rx="18.88" ry="15.95" transform="translate(23.66 105.54) rotate(-43.43)"/>
        <path class="cls-3" d="M164.54,11.76c6.38-1.55,12.13-3.83,16.84-6.51.51.97.9,2,1.17,3.09,2.08,8.56-4.45,17.49-14.58,19.96-10.13,2.46-20.04-2.47-22.12-11.03-.29-1.2-.4-2.41-.36-3.61,5.67.35,12.24-.24,19.05-1.89Z"/>
        <path class="cls-3" d="M172.98,57.81c.09,2.2-1.15,4.03-2.77,4.1-1.62.07-3.02-1.65-3.11-3.85-.09-2.2,1.15-4.03,2.77-4.1s3.02,1.65,3.11,3.85Z"/>
        <path class="cls-3" d="M174.68,42.99c-.28,0-.56-.12-.76-.35-2.77-3.25-7.69-2.6-7.73-2.59-.55.07-1.05-.3-1.13-.85-.08-.55.3-1.05.84-1.13.25-.04,6.04-.83,9.54,3.27.36.42.31,1.05-.11,1.41-.19.16-.42.24-.65.24Z"/>
        <path class="cls-3" d="M144.86,55.75c.09,2.2-1.15,4.03-2.77,4.1s-3.02-1.65-3.11-3.85c-.09-2.2,1.15-4.03,2.77-4.1s3.02,1.65,3.11,3.85Z"/>
        <path class="cls-3" d="M140.62,41.96c-.2,0-.41-.06-.59-.19-.45-.32-.55-.95-.22-1.4.89-1.23,3.6-2.89,7.48-.35.46.3.59.92.29,1.38-.3.46-.92.59-1.38.29-3.26-2.14-4.7-.23-4.76-.15-.2.27-.5.41-.81.41Z"/>
        <path class="cls-3" d="M150.03,72.47c-.24,0-.49-.09-.68-.27l-1.05-.97c-3-2.78-3.3-7.41-.68-10.55l4.51-5.39c.35-.42.98-.48,1.41-.13.42.35.48.99.13,1.41l-4.51,5.39c-1.94,2.32-1.72,5.74.5,7.79l1.05.97c.41.38.43,1.01.05,1.41-.2.21-.47.32-.73.32Z"/>
        <path class="cls-3" d="M159.57,81.89c-1.35,0-2.8-.28-4.18-1.11-.47-.28-.63-.9-.34-1.37.28-.47.9-.63,1.37-.34,3.29,1.97,7.52-.25,7.56-.28.48-.26,1.09-.08,1.35.41.26.49.08,1.09-.4,1.35-.14.08-2.51,1.34-5.36,1.34Z"/>
        <path class="cls-3" d="M174.2,71.35c-1.42,0-2.9-.07-4.44-.21-6.32-.57-11.45-5.55-12.18-11.83l-1.23-10.58-26.18-.72c-1.01-.02-1.98.35-2.7,1.05-.73.71-1.13,1.66-1.13,2.67v4.86c-.02,4.98,3.8,11.3,8.27,11.59l6.47.18c1.88.07,3.75-.67,5.11-1.97.4-.38,1.03-.37,1.41.03.38.4.37,1.03-.03,1.41-1.74,1.67-4.13,2.59-6.54,2.53l-6.51-.18c-4.74-.3-10.2-6.31-10.18-13.59v-4.86c.01-1.56.63-3.01,1.75-4.1,1.12-1.09,2.59-1.64,4.15-1.62l53.65,1.47c2.25.06,4.29,1.15,5.58,2.99,1.29,1.83,1.63,4.1.94,6.22-2,6.12-5.6,13.58-11.38,14.36-1.5.2-3.1.3-4.8.3ZM158.36,48.79l1.2,10.29c.62,5.35,4.99,9.58,10.38,10.07,3.24.29,6.19.27,8.79-.08,3.71-.5,7.17-5.11,9.75-12.99.5-1.52.25-3.14-.67-4.45-.93-1.32-2.39-2.1-4-2.15l-25.44-.7Z"/>
        <path class="cls-3" d="M149.38,60.74s-.06,0-.09,0c-.55-.05-.96-.53-.91-1.08l1.06-12.17c.05-.55.53-.97,1.08-.91.55.05.96.53.91,1.08l-1.06,12.17c-.05.52-.48.91-1,.91Z"/>
        <ellipse class="cls-3" cx="205.83" cy="38.62" rx="19.78" ry="12.68" transform="translate(161.6 243.32) rotate(-88.43)"/>
        <path class="cls-3" d="M182.95,31.39c6.05,6.4,15.09,7.68,20.18,2.86,5.09-4.82,4.3-13.91-1.75-20.3-6.06-6.4-15.09-7.68-20.18-2.86-5.09,4.82-4.3,13.91,1.75,20.3Z"/>
        <path class="cls-3" d="M206.68,25.44s2.3-21.65-16.19-23.62C172-.15,146.16,4.16,142.23,0c-.47-.5,2.62,20.32,12.84,21.09,10.23.77,41.38-5.21,51.61,4.34Z"/>
        <path class="cls-3" d="M198.21,49.61l-4.16,15.87c-.28,1.06.22,2.17,1.2,2.66h0c1.27.64,2.81,0,3.25-1.36l5.83-17.98-6.12.81Z"/>
        <path class="cls-3" d="M201.71,68.06c-.08,0-.16,0-.24-.03-.54-.13-.86-.67-.73-1.21.06-.24,1.5-5.91,6.61-7.62.52-.18,1.09.11,1.27.63.18.52-.11,1.09-.63,1.27-4.05,1.36-5.29,6.15-5.3,6.2-.11.46-.52.76-.97.76Z"/>
      </g>
    </g>
  </g>
</svg>